<?xml version="1.0" encoding="UTF-8"?>
<svg xmlns="http://www.w3.org/2000/svg" xmlns:xlink="http://www.w3.org/1999/xlink" version="1.2" >
<font id="GrotoUIUltra-Regular" horiz-adv-x="653">
<font-face  font-family="Groto UI Ultra" units-per-em="2048" ascent="2146" descent="-555" font-style="normal" font-weight="400" font-stretch="ultra-condensed" cap-height="1456" x-height="1082" underline-position="-100" underline-thickness="100" />
<missing-glyph horiz-adv-x="669" d="M129 1456 L540 1456 L540 0 L129 0 L129 1456 Z M508 87 L508 1369 L350 728 L508 87 Z M316 728 L161 1357 L161 99 L316 728 Z M184 54 L482 54 L333 659 L184 54 Z M333 797 L482 1402 L184 1402 L333 797 Z " />
<glyph glyph-name="uni0000" horiz-adv-x="0" />
<glyph glyph-name="uni000D" unicode="&#xd;" horiz-adv-x="357" />
<glyph glyph-name="space" unicode="&#x20;" horiz-adv-x="357" />
<glyph glyph-name="uni0002" unicode="&#x2;" horiz-adv-x="0" />
<glyph glyph-name="uni0009" unicode="&#x9;" horiz-adv-x="357" />
<glyph glyph-name="exclam" unicode="&#x21;" horiz-adv-x="461" d="M168 409 L153 1456 L315 1456 L298 409 L168 409 Z M235 -11 Q194 -11 171 16 Q148 43 148 83 Q148 122 171 149.5 Q194 177 235 177 Q275 177 298 149.5 Q321 122 321 83 Q321 43 298 16 Q275 -11 235 -11 Z " />
<glyph glyph-name="quotedbl" unicode="&#x22;" horiz-adv-x="568" d="M125 1391 L125 1536 L242 1536 L242 1399 L219 1061 L124 1061 L125 1391 Z M338 1391 L338 1536 L455 1536 L455 1399 L432 1061 L337 1061 L338 1391 Z " />
<glyph glyph-name="numbersign" unicode="&#x23;" horiz-adv-x="858" d="M251 410 L118 410 L118 526 L263 526 L305 922 L162 922 L162 1040 L317 1040 L361 1456 L462 1456 L418 1040 L541 1040 L585 1456 L686 1456 L642 1040 L765 1040 L765 922 L630 922 L588 526 L722 526 L722 410 L575 410 L532 0 L432 0 L475 410 L351 410 L308 0 L208 0 L251 410 Z M487 526 L529 922 L406 922 L364 526 L487 526 Z " />
<glyph glyph-name="dollar" unicode="&#x24;" horiz-adv-x="819" d="M371 -17 Q324 -9 280 19 Q236 47 202 99.5 Q168 152 147.5 232.5 Q127 313 127 425 L278 425 Q278 334 290 274 Q302 214 321 178.5 Q340 143 364.5 128.5 Q389 114 414 114 Q445 114 468.5 132.5 Q492 151 507.5 185 Q523 219 531 265.5 Q539 312 539 367 Q539 466 510 535.5 Q481 605 404 651 Q349 684 303.5 723 Q258 762 226 813.5 Q194 865 176.5 932 Q159 999 159 1088 Q159 1169 174.5 1236.5 Q190 1304 219.5 1353.5 Q249 1403 290 1433.5 Q331 1464 382 1473 L382 1686 L474 1686 L474 1471 Q574 1448 631.5 1332.5 Q689 1217 689 1017 L537 1017 Q537 1087 529 1146.5 Q521 1206 506 1249.5 Q491 1293 469.5 1317.5 Q448 1342 421 1342 Q393 1342 372 1323 Q351 1304 337.5 1270 Q324 1236 317 1190 Q310 1144 310 1090 Q310 1039 316.5 997 Q323 955 339 920 Q355 885 382 856 Q409 827 450 802 Q505 768 549.5 729.5 Q594 691 625.5 641 Q657 591 674 524.5 Q691 458 691 369 Q691 200 629.5 101 Q568 2 462 -17 L462 -208 L371 -208 L371 -17 Z " />
<glyph glyph-name="percent" unicode="&#x25;" horiz-adv-x="1016" d="M263 173 L675 1311 L753 1253 L339 115 L263 173 Z M533 357 Q533 419 545 473.5 Q557 528 579.5 568.5 Q602 609 636 633 Q670 657 713 657 Q758 657 792 633 Q826 609 849 568.5 Q872 528 883.5 473.5 Q895 419 895 357 L895 279 Q895 218 883.5 163 Q872 108 849 67.5 Q826 27 792.5 3 Q759 -21 715 -21 Q671 -21 637 3 Q603 27 580 67.5 Q557 108 545 163 Q533 218 533 279 L533 357 Z M127 1178 Q127 1240 139 1294.5 Q151 1349 173.5 1389.5 Q196 1430 230 1454 Q264 1478 307 1478 Q352 1478 386 1454 Q420 1430 443 1389.5 Q466 1349 477.5 1294.5 Q489 1240 489 1178 L489 1100 Q489 1039 477.5 984 Q466 929 443 888.5 Q420 848 386.5 824 Q353 800 309 800 Q265 800 231 824 Q197 848 174 888.5 Q151 929 139 984 Q127 1039 127 1100 L127 1178 Z M792 357 Q792 396 787 431.5 Q782 467 772.5 494 Q763 521 748 537 Q733 553 713 553 Q694 553 679.5 537 Q665 521 655.5 494 Q646 467 641.5 431.5 Q637 396 637 357 L637 279 Q637 242 642 207 Q647 172 657 144.5 Q667 117 681.5 100.5 Q696 84 715 84 Q736 84 751 100.5 Q766 117 775 144 Q784 171 788 206.5 Q792 242 792 279 L792 357 Z M386 1178 Q386 1217 381 1252.5 Q376 1288 366.5 1315 Q357 1342 342 1358 Q327 1374 307 1374 Q288 1374 273.5 1358 Q259 1342 249.5 1315 Q240 1288 235.5 1252.5 Q231 1217 231 1178 L231 1100 Q231 1063 236 1028 Q241 993 251 965.5 Q261 938 275.5 921.5 Q290 905 309 905 Q330 905 345 921.5 Q360 938 369 965 Q378 992 382 1027.5 Q386 1063 386 1100 L386 1178 Z " />
<glyph glyph-name="ampersand" unicode="&#x26;" horiz-adv-x="910" d="M655 0 L605 106 Q558 45 505 12.5 Q452 -20 392 -20 Q328 -20 277 9.5 Q226 39 190.5 92 Q155 145 136 219 Q117 293 117 382 Q117 449 129 505 Q141 561 163 610 Q185 659 214.5 704 Q244 749 280 795 Q238 887 213 966.5 Q188 1046 188 1134 Q188 1215 204 1278.5 Q220 1342 249.5 1386 Q279 1430 320.5 1453 Q362 1476 413 1476 Q462 1476 501.5 1452 Q541 1428 568.5 1387.5 Q596 1347 611 1293.5 Q626 1240 626 1180 Q626 1128 617.5 1084.5 Q609 1041 594 1003 Q579 965 558 931.5 Q537 898 513 866 L451 784 L624 427 Q647 534 647 663 L779 663 Q779 548 756.5 452.5 Q734 357 698 273 L831 0 L655 0 Z M348 650 L345 646 Q316 609 300.5 570.5 Q285 532 278 497 Q271 462 270 432 Q269 402 269 382 Q269 327 278 277.5 Q287 228 303.5 190.5 Q320 153 344 131 Q368 109 398 109 Q440 109 478.5 138.5 Q517 168 550 223 L348 650 Z M432 962 Q450 985 462.5 1007.5 Q475 1030 482.5 1056 Q490 1082 493.5 1112.5 Q497 1143 497 1180 Q497 1212 491.5 1242 Q486 1272 475.5 1295.5 Q465 1319 449 1333 Q433 1347 413 1347 Q392 1347 376 1330.5 Q360 1314 349.5 1285.5 Q339 1257 333.5 1219 Q328 1181 328 1138 Q328 1086 345 1031 Q362 976 389 914 L432 962 Z " />
<glyph glyph-name="quotesingle" unicode="&#x27;" horiz-adv-x="352" d="M117 1399 L117 1536 L240 1536 L240 1412 L222 1073 L115 1073 L117 1399 Z " />
<glyph glyph-name="parenleft" unicode="&#x28;" horiz-adv-x="556" d="M433 -470 Q387 -427 335.5 -337 Q284 -247 241.5 -113.5 Q199 20 171 194 Q143 368 143 578 L143 591 Q143 798 171 971.5 Q199 1145 241.5 1279 Q284 1413 335.5 1504.5 Q387 1596 433 1639 L462 1535 Q429 1490 396.5 1405.5 Q364 1321 337.5 1202 Q311 1083 294.5 929.5 Q278 776 278 593 L278 576 Q278 393 294.5 239.5 Q311 86 337.5 -34.5 Q364 -155 396.5 -241 Q429 -327 462 -375 L433 -470 Z " />
<glyph glyph-name="parenright" unicode="&#x29;" horiz-adv-x="559" d="M94 -375 Q126 -329 159 -243.5 Q192 -158 218.5 -37 Q245 84 261.5 238.5 Q278 393 278 576 L278 593 Q278 776 261 930.5 Q244 1085 217 1206 Q190 1327 157.5 1412.5 Q125 1498 94 1543 L123 1639 Q171 1596 223 1504.5 Q275 1413 318.5 1279 Q362 1145 390 971.5 Q418 798 418 591 L418 578 Q418 368 390 194 Q362 20 318.5 -113.5 Q275 -247 223 -337 Q171 -427 123 -470 L94 -375 Z " />
<glyph glyph-name="asterisk" unicode="&#x2a;" horiz-adv-x="771" d="M310 992 L71 1091 L106 1218 L343 1100 L334 1457 L450 1457 L440 1096 L671 1214 L707 1087 L466 984 L625 703 L529 623 L386 919 L244 628 L149 704 L310 992 Z " />
<glyph glyph-name="plus" unicode="&#x2b;" horiz-adv-x="797" d="M324 616 L107 616 L107 763 L324 763 L324 1206 L471 1206 L471 763 L687 763 L687 616 L471 616 L471 146 L324 146 L324 616 Z " />
<glyph glyph-name="comma" unicode="&#x2c;" horiz-adv-x="438" d="M84 -219 Q115 -155 136.5 -88.5 Q158 -22 158 59 L158 206 L301 206 L301 61 Q301 15 291.5 -32 Q282 -79 265 -124 Q248 -169 224 -209.5 Q200 -250 171 -282 L84 -219 Z " />
<glyph glyph-name="hyphen" unicode="&#x2d;" horiz-adv-x="564" d="M123 566 L123 695 L437 695 L437 566 L123 566 Z " />
<glyph glyph-name="period" unicode="&#x2e;" horiz-adv-x="509" d="M150 85 Q150 128 175.5 156 Q201 184 246 184 Q291 184 317 156 Q343 128 343 85 Q343 45 317 17 Q291 -11 246 -11 Q201 -11 175.5 17 Q150 45 150 85 Z " />
<glyph glyph-name="slash" unicode="&#x2f;" horiz-adv-x="599" d="M67 -125 L390 1456 L508 1456 L185 -125 L67 -125 Z " />
<glyph glyph-name="zero" unicode="0" horiz-adv-x="859" d="M149 806 Q149 968 169 1081.5 Q189 1195 226 1266 Q263 1337 314.5 1369.5 Q366 1402 429 1402 Q492 1402 544 1369.5 Q596 1337 633 1266 Q670 1195 690 1081.5 Q710 968 710 806 L710 584 Q710 422 690 308 Q670 194 633 121 Q596 48 544.5 14.5 Q493 -19 430 -19 Q367 -19 315.5 14.5 Q264 48 227 121 Q190 194 169.5 308 Q149 422 149 584 L149 806 Z M558 829 Q558 1062 524.5 1168.5 Q491 1275 429 1275 Q368 1275 334.5 1168.5 Q301 1062 301 829 L301 562 Q301 331 335 219.5 Q369 108 430 108 Q492 108 525 219.5 Q558 331 558 562 L558 829 Z " />
<glyph glyph-name="one" unicode="1" horiz-adv-x="860" d="M393 0 L393 1181 L188 1066 L188 1206 L527 1390 L545 1390 L545 0 L393 0 Z " />
<glyph glyph-name="two" unicode="2" horiz-adv-x="859" d="M151 0 L153 112 L421 622 Q457 690 480 744.5 Q503 799 516.5 845 Q530 891 535 932 Q540 973 540 1014 Q540 1070 532 1118 Q524 1166 509 1201 Q494 1236 472 1255.5 Q450 1275 421 1275 Q388 1275 363 1253 Q338 1231 321 1192 Q304 1153 295.5 1098.5 Q287 1044 287 979 L134 979 Q134 1066 153.5 1143 Q173 1220 210.5 1277.5 Q248 1335 302 1368.5 Q356 1402 424 1402 Q489 1402 539 1376 Q589 1350 623 1302 Q657 1254 675 1185.5 Q693 1117 693 1032 Q693 970 678.5 908 Q664 846 641 783.5 Q618 721 589 658 Q560 595 530 531 L344 127 L724 127 L724 0 L151 0 Z " />
<glyph glyph-name="three" unicode="3" horiz-adv-x="859" d="M285 370 Q285 312 294.5 263.5 Q304 215 321.5 180.5 Q339 146 363.5 127 Q388 108 417 108 Q481 108 517 176 Q553 244 553 379 Q553 516 513 579.5 Q473 643 405 643 L319 643 L319 768 L405 768 Q439 768 464.5 787.5 Q490 807 506.5 840.5 Q523 874 531.5 920 Q540 966 540 1019 Q540 1139 510 1207 Q480 1275 418 1275 Q392 1275 369.5 1257.5 Q347 1240 330.5 1207 Q314 1174 304.5 1127 Q295 1080 295 1021 L142 1021 Q142 1103 162.5 1172.5 Q183 1242 220 1293 Q257 1344 307 1373 Q357 1402 415 1402 Q477 1402 528 1377 Q579 1352 615.5 1303 Q652 1254 672 1182 Q692 1110 692 1015 Q692 973 682.5 928.5 Q673 884 655 843 Q637 802 610 767.5 Q583 733 547 710 Q588 689 618 655 Q648 621 667.5 577.5 Q687 534 696 484 Q705 434 705 382 Q705 286 683 211.5 Q661 137 622 86 Q583 35 529.5 8 Q476 -19 414 -19 Q360 -19 309 6 Q258 31 219 80 Q180 129 156.5 202 Q133 275 133 370 L285 370 Z " />
<glyph glyph-name="four" unicode="4" horiz-adv-x="859" d="M122 423 L451 1383 L637 1383 L637 460 L738 460 L738 333 L637 333 L637 0 L484 0 L484 333 L128 333 L122 423 Z M484 460 L484 1108 L276 460 L484 460 Z " />
<glyph glyph-name="five" unicode="5" horiz-adv-x="860" d="M309 365 Q317 238 351 173 Q385 108 440 108 Q507 108 538 196.5 Q569 285 569 440 Q569 508 560 567 Q551 626 533 669 Q515 712 488 736.5 Q461 761 425 761 Q376 761 350.5 736.5 Q325 712 305 669 L184 701 L231 1383 L694 1383 L694 1244 L356 1244 L336 830 Q354 854 388 875.5 Q422 897 466 897 Q526 897 573.5 865 Q621 833 653.5 773.5 Q686 714 703.5 630 Q721 546 721 441 Q721 342 704 258 Q687 174 652 112.5 Q617 51 564 16 Q511 -19 440 -19 Q386 -19 336.5 4.5 Q287 28 248.5 76 Q210 124 186.5 196 Q163 268 160 365 L309 365 Z " />
<glyph glyph-name="six" unicode="6" horiz-adv-x="860" d="M154 708 Q154 881 180.5 1011 Q207 1141 253.5 1228 Q300 1315 363 1358.5 Q426 1402 498 1402 Q542 1402 576.5 1392.5 Q611 1383 643 1364 L621 1247 Q601 1258 577.5 1266.5 Q554 1275 524 1275 Q432 1275 376 1163 Q320 1051 309 822 Q339 867 381 893.5 Q423 920 477 920 Q536 920 581.5 885 Q627 850 659 788.5 Q691 727 707.5 644 Q724 561 724 464 Q724 359 704.5 270.5 Q685 182 648.5 117.5 Q612 53 560 17 Q508 -19 444 -19 Q383 -19 330 13.5 Q277 46 238 110.5 Q199 175 176.5 271.5 Q154 368 154 497 L154 708 Z M307 498 Q307 300 346.5 203.5 Q386 107 444 107 Q476 107 500 136 Q524 165 540 214 Q556 263 564 327.5 Q572 392 572 464 Q572 534 562.5 594.5 Q553 655 535.5 699.5 Q518 744 492.5 769.5 Q467 795 435 795 Q388 795 356 757.5 Q324 720 307 658 L307 498 Z " />
<glyph glyph-name="seven" unicode="7" horiz-adv-x="861" d="M299 134 Q311 308 333.5 461.5 Q356 615 389.5 752.5 Q423 890 468.5 1014.5 Q514 1139 571 1256 L129 1256 L129 1383 L719 1383 L719 1256 Q642 1109 594 974.5 Q546 840 518 706 Q490 572 476.5 432 Q463 292 454 134 L445 0 L290 0 L299 134 Z " />
<glyph glyph-name="eight" unicode="8" horiz-adv-x="859" d="M430 -19 Q370 -19 318.5 6.5 Q267 32 229 81.5 Q191 131 169.5 203.5 Q148 276 148 371 Q148 489 190 577.5 Q232 666 302 711 Q239 755 203 837 Q167 919 167 1025 Q167 1115 186.5 1185.5 Q206 1256 241 1304 Q276 1352 324 1377 Q372 1402 429 1402 Q487 1402 535 1377 Q583 1352 618 1304 Q653 1256 672.5 1185.5 Q692 1115 692 1025 Q692 919 655.5 837 Q619 755 557 711 Q627 666 669 577.5 Q711 489 711 371 Q711 276 689.5 203.5 Q668 131 630 81.5 Q592 32 541 6.5 Q490 -19 430 -19 Z M430 108 Q489 108 523 177.5 Q557 247 557 375 Q557 435 548 485.5 Q539 536 522 572 Q505 608 481.5 628 Q458 648 429 648 Q400 648 376.5 628 Q353 608 336 572 Q319 536 309.5 485.5 Q300 435 300 375 Q300 247 335 177.5 Q370 108 430 108 Z M430 774 Q456 774 476 791.5 Q496 809 510 841.5 Q524 874 531.5 920 Q539 966 539 1023 Q539 1078 531.5 1124.5 Q524 1171 509.5 1204.5 Q495 1238 475 1256.5 Q455 1275 429 1275 Q378 1275 349 1208 Q320 1141 320 1023 Q320 966 327.5 920 Q335 874 349 841.5 Q363 809 383.5 791.5 Q404 774 430 774 Z " />
<glyph glyph-name="nine" unicode="9" horiz-adv-x="858" d="M247 157 Q273 137 303.5 122 Q334 107 369 107 Q450 107 498 212.5 Q546 318 549 529 Q518 484 478.5 461 Q439 438 394 438 Q334 438 287 473.5 Q240 509 207.5 572.5 Q175 636 157.5 723 Q140 810 140 912 Q140 1026 160.5 1117 Q181 1208 218 1271.5 Q255 1335 305 1369 Q355 1403 414 1403 Q476 1403 528.5 1370 Q581 1337 619 1270 Q657 1203 678.5 1102 Q700 1001 700 864 L700 556 Q700 414 676.5 306.5 Q653 199 611 126.5 Q569 54 511.5 17 Q454 -20 387 -20 Q345 -20 303 -7 Q261 6 221 37 L247 157 Z M549 879 Q549 1078 512.5 1177 Q476 1276 415 1276 Q388 1276 365.5 1251 Q343 1226 326.5 1179 Q310 1132 301 1064.5 Q292 997 292 912 Q292 843 300.5 780 Q309 717 325.5 669 Q342 621 366.5 592 Q391 563 422 563 Q446 563 466 575 Q486 587 501.5 607.5 Q517 628 529 655 Q541 682 549 712 L549 879 Z " />
<glyph glyph-name="colon" unicode="&#x3a;" horiz-adv-x="465" >
<g transform="translate(6,0)" >
<path fill="black" d="M150 85 Q150 128 175.5 156 Q201 184 246 184 Q291 184 317 156 Q343 128 343 85 Q343 45 317 17 Q291 -11 246 -11 Q201 -11 175.5 17 Q150 45 150 85 Z " />
</g>
<g transform="translate(-4,876)" >
<path fill="black" d="M150 85 Q150 128 175.5 156 Q201 184 246 184 Q291 184 317 156 Q343 128 343 85 Q343 45 317 17 Q291 -11 246 -11 Q201 -11 175.5 17 Q150 45 150 85 Z " />
</g>
</glyph>
<glyph glyph-name="semicolon" unicode="&#x3b;" horiz-adv-x="437" >
<g transform="translate(18,0)" >
<path fill="black" d="M84 -219 Q115 -155 136.5 -88.5 Q158 -22 158 59 L158 206 L301 206 L301 61 Q301 15 291.5 -32 Q282 -79 265 -124 Q248 -169 224 -209.5 Q200 -250 171 -282 L84 -219 Z " />
</g>
<g transform="translate(-4,901)" >
<path fill="black" d="M150 85 Q150 128 175.5 156 Q201 184 246 184 Q291 184 317 156 Q343 128 343 85 Q343 45 317 17 Q291 -11 246 -11 Q201 -11 175.5 17 Q150 45 150 85 Z " />
</g>
</glyph>
<glyph glyph-name="less" unicode="&#x3c;" horiz-adv-x="746" d="M105 714 L597 1092 L597 929 L251 650 L597 375 L597 212 L105 591 L105 714 Z " />
<glyph glyph-name="equal" unicode="&#x3d;" horiz-adv-x="812" d="M152 408 L152 543 L661 543 L661 408 L152 408 Z M152 822 L152 957 L661 957 L661 822 L152 822 Z " />
<glyph glyph-name="greater" unicode="&#x3e;" horiz-adv-x="758" d="M143 373 L500 656 L143 935 L143 1093 L646 715 L646 593 L143 214 L143 373 Z " />
<glyph glyph-name="question" unicode="&#x3f;" horiz-adv-x="724" d="M274 408 Q274 476 278.5 525.5 Q283 575 293.5 616.5 Q304 658 321 697.5 Q338 737 364 784 Q384 821 401.5 853.5 Q419 886 431.5 921.5 Q444 957 451 999 Q458 1041 458 1096 Q458 1151 451.5 1196 Q445 1241 433 1273.5 Q421 1306 402.5 1323.5 Q384 1341 360 1341 Q320 1341 288 1283.5 Q256 1226 254 1115 L102 1115 Q103 1200 123 1267 Q143 1334 177.5 1380.5 Q212 1427 259 1451.5 Q306 1476 360 1476 Q419 1476 466 1449 Q513 1422 545 1372.5 Q577 1323 594 1254 Q611 1185 611 1100 Q611 1033 599 975 Q587 917 567.5 865 Q548 813 522 765.5 Q496 718 467 672 Q435 620 424 552 Q413 484 412 408 L274 408 Z M347 -11 Q306 -11 283 16 Q260 43 260 83 Q260 122 283 149.5 Q306 177 347 177 Q387 177 410 149.5 Q433 122 433 83 Q433 43 410 16 Q387 -11 347 -11 Z " />
<glyph glyph-name="at" unicode="&#x40;" horiz-adv-x="1204" d="M804 -364 Q784 -386 757.5 -402.5 Q731 -419 702 -430.5 Q673 -442 643.5 -447.5 Q614 -453 587 -453 Q474 -453 385.5 -388.5 Q297 -324 237.5 -203 Q178 -82 148.5 90.5 Q119 263 124 478 Q129 685 166.5 859.5 Q204 1034 270 1160 Q336 1286 427.5 1356.5 Q519 1427 631 1427 Q744 1427 830.5 1362.5 Q917 1298 974.5 1178 Q1032 1058 1059 888 Q1086 718 1081 507 Q1080 414 1065.5 320 Q1051 226 1021 150.5 Q991 75 944.5 27 Q898 -21 832 -21 Q781 -21 744.5 20.5 Q708 62 691 138 Q661 59 622.5 19 Q584 -21 539 -21 Q497 -21 464 11 Q431 43 410 101 Q389 159 380 241 Q371 323 377 422 Q385 553 408.5 658 Q432 763 467.5 837 Q503 911 548 950.5 Q593 990 642 990 Q675 990 700 981.5 Q725 973 745.5 958.5 Q766 944 783 924.5 Q800 905 817 883 L787 321 Q784 245 789 198 Q794 151 803.5 126 Q813 101 826 92.5 Q839 84 852 84 Q882 84 905.5 116.5 Q929 149 946.5 206 Q964 263 974 340.5 Q984 418 986 507 Q991 695 971.5 844.5 Q952 994 908 1098 Q864 1202 794 1257.5 Q724 1313 628 1313 Q538 1313 467 1253 Q396 1193 345 1083.5 Q294 974 265 820 Q236 666 231 478 Q226 291 248 139 Q270 -13 315.5 -120.5 Q361 -228 430 -286.5 Q499 -345 589 -345 Q642 -345 694 -324 Q746 -303 783 -267 L804 -364 Z M705 862 Q680 879 652 879 Q586 879 546.5 765.5 Q507 652 496 422 Q493 349 496.5 290 Q500 231 510.5 189 Q521 147 537.5 124.5 Q554 102 577 102 Q589 102 602 112.5 Q615 123 628.5 146.5 Q642 170 654.5 209 Q667 248 677 305 Q677 310 677.5 313.5 Q678 317 678 321 L705 862 Z " />
<glyph glyph-name="A" unicode="A" horiz-adv-x="934" d="M396 1456 L539 1456 L857 0 L690 0 L618 394 L316 394 L244 0 L78 0 L396 1456 Z M594 526 L467 1226 L340 526 L594 526 Z " />
<glyph glyph-name="B" unicode="B" horiz-adv-x="894" d="M152 1456 L444 1456 Q515 1456 571.5 1433.5 Q628 1411 667 1364 Q706 1317 726.5 1244.5 Q747 1172 747 1072 Q747 965 712 883.5 Q677 802 606 762 Q648 746 678.5 713 Q709 680 728.5 634 Q748 588 757 532.5 Q766 477 766 416 Q766 213 688 106.5 Q610 0 468 0 L152 0 L152 1456 Z M468 133 Q539 133 573.5 208.5 Q608 284 608 414 Q608 475 600.5 525.5 Q593 576 576.5 612.5 Q560 649 535 669.5 Q510 690 474 690 L310 690 L310 133 L468 133 Z M310 821 L445 821 Q514 821 550.5 885.5 Q587 950 587 1074 Q587 1204 552.5 1264 Q518 1324 444 1324 L310 1324 L310 821 Z " />
<glyph glyph-name="C" unicode="C" horiz-adv-x="919" d="M134 891 Q134 1026 157.5 1134.5 Q181 1243 225 1319 Q269 1395 332.5 1435.5 Q396 1476 476 1476 Q630 1476 713.5 1358.5 Q797 1241 806 994 L647 994 Q645 1090 634.5 1156.5 Q624 1223 603.5 1264.5 Q583 1306 551.5 1325 Q520 1344 476 1344 Q428 1344 393.5 1312.5 Q359 1281 336.5 1222.5 Q314 1164 303.5 1080.5 Q293 997 293 893 L293 570 Q293 470 302.5 385.5 Q312 301 333 240 Q354 179 388 145 Q422 111 471 111 Q515 111 547 129 Q579 147 600.5 187.5 Q622 228 633 294.5 Q644 361 647 458 L805 458 Q799 219 712.5 99.5 Q626 -20 471 -20 Q391 -20 328.5 21 Q266 62 222.5 138.5 Q179 215 156.5 324 Q134 433 134 570 L134 891 Z " />
<glyph glyph-name="D" unicode="D" horiz-adv-x="917" d="M152 1456 L406 1456 Q491 1456 560 1420 Q629 1384 678 1312 Q727 1240 754 1132.5 Q781 1025 781 882 L781 574 Q781 431 754.5 323.5 Q728 216 678.5 144 Q629 72 559 36 Q489 0 402 0 L152 0 L152 1456 Z M402 133 Q523 133 573 242.5 Q623 352 623 574 L623 885 Q623 1112 572.5 1218 Q522 1324 406 1324 L310 1324 L310 133 L402 133 Z " />
<glyph glyph-name="E" unicode="E" horiz-adv-x="811" d="M152 1456 L708 1456 L708 1324 L310 1324 L310 817 L653 817 L653 686 L310 686 L310 133 L711 133 L711 0 L152 0 L152 1456 Z " />
<glyph glyph-name="F" unicode="F" horiz-adv-x="793" d="M152 1456 L695 1456 L695 1324 L310 1324 L310 794 L649 794 L649 661 L310 661 L310 0 L152 0 L152 1456 Z " />
<glyph glyph-name="G" unicode="G" horiz-adv-x="945" d="M650 578 L481 578 L481 710 L809 710 L809 173 Q795 151 770 118.5 Q745 86 706.5 55 Q668 24 615 2 Q562 -20 492 -20 Q411 -20 345.5 15.5 Q280 51 234 123 Q188 195 163 304 Q138 413 138 559 L138 903 Q138 1193 228 1334.5 Q318 1476 480 1476 Q640 1476 720 1362.5 Q800 1249 809 1038 L655 1038 Q648 1185 607.5 1264.5 Q567 1344 484 1344 Q387 1344 342 1236 Q297 1128 297 905 L297 559 Q297 330 348 220.5 Q399 111 499 111 Q534 111 559.5 124 Q585 137 603 154.5 Q621 172 632 190.5 Q643 209 650 219 L650 578 Z " />
<glyph glyph-name="H" unicode="H" horiz-adv-x="983" d="M152 1456 L310 1456 L310 817 L672 817 L672 1456 L831 1456 L831 0 L672 0 L672 686 L310 686 L310 0 L152 0 L152 1456 Z " />
<glyph glyph-name="I" unicode="I" horiz-adv-x="483" d="M163 0 L163 1456 L321 1456 L321 0 L163 0 Z " />
<glyph glyph-name="J" unicode="J" horiz-adv-x="803" d="M255 403 Q255 254 288 183.5 Q321 113 375 113 Q430 113 463.5 193 Q497 273 497 430 L497 1456 L655 1456 L655 430 Q655 320 634 236 Q613 152 575.5 95 Q538 38 486.5 9 Q435 -20 375 -20 Q314 -20 263 5.5 Q212 31 175 83.5 Q138 136 117.5 215.5 Q97 295 97 403 L255 403 Z " />
<glyph glyph-name="K" unicode="K" horiz-adv-x="893" d="M152 1456 L310 1456 L310 744 L390 916 L623 1456 L818 1456 L501 825 L831 0 L642 0 L404 656 L310 497 L310 0 L152 0 L152 1456 Z " />
<glyph glyph-name="L" unicode="L" horiz-adv-x="784" d="M152 1456 L310 1456 L310 133 L688 133 L688 0 L152 0 L152 1456 Z " />
<glyph glyph-name="M" unicode="M" horiz-adv-x="1182" d="M152 1456 L378 1456 L590 354 L803 1456 L1029 1456 L1029 0 L871 0 L871 599 L886 1145 L645 0 L535 0 L294 1141 L309 599 L309 0 L152 0 L152 1456 Z " />
<glyph glyph-name="N" unicode="N" horiz-adv-x="982" d="M152 1456 L340 1456 L673 343 L673 1456 L829 1456 L829 0 L641 0 L310 1110 L310 0 L152 0 L152 1456 Z " />
<glyph glyph-name="O" unicode="O" horiz-adv-x="961" d="M133 889 Q133 1036 157.5 1146 Q182 1256 227.5 1329.5 Q273 1403 337 1439.5 Q401 1476 479 1476 Q559 1476 623 1439.5 Q687 1403 732 1329.5 Q777 1256 801.5 1146 Q826 1036 826 889 L826 567 Q826 420 801.5 309.5 Q777 199 732 126 Q687 53 623.5 16.5 Q560 -20 481 -20 Q403 -20 338.5 16.5 Q274 53 228.5 126 Q183 199 158 309.5 Q133 420 133 567 L133 889 Z M667 891 Q667 1126 619.5 1232 Q572 1338 479 1338 Q433 1338 398 1312 Q363 1286 339 1231.5 Q315 1177 303 1092.5 Q291 1008 291 891 L291 567 Q291 449 303.5 363.5 Q316 278 340 223.5 Q364 169 399.5 143 Q435 117 481 117 Q527 117 562 143 Q597 169 620 223.5 Q643 278 655 363.5 Q667 449 667 567 L667 891 Z " />
<glyph glyph-name="P" unicode="P" horiz-adv-x="903" d="M152 1456 L478 1456 Q552 1456 610 1423.5 Q668 1391 708 1333 Q748 1275 769 1194 Q790 1113 790 1016 Q790 913 769 832 Q748 751 708 695.5 Q668 640 610 611 Q552 582 478 582 L310 582 L310 0 L152 0 L152 1456 Z M478 714 Q518 714 547 736.5 Q576 759 594.5 799 Q613 839 622 894 Q631 949 631 1014 Q631 1075 622 1131 Q613 1187 594.5 1230 Q576 1273 547 1298.5 Q518 1324 478 1324 L310 1324 L310 714 L478 714 Z " />
<glyph glyph-name="Q" unicode="Q" horiz-adv-x="962" d="M730 -251 L547 -13 Q531 -17 514 -18.5 Q497 -20 480 -20 Q401 -20 337 16.5 Q273 53 227.5 126.5 Q182 200 157 310 Q132 420 132 567 L132 889 Q132 1036 156.5 1146.5 Q181 1257 226 1330 Q271 1403 335 1439.5 Q399 1476 478 1476 Q557 1476 621 1439.5 Q685 1403 730.5 1330 Q776 1257 800.5 1146.5 Q825 1036 825 889 L825 567 Q825 376 785 248.5 Q745 121 673 54 L831 -151 L730 -251 Z M667 891 Q667 1008 655 1092.5 Q643 1177 619 1231.5 Q595 1286 560 1312 Q525 1338 478 1338 Q433 1338 397.5 1312 Q362 1286 338 1231.5 Q314 1177 301.5 1092.5 Q289 1008 289 891 L289 567 Q289 449 301.5 363.5 Q314 278 338.5 223.5 Q363 169 398.5 143 Q434 117 480 117 Q526 117 561 143 Q596 169 619.5 223.5 Q643 278 655 363.5 Q667 449 667 567 L667 891 Z " />
<glyph glyph-name="R" unicode="R" horiz-adv-x="921" d="M155 1456 L482 1456 Q626 1456 700 1352.5 Q774 1249 774 1046 Q774 932 734.5 846 Q695 760 624 713 Q664 694 691.5 661 Q719 628 735.5 584 Q752 540 759 485.5 Q766 431 766 369 L766 236 Q766 174 774 118 Q782 62 808 25 L808 0 L645 0 Q632 20 624.5 50.5 Q617 81 613.5 114.5 Q610 148 609.5 181 Q609 214 609 238 L609 367 Q609 430 600.5 480.5 Q592 531 575.5 567 Q559 603 534 622.5 Q509 642 477 642 L313 642 L313 0 L155 0 L155 1456 Z M467 773 Q506 773 534 792.5 Q562 812 580.5 848 Q599 884 608 934.5 Q617 985 617 1046 Q617 1175 583 1249 Q549 1323 475 1323 L313 1323 L313 773 L467 773 Z " />
<glyph glyph-name="S" unicode="S" horiz-adv-x="863" d="M271 420 Q271 337 284 278.5 Q297 220 321 183.5 Q345 147 377.5 130 Q410 113 449 113 Q521 113 556.5 181 Q592 249 592 364 Q592 420 585 462.5 Q578 505 558.5 540 Q539 575 505.5 605.5 Q472 636 418 667 Q359 698 307.5 736 Q256 774 218.5 824 Q181 874 159.5 939 Q138 1004 138 1089 Q138 1174 160.5 1245 Q183 1316 223.5 1367.5 Q264 1419 320 1447.5 Q376 1476 444 1476 Q515 1476 571.5 1440.5 Q628 1405 668 1345 Q708 1285 729 1206 Q750 1127 750 1039 L592 1039 Q592 1104 583 1160 Q574 1216 555 1257 Q536 1298 508 1321 Q480 1344 441 1344 Q404 1344 377 1324.5 Q350 1305 332 1271 Q314 1237 305 1191 Q296 1145 296 1092 Q296 995 340.5 928 Q385 861 472 807 Q542 774 594 733 Q646 692 681 639.5 Q716 587 733.5 519.5 Q751 452 751 366 Q751 277 729.5 205.5 Q708 134 668.5 84 Q629 34 573.5 7 Q518 -20 449 -20 Q387 -20 326.5 6.5 Q266 33 218.5 87.5 Q171 142 141.5 225 Q112 308 112 420 L271 420 Z " />
<glyph glyph-name="T" unicode="T" horiz-adv-x="869" d="M354 1324 L95 1324 L95 1456 L774 1456 L774 1324 L513 1324 L513 0 L354 0 L354 1324 Z " />
<glyph glyph-name="U" unicode="U" horiz-adv-x="921" d="M141 1456 L299 1456 L299 421 Q299 331 310.5 271 Q322 211 343 175.5 Q364 140 394 125.5 Q424 111 461 111 Q499 111 528.5 125.5 Q558 140 578.5 175.5 Q599 211 610 271 Q621 331 621 421 L621 1456 L780 1456 L780 421 Q780 298 755.5 213.5 Q731 129 688 77.5 Q645 26 587 3 Q529 -20 461 -20 Q392 -20 333 3 Q274 26 231.5 77.5 Q189 129 165 213.5 Q141 298 141 421 L141 1456 Z " />
<glyph glyph-name="V" unicode="V" horiz-adv-x="914" d="M78 1456 L253 1456 L457 259 L661 1456 L837 1456 L537 0 L377 0 L78 1456 Z " />
<glyph glyph-name="W" unicode="W" horiz-adv-x="1185" d="M95 1456 L253 1456 L368 340 L508 1456 L683 1456 L823 341 L937 1456 L1094 1456 L913 0 L737 0 L596 1123 L454 0 L277 0 L95 1456 Z " />
<glyph glyph-name="X" unicode="X" horiz-adv-x="894" d="M348 737 L95 1456 L278 1456 L448 871 L617 1456 L799 1456 L548 737 L806 0 L622 0 L448 600 L274 0 L89 0 L348 737 Z " />
<glyph glyph-name="Y" unicode="Y" horiz-adv-x="869" d="M355 546 L73 1456 L248 1456 L434 695 L621 1456 L795 1456 L514 546 L514 0 L355 0 L355 546 Z " />
<glyph glyph-name="Z" unicode="Z" horiz-adv-x="859" d="M115 121 L583 1324 L118 1324 L118 1456 L739 1456 L739 1341 L274 133 L751 133 L751 0 L115 0 L115 121 Z " />
<glyph glyph-name="bracketleft" unicode="&#x5b;" horiz-adv-x="468" d="M144 1664 L387 1664 L387 1535 L296 1535 L296 -183 L387 -183 L387 -312 L144 -312 L144 1664 Z " />
<glyph glyph-name="backslash" unicode="&#x5c;" horiz-adv-x="639" d="M77 1456 L230 1456 L582 -125 L430 -125 L77 1456 Z " />
<glyph glyph-name="bracketright" unicode="&#x5d;" horiz-adv-x="468" d="M77 -183 L169 -183 L169 1535 L77 1535 L77 1664 L321 1664 L321 -312 L77 -312 L77 -183 Z " />
<glyph glyph-name="asciicircum" unicode="&#x5e;" horiz-adv-x="654" d="M274 1456 L382 1456 L555 729 L431 729 L328 1256 L224 729 L99 729 L274 1456 Z " />
<glyph glyph-name="underscore" unicode="&#x5f;" horiz-adv-x="674" d="M71 -129 L71 0 L602 0 L602 -129 L71 -129 Z " />
<glyph glyph-name="grave" unicode="&#x60;" horiz-adv-x="574" d="M272 1249 L82 1536 L262 1536 L407 1249 L272 1249 Z " />
<glyph glyph-name="a" unicode="a" horiz-adv-x="782" d="M511 0 Q503 23 498 55 Q493 87 491 122 Q479 94 463 68 Q447 42 427.5 22.5 Q408 3 384 -8.5 Q360 -20 331 -20 Q285 -20 245.5 -1.5 Q206 17 177.5 55 Q149 93 133 151 Q117 209 117 288 Q117 363 134.5 428 Q152 493 188 541 Q224 589 280 616.5 Q336 644 412 644 L488 644 L488 784 Q488 837 481.5 873.5 Q475 910 463 932 Q451 954 432.5 963.5 Q414 973 390 973 Q364 973 344 958.5 Q324 944 310.5 918.5 Q297 893 290 858 Q283 823 283 782 L131 783 Q131 844 149.5 901.5 Q168 959 202 1003.5 Q236 1048 285 1075 Q334 1102 394 1102 Q448 1102 493 1085.5 Q538 1069 571 1031.5 Q604 994 622.5 932.5 Q641 871 641 782 L641 232 Q641 205 642.5 175 Q644 145 647 116.5 Q650 88 654.5 61.5 Q659 35 665 15 L665 0 L511 0 Z M488 531 L422 531 Q346 531 308 470.5 Q270 410 270 304 Q270 250 276 213.5 Q282 177 294 155.5 Q306 134 323 124.5 Q340 115 362 115 Q385 115 405 126 Q425 137 441 155 Q457 173 469 197 Q481 221 488 248 L488 531 Z " />
<glyph glyph-name="b" unicode="b" horiz-adv-x="810" d="M140 1536 L292 1536 L292 978 Q320 1038 359.5 1070 Q399 1102 454 1102 Q516 1102 561.5 1075 Q607 1048 637 988 Q667 928 682 832.5 Q697 737 697 600 L697 479 Q697 347 682 252.5 Q667 158 637 97.5 Q607 37 561.5 8.5 Q516 -20 456 -20 Q397 -20 356 15 Q315 50 287 114 L280 0 L140 0 L140 1536 Z M292 241 Q308 184 337.5 147.5 Q367 111 415 111 Q452 111 477 131.5 Q502 152 517 196 Q532 240 538 310 Q544 380 544 479 L544 600 Q544 699 538 769 Q532 839 517 884 Q502 929 477 950 Q452 971 414 971 Q367 971 337.5 931 Q308 891 292 832 L292 241 Z " />
<glyph glyph-name="c" unicode="c" horiz-adv-x="762" d="M112 612 Q112 1102 400 1102 Q457 1102 504.5 1078 Q552 1054 586 1006 Q620 958 639 885 Q658 812 659 714 L514 714 Q513 854 483 913.5 Q453 973 397 973 Q357 973 331.5 950 Q306 927 291 881 Q276 835 270.5 768 Q265 701 265 612 L265 470 Q265 381 270.5 313.5 Q276 246 290.5 200.5 Q305 155 331 132 Q357 109 398 109 Q423 109 444 120 Q465 131 480 157 Q495 183 504 227.5 Q513 272 514 338 L659 338 Q658 252 637.5 185 Q617 118 582 72.5 Q547 27 500.5 3.5 Q454 -20 401 -20 Q112 -20 112 470 L112 612 Z " />
<glyph glyph-name="d" unicode="d" horiz-adv-x="811" d="M524 113 Q496 49 455 14.5 Q414 -20 357 -20 Q299 -20 254 8.5 Q209 37 177.5 97.5 Q146 158 129.5 252.5 Q113 347 113 479 L113 600 Q113 737 129.5 832.5 Q146 928 177 988 Q208 1048 254 1075 Q300 1102 358 1102 Q411 1102 450.5 1070.5 Q490 1039 518 980 L518 1536 L670 1536 L670 0 L531 0 L524 113 Z M518 839 Q501 896 472 933.5 Q443 971 399 971 Q363 971 337.5 950.5 Q312 930 296.5 885.5 Q281 841 273.5 770.5 Q266 700 266 600 L266 479 Q266 380 273 310 Q280 240 296 196 Q312 152 337 131.5 Q362 111 398 111 Q443 111 472 146 Q501 181 518 237 L518 839 Z " />
<glyph glyph-name="e" unicode="e" horiz-adv-x="782" d="M116 600 Q116 742 137 838 Q158 934 196 992.5 Q234 1051 287 1076.5 Q340 1102 404 1102 Q540 1102 608.5 983 Q677 864 677 614 L677 510 L268 510 L268 457 Q268 362 279 295.5 Q290 229 311 187.5 Q332 146 362 127 Q392 108 431 108 Q487 108 529 138.5 Q571 169 603 223 L663 123 Q648 95 626 69 Q604 43 574 23.5 Q544 4 506 -8 Q468 -20 421 -20 Q350 -20 293.5 6.5 Q237 33 197.5 91 Q158 149 137 239.5 Q116 330 116 457 L116 600 Z M525 638 L525 668 Q523 813 495.5 893 Q468 973 403 973 Q371 973 346.5 958 Q322 943 305 905 Q288 867 279 802.5 Q270 738 268 638 L525 638 Z " />
<glyph glyph-name="f" unicode="f" horiz-adv-x="564" d="M187 961 L92 961 L92 1082 L187 1082 L187 1206 Q187 1377 247 1467 Q307 1557 412 1557 Q435 1557 455 1553 Q475 1549 495 1541 L492 1413 Q470 1425 439 1425 Q392 1425 366 1368 Q340 1311 340 1206 L340 1082 L467 1082 L467 961 L340 961 L340 0 L187 0 L187 961 Z " />
<glyph glyph-name="g" unicode="g" horiz-adv-x="769" d="M448 192 Q557 192 617 121 Q677 50 677 -100 Q677 -157 655.5 -217 Q634 -277 593 -326 Q552 -375 492.5 -406.5 Q433 -438 357 -438 Q288 -438 235 -415.5 Q182 -393 146 -355 Q110 -317 91.5 -266 Q73 -215 73 -159 Q73 -108 82.5 -65.5 Q92 -23 108 11.5 Q124 46 145.5 72.5 Q167 99 190 117 Q173 138 163 168 Q153 198 153 239 Q153 309 175 355 Q197 401 225 431 Q168 478 137 555.5 Q106 633 106 726 L106 748 Q106 825 125 890 Q144 955 179 1002 Q214 1049 263 1075.5 Q312 1102 372 1102 Q424 1102 469 1082 L681 1082 L681 958 L587 971 Q612 926 625.5 870 Q639 814 639 748 L639 726 Q639 654 620 590.5 Q601 527 566.5 479.5 Q532 432 482.5 404.5 Q433 377 373 377 Q340 377 310 386 Q293 368 281.5 342 Q270 316 270 281 Q270 229 290.5 210.5 Q311 192 343 192 L448 192 Z M314 63 Q303 63 292.5 64.5 Q282 66 271 68 Q249 45 233.5 -8.5 Q218 -62 218 -131 Q218 -168 226.5 -200.5 Q235 -233 252.5 -257.5 Q270 -282 296 -296 Q322 -310 357 -310 Q400 -310 431.5 -290.5 Q463 -271 484 -240.5 Q505 -210 515 -172.5 Q525 -135 525 -100 Q525 -24 505.5 19.5 Q486 63 430 63 L314 63 Z M255 726 Q255 685 263 645.5 Q271 606 286 575 Q301 544 323 525 Q345 506 373 506 Q400 506 422 525 Q444 544 459 575 Q474 606 482 645.5 Q490 685 490 726 L490 748 Q490 793 482 834 Q474 875 458.5 905.5 Q443 936 421 954.5 Q399 973 372 973 Q345 973 323.5 954.5 Q302 936 286.5 905.5 Q271 875 263 834 Q255 793 255 748 L255 726 Z " />
<glyph glyph-name="h" unicode="h" horiz-adv-x="803" d="M136 1536 L289 1536 L289 969 Q321 1032 364 1067 Q407 1102 461 1102 Q507 1102 545 1080.5 Q583 1059 610 1011.5 Q637 964 651.5 889 Q666 814 666 707 L666 0 L514 0 L514 709 Q514 782 507 832 Q500 882 486 913 Q472 944 452.5 957.5 Q433 971 407 971 Q365 971 335.5 927 Q306 883 289 816 L289 0 L136 0 L136 1536 Z " />
<glyph glyph-name="i" unicode="i" horiz-adv-x="449" >
<g transform="translate(-3,0)" >
<path fill="black" d="M151 0 L151 1082 L305 1082 L305 0 L151 0 Z " />
</g>
<g transform="translate(492,0)" >
<path fill="black" d="M-266 1289 Q-307 1289 -330 1316 Q-353 1343 -353 1383 Q-353 1422 -330 1449.5 Q-307 1477 -266 1477 Q-226 1477 -203 1449.5 Q-180 1422 -180 1383 Q-180 1343 -203 1316 Q-226 1289 -266 1289 Z " />
</g>
</glyph>
<glyph glyph-name="j" unicode="j" horiz-adv-x="444" >
<g transform="translate(-4,0)" >
<path fill="black" d="M24 -293 Q38 -298 51.5 -301.5 Q65 -305 76 -305 Q113 -305 131.5 -263.5 Q150 -222 150 -129 L150 1082 L304 1082 L304 -129 Q304 -279 252.5 -358 Q201 -437 104 -437 Q84 -437 64 -432 Q44 -427 24 -419 L24 -293 Z " />
</g>
<g transform="translate(487,0)" >
<path fill="black" d="M-266 1289 Q-307 1289 -330 1316 Q-353 1343 -353 1383 Q-353 1422 -330 1449.5 Q-307 1477 -266 1477 Q-226 1477 -203 1449.5 Q-180 1422 -180 1383 Q-180 1343 -203 1316 Q-226 1289 -266 1289 Z " />
</g>
</glyph>
<glyph glyph-name="k" unicode="k" horiz-adv-x="768" d="M140 1536 L292 1536 L292 631 L332 703 L501 1082 L684 1082 L447 642 L706 0 L530 0 L354 485 L292 385 L292 0 L140 0 L140 1536 Z " />
<glyph glyph-name="l" unicode="l" horiz-adv-x="508" d="M144 1536 L296 1536 L296 266 Q296 217 300.5 187 Q305 157 313.5 140.5 Q322 124 334 118.5 Q346 113 361 113 Q375 113 388.5 117 Q402 121 410 125 L410 -2 Q392 -9 368.5 -14.5 Q345 -20 315 -20 Q277 -20 245.5 -5.5 Q214 9 191.5 42.5 Q169 76 156.5 131 Q144 186 144 267 L144 1536 Z " />
<glyph glyph-name="m" unicode="m" horiz-adv-x="1173" d="M139 1082 L282 1082 L287 969 Q318 1032 363 1067 Q408 1102 468 1102 Q524 1102 567.5 1065 Q611 1028 636 947 Q667 1017 715.5 1059.5 Q764 1102 830 1102 Q877 1102 915 1079.5 Q953 1057 979 1009 Q1005 961 1019 887 Q1033 813 1033 709 L1033 0 L882 0 L882 709 Q882 786 874.5 836.5 Q867 887 853.5 917 Q840 947 820 958.5 Q800 970 776 970 Q754 970 735 956.5 Q716 943 701.5 919.5 Q687 896 676.5 865 Q666 834 660 799 Q663 763 663 721 L663 0 L510 0 L510 714 Q510 785 503 834 Q496 883 482.5 913.5 Q469 944 449.5 957.5 Q430 971 406 971 Q363 971 335 927.5 Q307 884 291 816 L291 0 L139 0 L139 1082 Z " />
<glyph glyph-name="n" unicode="n" horiz-adv-x="805" d="M137 1082 L281 1082 L286 957 Q319 1025 365 1063.5 Q411 1102 468 1102 Q513 1102 549.5 1080.5 Q586 1059 612.5 1011.5 Q639 964 653 889 Q667 814 667 707 L667 0 L515 0 L515 709 Q515 782 508 832 Q501 882 487.5 913 Q474 944 454 957.5 Q434 971 408 971 Q368 971 338 925 Q308 879 290 809 L290 0 L137 0 L137 1082 Z " />
<glyph glyph-name="o" unicode="o" horiz-adv-x="815" d="M116 605 Q116 732 137.5 825.5 Q159 919 197.5 980.5 Q236 1042 289.5 1072 Q343 1102 406 1102 Q470 1102 523.5 1072 Q577 1042 616 980.5 Q655 919 676.5 825.5 Q698 732 698 605 L698 477 Q698 350 676.5 256.5 Q655 163 616.5 101.5 Q578 40 524.5 10 Q471 -20 408 -20 Q344 -20 290.5 10 Q237 40 198 101.5 Q159 163 137.5 256.5 Q116 350 116 477 L116 605 Z M545 605 Q545 790 507 881.5 Q469 973 406 973 Q346 973 307.5 881.5 Q269 790 269 605 L269 477 Q269 290 308 199.5 Q347 109 408 109 Q477 109 511 199 Q545 289 545 477 L545 605 Z " />
<glyph glyph-name="p" unicode="p" horiz-adv-x="811" d="M140 1082 L281 1082 L287 972 Q315 1035 356 1068.5 Q397 1102 454 1102 Q514 1102 559.5 1075 Q605 1048 635.5 988 Q666 928 681.5 832.5 Q697 737 697 600 L697 479 Q697 347 681.5 252.5 Q666 158 635.5 97.5 Q605 37 560.5 8.5 Q516 -20 457 -20 Q401 -20 361 10 Q321 40 292 96 L292 -416 L140 -416 L140 1082 Z M292 223 Q308 172 336.5 140.5 Q365 109 412 109 Q448 109 473 129.5 Q498 150 513.5 195 Q529 240 536.5 310 Q544 380 544 479 L544 600 Q544 700 536.5 770.5 Q529 841 512.5 885.5 Q496 930 471 950.5 Q446 971 410 971 Q365 971 337 934.5 Q309 898 292 842 L292 223 Z " />
<glyph glyph-name="q" unicode="q" horiz-adv-x="815" d="M518 95 Q490 39 451 9.5 Q412 -20 358 -20 Q299 -20 253.5 8.5 Q208 37 176.5 97.5 Q145 158 129 252.5 Q113 347 113 479 L113 600 Q113 737 129 832.5 Q145 928 176.5 988 Q208 1048 253.5 1075 Q299 1102 359 1102 Q416 1102 457 1067.5 Q498 1033 526 969 L535 1082 L670 1082 L670 -416 L518 -416 L518 95 Z M518 848 Q501 902 472.5 937.5 Q444 973 400 973 Q364 973 339 952 Q314 931 297.5 886 Q281 841 273.5 770.5 Q266 700 266 600 L266 479 Q266 380 273.5 310 Q281 240 297 195 Q313 150 338.5 129.5 Q364 109 400 109 Q445 109 473 140.5 Q501 172 518 224 L518 848 Z " />
<glyph glyph-name="r" unicode="r" horiz-adv-x="565" d="M139 1082 L284 1082 L290 956 Q313 1024 348 1063 Q383 1102 430 1102 Q443 1102 457.5 1098 Q472 1094 480 1089 L479 927 Q466 931 450 932.5 Q434 934 420 934 Q370 934 338.5 893 Q307 852 292 778 L292 0 L139 0 L139 1082 Z " />
<glyph glyph-name="s" unicode="s" horiz-adv-x="753" d="M256 307 Q258 247 268.5 208.5 Q279 170 296 148 Q313 126 335 117.5 Q357 109 381 109 Q433 109 460 153.5 Q487 198 487 269 Q487 302 478 328.5 Q469 355 451 379.5 Q433 404 405 428 Q377 452 339 480 Q288 517 249 549 Q210 581 183.5 618 Q157 655 143.5 700 Q130 745 130 807 Q130 870 147 923.5 Q164 977 196 1017 Q228 1057 273.5 1079.5 Q319 1102 376 1102 Q436 1102 483.5 1078 Q531 1054 564 1011.5 Q597 969 614.5 910.5 Q632 852 632 782 L480 782 Q480 820 473.5 854.5 Q467 889 454 915 Q441 941 421.5 957 Q402 973 376 973 Q351 973 332.5 959.5 Q314 946 302 924 Q290 902 284 873 Q278 844 278 813 Q278 782 284.5 758 Q291 734 306.5 712.5 Q322 691 349 669.5 Q376 648 416 620 Q470 583 511 549.5 Q552 516 579.5 477.5 Q607 439 621.5 392 Q636 345 636 280 Q636 211 618 155.5 Q600 100 566 61 Q532 22 484.5 1 Q437 -20 378 -20 Q312 -20 262 7 Q212 34 178 79 Q144 124 126.5 183 Q109 242 109 307 L256 307 Z " />
<glyph glyph-name="t" unicode="t" horiz-adv-x="538" d="M174 961 L76 961 L76 1082 L174 1082 L174 1352 L326 1352 L326 1082 L436 1082 L436 961 L326 961 L326 266 Q326 217 330.5 187 Q335 157 343.5 140.5 Q352 124 364 118.5 Q376 113 391 113 Q405 113 418.5 117 Q432 121 440 125 L440 -2 Q422 -9 398.5 -14.5 Q375 -20 345 -20 Q307 -20 275.5 -5.5 Q244 9 221.5 42.5 Q199 76 186.5 131 Q174 186 174 267 L174 961 Z " />
<glyph glyph-name="u" unicode="u" horiz-adv-x="804" d="M518 104 Q489 45 446 12.5 Q403 -20 344 -20 Q298 -20 259.5 2.5 Q221 25 193.5 74 Q166 123 151 200.5 Q136 278 136 387 L136 1082 L288 1082 L288 385 Q288 306 295.5 253.5 Q303 201 316 169.5 Q329 138 346.5 125.5 Q364 113 383 113 Q434 113 465 152 Q496 191 513 256 L513 1082 L667 1082 L667 0 L522 0 L518 104 Z " />
<glyph glyph-name="v" unicode="v" horiz-adv-x="736" d="M81 1082 L240 1082 L368 275 L493 1082 L652 1082 L436 0 L298 0 L81 1082 Z " />
<glyph glyph-name="w" unicode="w" horiz-adv-x="1020" d="M89 1082 L237 1082 L329 333 L452 1082 L565 1082 L690 328 L781 1082 L929 1082 L763 0 L636 0 L509 793 L382 0 L254 0 L89 1082 Z " />
<glyph glyph-name="x" unicode="x" horiz-adv-x="743" d="M279 550 L94 1082 L260 1082 L372 666 L486 1082 L651 1082 L464 550 L658 0 L492 0 L372 431 L253 0 L86 0 L279 550 Z " />
<glyph glyph-name="y" unicode="y" horiz-adv-x="728" d="M133 -297 Q138 -299 146.5 -300.5 Q155 -302 160 -302 Q185 -302 202.5 -291 Q220 -280 233 -257.5 Q246 -235 256.5 -200 Q267 -165 279 -116 L302 -20 L301 -21 L75 1082 L240 1082 L364 300 L490 1082 L653 1082 L401 -171 Q393 -210 379.5 -256 Q366 -302 343 -342.5 Q320 -383 286 -410 Q252 -437 204 -437 Q183 -437 166.5 -431.5 Q150 -426 133 -422 L133 -297 Z " />
<glyph glyph-name="z" unicode="z" horiz-adv-x="743" d="M116 114 L465 952 L124 952 L124 1082 L620 1082 L620 971 L270 129 L631 129 L631 0 L116 0 L116 114 Z " />
<glyph glyph-name="braceleft" unicode="&#x7b;" horiz-adv-x="537" d="M418 -384 Q358 -355 318 -308.5 Q278 -262 254 -201.5 Q230 -141 220 -69.5 Q210 2 210 81 L210 296 Q210 352 204 398 Q198 444 184.5 476 Q171 508 150.5 525.5 Q130 543 101 543 L101 670 Q159 670 184.5 737 Q210 804 210 916 L210 1132 Q210 1211 220 1282.5 Q230 1354 254 1414.5 Q278 1475 318 1521.5 Q358 1568 418 1597 L449 1500 Q420 1480 401 1444 Q382 1408 370.5 1360.5 Q359 1313 354.5 1255 Q350 1197 350 1132 L350 916 Q350 813 322.5 732 Q295 651 235 606 Q295 562 322.5 480.5 Q350 399 350 296 L350 81 Q350 16 354.5 -42 Q359 -100 370.5 -147.5 Q382 -195 401 -230.5 Q420 -266 448 -286 L418 -384 Z " />
<glyph glyph-name="bar" unicode="&#x7c;" horiz-adv-x="464" d="M180 -270 L180 1456 L287 1456 L287 -270 L180 -270 Z " />
<glyph glyph-name="braceright" unicode="&#x7d;" horiz-adv-x="537" d="M88 -286 Q117 -266 136 -230.5 Q155 -195 166.5 -147.5 Q178 -100 183 -42 Q188 16 188 81 L188 296 Q188 402 217 483.5 Q246 565 311 606 Q246 646 217 728 Q188 810 188 916 L188 1132 Q188 1197 183 1255 Q178 1313 166.5 1360.5 Q155 1408 136 1444 Q117 1480 88 1500 L118 1597 Q178 1568 218 1521.5 Q258 1475 282.5 1414.5 Q307 1354 317 1282.5 Q327 1211 327 1132 L327 916 Q327 804 352.5 737 Q378 670 436 670 L436 543 Q407 543 386.5 525.5 Q366 508 352.5 476 Q339 444 333 398 Q327 352 327 296 L327 81 Q327 2 317 -69.5 Q307 -141 282.5 -201.5 Q258 -262 218 -308.5 Q178 -355 118 -384 L88 -286 Z " />
<glyph glyph-name="asciitilde" unicode="&#x7e;" horiz-adv-x="921" d="M135 443 Q135 517 149.5 581.5 Q164 646 189.5 693.5 Q215 741 250.5 768.5 Q286 796 328 796 Q376 796 415 759.5 Q454 723 491 653 Q520 598 541.5 573 Q563 548 589 548 Q607 548 622 564.5 Q637 581 648 610.5 Q659 640 665 681 Q671 722 671 772 L786 772 Q786 699 772 633.5 Q758 568 732.5 519 Q707 470 672 441 Q637 412 595 412 Q546 412 507.5 447 Q469 482 430 555 Q403 606 380.5 632 Q358 658 334 658 Q296 658 275 602 Q254 546 254 443 L135 443 Z " />
<glyph glyph-name="uni00A0" unicode="&#xa0;" horiz-adv-x="357" />
<glyph glyph-name="exclamdown" unicode="&#xa1;" horiz-adv-x="465" d="M169 688 L298 688 L314 -361 L152 -361 L169 688 Z M232 915 Q192 915 169 941.5 Q146 968 146 1009 Q146 1047 169 1074 Q192 1101 232 1101 Q272 1101 295.5 1074 Q319 1047 319 1009 Q319 968 295.5 941.5 Q272 915 232 915 Z " />
<glyph glyph-name="cent" unicode="&#xa2;" horiz-adv-x="1030" d="M357 -12 Q138 43 138 470 L138 612 Q138 1040 357 1094 L357 1318 L473 1318 L473 1098 Q568 1080 625.5 984.5 Q683 889 685 714 L540 714 Q539 854 509 913.5 Q479 973 423 973 Q383 973 357.5 950 Q332 927 317 881 Q302 835 296.5 768 Q291 701 291 612 L291 470 Q291 381 296.5 313.5 Q302 246 316.5 200.5 Q331 155 357 132 Q383 109 424 109 Q449 109 470 120 Q491 131 506 157 Q521 183 530 227.5 Q539 272 540 338 L685 338 Q684 262 667.5 200.5 Q651 139 622.5 94.5 Q594 50 556 22 Q518 -6 473 -15 L473 -245 L357 -245 L357 -12 Z " />
<glyph glyph-name="sterling" unicode="&#xa3;" horiz-adv-x="844" d="M129 133 L179 133 Q193 140 202 166.5 Q211 193 216 230 Q221 267 222.5 308 Q224 349 223 385 L220 634 L127 634 L127 766 L218 766 L214 1039 Q213 1143 232 1224 Q251 1305 285.5 1361 Q320 1417 368.5 1446.5 Q417 1476 475 1476 Q537 1476 585 1448 Q633 1420 665.5 1368.5 Q698 1317 715 1245.5 Q732 1174 732 1087 L580 1087 Q580 1156 571 1205 Q562 1254 547 1284.5 Q532 1315 512.5 1329.5 Q493 1344 471 1344 Q428 1344 399 1266 Q370 1188 370 1039 L375 766 L557 766 L557 634 L377 634 L382 387 Q384 311 371.5 245.5 Q359 180 330 133 L740 133 L740 0 L129 0 L129 133 Z " />
<glyph glyph-name="currency" unicode="&#xa4;" horiz-adv-x="1173" d="M120 87 L230 237 Q190 315 168 408.5 Q146 502 146 608 Q146 718 170 815.5 Q194 913 236 991 L120 1151 L208 1264 L321 1109 Q377 1169 444.5 1201.5 Q512 1234 587 1234 Q664 1234 732 1200.5 Q800 1167 857 1107 L972 1265 L1060 1151 L941 988 Q983 910 1006.5 813.5 Q1030 717 1030 608 Q1030 503 1008.5 410.5 Q987 318 948 240 L1060 87 L972 -27 L866 118 Q809 52 738 16 Q667 -20 587 -20 Q509 -20 438.5 15.5 Q368 51 311 116 L208 -26 L120 87 Z M587 124 Q655 124 714.5 162 Q774 200 818 266 Q862 332 888 420 Q914 508 914 608 Q914 709 888 797 Q862 885 818 950 Q774 1015 714.5 1053 Q655 1091 587 1091 Q520 1091 460.5 1053 Q401 1015 357 950 Q313 885 287 797 Q261 709 261 608 Q261 508 287 420 Q313 332 357 266 Q401 200 460.5 162 Q520 124 587 124 Z " />
<glyph glyph-name="yen" unicode="&#xa5;" horiz-adv-x="777" d="M307 323 L128 323 L128 431 L307 431 L307 614 L128 614 L128 723 L287 723 L78 1456 L246 1456 L389 857 L532 1456 L699 1456 L490 723 L637 723 L637 614 L465 614 L465 431 L637 431 L637 323 L465 323 L465 0 L307 0 L307 323 Z " />
<glyph glyph-name="brokenbar" unicode="&#xa6;" horiz-adv-x="461" d="M155 -270 L155 512 L303 512 L303 -270 L155 -270 Z M155 698 L155 1456 L303 1456 L303 698 L155 698 Z " />
<glyph glyph-name="section" unicode="&#xa7;" horiz-adv-x="882" d="M276 -62 Q276 -148 290 -206.5 Q304 -265 327 -300.5 Q350 -336 379 -351 Q408 -366 437 -366 Q472 -366 498.5 -348.5 Q525 -331 543 -300.5 Q561 -270 570.5 -227.5 Q580 -185 580 -135 Q580 -86 571.5 -49 Q563 -12 542 18.5 Q521 49 486.5 77 Q452 105 400 136 Q336 165 285 199 Q234 233 198.5 281 Q163 329 144 394.5 Q125 460 125 551 Q125 643 156 711 Q187 779 243 818 Q195 869 169.5 939 Q144 1009 144 1115 Q144 1197 165 1264 Q186 1331 224.5 1378 Q263 1425 318 1451 Q373 1477 441 1477 Q510 1477 565 1449 Q620 1421 658 1366 Q696 1311 716.5 1230.5 Q737 1150 737 1046 L585 1046 Q585 1109 576 1164 Q567 1219 549 1260 Q531 1301 504 1324.5 Q477 1348 441 1348 Q403 1348 376 1330 Q349 1312 331.5 1280.5 Q314 1249 305.5 1207 Q297 1165 297 1117 Q297 1065 304 1026 Q311 987 330.5 956.5 Q350 926 384.5 900.5 Q419 875 474 848 Q540 815 591.5 780.5 Q643 746 678.5 698.5 Q714 651 732 587 Q750 523 750 431 Q750 338 718.5 271 Q687 204 629 166 Q679 116 705.5 45.5 Q732 -25 732 -133 Q732 -219 711 -286 Q690 -353 651 -399.5 Q612 -446 557.5 -470.5 Q503 -495 437 -495 Q379 -495 322.5 -473 Q266 -451 222 -401 Q178 -351 151 -268.5 Q124 -186 124 -64 L276 -62 Z M456 278 Q497 259 531 239 Q564 264 582 314 Q600 364 600 428 Q600 478 591.5 517 Q583 556 562 588.5 Q541 621 506 648 Q471 675 417 702 Q375 723 339 744 Q307 719 292 669 Q277 619 277 553 Q277 499 284 459.5 Q291 420 311 388.5 Q331 357 366 331 Q401 305 456 278 Z " />
<glyph glyph-name="dieresis" unicode="&#xa8;" horiz-adv-x="786" >
<g transform="translate(462,2)" >
<path fill="black" d="M-266 1289 Q-307 1289 -330 1316 Q-353 1343 -353 1383 Q-353 1422 -330 1449.5 Q-307 1477 -266 1477 Q-226 1477 -203 1449.5 Q-180 1422 -180 1383 Q-180 1343 -203 1316 Q-226 1289 -266 1289 Z " />
</g>
<g transform="translate(808,0)" >
<path fill="black" d="M-266 1289 Q-307 1289 -330 1316 Q-353 1343 -353 1383 Q-353 1422 -330 1449.5 Q-307 1477 -266 1477 Q-226 1477 -203 1449.5 Q-180 1422 -180 1383 Q-180 1343 -203 1316 Q-226 1289 -266 1289 Z " />
</g>
</glyph>
<glyph glyph-name="copyright" unicode="&#xa9;" horiz-adv-x="1303" d="M648 -21 Q539 -21 443 36.5 Q347 94 275.5 195 Q204 296 162.5 433 Q121 570 121 729 Q121 888 162.5 1024.5 Q204 1161 275.5 1261.5 Q347 1362 443 1419 Q539 1476 648 1476 Q757 1476 853 1419 Q949 1362 1021 1261.5 Q1093 1161 1134.5 1024.5 Q1176 888 1176 729 Q1176 570 1134.5 433 Q1093 296 1021 195 Q949 94 853 36.5 Q757 -21 648 -21 Z M648 83 Q740 83 821.5 133 Q903 183 964 270 Q1025 357 1060 475 Q1095 593 1095 729 Q1095 866 1060 983.5 Q1025 1101 964 1187 Q903 1273 821.5 1322.5 Q740 1372 648 1372 Q556 1372 474.5 1322.5 Q393 1273 332.5 1187 Q272 1101 236.5 983.5 Q201 866 201 729 Q201 593 236.5 475 Q272 357 332.5 270 Q393 183 474.5 133 Q556 83 648 83 Z M385 782 Q385 868 403 939 Q421 1010 454 1061 Q487 1112 534 1140.5 Q581 1169 639 1169 Q750 1169 816 1091 Q882 1013 882 856 L784 856 Q784 962 747 1010 Q710 1058 639 1058 Q601 1058 571.5 1037.5 Q542 1017 522.5 980 Q503 943 493 893 Q483 843 483 783 L483 675 Q483 615 493 564 Q503 513 522.5 476.5 Q542 440 571.5 419.5 Q601 399 639 399 Q710 399 746.5 446 Q783 493 783 602 L881 602 Q881 445 815.5 366.5 Q750 288 639 288 Q581 288 534 316 Q487 344 454 395 Q421 446 403 517.5 Q385 589 385 675 L385 782 Z " />
<glyph glyph-name="guillemotleft" unicode="&#xab;" horiz-adv-x="725" >
<g transform="translate(-6,-11)" >
<path fill="black" d="M134 544 L134 563 L299 947 L400 947 L259 554 L400 160 L299 160 L134 544 Z " />
</g>
<g transform="translate(259,0)" >
<path fill="black" d="M134 544 L134 563 L299 947 L400 947 L259 554 L400 160 L299 160 L134 544 Z " />
</g>
</glyph>
<glyph glyph-name="logicalnot" unicode="&#xac;" horiz-adv-x="798" d="M144 790 L629 790 L629 380 L513 380 L513 653 L144 653 L144 790 Z " />
<glyph glyph-name="uni00AD" unicode="&#xad;" horiz-adv-x="564" >
<g transform="translate(10,0)" >
<path fill="black" d="M123 566 L123 695 L437 695 L437 566 L123 566 Z " />
</g>
</glyph>
<glyph glyph-name="registered" unicode="&#xae;" horiz-adv-x="1304" d="M646 -21 Q537 -21 441 36.5 Q345 94 273.5 195 Q202 296 160.5 433 Q119 570 119 729 Q119 888 160.5 1024.5 Q202 1161 273.5 1261.5 Q345 1362 441 1419 Q537 1476 646 1476 Q755 1476 851 1419 Q947 1362 1019 1261.5 Q1091 1161 1132.5 1024.5 Q1174 888 1174 729 Q1174 570 1132.5 433 Q1091 296 1019 195 Q947 94 851 36.5 Q755 -21 646 -21 Z M646 83 Q738 83 819.5 133 Q901 183 962 270 Q1023 357 1058 475 Q1093 593 1093 729 Q1093 866 1058 983.5 Q1023 1101 962 1187 Q901 1273 819.5 1322.5 Q738 1372 646 1372 Q554 1372 472.5 1322.5 Q391 1273 330 1187 Q269 1101 233.5 983.5 Q198 866 198 729 Q198 593 233.5 475 Q269 357 330 270 Q391 183 472.5 133 Q554 83 646 83 Z M438 1163 L639 1163 Q750 1163 812.5 1100.5 Q875 1038 875 910 Q875 781 775 719 Q828 693 848.5 638.5 Q869 584 869 512 L869 462 Q869 424 872 391 Q875 358 882 335 L882 319 L783 319 Q779 332 777 352 Q775 372 774 393 Q773 414 773 433 Q773 452 773 463 L773 511 Q773 589 748 624.5 Q723 660 660 660 L534 660 L534 319 L438 319 L438 1163 Z M648 770 Q675 771 698.5 780 Q722 789 740 806.5 Q758 824 768.5 849.5 Q779 875 779 908 Q779 986 748.5 1020 Q718 1054 639 1054 L534 1054 L534 770 L648 770 Z " />
<glyph glyph-name="overscore" unicode="&#xaf;" horiz-adv-x="724" d="M162 1321 L162 1443 L561 1443 L561 1321 L162 1321 Z " />
<glyph glyph-name="degree" unicode="&#xb0;" horiz-adv-x="684" d="M342 969 Q303 969 267.5 988.5 Q232 1008 206 1042.5 Q180 1077 164.5 1123 Q149 1169 149 1221 Q149 1274 164.5 1320.5 Q180 1367 206 1401.5 Q232 1436 267.5 1456.5 Q303 1477 342 1477 Q381 1477 416 1456.5 Q451 1436 477 1401.5 Q503 1367 518 1320.5 Q533 1274 533 1221 Q533 1169 518 1123 Q503 1077 477 1042.5 Q451 1008 416 988.5 Q381 969 342 969 Z M342 1080 Q385 1080 413.5 1119.5 Q442 1159 442 1221 Q442 1253 434.5 1279.5 Q427 1306 413.5 1325.5 Q400 1345 381.5 1356 Q363 1367 342 1367 Q321 1367 302.5 1356 Q284 1345 270 1325.5 Q256 1306 248 1279.5 Q240 1253 240 1221 Q240 1190 248 1164.5 Q256 1139 270 1120 Q284 1101 302.5 1090.5 Q321 1080 342 1080 Z " />
<glyph glyph-name="plusminus" unicode="&#xb1;" horiz-adv-x="780" d="M326 715 L123 715 L123 842 L326 842 L326 1267 L460 1267 L460 842 L656 842 L656 715 L460 715 L460 289 L326 289 L326 715 Z M151 128 L647 128 L647 0 L151 0 L151 128 Z " />
<glyph glyph-name="twosuperior" unicode="&#xb2;" horiz-adv-x="622" d="M164 666 L166 759 L329 1038 Q367 1102 381 1149 Q395 1196 395 1233 Q395 1288 379.5 1322 Q364 1356 335 1356 Q300 1356 283.5 1314.5 Q267 1273 267 1210 L154 1210 Q154 1263 166.5 1309.5 Q179 1356 202 1391 Q225 1426 257.5 1446 Q290 1466 331 1466 Q416 1466 461.5 1404.5 Q507 1343 507 1234 Q507 1195 498 1160.5 Q489 1126 473.5 1091.5 Q458 1057 438 1020 Q418 983 395 940 L310 776 L522 776 L522 666 L164 666 Z " />
<glyph glyph-name="threesuperior" unicode="&#xb3;" horiz-adv-x="622" d="M265 888 Q265 834 284.5 799.5 Q304 765 337 765 Q372 765 389.5 799 Q407 833 407 890 Q407 959 386.5 988.5 Q366 1018 329 1018 L278 1018 L278 1117 L329 1117 Q364 1117 381.5 1152 Q399 1187 399 1239 Q399 1290 384 1323 Q369 1356 334 1356 Q307 1356 289 1327 Q271 1298 271 1246 L158 1246 Q158 1297 172 1337.5 Q186 1378 209.5 1406.5 Q233 1435 264.5 1450.5 Q296 1466 331 1466 Q411 1466 461 1409 Q511 1352 511 1242 Q511 1188 488 1141.5 Q465 1095 425 1070 Q470 1048 494.5 1000.5 Q519 953 519 884 Q519 829 504.5 786.5 Q490 744 464.5 715 Q439 686 404.5 670.5 Q370 655 330 655 Q298 655 266 668.5 Q234 682 208.5 710.5 Q183 739 167 783 Q151 827 151 888 L265 888 Z " />
<glyph glyph-name="acute" unicode="&#xb4;" horiz-adv-x="574" d="M278 1536 L459 1536 L267 1249 L134 1249 L278 1536 Z " />
<glyph glyph-name="mu" unicode="&#xb5;" horiz-adv-x="857" d="M154 1082 L305 1082 L305 456 Q305 348 313 280 Q321 212 336 174 Q351 136 371.5 122 Q392 108 416 108 Q467 108 497 148 Q527 188 543 258 L543 1082 L696 1082 L696 0 L554 0 L551 79 Q525 31 491.5 5 Q458 -21 414 -21 Q382 -21 354.5 -7.5 Q327 6 305 36 L305 -416 L154 -416 L154 1082 Z " />
<glyph glyph-name="paragraph" unicode="&#xb6;" horiz-adv-x="724" d="M446 0 L446 520 L398 520 Q329 520 275.5 555 Q222 590 185.5 652.5 Q149 715 130.5 801 Q112 887 112 988 Q112 1089 130.5 1174.5 Q149 1260 185.5 1322.5 Q222 1385 275.5 1420.5 Q329 1456 398 1456 L570 1456 L570 0 L446 0 Z " />
<glyph glyph-name="middot" unicode="&#xb7;" horiz-adv-x="487" d="M241 628 Q200 628 176.5 655.5 Q153 683 153 724 Q153 766 176.5 794.5 Q200 823 241 823 Q282 823 305.5 794.5 Q329 766 329 724 Q329 683 305.5 655.5 Q282 628 241 628 Z " />
<glyph glyph-name="cedilla" unicode="&#xb8;" horiz-adv-x="453" d="M143 -342 Q175 -342 195.5 -317 Q216 -292 216 -233 Q216 -180 196.5 -159.5 Q177 -139 130 -131 L149 0 L262 0 L255 -58 Q271 -63 286.5 -74 Q302 -85 314.5 -105 Q327 -125 334.5 -156 Q342 -187 342 -230 Q342 -322 293 -378.5 Q244 -435 147 -435 L143 -342 Z " />
<glyph glyph-name="onesuperior" unicode="&#xb9;" horiz-adv-x="622" d="M311 666 L311 1297 L198 1233 L198 1344 L412 1455 L424 1455 L424 666 L311 666 Z " />
<glyph glyph-name="guillemotright" unicode="&#xbb;" horiz-adv-x="724" >
<g transform="translate(14,0)" >
<path fill="black" d="M261 551 L119 947 L221 947 L386 560 L386 541 L221 157 L119 157 L261 551 Z " />
</g>
<g transform="translate(306,0)" >
<path fill="black" d="M261 551 L119 947 L221 947 L386 560 L386 541 L221 157 L119 157 L261 551 Z " />
</g>
</glyph>
<glyph glyph-name="onequarter" unicode="&#xbc;" horiz-adv-x="1340" d="M751 1319 L828 1261 L415 123 L339 181 L751 1319 Z M557 263 L767 789 L880 789 L880 289 L934 289 L934 178 L880 178 L880 0 L768 0 L768 178 L563 178 L557 263 Z M290 664 L290 1295 L177 1231 L177 1342 L391 1453 L403 1453 L403 664 L290 664 Z M768 289 L768 600 L760 583 L664 289 L768 289 Z " />
<glyph glyph-name="onehalf" unicode="&#xbd;" horiz-adv-x="1427" d="M292 664 L236 664 L236 1295 L123 1231 L123 1342 L337 1453 L349 1453 L349 822 L526 1311 L603 1253 L190 115 L114 173 L292 664 Z M624 93 L787 372 Q825 436 839 483 Q853 530 853 567 Q853 622 837.5 656 Q822 690 793 690 Q758 690 741.5 648.5 Q725 607 725 544 L612 544 Q612 597 624.5 643.5 Q637 690 660 725 Q683 760 715.5 780 Q748 800 789 800 Q874 800 919.5 738.5 Q965 677 965 568 Q965 529 956 494.5 Q947 460 931.5 425.5 Q916 391 896 354 Q876 317 853 274 L768 110 L980 110 L980 0 L622 0 L624 93 Z " />
<glyph glyph-name="threequarters" unicode="&#xbe;" horiz-adv-x="1407" d="M293 669 Q247 689 213 743 Q179 797 179 888 L293 888 Q293 849 303.5 819.5 Q314 790 332 776 L411 993 Q392 1018 357 1018 L306 1018 L306 1117 L357 1117 Q392 1117 409.5 1152 Q427 1187 427 1239 Q427 1290 412 1323 Q397 1356 362 1356 Q335 1356 317 1327 Q299 1298 299 1246 L186 1246 Q186 1297 200 1337.5 Q214 1378 237.5 1406.5 Q261 1435 292.5 1450.5 Q324 1466 359 1466 Q427 1466 473.5 1425 Q520 1384 534 1305 L603 1253 L516 1012 Q547 961 547 884 Q547 834 535 794.5 Q523 755 501.5 726 Q480 697 451 679.5 Q422 662 387 657 L190 115 L114 173 L293 669 Z M773 263 L983 789 L1096 789 L1096 289 L1150 289 L1150 178 L1096 178 L1096 0 L984 0 L984 178 L779 178 L773 263 Z M984 289 L984 600 L976 583 L880 289 L984 289 Z " />
<glyph glyph-name="questiondown" unicode="&#xbf;" horiz-adv-x="725" d="M622 -20 Q622 -107 602 -174.5 Q582 -242 547.5 -289 Q513 -336 466.5 -360.5 Q420 -385 366 -385 Q306 -385 258.5 -359 Q211 -333 178.5 -284.5 Q146 -236 128.5 -166 Q111 -96 111 -8 Q111 63 123 123.5 Q135 184 155 238 Q175 292 201 340.5 Q227 389 254 435 Q286 488 296 547.5 Q306 607 306 684 L445 684 Q445 616 440.5 569 Q436 522 426 483.5 Q416 445 399 408 Q382 371 356 323 Q337 287 320 253 Q303 219 290 181 Q277 143 270 98.5 Q263 54 263 -5 Q263 -123 289.5 -186.5 Q316 -250 363 -250 Q384 -250 403.5 -235 Q423 -220 437.5 -190.5 Q452 -161 461 -118.5 Q470 -76 470 -20 L622 -20 Z M376 915 Q336 915 313 941.5 Q290 968 290 1009 Q290 1047 313 1074 Q336 1101 376 1101 Q416 1101 439.5 1074 Q463 1047 463 1009 Q463 968 439.5 941.5 Q416 915 376 915 Z " />
<glyph glyph-name="Agrave" unicode="&#xc0;" horiz-adv-x="934" >
<path fill="black" d="M396 1456 L539 1456 L857 0 L690 0 L618 394 L316 394 L244 0 L78 0 L396 1456 Z M594 526 L467 1226 L340 526 L594 526 Z " />
<g transform="translate(125,313)" >
<path fill="black" d="M272 1249 L82 1536 L262 1536 L407 1249 L272 1249 Z " />
</g>
</glyph>
<glyph glyph-name="Aacute" unicode="&#xc1;" horiz-adv-x="934" >
<path fill="black" d="M396 1456 L539 1456 L857 0 L690 0 L618 394 L316 394 L244 0 L78 0 L396 1456 Z M594 526 L467 1226 L340 526 L594 526 Z " />
<g transform="translate(254,313)" >
<path fill="black" d="M278 1536 L459 1536 L267 1249 L134 1249 L278 1536 Z " />
</g>
</glyph>
<glyph glyph-name="Acircumflex" unicode="&#xc2;" horiz-adv-x="934" >
<path fill="black" d="M396 1456 L539 1456 L857 0 L690 0 L618 394 L316 394 L244 0 L78 0 L396 1456 Z M594 526 L467 1226 L340 526 L594 526 Z " />
<g transform="translate(111,313)" >
<path fill="black" d="M150 1268 L313 1532 L402 1532 L568 1266 L568 1256 L447 1256 L358 1431 L270 1256 L150 1256 L150 1268 Z " />
</g>
</glyph>
<glyph glyph-name="Atilde" unicode="&#xc3;" horiz-adv-x="934" >
<path fill="black" d="M396 1456 L539 1456 L857 0 L690 0 L618 394 L316 394 L244 0 L78 0 L396 1456 Z M594 526 L467 1226 L340 526 L594 526 Z " />
<g transform="translate(113,319)" >
<path fill="black" d="M141 1257 Q141 1308 150.5 1350.5 Q160 1393 177.5 1423.5 Q195 1454 218.5 1470.5 Q242 1487 270 1487 Q294 1487 313.5 1471 Q333 1455 351 1436.5 Q369 1418 388 1402 Q407 1386 429 1386 Q450 1386 465 1419 Q480 1452 480 1503 L570 1494 Q570 1442 560.5 1400 Q551 1358 533.5 1328 Q516 1298 492.5 1281.5 Q469 1265 441 1265 Q413 1265 393 1281 Q373 1297 356.5 1316 Q340 1335 323 1351 Q306 1367 283 1367 Q261 1367 246.5 1335.5 Q232 1304 232 1253 L141 1257 Z " />
</g>
</glyph>
<glyph glyph-name="Adieresis" unicode="&#xc4;" horiz-adv-x="934" d="M396 1456 L539 1456 L857 0 L690 0 L618 394 L316 394 L244 0 L78 0 L396 1456 Z M594 526 L467 1226 L340 526 L594 526 Z M620 1602 Q580 1602 557 1628.5 Q534 1655 534 1696 Q534 1734 557 1761 Q580 1788 620 1788 Q660 1788 683.5 1761 Q707 1734 707 1696 Q707 1655 683.5 1628.5 Q660 1602 620 1602 Z M274 1604 Q234 1604 211 1630.5 Q188 1657 188 1698 Q188 1736 211 1763 Q234 1790 274 1790 Q314 1790 337.5 1763 Q361 1736 361 1698 Q361 1657 337.5 1630.5 Q314 1604 274 1604 Z " />
<glyph glyph-name="Aring" unicode="&#xc5;" horiz-adv-x="934" d="M396 1456 L539 1456 L857 0 L690 0 L618 394 L316 394 L244 0 L78 0 L396 1456 Z M594 526 L467 1226 L340 526 L594 526 Z M471 1528 Q437 1528 409 1543 Q381 1558 360.5 1584 Q340 1610 329 1646 Q318 1682 318 1724 Q318 1766 329 1802.5 Q340 1839 360.5 1866 Q381 1893 409 1908.5 Q437 1924 471 1924 Q504 1924 531.5 1908.5 Q559 1893 579.5 1866 Q600 1839 611 1802.5 Q622 1766 622 1724 Q622 1682 611 1646 Q600 1610 579.5 1584 Q559 1558 531.5 1543 Q504 1528 471 1528 Z M471 1608 Q508 1608 528 1642 Q548 1676 548 1724 Q548 1748 543 1769.5 Q538 1791 528 1807.5 Q518 1824 503.5 1833.5 Q489 1843 471 1843 Q452 1843 437.5 1833.5 Q423 1824 413 1807.5 Q403 1791 397.5 1769.5 Q392 1748 392 1724 Q392 1701 397.5 1680 Q403 1659 413 1643 Q423 1627 437.5 1617.5 Q452 1608 471 1608 Z " />
<glyph glyph-name="AE" unicode="&#xc6;" horiz-adv-x="1258" d="M540 1456 L1121 1456 L1121 1327 L757 1327 L769 823 L1074 823 L1074 695 L772 695 L786 129 L1157 129 L1157 0 L636 0 L627 371 L359 371 L249 0 L68 0 L540 1456 Z M624 515 L607 1206 L402 515 L624 515 Z " />
<glyph glyph-name="Ccedilla" unicode="&#xc7;" horiz-adv-x="919" d="M409 -352 Q441 -352 461.5 -327 Q482 -302 482 -243 Q482 -190 462.5 -169.5 Q443 -149 396 -141 L414 -14 Q347 0 295 46.5 Q243 93 207 168 Q171 243 152.5 344.5 Q134 446 134 570 L134 891 Q134 1026 157.5 1134.5 Q181 1243 225 1319 Q269 1395 332.5 1435.5 Q396 1476 476 1476 Q630 1476 713.5 1358.5 Q797 1241 806 994 L647 994 Q645 1090 634.5 1156.5 Q624 1223 603.5 1264.5 Q583 1306 551.5 1325 Q520 1344 476 1344 Q428 1344 393.5 1312.5 Q359 1281 336.5 1222.5 Q314 1164 303.5 1080.5 Q293 997 293 893 L293 570 Q293 470 302.5 385.5 Q312 301 333 240 Q354 179 388 145 Q422 111 471 111 Q515 111 547 129 Q579 147 600.5 187.5 Q622 228 633 294.5 Q644 361 647 458 L805 458 Q800 241 728.5 123 Q657 5 527 -16 L521 -68 Q537 -73 552.5 -84 Q568 -95 580.5 -115 Q593 -135 600.5 -166 Q608 -197 608 -240 Q608 -332 559 -388.5 Q510 -445 413 -445 L409 -352 Z " />
<glyph glyph-name="Egrave" unicode="&#xc8;" horiz-adv-x="811" >
<path fill="black" d="M152 1456 L708 1456 L708 1324 L310 1324 L310 817 L653 817 L653 686 L310 686 L310 133 L711 133 L711 0 L152 0 L152 1456 Z " />
<g transform="translate(92,321)" >
<path fill="black" d="M272 1249 L82 1536 L262 1536 L407 1249 L272 1249 Z " />
</g>
</glyph>
<glyph glyph-name="Eacute" unicode="&#xc9;" horiz-adv-x="811" >
<path fill="black" d="M152 1456 L708 1456 L708 1324 L310 1324 L310 817 L653 817 L653 686 L310 686 L310 133 L711 133 L711 0 L152 0 L152 1456 Z " />
<g transform="translate(221,321)" >
<path fill="black" d="M278 1536 L459 1536 L267 1249 L134 1249 L278 1536 Z " />
</g>
</glyph>
<glyph glyph-name="Ecircumflex" unicode="&#xca;" horiz-adv-x="811" >
<path fill="black" d="M152 1456 L708 1456 L708 1324 L310 1324 L310 817 L653 817 L653 686 L310 686 L310 133 L711 133 L711 0 L152 0 L152 1456 Z " />
<g transform="translate(78,321)" >
<path fill="black" d="M150 1268 L313 1532 L402 1532 L568 1266 L568 1256 L447 1256 L358 1431 L270 1256 L150 1256 L150 1268 Z " />
</g>
</glyph>
<glyph glyph-name="Edieresis" unicode="&#xcb;" horiz-adv-x="811" d="M152 1456 L708 1456 L708 1324 L310 1324 L310 817 L653 817 L653 686 L310 686 L310 133 L711 133 L711 0 L152 0 L152 1456 Z M587 1610 Q547 1610 524 1636.5 Q501 1663 501 1704 Q501 1742 524 1769 Q547 1796 587 1796 Q627 1796 650.5 1769 Q674 1742 674 1704 Q674 1663 650.5 1636.5 Q627 1610 587 1610 Z M241 1612 Q201 1612 178 1638.5 Q155 1665 155 1706 Q155 1744 178 1771 Q201 1798 241 1798 Q281 1798 304.5 1771 Q328 1744 328 1706 Q328 1665 304.5 1638.5 Q281 1612 241 1612 Z " />
<glyph glyph-name="Igrave" unicode="&#xcc;" horiz-adv-x="483" >
<path fill="black" d="M163 0 L163 1456 L321 1456 L321 0 L163 0 Z " />
<g transform="translate(-103,321)" >
<path fill="black" d="M272 1249 L82 1536 L262 1536 L407 1249 L272 1249 Z " />
</g>
</glyph>
<glyph glyph-name="Iacute" unicode="&#xcd;" horiz-adv-x="483" >
<path fill="black" d="M163 0 L163 1456 L321 1456 L321 0 L163 0 Z " />
<g transform="translate(26,321)" >
<path fill="black" d="M278 1536 L459 1536 L267 1249 L134 1249 L278 1536 Z " />
</g>
</glyph>
<glyph glyph-name="Icircumflex" unicode="&#xce;" horiz-adv-x="483" >
<path fill="black" d="M163 0 L163 1456 L321 1456 L321 0 L163 0 Z " />
<g transform="translate(-117,321)" >
<path fill="black" d="M150 1268 L313 1532 L402 1532 L568 1266 L568 1256 L447 1256 L358 1431 L270 1256 L150 1256 L150 1268 Z " />
</g>
</glyph>
<glyph glyph-name="Idieresis" unicode="&#xcf;" horiz-adv-x="483" >
<path fill="black" d="M163 0 L163 1456 L321 1456 L321 0 L163 0 Z " />
<g transform="translate(313,323)" >
<path fill="black" d="M-266 1289 Q-307 1289 -330 1316 Q-353 1343 -353 1383 Q-353 1422 -330 1449.5 Q-307 1477 -266 1477 Q-226 1477 -203 1449.5 Q-180 1422 -180 1383 Q-180 1343 -203 1316 Q-226 1289 -266 1289 Z " />
</g>
<g transform="translate(659,321)" >
<path fill="black" d="M-266 1289 Q-307 1289 -330 1316 Q-353 1343 -353 1383 Q-353 1422 -330 1449.5 Q-307 1477 -266 1477 Q-226 1477 -203 1449.5 Q-180 1422 -180 1383 Q-180 1343 -203 1316 Q-226 1289 -266 1289 Z " />
</g>
</glyph>
<glyph glyph-name="Eth" unicode="&#xd0;" horiz-adv-x="917" d="M152 677 L63 677 L63 805 L152 805 L152 1456 L406 1456 Q491 1456 560 1420 Q629 1384 678 1312 Q727 1240 754 1132.5 Q781 1025 781 882 L781 574 Q781 431 754.5 323.5 Q728 216 678.5 144 Q629 72 559 36 Q489 0 402 0 L152 0 L152 677 Z M402 133 Q523 133 573 242.5 Q623 352 623 574 L623 885 Q623 1112 572.5 1218 Q522 1324 406 1324 L310 1324 L310 805 L460 805 L460 677 L310 677 L310 133 L402 133 Z " />
<glyph glyph-name="Ntilde" unicode="&#xd1;" horiz-adv-x="982" >
<path fill="black" d="M152 1456 L340 1456 L673 343 L673 1456 L829 1456 L829 0 L641 0 L310 1110 L310 0 L152 0 L152 1456 Z " />
<g transform="translate(136,319)" >
<path fill="black" d="M141 1257 Q141 1308 150.5 1350.5 Q160 1393 177.5 1423.5 Q195 1454 218.5 1470.5 Q242 1487 270 1487 Q294 1487 313.5 1471 Q333 1455 351 1436.5 Q369 1418 388 1402 Q407 1386 429 1386 Q450 1386 465 1419 Q480 1452 480 1503 L570 1494 Q570 1442 560.5 1400 Q551 1358 533.5 1328 Q516 1298 492.5 1281.5 Q469 1265 441 1265 Q413 1265 393 1281 Q373 1297 356.5 1316 Q340 1335 323 1351 Q306 1367 283 1367 Q261 1367 246.5 1335.5 Q232 1304 232 1253 L141 1257 Z " />
</g>
</glyph>
<glyph glyph-name="Ograve" unicode="&#xd2;" horiz-adv-x="961" >
<path fill="black" d="M133 889 Q133 1036 157.5 1146 Q182 1256 227.5 1329.5 Q273 1403 337 1439.5 Q401 1476 479 1476 Q559 1476 623 1439.5 Q687 1403 732 1329.5 Q777 1256 801.5 1146 Q826 1036 826 889 L826 567 Q826 420 801.5 309.5 Q777 199 732 126 Q687 53 623.5 16.5 Q560 -20 481 -20 Q403 -20 338.5 16.5 Q274 53 228.5 126 Q183 199 158 309.5 Q133 420 133 567 L133 889 Z M667 891 Q667 1126 619.5 1232 Q572 1338 479 1338 Q433 1338 398 1312 Q363 1286 339 1231.5 Q315 1177 303 1092.5 Q291 1008 291 891 L291 567 Q291 449 303.5 363.5 Q316 278 340 223.5 Q364 169 399.5 143 Q435 117 481 117 Q527 117 562 143 Q597 169 620 223.5 Q643 278 655 363.5 Q667 449 667 567 L667 891 Z " />
<g transform="translate(136,320)" >
<path fill="black" d="M272 1249 L82 1536 L262 1536 L407 1249 L272 1249 Z " />
</g>
</glyph>
<glyph glyph-name="Oacute" unicode="&#xd3;" horiz-adv-x="961" >
<path fill="black" d="M133 889 Q133 1036 157.5 1146 Q182 1256 227.5 1329.5 Q273 1403 337 1439.5 Q401 1476 479 1476 Q559 1476 623 1439.5 Q687 1403 732 1329.5 Q777 1256 801.5 1146 Q826 1036 826 889 L826 567 Q826 420 801.5 309.5 Q777 199 732 126 Q687 53 623.5 16.5 Q560 -20 481 -20 Q403 -20 338.5 16.5 Q274 53 228.5 126 Q183 199 158 309.5 Q133 420 133 567 L133 889 Z M667 891 Q667 1126 619.5 1232 Q572 1338 479 1338 Q433 1338 398 1312 Q363 1286 339 1231.5 Q315 1177 303 1092.5 Q291 1008 291 891 L291 567 Q291 449 303.5 363.5 Q316 278 340 223.5 Q364 169 399.5 143 Q435 117 481 117 Q527 117 562 143 Q597 169 620 223.5 Q643 278 655 363.5 Q667 449 667 567 L667 891 Z " />
<g transform="translate(265,320)" >
<path fill="black" d="M278 1536 L459 1536 L267 1249 L134 1249 L278 1536 Z " />
</g>
</glyph>
<glyph glyph-name="Ocircumflex" unicode="&#xd4;" horiz-adv-x="961" >
<path fill="black" d="M133 889 Q133 1036 157.5 1146 Q182 1256 227.5 1329.5 Q273 1403 337 1439.5 Q401 1476 479 1476 Q559 1476 623 1439.5 Q687 1403 732 1329.5 Q777 1256 801.5 1146 Q826 1036 826 889 L826 567 Q826 420 801.5 309.5 Q777 199 732 126 Q687 53 623.5 16.5 Q560 -20 481 -20 Q403 -20 338.5 16.5 Q274 53 228.5 126 Q183 199 158 309.5 Q133 420 133 567 L133 889 Z M667 891 Q667 1126 619.5 1232 Q572 1338 479 1338 Q433 1338 398 1312 Q363 1286 339 1231.5 Q315 1177 303 1092.5 Q291 1008 291 891 L291 567 Q291 449 303.5 363.5 Q316 278 340 223.5 Q364 169 399.5 143 Q435 117 481 117 Q527 117 562 143 Q597 169 620 223.5 Q643 278 655 363.5 Q667 449 667 567 L667 891 Z " />
<g transform="translate(122,320)" >
<path fill="black" d="M150 1268 L313 1532 L402 1532 L568 1266 L568 1256 L447 1256 L358 1431 L270 1256 L150 1256 L150 1268 Z " />
</g>
</glyph>
<glyph glyph-name="Otilde" unicode="&#xd5;" horiz-adv-x="961" >
<path fill="black" d="M133 889 Q133 1036 157.5 1146 Q182 1256 227.5 1329.5 Q273 1403 337 1439.5 Q401 1476 479 1476 Q559 1476 623 1439.5 Q687 1403 732 1329.5 Q777 1256 801.5 1146 Q826 1036 826 889 L826 567 Q826 420 801.5 309.5 Q777 199 732 126 Q687 53 623.5 16.5 Q560 -20 481 -20 Q403 -20 338.5 16.5 Q274 53 228.5 126 Q183 199 158 309.5 Q133 420 133 567 L133 889 Z M667 891 Q667 1126 619.5 1232 Q572 1338 479 1338 Q433 1338 398 1312 Q363 1286 339 1231.5 Q315 1177 303 1092.5 Q291 1008 291 891 L291 567 Q291 449 303.5 363.5 Q316 278 340 223.5 Q364 169 399.5 143 Q435 117 481 117 Q527 117 562 143 Q597 169 620 223.5 Q643 278 655 363.5 Q667 449 667 567 L667 891 Z " />
<g transform="translate(124,326)" >
<path fill="black" d="M141 1257 Q141 1308 150.5 1350.5 Q160 1393 177.5 1423.5 Q195 1454 218.5 1470.5 Q242 1487 270 1487 Q294 1487 313.5 1471 Q333 1455 351 1436.5 Q369 1418 388 1402 Q407 1386 429 1386 Q450 1386 465 1419 Q480 1452 480 1503 L570 1494 Q570 1442 560.5 1400 Q551 1358 533.5 1328 Q516 1298 492.5 1281.5 Q469 1265 441 1265 Q413 1265 393 1281 Q373 1297 356.5 1316 Q340 1335 323 1351 Q306 1367 283 1367 Q261 1367 246.5 1335.5 Q232 1304 232 1253 L141 1257 Z " />
</g>
</glyph>
<glyph glyph-name="Odieresis" unicode="&#xd6;" horiz-adv-x="961" >
<path fill="black" d="M133 889 Q133 1036 157.5 1146 Q182 1256 227.5 1329.5 Q273 1403 337 1439.5 Q401 1476 479 1476 Q559 1476 623 1439.5 Q687 1403 732 1329.5 Q777 1256 801.5 1146 Q826 1036 826 889 L826 567 Q826 420 801.5 309.5 Q777 199 732 126 Q687 53 623.5 16.5 Q560 -20 481 -20 Q403 -20 338.5 16.5 Q274 53 228.5 126 Q183 199 158 309.5 Q133 420 133 567 L133 889 Z M667 891 Q667 1126 619.5 1232 Q572 1338 479 1338 Q433 1338 398 1312 Q363 1286 339 1231.5 Q315 1177 303 1092.5 Q291 1008 291 891 L291 567 Q291 449 303.5 363.5 Q316 278 340 223.5 Q364 169 399.5 143 Q435 117 481 117 Q527 117 562 143 Q597 169 620 223.5 Q643 278 655 363.5 Q667 449 667 567 L667 891 Z " />
<g transform="translate(552,322)" >
<path fill="black" d="M-266 1289 Q-307 1289 -330 1316 Q-353 1343 -353 1383 Q-353 1422 -330 1449.5 Q-307 1477 -266 1477 Q-226 1477 -203 1449.5 Q-180 1422 -180 1383 Q-180 1343 -203 1316 Q-226 1289 -266 1289 Z " />
</g>
<g transform="translate(898,320)" >
<path fill="black" d="M-266 1289 Q-307 1289 -330 1316 Q-353 1343 -353 1383 Q-353 1422 -330 1449.5 Q-307 1477 -266 1477 Q-226 1477 -203 1449.5 Q-180 1422 -180 1383 Q-180 1343 -203 1316 Q-226 1289 -266 1289 Z " />
</g>
</glyph>
<glyph glyph-name="multiply" unicode="&#xd7;" horiz-adv-x="774" d="M112 259 L310 606 L113 951 L204 1054 L384 737 L565 1054 L656 951 L459 605 L656 259 L565 157 L385 474 L204 157 L112 259 Z " />
<glyph glyph-name="Oslash" unicode="&#xd8;" horiz-adv-x="1272" d="M237 133 Q193 207 169.5 314.5 Q146 422 146 567 L146 889 Q146 1036 170.5 1146 Q195 1256 240.5 1329.5 Q286 1403 350 1439.5 Q414 1476 492 1476 Q605 1476 684 1404 L721 1511 L823 1511 L754 1314 Q796 1240 817.5 1134.5 Q839 1029 839 889 L839 567 Q839 420 814.5 309.5 Q790 199 745 126 Q700 53 636.5 16.5 Q573 -20 494 -20 Q386 -20 309 47 L261 -89 L159 -89 L237 133 Z M627 1244 Q581 1338 492 1338 Q446 1338 411 1312 Q376 1286 352 1231.5 Q328 1177 316 1092.5 Q304 1008 304 891 L304 567 Q304 507 307 455.5 Q310 404 317 360 L627 1244 Z M363 202 Q410 117 494 117 Q540 117 575 143 Q610 169 633 223.5 Q656 278 668 363.5 Q680 449 680 567 L680 891 Q680 945 677.5 990.5 Q675 1036 670 1076 L363 202 Z " />
<glyph glyph-name="Ugrave" unicode="&#xd9;" horiz-adv-x="921" >
<path fill="black" d="M141 1456 L299 1456 L299 421 Q299 331 310.5 271 Q322 211 343 175.5 Q364 140 394 125.5 Q424 111 461 111 Q499 111 528.5 125.5 Q558 140 578.5 175.5 Q599 211 610 271 Q621 331 621 421 L621 1456 L780 1456 L780 421 Q780 298 755.5 213.5 Q731 129 688 77.5 Q645 26 587 3 Q529 -20 461 -20 Q392 -20 333 3 Q274 26 231.5 77.5 Q189 129 165 213.5 Q141 298 141 421 L141 1456 Z " />
<g transform="translate(115,313)" >
<path fill="black" d="M272 1249 L82 1536 L262 1536 L407 1249 L272 1249 Z " />
</g>
</glyph>
<glyph glyph-name="Uacute" unicode="&#xda;" horiz-adv-x="921" >
<path fill="black" d="M141 1456 L299 1456 L299 421 Q299 331 310.5 271 Q322 211 343 175.5 Q364 140 394 125.5 Q424 111 461 111 Q499 111 528.5 125.5 Q558 140 578.5 175.5 Q599 211 610 271 Q621 331 621 421 L621 1456 L780 1456 L780 421 Q780 298 755.5 213.5 Q731 129 688 77.5 Q645 26 587 3 Q529 -20 461 -20 Q392 -20 333 3 Q274 26 231.5 77.5 Q189 129 165 213.5 Q141 298 141 421 L141 1456 Z " />
<g transform="translate(244,313)" >
<path fill="black" d="M278 1536 L459 1536 L267 1249 L134 1249 L278 1536 Z " />
</g>
</glyph>
<glyph glyph-name="Ucircumflex" unicode="&#xdb;" horiz-adv-x="921" >
<path fill="black" d="M141 1456 L299 1456 L299 421 Q299 331 310.5 271 Q322 211 343 175.5 Q364 140 394 125.5 Q424 111 461 111 Q499 111 528.5 125.5 Q558 140 578.5 175.5 Q599 211 610 271 Q621 331 621 421 L621 1456 L780 1456 L780 421 Q780 298 755.5 213.5 Q731 129 688 77.5 Q645 26 587 3 Q529 -20 461 -20 Q392 -20 333 3 Q274 26 231.5 77.5 Q189 129 165 213.5 Q141 298 141 421 L141 1456 Z " />
<g transform="translate(101,313)" >
<path fill="black" d="M150 1268 L313 1532 L402 1532 L568 1266 L568 1256 L447 1256 L358 1431 L270 1256 L150 1256 L150 1268 Z " />
</g>
</glyph>
<glyph glyph-name="Udieresis" unicode="&#xdc;" horiz-adv-x="921" >
<path fill="black" d="M141 1456 L299 1456 L299 421 Q299 331 310.5 271 Q322 211 343 175.5 Q364 140 394 125.5 Q424 111 461 111 Q499 111 528.5 125.5 Q558 140 578.5 175.5 Q599 211 610 271 Q621 331 621 421 L621 1456 L780 1456 L780 421 Q780 298 755.5 213.5 Q731 129 688 77.5 Q645 26 587 3 Q529 -20 461 -20 Q392 -20 333 3 Q274 26 231.5 77.5 Q189 129 165 213.5 Q141 298 141 421 L141 1456 Z " />
<g transform="translate(531,315)" >
<path fill="black" d="M-266 1289 Q-307 1289 -330 1316 Q-353 1343 -353 1383 Q-353 1422 -330 1449.5 Q-307 1477 -266 1477 Q-226 1477 -203 1449.5 Q-180 1422 -180 1383 Q-180 1343 -203 1316 Q-226 1289 -266 1289 Z " />
</g>
<g transform="translate(877,313)" >
<path fill="black" d="M-266 1289 Q-307 1289 -330 1316 Q-353 1343 -353 1383 Q-353 1422 -330 1449.5 Q-307 1477 -266 1477 Q-226 1477 -203 1449.5 Q-180 1422 -180 1383 Q-180 1343 -203 1316 Q-226 1289 -266 1289 Z " />
</g>
</glyph>
<glyph glyph-name="Yacute" unicode="&#xdd;" horiz-adv-x="869" >
<path fill="black" d="M355 546 L73 1456 L248 1456 L434 695 L621 1456 L795 1456 L514 546 L514 0 L355 0 L355 546 Z " />
<g transform="translate(222,309)" >
<path fill="black" d="M278 1536 L459 1536 L267 1249 L134 1249 L278 1536 Z " />
</g>
</glyph>
<glyph glyph-name="Thorn" unicode="&#xde;" horiz-adv-x="859" d="M153 1456 L305 1456 L305 1159 L442 1159 Q516 1159 573 1127 Q630 1095 668.5 1039 Q707 983 727 905.5 Q747 828 747 738 Q747 648 727 571 Q707 494 668.5 437.5 Q630 381 573 349.5 Q516 318 442 318 L305 318 L305 0 L153 0 L153 1456 Z M442 447 Q483 447 512 472 Q541 497 559 538 Q577 579 585.5 631 Q594 683 594 736 Q594 792 585.5 844.5 Q577 897 559 938.5 Q541 980 512 1005 Q483 1030 442 1030 L306 1030 L305 1031 L305 447 L442 447 Z " />
<glyph glyph-name="germandbls" unicode="&#xdf;" horiz-adv-x="879" d="M150 0 L150 1120 Q150 1226 168.5 1306.5 Q187 1387 221 1441 Q255 1495 303.5 1522.5 Q352 1550 412 1550 Q462 1550 505.5 1530 Q549 1510 581 1469.5 Q613 1429 631.5 1368 Q650 1307 650 1226 Q650 1148 639.5 1097 Q629 1046 617 1004 Q605 962 594.5 920.5 Q584 879 584 822 Q584 775 597.5 737 Q611 699 631.5 664.5 Q652 630 675.5 595 Q699 560 719.5 519.5 Q740 479 753.5 428.5 Q767 378 767 313 Q767 144 701.5 62 Q636 -20 518 -20 Q495 -20 471 -14 Q447 -8 424.5 3 Q402 14 383.5 27.5 Q365 41 353 56 L383 185 Q392 173 405.5 159.5 Q419 146 436 134.5 Q453 123 472 115.5 Q491 108 512 108 Q538 108 557.5 123.5 Q577 139 589.5 166 Q602 193 608.5 229.5 Q615 266 615 308 Q615 358 601.5 397 Q588 436 568 471 Q548 506 524 541 Q500 576 480 616.5 Q460 657 446.5 707.5 Q433 758 433 824 Q433 889 443.5 935.5 Q454 982 467 1024.5 Q480 1067 490.5 1111 Q501 1155 501 1215 Q501 1315 474.5 1368 Q448 1421 406 1421 Q357 1421 329.5 1349.5 Q302 1278 302 1120 L302 0 L150 0 Z " />
<glyph glyph-name="agrave" unicode="&#xe0;" horiz-adv-x="782" >
<path fill="black" d="M511 0 Q503 23 498 55 Q493 87 491 122 Q479 94 463 68 Q447 42 427.5 22.5 Q408 3 384 -8.5 Q360 -20 331 -20 Q285 -20 245.5 -1.5 Q206 17 177.5 55 Q149 93 133 151 Q117 209 117 288 Q117 363 134.5 428 Q152 493 188 541 Q224 589 280 616.5 Q336 644 412 644 L488 644 L488 784 Q488 837 481.5 873.5 Q475 910 463 932 Q451 954 432.5 963.5 Q414 973 390 973 Q364 973 344 958.5 Q324 944 310.5 918.5 Q297 893 290 858 Q283 823 283 782 L131 783 Q131 844 149.5 901.5 Q168 959 202 1003.5 Q236 1048 285 1075 Q334 1102 394 1102 Q448 1102 493 1085.5 Q538 1069 571 1031.5 Q604 994 622.5 932.5 Q641 871 641 782 L641 232 Q641 205 642.5 175 Q644 145 647 116.5 Q650 88 654.5 61.5 Q659 35 665 15 L665 0 L511 0 Z M488 531 L422 531 Q346 531 308 470.5 Q270 410 270 304 Q270 250 276 213.5 Q282 177 294 155.5 Q306 134 323 124.5 Q340 115 362 115 Q385 115 405 126 Q425 137 441 155 Q457 173 469 197 Q481 221 488 248 L488 531 Z " />
<g transform="translate(52,-1)" >
<path fill="black" d="M272 1249 L82 1536 L262 1536 L407 1249 L272 1249 Z " />
</g>
</glyph>
<glyph glyph-name="aacute" unicode="&#xe1;" horiz-adv-x="782" >
<path fill="black" d="M511 0 Q503 23 498 55 Q493 87 491 122 Q479 94 463 68 Q447 42 427.5 22.5 Q408 3 384 -8.5 Q360 -20 331 -20 Q285 -20 245.5 -1.5 Q206 17 177.5 55 Q149 93 133 151 Q117 209 117 288 Q117 363 134.5 428 Q152 493 188 541 Q224 589 280 616.5 Q336 644 412 644 L488 644 L488 784 Q488 837 481.5 873.5 Q475 910 463 932 Q451 954 432.5 963.5 Q414 973 390 973 Q364 973 344 958.5 Q324 944 310.5 918.5 Q297 893 290 858 Q283 823 283 782 L131 783 Q131 844 149.5 901.5 Q168 959 202 1003.5 Q236 1048 285 1075 Q334 1102 394 1102 Q448 1102 493 1085.5 Q538 1069 571 1031.5 Q604 994 622.5 932.5 Q641 871 641 782 L641 232 Q641 205 642.5 175 Q644 145 647 116.5 Q650 88 654.5 61.5 Q659 35 665 15 L665 0 L511 0 Z M488 531 L422 531 Q346 531 308 470.5 Q270 410 270 304 Q270 250 276 213.5 Q282 177 294 155.5 Q306 134 323 124.5 Q340 115 362 115 Q385 115 405 126 Q425 137 441 155 Q457 173 469 197 Q481 221 488 248 L488 531 Z " />
<g transform="translate(181,-1)" >
<path fill="black" d="M278 1536 L459 1536 L267 1249 L134 1249 L278 1536 Z " />
</g>
</glyph>
<glyph glyph-name="acircumflex" unicode="&#xe2;" horiz-adv-x="782" >
<path fill="black" d="M511 0 Q503 23 498 55 Q493 87 491 122 Q479 94 463 68 Q447 42 427.5 22.5 Q408 3 384 -8.5 Q360 -20 331 -20 Q285 -20 245.5 -1.5 Q206 17 177.5 55 Q149 93 133 151 Q117 209 117 288 Q117 363 134.5 428 Q152 493 188 541 Q224 589 280 616.5 Q336 644 412 644 L488 644 L488 784 Q488 837 481.5 873.5 Q475 910 463 932 Q451 954 432.5 963.5 Q414 973 390 973 Q364 973 344 958.5 Q324 944 310.5 918.5 Q297 893 290 858 Q283 823 283 782 L131 783 Q131 844 149.5 901.5 Q168 959 202 1003.5 Q236 1048 285 1075 Q334 1102 394 1102 Q448 1102 493 1085.5 Q538 1069 571 1031.5 Q604 994 622.5 932.5 Q641 871 641 782 L641 232 Q641 205 642.5 175 Q644 145 647 116.5 Q650 88 654.5 61.5 Q659 35 665 15 L665 0 L511 0 Z M488 531 L422 531 Q346 531 308 470.5 Q270 410 270 304 Q270 250 276 213.5 Q282 177 294 155.5 Q306 134 323 124.5 Q340 115 362 115 Q385 115 405 126 Q425 137 441 155 Q457 173 469 197 Q481 221 488 248 L488 531 Z " />
<g transform="translate(38,-1)" >
<path fill="black" d="M150 1268 L313 1532 L402 1532 L568 1266 L568 1256 L447 1256 L358 1431 L270 1256 L150 1256 L150 1268 Z " />
</g>
</glyph>
<glyph glyph-name="atilde" unicode="&#xe3;" horiz-adv-x="782" >
<path fill="black" d="M511 0 Q503 23 498 55 Q493 87 491 122 Q479 94 463 68 Q447 42 427.5 22.5 Q408 3 384 -8.5 Q360 -20 331 -20 Q285 -20 245.5 -1.5 Q206 17 177.5 55 Q149 93 133 151 Q117 209 117 288 Q117 363 134.5 428 Q152 493 188 541 Q224 589 280 616.5 Q336 644 412 644 L488 644 L488 784 Q488 837 481.5 873.5 Q475 910 463 932 Q451 954 432.5 963.5 Q414 973 390 973 Q364 973 344 958.5 Q324 944 310.5 918.5 Q297 893 290 858 Q283 823 283 782 L131 783 Q131 844 149.5 901.5 Q168 959 202 1003.5 Q236 1048 285 1075 Q334 1102 394 1102 Q448 1102 493 1085.5 Q538 1069 571 1031.5 Q604 994 622.5 932.5 Q641 871 641 782 L641 232 Q641 205 642.5 175 Q644 145 647 116.5 Q650 88 654.5 61.5 Q659 35 665 15 L665 0 L511 0 Z M488 531 L422 531 Q346 531 308 470.5 Q270 410 270 304 Q270 250 276 213.5 Q282 177 294 155.5 Q306 134 323 124.5 Q340 115 362 115 Q385 115 405 126 Q425 137 441 155 Q457 173 469 197 Q481 221 488 248 L488 531 Z " />
<g transform="translate(40,5)" >
<path fill="black" d="M141 1257 Q141 1308 150.5 1350.5 Q160 1393 177.5 1423.5 Q195 1454 218.5 1470.5 Q242 1487 270 1487 Q294 1487 313.5 1471 Q333 1455 351 1436.5 Q369 1418 388 1402 Q407 1386 429 1386 Q450 1386 465 1419 Q480 1452 480 1503 L570 1494 Q570 1442 560.5 1400 Q551 1358 533.5 1328 Q516 1298 492.5 1281.5 Q469 1265 441 1265 Q413 1265 393 1281 Q373 1297 356.5 1316 Q340 1335 323 1351 Q306 1367 283 1367 Q261 1367 246.5 1335.5 Q232 1304 232 1253 L141 1257 Z " />
</g>
</glyph>
<glyph glyph-name="adieresis" unicode="&#xe4;" horiz-adv-x="782" d="M511 0 Q503 23 498 55 Q493 87 491 122 Q479 94 463 68 Q447 42 427.5 22.5 Q408 3 384 -8.5 Q360 -20 331 -20 Q285 -20 245.5 -1.5 Q206 17 177.5 55 Q149 93 133 151 Q117 209 117 288 Q117 363 134.5 428 Q152 493 188 541 Q224 589 280 616.5 Q336 644 412 644 L488 644 L488 784 Q488 837 481.5 873.5 Q475 910 463 932 Q451 954 432.5 963.5 Q414 973 390 973 Q364 973 344 958.5 Q324 944 310.5 918.5 Q297 893 290 858 Q283 823 283 782 L131 783 Q131 844 149.5 901.5 Q168 959 202 1003.5 Q236 1048 285 1075 Q334 1102 394 1102 Q448 1102 493 1085.5 Q538 1069 571 1031.5 Q604 994 622.5 932.5 Q641 871 641 782 L641 232 Q641 205 642.5 175 Q644 145 647 116.5 Q650 88 654.5 61.5 Q659 35 665 15 L665 0 L511 0 Z M488 531 L422 531 Q346 531 308 470.5 Q270 410 270 304 Q270 250 276 213.5 Q282 177 294 155.5 Q306 134 323 124.5 Q340 115 362 115 Q385 115 405 126 Q425 137 441 155 Q457 173 469 197 Q481 221 488 248 L488 531 Z M547 1288 Q507 1288 484 1314.5 Q461 1341 461 1382 Q461 1420 484 1447 Q507 1474 547 1474 Q587 1474 610.5 1447 Q634 1420 634 1382 Q634 1341 610.5 1314.5 Q587 1288 547 1288 Z M201 1290 Q161 1290 138 1316.5 Q115 1343 115 1384 Q115 1422 138 1449 Q161 1476 201 1476 Q241 1476 264.5 1449 Q288 1422 288 1384 Q288 1343 264.5 1316.5 Q241 1290 201 1290 Z " />
<glyph glyph-name="aring" unicode="&#xe5;" horiz-adv-x="782" d="M511 0 Q503 23 498 55 Q493 87 491 122 Q479 94 463 68 Q447 42 427.5 22.5 Q408 3 384 -8.5 Q360 -20 331 -20 Q285 -20 245.5 -1.5 Q206 17 177.5 55 Q149 93 133 151 Q117 209 117 288 Q117 363 134.5 428 Q152 493 188 541 Q224 589 280 616.5 Q336 644 412 644 L488 644 L488 784 Q488 837 481.5 873.5 Q475 910 463 932 Q451 954 432.5 963.5 Q414 973 390 973 Q364 973 344 958.5 Q324 944 310.5 918.5 Q297 893 290 858 Q283 823 283 782 L131 783 Q131 844 149.5 901.5 Q168 959 202 1003.5 Q236 1048 285 1075 Q334 1102 394 1102 Q448 1102 493 1085.5 Q538 1069 571 1031.5 Q604 994 622.5 932.5 Q641 871 641 782 L641 232 Q641 205 642.5 175 Q644 145 647 116.5 Q650 88 654.5 61.5 Q659 35 665 15 L665 0 L511 0 Z M398 1214 Q364 1214 336 1229 Q308 1244 287.5 1270 Q267 1296 256 1332 Q245 1368 245 1410 Q245 1452 256 1488.5 Q267 1525 287.5 1552 Q308 1579 336 1594.5 Q364 1610 398 1610 Q431 1610 458.5 1594.5 Q486 1579 506.5 1552 Q527 1525 538 1488.5 Q549 1452 549 1410 Q549 1368 538 1332 Q527 1296 506.5 1270 Q486 1244 458.5 1229 Q431 1214 398 1214 Z M488 531 L422 531 Q346 531 308 470.5 Q270 410 270 304 Q270 250 276 213.5 Q282 177 294 155.5 Q306 134 323 124.5 Q340 115 362 115 Q385 115 405 126 Q425 137 441 155 Q457 173 469 197 Q481 221 488 248 L488 531 Z M398 1294 Q435 1294 455 1328 Q475 1362 475 1410 Q475 1434 470 1455.5 Q465 1477 455 1493.5 Q445 1510 430.5 1519.5 Q416 1529 398 1529 Q379 1529 364.5 1519.5 Q350 1510 340 1493.5 Q330 1477 324.5 1455.5 Q319 1434 319 1410 Q319 1387 324.5 1366 Q330 1345 340 1329 Q350 1313 364.5 1303.5 Q379 1294 398 1294 Z " />
<glyph glyph-name="ae" unicode="&#xe6;" horiz-adv-x="1144" d="M494 635 L494 720 Q494 840 468.5 906.5 Q443 973 395 973 Q368 973 347 956.5 Q326 940 311.5 911.5 Q297 883 289.5 845 Q282 807 282 763 L130 778 Q130 848 149 907.5 Q168 967 202.5 1010 Q237 1053 286.5 1077.5 Q336 1102 396 1102 Q459 1102 508 1071.5 Q557 1041 589 981 Q625 1039 672.5 1070.5 Q720 1102 779 1102 Q842 1102 890.5 1069 Q939 1036 972.5 974 Q1006 912 1023.5 824.5 Q1041 737 1041 627 L1041 516 L643 516 Q643 431 652.5 357 Q662 283 682 227.5 Q702 172 733.5 140 Q765 108 808 108 Q840 108 865 118 Q890 128 911 144 Q932 160 949.5 180 Q967 200 983 220 L1026 106 Q1013 90 991.5 68 Q970 46 940.5 26 Q911 6 874.5 -7.5 Q838 -21 796 -21 Q721 -21 664.5 21.5 Q608 64 570 140 Q554 109 531.5 80 Q509 51 480 28.5 Q451 6 414.5 -7.5 Q378 -21 334 -21 Q280 -21 238.5 2 Q197 25 168.5 67 Q140 109 125 168 Q110 227 110 300 Q110 457 181.5 546 Q253 635 389 635 L494 635 Z M494 514 L391 514 Q360 514 335.5 496.5 Q311 479 295 449 Q279 419 270.5 379.5 Q262 340 262 296 Q262 255 268 220.5 Q274 186 287 161 Q300 136 319 122 Q338 108 364 108 Q382 108 400 117 Q418 126 435 141.5 Q452 157 467 177.5 Q482 198 494 220 L494 514 Z M891 639 L891 670 Q891 732 885 787.5 Q879 843 865.5 884 Q852 925 830.5 949 Q809 973 779 973 Q748 973 724 947.5 Q700 922 683.5 877.5 Q667 833 657.5 772 Q648 711 645 639 L891 639 Z " />
<glyph glyph-name="ccedilla" unicode="&#xe7;" horiz-adv-x="762" d="M328 -352 Q360 -352 380.5 -327 Q401 -302 401 -243 Q401 -190 381.5 -169.5 Q362 -149 315 -141 L334 -13 Q112 41 112 470 L112 612 Q112 1102 400 1102 Q457 1102 504.5 1078 Q552 1054 586 1006 Q620 958 639 885 Q658 812 659 714 L514 714 Q513 854 483 913.5 Q453 973 397 973 Q357 973 331.5 950 Q306 927 291 881 Q276 835 270.5 768 Q265 701 265 612 L265 470 Q265 381 270.5 313.5 Q276 246 290.5 200.5 Q305 155 331 132 Q357 109 398 109 Q423 109 444 120 Q465 131 480 157 Q495 183 504 227.5 Q513 272 514 338 L659 338 Q658 261 641.5 199.5 Q625 138 596.5 93.5 Q568 49 529.5 21.5 Q491 -6 446 -15 L440 -68 Q456 -73 471.5 -84 Q487 -95 499.5 -115 Q512 -135 519.5 -166 Q527 -197 527 -240 Q527 -332 478 -388.5 Q429 -445 332 -445 L328 -352 Z " />
<glyph glyph-name="egrave" unicode="&#xe8;" horiz-adv-x="782" >
<path fill="black" d="M116 600 Q116 742 137 838 Q158 934 196 992.5 Q234 1051 287 1076.5 Q340 1102 404 1102 Q540 1102 608.5 983 Q677 864 677 614 L677 510 L268 510 L268 457 Q268 362 279 295.5 Q290 229 311 187.5 Q332 146 362 127 Q392 108 431 108 Q487 108 529 138.5 Q571 169 603 223 L663 123 Q648 95 626 69 Q604 43 574 23.5 Q544 4 506 -8 Q468 -20 421 -20 Q350 -20 293.5 6.5 Q237 33 197.5 91 Q158 149 137 239.5 Q116 330 116 457 L116 600 Z M525 638 L525 668 Q523 813 495.5 893 Q468 973 403 973 Q371 973 346.5 958 Q322 943 305 905 Q288 867 279 802.5 Q270 738 268 638 L525 638 Z " />
<g transform="translate(45,-1)" >
<path fill="black" d="M272 1249 L82 1536 L262 1536 L407 1249 L272 1249 Z " />
</g>
</glyph>
<glyph glyph-name="eacute" unicode="&#xe9;" horiz-adv-x="782" >
<path fill="black" d="M116 600 Q116 742 137 838 Q158 934 196 992.5 Q234 1051 287 1076.5 Q340 1102 404 1102 Q540 1102 608.5 983 Q677 864 677 614 L677 510 L268 510 L268 457 Q268 362 279 295.5 Q290 229 311 187.5 Q332 146 362 127 Q392 108 431 108 Q487 108 529 138.5 Q571 169 603 223 L663 123 Q648 95 626 69 Q604 43 574 23.5 Q544 4 506 -8 Q468 -20 421 -20 Q350 -20 293.5 6.5 Q237 33 197.5 91 Q158 149 137 239.5 Q116 330 116 457 L116 600 Z M525 638 L525 668 Q523 813 495.5 893 Q468 973 403 973 Q371 973 346.5 958 Q322 943 305 905 Q288 867 279 802.5 Q270 738 268 638 L525 638 Z " />
<g transform="translate(174,-1)" >
<path fill="black" d="M278 1536 L459 1536 L267 1249 L134 1249 L278 1536 Z " />
</g>
</glyph>
<glyph glyph-name="ecircumflex" unicode="&#xea;" horiz-adv-x="782" >
<path fill="black" d="M116 600 Q116 742 137 838 Q158 934 196 992.5 Q234 1051 287 1076.5 Q340 1102 404 1102 Q540 1102 608.5 983 Q677 864 677 614 L677 510 L268 510 L268 457 Q268 362 279 295.5 Q290 229 311 187.5 Q332 146 362 127 Q392 108 431 108 Q487 108 529 138.5 Q571 169 603 223 L663 123 Q648 95 626 69 Q604 43 574 23.5 Q544 4 506 -8 Q468 -20 421 -20 Q350 -20 293.5 6.5 Q237 33 197.5 91 Q158 149 137 239.5 Q116 330 116 457 L116 600 Z M525 638 L525 668 Q523 813 495.5 893 Q468 973 403 973 Q371 973 346.5 958 Q322 943 305 905 Q288 867 279 802.5 Q270 738 268 638 L525 638 Z " />
<g transform="translate(31,-1)" >
<path fill="black" d="M150 1268 L313 1532 L402 1532 L568 1266 L568 1256 L447 1256 L358 1431 L270 1256 L150 1256 L150 1268 Z " />
</g>
</glyph>
<glyph glyph-name="edieresis" unicode="&#xeb;" horiz-adv-x="782" d="M116 600 Q116 742 137 838 Q158 934 196 992.5 Q234 1051 287 1076.5 Q340 1102 404 1102 Q540 1102 608.5 983 Q677 864 677 614 L677 510 L268 510 L268 457 Q268 362 279 295.5 Q290 229 311 187.5 Q332 146 362 127 Q392 108 431 108 Q487 108 529 138.5 Q571 169 603 223 L663 123 Q648 95 626 69 Q604 43 574 23.5 Q544 4 506 -8 Q468 -20 421 -20 Q350 -20 293.5 6.5 Q237 33 197.5 91 Q158 149 137 239.5 Q116 330 116 457 L116 600 Z M525 638 L525 668 Q523 813 495.5 893 Q468 973 403 973 Q371 973 346.5 958 Q322 943 305 905 Q288 867 279 802.5 Q270 738 268 638 L525 638 Z M540 1288 Q500 1288 477 1314.5 Q454 1341 454 1382 Q454 1420 477 1447 Q500 1474 540 1474 Q580 1474 603.5 1447 Q627 1420 627 1382 Q627 1341 603.5 1314.5 Q580 1288 540 1288 Z M194 1290 Q154 1290 131 1316.5 Q108 1343 108 1384 Q108 1422 131 1449 Q154 1476 194 1476 Q234 1476 257.5 1449 Q281 1422 281 1384 Q281 1343 257.5 1316.5 Q234 1290 194 1290 Z " />
<glyph glyph-name="igrave" unicode="&#xec;" horiz-adv-x="458" >
<path fill="black" d="M151 0 L151 1082 L305 1082 L305 0 L151 0 Z " />
<g transform="translate(-115,-7)" >
<path fill="black" d="M272 1249 L82 1536 L262 1536 L407 1249 L272 1249 Z " />
</g>
</glyph>
<glyph glyph-name="iacute" unicode="&#xed;" horiz-adv-x="458" >
<path fill="black" d="M151 0 L151 1082 L305 1082 L305 0 L151 0 Z " />
<g transform="translate(14,-7)" >
<path fill="black" d="M278 1536 L459 1536 L267 1249 L134 1249 L278 1536 Z " />
</g>
</glyph>
<glyph glyph-name="icircumflex" unicode="&#xee;" horiz-adv-x="458" >
<path fill="black" d="M151 0 L151 1082 L305 1082 L305 0 L151 0 Z " />
<g transform="translate(-129,-7)" >
<path fill="black" d="M150 1268 L313 1532 L402 1532 L568 1266 L568 1256 L447 1256 L358 1431 L270 1256 L150 1256 L150 1268 Z " />
</g>
</glyph>
<glyph glyph-name="idieresis" unicode="&#xef;" horiz-adv-x="458" >
<path fill="black" d="M151 0 L151 1082 L305 1082 L305 0 L151 0 Z " />
<g transform="translate(301,-5)" >
<path fill="black" d="M-266 1289 Q-307 1289 -330 1316 Q-353 1343 -353 1383 Q-353 1422 -330 1449.5 Q-307 1477 -266 1477 Q-226 1477 -203 1449.5 Q-180 1422 -180 1383 Q-180 1343 -203 1316 Q-226 1289 -266 1289 Z " />
</g>
<g transform="translate(647,-7)" >
<path fill="black" d="M-266 1289 Q-307 1289 -330 1316 Q-353 1343 -353 1383 Q-353 1422 -330 1449.5 Q-307 1477 -266 1477 Q-226 1477 -203 1449.5 Q-180 1422 -180 1383 Q-180 1343 -203 1316 Q-226 1289 -266 1289 Z " />
</g>
</glyph>
<glyph glyph-name="eth" unicode="&#xf0;" horiz-adv-x="829" d="M706 535 Q706 412 684 309.5 Q662 207 623 134 Q584 61 530 20.5 Q476 -20 413 -20 Q349 -20 296 18 Q243 56 205 122 Q167 188 146 276.5 Q125 365 125 467 Q125 583 143.5 676.5 Q162 770 196 836 Q230 902 278.5 937.5 Q327 973 387 973 Q431 973 468.5 949.5 Q506 926 537 885 Q522 982 497 1060 Q472 1138 440 1201 L319 1074 L275 1162 L390 1283 Q349 1340 303.5 1380 Q258 1420 209 1447 L256 1580 Q391 1521 492 1391 L599 1503 L644 1416 L546 1313 Q621 1187 663.5 1016.5 Q706 846 706 629 L706 535 Z M416 110 Q449 110 474.5 142 Q500 174 518 231 Q536 288 545 366 Q554 444 554 535 L554 631 Q554 653 553.5 673.5 Q553 694 552 714 Q544 740 531.5 763.5 Q519 787 503 804.5 Q487 822 467 832.5 Q447 843 423 843 Q388 843 361 816 Q334 789 315.5 739.5 Q297 690 287.5 620.5 Q278 551 278 467 Q278 401 287 337 Q296 273 313.5 222.5 Q331 172 357 141 Q383 110 416 110 Z " />
<glyph glyph-name="ntilde" unicode="&#xf1;" horiz-adv-x="805" >
<path fill="black" d="M137 1082 L281 1082 L286 957 Q319 1025 365 1063.5 Q411 1102 468 1102 Q513 1102 549.5 1080.5 Q586 1059 612.5 1011.5 Q639 964 653 889 Q667 814 667 707 L667 0 L515 0 L515 709 Q515 782 508 832 Q501 882 487.5 913 Q474 944 454 957.5 Q434 971 408 971 Q368 971 338 925 Q308 879 290 809 L290 0 L137 0 L137 1082 Z " />
<g transform="translate(49,5)" >
<path fill="black" d="M141 1257 Q141 1308 150.5 1350.5 Q160 1393 177.5 1423.5 Q195 1454 218.5 1470.5 Q242 1487 270 1487 Q294 1487 313.5 1471 Q333 1455 351 1436.5 Q369 1418 388 1402 Q407 1386 429 1386 Q450 1386 465 1419 Q480 1452 480 1503 L570 1494 Q570 1442 560.5 1400 Q551 1358 533.5 1328 Q516 1298 492.5 1281.5 Q469 1265 441 1265 Q413 1265 393 1281 Q373 1297 356.5 1316 Q340 1335 323 1351 Q306 1367 283 1367 Q261 1367 246.5 1335.5 Q232 1304 232 1253 L141 1257 Z " />
</g>
</glyph>
<glyph glyph-name="ograve" unicode="&#xf2;" horiz-adv-x="815" >
<path fill="black" d="M116 605 Q116 732 137.5 825.5 Q159 919 197.5 980.5 Q236 1042 289.5 1072 Q343 1102 406 1102 Q470 1102 523.5 1072 Q577 1042 616 980.5 Q655 919 676.5 825.5 Q698 732 698 605 L698 477 Q698 350 676.5 256.5 Q655 163 616.5 101.5 Q578 40 524.5 10 Q471 -20 408 -20 Q344 -20 290.5 10 Q237 40 198 101.5 Q159 163 137.5 256.5 Q116 350 116 477 L116 605 Z M545 605 Q545 790 507 881.5 Q469 973 406 973 Q346 973 307.5 881.5 Q269 790 269 605 L269 477 Q269 290 308 199.5 Q347 109 408 109 Q477 109 511 199 Q545 289 545 477 L545 605 Z " />
<g transform="translate(60,-1)" >
<path fill="black" d="M272 1249 L82 1536 L262 1536 L407 1249 L272 1249 Z " />
</g>
</glyph>
<glyph glyph-name="oacute" unicode="&#xf3;" horiz-adv-x="815" >
<path fill="black" d="M116 605 Q116 732 137.5 825.5 Q159 919 197.5 980.5 Q236 1042 289.5 1072 Q343 1102 406 1102 Q470 1102 523.5 1072 Q577 1042 616 980.5 Q655 919 676.5 825.5 Q698 732 698 605 L698 477 Q698 350 676.5 256.5 Q655 163 616.5 101.5 Q578 40 524.5 10 Q471 -20 408 -20 Q344 -20 290.5 10 Q237 40 198 101.5 Q159 163 137.5 256.5 Q116 350 116 477 L116 605 Z M545 605 Q545 790 507 881.5 Q469 973 406 973 Q346 973 307.5 881.5 Q269 790 269 605 L269 477 Q269 290 308 199.5 Q347 109 408 109 Q477 109 511 199 Q545 289 545 477 L545 605 Z " />
<g transform="translate(189,-1)" >
<path fill="black" d="M278 1536 L459 1536 L267 1249 L134 1249 L278 1536 Z " />
</g>
</glyph>
<glyph glyph-name="ocircumflex" unicode="&#xf4;" horiz-adv-x="815" >
<path fill="black" d="M116 605 Q116 732 137.5 825.5 Q159 919 197.5 980.5 Q236 1042 289.5 1072 Q343 1102 406 1102 Q470 1102 523.5 1072 Q577 1042 616 980.5 Q655 919 676.5 825.5 Q698 732 698 605 L698 477 Q698 350 676.5 256.5 Q655 163 616.5 101.5 Q578 40 524.5 10 Q471 -20 408 -20 Q344 -20 290.5 10 Q237 40 198 101.5 Q159 163 137.5 256.5 Q116 350 116 477 L116 605 Z M545 605 Q545 790 507 881.5 Q469 973 406 973 Q346 973 307.5 881.5 Q269 790 269 605 L269 477 Q269 290 308 199.5 Q347 109 408 109 Q477 109 511 199 Q545 289 545 477 L545 605 Z " />
<g transform="translate(46,-1)" >
<path fill="black" d="M150 1268 L313 1532 L402 1532 L568 1266 L568 1256 L447 1256 L358 1431 L270 1256 L150 1256 L150 1268 Z " />
</g>
</glyph>
<glyph glyph-name="otilde" unicode="&#xf5;" horiz-adv-x="815" >
<path fill="black" d="M116 605 Q116 732 137.5 825.5 Q159 919 197.5 980.5 Q236 1042 289.5 1072 Q343 1102 406 1102 Q470 1102 523.5 1072 Q577 1042 616 980.5 Q655 919 676.5 825.5 Q698 732 698 605 L698 477 Q698 350 676.5 256.5 Q655 163 616.5 101.5 Q578 40 524.5 10 Q471 -20 408 -20 Q344 -20 290.5 10 Q237 40 198 101.5 Q159 163 137.5 256.5 Q116 350 116 477 L116 605 Z M545 605 Q545 790 507 881.5 Q469 973 406 973 Q346 973 307.5 881.5 Q269 790 269 605 L269 477 Q269 290 308 199.5 Q347 109 408 109 Q477 109 511 199 Q545 289 545 477 L545 605 Z " />
<g transform="translate(48,5)" >
<path fill="black" d="M141 1257 Q141 1308 150.5 1350.5 Q160 1393 177.5 1423.5 Q195 1454 218.5 1470.5 Q242 1487 270 1487 Q294 1487 313.5 1471 Q333 1455 351 1436.5 Q369 1418 388 1402 Q407 1386 429 1386 Q450 1386 465 1419 Q480 1452 480 1503 L570 1494 Q570 1442 560.5 1400 Q551 1358 533.5 1328 Q516 1298 492.5 1281.5 Q469 1265 441 1265 Q413 1265 393 1281 Q373 1297 356.5 1316 Q340 1335 323 1351 Q306 1367 283 1367 Q261 1367 246.5 1335.5 Q232 1304 232 1253 L141 1257 Z " />
</g>
</glyph>
<glyph glyph-name="odieresis" unicode="&#xf6;" horiz-adv-x="815" >
<path fill="black" d="M116 605 Q116 732 137.5 825.5 Q159 919 197.5 980.5 Q236 1042 289.5 1072 Q343 1102 406 1102 Q470 1102 523.5 1072 Q577 1042 616 980.5 Q655 919 676.5 825.5 Q698 732 698 605 L698 477 Q698 350 676.5 256.5 Q655 163 616.5 101.5 Q578 40 524.5 10 Q471 -20 408 -20 Q344 -20 290.5 10 Q237 40 198 101.5 Q159 163 137.5 256.5 Q116 350 116 477 L116 605 Z M545 605 Q545 790 507 881.5 Q469 973 406 973 Q346 973 307.5 881.5 Q269 790 269 605 L269 477 Q269 290 308 199.5 Q347 109 408 109 Q477 109 511 199 Q545 289 545 477 L545 605 Z " />
<g transform="translate(476,1)" >
<path fill="black" d="M-266 1289 Q-307 1289 -330 1316 Q-353 1343 -353 1383 Q-353 1422 -330 1449.5 Q-307 1477 -266 1477 Q-226 1477 -203 1449.5 Q-180 1422 -180 1383 Q-180 1343 -203 1316 Q-226 1289 -266 1289 Z " />
</g>
<g transform="translate(822,-1)" >
<path fill="black" d="M-266 1289 Q-307 1289 -330 1316 Q-353 1343 -353 1383 Q-353 1422 -330 1449.5 Q-307 1477 -266 1477 Q-226 1477 -203 1449.5 Q-180 1422 -180 1383 Q-180 1343 -203 1316 Q-226 1289 -266 1289 Z " />
</g>
</glyph>
<glyph glyph-name="divide" unicode="&#xf7;" horiz-adv-x="819" d="M108 622 L108 773 L700 773 L700 622 L108 622 Z M406 190 Q365 190 341.5 217.5 Q318 245 318 286 Q318 328 341.5 356.5 Q365 385 406 385 Q447 385 470.5 356.5 Q494 328 494 286 Q494 245 470.5 217.5 Q447 190 406 190 Z M406 998 Q365 998 341.5 1025.5 Q318 1053 318 1094 Q318 1136 341.5 1164.5 Q365 1193 406 1193 Q447 1193 470.5 1164.5 Q494 1136 494 1094 Q494 1053 470.5 1025.5 Q447 998 406 998 Z " />
<glyph glyph-name="oslash" unicode="&#xf8;" horiz-adv-x="1071" d="M233 68 Q182 128 154 229.5 Q126 331 126 477 L126 605 Q126 732 147.5 825.5 Q169 919 207.5 980.5 Q246 1042 299.5 1072 Q353 1102 416 1102 Q471 1102 520 1079 L558 1212 L646 1212 L593 1024 Q647 965 677.5 861.5 Q708 758 708 605 L708 477 Q708 350 686.5 256.5 Q665 163 626.5 101.5 Q588 40 534.5 10 Q481 -20 418 -20 Q354 -20 304 8 L262 -138 L174 -138 L233 68 Z M344 151 Q376 109 418 109 Q487 109 521 199 Q555 289 555 477 L555 605 Q555 735 535 821 L344 151 Z M481 942 Q453 973 416 973 Q356 973 317.5 881.5 Q279 790 279 605 L279 477 Q279 364 294 284 L481 942 Z " />
<glyph glyph-name="ugrave" unicode="&#xf9;" horiz-adv-x="804" >
<path fill="black" d="M518 104 Q489 45 446 12.5 Q403 -20 344 -20 Q298 -20 259.5 2.5 Q221 25 193.5 74 Q166 123 151 200.5 Q136 278 136 387 L136 1082 L288 1082 L288 385 Q288 306 295.5 253.5 Q303 201 316 169.5 Q329 138 346.5 125.5 Q364 113 383 113 Q434 113 465 152 Q496 191 513 256 L513 1082 L667 1082 L667 0 L522 0 L518 104 Z " />
<g transform="translate(58,0)" >
<path fill="black" d="M272 1249 L82 1536 L262 1536 L407 1249 L272 1249 Z " />
</g>
</glyph>
<glyph glyph-name="uacute" unicode="&#xfa;" horiz-adv-x="804" >
<path fill="black" d="M518 104 Q489 45 446 12.5 Q403 -20 344 -20 Q298 -20 259.5 2.5 Q221 25 193.5 74 Q166 123 151 200.5 Q136 278 136 387 L136 1082 L288 1082 L288 385 Q288 306 295.5 253.5 Q303 201 316 169.5 Q329 138 346.5 125.5 Q364 113 383 113 Q434 113 465 152 Q496 191 513 256 L513 1082 L667 1082 L667 0 L522 0 L518 104 Z " />
<g transform="translate(187,0)" >
<path fill="black" d="M278 1536 L459 1536 L267 1249 L134 1249 L278 1536 Z " />
</g>
</glyph>
<glyph glyph-name="ucircumflex" unicode="&#xfb;" horiz-adv-x="804" >
<path fill="black" d="M518 104 Q489 45 446 12.5 Q403 -20 344 -20 Q298 -20 259.5 2.5 Q221 25 193.5 74 Q166 123 151 200.5 Q136 278 136 387 L136 1082 L288 1082 L288 385 Q288 306 295.5 253.5 Q303 201 316 169.5 Q329 138 346.5 125.5 Q364 113 383 113 Q434 113 465 152 Q496 191 513 256 L513 1082 L667 1082 L667 0 L522 0 L518 104 Z " />
<g transform="translate(44,0)" >
<path fill="black" d="M150 1268 L313 1532 L402 1532 L568 1266 L568 1256 L447 1256 L358 1431 L270 1256 L150 1256 L150 1268 Z " />
</g>
</glyph>
<glyph glyph-name="udieresis" unicode="&#xfc;" horiz-adv-x="804" d="M518 104 Q489 45 446 12.5 Q403 -20 344 -20 Q298 -20 259.5 2.5 Q221 25 193.5 74 Q166 123 151 200.5 Q136 278 136 387 L136 1082 L288 1082 L288 385 Q288 306 295.5 253.5 Q303 201 316 169.5 Q329 138 346.5 125.5 Q364 113 383 113 Q434 113 465 152 Q496 191 513 256 L513 1082 L667 1082 L667 0 L522 0 L518 104 Z M553 1289 Q513 1289 490 1315.5 Q467 1342 467 1383 Q467 1421 490 1448 Q513 1475 553 1475 Q593 1475 616.5 1448 Q640 1421 640 1383 Q640 1342 616.5 1315.5 Q593 1289 553 1289 Z M207 1291 Q167 1291 144 1317.5 Q121 1344 121 1385 Q121 1423 144 1450 Q167 1477 207 1477 Q247 1477 270.5 1450 Q294 1423 294 1385 Q294 1344 270.5 1317.5 Q247 1291 207 1291 Z " />
<glyph glyph-name="yacute" unicode="&#xfd;" horiz-adv-x="728" >
<path fill="black" d="M133 -297 Q138 -299 146.5 -300.5 Q155 -302 160 -302 Q185 -302 202.5 -291 Q220 -280 233 -257.5 Q246 -235 256.5 -200 Q267 -165 279 -116 L302 -20 L301 -21 L75 1082 L240 1082 L364 300 L490 1082 L653 1082 L401 -171 Q393 -210 379.5 -256 Q366 -302 343 -342.5 Q320 -383 286 -410 Q252 -437 204 -437 Q183 -437 166.5 -431.5 Q150 -426 133 -422 L133 -297 Z " />
<g transform="translate(156,0)" >
<path fill="black" d="M278 1536 L459 1536 L267 1249 L134 1249 L278 1536 Z " />
</g>
</glyph>
<glyph glyph-name="thorn" unicode="&#xfe;" horiz-adv-x="819" d="M142 1536 L294 1536 L294 1001 Q323 1050 362.5 1076 Q402 1102 453 1102 Q513 1102 558.5 1062.5 Q604 1023 635.5 951 Q667 879 683 777 Q699 675 699 550 L699 529 Q699 409 683 308 Q667 207 636 134.5 Q605 62 559.5 21 Q514 -20 455 -20 Q403 -20 363 5 Q323 30 294 77 L294 -416 L142 -416 L142 1536 Z M294 240 Q310 181 338.5 145 Q367 109 413 109 Q449 109 474.5 142 Q500 175 515.5 232 Q531 289 538.5 365.5 Q546 442 546 529 L546 550 Q546 637 538.5 714 Q531 791 514.5 848 Q498 905 473 938 Q448 971 412 971 Q368 971 339.5 929.5 Q311 888 294 826 L294 240 Z " />
<glyph glyph-name="ydieresis" unicode="&#xff;" horiz-adv-x="728" d="M133 -297 Q138 -299 146.5 -300.5 Q155 -302 160 -302 Q185 -302 202.5 -291 Q220 -280 233 -257.5 Q246 -235 256.5 -200 Q267 -165 279 -116 L302 -20 L301 -21 L75 1082 L240 1082 L364 300 L490 1082 L653 1082 L401 -171 Q393 -210 379.5 -256 Q366 -302 343 -342.5 Q320 -383 286 -410 Q252 -437 204 -437 Q183 -437 166.5 -431.5 Q150 -426 133 -422 L133 -297 Z M522 1289 Q482 1289 459 1315.5 Q436 1342 436 1383 Q436 1421 459 1448 Q482 1475 522 1475 Q562 1475 585.5 1448 Q609 1421 609 1383 Q609 1342 585.5 1315.5 Q562 1289 522 1289 Z M176 1291 Q136 1291 113 1317.5 Q90 1344 90 1385 Q90 1423 113 1450 Q136 1477 176 1477 Q216 1477 239.5 1450 Q263 1423 263 1385 Q263 1344 239.5 1317.5 Q216 1291 176 1291 Z " />
<glyph glyph-name="Amacron" unicode="&#x100;" horiz-adv-x="934" d="M396 1456 L539 1456 L857 0 L690 0 L618 394 L316 394 L244 0 L78 0 L396 1456 Z M594 526 L467 1226 L340 526 L594 526 Z M269 1765 L668 1765 L668 1643 L269 1643 L269 1765 Z " />
<glyph glyph-name="amacron" unicode="&#x101;" horiz-adv-x="782" d="M511 0 Q503 23 498 55 Q493 87 491 122 Q479 94 463 68 Q447 42 427.5 22.5 Q408 3 384 -8.5 Q360 -20 331 -20 Q285 -20 245.5 -1.5 Q206 17 177.5 55 Q149 93 133 151 Q117 209 117 288 Q117 363 134.5 428 Q152 493 188 541 Q224 589 280 616.5 Q336 644 412 644 L488 644 L488 784 Q488 837 481.5 873.5 Q475 910 463 932 Q451 954 432.5 963.5 Q414 973 390 973 Q364 973 344 958.5 Q324 944 310.5 918.5 Q297 893 290 858 Q283 823 283 782 L131 783 Q131 844 149.5 901.5 Q168 959 202 1003.5 Q236 1048 285 1075 Q334 1102 394 1102 Q448 1102 493 1085.5 Q538 1069 571 1031.5 Q604 994 622.5 932.5 Q641 871 641 782 L641 232 Q641 205 642.5 175 Q644 145 647 116.5 Q650 88 654.5 61.5 Q659 35 665 15 L665 0 L511 0 Z M488 531 L422 531 Q346 531 308 470.5 Q270 410 270 304 Q270 250 276 213.5 Q282 177 294 155.5 Q306 134 323 124.5 Q340 115 362 115 Q385 115 405 126 Q425 137 441 155 Q457 173 469 197 Q481 221 488 248 L488 531 Z M196 1451 L595 1451 L595 1329 L196 1329 L196 1451 Z " />
<glyph glyph-name="Abreve" unicode="&#x102;" horiz-adv-x="934" >
<path fill="black" d="M396 1456 L539 1456 L857 0 L690 0 L618 394 L316 394 L244 0 L78 0 L396 1456 Z M594 526 L467 1226 L340 526 L594 526 Z " />
<g transform="translate(92,314)" >
<path fill="black" d="M238 1493 Q238 1461 244.5 1432 Q251 1403 265 1381.5 Q279 1360 301.5 1347 Q324 1334 356 1334 Q388 1334 410.5 1347 Q433 1360 447 1381.5 Q461 1403 467.5 1432 Q474 1461 474 1493 L595 1493 Q595 1435 578.5 1386.5 Q562 1338 531 1303.5 Q500 1269 456 1250 Q412 1231 356 1231 Q301 1231 257 1250 Q213 1269 182 1303.5 Q151 1338 134.5 1386.5 Q118 1435 118 1493 L238 1493 Z " />
</g>
</glyph>
<glyph glyph-name="abreve" unicode="&#x103;" horiz-adv-x="782" >
<path fill="black" d="M511 0 Q503 23 498 55 Q493 87 491 122 Q479 94 463 68 Q447 42 427.5 22.5 Q408 3 384 -8.5 Q360 -20 331 -20 Q285 -20 245.5 -1.5 Q206 17 177.5 55 Q149 93 133 151 Q117 209 117 288 Q117 363 134.5 428 Q152 493 188 541 Q224 589 280 616.5 Q336 644 412 644 L488 644 L488 784 Q488 837 481.5 873.5 Q475 910 463 932 Q451 954 432.5 963.5 Q414 973 390 973 Q364 973 344 958.5 Q324 944 310.5 918.5 Q297 893 290 858 Q283 823 283 782 L131 783 Q131 844 149.5 901.5 Q168 959 202 1003.5 Q236 1048 285 1075 Q334 1102 394 1102 Q448 1102 493 1085.5 Q538 1069 571 1031.5 Q604 994 622.5 932.5 Q641 871 641 782 L641 232 Q641 205 642.5 175 Q644 145 647 116.5 Q650 88 654.5 61.5 Q659 35 665 15 L665 0 L511 0 Z M488 531 L422 531 Q346 531 308 470.5 Q270 410 270 304 Q270 250 276 213.5 Q282 177 294 155.5 Q306 134 323 124.5 Q340 115 362 115 Q385 115 405 126 Q425 137 441 155 Q457 173 469 197 Q481 221 488 248 L488 531 Z " />
<g transform="translate(19,0)" >
<path fill="black" d="M238 1493 Q238 1461 244.5 1432 Q251 1403 265 1381.5 Q279 1360 301.5 1347 Q324 1334 356 1334 Q388 1334 410.5 1347 Q433 1360 447 1381.5 Q461 1403 467.5 1432 Q474 1461 474 1493 L595 1493 Q595 1435 578.5 1386.5 Q562 1338 531 1303.5 Q500 1269 456 1250 Q412 1231 356 1231 Q301 1231 257 1250 Q213 1269 182 1303.5 Q151 1338 134.5 1386.5 Q118 1435 118 1493 L238 1493 Z " />
</g>
</glyph>
<glyph glyph-name="Aogonek" unicode="&#x104;" horiz-adv-x="934" d="M396 1456 L539 1456 L857 0 L816 0 Q774 -51 749 -106 Q724 -161 724 -227 Q724 -262 733 -284 Q742 -306 764 -306 Q781 -306 793 -295.5 Q805 -285 813 -277 L828 -381 Q814 -396 790.5 -410.5 Q767 -425 732 -425 Q680 -425 643 -379 Q606 -333 606 -244 Q606 -180 625.5 -117.5 Q645 -55 693 0 L690 0 L618 394 L316 394 L244 0 L78 0 L396 1456 Z M594 526 L467 1226 L340 526 L594 526 Z " />
<glyph glyph-name="aogonek" unicode="&#x105;" horiz-adv-x="782" d="M651 -381 Q637 -396 613.5 -410.5 Q590 -425 555 -425 Q503 -425 466 -379 Q429 -333 429 -244 Q429 -180 448.5 -117.5 Q468 -55 516 0 L511 0 Q503 23 498 55 Q493 87 491 122 Q479 94 463 68 Q447 42 427.5 22.5 Q408 3 384 -8.5 Q360 -20 331 -20 Q285 -20 245.5 -1.5 Q206 17 177.5 55 Q149 93 133 151 Q117 209 117 288 Q117 363 134.5 428 Q152 493 188 541 Q224 589 280 616.5 Q336 644 412 644 L488 644 L488 784 Q488 837 481.5 873.5 Q475 910 463 932 Q451 954 432.5 963.5 Q414 973 390 973 Q364 973 344 958.5 Q324 944 310.5 918.5 Q297 893 290 858 Q283 823 283 782 L131 783 Q131 844 149.5 901.5 Q168 959 202 1003.5 Q236 1048 285 1075 Q334 1102 394 1102 Q448 1102 493 1085.5 Q538 1069 571 1031.5 Q604 994 622.5 932.5 Q641 871 641 782 L641 232 Q641 205 642.5 175 Q644 145 647 116.5 Q650 88 654.5 61.5 Q659 35 665 15 L665 0 L639 0 Q597 -51 572 -106 Q547 -161 547 -227 Q547 -262 556 -284 Q565 -306 587 -306 Q604 -306 616 -295.5 Q628 -285 636 -277 L651 -381 Z M488 531 L422 531 Q346 531 308 470.5 Q270 410 270 304 Q270 250 276 213.5 Q282 177 294 155.5 Q306 134 323 124.5 Q340 115 362 115 Q385 115 405 126 Q425 137 441 155 Q457 173 469 197 Q481 221 488 248 L488 531 Z " />
<glyph glyph-name="Cacute" unicode="&#x106;" horiz-adv-x="919" >
<path fill="black" d="M134 891 Q134 1026 157.5 1134.5 Q181 1243 225 1319 Q269 1395 332.5 1435.5 Q396 1476 476 1476 Q630 1476 713.5 1358.5 Q797 1241 806 994 L647 994 Q645 1090 634.5 1156.5 Q624 1223 603.5 1264.5 Q583 1306 551.5 1325 Q520 1344 476 1344 Q428 1344 393.5 1312.5 Q359 1281 336.5 1222.5 Q314 1164 303.5 1080.5 Q293 997 293 893 L293 570 Q293 470 302.5 385.5 Q312 301 333 240 Q354 179 388 145 Q422 111 471 111 Q515 111 547 129 Q579 147 600.5 187.5 Q622 228 633 294.5 Q644 361 647 458 L805 458 Q799 219 712.5 99.5 Q626 -20 471 -20 Q391 -20 328.5 21 Q266 62 222.5 138.5 Q179 215 156.5 324 Q134 433 134 570 L134 891 Z " />
<g transform="translate(254,342)" >
<path fill="black" d="M278 1536 L459 1536 L267 1249 L134 1249 L278 1536 Z " />
</g>
</glyph>
<glyph glyph-name="cacute" unicode="&#x107;" horiz-adv-x="762" >
<path fill="black" d="M112 612 Q112 1102 400 1102 Q457 1102 504.5 1078 Q552 1054 586 1006 Q620 958 639 885 Q658 812 659 714 L514 714 Q513 854 483 913.5 Q453 973 397 973 Q357 973 331.5 950 Q306 927 291 881 Q276 835 270.5 768 Q265 701 265 612 L265 470 Q265 381 270.5 313.5 Q276 246 290.5 200.5 Q305 155 331 132 Q357 109 398 109 Q423 109 444 120 Q465 131 480 157 Q495 183 504 227.5 Q513 272 514 338 L659 338 Q658 252 637.5 185 Q617 118 582 72.5 Q547 27 500.5 3.5 Q454 -20 401 -20 Q112 -20 112 470 L112 612 Z " />
<g transform="translate(164,-1)" >
<path fill="black" d="M278 1536 L459 1536 L267 1249 L134 1249 L278 1536 Z " />
</g>
</glyph>
<glyph glyph-name="Cdotaccent" unicode="&#x10a;" horiz-adv-x="919" >
<path fill="black" d="M134 891 Q134 1026 157.5 1134.5 Q181 1243 225 1319 Q269 1395 332.5 1435.5 Q396 1476 476 1476 Q630 1476 713.5 1358.5 Q797 1241 806 994 L647 994 Q645 1090 634.5 1156.5 Q624 1223 603.5 1264.5 Q583 1306 551.5 1325 Q520 1344 476 1344 Q428 1344 393.5 1312.5 Q359 1281 336.5 1222.5 Q314 1164 303.5 1080.5 Q293 997 293 893 L293 570 Q293 470 302.5 385.5 Q312 301 333 240 Q354 179 388 145 Q422 111 471 111 Q515 111 547 129 Q579 147 600.5 187.5 Q622 228 633 294.5 Q644 361 647 458 L805 458 Q799 219 712.5 99.5 Q626 -20 471 -20 Q391 -20 328.5 21 Q266 62 222.5 138.5 Q179 215 156.5 324 Q134 433 134 570 L134 891 Z " />
<g transform="translate(232,342)" >
<path fill="black" d="M231 1281 Q189 1281 165 1308 Q141 1335 141 1375 Q141 1414 165 1441.5 Q189 1469 231 1469 Q272 1469 296 1441.5 Q320 1414 320 1375 Q320 1335 296 1308 Q272 1281 231 1281 Z " />
</g>
</glyph>
<glyph glyph-name="cdotaccent" unicode="&#x10b;" horiz-adv-x="762" >
<path fill="black" d="M112 612 Q112 1102 400 1102 Q457 1102 504.5 1078 Q552 1054 586 1006 Q620 958 639 885 Q658 812 659 714 L514 714 Q513 854 483 913.5 Q453 973 397 973 Q357 973 331.5 950 Q306 927 291 881 Q276 835 270.5 768 Q265 701 265 612 L265 470 Q265 381 270.5 313.5 Q276 246 290.5 200.5 Q305 155 331 132 Q357 109 398 109 Q423 109 444 120 Q465 131 480 157 Q495 183 504 227.5 Q513 272 514 338 L659 338 Q658 252 637.5 185 Q617 118 582 72.5 Q547 27 500.5 3.5 Q454 -20 401 -20 Q112 -20 112 470 L112 612 Z " />
<g transform="translate(142,-1)" >
<path fill="black" d="M231 1281 Q189 1281 165 1308 Q141 1335 141 1375 Q141 1414 165 1441.5 Q189 1469 231 1469 Q272 1469 296 1441.5 Q320 1414 320 1375 Q320 1335 296 1308 Q272 1281 231 1281 Z " />
</g>
</glyph>
<glyph glyph-name="Ccaron" unicode="&#x10c;" horiz-adv-x="919" >
<path fill="black" d="M134 891 Q134 1026 157.5 1134.5 Q181 1243 225 1319 Q269 1395 332.5 1435.5 Q396 1476 476 1476 Q630 1476 713.5 1358.5 Q797 1241 806 994 L647 994 Q645 1090 634.5 1156.5 Q624 1223 603.5 1264.5 Q583 1306 551.5 1325 Q520 1344 476 1344 Q428 1344 393.5 1312.5 Q359 1281 336.5 1222.5 Q314 1164 303.5 1080.5 Q293 997 293 893 L293 570 Q293 470 302.5 385.5 Q312 301 333 240 Q354 179 388 145 Q422 111 471 111 Q515 111 547 129 Q579 147 600.5 187.5 Q622 228 633 294.5 Q644 361 647 458 L805 458 Q799 219 712.5 99.5 Q626 -20 471 -20 Q391 -20 328.5 21 Q266 62 222.5 138.5 Q179 215 156.5 324 Q134 433 134 570 L134 891 Z " />
<g transform="translate(125,343)" >
<path fill="black" d="M130 1517 L130 1529 L260 1529 L345 1347 L430 1529 L560 1529 L560 1517 L393 1250 L297 1250 L130 1517 Z " />
</g>
</glyph>
<glyph glyph-name="ccaron" unicode="&#x10d;" horiz-adv-x="762" >
<path fill="black" d="M112 612 Q112 1102 400 1102 Q457 1102 504.5 1078 Q552 1054 586 1006 Q620 958 639 885 Q658 812 659 714 L514 714 Q513 854 483 913.5 Q453 973 397 973 Q357 973 331.5 950 Q306 927 291 881 Q276 835 270.5 768 Q265 701 265 612 L265 470 Q265 381 270.5 313.5 Q276 246 290.5 200.5 Q305 155 331 132 Q357 109 398 109 Q423 109 444 120 Q465 131 480 157 Q495 183 504 227.5 Q513 272 514 338 L659 338 Q658 252 637.5 185 Q617 118 582 72.5 Q547 27 500.5 3.5 Q454 -20 401 -20 Q112 -20 112 470 L112 612 Z " />
<g transform="translate(35,0)" >
<path fill="black" d="M130 1517 L130 1529 L260 1529 L345 1347 L430 1529 L560 1529 L560 1517 L393 1250 L297 1250 L130 1517 Z " />
</g>
</glyph>
<glyph glyph-name="Dcaron" unicode="&#x10e;" horiz-adv-x="917" d="M152 1456 L406 1456 Q491 1456 560 1420 Q629 1384 678 1312 Q727 1240 754 1132.5 Q781 1025 781 882 L781 574 Q781 431 754.5 323.5 Q728 216 678.5 144 Q629 72 559 36 Q489 0 402 0 L152 0 L152 1456 Z M402 133 Q523 133 573 242.5 Q623 352 623 574 L623 885 Q623 1112 572.5 1218 Q522 1324 406 1324 L310 1324 L310 133 L402 133 Z M344 1572 L177 1839 L177 1851 L307 1851 L392 1669 L477 1851 L607 1851 L607 1839 L440 1572 L344 1572 Z " />
<glyph glyph-name="dcaron" unicode="&#x10f;" horiz-adv-x="1185" d="M524 113 Q496 49 455 14.5 Q414 -20 357 -20 Q299 -20 254 8.5 Q209 37 177.5 97.5 Q146 158 129.5 252.5 Q113 347 113 479 L113 600 Q113 737 129.5 832.5 Q146 928 177 988 Q208 1048 254 1075 Q300 1102 358 1102 Q403 1102 437.5 1080 Q472 1058 498 1016 Q499 1025 499 1034 Q499 1043 499 1053 L499 1135 L518 1135 L518 1536 L670 1536 L670 0 L531 0 L524 113 Z M518 764 L455 816 Q475 864 485 915 Q468 941 447 956 Q426 971 399 971 Q363 971 337.5 950.5 Q312 930 296.5 885.5 Q281 841 273.5 770.5 Q266 700 266 600 L266 479 Q266 380 273 310 Q280 240 296 196 Q312 152 337 131.5 Q362 111 398 111 Q443 111 472 146 Q501 181 518 237 L518 764 Z " />
<glyph glyph-name="Dcroat" unicode="&#x110;" horiz-adv-x="917" >
<path fill="black" d="M152 677 L63 677 L63 805 L152 805 L152 1456 L406 1456 Q491 1456 560 1420 Q629 1384 678 1312 Q727 1240 754 1132.5 Q781 1025 781 882 L781 574 Q781 431 754.5 323.5 Q728 216 678.5 144 Q629 72 559 36 Q489 0 402 0 L152 0 L152 677 Z M402 133 Q523 133 573 242.5 Q623 352 623 574 L623 885 Q623 1112 572.5 1218 Q522 1324 406 1324 L310 1324 L310 805 L460 805 L460 677 L310 677 L310 133 L402 133 Z " />
</glyph>
<glyph glyph-name="dslash" unicode="&#x111;" horiz-adv-x="881" d="M526 95 Q496 40 455.5 10 Q415 -20 361 -20 Q303 -20 257 21 Q211 62 179 134.5 Q147 207 130 308 Q113 409 113 529 L113 550 Q113 675 130 777 Q147 879 178.5 951 Q210 1023 256.5 1062.5 Q303 1102 361 1102 Q412 1102 450.5 1075.5 Q489 1049 518 999 L518 1245 L371 1245 L371 1372 L518 1372 L518 1536 L670 1536 L670 1372 L768 1372 L768 1245 L670 1245 L670 0 L532 0 L526 95 Z M518 822 Q502 886 472.5 928.5 Q443 971 399 971 Q363 971 337.5 938 Q312 905 296.5 848 Q281 791 273.5 714 Q266 637 266 550 L266 529 Q266 442 273 366 Q280 290 296 234 Q312 178 337 145.5 Q362 113 398 113 Q443 113 472 151.5 Q501 190 518 252 L518 822 Z " />
<glyph glyph-name="Emacron" unicode="&#x112;" horiz-adv-x="811" d="M152 1456 L708 1456 L708 1324 L310 1324 L310 817 L653 817 L653 686 L310 686 L310 133 L711 133 L711 0 L152 0 L152 1456 Z M236 1773 L635 1773 L635 1651 L236 1651 L236 1773 Z " />
<glyph glyph-name="emacron" unicode="&#x113;" horiz-adv-x="782" d="M116 600 Q116 742 137 838 Q158 934 196 992.5 Q234 1051 287 1076.5 Q340 1102 404 1102 Q540 1102 608.5 983 Q677 864 677 614 L677 510 L268 510 L268 457 Q268 362 279 295.5 Q290 229 311 187.5 Q332 146 362 127 Q392 108 431 108 Q487 108 529 138.5 Q571 169 603 223 L663 123 Q648 95 626 69 Q604 43 574 23.5 Q544 4 506 -8 Q468 -20 421 -20 Q350 -20 293.5 6.5 Q237 33 197.5 91 Q158 149 137 239.5 Q116 330 116 457 L116 600 Z M525 638 L525 668 Q523 813 495.5 893 Q468 973 403 973 Q371 973 346.5 958 Q322 943 305 905 Q288 867 279 802.5 Q270 738 268 638 L525 638 Z M189 1451 L588 1451 L588 1329 L189 1329 L189 1451 Z " />
<glyph glyph-name="Edotaccent" unicode="&#x116;" horiz-adv-x="811" d="M152 1456 L708 1456 L708 1324 L310 1324 L310 817 L653 817 L653 686 L310 686 L310 133 L711 133 L711 0 L152 0 L152 1456 Z M430 1602 Q388 1602 364 1629 Q340 1656 340 1696 Q340 1735 364 1762.5 Q388 1790 430 1790 Q471 1790 495 1762.5 Q519 1735 519 1696 Q519 1656 495 1629 Q471 1602 430 1602 Z " />
<glyph glyph-name="edotaccent" unicode="&#x117;" horiz-adv-x="782" d="M116 600 Q116 742 137 838 Q158 934 196 992.5 Q234 1051 287 1076.5 Q340 1102 404 1102 Q540 1102 608.5 983 Q677 864 677 614 L677 510 L268 510 L268 457 Q268 362 279 295.5 Q290 229 311 187.5 Q332 146 362 127 Q392 108 431 108 Q487 108 529 138.5 Q571 169 603 223 L663 123 Q648 95 626 69 Q604 43 574 23.5 Q544 4 506 -8 Q468 -20 421 -20 Q350 -20 293.5 6.5 Q237 33 197.5 91 Q158 149 137 239.5 Q116 330 116 457 L116 600 Z M525 638 L525 668 Q523 813 495.5 893 Q468 973 403 973 Q371 973 346.5 958 Q322 943 305 905 Q288 867 279 802.5 Q270 738 268 638 L525 638 Z M383 1280 Q341 1280 317 1307 Q293 1334 293 1374 Q293 1413 317 1440.5 Q341 1468 383 1468 Q424 1468 448 1440.5 Q472 1413 472 1374 Q472 1334 448 1307 Q424 1280 383 1280 Z " />
<glyph glyph-name="Eogonek" unicode="&#x118;" horiz-adv-x="811" d="M152 1456 L708 1456 L708 1324 L310 1324 L310 817 L653 817 L653 686 L310 686 L310 133 L711 133 L711 0 L636 0 Q594 -51 569 -106 Q544 -161 544 -227 Q544 -262 553 -284 Q562 -306 584 -306 Q601 -306 613 -295.5 Q625 -285 633 -277 L648 -381 Q634 -396 610.5 -410.5 Q587 -425 552 -425 Q500 -425 463 -379 Q426 -333 426 -244 Q426 -180 445.5 -117.5 Q465 -55 513 0 L152 0 L152 1456 Z " />
<glyph glyph-name="eogonek" unicode="&#x119;" horiz-adv-x="782" d="M573 -347 Q559 -362 535.5 -376.5 Q512 -391 477 -391 Q425 -391 388 -345 Q351 -299 351 -210 Q351 -161 362 -112.5 Q373 -64 399 -19 Q333 -15 280.5 13.5 Q228 42 191.5 100 Q155 158 135.5 246 Q116 334 116 457 L116 600 Q116 742 137 838 Q158 934 196 992.5 Q234 1051 287 1076.5 Q340 1102 404 1102 Q540 1102 608.5 983 Q677 864 677 614 L677 510 L268 510 L268 457 Q268 362 279 295.5 Q290 229 311 187.5 Q332 146 362 127 Q392 108 431 108 Q487 108 529 138.5 Q571 169 603 223 L663 123 Q644 87 613 55 Q582 23 537 3 Q505 -41 487 -88.5 Q469 -136 469 -193 Q469 -228 478 -250 Q487 -272 509 -272 Q526 -272 538 -261.5 Q550 -251 558 -243 L573 -347 Z M525 638 L525 668 Q523 813 495.5 893 Q468 973 403 973 Q371 973 346.5 958 Q322 943 305 905 Q288 867 279 802.5 Q270 738 268 638 L525 638 Z " />
<glyph glyph-name="Ecaron" unicode="&#x11a;" horiz-adv-x="811" d="M152 1456 L708 1456 L708 1324 L310 1324 L310 817 L653 817 L653 686 L310 686 L310 133 L711 133 L711 0 L152 0 L152 1456 Z M389 1572 L222 1839 L222 1851 L352 1851 L437 1669 L522 1851 L652 1851 L652 1839 L485 1572 L389 1572 Z " />
<glyph glyph-name="ecaron" unicode="&#x11b;" horiz-adv-x="782" d="M116 600 Q116 742 137 838 Q158 934 196 992.5 Q234 1051 287 1076.5 Q340 1102 404 1102 Q540 1102 608.5 983 Q677 864 677 614 L677 510 L268 510 L268 457 Q268 362 279 295.5 Q290 229 311 187.5 Q332 146 362 127 Q392 108 431 108 Q487 108 529 138.5 Q571 169 603 223 L663 123 Q648 95 626 69 Q604 43 574 23.5 Q544 4 506 -8 Q468 -20 421 -20 Q350 -20 293.5 6.5 Q237 33 197.5 91 Q158 149 137 239.5 Q116 330 116 457 L116 600 Z M342 1250 L175 1517 L175 1529 L305 1529 L390 1347 L475 1529 L605 1529 L605 1517 L438 1250 L342 1250 Z M525 638 L525 668 Q523 813 495.5 893 Q468 973 403 973 Q371 973 346.5 958 Q322 943 305 905 Q288 867 279 802.5 Q270 738 268 638 L525 638 Z " />
<glyph glyph-name="Gbreve" unicode="&#x11e;" horiz-adv-x="945" >
<path fill="black" d="M650 578 L481 578 L481 710 L809 710 L809 173 Q795 151 770 118.5 Q745 86 706.5 55 Q668 24 615 2 Q562 -20 492 -20 Q411 -20 345.5 15.5 Q280 51 234 123 Q188 195 163 304 Q138 413 138 559 L138 903 Q138 1193 228 1334.5 Q318 1476 480 1476 Q640 1476 720 1362.5 Q800 1249 809 1038 L655 1038 Q648 1185 607.5 1264.5 Q567 1344 484 1344 Q387 1344 342 1236 Q297 1128 297 905 L297 559 Q297 330 348 220.5 Q399 111 499 111 Q534 111 559.5 124 Q585 137 603 154.5 Q621 172 632 190.5 Q643 209 650 219 L650 578 Z " />
<g transform="translate(94,343)" >
<path fill="black" d="M238 1493 Q238 1461 244.5 1432 Q251 1403 265 1381.5 Q279 1360 301.5 1347 Q324 1334 356 1334 Q388 1334 410.5 1347 Q433 1360 447 1381.5 Q461 1403 467.5 1432 Q474 1461 474 1493 L595 1493 Q595 1435 578.5 1386.5 Q562 1338 531 1303.5 Q500 1269 456 1250 Q412 1231 356 1231 Q301 1231 257 1250 Q213 1269 182 1303.5 Q151 1338 134.5 1386.5 Q118 1435 118 1493 L238 1493 Z " />
</g>
</glyph>
<glyph glyph-name="gbreve" unicode="&#x11f;" horiz-adv-x="816" >
<path fill="black" d="M218 -194 Q250 -248 294.5 -274.5 Q339 -301 383 -301 Q418 -301 444.5 -287.5 Q471 -274 489 -242.5 Q507 -211 516.5 -160 Q526 -109 526 -33 L526 99 Q498 42 458 11 Q418 -20 363 -20 Q305 -20 259 8.5 Q213 37 181 97.5 Q149 158 132 252.5 Q115 347 115 479 L115 600 Q115 737 132 832.5 Q149 928 181 988 Q213 1048 259.5 1075 Q306 1102 364 1102 Q425 1102 466 1068 Q507 1034 533 971 L540 1082 L677 1082 L677 -26 Q677 -133 656.5 -209.5 Q636 -286 598.5 -334.5 Q561 -383 508.5 -406 Q456 -429 391 -429 Q366 -429 334.5 -420 Q303 -411 272.5 -394.5 Q242 -378 214 -354 Q186 -330 166 -300 L218 -194 Z M526 843 Q509 898 480.5 934.5 Q452 971 407 971 Q371 971 344.5 950.5 Q318 930 301 885.5 Q284 841 275.5 770.5 Q267 700 267 600 L267 479 Q267 380 275 310 Q283 240 300 196 Q317 152 343 131.5 Q369 111 405 111 Q451 111 480 144 Q509 177 526 231 L526 843 Z " />
<g transform="translate(15,0)" >
<path fill="black" d="M238 1493 Q238 1461 244.5 1432 Q251 1403 265 1381.5 Q279 1360 301.5 1347 Q324 1334 356 1334 Q388 1334 410.5 1347 Q433 1360 447 1381.5 Q461 1403 467.5 1432 Q474 1461 474 1493 L595 1493 Q595 1435 578.5 1386.5 Q562 1338 531 1303.5 Q500 1269 456 1250 Q412 1231 356 1231 Q301 1231 257 1250 Q213 1269 182 1303.5 Q151 1338 134.5 1386.5 Q118 1435 118 1493 L238 1493 Z " />
</g>
</glyph>
<glyph glyph-name="Gdotaccent" unicode="&#x120;" horiz-adv-x="945" >
<path fill="black" d="M650 578 L481 578 L481 710 L809 710 L809 173 Q795 151 770 118.5 Q745 86 706.5 55 Q668 24 615 2 Q562 -20 492 -20 Q411 -20 345.5 15.5 Q280 51 234 123 Q188 195 163 304 Q138 413 138 559 L138 903 Q138 1193 228 1334.5 Q318 1476 480 1476 Q640 1476 720 1362.5 Q800 1249 809 1038 L655 1038 Q648 1185 607.5 1264.5 Q567 1344 484 1344 Q387 1344 342 1236 Q297 1128 297 905 L297 559 Q297 330 348 220.5 Q399 111 499 111 Q534 111 559.5 124 Q585 137 603 154.5 Q621 172 632 190.5 Q643 209 650 219 L650 578 Z " />
<g transform="translate(234,342)" >
<path fill="black" d="M231 1281 Q189 1281 165 1308 Q141 1335 141 1375 Q141 1414 165 1441.5 Q189 1469 231 1469 Q272 1469 296 1441.5 Q320 1414 320 1375 Q320 1335 296 1308 Q272 1281 231 1281 Z " />
</g>
</glyph>
<glyph glyph-name="gdotaccent" unicode="&#x121;" horiz-adv-x="816" d="M218 -194 Q250 -248 294.5 -274.5 Q339 -301 383 -301 Q418 -301 444.5 -287.5 Q471 -274 489 -242.5 Q507 -211 516.5 -160 Q526 -109 526 -33 L526 99 Q498 42 458 11 Q418 -20 363 -20 Q305 -20 259 8.5 Q213 37 181 97.5 Q149 158 132 252.5 Q115 347 115 479 L115 600 Q115 737 132 832.5 Q149 928 181 988 Q213 1048 259.5 1075 Q306 1102 364 1102 Q425 1102 466 1068 Q507 1034 533 971 L540 1082 L677 1082 L677 -26 Q677 -133 656.5 -209.5 Q636 -286 598.5 -334.5 Q561 -383 508.5 -406 Q456 -429 391 -429 Q366 -429 334.5 -420 Q303 -411 272.5 -394.5 Q242 -378 214 -354 Q186 -330 166 -300 L218 -194 Z M526 843 Q509 898 480.5 934.5 Q452 971 407 971 Q371 971 344.5 950.5 Q318 930 301 885.5 Q284 841 275.5 770.5 Q267 700 267 600 L267 479 Q267 380 275 310 Q283 240 300 196 Q317 152 343 131.5 Q369 111 405 111 Q451 111 480 144 Q509 177 526 231 L526 843 Z M386 1280 Q344 1280 320 1307 Q296 1334 296 1374 Q296 1413 320 1440.5 Q344 1468 386 1468 Q427 1468 451 1440.5 Q475 1413 475 1374 Q475 1334 451 1307 Q427 1280 386 1280 Z " />
<glyph glyph-name="uni0122" unicode="&#x122;" horiz-adv-x="1243" >
<path fill="black" d="M650 578 L481 578 L481 710 L809 710 L809 173 Q795 151 770 118.5 Q745 86 706.5 55 Q668 24 615 2 Q562 -20 492 -20 Q411 -20 345.5 15.5 Q280 51 234 123 Q188 195 163 304 Q138 413 138 559 L138 903 Q138 1193 228 1334.5 Q318 1476 480 1476 Q640 1476 720 1362.5 Q800 1249 809 1038 L655 1038 Q648 1185 607.5 1264.5 Q567 1344 484 1344 Q387 1344 342 1236 Q297 1128 297 905 L297 559 Q297 330 348 220.5 Q399 111 499 111 Q534 111 559.5 124 Q585 137 603 154.5 Q621 172 632 190.5 Q643 209 650 219 L650 578 Z " />
<g transform="translate(377,-376)" >
<path fill="black" d="M-347 -472 Q-326 -418 -314.5 -361 Q-303 -304 -303 -235 L-303 -153 L-184 -153 L-184 -232 Q-184 -272 -190 -313.5 Q-196 -355 -207.5 -395 Q-219 -435 -235 -471.5 Q-251 -508 -270 -536 L-347 -472 Z " />
</g>
</glyph>
<glyph glyph-name="uni0123" unicode="&#x123;" horiz-adv-x="816" >
<path fill="black" d="M218 -194 Q250 -248 294.5 -274.5 Q339 -301 383 -301 Q418 -301 444.5 -287.5 Q471 -274 489 -242.5 Q507 -211 516.5 -160 Q526 -109 526 -33 L526 99 Q498 42 458 11 Q418 -20 363 -20 Q305 -20 259 8.5 Q213 37 181 97.5 Q149 158 132 252.5 Q115 347 115 479 L115 600 Q115 737 132 832.5 Q149 928 181 988 Q213 1048 259.5 1075 Q306 1102 364 1102 Q425 1102 466 1068 Q507 1034 533 971 L540 1082 L677 1082 L677 -26 Q677 -133 656.5 -209.5 Q636 -286 598.5 -334.5 Q561 -383 508.5 -406 Q456 -429 391 -429 Q366 -429 334.5 -420 Q303 -411 272.5 -394.5 Q242 -378 214 -354 Q186 -330 166 -300 L218 -194 Z M526 843 Q509 898 480.5 934.5 Q452 971 407 971 Q371 971 344.5 950.5 Q318 930 301 885.5 Q284 841 275.5 770.5 Q267 700 267 600 L267 479 Q267 380 275 310 Q283 240 300 196 Q317 152 343 131.5 Q369 111 405 111 Q451 111 480 144 Q509 177 526 231 L526 843 Z " />
<g transform="translate(174,74)" >
<path fill="black" d="M152 1314 Q152 1355 159 1395 Q166 1435 177.5 1471 Q189 1507 204.5 1536.5 Q220 1566 237 1587 L317 1521 Q300 1464 289 1415 Q278 1366 278 1308 L278 1185 L152 1185 L152 1314 Z " />
</g>
</glyph>
<glyph glyph-name="Hbar" unicode="&#x126;" horiz-adv-x="1293" d="M168 1025 L89 1025 L89 1145 L168 1145 L168 1456 L326 1456 L326 1145 L688 1145 L688 1456 L847 1456 L847 1145 L909 1145 L909 1025 L847 1025 L847 0 L688 0 L688 686 L326 686 L326 0 L168 0 L168 1025 Z M688 817 L688 1025 L326 1025 L326 817 L688 817 Z " />
<glyph glyph-name="hbar" unicode="&#x127;" horiz-adv-x="803" d="M136 1245 L43 1245 L43 1373 L136 1373 L136 1536 L289 1536 L289 1373 L440 1373 L440 1245 L289 1245 L289 969 Q321 1032 364 1067 Q407 1102 461 1102 Q507 1102 545 1080.5 Q583 1059 610 1011.5 Q637 964 651.5 889 Q666 814 666 707 L666 0 L514 0 L514 709 Q514 782 507 832 Q500 882 486 913 Q472 944 452.5 957.5 Q433 971 407 971 Q365 971 335.5 927 Q306 883 289 816 L289 0 L136 0 L136 1245 Z " />
<glyph glyph-name="Itilde" unicode="&#x128;" horiz-adv-x="483" >
<path fill="black" d="M163 0 L163 1456 L321 1456 L321 0 L163 0 Z " />
<g transform="translate(-115,327)" >
<path fill="black" d="M141 1257 Q141 1308 150.5 1350.5 Q160 1393 177.5 1423.5 Q195 1454 218.5 1470.5 Q242 1487 270 1487 Q294 1487 313.5 1471 Q333 1455 351 1436.5 Q369 1418 388 1402 Q407 1386 429 1386 Q450 1386 465 1419 Q480 1452 480 1503 L570 1494 Q570 1442 560.5 1400 Q551 1358 533.5 1328 Q516 1298 492.5 1281.5 Q469 1265 441 1265 Q413 1265 393 1281 Q373 1297 356.5 1316 Q340 1335 323 1351 Q306 1367 283 1367 Q261 1367 246.5 1335.5 Q232 1304 232 1253 L141 1257 Z " />
</g>
</glyph>
<glyph glyph-name="itilde" unicode="&#x129;" horiz-adv-x="458" >
<path fill="black" d="M151 0 L151 1082 L305 1082 L305 0 L151 0 Z " />
<g transform="translate(-127,-1)" >
<path fill="black" d="M141 1257 Q141 1308 150.5 1350.5 Q160 1393 177.5 1423.5 Q195 1454 218.5 1470.5 Q242 1487 270 1487 Q294 1487 313.5 1471 Q333 1455 351 1436.5 Q369 1418 388 1402 Q407 1386 429 1386 Q450 1386 465 1419 Q480 1452 480 1503 L570 1494 Q570 1442 560.5 1400 Q551 1358 533.5 1328 Q516 1298 492.5 1281.5 Q469 1265 441 1265 Q413 1265 393 1281 Q373 1297 356.5 1316 Q340 1335 323 1351 Q306 1367 283 1367 Q261 1367 246.5 1335.5 Q232 1304 232 1253 L141 1257 Z " />
</g>
</glyph>
<glyph glyph-name="Imacron" unicode="&#x12a;" horiz-adv-x="483" >
<path fill="black" d="M163 0 L163 1456 L321 1456 L321 0 L163 0 Z " />
<g transform="translate(-121,330)" >
<path fill="black" d="M162 1321 L162 1443 L561 1443 L561 1321 L162 1321 Z " />
</g>
</glyph>
<glyph glyph-name="imacron" unicode="&#x12b;" horiz-adv-x="458" >
<path fill="black" d="M151 0 L151 1082 L305 1082 L305 0 L151 0 Z " />
<g transform="translate(-133,2)" >
<path fill="black" d="M162 1321 L162 1443 L561 1443 L561 1321 L162 1321 Z " />
</g>
</glyph>
<glyph glyph-name="Iogonek" unicode="&#x12e;" horiz-adv-x="483" d="M302 -381 Q288 -396 264.5 -410.5 Q241 -425 206 -425 Q154 -425 117 -379 Q80 -333 80 -244 Q80 -180 99.5 -117.5 Q119 -55 167 0 L163 0 L163 1456 L321 1456 L321 0 L290 0 Q248 -51 223 -106 Q198 -161 198 -227 Q198 -262 207 -284 Q216 -306 238 -306 Q255 -306 267 -295.5 Q279 -285 287 -277 L302 -381 Z " />
<glyph glyph-name="iogonek" unicode="&#x12f;" horiz-adv-x="449" d="M293 -381 Q279 -396 255.5 -410.5 Q232 -425 197 -425 Q145 -425 108 -379 Q71 -333 71 -244 Q71 -180 90.5 -117.5 Q110 -55 158 0 L148 0 L148 1082 L302 1082 L302 0 L281 0 Q239 -51 214 -106 Q189 -161 189 -227 Q189 -262 198 -284 Q207 -306 229 -306 Q246 -306 258 -295.5 Q270 -285 278 -277 L293 -381 Z M225 1289 Q185 1289 162 1315.5 Q139 1342 139 1383 Q139 1421 162 1448 Q185 1475 225 1475 Q265 1475 288.5 1448 Q312 1421 312 1383 Q312 1342 288.5 1315.5 Q265 1289 225 1289 Z " />
<glyph glyph-name="Idot" unicode="&#x130;" horiz-adv-x="483" >
<path fill="black" d="M163 0 L163 1456 L321 1456 L321 0 L163 0 Z " />
<g transform="translate(4,321)" >
<path fill="black" d="M231 1281 Q189 1281 165 1308 Q141 1335 141 1375 Q141 1414 165 1441.5 Q189 1469 231 1469 Q272 1469 296 1441.5 Q320 1414 320 1375 Q320 1335 296 1308 Q272 1281 231 1281 Z " />
</g>
</glyph>
<glyph glyph-name="dotlessi" unicode="&#x131;" horiz-adv-x="458" d="M151 0 L151 1082 L305 1082 L305 0 L151 0 Z " />
<glyph glyph-name="uni0136" unicode="&#x136;" horiz-adv-x="1153" >
<path fill="black" d="M152 1456 L310 1456 L310 744 L390 916 L623 1456 L818 1456 L501 825 L831 0 L642 0 L404 656 L310 497 L310 0 L152 0 L152 1456 Z " />
<g transform="translate(332,-278)" >
<path fill="black" d="M-347 -472 Q-326 -418 -314.5 -361 Q-303 -304 -303 -235 L-303 -153 L-184 -153 L-184 -232 Q-184 -272 -190 -313.5 Q-196 -355 -207.5 -395 Q-219 -435 -235 -471.5 Q-251 -508 -270 -536 L-347 -472 Z " />
</g>
</glyph>
<glyph glyph-name="uni0137" unicode="&#x137;" horiz-adv-x="982" >
<path fill="black" d="M140 1536 L292 1536 L292 631 L332 703 L501 1082 L684 1082 L447 642 L706 0 L530 0 L354 485 L292 385 L292 0 L140 0 L140 1536 Z " />
<g transform="translate(218,-299)" >
<path fill="black" d="M-347 -472 Q-326 -418 -314.5 -361 Q-303 -304 -303 -235 L-303 -153 L-184 -153 L-184 -232 Q-184 -272 -190 -313.5 Q-196 -355 -207.5 -395 Q-219 -435 -235 -471.5 Q-251 -508 -270 -536 L-347 -472 Z " />
</g>
</glyph>
<glyph glyph-name="Lacute" unicode="&#x139;" horiz-adv-x="784" >
<path fill="black" d="M152 1456 L310 1456 L310 133 L688 133 L688 0 L152 0 L152 1456 Z " />
<g transform="translate(18,294)" >
<path fill="black" d="M278 1536 L459 1536 L267 1249 L134 1249 L278 1536 Z " />
</g>
</glyph>
<glyph glyph-name="lacute" unicode="&#x13a;" horiz-adv-x="508" >
<path fill="black" d="M144 1536 L296 1536 L296 266 Q296 217 300.5 187 Q305 157 313.5 140.5 Q322 124 334 118.5 Q346 113 361 113 Q375 113 388.5 117 Q402 121 410 125 L410 -2 Q392 -9 368.5 -14.5 Q345 -20 315 -20 Q277 -20 245.5 -5.5 Q214 9 191.5 42.5 Q169 76 156.5 131 Q144 186 144 267 L144 1536 Z " />
<g transform="translate(10,401)" >
<path fill="black" d="M278 1536 L459 1536 L267 1249 L134 1249 L278 1536 Z " />
</g>
</glyph>
<glyph glyph-name="uni013B" unicode="&#x13b;" horiz-adv-x="1027" >
<path fill="black" d="M152 1456 L310 1456 L310 133 L688 133 L688 0 L152 0 L152 1456 Z " />
<g transform="translate(286,-356)" >
<path fill="black" d="M-347 -472 Q-326 -418 -314.5 -361 Q-303 -304 -303 -235 L-303 -153 L-184 -153 L-184 -232 Q-184 -272 -190 -313.5 Q-196 -355 -207.5 -395 Q-219 -435 -235 -471.5 Q-251 -508 -270 -536 L-347 -472 Z " />
</g>
</glyph>
<glyph glyph-name="uni013C" unicode="&#x13c;" horiz-adv-x="551" >
<path fill="black" d="M144 1536 L296 1536 L296 266 Q296 217 300.5 187 Q305 157 313.5 140.5 Q322 124 334 118.5 Q346 113 361 113 Q375 113 388.5 117 Q402 121 410 125 L410 -2 Q392 -9 368.5 -14.5 Q345 -20 315 -20 Q277 -20 245.5 -5.5 Q214 9 191.5 42.5 Q169 76 156.5 131 Q144 186 144 267 L144 1536 Z " />
<g transform="translate(2,-356)" >
<path fill="black" d="M-347 -472 Q-326 -418 -314.5 -361 Q-303 -304 -303 -235 L-303 -153 L-184 -153 L-184 -232 Q-184 -272 -190 -313.5 Q-196 -355 -207.5 -395 Q-219 -435 -235 -471.5 Q-251 -508 -270 -536 L-347 -472 Z " />
</g>
</glyph>
<glyph glyph-name="Lcaron" unicode="&#x13d;" horiz-adv-x="1027" d="M152 704 Q147 695 142 687 Q137 679 132 671 L55 735 Q76 789 87.5 846 Q99 903 99 972 L99 1054 L152 1054 L152 1456 L310 1456 L310 133 L688 133 L688 0 L152 0 L152 704 Z " />
<glyph glyph-name="lcaron" unicode="&#x13e;" horiz-adv-x="671" >
<path fill="black" d="M144 1536 L296 1536 L296 266 Q296 217 300.5 187 Q305 157 313.5 140.5 Q322 124 334 118.5 Q346 113 361 113 Q375 113 388.5 117 Q402 121 410 125 L410 -2 Q392 -9 368.5 -14.5 Q345 -20 315 -20 Q277 -20 245.5 -5.5 Q214 9 191.5 42.5 Q169 76 156.5 131 Q144 186 144 267 L144 1536 Z " />
<g transform="translate(307,1288)" >
<path fill="black" d="M-347 -472 Q-326 -418 -314.5 -361 Q-303 -304 -303 -235 L-303 -153 L-184 -153 L-184 -232 Q-184 -272 -190 -313.5 Q-196 -355 -207.5 -395 Q-219 -435 -235 -471.5 Q-251 -508 -270 -536 L-347 -472 Z " />
</g>
</glyph>
<glyph glyph-name="Lslash" unicode="&#x141;" horiz-adv-x="1026" d="M176 669 L89 625 L89 735 L176 779 L176 1456 L334 1456 L334 860 L455 922 L455 812 L334 750 L334 133 L712 133 L712 0 L176 0 L176 669 Z " />
<glyph glyph-name="lslash" unicode="&#x142;" horiz-adv-x="588" d="M172 685 L89 636 L89 743 L172 792 L172 1536 L324 1536 L324 883 L404 930 L404 823 L324 776 L324 266 Q324 217 328.5 187 Q333 157 341.5 140.5 Q350 124 362 118.5 Q374 113 389 113 Q403 113 416.5 117 Q430 121 438 125 L438 -2 Q420 -9 396.5 -14.5 Q373 -20 343 -20 Q305 -20 273.5 -5.5 Q242 9 219.5 42.5 Q197 76 184.5 131 Q172 186 172 267 L172 685 Z " />
<glyph glyph-name="Nacute" unicode="&#x143;" horiz-adv-x="982" >
<path fill="black" d="M152 1456 L340 1456 L673 343 L673 1456 L829 1456 L829 0 L641 0 L310 1110 L310 0 L152 0 L152 1456 Z " />
<g transform="translate(277,313)" >
<path fill="black" d="M278 1536 L459 1536 L267 1249 L134 1249 L278 1536 Z " />
</g>
</glyph>
<glyph glyph-name="nacute" unicode="&#x144;" horiz-adv-x="805" >
<path fill="black" d="M137 1082 L281 1082 L286 957 Q319 1025 365 1063.5 Q411 1102 468 1102 Q513 1102 549.5 1080.5 Q586 1059 612.5 1011.5 Q639 964 653 889 Q667 814 667 707 L667 0 L515 0 L515 709 Q515 782 508 832 Q501 882 487.5 913 Q474 944 454 957.5 Q434 971 408 971 Q368 971 338 925 Q308 879 290 809 L290 0 L137 0 L137 1082 Z " />
<g transform="translate(190,-1)" >
<path fill="black" d="M278 1536 L459 1536 L267 1249 L134 1249 L278 1536 Z " />
</g>
</glyph>
<glyph glyph-name="uni0145" unicode="&#x145;" horiz-adv-x="1302" >
<path fill="black" d="M152 1456 L340 1456 L673 343 L673 1456 L829 1456 L829 0 L641 0 L310 1110 L310 0 L152 0 L152 1456 Z " />
<g transform="translate(366,-356)" >
<path fill="black" d="M-347 -472 Q-326 -418 -314.5 -361 Q-303 -304 -303 -235 L-303 -153 L-184 -153 L-184 -232 Q-184 -272 -190 -313.5 Q-196 -355 -207.5 -395 Q-219 -435 -235 -471.5 Q-251 -508 -270 -536 L-347 -472 Z " />
</g>
</glyph>
<glyph glyph-name="uni0146" unicode="&#x146;" horiz-adv-x="1038" >
<path fill="black" d="M137 1082 L281 1082 L286 957 Q319 1025 365 1063.5 Q411 1102 468 1102 Q513 1102 549.5 1080.5 Q586 1059 612.5 1011.5 Q639 964 653 889 Q667 814 667 707 L667 0 L515 0 L515 709 Q515 782 508 832 Q501 882 487.5 913 Q474 944 454 957.5 Q434 971 408 971 Q368 971 338 925 Q308 879 290 809 L290 0 L137 0 L137 1082 Z " />
<g transform="translate(238,-356)" >
<path fill="black" d="M-347 -472 Q-326 -418 -314.5 -361 Q-303 -304 -303 -235 L-303 -153 L-184 -153 L-184 -232 Q-184 -272 -190 -313.5 Q-196 -355 -207.5 -395 Q-219 -435 -235 -471.5 Q-251 -508 -270 -536 L-347 -472 Z " />
</g>
</glyph>
<glyph glyph-name="Ncaron" unicode="&#x147;" horiz-adv-x="982" >
<path fill="black" d="M152 1456 L340 1456 L673 343 L673 1456 L829 1456 L829 0 L641 0 L310 1110 L310 0 L152 0 L152 1456 Z " />
<g transform="translate(148,314)" >
<path fill="black" d="M130 1517 L130 1529 L260 1529 L345 1347 L430 1529 L560 1529 L560 1517 L393 1250 L297 1250 L130 1517 Z " />
</g>
</glyph>
<glyph glyph-name="ncaron" unicode="&#x148;" horiz-adv-x="805" d="M137 1082 L281 1082 L286 957 Q319 1025 365 1063.5 Q411 1102 468 1102 Q513 1102 549.5 1080.5 Q586 1059 612.5 1011.5 Q639 964 653 889 Q667 814 667 707 L667 0 L515 0 L515 709 Q515 782 508 832 Q501 882 487.5 913 Q474 944 454 957.5 Q434 971 408 971 Q368 971 338 925 Q308 879 290 809 L290 0 L137 0 L137 1082 Z M358 1250 L191 1517 L191 1529 L321 1529 L406 1347 L491 1529 L621 1529 L621 1517 L454 1250 L358 1250 Z " />
<glyph glyph-name="Eng" unicode="&#x14a;" horiz-adv-x="973" d="M537 -290 Q550 -296 565.5 -300.5 Q581 -305 595 -305 Q629 -305 648 -247 Q667 -189 667 -85 L667 0 L308 1039 L308 0 L150 0 L150 1456 L308 1456 L667 417 L667 1456 L825 1456 L825 -85 Q825 -256 767.5 -346.5 Q710 -437 610 -437 Q588 -437 569 -433 Q550 -429 529 -419 L537 -290 Z " />
<glyph glyph-name="eng" unicode="&#x14b;" horiz-adv-x="812" d="M391 -288 Q402 -294 418 -298 Q434 -302 448 -302 Q482 -302 501 -248 Q520 -194 520 -89 L520 669 Q520 755 513 813 Q506 871 492.5 906 Q479 941 459 956 Q439 971 414 971 Q372 971 341.5 935 Q311 899 291 839 L291 0 L139 0 L139 1082 L279 1082 L287 931 Q318 1012 363.5 1057 Q409 1102 467 1102 Q513 1102 550.5 1077.5 Q588 1053 615 1000.5 Q642 948 656.5 867 Q671 786 671 672 L671 -89 Q671 -259 615 -348 Q559 -437 461 -437 Q440 -437 421 -433 Q402 -429 382 -419 L391 -288 Z " />
<glyph glyph-name="Omacron" unicode="&#x14c;" horiz-adv-x="961" >
<path fill="black" d="M133 889 Q133 1036 157.5 1146 Q182 1256 227.5 1329.5 Q273 1403 337 1439.5 Q401 1476 479 1476 Q559 1476 623 1439.5 Q687 1403 732 1329.5 Q777 1256 801.5 1146 Q826 1036 826 889 L826 567 Q826 420 801.5 309.5 Q777 199 732 126 Q687 53 623.5 16.5 Q560 -20 481 -20 Q403 -20 338.5 16.5 Q274 53 228.5 126 Q183 199 158 309.5 Q133 420 133 567 L133 889 Z M667 891 Q667 1126 619.5 1232 Q572 1338 479 1338 Q433 1338 398 1312 Q363 1286 339 1231.5 Q315 1177 303 1092.5 Q291 1008 291 891 L291 567 Q291 449 303.5 363.5 Q316 278 340 223.5 Q364 169 399.5 143 Q435 117 481 117 Q527 117 562 143 Q597 169 620 223.5 Q643 278 655 363.5 Q667 449 667 567 L667 891 Z " />
<g transform="translate(118,329)" >
<path fill="black" d="M162 1321 L162 1443 L561 1443 L561 1321 L162 1321 Z " />
</g>
</glyph>
<glyph glyph-name="omacron" unicode="&#x14d;" horiz-adv-x="815" >
<path fill="black" d="M116 605 Q116 732 137.5 825.5 Q159 919 197.5 980.5 Q236 1042 289.5 1072 Q343 1102 406 1102 Q470 1102 523.5 1072 Q577 1042 616 980.5 Q655 919 676.5 825.5 Q698 732 698 605 L698 477 Q698 350 676.5 256.5 Q655 163 616.5 101.5 Q578 40 524.5 10 Q471 -20 408 -20 Q344 -20 290.5 10 Q237 40 198 101.5 Q159 163 137.5 256.5 Q116 350 116 477 L116 605 Z M545 605 Q545 790 507 881.5 Q469 973 406 973 Q346 973 307.5 881.5 Q269 790 269 605 L269 477 Q269 290 308 199.5 Q347 109 408 109 Q477 109 511 199 Q545 289 545 477 L545 605 Z " />
<g transform="translate(42,8)" >
<path fill="black" d="M162 1321 L162 1443 L561 1443 L561 1321 L162 1321 Z " />
</g>
</glyph>
<glyph glyph-name="Ohungarumlaut" unicode="&#x150;" horiz-adv-x="961" d="M133 889 Q133 1036 157.5 1146 Q182 1256 227.5 1329.5 Q273 1403 337 1439.5 Q401 1476 479 1476 Q559 1476 623 1439.5 Q687 1403 732 1329.5 Q777 1256 801.5 1146 Q826 1036 826 889 L826 567 Q826 420 801.5 309.5 Q777 199 732 126 Q687 53 623.5 16.5 Q560 -20 481 -20 Q403 -20 338.5 16.5 Q274 53 228.5 126 Q183 199 158 309.5 Q133 420 133 567 L133 889 Z M667 891 Q667 1126 619.5 1232 Q572 1338 479 1338 Q433 1338 398 1312 Q363 1286 339 1231.5 Q315 1177 303 1092.5 Q291 1008 291 891 L291 567 Q291 449 303.5 363.5 Q316 278 340 223.5 Q364 169 399.5 143 Q435 117 481 117 Q527 117 562 143 Q597 169 620 223.5 Q643 278 655 363.5 Q667 449 667 567 L667 891 Z M636 1855 L779 1855 L625 1552 L506 1552 L636 1855 Z M417 1855 L558 1855 L427 1552 L313 1552 L417 1855 Z " />
<glyph glyph-name="ohungarumlaut" unicode="&#x151;" horiz-adv-x="815" d="M116 605 Q116 732 137.5 825.5 Q159 919 197.5 980.5 Q236 1042 289.5 1072 Q343 1102 406 1102 Q470 1102 523.5 1072 Q577 1042 616 980.5 Q655 919 676.5 825.5 Q698 732 698 605 L698 477 Q698 350 676.5 256.5 Q655 163 616.5 101.5 Q578 40 524.5 10 Q471 -20 408 -20 Q344 -20 290.5 10 Q237 40 198 101.5 Q159 163 137.5 256.5 Q116 350 116 477 L116 605 Z M545 605 Q545 790 507 881.5 Q469 973 406 973 Q346 973 307.5 881.5 Q269 790 269 605 L269 477 Q269 290 308 199.5 Q347 109 408 109 Q477 109 511 199 Q545 289 545 477 L545 605 Z M560 1534 L703 1534 L549 1231 L430 1231 L560 1534 Z M341 1534 L482 1534 L351 1231 L237 1231 L341 1534 Z " />
<glyph glyph-name="OE" unicode="&#x152;" horiz-adv-x="1717" d="M127 880 Q127 1012 152 1122 Q177 1232 222 1311 Q267 1390 330 1433.5 Q393 1477 469 1477 Q514 1477 556.5 1470.5 Q599 1464 639 1456 L1155 1456 L1155 1324 L757 1324 L757 817 L1100 817 L1100 686 L757 686 L757 133 L1158 133 L1158 0 L639 0 Q599 -8 557.5 -14.5 Q516 -21 471 -21 Q395 -21 331.5 22.5 Q268 66 222.5 145 Q177 224 152 334 Q127 444 127 576 L127 880 Z M599 1335 Q540 1348 469 1348 Q426 1348 390.5 1317 Q355 1286 330.5 1226.5 Q306 1167 292.5 1080.5 Q279 994 279 882 L279 576 Q279 465 292.5 378 Q306 291 331 231 Q356 171 391.5 139.5 Q427 108 471 108 Q504 108 536.5 111 Q569 114 599 121 L599 1335 Z " />
<glyph glyph-name="oe" unicode="&#x153;" horiz-adv-x="1214" d="M121 555 Q121 673 140.5 773 Q160 873 197.5 946 Q235 1019 289 1060.5 Q343 1102 413 1102 Q484 1102 538.5 1059.5 Q593 1017 631 942 Q668 1018 720 1060 Q772 1102 836 1102 Q902 1102 951.5 1067.5 Q1001 1033 1034 971 Q1067 909 1084 821.5 Q1101 734 1101 629 L1101 516 L711 516 Q711 431 720.5 357 Q730 283 749 227.5 Q768 172 797.5 140 Q827 108 866 108 Q897 108 922 116.5 Q947 125 968 140 Q989 155 1006.5 176 Q1024 197 1041 221 L1087 116 Q1071 89 1048 64 Q1025 39 995.5 20.5 Q966 2 930.5 -9.5 Q895 -21 853 -21 Q782 -21 726 22 Q670 65 632 141 Q594 65 540 22 Q486 -21 414 -21 Q344 -21 289.5 20.5 Q235 62 197.5 135 Q160 208 140.5 308.5 Q121 409 121 527 L121 555 Z M274 527 Q274 442 281.5 366 Q289 290 306 232.5 Q323 175 349.5 141.5 Q376 108 414 108 Q451 108 477.5 141.5 Q504 175 520.5 232.5 Q537 290 544.5 366 Q552 442 552 527 L552 555 Q552 638 544.5 714 Q537 790 520 847.5 Q503 905 477 939 Q451 973 413 973 Q376 973 349.5 939 Q323 905 306 847.5 Q289 790 281.5 714 Q274 638 274 555 L274 527 Z M952 645 L952 673 Q952 733 945.5 787.5 Q939 842 925 883.5 Q911 925 889 949 Q867 973 836 973 Q809 973 787.5 948 Q766 923 750.5 879.5 Q735 836 725.5 776 Q716 716 713 645 L952 645 Z " />
<glyph glyph-name="Racute" unicode="&#x154;" horiz-adv-x="891" >
<path fill="black" d="M152 1456 L458 1456 Q604 1456 684.5 1345.5 Q765 1235 765 1023 Q765 954 754 892.5 Q743 831 722.5 781 Q702 731 673 693 Q644 655 607 632 L798 12 L798 0 L629 0 L450 598 L311 598 L311 0 L152 0 L152 1456 Z M311 730 L458 730 Q495 730 523 753.5 Q551 777 569.5 817 Q588 857 597.5 910 Q607 963 607 1023 Q607 1091 598 1146.5 Q589 1202 570.5 1241.5 Q552 1281 524 1302.5 Q496 1324 458 1324 L311 1324 L311 730 Z " />
<g transform="translate(204,313)" >
<path fill="black" d="M278 1536 L459 1536 L267 1249 L134 1249 L278 1536 Z " />
</g>
</glyph>
<glyph glyph-name="racute" unicode="&#x155;" horiz-adv-x="565" >
<path fill="black" d="M139 1082 L284 1082 L290 956 Q313 1024 348 1063 Q383 1102 430 1102 Q443 1102 457.5 1098 Q472 1094 480 1089 L479 927 Q466 931 450 932.5 Q434 934 420 934 Q370 934 338.5 893 Q307 852 292 778 L292 0 L139 0 L139 1082 Z " />
<g transform="translate(93,-1)" >
<path fill="black" d="M278 1536 L459 1536 L267 1249 L134 1249 L278 1536 Z " />
</g>
</glyph>
<glyph glyph-name="uni0156" unicode="&#x156;" horiz-adv-x="1116" >
<path fill="black" d="M152 1456 L458 1456 Q604 1456 684.5 1345.5 Q765 1235 765 1023 Q765 954 754 892.5 Q743 831 722.5 781 Q702 731 673 693 Q644 655 607 632 L798 12 L798 0 L629 0 L450 598 L311 598 L311 0 L152 0 L152 1456 Z M311 730 L458 730 Q495 730 523 753.5 Q551 777 569.5 817 Q588 857 597.5 910 Q607 963 607 1023 Q607 1091 598 1146.5 Q589 1202 570.5 1241.5 Q552 1281 524 1302.5 Q496 1324 458 1324 L311 1324 L311 730 Z " />
<g transform="translate(282,-356)" >
<path fill="black" d="M-347 -472 Q-326 -418 -314.5 -361 Q-303 -304 -303 -235 L-303 -153 L-184 -153 L-184 -232 Q-184 -272 -190 -313.5 Q-196 -355 -207.5 -395 Q-219 -435 -235 -471.5 Q-251 -508 -270 -536 L-347 -472 Z " />
</g>
</glyph>
<glyph glyph-name="uni0157" unicode="&#x157;" horiz-adv-x="688" >
<path fill="black" d="M139 1082 L284 1082 L290 956 Q313 1024 348 1063 Q383 1102 430 1102 Q443 1102 457.5 1098 Q472 1094 480 1089 L479 927 Q466 931 450 932.5 Q434 934 420 934 Q370 934 338.5 893 Q307 852 292 778 L292 0 L139 0 L139 1082 Z " />
<g transform="translate(4,-356)" >
<path fill="black" d="M-347 -472 Q-326 -418 -314.5 -361 Q-303 -304 -303 -235 L-303 -153 L-184 -153 L-184 -232 Q-184 -272 -190 -313.5 Q-196 -355 -207.5 -395 Q-219 -435 -235 -471.5 Q-251 -508 -270 -536 L-347 -472 Z " />
</g>
</glyph>
<glyph glyph-name="Rcaron" unicode="&#x158;" horiz-adv-x="891" d="M152 1456 L458 1456 Q604 1456 684.5 1345.5 Q765 1235 765 1023 Q765 954 754 892.5 Q743 831 722.5 781 Q702 731 673 693 Q644 655 607 632 L798 12 L798 0 L629 0 L450 598 L311 598 L311 0 L152 0 L152 1456 Z M311 730 L458 730 Q495 730 523 753.5 Q551 777 569.5 817 Q588 857 597.5 910 Q607 963 607 1023 Q607 1091 598 1146.5 Q589 1202 570.5 1241.5 Q552 1281 524 1302.5 Q496 1324 458 1324 L311 1324 L311 730 Z M372 1564 L205 1831 L205 1843 L335 1843 L420 1661 L505 1843 L635 1843 L635 1831 L468 1564 L372 1564 Z " />
<glyph glyph-name="rcaron" unicode="&#x159;" horiz-adv-x="565" >
<path fill="black" d="M139 1082 L284 1082 L290 956 Q313 1024 348 1063 Q383 1102 430 1102 Q443 1102 457.5 1098 Q472 1094 480 1089 L479 927 Q466 931 450 932.5 Q434 934 420 934 Q370 934 338.5 893 Q307 852 292 778 L292 0 L139 0 L139 1082 Z " />
<g transform="translate(-36,0)" >
<path fill="black" d="M130 1517 L130 1529 L260 1529 L345 1347 L430 1529 L560 1529 L560 1517 L393 1250 L297 1250 L130 1517 Z " />
</g>
</glyph>
<glyph glyph-name="Sacute" unicode="&#x15a;" horiz-adv-x="863" >
<path fill="black" d="M271 420 Q271 337 284 278.5 Q297 220 321 183.5 Q345 147 377.5 130 Q410 113 449 113 Q521 113 556.5 181 Q592 249 592 364 Q592 420 585 462.5 Q578 505 558.5 540 Q539 575 505.5 605.5 Q472 636 418 667 Q359 698 307.5 736 Q256 774 218.5 824 Q181 874 159.5 939 Q138 1004 138 1089 Q138 1174 160.5 1245 Q183 1316 223.5 1367.5 Q264 1419 320 1447.5 Q376 1476 444 1476 Q515 1476 571.5 1440.5 Q628 1405 668 1345 Q708 1285 729 1206 Q750 1127 750 1039 L592 1039 Q592 1104 583 1160 Q574 1216 555 1257 Q536 1298 508 1321 Q480 1344 441 1344 Q404 1344 377 1324.5 Q350 1305 332 1271 Q314 1237 305 1191 Q296 1145 296 1092 Q296 995 340.5 928 Q385 861 472 807 Q542 774 594 733 Q646 692 681 639.5 Q716 587 733.5 519.5 Q751 452 751 366 Q751 277 729.5 205.5 Q708 134 668.5 84 Q629 34 573.5 7 Q518 -20 449 -20 Q387 -20 326.5 6.5 Q266 33 218.5 87.5 Q171 142 141.5 225 Q112 308 112 420 L271 420 Z " />
<g transform="translate(226,320)" >
<path fill="black" d="M278 1536 L459 1536 L267 1249 L134 1249 L278 1536 Z " />
</g>
</glyph>
<glyph glyph-name="sacute" unicode="&#x15b;" horiz-adv-x="753" >
<path fill="black" d="M256 307 Q258 247 268.5 208.5 Q279 170 296 148 Q313 126 335 117.5 Q357 109 381 109 Q433 109 460 153.5 Q487 198 487 269 Q487 302 478 328.5 Q469 355 451 379.5 Q433 404 405 428 Q377 452 339 480 Q288 517 249 549 Q210 581 183.5 618 Q157 655 143.5 700 Q130 745 130 807 Q130 870 147 923.5 Q164 977 196 1017 Q228 1057 273.5 1079.5 Q319 1102 376 1102 Q436 1102 483.5 1078 Q531 1054 564 1011.5 Q597 969 614.5 910.5 Q632 852 632 782 L480 782 Q480 820 473.5 854.5 Q467 889 454 915 Q441 941 421.5 957 Q402 973 376 973 Q351 973 332.5 959.5 Q314 946 302 924 Q290 902 284 873 Q278 844 278 813 Q278 782 284.5 758 Q291 734 306.5 712.5 Q322 691 349 669.5 Q376 648 416 620 Q470 583 511 549.5 Q552 516 579.5 477.5 Q607 439 621.5 392 Q636 345 636 280 Q636 211 618 155.5 Q600 100 566 61 Q532 22 484.5 1 Q437 -20 378 -20 Q312 -20 262 7 Q212 34 178 79 Q144 124 126.5 183 Q109 242 109 307 L256 307 Z " />
<g transform="translate(169,-1)" >
<path fill="black" d="M278 1536 L459 1536 L267 1249 L134 1249 L278 1536 Z " />
</g>
</glyph>
<glyph glyph-name="Scedilla" unicode="&#x15e;" horiz-adv-x="863" d="M385 -345 Q417 -345 437.5 -320 Q458 -295 458 -236 Q458 -183 438.5 -162.5 Q419 -142 372 -134 L389 -14 Q335 -3 284.5 29.5 Q234 62 196 116 Q158 170 135 245.5 Q112 321 112 420 L271 420 Q271 337 284 278.5 Q297 220 321 183.5 Q345 147 377.5 130 Q410 113 449 113 Q521 113 556.5 181 Q592 249 592 364 Q592 420 585 462.5 Q578 505 558.5 540 Q539 575 505.5 605.5 Q472 636 418 667 Q359 698 307.5 736 Q256 774 218.5 824 Q181 874 159.5 939 Q138 1004 138 1089 Q138 1174 160.5 1245 Q183 1316 223.5 1367.5 Q264 1419 320 1447.5 Q376 1476 444 1476 Q515 1476 571.5 1440.5 Q628 1405 668 1345 Q708 1285 729 1206 Q750 1127 750 1039 L592 1039 Q592 1104 583 1160 Q574 1216 555 1257 Q536 1298 508 1321 Q480 1344 441 1344 Q404 1344 377 1324.5 Q350 1305 332 1271 Q314 1237 305 1191 Q296 1145 296 1092 Q296 995 340.5 928 Q385 861 472 807 Q542 774 594 733 Q646 692 681 639.5 Q716 587 733.5 519.5 Q751 452 751 366 Q751 286 733.5 220 Q716 154 684 105 Q652 56 605.5 25.5 Q559 -5 502 -15 L497 -61 Q513 -66 528.5 -77 Q544 -88 556.5 -108 Q569 -128 576.5 -159 Q584 -190 584 -233 Q584 -325 535 -381.5 Q486 -438 389 -438 L385 -345 Z " />
<glyph glyph-name="scedilla" unicode="&#x15f;" horiz-adv-x="753" d="M325 -351 Q357 -351 377.5 -326 Q398 -301 398 -242 Q398 -189 378.5 -168.5 Q359 -148 312 -140 L330 -16 Q276 -6 234.5 23.5 Q193 53 165.5 96.5 Q138 140 123.5 194.5 Q109 249 109 307 L256 307 Q258 247 268.5 208.5 Q279 170 296 148 Q313 126 335 117.5 Q357 109 381 109 Q433 109 460 153.5 Q487 198 487 269 Q487 302 478 328.5 Q469 355 451 379.5 Q433 404 405 428 Q377 452 339 480 Q288 517 249 549 Q210 581 183.5 618 Q157 655 143.5 700 Q130 745 130 807 Q130 870 147 923.5 Q164 977 196 1017 Q228 1057 273.5 1079.5 Q319 1102 376 1102 Q436 1102 483.5 1078 Q531 1054 564 1011.5 Q597 969 614.5 910.5 Q632 852 632 782 L480 782 Q480 820 473.5 854.5 Q467 889 454 915 Q441 941 421.5 957 Q402 973 376 973 Q351 973 332.5 959.5 Q314 946 302 924 Q290 902 284 873 Q278 844 278 813 Q278 782 284.5 758 Q291 734 306.5 712.5 Q322 691 349 669.5 Q376 648 416 620 Q470 583 511 549.5 Q552 516 579.5 477.5 Q607 439 621.5 392 Q636 345 636 280 Q636 161 585 84.5 Q534 8 444 -13 L437 -67 Q453 -72 468.5 -83 Q484 -94 496.5 -114 Q509 -134 516.5 -165 Q524 -196 524 -239 Q524 -331 475 -387.5 Q426 -444 329 -444 L325 -351 Z " />
<glyph glyph-name="Scaron" unicode="&#x160;" horiz-adv-x="863" >
<path fill="black" d="M271 420 Q271 337 284 278.5 Q297 220 321 183.5 Q345 147 377.5 130 Q410 113 449 113 Q521 113 556.5 181 Q592 249 592 364 Q592 420 585 462.5 Q578 505 558.5 540 Q539 575 505.5 605.5 Q472 636 418 667 Q359 698 307.5 736 Q256 774 218.5 824 Q181 874 159.5 939 Q138 1004 138 1089 Q138 1174 160.5 1245 Q183 1316 223.5 1367.5 Q264 1419 320 1447.5 Q376 1476 444 1476 Q515 1476 571.5 1440.5 Q628 1405 668 1345 Q708 1285 729 1206 Q750 1127 750 1039 L592 1039 Q592 1104 583 1160 Q574 1216 555 1257 Q536 1298 508 1321 Q480 1344 441 1344 Q404 1344 377 1324.5 Q350 1305 332 1271 Q314 1237 305 1191 Q296 1145 296 1092 Q296 995 340.5 928 Q385 861 472 807 Q542 774 594 733 Q646 692 681 639.5 Q716 587 733.5 519.5 Q751 452 751 366 Q751 277 729.5 205.5 Q708 134 668.5 84 Q629 34 573.5 7 Q518 -20 449 -20 Q387 -20 326.5 6.5 Q266 33 218.5 87.5 Q171 142 141.5 225 Q112 308 112 420 L271 420 Z " />
<g transform="translate(97,321)" >
<path fill="black" d="M130 1517 L130 1529 L260 1529 L345 1347 L430 1529 L560 1529 L560 1517 L393 1250 L297 1250 L130 1517 Z " />
</g>
</glyph>
<glyph glyph-name="scaron" unicode="&#x161;" horiz-adv-x="753" >
<path fill="black" d="M256 307 Q258 247 268.5 208.5 Q279 170 296 148 Q313 126 335 117.5 Q357 109 381 109 Q433 109 460 153.5 Q487 198 487 269 Q487 302 478 328.5 Q469 355 451 379.5 Q433 404 405 428 Q377 452 339 480 Q288 517 249 549 Q210 581 183.5 618 Q157 655 143.5 700 Q130 745 130 807 Q130 870 147 923.5 Q164 977 196 1017 Q228 1057 273.5 1079.5 Q319 1102 376 1102 Q436 1102 483.5 1078 Q531 1054 564 1011.5 Q597 969 614.5 910.5 Q632 852 632 782 L480 782 Q480 820 473.5 854.5 Q467 889 454 915 Q441 941 421.5 957 Q402 973 376 973 Q351 973 332.5 959.5 Q314 946 302 924 Q290 902 284 873 Q278 844 278 813 Q278 782 284.5 758 Q291 734 306.5 712.5 Q322 691 349 669.5 Q376 648 416 620 Q470 583 511 549.5 Q552 516 579.5 477.5 Q607 439 621.5 392 Q636 345 636 280 Q636 211 618 155.5 Q600 100 566 61 Q532 22 484.5 1 Q437 -20 378 -20 Q312 -20 262 7 Q212 34 178 79 Q144 124 126.5 183 Q109 242 109 307 L256 307 Z " />
<g transform="translate(40,0)" >
<path fill="black" d="M130 1517 L130 1529 L260 1529 L345 1347 L430 1529 L560 1529 L560 1517 L393 1250 L297 1250 L130 1517 Z " />
</g>
</glyph>
<glyph glyph-name="uni0162" unicode="&#x162;" horiz-adv-x="869" d="M374 -342 Q406 -342 426.5 -317 Q447 -292 447 -233 Q447 -180 427.5 -159.5 Q408 -139 361 -131 L380 0 L354 0 L354 1324 L95 1324 L95 1456 L774 1456 L774 1324 L513 1324 L513 0 L493 0 L486 -58 Q502 -63 517.5 -74 Q533 -85 545.5 -105 Q558 -125 565.5 -156 Q573 -187 573 -230 Q573 -322 524 -378.5 Q475 -435 378 -435 L374 -342 Z " />
<glyph glyph-name="uni0163" unicode="&#x163;" horiz-adv-x="538" d="M267 -342 Q299 -342 319.5 -317 Q340 -292 340 -233 Q340 -180 320.5 -159.5 Q301 -139 254 -131 L272 -4 Q227 19 200.5 83 Q174 147 174 267 L174 961 L76 961 L76 1082 L174 1082 L174 1352 L326 1352 L326 1082 L436 1082 L436 961 L326 961 L326 266 Q326 217 330.5 187 Q335 157 343.5 140.5 Q352 124 364 118.5 Q376 113 391 113 Q405 113 418.5 117 Q432 121 440 125 L440 -2 Q428 -7 414.5 -11 Q401 -15 384 -17 L379 -58 Q395 -63 410.5 -74 Q426 -85 438.5 -105 Q451 -125 458.5 -156 Q466 -187 466 -230 Q466 -322 417 -378.5 Q368 -435 271 -435 L267 -342 Z " />
<glyph glyph-name="Tcaron" unicode="&#x164;" horiz-adv-x="869" d="M354 1324 L95 1324 L95 1456 L774 1456 L774 1324 L513 1324 L513 0 L354 0 L354 1324 Z M386 1561 L219 1828 L219 1840 L349 1840 L434 1658 L519 1840 L649 1840 L649 1828 L482 1561 L386 1561 Z " />
<glyph glyph-name="tcaron" unicode="&#x165;" horiz-adv-x="705" d="M174 961 L129 961 Q120 938 109.5 917.5 Q99 897 87 880 L10 944 Q31 998 42.5 1055 Q54 1112 54 1181 L54 1263 L173 1263 L173 1184 Q173 1133 164 1082 L174 1082 L174 1352 L326 1352 L326 1082 L436 1082 L436 961 L326 961 L326 266 Q326 217 330.5 187 Q335 157 343.5 140.5 Q352 124 364 118.5 Q376 113 391 113 Q405 113 418.5 117 Q432 121 440 125 L440 -2 Q422 -9 398.5 -14.5 Q375 -20 345 -20 Q307 -20 275.5 -5.5 Q244 9 221.5 42.5 Q199 76 186.5 131 Q174 186 174 267 L174 961 Z " />
<glyph glyph-name="Tbar" unicode="&#x166;" horiz-adv-x="869" d="M354 829 L230 829 L230 957 L354 957 L354 1324 L95 1324 L95 1456 L774 1456 L774 1324 L513 1324 L513 957 L627 957 L627 829 L513 829 L513 0 L354 0 L354 829 Z " />
<glyph glyph-name="tbar" unicode="&#x167;" horiz-adv-x="538" d="M174 610 L55 610 L55 738 L174 738 L174 961 L76 961 L76 1082 L174 1082 L174 1352 L326 1352 L326 1082 L436 1082 L436 961 L326 961 L326 738 L452 738 L452 610 L326 610 L326 266 Q326 217 330.5 187 Q335 157 343.5 140.5 Q352 124 364 118.5 Q376 113 391 113 Q405 113 418.5 117 Q432 121 440 125 L440 -2 Q422 -9 398.5 -14.5 Q375 -20 345 -20 Q307 -20 275.5 -5.5 Q244 9 221.5 42.5 Q199 76 186.5 131 Q174 186 174 267 L174 610 Z " />
<glyph glyph-name="Utilde" unicode="&#x168;" horiz-adv-x="921" >
<path fill="black" d="M141 1456 L299 1456 L299 421 Q299 331 310.5 271 Q322 211 343 175.5 Q364 140 394 125.5 Q424 111 461 111 Q499 111 528.5 125.5 Q558 140 578.5 175.5 Q599 211 610 271 Q621 331 621 421 L621 1456 L780 1456 L780 421 Q780 298 755.5 213.5 Q731 129 688 77.5 Q645 26 587 3 Q529 -20 461 -20 Q392 -20 333 3 Q274 26 231.5 77.5 Q189 129 165 213.5 Q141 298 141 421 L141 1456 Z " />
<g transform="translate(103,319)" >
<path fill="black" d="M141 1257 Q141 1308 150.5 1350.5 Q160 1393 177.5 1423.5 Q195 1454 218.5 1470.5 Q242 1487 270 1487 Q294 1487 313.5 1471 Q333 1455 351 1436.5 Q369 1418 388 1402 Q407 1386 429 1386 Q450 1386 465 1419 Q480 1452 480 1503 L570 1494 Q570 1442 560.5 1400 Q551 1358 533.5 1328 Q516 1298 492.5 1281.5 Q469 1265 441 1265 Q413 1265 393 1281 Q373 1297 356.5 1316 Q340 1335 323 1351 Q306 1367 283 1367 Q261 1367 246.5 1335.5 Q232 1304 232 1253 L141 1257 Z " />
</g>
</glyph>
<glyph glyph-name="utilde" unicode="&#x169;" horiz-adv-x="804" >
<path fill="black" d="M518 104 Q489 45 446 12.5 Q403 -20 344 -20 Q298 -20 259.5 2.5 Q221 25 193.5 74 Q166 123 151 200.5 Q136 278 136 387 L136 1082 L288 1082 L288 385 Q288 306 295.5 253.5 Q303 201 316 169.5 Q329 138 346.5 125.5 Q364 113 383 113 Q434 113 465 152 Q496 191 513 256 L513 1082 L667 1082 L667 0 L522 0 L518 104 Z " />
<g transform="translate(46,6)" >
<path fill="black" d="M141 1257 Q141 1308 150.5 1350.5 Q160 1393 177.5 1423.5 Q195 1454 218.5 1470.5 Q242 1487 270 1487 Q294 1487 313.5 1471 Q333 1455 351 1436.5 Q369 1418 388 1402 Q407 1386 429 1386 Q450 1386 465 1419 Q480 1452 480 1503 L570 1494 Q570 1442 560.5 1400 Q551 1358 533.5 1328 Q516 1298 492.5 1281.5 Q469 1265 441 1265 Q413 1265 393 1281 Q373 1297 356.5 1316 Q340 1335 323 1351 Q306 1367 283 1367 Q261 1367 246.5 1335.5 Q232 1304 232 1253 L141 1257 Z " />
</g>
</glyph>
<glyph glyph-name="Umacron" unicode="&#x16a;" horiz-adv-x="921" >
<path fill="black" d="M141 1456 L299 1456 L299 421 Q299 331 310.5 271 Q322 211 343 175.5 Q364 140 394 125.5 Q424 111 461 111 Q499 111 528.5 125.5 Q558 140 578.5 175.5 Q599 211 610 271 Q621 331 621 421 L621 1456 L780 1456 L780 421 Q780 298 755.5 213.5 Q731 129 688 77.5 Q645 26 587 3 Q529 -20 461 -20 Q392 -20 333 3 Q274 26 231.5 77.5 Q189 129 165 213.5 Q141 298 141 421 L141 1456 Z " />
<g transform="translate(97,322)" >
<path fill="black" d="M162 1321 L162 1443 L561 1443 L561 1321 L162 1321 Z " />
</g>
</glyph>
<glyph glyph-name="umacron" unicode="&#x16b;" horiz-adv-x="804" d="M518 104 Q489 45 446 12.5 Q403 -20 344 -20 Q298 -20 259.5 2.5 Q221 25 193.5 74 Q166 123 151 200.5 Q136 278 136 387 L136 1082 L288 1082 L288 385 Q288 306 295.5 253.5 Q303 201 316 169.5 Q329 138 346.5 125.5 Q364 113 383 113 Q434 113 465 152 Q496 191 513 256 L513 1082 L667 1082 L667 0 L522 0 L518 104 Z M202 1452 L601 1452 L601 1330 L202 1330 L202 1452 Z " />
<glyph glyph-name="Uring" unicode="&#x16e;" horiz-adv-x="921" >
<path fill="black" d="M141 1456 L299 1456 L299 421 Q299 331 310.5 271 Q322 211 343 175.5 Q364 140 394 125.5 Q424 111 461 111 Q499 111 528.5 125.5 Q558 140 578.5 175.5 Q599 211 610 271 Q621 331 621 421 L621 1456 L780 1456 L780 421 Q780 298 755.5 213.5 Q731 129 688 77.5 Q645 26 587 3 Q529 -20 461 -20 Q392 -20 333 3 Q274 26 231.5 77.5 Q189 129 165 213.5 Q141 298 141 421 L141 1456 Z " />
<g transform="translate(165,321)" >
<path fill="black" d="M296 1207 Q262 1207 234 1222 Q206 1237 185.5 1263 Q165 1289 154 1325 Q143 1361 143 1403 Q143 1445 154 1481.5 Q165 1518 185.5 1545 Q206 1572 234 1587.5 Q262 1603 296 1603 Q329 1603 356.5 1587.5 Q384 1572 404.5 1545 Q425 1518 436 1481.5 Q447 1445 447 1403 Q447 1361 436 1325 Q425 1289 404.5 1263 Q384 1237 356.5 1222 Q329 1207 296 1207 Z M296 1287 Q333 1287 353 1321 Q373 1355 373 1403 Q373 1427 368 1448.5 Q363 1470 353 1486.5 Q343 1503 328.5 1512.5 Q314 1522 296 1522 Q277 1522 262.5 1512.5 Q248 1503 238 1486.5 Q228 1470 222.5 1448.5 Q217 1427 217 1403 Q217 1380 222.5 1359 Q228 1338 238 1322 Q248 1306 262.5 1296.5 Q277 1287 296 1287 Z " />
</g>
</glyph>
<glyph glyph-name="uring" unicode="&#x16f;" horiz-adv-x="804" d="M518 104 Q489 45 446 12.5 Q403 -20 344 -20 Q298 -20 259.5 2.5 Q221 25 193.5 74 Q166 123 151 200.5 Q136 278 136 387 L136 1082 L288 1082 L288 385 Q288 306 295.5 253.5 Q303 201 316 169.5 Q329 138 346.5 125.5 Q364 113 383 113 Q434 113 465 152 Q496 191 513 256 L513 1082 L667 1082 L667 0 L522 0 L518 104 Z M404 1215 Q370 1215 342 1230 Q314 1245 293.5 1271 Q273 1297 262 1333 Q251 1369 251 1411 Q251 1453 262 1489.5 Q273 1526 293.5 1553 Q314 1580 342 1595.5 Q370 1611 404 1611 Q437 1611 464.5 1595.5 Q492 1580 512.5 1553 Q533 1526 544 1489.5 Q555 1453 555 1411 Q555 1369 544 1333 Q533 1297 512.5 1271 Q492 1245 464.5 1230 Q437 1215 404 1215 Z M404 1295 Q441 1295 461 1329 Q481 1363 481 1411 Q481 1435 476 1456.5 Q471 1478 461 1494.5 Q451 1511 436.5 1520.5 Q422 1530 404 1530 Q385 1530 370.5 1520.5 Q356 1511 346 1494.5 Q336 1478 330.5 1456.5 Q325 1435 325 1411 Q325 1388 330.5 1367 Q336 1346 346 1330 Q356 1314 370.5 1304.5 Q385 1295 404 1295 Z " />
<glyph glyph-name="Uhungarumlaut" unicode="&#x170;" horiz-adv-x="921" d="M141 1456 L299 1456 L299 421 Q299 331 310.5 271 Q322 211 343 175.5 Q364 140 394 125.5 Q424 111 461 111 Q499 111 528.5 125.5 Q558 140 578.5 175.5 Q599 211 610 271 Q621 331 621 421 L621 1456 L780 1456 L780 421 Q780 298 755.5 213.5 Q731 129 688 77.5 Q645 26 587 3 Q529 -20 461 -20 Q392 -20 333 3 Q274 26 231.5 77.5 Q189 129 165 213.5 Q141 298 141 421 L141 1456 Z M615 1848 L758 1848 L604 1545 L485 1545 L615 1848 Z M396 1848 L537 1848 L406 1545 L292 1545 L396 1848 Z " />
<glyph glyph-name="uhungarumlaut" unicode="&#x171;" horiz-adv-x="804" d="M518 104 Q489 45 446 12.5 Q403 -20 344 -20 Q298 -20 259.5 2.5 Q221 25 193.5 74 Q166 123 151 200.5 Q136 278 136 387 L136 1082 L288 1082 L288 385 Q288 306 295.5 253.5 Q303 201 316 169.5 Q329 138 346.5 125.5 Q364 113 383 113 Q434 113 465 152 Q496 191 513 256 L513 1082 L667 1082 L667 0 L522 0 L518 104 Z M428 1232 L558 1535 L701 1535 L547 1232 L428 1232 Z M339 1535 L480 1535 L349 1232 L235 1232 L339 1535 Z " />
<glyph glyph-name="Uogonek" unicode="&#x172;" horiz-adv-x="921" d="M461 -20 Q392 -20 333 3 Q274 26 231.5 77.5 Q189 129 165 213.5 Q141 298 141 421 L141 1456 L299 1456 L299 421 Q299 331 310.5 271 Q322 211 343 175.5 Q364 140 394 125.5 Q424 111 461 111 Q499 111 528.5 125.5 Q558 140 578.5 175.5 Q599 211 610 271 Q621 331 621 421 L621 1456 L780 1456 L780 421 Q780 264 740.5 169.5 Q701 75 636 29 Q598 -19 576 -71 Q554 -123 554 -185 Q554 -220 563 -242 Q572 -264 594 -264 Q611 -264 623 -253.5 Q635 -243 643 -235 L658 -339 Q644 -354 620.5 -368.5 Q597 -383 562 -383 Q510 -383 473 -337 Q436 -291 436 -202 Q436 -155 446 -109 Q456 -63 480 -20 L461 -20 Z " />
<glyph glyph-name="uogonek" unicode="&#x173;" horiz-adv-x="804" d="M663 -381 Q649 -396 625.5 -410.5 Q602 -425 567 -425 Q515 -425 478 -379 Q441 -333 441 -244 Q441 -180 460.5 -117.5 Q480 -55 528 0 L522 0 L518 104 Q489 45 446 12.5 Q403 -20 344 -20 Q298 -20 259.5 2.5 Q221 25 193.5 74 Q166 123 151 200.5 Q136 278 136 387 L136 1082 L288 1082 L288 385 Q288 306 295.5 253.5 Q303 201 316 169.5 Q329 138 346.5 125.5 Q364 113 383 113 Q434 113 465 152 Q496 191 513 256 L513 1082 L667 1082 L667 0 L651 0 Q609 -51 584 -106 Q559 -161 559 -227 Q559 -262 568 -284 Q577 -306 599 -306 Q616 -306 628 -295.5 Q640 -285 648 -277 L663 -381 Z " />
<glyph glyph-name="Wcircumflex" unicode="&#x174;" horiz-adv-x="1185" >
<path fill="black" d="M95 1456 L253 1456 L368 340 L508 1456 L683 1456 L823 341 L937 1456 L1094 1456 L913 0 L737 0 L596 1123 L454 0 L277 0 L95 1456 Z " />
<g transform="translate(240,313)" >
<path fill="black" d="M150 1268 L313 1532 L402 1532 L568 1266 L568 1256 L447 1256 L358 1431 L270 1256 L150 1256 L150 1268 Z " />
</g>
</glyph>
<glyph glyph-name="wcircumflex" unicode="&#x175;" horiz-adv-x="1020" >
<path fill="black" d="M89 1082 L237 1082 L329 333 L452 1082 L565 1082 L690 328 L781 1082 L929 1082 L763 0 L636 0 L509 793 L382 0 L254 0 L89 1082 Z " />
<g transform="translate(150,0)" >
<path fill="black" d="M150 1268 L313 1532 L402 1532 L568 1266 L568 1256 L447 1256 L358 1431 L270 1256 L150 1256 L150 1268 Z " />
</g>
</glyph>
<glyph glyph-name="Ycircumflex" unicode="&#x176;" horiz-adv-x="869" >
<path fill="black" d="M355 546 L73 1456 L248 1456 L434 695 L621 1456 L795 1456 L514 546 L514 0 L355 0 L355 546 Z " />
<g transform="translate(79,309)" >
<path fill="black" d="M150 1268 L313 1532 L402 1532 L568 1266 L568 1256 L447 1256 L358 1431 L270 1256 L150 1256 L150 1268 Z " />
</g>
</glyph>
<glyph glyph-name="ycircumflex" unicode="&#x177;" horiz-adv-x="728" >
<path fill="black" d="M133 -297 Q138 -299 146.5 -300.5 Q155 -302 160 -302 Q185 -302 202.5 -291 Q220 -280 233 -257.5 Q246 -235 256.5 -200 Q267 -165 279 -116 L302 -20 L301 -21 L75 1082 L240 1082 L364 300 L490 1082 L653 1082 L401 -171 Q393 -210 379.5 -256 Q366 -302 343 -342.5 Q320 -383 286 -410 Q252 -437 204 -437 Q183 -437 166.5 -431.5 Q150 -426 133 -422 L133 -297 Z " />
<g transform="translate(13,0)" >
<path fill="black" d="M150 1268 L313 1532 L402 1532 L568 1266 L568 1256 L447 1256 L358 1431 L270 1256 L150 1256 L150 1268 Z " />
</g>
</glyph>
<glyph glyph-name="Ydieresis" unicode="&#x178;" horiz-adv-x="869" >
<path fill="black" d="M355 546 L73 1456 L248 1456 L434 695 L621 1456 L795 1456 L514 546 L514 0 L355 0 L355 546 Z " />
<g transform="translate(509,311)" >
<path fill="black" d="M-266 1289 Q-307 1289 -330 1316 Q-353 1343 -353 1383 Q-353 1422 -330 1449.5 Q-307 1477 -266 1477 Q-226 1477 -203 1449.5 Q-180 1422 -180 1383 Q-180 1343 -203 1316 Q-226 1289 -266 1289 Z " />
</g>
<g transform="translate(855,309)" >
<path fill="black" d="M-266 1289 Q-307 1289 -330 1316 Q-353 1343 -353 1383 Q-353 1422 -330 1449.5 Q-307 1477 -266 1477 Q-226 1477 -203 1449.5 Q-180 1422 -180 1383 Q-180 1343 -203 1316 Q-226 1289 -266 1289 Z " />
</g>
</glyph>
<glyph glyph-name="Zacute" unicode="&#x179;" horiz-adv-x="859" >
<path fill="black" d="M115 121 L583 1324 L118 1324 L118 1456 L739 1456 L739 1341 L274 133 L751 133 L751 0 L115 0 L115 121 Z " />
<g transform="translate(219,313)" >
<path fill="black" d="M278 1536 L459 1536 L267 1249 L134 1249 L278 1536 Z " />
</g>
</glyph>
<glyph glyph-name="zacute" unicode="&#x17a;" horiz-adv-x="743" >
<path fill="black" d="M116 114 L465 952 L124 952 L124 1082 L620 1082 L620 971 L270 129 L631 129 L631 0 L116 0 L116 114 Z " />
<g transform="translate(157,0)" >
<path fill="black" d="M278 1536 L459 1536 L267 1249 L134 1249 L278 1536 Z " />
</g>
</glyph>
<glyph glyph-name="Zdotaccent" unicode="&#x17b;" horiz-adv-x="859" d="M115 121 L583 1324 L118 1324 L118 1456 L739 1456 L739 1341 L274 133 L751 133 L751 0 L115 0 L115 121 Z M428 1594 Q386 1594 362 1621 Q338 1648 338 1688 Q338 1727 362 1754.5 Q386 1782 428 1782 Q469 1782 493 1754.5 Q517 1727 517 1688 Q517 1648 493 1621 Q469 1594 428 1594 Z " />
<glyph glyph-name="zdotaccent" unicode="&#x17c;" horiz-adv-x="743" d="M116 114 L465 952 L124 952 L124 1082 L620 1082 L620 971 L270 129 L631 129 L631 0 L116 0 L116 114 Z M366 1281 Q324 1281 300 1308 Q276 1335 276 1375 Q276 1414 300 1441.5 Q324 1469 366 1469 Q407 1469 431 1441.5 Q455 1414 455 1375 Q455 1335 431 1308 Q407 1281 366 1281 Z " />
<glyph glyph-name="Zcaron" unicode="&#x17d;" horiz-adv-x="859" d="M115 121 L583 1324 L118 1324 L118 1456 L739 1456 L739 1341 L274 133 L751 133 L751 0 L115 0 L115 121 Z M387 1564 L220 1831 L220 1843 L350 1843 L435 1661 L520 1843 L650 1843 L650 1831 L483 1564 L387 1564 Z " />
<glyph glyph-name="zcaron" unicode="&#x17e;" horiz-adv-x="743" d="M116 114 L465 952 L124 952 L124 1082 L620 1082 L620 971 L270 129 L631 129 L631 0 L116 0 L116 114 Z M325 1251 L158 1518 L158 1530 L288 1530 L373 1348 L458 1530 L588 1530 L588 1518 L421 1251 L325 1251 Z " />
<glyph glyph-name="florin" unicode="&#x192;" horiz-adv-x="564" d="M61 -294 Q69 -300 86.5 -304 Q104 -308 114 -308 Q152 -308 168 -251 Q184 -194 184 -89 L184 961 L89 961 L89 1082 L184 1082 L184 1206 Q184 1377 242 1467 Q300 1557 406 1557 Q429 1557 451 1551.5 Q473 1546 496 1537 L482 1412 Q459 1425 425 1425 Q380 1425 358 1368 Q336 1311 336 1206 L336 1082 L455 1082 L455 961 L335 961 L335 -89 Q335 -259 281 -348 Q227 -437 130 -437 Q110 -437 91 -433 Q72 -429 52 -419 L61 -294 Z " />
<glyph glyph-name="Ohorn" unicode="&#x1a0;" horiz-adv-x="1279" d="M145 889 Q145 1036 169.5 1146 Q194 1256 239.5 1329.5 Q285 1403 349 1439.5 Q413 1476 491 1476 Q576 1476 642 1435.5 Q708 1395 753 1313 Q790 1337 804 1405 Q818 1473 818 1579 L928 1579 Q928 1432 896 1337.5 Q864 1243 798 1207 Q818 1142 828 1063 Q838 984 838 889 L838 567 Q838 420 813.5 309.5 Q789 199 744 126 Q699 53 635.5 16.5 Q572 -20 493 -20 Q415 -20 350.5 16.5 Q286 53 240.5 126 Q195 199 170 309.5 Q145 420 145 567 L145 889 Z M303 567 Q303 449 315.5 363.5 Q328 278 352 223.5 Q376 169 411.5 143 Q447 117 493 117 Q539 117 574 143 Q609 169 632 223.5 Q655 278 667 363.5 Q679 449 679 567 L679 891 Q679 1126 631.5 1232 Q584 1338 491 1338 Q445 1338 410 1312 Q375 1286 351 1231.5 Q327 1177 315 1092.5 Q303 1008 303 891 L303 567 Z " />
<glyph glyph-name="ohorn" unicode="&#x1a1;" horiz-adv-x="1081" d="M127 605 Q127 732 148.5 825.5 Q170 919 208.5 980.5 Q247 1042 300.5 1072 Q354 1102 417 1102 Q481 1102 534.5 1072 Q588 1042 627 980 Q656 1006 665 1062.5 Q674 1119 674 1200 L773 1200 Q773 1083 749 1003 Q725 923 670 887 Q689 831 699 761 Q709 691 709 605 L709 477 Q709 350 687.5 256.5 Q666 163 627.5 101.5 Q589 40 535.5 10 Q482 -20 419 -20 Q355 -20 301.5 10 Q248 40 209 101.5 Q170 163 148.5 256.5 Q127 350 127 477 L127 605 Z M280 477 Q280 290 319 199.5 Q358 109 419 109 Q488 109 522 199 Q556 289 556 477 L556 605 Q556 790 518 881.5 Q480 973 417 973 Q357 973 318.5 881.5 Q280 790 280 605 L280 477 Z " />
<glyph glyph-name="Uhorn" unicode="&#x1af;" horiz-adv-x="1289" d="M151 1456 L309 1456 L309 421 Q309 331 320.5 271 Q332 211 353 175.5 Q374 140 404 125.5 Q434 111 471 111 Q509 111 538.5 125.5 Q568 140 588.5 175.5 Q609 211 620 271 Q631 331 631 421 L631 1456 L790 1456 L790 1245 Q825 1253 846 1275.5 Q867 1298 878 1335.5 Q889 1373 893 1425 Q897 1477 897 1542 L1004 1542 Q1004 1447 993 1373 Q982 1299 957 1247.5 Q932 1196 891 1166 Q850 1136 790 1130 L790 421 Q790 298 765.5 213.5 Q741 129 698 77.5 Q655 26 597 3 Q539 -20 471 -20 Q402 -20 343 3 Q284 26 241.5 77.5 Q199 129 175 213.5 Q151 298 151 421 L151 1456 Z " />
<glyph glyph-name="uhorn" unicode="&#x1b0;" horiz-adv-x="1186" d="M528 104 Q499 45 456 12.5 Q413 -20 354 -20 Q308 -20 269.5 2.5 Q231 25 203.5 74 Q176 123 161 200.5 Q146 278 146 387 L146 1082 L298 1082 L298 385 Q298 306 305.5 253.5 Q313 201 326 169.5 Q339 138 356.5 125.5 Q374 113 393 113 Q444 113 475 152 Q506 191 523 256 L523 1082 L677 1082 L677 958 Q700 966 713.5 983.5 Q727 1001 734 1028 Q741 1055 743 1091.5 Q745 1128 745 1174 L841 1174 Q841 1104 833 1048 Q825 992 806 952 Q787 912 755.5 887.5 Q724 863 677 855 L677 0 L532 0 L528 104 Z " />
<glyph glyph-name="uni0218" unicode="&#x218;" horiz-adv-x="1104" >
<path fill="black" d="M271 420 Q271 337 284 278.5 Q297 220 321 183.5 Q345 147 377.5 130 Q410 113 449 113 Q521 113 556.5 181 Q592 249 592 364 Q592 420 585 462.5 Q578 505 558.5 540 Q539 575 505.5 605.5 Q472 636 418 667 Q359 698 307.5 736 Q256 774 218.5 824 Q181 874 159.5 939 Q138 1004 138 1089 Q138 1174 160.5 1245 Q183 1316 223.5 1367.5 Q264 1419 320 1447.5 Q376 1476 444 1476 Q515 1476 571.5 1440.5 Q628 1405 668 1345 Q708 1285 729 1206 Q750 1127 750 1039 L592 1039 Q592 1104 583 1160 Q574 1216 555 1257 Q536 1298 508 1321 Q480 1344 441 1344 Q404 1344 377 1324.5 Q350 1305 332 1271 Q314 1237 305 1191 Q296 1145 296 1092 Q296 995 340.5 928 Q385 861 472 807 Q542 774 594 733 Q646 692 681 639.5 Q716 587 733.5 519.5 Q751 452 751 366 Q751 277 729.5 205.5 Q708 134 668.5 84 Q629 34 573.5 7 Q518 -20 449 -20 Q387 -20 326.5 6.5 Q266 33 218.5 87.5 Q171 142 141.5 225 Q112 308 112 420 L271 420 Z " />
<g transform="translate(294,-366)" >
<path fill="black" d="M-347 -472 Q-326 -418 -314.5 -361 Q-303 -304 -303 -235 L-303 -153 L-184 -153 L-184 -232 Q-184 -272 -190 -313.5 Q-196 -355 -207.5 -395 Q-219 -435 -235 -471.5 Q-251 -508 -270 -536 L-347 -472 Z " />
</g>
</glyph>
<glyph glyph-name="uni0219" unicode="&#x219;" horiz-adv-x="987" >
<path fill="black" d="M256 307 Q258 247 268.5 208.5 Q279 170 296 148 Q313 126 335 117.5 Q357 109 381 109 Q433 109 460 153.5 Q487 198 487 269 Q487 302 478 328.5 Q469 355 451 379.5 Q433 404 405 428 Q377 452 339 480 Q288 517 249 549 Q210 581 183.5 618 Q157 655 143.5 700 Q130 745 130 807 Q130 870 147 923.5 Q164 977 196 1017 Q228 1057 273.5 1079.5 Q319 1102 376 1102 Q436 1102 483.5 1078 Q531 1054 564 1011.5 Q597 969 614.5 910.5 Q632 852 632 782 L480 782 Q480 820 473.5 854.5 Q467 889 454 915 Q441 941 421.5 957 Q402 973 376 973 Q351 973 332.5 959.5 Q314 946 302 924 Q290 902 284 873 Q278 844 278 813 Q278 782 284.5 758 Q291 734 306.5 712.5 Q322 691 349 669.5 Q376 648 416 620 Q470 583 511 549.5 Q552 516 579.5 477.5 Q607 439 621.5 392 Q636 345 636 280 Q636 211 618 155.5 Q600 100 566 61 Q532 22 484.5 1 Q437 -20 378 -20 Q312 -20 262 7 Q212 34 178 79 Q144 124 126.5 183 Q109 242 109 307 L256 307 Z " />
<g transform="translate(257,-376)" >
<path fill="black" d="M-347 -472 Q-326 -418 -314.5 -361 Q-303 -304 -303 -235 L-303 -153 L-184 -153 L-184 -232 Q-184 -272 -190 -313.5 Q-196 -355 -207.5 -395 Q-219 -435 -235 -471.5 Q-251 -508 -270 -536 L-347 -472 Z " />
</g>
</glyph>
<glyph glyph-name="uni021A" unicode="&#x21a;" horiz-adv-x="1107" >
<path fill="black" d="M354 1324 L95 1324 L95 1456 L774 1456 L774 1324 L513 1324 L513 0 L354 0 L354 1324 Z " />
<g transform="translate(283,-366)" >
<path fill="black" d="M-347 -472 Q-326 -418 -314.5 -361 Q-303 -304 -303 -235 L-303 -153 L-184 -153 L-184 -232 Q-184 -272 -190 -313.5 Q-196 -355 -207.5 -395 Q-219 -435 -235 -471.5 Q-251 -508 -270 -536 L-347 -472 Z " />
</g>
</glyph>
<glyph glyph-name="uni021B" unicode="&#x21b;" horiz-adv-x="672" >
<path fill="black" d="M174 961 L76 961 L76 1082 L174 1082 L174 1352 L326 1352 L326 1082 L436 1082 L436 961 L326 961 L326 266 Q326 217 330.5 187 Q335 157 343.5 140.5 Q352 124 364 118.5 Q376 113 391 113 Q405 113 418.5 117 Q432 121 440 125 L440 -2 Q422 -9 398.5 -14.5 Q375 -20 345 -20 Q307 -20 275.5 -5.5 Q244 9 221.5 42.5 Q199 76 186.5 131 Q174 186 174 267 L174 961 Z " />
<g transform="translate(166,-366)" >
<path fill="black" d="M-347 -472 Q-326 -418 -314.5 -361 Q-303 -304 -303 -235 L-303 -153 L-184 -153 L-184 -232 Q-184 -272 -190 -313.5 Q-196 -355 -207.5 -395 Q-219 -435 -235 -471.5 Q-251 -508 -270 -536 L-347 -472 Z " />
</g>
</glyph>
<glyph glyph-name="uni0298" unicode="&#x298;" horiz-adv-x="1272" d="M143 889 Q143 1036 167.5 1146 Q192 1256 237.5 1329.5 Q283 1403 347 1439.5 Q411 1476 489 1476 Q569 1476 633 1439.5 Q697 1403 742 1329.5 Q787 1256 811.5 1146 Q836 1036 836 889 L836 567 Q836 420 811.5 309.5 Q787 199 742 126 Q697 53 633.5 16.5 Q570 -20 491 -20 Q413 -20 348.5 16.5 Q284 53 238.5 126 Q193 199 168 309.5 Q143 420 143 567 L143 889 Z M677 891 Q677 1126 629.5 1232 Q582 1338 489 1338 Q443 1338 408 1312 Q373 1286 349 1231.5 Q325 1177 313 1092.5 Q301 1008 301 891 L301 567 Q301 449 313.5 363.5 Q326 278 350 223.5 Q374 169 409.5 143 Q445 117 491 117 Q537 117 572 143 Q607 169 630 223.5 Q653 278 665 363.5 Q677 449 677 567 L677 891 Z M479 635 Q438 635 415 662.5 Q392 690 392 731 Q392 773 415 801.5 Q438 830 479 830 Q521 830 544 801.5 Q567 773 567 731 Q567 690 544 662.5 Q521 635 479 635 Z " />
<glyph glyph-name="uni02AA" unicode="&#x2aa;" horiz-adv-x="1254" d="M420 -2 Q402 -9 378.5 -14.5 Q355 -20 325 -20 Q287 -20 255.5 -5.5 Q224 9 201.5 42.5 Q179 76 166.5 131 Q154 186 154 267 L154 1536 L306 1536 L306 266 L306 245 Q345 205 382.5 178.5 Q420 152 455 136.5 Q490 121 520 115 Q550 109 574 109 Q606 109 628.5 122.5 Q651 136 665.5 159.5 Q680 183 687 214.5 Q694 246 694 282 Q694 352 666 403 Q638 454 561 486 Q512 507 470.5 533 Q429 559 399.5 595 Q370 631 353.5 680 Q337 729 337 795 Q337 858 354 913.5 Q371 969 402.5 1011 Q434 1053 479.5 1077.5 Q525 1102 582 1102 Q642 1102 689.5 1076.5 Q737 1051 770.5 1006.5 Q804 962 821.5 901.5 Q839 841 839 772 L687 772 Q687 809 680.5 845 Q674 881 661 909.5 Q648 938 628 955.5 Q608 973 582 973 Q558 973 539.5 958 Q521 943 509 918.5 Q497 894 490.5 863 Q484 832 484 801 Q484 731 515 688.5 Q546 646 614 619 Q671 596 713.5 567 Q756 538 784.5 499 Q813 460 827.5 409 Q842 358 842 292 Q842 223 823.5 165.5 Q805 108 770.5 66.5 Q736 25 686.5 2.5 Q637 -20 574 -20 Q536 -20 497.5 -11.5 Q459 -3 420 15 L420 -2 Z " />
<glyph glyph-name="uni02AD" unicode="&#x2ad;" horiz-adv-x="719" d="M124 581 L596 581 L596 0 L486 0 L486 479 L236 479 L236 0 L124 0 L124 581 Z M124 1455 L596 1455 L596 874 L486 874 L486 1353 L236 1353 L236 874 L124 874 L124 1455 Z " />
<glyph glyph-name="uni02AF" unicode="&#x2af;" horiz-adv-x="957" d="M596 109 Q567 49 524.5 14.5 Q482 -20 427 -20 Q380 -20 341.5 6 Q303 32 275.5 87 Q248 142 233 229 Q218 316 218 437 L218 789 Q218 892 190 939.5 Q162 987 125 987 Q106 987 85 979 L85 1088 Q119 1102 164 1102 Q201 1102 238 1081.5 Q275 1061 305 1021.5 Q335 982 353.5 923.5 Q372 865 372 789 L372 435 Q372 339 380 276 Q388 213 401.5 176.5 Q415 140 433 125.5 Q451 111 472 111 Q497 111 516.5 124 Q536 137 551 159.5 Q566 182 577.5 213 Q589 244 596 280 L596 1082 L749 1082 L749 -124 Q749 -227 777 -274.5 Q805 -322 842 -322 Q852 -322 863 -320 Q874 -318 882 -314 L882 -423 Q848 -437 802 -437 Q766 -437 729 -416.5 Q692 -396 662.5 -356.5 Q633 -317 614.5 -258.5 Q596 -200 596 -124 L596 109 Z " />
<glyph glyph-name="uni02B5" unicode="&#x2b5;" horiz-adv-x="527" d="M230 742 Q211 692 185.5 664.5 Q160 637 129 637 Q117 637 107.5 639.5 Q98 642 94 644 L94 791 Q106 783 120 777.5 Q134 772 151 772 Q179 772 199 800.5 Q219 829 230 879 L230 1452 L348 1452 L348 560 Q348 518 360.5 502 Q373 486 396 486 Q417 486 434 497 L434 362 Q388 344 348 344 Q318 344 296 359 Q274 374 259.5 401 Q245 428 237.5 466 Q230 504 230 550 L230 742 Z " />
<glyph glyph-name="uni02B9" unicode="&#x2b9;" horiz-adv-x="397" d="M156 1562 L298 1562 L179 1184 L97 1184 L156 1562 Z " />
<glyph glyph-name="uni02BA" unicode="&#x2ba;" horiz-adv-x="600" >
<g transform="translate(10,0)" >
<path fill="black" d="M156 1562 L298 1562 L179 1184 L97 1184 L156 1562 Z " />
</g>
<g transform="translate(266,0)" >
<path fill="black" d="M156 1562 L298 1562 L179 1184 L97 1184 L156 1562 Z " />
</g>
</glyph>
<glyph glyph-name="uni02BB" unicode="&#x2bb;" horiz-adv-x="417" d="M117 1207 Q117 1255 125 1304 Q133 1353 147 1400 Q161 1447 180.5 1489.5 Q200 1532 223 1565 L300 1502 Q277 1434 264 1364.5 Q251 1295 251 1210 L251 1028 L117 1028 L117 1207 Z " />
<glyph glyph-name="uni02BC" unicode="&#x2bc;" horiz-adv-x="405" d="M113 1134 Q136 1199 150.5 1265 Q165 1331 165 1412 L165 1536 L293 1536 L293 1413 Q293 1368 285 1321 Q277 1274 263 1229 Q249 1184 229.5 1144 Q210 1104 187 1072 L113 1134 Z " />
<glyph glyph-name="uni02BD" unicode="&#x2bd;" horiz-adv-x="417" d="M223 1028 Q200 1062 180.5 1104 Q161 1146 147 1193 Q133 1240 125 1289 Q117 1338 117 1386 L117 1565 L251 1565 L251 1383 Q251 1298 264 1228.5 Q277 1159 300 1092 L223 1028 Z " />
<glyph glyph-name="uni02BE" unicode="&#x2be;" horiz-adv-x="332" d="M106 1219 Q130 1219 146 1246.5 Q162 1274 162 1317 Q162 1360 146 1388 Q130 1416 106 1416 L106 1499 Q132 1499 154 1485 Q176 1471 192 1447 Q208 1423 217.5 1389.5 Q227 1356 227 1317 Q227 1278 217.5 1245 Q208 1212 192 1188.5 Q176 1165 154 1152 Q132 1139 106 1139 L106 1219 Z " />
<glyph glyph-name="uni02BF" unicode="&#x2bf;" horiz-adv-x="332" d="M227 1139 Q202 1139 180 1152 Q158 1165 141.5 1188.5 Q125 1212 115.5 1245 Q106 1278 106 1317 Q106 1356 115.5 1389.5 Q125 1423 141.5 1447 Q158 1471 180 1485 Q202 1499 227 1499 L227 1416 Q202 1416 186.5 1388 Q171 1360 171 1317 Q171 1274 186.5 1246.5 Q202 1219 227 1219 L227 1139 Z " />
<glyph glyph-name="uni02C0" unicode="&#x2c0;" horiz-adv-x="584" d="M221 1007 L262 1007 Q291 1007 309.5 1033 Q328 1059 339 1102 Q350 1145 354 1200 Q358 1255 358 1313 L358 1406 Q358 1463 354.5 1513.5 Q351 1564 341.5 1601.5 Q332 1639 316 1660.5 Q300 1682 275 1682 Q237 1682 220 1639.5 Q203 1597 200 1519 L89 1519 Q89 1582 102.5 1635 Q116 1688 140 1725.5 Q164 1763 198 1784 Q232 1805 273 1805 Q325 1805 363.5 1773.5 Q402 1742 427.5 1687.5 Q453 1633 466 1560.5 Q479 1488 479 1406 L479 1313 Q479 1235 470.5 1168.5 Q462 1102 445 1049 Q428 996 402.5 959 Q377 922 343 903 L343 651 L221 651 L221 1007 Z " />
<glyph glyph-name="uni02C1" unicode="&#x2c1;" horiz-adv-x="584" d="M241 903 Q207 922 181.5 959 Q156 996 139 1049 Q122 1102 113.5 1168.5 Q105 1235 105 1313 L105 1406 Q105 1488 118 1560.5 Q131 1633 156.5 1687.5 Q182 1742 221 1773.5 Q260 1805 311 1805 Q352 1805 386 1784 Q420 1763 444 1725.5 Q468 1688 481.5 1635 Q495 1582 495 1519 L384 1519 Q381 1597 364.5 1639.5 Q348 1682 310 1682 Q285 1682 268.5 1660.5 Q252 1639 243 1601.5 Q234 1564 230.5 1513.5 Q227 1463 227 1406 L227 1313 Q227 1255 231 1200 Q235 1145 246 1102 Q257 1059 275.5 1033 Q294 1007 322 1007 L363 1007 L363 651 L241 651 L241 903 Z " />
<glyph glyph-name="uni02C2" unicode="&#x2c2;" horiz-adv-x="652" d="M108 1019 L544 1329 L544 1190 L284 987 L218 962 L284 936 L544 736 L544 596 L108 907 L108 1019 Z " />
<glyph glyph-name="uni02C3" unicode="&#x2c3;" horiz-adv-x="652" d="M108 736 L367 936 L433 962 L367 987 L108 1190 L108 1329 L543 1019 L543 907 L108 596 L108 736 Z " />
<glyph glyph-name="uni02C4" unicode="&#x2c4;" horiz-adv-x="639" d="M268 1310 L371 1310 L536 583 L422 583 L326 1069 L319 1113 L312 1069 L219 583 L103 583 L268 1310 Z " />
<glyph glyph-name="uni02C5" unicode="&#x2c5;" horiz-adv-x="639" d="M103 1310 L219 1310 L312 824 L319 780 L326 824 L422 1310 L536 1310 L371 583 L268 583 L103 1310 Z " />
<glyph glyph-name="circumflex" unicode="&#x2c6;" horiz-adv-x="725" d="M150 1268 L313 1532 L402 1532 L568 1266 L568 1256 L447 1256 L358 1431 L270 1256 L150 1256 L150 1268 Z " />
<glyph glyph-name="caron" unicode="&#x2c7;" horiz-adv-x="695" d="M130 1517 L130 1529 L260 1529 L345 1347 L430 1529 L560 1529 L560 1517 L393 1250 L297 1250 L130 1517 Z " />
<glyph glyph-name="uni02C8" unicode="&#x2c8;" horiz-adv-x="318" d="M108 1151 L108 1559 L210 1559 L210 1151 L108 1151 Z " />
<glyph glyph-name="uni02C9" unicode="&#x2c9;" horiz-adv-x="723" >
<g transform="translate(10,0)" >
<path fill="black" d="M162 1321 L162 1443 L561 1443 L561 1321 L162 1321 Z " />
</g>
</glyph>
<glyph glyph-name="uni02CA" unicode="&#x2ca;" horiz-adv-x="516" >
<g transform="translate(-10,0)" >
<path fill="black" d="M278 1536 L459 1536 L267 1249 L134 1249 L278 1536 Z " />
</g>
</glyph>
<glyph glyph-name="uni02CB" unicode="&#x2cb;" horiz-adv-x="514" >
<g transform="translate(14,0)" >
<path fill="black" d="M272 1249 L82 1536 L262 1536 L407 1249 L272 1249 Z " />
</g>
</glyph>
<glyph glyph-name="uni02CC" unicode="&#x2cc;" horiz-adv-x="318" >
<g transform="translate(0,-1656)" >
<path fill="black" d="M108 1151 L108 1559 L210 1559 L210 1151 L108 1151 Z " />
</g>
</glyph>
<glyph glyph-name="uni02CD" unicode="&#x2cd;" horiz-adv-x="639" >
<g transform="translate(-33,-1600)" >
<path fill="black" d="M162 1321 L162 1443 L561 1443 L561 1321 L162 1321 Z " />
</g>
</glyph>
<glyph glyph-name="uni02CE" unicode="&#x2ce;" horiz-adv-x="514" >
<g transform="translate(14,-1606)" >
<path fill="black" d="M272 1249 L82 1536 L262 1536 L407 1249 L272 1249 Z " />
</g>
</glyph>
<glyph glyph-name="uni02CF" unicode="&#x2cf;" horiz-adv-x="516" >
<g transform="translate(-10,-1606)" >
<path fill="black" d="M278 1536 L459 1536 L267 1249 L134 1249 L278 1536 Z " />
</g>
</glyph>
<glyph glyph-name="uni02D0" unicode="&#x2d0;" horiz-adv-x="449" d="M131 0 L217 185 L231 185 L318 0 L131 0 Z M131 1076 L318 1076 L231 891 L217 891 L131 1076 Z " />
<glyph glyph-name="uni02D1" unicode="&#x2d1;" horiz-adv-x="449" d="M131 1076 L318 1076 L231 891 L217 891 L131 1076 Z " />
<glyph glyph-name="uni02D2" unicode="&#x2d2;" horiz-adv-x="333" >
<g transform="translate(10,-991)" >
<path fill="black" d="M106 1219 Q130 1219 146 1246.5 Q162 1274 162 1317 Q162 1360 146 1388 Q130 1416 106 1416 L106 1499 Q132 1499 154 1485 Q176 1471 192 1447 Q208 1423 217.5 1389.5 Q227 1356 227 1317 Q227 1278 217.5 1245 Q208 1212 192 1188.5 Q176 1165 154 1152 Q132 1139 106 1139 L106 1219 Z " />
</g>
</glyph>
<glyph glyph-name="uni02D3" unicode="&#x2d3;" horiz-adv-x="332" d="M227 147 Q202 147 180 160 Q158 173 141.5 196.5 Q125 220 115.5 253 Q106 286 106 326 Q106 365 115.5 398.5 Q125 432 141.5 456 Q158 480 180 494 Q202 508 227 508 L227 426 Q202 426 186.5 398 Q171 370 171 326 Q171 284 186.5 256.5 Q202 229 227 229 L227 147 Z " />
<glyph glyph-name="uni02D5" unicode="&#x2d5;" horiz-adv-x="497" d="M198 416 L117 416 L117 530 L381 530 L381 416 L300 416 L300 171 L198 171 L198 416 Z " />
<glyph glyph-name="uni02D6" unicode="&#x2d6;" horiz-adv-x="497" d="M198 296 L117 296 L117 409 L198 409 L198 554 L300 554 L300 409 L381 409 L381 296 L300 296 L300 151 L198 151 L198 296 Z " />
<glyph glyph-name="uni02D7" unicode="&#x2d7;" horiz-adv-x="505" d="M108 409 L397 409 L397 296 L108 296 L108 409 Z " />
<glyph glyph-name="breve" unicode="&#x2d8;" horiz-adv-x="762" d="M238 1493 Q238 1461 244.5 1432 Q251 1403 265 1381.5 Q279 1360 301.5 1347 Q324 1334 356 1334 Q388 1334 410.5 1347 Q433 1360 447 1381.5 Q461 1403 467.5 1432 Q474 1461 474 1493 L595 1493 Q595 1435 578.5 1386.5 Q562 1338 531 1303.5 Q500 1269 456 1250 Q412 1231 356 1231 Q301 1231 257 1250 Q213 1269 182 1303.5 Q151 1338 134.5 1386.5 Q118 1435 118 1493 L238 1493 Z " />
<glyph glyph-name="dotaccent" unicode="&#x2d9;" horiz-adv-x="477" d="M231 1281 Q189 1281 165 1308 Q141 1335 141 1375 Q141 1414 165 1441.5 Q189 1469 231 1469 Q272 1469 296 1441.5 Q320 1414 320 1375 Q320 1335 296 1308 Q272 1281 231 1281 Z " />
<glyph glyph-name="ring" unicode="&#x2da;" horiz-adv-x="593" d="M296 1207 Q262 1207 234 1222 Q206 1237 185.5 1263 Q165 1289 154 1325 Q143 1361 143 1403 Q143 1445 154 1481.5 Q165 1518 185.5 1545 Q206 1572 234 1587.5 Q262 1603 296 1603 Q329 1603 356.5 1587.5 Q384 1572 404.5 1545 Q425 1518 436 1481.5 Q447 1445 447 1403 Q447 1361 436 1325 Q425 1289 404.5 1263 Q384 1237 356.5 1222 Q329 1207 296 1207 Z M296 1287 Q333 1287 353 1321 Q373 1355 373 1403 Q373 1427 368 1448.5 Q363 1470 353 1486.5 Q343 1503 328.5 1512.5 Q314 1522 296 1522 Q277 1522 262.5 1512.5 Q248 1503 238 1486.5 Q228 1470 222.5 1448.5 Q217 1427 217 1403 Q217 1380 222.5 1359 Q228 1338 238 1322 Q248 1306 262.5 1296.5 Q277 1287 296 1287 Z " />
<glyph glyph-name="ogonek" unicode="&#x2db;" horiz-adv-x="490" d="M315 -381 Q301 -396 277.5 -410.5 Q254 -425 219 -425 Q167 -425 130 -379 Q93 -333 93 -244 Q93 -166 123 -90 Q153 -14 230 48 L303 0 Q261 -51 236 -106 Q211 -161 211 -227 Q211 -262 220 -284 Q229 -306 251 -306 Q268 -306 280 -295.5 Q292 -285 300 -277 L315 -381 Z " />
<glyph glyph-name="tilde" unicode="&#x2dc;" horiz-adv-x="712" d="M141 1257 Q141 1308 150.5 1350.5 Q160 1393 177.5 1423.5 Q195 1454 218.5 1470.5 Q242 1487 270 1487 Q294 1487 313.5 1471 Q333 1455 351 1436.5 Q369 1418 388 1402 Q407 1386 429 1386 Q450 1386 465 1419 Q480 1452 480 1503 L570 1494 Q570 1442 560.5 1400 Q551 1358 533.5 1328 Q516 1298 492.5 1281.5 Q469 1265 441 1265 Q413 1265 393 1281 Q373 1297 356.5 1316 Q340 1335 323 1351 Q306 1367 283 1367 Q261 1367 246.5 1335.5 Q232 1304 232 1253 L141 1257 Z " />
<glyph glyph-name="hungarumlaut" unicode="&#x2dd;" horiz-adv-x="616" d="M433 1535 L576 1535 L422 1232 L303 1232 L433 1535 Z M214 1535 L355 1535 L224 1232 L110 1232 L214 1535 Z " />
<glyph glyph-name="uni02DE" unicode="&#x2de;" horiz-adv-x="429" d="M-43 710 L185 781 Q191 707 195.5 656 Q200 605 208 573.5 Q216 542 229.5 528.5 Q243 515 267 515 Q280 515 296 523 L318 392 Q299 378 277 370 Q255 362 232 362 Q193 362 168.5 377 Q144 392 127.5 423.5 Q111 455 101 502.5 Q91 550 81 615 L-43 569 L-43 710 Z " />
<glyph glyph-name="uni02DF" unicode="&#x2df;" horiz-adv-x="541" d="M117 1239 L213 1398 L117 1558 L184 1640 L271 1495 L358 1639 L425 1557 L329 1398 L424 1239 L357 1156 L271 1301 L184 1157 L117 1239 Z " />
<glyph glyph-name="uni02E0" unicode="&#x2e0;" horiz-adv-x="652" d="M262 684 L100 1452 L237 1452 L319 896 L326 853 L332 896 L414 1452 L552 1452 L386 669 L427 510 Q437 474 444 446.5 Q451 419 451 396 Q451 318 415 276 Q379 234 324 234 Q268 234 230.5 276 Q193 318 193 396 Q193 420 200.5 447 Q208 474 216 507 L262 684 Z M324 350 Q337 350 341 364.5 Q345 379 345 402 Q345 423 340 449.5 Q335 476 325 517 Q314 476 307.5 449.5 Q301 423 301 402 Q301 379 305.5 364.5 Q310 350 324 350 Z " />
<glyph glyph-name="uni02E1" unicode="&#x2e1;" horiz-adv-x="375" d="M129 651 L129 1805 L246 1805 L246 651 L129 651 Z " />
<glyph glyph-name="uni02E2" unicode="&#x2e2;" horiz-adv-x="604" d="M219 888 Q221 849 228.5 823.5 Q236 798 248 784 Q260 770 276.5 764.5 Q293 759 313 759 Q345 759 364 786.5 Q383 814 383 859 Q383 907 358.5 941.5 Q334 976 280 999 Q243 1015 213.5 1035.5 Q184 1056 163 1084.5 Q142 1113 131 1152 Q120 1191 120 1243 Q120 1294 133 1335 Q146 1376 169.5 1405 Q193 1434 226.5 1450 Q260 1466 301 1466 Q347 1466 383.5 1447 Q420 1428 445 1395 Q470 1362 483.5 1317 Q497 1272 497 1221 L379 1221 Q379 1246 374.5 1268 Q370 1290 360 1306.5 Q350 1323 336 1333 Q322 1343 302 1343 Q285 1343 272.5 1334.5 Q260 1326 252 1312 Q244 1298 240 1280 Q236 1262 236 1244 Q236 1197 258.5 1170.5 Q281 1144 332 1123 Q373 1106 404.5 1084.5 Q436 1063 457 1033 Q478 1003 488.5 962.5 Q499 922 499 867 Q499 755 451 695.5 Q403 636 310 636 Q259 636 220.5 656 Q182 676 156.5 710.5 Q131 745 118 791 Q105 837 105 888 L219 888 Z " />
<glyph glyph-name="uni02E4" unicode="&#x2e4;" horiz-adv-x="637" d="M261 775 Q197 798 158.5 882 Q120 966 120 1109 Q120 1195 135 1261.5 Q150 1328 177 1373.5 Q204 1419 241 1442.5 Q278 1466 322 1466 Q365 1466 401.5 1445.5 Q438 1425 465 1386 Q492 1347 507 1292 Q522 1237 522 1168 L408 1168 Q407 1248 384.5 1295.5 Q362 1343 326 1343 Q281 1343 259 1280 Q237 1217 237 1111 Q237 1006 256.5 947.5 Q276 889 323 889 L379 889 L379 651 L261 651 L261 775 Z " />
<glyph glyph-name="uni02EA" unicode="&#x2ea;" horiz-adv-x="619" d="M145 908 L297 908 L297 129 L518 129 L518 0 L145 0 L145 908 Z " />
<glyph glyph-name="uni02EE" unicode="&#x2ee;" horiz-adv-x="616" >
<g transform="translate(724,-4)" >
<path fill="black" d="M-409 1091 Q-385 1159 -372 1228.5 Q-359 1298 -359 1383 L-359 1564 L-225 1564 L-225 1385 Q-225 1337 -233 1288 Q-241 1239 -255 1192.5 Q-269 1146 -288.5 1104 Q-308 1062 -331 1028 L-409 1091 Z " />
</g>
<g transform="translate(526,-4)" >
<path fill="black" d="M-409 1091 Q-385 1159 -372 1228.5 Q-359 1298 -359 1383 L-359 1564 L-225 1564 L-225 1385 Q-225 1337 -233 1288 Q-241 1239 -255 1192.5 Q-269 1146 -288.5 1104 Q-308 1062 -331 1028 L-409 1091 Z " />
</g>
</glyph>
<glyph glyph-name="uni02EF" unicode="&#x2ef;" horiz-adv-x="519" d="M108 -72 L189 -72 L254 -388 L260 -419 L265 -388 L330 -72 L411 -72 L296 -545 L224 -545 L108 -72 Z " />
<glyph glyph-name="uni02F0" unicode="&#x2f0;" horiz-adv-x="519" d="M223 -72 L296 -72 L411 -545 L330 -545 L264 -229 L259 -199 L254 -229 L189 -545 L108 -545 L223 -72 Z " />
<glyph glyph-name="uni02F1" unicode="&#x2f1;" horiz-adv-x="521" d="M108 -272 L413 -71 L413 -165 L232 -297 L192 -310 L232 -323 L413 -453 L413 -547 L108 -346 L108 -272 Z " />
<glyph glyph-name="uni02F2" unicode="&#x2f2;" horiz-adv-x="521" d="M108 -453 L289 -323 L329 -310 L289 -297 L108 -165 L108 -71 L413 -272 L413 -346 L108 -547 L108 -453 Z " />
<glyph glyph-name="uni02F3" unicode="&#x2f3;" horiz-adv-x="506" d="M256 -389 Q234 -389 214.5 -378 Q195 -367 181 -347 Q167 -327 158.5 -299 Q150 -271 150 -238 Q150 -204 158.5 -175.5 Q167 -147 181 -126 Q195 -105 214.5 -93 Q234 -81 256 -81 Q279 -81 298 -93 Q317 -105 331.5 -126 Q346 -147 354 -175.5 Q362 -204 362 -238 Q362 -271 354 -299 Q346 -327 331.5 -347 Q317 -367 298 -378 Q279 -389 256 -389 Z M256 -315 Q276 -315 288.5 -292.5 Q301 -270 301 -238 Q301 -203 288.5 -179.5 Q276 -156 256 -156 Q237 -156 224 -179.5 Q211 -203 211 -238 Q211 -270 224 -292.5 Q237 -315 256 -315 Z " />
<glyph glyph-name="uni02F4" unicode="&#x2f4;" horiz-adv-x="514" >
<g transform="translate(14,-1023)" >
<path fill="black" d="M272 1249 L82 1536 L262 1536 L407 1249 L272 1249 Z " />
</g>
</glyph>
<glyph glyph-name="uni02F5" unicode="&#x2f5;" horiz-adv-x="770" >
<g transform="translate(14,-1023)" >
<path fill="black" d="M272 1249 L82 1536 L262 1536 L407 1249 L272 1249 Z " />
</g>
<g transform="translate(347,-1017)" >
<path fill="black" d="M272 1249 L82 1536 L262 1536 L407 1249 L272 1249 Z " />
</g>
</glyph>
<glyph glyph-name="uni02F6" unicode="&#x2f6;" horiz-adv-x="773" >
<g transform="translate(-10,-1024)" >
<path fill="black" d="M278 1536 L459 1536 L267 1249 L134 1249 L278 1536 Z " />
</g>
<g transform="translate(293,-1017)" >
<path fill="black" d="M278 1536 L459 1536 L267 1249 L134 1249 L278 1536 Z " />
</g>
</glyph>
<glyph glyph-name="uni02F7" unicode="&#x2f7;" horiz-adv-x="660" >
<g transform="translate(-26,-1671)" >
<path fill="black" d="M141 1257 Q141 1308 150.5 1350.5 Q160 1393 177.5 1423.5 Q195 1454 218.5 1470.5 Q242 1487 270 1487 Q294 1487 313.5 1471 Q333 1455 351 1436.5 Q369 1418 388 1402 Q407 1386 429 1386 Q450 1386 465 1419 Q480 1452 480 1503 L570 1494 Q570 1442 560.5 1400 Q551 1358 533.5 1328 Q516 1298 492.5 1281.5 Q469 1265 441 1265 Q413 1265 393 1281 Q373 1297 356.5 1316 Q340 1335 323 1351 Q306 1367 283 1367 Q261 1367 246.5 1335.5 Q232 1304 232 1253 L141 1257 Z " />
</g>
</glyph>
<glyph glyph-name="uni02F8" unicode="&#x2f8;" horiz-adv-x="423" >
<g transform="translate(-14,400)" >
<path fill="black" d="M150 85 Q150 128 175.5 156 Q201 184 246 184 Q291 184 317 156 Q343 128 343 85 Q343 45 317 17 Q291 -11 246 -11 Q201 -11 175.5 17 Q150 45 150 85 Z " />
</g>
<g transform="translate(-79,1276)" >
<path fill="black" d="M150 85 Q150 128 175.5 156 Q201 184 246 184 Q291 184 317 156 Q343 128 343 85 Q343 45 317 17 Q291 -11 246 -11 Q201 -11 175.5 17 Q150 45 150 85 Z " />
</g>
</glyph>
<glyph glyph-name="uni02F9" unicode="&#x2f9;" horiz-adv-x="471" d="M117 1536 L355 1536 L355 1421 L220 1421 L220 1150 L117 1150 L117 1536 Z " />
<glyph glyph-name="uni02FA" unicode="&#x2fa;" horiz-adv-x="471" d="M253 1421 L117 1421 L117 1536 L355 1536 L355 1150 L253 1150 L253 1421 Z " />
<glyph glyph-name="uni02FB" unicode="&#x2fb;" horiz-adv-x="471" d="M117 -79 L220 -79 L220 -350 L355 -350 L355 -465 L117 -465 L117 -79 Z " />
<glyph glyph-name="uni02FC" unicode="&#x2fc;" horiz-adv-x="471" d="M117 -350 L253 -350 L253 -79 L355 -79 L355 -465 L117 -465 L117 -350 Z " />
<glyph glyph-name="uni02FD" unicode="&#x2fd;" horiz-adv-x="641" d="M117 -86 L219 -86 L219 -337 L421 -337 L421 -86 L524 -86 L524 -439 L117 -439 L117 -86 Z " />
<glyph glyph-name="uni02FE" unicode="&#x2fe;" horiz-adv-x="614" d="M117 -79 L219 -79 L219 -363 L497 -363 L497 -465 L117 -465 L117 -79 Z " />
<glyph glyph-name="uni02FF" unicode="&#x2ff;" horiz-adv-x="675" d="M111 -133 L286 169 L405 169 L254 -82 L559 -82 L559 -183 L254 -183 L405 -435 L286 -435 L111 -133 Z " />
<glyph glyph-name="gravecomb" unicode="&#x300;" horiz-adv-x="80" d="M-286 1249 L-445 1536 L-276 1536 L-161 1249 L-286 1249 Z " />
<glyph glyph-name="acutecomb" unicode="&#x301;" horiz-adv-x="80" d="M-192 1552 L-49 1552 L-203 1249 L-322 1249 L-192 1552 Z " />
<glyph glyph-name="uni0302" unicode="&#x302;" horiz-adv-x="80" >
<g transform="translate(-617,0)" >
<path fill="black" d="M150 1268 L313 1532 L402 1532 L568 1266 L568 1256 L447 1256 L358 1431 L270 1256 L150 1256 L150 1268 Z " />
</g>
</glyph>
<glyph glyph-name="tildecomb" unicode="&#x303;" horiz-adv-x="80" >
<g transform="translate(-592,0)" >
<path fill="black" d="M141 1257 Q141 1308 150.5 1350.5 Q160 1393 177.5 1423.5 Q195 1454 218.5 1470.5 Q242 1487 270 1487 Q294 1487 313.5 1471 Q333 1455 351 1436.5 Q369 1418 388 1402 Q407 1386 429 1386 Q450 1386 465 1419 Q480 1452 480 1503 L570 1494 Q570 1442 560.5 1400 Q551 1358 533.5 1328 Q516 1298 492.5 1281.5 Q469 1265 441 1265 Q413 1265 393 1281 Q373 1297 356.5 1316 Q340 1335 323 1351 Q306 1367 283 1367 Q261 1367 246.5 1335.5 Q232 1304 232 1253 L141 1257 Z " />
</g>
</glyph>
<glyph glyph-name="uni0304" unicode="&#x304;" horiz-adv-x="80" >
<g transform="translate(-629,0)" >
<path fill="black" d="M162 1321 L162 1443 L561 1443 L561 1321 L162 1321 Z " />
</g>
</glyph>
<glyph glyph-name="uni0305" unicode="&#x305;" horiz-adv-x="80" >
<g transform="translate(-594,1727)" >
<path fill="black" d="M71 -129 L71 0 L602 0 L602 -129 L71 -129 Z " />
</g>
</glyph>
<glyph glyph-name="uni0306" unicode="&#x306;" horiz-adv-x="80" d="M-349 1493 Q-349 1461 -345 1432 Q-341 1403 -331 1381.5 Q-321 1360 -305.5 1347 Q-290 1334 -267 1334 Q-245 1334 -230 1347 Q-215 1360 -205 1381.5 Q-195 1403 -190.5 1432 Q-186 1461 -186 1493 L-75 1493 Q-75 1435 -88.5 1386.5 Q-102 1338 -127 1303.5 Q-152 1269 -187.5 1250 Q-223 1231 -267 1231 Q-312 1231 -347.5 1250 Q-383 1269 -408.5 1303.5 Q-434 1338 -447.5 1386.5 Q-461 1435 -461 1493 L-349 1493 Z " />
<glyph glyph-name="uni0307" unicode="&#x307;" horiz-adv-x="80" d="M-266 1289 Q-307 1289 -330 1316 Q-353 1343 -353 1383 Q-353 1422 -330 1449.5 Q-307 1477 -266 1477 Q-226 1477 -203 1449.5 Q-180 1422 -180 1383 Q-180 1343 -203 1316 Q-226 1289 -266 1289 Z " />
<glyph glyph-name="uni0308" unicode="&#x308;" horiz-adv-x="80" d="M-172 1289 Q-207 1289 -228.5 1315.5 Q-250 1342 -250 1382 Q-250 1421 -228.5 1448.5 Q-207 1476 -172 1476 Q-138 1476 -117.5 1448.5 Q-97 1421 -97 1382 Q-97 1342 -117.5 1315.5 Q-138 1289 -172 1289 Z M-446 1291 Q-481 1291 -502.5 1317.5 Q-524 1344 -524 1384 Q-524 1423 -502.5 1450.5 Q-481 1478 -446 1478 Q-412 1478 -391.5 1450.5 Q-371 1423 -371 1384 Q-371 1344 -391.5 1317.5 Q-412 1291 -446 1291 Z " />
<glyph glyph-name="hookabovecomb" unicode="&#x309;" horiz-adv-x="80" d="M-336 1238 L-342 1377 Q-300 1384 -281.5 1401 Q-263 1418 -263 1462 Q-263 1510 -286.5 1528.5 Q-310 1547 -348 1547 L-344 1639 Q-241 1639 -188.5 1590.5 Q-136 1542 -136 1460 Q-136 1421 -143.5 1393 Q-151 1365 -163 1346.5 Q-175 1328 -191 1318 Q-207 1308 -224 1304 L-223 1238 L-336 1238 Z " />
<glyph glyph-name="uni030A" unicode="&#x30a;" horiz-adv-x="80" >
<g transform="translate(-526,0)" >
<path fill="black" d="M296 1207 Q262 1207 234 1222 Q206 1237 185.5 1263 Q165 1289 154 1325 Q143 1361 143 1403 Q143 1445 154 1481.5 Q165 1518 185.5 1545 Q206 1572 234 1587.5 Q262 1603 296 1603 Q329 1603 356.5 1587.5 Q384 1572 404.5 1545 Q425 1518 436 1481.5 Q447 1445 447 1403 Q447 1361 436 1325 Q425 1289 404.5 1263 Q384 1237 356.5 1222 Q329 1207 296 1207 Z M296 1287 Q333 1287 353 1321 Q373 1355 373 1403 Q373 1427 368 1448.5 Q363 1470 353 1486.5 Q343 1503 328.5 1512.5 Q314 1522 296 1522 Q277 1522 262.5 1512.5 Q248 1503 238 1486.5 Q228 1470 222.5 1448.5 Q217 1427 217 1403 Q217 1380 222.5 1359 Q228 1338 238 1322 Q248 1306 262.5 1296.5 Q277 1287 296 1287 Z " />
</g>
</glyph>
<glyph glyph-name="uni030B" unicode="&#x30b;" horiz-adv-x="80" d="M-388 1536 L-127 1536 L-319 1249 L-532 1249 L-388 1536 Z " />
<glyph glyph-name="uni030C" unicode="&#x30c;" horiz-adv-x="80" d="M-314 1256 L-478 1520 L-478 1532 L-357 1532 L-270 1356 L-182 1532 L-59 1532 L-59 1522 L-225 1256 L-314 1256 Z " />
<glyph glyph-name="uni030D" unicode="&#x30d;" horiz-adv-x="80" >
<g transform="translate(-417,0)" >
<path fill="black" d="M108 1151 L108 1559 L210 1559 L210 1151 L108 1151 Z " />
</g>
</glyph>
<glyph glyph-name="uni030E" unicode="&#x30e;" horiz-adv-x="80" d="M-390 1559 L-262 1559 L-262 1151 L-390 1151 L-390 1559 Z " />
<glyph glyph-name="uni030F" unicode="&#x30f;" horiz-adv-x="80" d="M-353 1252 L-525 1518 L-367 1518 L-224 1252 L-353 1252 Z M-163 1252 L-305 1518 L-153 1518 L-40 1252 L-163 1252 Z " />
<glyph glyph-name="uni0310" unicode="&#x310;" horiz-adv-x="80" >
<g transform="translate(0,-8)" >
<path fill="black" d="M-349 1493 Q-349 1461 -345 1432 Q-341 1403 -331 1381.5 Q-321 1360 -305.5 1347 Q-290 1334 -267 1334 Q-245 1334 -230 1347 Q-215 1360 -205 1381.5 Q-195 1403 -190.5 1432 Q-186 1461 -186 1493 L-75 1493 Q-75 1435 -88.5 1386.5 Q-102 1338 -127 1303.5 Q-152 1269 -187.5 1250 Q-223 1231 -267 1231 Q-312 1231 -347.5 1250 Q-383 1269 -408.5 1303.5 Q-434 1338 -447.5 1386.5 Q-461 1435 -461 1493 L-349 1493 Z " />
</g>
<g transform="translate(0,174)" >
<path fill="black" d="M-266 1289 Q-307 1289 -330 1316 Q-353 1343 -353 1383 Q-353 1422 -330 1449.5 Q-307 1477 -266 1477 Q-226 1477 -203 1449.5 Q-180 1422 -180 1383 Q-180 1343 -203 1316 Q-226 1289 -266 1289 Z " />
</g>
</glyph>
<glyph glyph-name="uni0311" unicode="&#x311;" horiz-adv-x="80" d="M-461 1193 Q-461 1251 -447.5 1299.5 Q-434 1348 -408.5 1382.5 Q-383 1417 -347.5 1436.5 Q-312 1456 -267 1456 Q-223 1456 -187 1436.5 Q-151 1417 -126 1382.5 Q-101 1348 -87.5 1299.5 Q-74 1251 -74 1193 L-186 1193 Q-186 1225 -190.5 1253.5 Q-195 1282 -204.5 1304.5 Q-214 1327 -229.5 1340 Q-245 1353 -267 1353 Q-290 1353 -306 1340 Q-322 1327 -331.5 1305 Q-341 1283 -345.5 1254 Q-350 1225 -350 1193 L-461 1193 Z " />
<glyph glyph-name="uni0312" unicode="&#x312;" horiz-adv-x="80" >
<g transform="translate(-453,0)" >
<path fill="black" d="M117 1207 Q117 1255 125 1304 Q133 1353 147 1400 Q161 1447 180.5 1489.5 Q200 1532 223 1565 L300 1502 Q277 1434 264 1364.5 Q251 1295 251 1210 L251 1028 L117 1028 L117 1207 Z " />
</g>
</glyph>
<glyph glyph-name="uni0313" unicode="&#x313;" horiz-adv-x="80" d="M-409 1091 Q-385 1159 -372 1228.5 Q-359 1298 -359 1383 L-359 1564 L-225 1564 L-225 1385 Q-225 1337 -233 1288 Q-241 1239 -255 1192.5 Q-269 1146 -288.5 1104 Q-308 1062 -331 1028 L-409 1091 Z " />
<glyph glyph-name="uni0314" unicode="&#x314;" horiz-adv-x="80" >
<g transform="translate(-475,0)" >
<path fill="black" d="M223 1028 Q200 1062 180.5 1104 Q161 1146 147 1193 Q133 1240 125 1289 Q117 1338 117 1386 L117 1565 L251 1565 L251 1383 Q251 1298 264 1228.5 Q277 1159 300 1092 L223 1028 Z " />
</g>
</glyph>
<glyph glyph-name="uni0315" unicode="&#x315;" horiz-adv-x="80" >
<g transform="translate(313,0)" >
<path fill="black" d="M-409 1091 Q-385 1159 -372 1228.5 Q-359 1298 -359 1383 L-359 1564 L-225 1564 L-225 1385 Q-225 1337 -233 1288 Q-241 1239 -255 1192.5 Q-269 1146 -288.5 1104 Q-308 1062 -331 1028 L-409 1091 Z " />
</g>
</glyph>
<glyph glyph-name="uni0316" unicode="&#x316;" horiz-adv-x="80" >
<g transform="translate(-511,-1627)" >
<path fill="black" d="M272 1249 L82 1536 L262 1536 L407 1249 L272 1249 Z " />
</g>
</glyph>
</font>
</svg>
