<?xml version="1.0" encoding="UTF-8"?>
<svg xmlns="http://www.w3.org/2000/svg" xmlns:xlink="http://www.w3.org/1999/xlink" version="1.2" >
<font id="GrotoUI-Regular" horiz-adv-x="896">
<font-face  font-family="Groto UI" units-per-em="2048" ascent="2146" descent="-555" font-style="normal" font-weight="400" font-stretch="normal" cap-height="1456" x-height="1082" underline-position="-100" underline-thickness="100" />
<missing-glyph horiz-adv-x="980" d="M131 1456 L849 1456 L849 0 L131 0 L131 1456 Z M794 83 L794 1373 L517 728 L794 83 Z M458 728 L186 1359 L186 97 L458 728 Z M226 54 L748 54 L487 659 L226 54 Z M487 797 L748 1402 L226 1402 L487 797 Z " />
<glyph glyph-name="uni0000" horiz-adv-x="0" />
<glyph glyph-name="uni000D" unicode="&#xd;" horiz-adv-x="532" />
<glyph glyph-name="space" unicode="&#x20;" horiz-adv-x="532" />
<glyph glyph-name="uni0002" unicode="&#x2;" horiz-adv-x="0" />
<glyph glyph-name="uni0009" unicode="&#x9;" horiz-adv-x="532" />
<glyph glyph-name="exclam" unicode="&#x21;" horiz-adv-x="582" d="M208 411 L194 1456 L390 1456 L375 411 L208 411 Z M185 93 Q185 138 214 168.5 Q243 199 297 199 Q351 199 380 168.5 Q409 138 409 93 Q409 48 380 18 Q351 -12 297 -12 Q243 -12 214 18 Q185 48 185 93 Z " />
<glyph glyph-name="quotedbl" unicode="&#x22;" horiz-adv-x="722" d="M162 1391 L162 1536 L306 1536 L306 1400 L276 1044 L161 1044 L162 1391 Z M445 1391 L445 1536 L589 1536 L589 1400 L559 1044 L444 1044 L445 1391 Z " />
<glyph glyph-name="numbersign" unicode="&#x23;" horiz-adv-x="1316" d="M380 410 L136 410 L136 546 L407 546 L476 902 L213 902 L213 1040 L502 1040 L583 1456 L723 1456 L642 1040 L913 1040 L994 1456 L1134 1456 L1053 1040 L1267 1040 L1267 902 L1027 902 L958 546 L1191 546 L1191 410 L931 410 L852 0 L712 0 L791 410 L520 410 L441 0 L301 0 L380 410 Z M818 546 L887 902 L616 902 L547 546 L818 546 Z " />
<glyph glyph-name="dollar" unicode="&#x24;" horiz-adv-x="1225" d="M552 -18 Q473 -11 398.5 17 Q324 45 266.5 98.5 Q209 152 174.5 233 Q140 314 140 429 L326 429 Q326 344 352 288 Q378 232 420 199 Q462 166 514 152.5 Q566 139 617 139 Q685 139 737.5 155.5 Q790 172 826 203 Q862 234 880.5 277.5 Q899 321 899 375 Q899 420 884 458.5 Q869 497 835.5 530 Q802 563 747 591 Q692 619 612 643 Q516 673 439 712 Q362 751 308 803.5 Q254 856 225 924 Q196 992 196 1080 Q196 1164 222 1232.5 Q248 1301 296 1351.5 Q344 1402 412.5 1433.5 Q481 1465 566 1474 L566 1692 L709 1692 L709 1473 Q795 1463 863 1427.5 Q931 1392 978 1333.5 Q1025 1275 1050 1193.5 Q1075 1112 1075 1009 L889 1009 Q889 1076 872 1132.5 Q855 1189 822.5 1230 Q790 1271 742.5 1294 Q695 1317 633 1317 Q569 1317 521.5 1300 Q474 1283 443 1252 Q412 1221 397 1178 Q382 1135 382 1083 Q382 1035 395.5 996.5 Q409 958 442.5 925 Q476 892 532.5 864 Q589 836 674 809 Q771 778 847 739.5 Q923 701 976 650 Q1029 599 1057 532.5 Q1085 466 1085 377 Q1085 290 1057.5 220.5 Q1030 151 979 101 Q928 51 855.5 21.5 Q783 -8 693 -17 L693 -208 L552 -208 L552 -18 Z " />
<glyph glyph-name="percent" unicode="&#x25;" horiz-adv-x="1584" d="M378 177 L1100 1315 L1203 1249 L482 111 L378 177 Z M858 357 Q858 419 878.5 473.5 Q899 528 938 568.5 Q977 609 1033 633 Q1089 657 1159 657 Q1230 657 1286.5 633 Q1343 609 1382 568.5 Q1421 528 1441.5 473.5 Q1462 419 1462 357 L1462 279 Q1462 218 1441.5 163 Q1421 108 1382 67.5 Q1343 27 1287.5 3 Q1232 -21 1161 -21 Q1090 -21 1034 3 Q978 27 939 67.5 Q900 108 879 163 Q858 218 858 279 L858 357 Z M135 1178 Q135 1240 155.5 1294.5 Q176 1349 215 1389.5 Q254 1430 310 1454 Q366 1478 436 1478 Q507 1478 563.5 1454 Q620 1430 659 1389.5 Q698 1349 718.5 1294.5 Q739 1240 739 1178 L739 1100 Q739 1039 718.5 984 Q698 929 659 888.5 Q620 848 564.5 824 Q509 800 438 800 Q367 800 311 824 Q255 848 216 888.5 Q177 929 156 984 Q135 1039 135 1100 L135 1178 Z M996 279 Q996 244 1006 211.5 Q1016 179 1036.5 154 Q1057 129 1088 114 Q1119 99 1161 99 Q1203 99 1233.5 114 Q1264 129 1284.5 154 Q1305 179 1314.5 211.5 Q1324 244 1324 279 L1324 357 Q1324 392 1314 425 Q1304 458 1283.5 483 Q1263 508 1232 523 Q1201 538 1159 538 Q1118 538 1087.5 523 Q1057 508 1036.5 483 Q1016 458 1006 425 Q996 392 996 357 L996 279 Z M273 1100 Q273 1065 283 1032.5 Q293 1000 313.5 975 Q334 950 365 935 Q396 920 438 920 Q480 920 510.5 935 Q541 950 561.5 975 Q582 1000 591.5 1032.5 Q601 1065 601 1100 L601 1178 Q601 1213 591 1246 Q581 1279 560.5 1304 Q540 1329 509 1344 Q478 1359 436 1359 Q395 1359 364.5 1344 Q334 1329 313.5 1304 Q293 1279 283 1246 Q273 1213 273 1178 L273 1100 Z " />
<glyph glyph-name="ampersand" unicode="&#x26;" horiz-adv-x="1356" d="M990 378 Q1025 440 1044 513.5 Q1063 587 1063 672 L1230 672 Q1230 422 1101 248 L1314 0 L1092 0 L992 117 Q913 48 811.5 14 Q710 -20 604 -20 Q494 -20 406.5 10.5 Q319 41 257.5 95.5 Q196 150 163 225.5 Q130 301 130 391 Q130 457 151 511.5 Q172 566 209.5 614 Q247 662 299 705.5 Q351 749 412 794 Q339 883 296 961 Q253 1039 253 1124 Q253 1209 279 1274.5 Q305 1340 353 1385 Q401 1430 469 1453 Q537 1476 621 1476 Q702 1476 766 1451.5 Q830 1427 874.5 1385 Q919 1343 943 1287.5 Q967 1232 967 1170 Q967 1117 952 1073 Q937 1029 910 990.5 Q883 952 846 918.5 Q809 885 766 853 L654 770 L990 378 Z M478 638 Q423 598 390.5 560.5 Q358 523 341.5 491 Q325 459 320.5 433.5 Q316 408 316 391 Q316 338 334 290.5 Q352 243 388 207.5 Q424 172 478.5 151.5 Q533 131 606 131 Q681 131 752.5 160 Q824 189 884 243 L519 668 L478 638 Z M665 963 Q697 984 721.5 1005 Q746 1026 763 1050 Q780 1074 789 1103 Q798 1132 798 1170 Q798 1199 786 1227 Q774 1255 751.5 1277 Q729 1299 696 1312 Q663 1325 620 1325 Q575 1325 540.5 1309.5 Q506 1294 482.5 1267 Q459 1240 447.5 1204.5 Q436 1169 436 1129 Q436 1074 468 1015.5 Q500 957 554 889 L665 963 Z " />
<glyph glyph-name="quotesingle" unicode="&#x27;" horiz-adv-x="421" d="M135 1409 L135 1536 L287 1536 L287 1425 L265 1058 L134 1058 L135 1409 Z " />
<glyph glyph-name="parenleft" unicode="&#x28;" horiz-adv-x="761" d="M655 -470 Q605 -444 549 -396 Q493 -348 438.5 -279.5 Q384 -211 334.5 -122.5 Q285 -34 247.5 74 Q210 182 187.5 309 Q165 436 165 582 L165 592 Q165 737 187.5 864 Q210 991 247.5 1099 Q285 1207 334.5 1295.5 Q384 1384 438.5 1452.5 Q493 1521 549 1569 Q605 1617 655 1643 L694 1522 Q633 1477 571 1398 Q509 1319 459 1203.5 Q409 1088 377.5 936 Q346 784 346 594 L346 580 Q346 390 377.5 237.5 Q409 85 459 -31.5 Q509 -148 571 -229.5 Q633 -311 694 -359 L655 -470 Z " />
<glyph glyph-name="parenright" unicode="&#x29;" horiz-adv-x="773" d="M68 -359 Q129 -314 190.5 -233 Q252 -152 302 -34.5 Q352 83 383.5 236.5 Q415 390 415 580 L415 594 Q415 784 382 937.5 Q349 1091 298 1208.5 Q247 1326 185.5 1406.5 Q124 1487 68 1531 L107 1643 Q157 1617 213 1569 Q269 1521 323.5 1452.5 Q378 1384 428 1295.5 Q478 1207 515.5 1099 Q553 991 575.5 864 Q598 737 598 592 L598 582 Q598 436 575.5 309 Q553 182 515.5 74 Q478 -34 428 -122.5 Q378 -211 323.5 -279.5 Q269 -348 213 -395.5 Q157 -443 107 -470 L68 -359 Z " />
<glyph glyph-name="asterisk" unicode="&#x2a;" horiz-adv-x="985" d="M385 984 L53 1075 L99 1224 L431 1112 L422 1457 L574 1457 L563 1107 L888 1218 L935 1067 L599 975 L818 704 L694 610 L489 899 L289 618 L165 708 L385 984 Z " />
<glyph glyph-name="plus" unicode="&#x2b;" horiz-adv-x="1230" d="M518 607 L105 607 L105 780 L518 780 L518 1206 L703 1206 L703 780 L1118 780 L1118 607 L703 607 L703 146 L518 146 L518 607 Z " />
<glyph glyph-name="comma" unicode="&#x2c;" horiz-adv-x="483" d="M65 -218 Q114 -152 141.5 -83 Q169 -14 169 68 L169 219 L349 219 L349 71 Q349 25 337 -24.5 Q325 -74 302 -121.5 Q279 -169 246 -212.5 Q213 -256 171 -290 L65 -218 Z " />
<glyph glyph-name="hyphen" unicode="&#x2d;" horiz-adv-x="665" d="M79 544 L79 695 L582 695 L582 544 L79 544 Z " />
<glyph glyph-name="period" unicode="&#x2e;" horiz-adv-x="610" d="M175 97 Q175 145 205.5 176.5 Q236 208 293 208 Q350 208 381 176.5 Q412 145 412 97 Q412 51 381 19.5 Q350 -12 293 -12 Q236 -12 205.5 19.5 Q175 51 175 97 Z " />
<glyph glyph-name="slash" unicode="&#x2f;" horiz-adv-x="899" d="M46 -125 L654 1456 L811 1456 L204 -125 L46 -125 Z " />
<glyph glyph-name="zero" unicode="0" horiz-adv-x="1238" d="M151 803 Q151 971 184 1085.5 Q217 1200 277.5 1270.5 Q338 1341 424.5 1371.5 Q511 1402 618 1402 Q726 1402 812.5 1371.5 Q899 1341 959.5 1270.5 Q1020 1200 1053 1085.5 Q1086 971 1086 803 L1086 588 Q1086 420 1053.5 304 Q1021 188 960.5 116.5 Q900 45 814 13 Q728 -19 620 -19 Q513 -19 426.5 13 Q340 45 278.5 116.5 Q217 188 184 304 Q151 420 151 588 L151 803 Z M337 560 Q337 446 355.5 365 Q374 284 410 232 Q446 180 498.5 156 Q551 132 620 132 Q689 132 741.5 156 Q794 180 829.5 232 Q865 284 882.5 365 Q900 446 900 560 L900 833 Q900 948 882 1027.5 Q864 1107 828 1156.5 Q792 1206 739.5 1228.5 Q687 1251 618 1251 Q550 1251 497.5 1228.5 Q445 1206 409.5 1156.5 Q374 1107 355.5 1027.5 Q337 948 337 833 L337 560 Z " />
<glyph glyph-name="one" unicode="1" horiz-adv-x="1237" d="M590 0 L590 1159 L210 1035 L210 1200 L749 1390 L776 1390 L776 0 L590 0 Z " />
<glyph glyph-name="two" unicode="2" horiz-adv-x="1237" d="M159 0 L160 132 L641 633 Q707 702 751 754 Q795 806 821.5 849.5 Q848 893 858.5 931 Q869 969 869 1008 Q869 1059 851.5 1103.5 Q834 1148 801 1180.5 Q768 1213 719.5 1232 Q671 1251 609 1251 Q537 1251 482 1230.5 Q427 1210 390.5 1173.5 Q354 1137 335 1086 Q316 1035 316 973 L129 973 Q129 1062 160.5 1140 Q192 1218 253.5 1276 Q315 1334 404.5 1368 Q494 1402 610 1402 Q715 1402 797.5 1375.5 Q880 1349 937 1300 Q994 1251 1024.5 1183 Q1055 1115 1055 1031 Q1055 969 1032 906.5 Q1009 844 970.5 782 Q932 720 881 659.5 Q830 599 773 541 L387 151 L1123 151 L1123 0 L159 0 Z " />
<glyph glyph-name="three" unicode="3" horiz-adv-x="1236" d="M315 367 Q315 314 335.5 270.5 Q356 227 393.5 196.5 Q431 166 484 149 Q537 132 603 132 Q735 132 810.5 194.5 Q886 257 886 383 Q886 447 863.5 493.5 Q841 540 800 570.5 Q759 601 700 616 Q641 631 569 631 L435 631 L435 781 L569 781 Q643 781 698 798.5 Q753 816 789.5 847 Q826 878 844.5 921 Q863 964 863 1014 Q863 1129 799 1190 Q735 1251 601 1251 Q541 1251 491.5 1235 Q442 1219 406 1189.5 Q370 1160 350 1117.5 Q330 1075 330 1022 L144 1022 Q144 1102 177.5 1171.5 Q211 1241 271 1292 Q331 1343 415 1372.5 Q499 1402 600 1402 Q701 1402 783.5 1377 Q866 1352 925 1303 Q984 1254 1016.5 1181 Q1049 1108 1049 1012 Q1049 972 1035 929 Q1021 886 991.5 845.5 Q962 805 918 770 Q874 735 814 711 Q886 689 935 654 Q984 619 1015 575.5 Q1046 532 1059.5 483.5 Q1073 435 1073 386 Q1073 289 1037 214 Q1001 139 938 87 Q875 35 789 8 Q703 -19 602 -19 Q507 -19 421 6.5 Q335 32 270 81 Q205 130 166.5 202 Q128 274 128 367 L315 367 Z " />
<glyph glyph-name="four" unicode="4" horiz-adv-x="1237" d="M93 429 L744 1383 L950 1383 L950 471 L1156 471 L1156 320 L950 320 L950 0 L764 0 L764 320 L95 320 L93 429 Z M764 471 L764 1140 L761 1135 L308 471 L764 471 Z " />
<glyph glyph-name="five" unicode="5" horiz-adv-x="1237" d="M367 366 Q384 251 457.5 191.5 Q531 132 652 132 Q720 132 772 154 Q824 176 859 216 Q894 256 912.5 313.5 Q931 371 931 441 Q931 505 911.5 560.5 Q892 616 854.5 656.5 Q817 697 761.5 720 Q706 743 634 743 Q586 743 551 737 Q516 731 488 719.5 Q460 708 436 692 Q412 676 388 656 L240 693 L315 1383 L1077 1383 L1077 1216 L472 1216 L427 845 Q465 867 529.5 886 Q594 905 677 905 Q779 905 860.5 872.5 Q942 840 999 779.5 Q1056 719 1087 633 Q1118 547 1118 441 Q1118 342 1089.5 258 Q1061 174 1003.5 112.5 Q946 51 858.5 16 Q771 -19 652 -19 Q562 -19 481.5 5 Q401 29 338.5 77 Q276 125 236.5 197 Q197 269 188 366 L367 366 Z " />
<glyph glyph-name="six" unicode="6" horiz-adv-x="1237" d="M168 713 Q168 881 213.5 1009.5 Q259 1138 337 1225.5 Q415 1313 520 1357.5 Q625 1402 745 1402 Q808 1402 867.5 1393 Q927 1384 969 1367 L936 1227 Q904 1235 863.5 1243 Q823 1251 766 1251 Q682 1251 611 1223 Q540 1195 487 1139.5 Q434 1084 400 1002 Q366 920 357 812 Q411 864 488.5 894 Q566 924 669 924 Q770 924 851 888.5 Q932 853 988.5 791.5 Q1045 730 1075 646 Q1105 562 1105 466 Q1105 361 1073 272 Q1041 183 981.5 118.5 Q922 54 836.5 17.5 Q751 -19 644 -19 Q547 -19 460.5 13 Q374 45 309 110 Q244 175 206 273.5 Q168 372 168 505 L168 713 Z M354 506 Q354 408 377 337 Q400 266 440 220.5 Q480 175 532.5 153 Q585 131 644 131 Q713 131 764.5 158 Q816 185 850.5 231 Q885 277 902 338 Q919 399 919 466 Q919 532 900.5 588.5 Q882 645 846 686.5 Q810 728 756.5 751.5 Q703 775 633 775 Q533 775 462.5 734.5 Q392 694 354 631 L354 506 Z " />
<glyph glyph-name="seven" unicode="7" horiz-adv-x="1237" d="M418 146 Q437 315 480 462.5 Q523 610 587 742.5 Q651 875 735.5 996 Q820 1117 922 1232 L112 1232 L112 1383 L1106 1383 L1106 1232 Q971 1074 882.5 938 Q794 802 738 673 Q682 544 652 416 Q622 288 603 146 L589 0 L402 0 L418 146 Z " />
<glyph glyph-name="eight" unicode="8" horiz-adv-x="1237" d="M146 375 Q146 433 163.5 484.5 Q181 536 213 579 Q245 622 290.5 656 Q336 690 393 713 Q295 758 238 838.5 Q181 919 181 1022 Q181 1113 213.5 1184 Q246 1255 304.5 1303.5 Q363 1352 443 1377 Q523 1402 618 1402 Q713 1402 794 1377 Q875 1352 933.5 1303.5 Q992 1255 1025 1184 Q1058 1113 1058 1022 Q1058 971 1042.5 925 Q1027 879 999 839 Q971 799 931 767.5 Q891 736 842 713 Q899 690 945.5 656 Q992 622 1024.5 578.5 Q1057 535 1075 483.5 Q1093 432 1093 375 Q1093 280 1056.5 206.5 Q1020 133 956 83 Q892 33 805.5 7 Q719 -19 619 -19 Q519 -19 432.5 7 Q346 33 282 83 Q218 133 182 206.5 Q146 280 146 375 Z M332 381 Q332 322 352 276 Q372 230 409.5 198 Q447 166 500 149 Q553 132 619 132 Q685 132 737.5 149 Q790 166 827.5 198 Q865 230 885 276 Q905 322 905 381 Q905 437 884 484 Q863 531 825 565 Q787 599 734 618 Q681 637 618 637 Q553 637 500.5 618 Q448 599 410.5 565 Q373 531 352.5 484 Q332 437 332 381 Z M367 1018 Q367 966 385 923 Q403 880 436 850 Q469 820 515.5 803.5 Q562 787 619 787 Q675 787 721.5 803.5 Q768 820 801 850 Q834 880 852.5 923 Q871 966 871 1018 Q871 1069 852.5 1112 Q834 1155 800.5 1185.5 Q767 1216 720.5 1233.5 Q674 1251 618 1251 Q562 1251 516 1235 Q470 1219 437 1188.5 Q404 1158 385.5 1115 Q367 1072 367 1018 Z " />
<glyph glyph-name="nine" unicode="9" horiz-adv-x="1237" d="M296 178 Q344 160 396 145.5 Q448 131 509 131 Q590 131 657.5 156 Q725 181 773.5 232 Q822 283 849 360 Q876 437 876 541 Q819 488 742 461.5 Q665 435 576 435 Q472 435 388.5 470 Q305 505 246.5 568.5 Q188 632 157 719.5 Q126 807 126 912 Q126 1029 161 1120.5 Q196 1212 257 1274.5 Q318 1337 401 1370 Q484 1403 579 1403 Q687 1403 775.5 1370 Q864 1337 928 1270 Q992 1203 1027 1102 Q1062 1001 1062 865 L1062 546 Q1062 406 1021.5 300 Q981 194 910 123 Q839 52 741 16 Q643 -20 528 -20 Q462 -20 391.5 -7 Q321 6 258 36 L296 178 Z M876 884 Q876 1068 798 1160 Q720 1252 583 1252 Q525 1252 476 1230 Q427 1208 391 1165.5 Q355 1123 334.5 1059.5 Q314 996 314 912 Q314 847 333 787.5 Q352 728 387.5 683 Q423 638 474.5 611 Q526 584 591 584 Q649 584 695.5 597 Q742 610 777.5 632 Q813 654 837.5 683 Q862 712 876 743 L876 884 Z " />
<glyph glyph-name="colon" unicode="&#x3a;" horiz-adv-x="557" >
<g transform="translate(-9,0)" >
<path fill="black" d="M175 97 Q175 145 205.5 176.5 Q236 208 293 208 Q350 208 381 176.5 Q412 145 412 97 Q412 51 381 19.5 Q350 -12 293 -12 Q236 -12 205.5 19.5 Q175 51 175 97 Z " />
</g>
<g transform="translate(-8,876)" >
<path fill="black" d="M175 97 Q175 145 205.5 176.5 Q236 208 293 208 Q350 208 381 176.5 Q412 145 412 97 Q412 51 381 19.5 Q350 -12 293 -12 Q236 -12 205.5 19.5 Q175 51 175 97 Z " />
</g>
</glyph>
<glyph glyph-name="semicolon" unicode="&#x3b;" horiz-adv-x="503" >
<g transform="translate(16,0)" >
<path fill="black" d="M65 -218 Q114 -152 141.5 -83 Q169 -14 169 68 L169 219 L349 219 L349 71 Q349 25 337 -24.5 Q325 -74 302 -121.5 Q279 -169 246 -212.5 Q213 -256 171 -290 L65 -218 Z " />
</g>
<g transform="translate(-28,884)" >
<path fill="black" d="M175 97 Q175 145 205.5 176.5 Q236 208 293 208 Q350 208 381 176.5 Q412 145 412 97 Q412 51 381 19.5 Q350 -12 293 -12 Q236 -12 205.5 19.5 Q175 51 175 97 Z " />
</g>
</glyph>
<glyph glyph-name="less" unicode="&#x3c;" horiz-adv-x="1116" d="M101 720 L938 1098 L938 904 L300 645 L938 391 L938 197 L101 576 L101 720 Z " />
<glyph glyph-name="equal" unicode="&#x3d;" horiz-adv-x="1206" d="M181 400 L181 560 L1034 560 L1034 400 L181 400 Z M181 815 L181 975 L1034 975 L1034 815 L181 815 Z " />
<glyph glyph-name="greater" unicode="&#x3e;" horiz-adv-x="1141" d="M162 388 L833 652 L162 911 L162 1099 L1028 721 L1028 577 L162 198 L162 388 Z " />
<glyph glyph-name="question" unicode="&#x3f;" horiz-adv-x="1038" d="M395 410 Q395 482 404 533 Q413 584 432.5 626.5 Q452 669 485 708 Q518 747 566 795 Q602 831 633.5 862.5 Q665 894 688.5 927.5 Q712 961 726 1000.5 Q740 1040 740 1091 Q740 1196 684.5 1256 Q629 1316 522 1316 Q476 1316 434 1304 Q392 1292 360 1267.5 Q328 1243 309 1205 Q290 1167 290 1115 L104 1115 Q105 1200 137.5 1267 Q170 1334 226.5 1380.5 Q283 1427 358.5 1451.5 Q434 1476 522 1476 Q618 1476 693.5 1449.5 Q769 1423 820.5 1374 Q872 1325 899 1254.5 Q926 1184 926 1097 Q926 1030 905.5 970 Q885 910 850.5 857 Q816 804 771 756 Q726 708 676 664 Q618 613 597.5 548.5 Q577 484 577 410 L395 410 Z M382 93 Q382 138 411 168.5 Q440 199 494 199 Q548 199 577 168.5 Q606 138 606 93 Q606 48 577 18 Q548 -12 494 -12 Q440 -12 411 18 Q382 48 382 93 Z " />
<glyph glyph-name="at" unicode="&#x40;" horiz-adv-x="1929" d="M1312 -364 Q1277 -387 1231 -403.5 Q1185 -420 1135 -431 Q1085 -442 1033.5 -447.5 Q982 -453 935 -453 Q742 -453 590.5 -388.5 Q439 -324 336.5 -203 Q234 -82 184.5 90.5 Q135 263 144 478 Q153 684 218 858.5 Q283 1033 396.5 1160 Q510 1287 666.5 1359 Q823 1431 1015 1431 Q1212 1431 1361.5 1366 Q1511 1301 1610 1180 Q1709 1059 1756 887.5 Q1803 716 1794 503 Q1790 411 1766 317.5 Q1742 224 1692.5 149 Q1643 74 1566.5 26.5 Q1490 -21 1380 -21 Q1286 -21 1224.5 24.5 Q1163 70 1137 152 Q1083 66 1011 22.5 Q939 -21 859 -21 Q785 -21 729.5 10.5 Q674 42 639 100 Q604 158 590.5 238.5 Q577 319 586 418 Q598 550 639 656 Q680 762 740 836 Q800 910 874.5 950 Q949 990 1029 990 Q1084 990 1126 981.5 Q1168 973 1201.5 958.5 Q1235 944 1264 925 Q1293 906 1321 884 L1268 329 Q1262 256 1273 210.5 Q1284 165 1304.5 140 Q1325 115 1351.5 106.5 Q1378 98 1402 98 Q1463 98 1510 129.5 Q1557 161 1590.5 216 Q1624 271 1642.5 344.5 Q1661 418 1665 503 Q1674 690 1639.5 838 Q1605 986 1524.5 1088.5 Q1444 1191 1316 1245.5 Q1188 1300 1010 1300 Q850 1300 720.5 1240.5 Q591 1181 497.5 1072.5 Q404 964 350 812.5 Q296 661 287 478 Q278 291 317.5 141.5 Q357 -8 440.5 -112.5 Q524 -217 650 -273 Q776 -329 939 -329 Q984 -329 1030.5 -323.5 Q1077 -318 1120.5 -308 Q1164 -298 1204 -283.5 Q1244 -269 1275 -251 L1312 -364 Z M1123 329 L1169 832 Q1143 846 1112 854 Q1081 862 1044 862 Q987 862 937 834 Q887 806 847 750 Q807 694 780.5 611 Q754 528 743 418 Q729 276 770.5 199 Q812 122 904 122 Q931 122 961 133.5 Q991 145 1019.5 169.5 Q1048 194 1075 232.5 Q1102 271 1123 326 L1123 329 Z " />
<glyph glyph-name="A" unicode="A" horiz-adv-x="1406" d="M617 1456 L790 1456 L1351 0 L1151 0 L1012 381 L395 381 L256 0 L56 0 L617 1456 Z M955 538 L703 1229 L452 538 L955 538 Z " />
<glyph glyph-name="B" unicode="B" horiz-adv-x="1351" d="M199 1456 L677 1456 Q792 1456 883 1433.5 Q974 1411 1037 1364 Q1100 1317 1133.5 1243.5 Q1167 1170 1167 1069 Q1167 966 1110.5 887.5 Q1054 809 951 766 Q1013 749 1061 715.5 Q1109 682 1141.5 636.5 Q1174 591 1191 536 Q1208 481 1208 420 Q1208 318 1173.5 239.5 Q1139 161 1075 108 Q1011 55 920 27.5 Q829 0 717 0 L199 0 L199 1456 Z M717 156 Q788 156 843.5 174.5 Q899 193 937 227 Q975 261 995 309.5 Q1015 358 1015 418 Q1015 479 998.5 527.5 Q982 576 946.5 610.5 Q911 645 857 663.5 Q803 682 728 682 L393 682 L393 156 L717 156 Z M683 835 Q750 835 803.5 851 Q857 867 894.5 897 Q932 927 952 971 Q972 1015 972 1070 Q972 1191 899.5 1245.5 Q827 1300 677 1300 L393 1300 L393 835 L683 835 Z " />
<glyph glyph-name="C" unicode="C" horiz-adv-x="1412" d="M152 825 Q152 974 193 1094 Q234 1214 310 1299 Q386 1384 494.5 1430 Q603 1476 739 1476 Q865 1476 962 1442 Q1059 1408 1127.5 1344.5 Q1196 1281 1236 1191 Q1276 1101 1287 989 L1093 989 Q1083 1070 1058.5 1131.5 Q1034 1193 992 1235 Q950 1277 887.5 1298.5 Q825 1320 739 1320 Q643 1320 569.5 1284.5 Q496 1249 446.5 1184.5 Q397 1120 371.5 1029 Q346 938 346 827 L346 632 Q346 528 369 437.5 Q392 347 438.5 280 Q485 213 556.5 174.5 Q628 136 725 136 Q817 136 881.5 156.5 Q946 177 989.5 218 Q1033 259 1057.5 320 Q1082 381 1093 462 L1286 462 Q1276 355 1236 266.5 Q1196 178 1126 114 Q1056 50 956 15 Q856 -20 725 -20 Q595 -20 489 26 Q383 72 308 157 Q233 242 192.5 362.5 Q152 483 152 632 L152 825 Z " />
<glyph glyph-name="D" unicode="D" horiz-adv-x="1419" d="M199 1456 L620 1456 Q764 1456 883.5 1411.5 Q1003 1367 1088 1283 Q1173 1199 1220 1077.5 Q1267 956 1267 802 L1267 654 Q1267 500 1220.5 378.5 Q1174 257 1087.5 173 Q1001 89 879 44.5 Q757 0 606 0 L199 0 L199 1456 Z M606 156 Q722 156 809.5 190 Q897 224 956 288.5 Q1015 353 1045 445 Q1075 537 1075 654 L1075 804 Q1075 1047 956.5 1173.5 Q838 1300 620 1300 L393 1300 L393 156 L606 156 Z " />
<glyph glyph-name="E" unicode="E" horiz-adv-x="1237" d="M199 1456 L1131 1456 L1131 1300 L393 1300 L393 830 L1036 830 L1036 674 L393 674 L393 156 L1139 156 L1139 0 L199 0 L199 1456 Z " />
<glyph glyph-name="F" unicode="F" horiz-adv-x="1209" d="M199 1456 L1120 1456 L1120 1300 L393 1300 L393 800 L1022 800 L1022 644 L393 644 L393 0 L199 0 L199 1456 Z " />
<glyph glyph-name="G" unicode="G" horiz-adv-x="1473" d="M157 816 Q157 975 196.5 1098 Q236 1221 311.5 1305 Q387 1389 497 1432.5 Q607 1476 747 1476 Q875 1476 972 1444 Q1069 1412 1136.5 1353.5 Q1204 1295 1243 1212.5 Q1282 1130 1294 1030 L1102 1030 Q1092 1093 1068 1146 Q1044 1199 1001.5 1237.5 Q959 1276 897 1298 Q835 1320 749 1320 Q648 1320 573 1286.5 Q498 1253 448.5 1188.5 Q399 1124 375 1030.5 Q351 937 351 818 L351 641 Q351 519 381 424.5 Q411 330 465.5 266 Q520 202 598 169 Q676 136 772 136 Q849 136 904.5 147 Q960 158 999 173.5 Q1038 189 1062.5 207 Q1087 225 1101 239 L1101 570 L755 570 L755 725 L1294 725 L1294 188 Q1273 160 1234 124 Q1195 88 1132.5 56 Q1070 24 980.5 2 Q891 -20 769 -20 Q634 -20 521.5 23.5 Q409 67 328 151 Q247 235 202 358.5 Q157 482 157 641 L157 816 Z " />
<glyph glyph-name="H" unicode="H" horiz-adv-x="1535" d="M199 1456 L393 1456 L393 830 L1140 830 L1140 1456 L1334 1456 L1334 0 L1140 0 L1140 674 L393 674 L393 0 L199 0 L199 1456 Z " />
<glyph glyph-name="I" unicode="I" horiz-adv-x="626" d="M217 0 L217 1456 L411 1456 L411 0 L217 0 Z " />
<glyph glyph-name="J" unicode="J" horiz-adv-x="1206" d="M280 403 Q280 334 299.5 283.5 Q319 233 354.5 200.5 Q390 168 440 152 Q490 136 551 136 Q610 136 659.5 154.5 Q709 173 746 209.5 Q783 246 803.5 300.5 Q824 355 824 426 L824 1456 L1017 1456 L1017 426 Q1017 317 982 234 Q947 151 885 94.5 Q823 38 737.5 9 Q652 -20 551 -20 Q449 -20 363.5 5.5 Q278 31 216.5 83.5 Q155 136 120.5 215.5 Q86 295 86 403 L280 403 Z " />
<glyph glyph-name="K" unicode="K" horiz-adv-x="1365" d="M199 1456 L393 1456 L393 731 L558 917 L1052 1456 L1288 1456 L707 815 L1330 0 L1098 0 L575 676 L393 488 L393 0 L199 0 L199 1456 Z " />
<glyph glyph-name="L" unicode="L" horiz-adv-x="1172" d="M199 1456 L393 1456 L393 156 L1092 156 L1092 0 L199 0 L199 1456 Z " />
<glyph glyph-name="M" unicode="M" horiz-adv-x="1869" d="M199 1456 L463 1456 L934 299 L1405 1456 L1668 1456 L1668 0 L1476 0 L1476 569 L1496 1217 L1005 0 L861 0 L372 1214 L392 569 L392 0 L199 0 L199 1456 Z " />
<glyph glyph-name="N" unicode="N" horiz-adv-x="1536" d="M199 1456 L402 1456 L1143 313 L1143 1456 L1335 1456 L1335 0 L1131 0 L393 1139 L393 0 L199 0 L199 1456 Z " />
<glyph glyph-name="O" unicode="O" horiz-adv-x="1483" d="M149 804 Q149 964 192 1089 Q235 1214 313 1300 Q391 1386 499.5 1431 Q608 1476 740 1476 Q875 1476 984 1431 Q1093 1386 1170.5 1300 Q1248 1214 1290 1089 Q1332 964 1332 804 L1332 651 Q1332 491 1290.5 366 Q1249 241 1172 155.5 Q1095 70 986 25 Q877 -20 742 -20 Q610 -20 501 25 Q392 70 314 155.5 Q236 241 192.5 366 Q149 491 149 651 L149 804 Z M342 651 Q342 524 370 428.5 Q398 333 450 269.5 Q502 206 576 174 Q650 142 742 142 Q934 142 1037.5 269.5 Q1141 397 1141 651 L1141 806 Q1141 1059 1036 1186 Q931 1313 740 1313 Q648 1313 574.5 1281 Q501 1249 449 1185.5 Q397 1122 369.5 1027 Q342 932 342 806 L342 651 Z " />
<glyph glyph-name="P" unicode="P" horiz-adv-x="1365" d="M199 1456 L739 1456 Q864 1456 960.5 1423 Q1057 1390 1123 1331 Q1189 1272 1223 1190.5 Q1257 1109 1257 1012 Q1257 907 1223 825 Q1189 743 1123 686.5 Q1057 630 960.5 601 Q864 572 739 572 L393 572 L393 0 L199 0 L199 1456 Z M739 727 Q825 727 886.5 748 Q948 769 987 806.5 Q1026 844 1044.5 896 Q1063 948 1063 1010 Q1063 1066 1044.5 1118.5 Q1026 1171 987 1211.5 Q948 1252 886.5 1276 Q825 1300 739 1300 L393 1300 L393 727 L739 727 Z " />
<glyph glyph-name="Q" unicode="Q" horiz-adv-x="1483" d="M142 804 Q142 964 185 1089 Q228 1214 306 1300 Q384 1386 492.5 1431 Q601 1476 733 1476 Q868 1476 977.5 1431 Q1087 1386 1164.5 1300 Q1242 1214 1284 1089 Q1326 964 1326 804 L1326 651 Q1326 447 1259.5 301 Q1193 155 1072 74 L1327 -127 L1197 -247 L890 -3 Q816 -20 735 -20 Q603 -20 494 25 Q385 70 307 156 Q229 242 185.5 366.5 Q142 491 142 651 L142 804 Z M335 651 Q335 524 363 428.5 Q391 333 443.5 269.5 Q496 206 570 174 Q644 142 735 142 Q926 142 1030 269.5 Q1134 397 1134 651 L1134 806 Q1134 1059 1029 1186 Q924 1313 733 1313 Q642 1313 568 1281 Q494 1249 442.5 1185.5 Q391 1122 363 1027 Q335 932 335 806 L335 651 Z " />
<glyph glyph-name="R" unicode="R" horiz-adv-x="1429" d="M206 1456 L738 1456 Q982 1456 1109.5 1350.5 Q1237 1245 1237 1041 Q1237 927 1174 844.5 Q1111 762 994 714 Q1059 694 1103.5 660.5 Q1148 627 1175 582.5 Q1202 538 1214 484 Q1226 430 1226 369 L1226 236 Q1226 175 1240.5 118.5 Q1255 62 1296 25 L1296 0 L1098 0 Q1076 20 1063 52.5 Q1050 85 1043 119.5 Q1036 154 1034.5 186 Q1033 218 1033 238 L1033 367 Q1033 426 1014.5 474.5 Q996 523 961 557.5 Q926 592 875 610.5 Q824 629 759 629 L399 629 L399 0 L206 0 L206 1456 Z M718 785 Q806 785 868 802 Q930 819 969 851.5 Q1008 884 1026 932 Q1044 980 1044 1041 Q1044 1100 1026 1147.5 Q1008 1195 970.5 1229 Q933 1263 874.5 1281 Q816 1299 734 1299 L399 1299 L399 785 L718 785 Z " />
<glyph glyph-name="S" unicode="S" horiz-adv-x="1295" d="M305 422 Q305 347 335.5 293 Q366 239 417 204 Q468 169 534.5 152.5 Q601 136 673 136 Q827 136 910 198.5 Q993 261 993 368 Q993 419 977 458.5 Q961 498 921 531 Q881 564 812.5 592.5 Q744 621 639 651 Q530 683 441 722 Q352 761 289 812.5 Q226 864 191.5 929.5 Q157 995 157 1080 Q157 1165 193.5 1237.5 Q230 1310 296.5 1363 Q363 1416 456.5 1446 Q550 1476 663 1476 Q786 1476 883 1439.5 Q980 1403 1046.5 1341.5 Q1113 1280 1148.5 1201 Q1184 1122 1184 1036 L991 1036 Q991 1098 970.5 1150 Q950 1202 908.5 1239.5 Q867 1277 805.5 1298.5 Q744 1320 662 1320 Q583 1320 525 1302 Q467 1284 428.5 1252 Q390 1220 371 1177 Q352 1134 352 1083 Q352 1037 371.5 999 Q391 961 433.5 929 Q476 897 542.5 870 Q609 843 702 818 Q825 783 916.5 740.5 Q1008 698 1068 644 Q1128 590 1158 522.5 Q1188 455 1188 370 Q1188 281 1151 209 Q1114 137 1046.5 86 Q979 35 884 7.5 Q789 -20 673 -20 Q570 -20 469.5 8.5 Q369 37 289.5 92.5 Q210 148 160.5 230.5 Q111 313 111 422 L305 422 Z " />
<glyph glyph-name="T" unicode="T" horiz-adv-x="1304" d="M556 1300 L79 1300 L79 1456 L1227 1456 L1227 1300 L748 1300 L748 0 L556 0 L556 1300 Z " />
<glyph glyph-name="U" unicode="U" horiz-adv-x="1412" d="M173 1456 L365 1456 L365 456 Q365 371 390 310 Q415 249 460 210.5 Q505 172 568.5 154 Q632 136 708 136 Q785 136 848 154 Q911 172 956 210.5 Q1001 249 1025.5 310 Q1050 371 1050 456 L1050 1456 L1244 1456 L1244 456 Q1244 333 1201 243.5 Q1158 154 1084.5 95.5 Q1011 37 914 8.5 Q817 -20 708 -20 Q594 -20 496 8.5 Q398 37 326.5 95.5 Q255 154 214 243.5 Q173 333 173 456 L173 1456 Z " />
<glyph glyph-name="V" unicode="V" horiz-adv-x="1376" d="M56 1456 L267 1456 L687 244 L1110 1456 L1322 1456 L778 0 L599 0 L56 1456 Z " />
<glyph glyph-name="W" unicode="W" horiz-adv-x="1902" d="M88 1456 L281 1456 L520 401 L545 241 L578 382 L873 1456 L1049 1456 L1339 382 L1372 237 L1399 402 L1634 1456 L1828 1456 L1473 0 L1286 0 L983 1084 L962 1189 L941 1084 L630 0 L443 0 L88 1456 Z " />
<glyph glyph-name="X" unicode="X" horiz-adv-x="1356" d="M563 735 L95 1456 L321 1456 L680 883 L1038 1456 L1264 1456 L797 735 L1276 0 L1049 0 L680 584 L311 0 L83 0 L563 735 Z " />
<glyph glyph-name="Y" unicode="Y" horiz-adv-x="1309" d="M556 544 L45 1456 L265 1456 L653 724 L1043 1456 L1262 1456 L750 544 L750 0 L556 0 L556 544 Z " />
<glyph glyph-name="Z" unicode="Z" horiz-adv-x="1303" d="M116 143 L930 1300 L131 1300 L131 1456 L1164 1456 L1164 1317 L349 156 L1194 156 L1194 0 L116 0 L116 143 Z " />
<glyph glyph-name="bracketleft" unicode="&#x5b;" horiz-adv-x="602" d="M179 1664 L557 1664 L557 1513 L365 1513 L365 -161 L557 -161 L557 -312 L179 -312 L179 1664 Z " />
<glyph glyph-name="backslash" unicode="&#x5c;" horiz-adv-x="906" d="M68 1456 L248 1456 L864 -125 L684 -125 L68 1456 Z " />
<glyph glyph-name="bracketright" unicode="&#x5d;" horiz-adv-x="601" d="M37 -161 L230 -161 L230 1513 L37 1513 L37 1664 L417 1664 L417 -312 L37 -312 L37 -161 Z " />
<glyph glyph-name="asciicircum" unicode="&#x5e;" horiz-adv-x="930" d="M398 1456 L529 1456 L831 729 L662 729 L463 1214 L263 729 L94 729 L398 1456 Z " />
<glyph glyph-name="underscore" unicode="&#x5f;" horiz-adv-x="985" d="M32 -151 L32 0 L953 0 L953 -151 L32 -151 Z " />
<glyph glyph-name="grave" unicode="&#x60;" horiz-adv-x="710" d="M358 1243 L91 1536 L316 1536 L521 1243 L358 1243 Z " />
<glyph glyph-name="a" unicode="a" horiz-adv-x="1182" d="M157 782 Q157 841 188 898 Q219 955 276 1000.5 Q333 1046 413.5 1074 Q494 1102 593 1102 Q683 1102 758.5 1081 Q834 1060 888 1017 Q942 974 972.5 908 Q1003 842 1003 751 L1003 236 Q1003 209 1005.5 179.5 Q1008 150 1012.5 121 Q1017 92 1024.5 65 Q1032 38 1041 16 L1041 0 L848 0 Q837 22 830.5 54.5 Q824 87 820 122 Q794 94 761 68 Q728 42 688 22.5 Q648 3 601 -8.5 Q554 -20 500 -20 Q417 -20 349.5 3 Q282 26 234 68 Q186 110 159.5 169 Q133 228 133 299 Q133 383 167 449.5 Q201 516 265 561.5 Q329 607 421.5 631.5 Q514 656 631 656 L817 656 L817 753 Q817 851 758 902 Q699 953 584 953 Q530 953 485.5 939 Q441 925 409.5 902 Q378 879 360.5 848 Q343 817 343 782 L157 782 Z M817 526 L657 526 Q494 526 406.5 475 Q319 424 319 323 Q319 237 373 188.5 Q427 140 529 140 Q582 140 627.5 154 Q673 168 710 190.5 Q747 213 774.5 241.5 Q802 270 817 300 L817 526 Z " />
<glyph glyph-name="b" unicode="b" horiz-adv-x="1222" d="M171 1536 L357 1536 L357 953 Q411 1025 488.5 1063.5 Q566 1102 672 1102 Q775 1102 854.5 1066 Q934 1030 988 961 Q1042 892 1070 792.5 Q1098 693 1098 565 L1098 514 Q1098 392 1070 293 Q1042 194 988 124.5 Q934 55 855 17.5 Q776 -20 674 -20 Q565 -20 485.5 19.5 Q406 59 352 133 L343 0 L171 0 L171 1536 Z M357 305 Q374 269 399 238.5 Q424 208 457.5 185 Q491 162 534 149 Q577 136 629 136 Q704 136 757.5 163.5 Q811 191 845 240.5 Q879 290 895 360 Q911 430 911 514 L911 565 Q911 649 896 719.5 Q881 790 847.5 840.5 Q814 891 759.5 919 Q705 947 626 947 Q573 947 530.5 934.5 Q488 922 455 899.5 Q422 877 398 846.5 Q374 816 357 780 L357 305 Z " />
<glyph glyph-name="c" unicode="c" horiz-adv-x="1141" d="M120 577 Q120 690 150 786 Q180 882 241 952 Q302 1022 393 1062 Q484 1102 606 1102 Q701 1102 779.5 1073.5 Q858 1045 915.5 993.5 Q973 942 1006 870 Q1039 798 1042 711 L866 711 Q863 765 842.5 809.5 Q822 854 788 885.5 Q754 917 707.5 934 Q661 951 605 951 Q520 951 462.5 920.5 Q405 890 370.5 838.5 Q336 787 321.5 719 Q307 651 307 577 L307 505 Q307 430 321 362.5 Q335 295 369.5 243.5 Q404 192 461.5 161.5 Q519 131 606 131 Q657 131 702.5 145.5 Q748 160 783 187 Q818 214 840 253 Q862 292 866 342 L1042 342 Q1039 266 1003 200 Q967 134 908 85 Q849 36 771 8 Q693 -20 606 -20 Q484 -20 392.5 20 Q301 60 240.5 130 Q180 200 150 296.5 Q120 393 120 505 L120 577 Z " />
<glyph glyph-name="d" unicode="d" horiz-adv-x="1226" d="M125 565 Q125 693 155 792.5 Q185 892 241 961 Q297 1030 376.5 1066 Q456 1102 555 1102 Q658 1102 733.5 1066 Q809 1030 863 961 L863 1536 L1050 1536 L1050 0 L878 0 L869 127 Q815 55 737 17.5 Q659 -20 553 -20 Q456 -20 376.5 17.5 Q297 55 241.5 124.5 Q186 194 155.5 293 Q125 392 125 514 L125 565 Z M312 514 Q312 430 328.5 360 Q345 290 380 240.5 Q415 191 469.5 163.5 Q524 136 599 136 Q649 136 690 147.5 Q731 159 763 180 Q795 201 820 230 Q845 259 863 293 L863 794 Q845 827 821 855 Q797 883 764.5 903.5 Q732 924 691.5 935.5 Q651 947 600 947 Q524 947 469.5 919 Q415 891 380 840.5 Q345 790 328.5 720 Q312 650 312 565 L312 514 Z " />
<glyph glyph-name="e" unicode="e" horiz-adv-x="1156" d="M120 561 Q120 697 159.5 798.5 Q199 900 265 967.5 Q331 1035 418.5 1068.5 Q506 1102 602 1102 Q717 1102 802 1064.5 Q887 1027 943 958.5 Q999 890 1026.5 794 Q1054 698 1054 580 L1054 490 L307 490 L307 489 Q307 408 329.5 341.5 Q352 275 395 228 Q438 181 499 155.5 Q560 130 636 130 Q736 130 807 167.5 Q878 205 932 267 L1036 171 Q1009 135 972 100.5 Q935 66 884.5 39 Q834 12 770 -4 Q706 -20 626 -20 Q511 -20 417.5 15 Q324 50 258 116 Q192 182 156 276.5 Q120 371 120 489 L120 561 Z M868 640 L868 659 Q865 717 849.5 769.5 Q834 822 802.5 862.5 Q771 903 721.5 927 Q672 951 601 951 Q541 951 491.5 932.5 Q442 914 404.5 876 Q367 838 343 779.5 Q319 721 311 640 L868 640 Z " />
<glyph glyph-name="f" unicode="f" horiz-adv-x="776" d="M261 941 L87 941 L87 1082 L261 1082 L261 1197 Q261 1284 285.5 1351.5 Q310 1419 356.5 1464.5 Q403 1510 469.5 1533.5 Q536 1557 620 1557 Q653 1557 686.5 1553 Q720 1549 752 1541 L742 1391 Q720 1396 694.5 1398.5 Q669 1401 640 1401 Q549 1401 498.5 1348.5 Q448 1296 448 1197 L448 1082 L686 1082 L686 941 L448 941 L448 0 L261 0 L261 941 Z " />
<glyph glyph-name="g" unicode="g" horiz-adv-x="1155" d="M662 196 Q758 196 833.5 178.5 Q909 161 962 125 Q1015 89 1043 33.5 Q1071 -22 1071 -98 Q1071 -155 1035 -215.5 Q999 -276 930 -325.5 Q861 -375 760 -406.5 Q659 -438 530 -438 Q416 -438 328.5 -415.5 Q241 -393 182 -355 Q123 -317 92.5 -267 Q62 -217 62 -161 Q62 -113 77 -72.5 Q92 -32 118 1 Q144 34 178 59.5 Q212 85 249 103 Q223 125 208 155 Q193 185 193 224 Q193 262 203 292.5 Q213 323 229 347.5 Q245 372 265.5 392 Q286 412 307 427 Q221 476 172.5 553.5 Q124 631 124 722 L124 744 Q124 822 156 887.5 Q188 953 245 1001 Q302 1049 382 1075.5 Q462 1102 558 1102 Q641 1102 713 1082 L1078 1082 L1080 937 L916 959 Q954 914 974 860.5 Q994 807 994 744 L994 722 Q994 649 962.5 584 Q931 519 873.5 470 Q816 421 736 392.5 Q656 364 560 364 Q481 364 412 384 Q389 367 372.5 341.5 Q356 316 356 279 Q356 255 366 239.5 Q376 224 393.5 214 Q411 204 434 200 Q457 196 484 196 L662 196 Z M808 745 Q808 788 790 827 Q772 866 739.5 895 Q707 924 661 941.5 Q615 959 558 959 Q502 959 456 941.5 Q410 924 377.5 895 Q345 866 327 827 Q309 788 309 745 L309 721 Q309 681 326.5 642.5 Q344 604 377 574 Q410 544 456.5 525.5 Q503 507 560 507 Q617 507 662.5 525.5 Q708 544 740.5 574 Q773 604 790.5 642.5 Q808 681 808 721 L808 745 Z M449 46 Q409 46 371 52 Q345 42 322 24.5 Q299 7 282 -16 Q265 -39 255.5 -66.5 Q246 -94 246 -125 Q246 -158 263 -188 Q280 -218 315 -240 Q350 -262 403.5 -275 Q457 -288 530 -288 Q617 -288 683 -270 Q749 -252 794 -224.5 Q839 -197 862 -163.5 Q885 -130 885 -98 Q885 -64 873.5 -37 Q862 -10 835.5 8.5 Q809 27 765 36.5 Q721 46 656 46 L449 46 Z " />
<glyph glyph-name="h" unicode="h" horiz-adv-x="1204" d="M171 1536 L357 1536 L357 941 Q415 1016 498.5 1059 Q582 1102 685 1102 Q766 1102 831 1080.5 Q896 1059 942 1012 Q988 965 1012.5 890.5 Q1037 816 1037 709 L1037 0 L850 0 L850 711 Q850 839 792.5 893 Q735 947 628 947 Q532 947 463.5 897 Q395 847 357 768 L357 0 L171 0 L171 1536 Z " />
<glyph glyph-name="i" unicode="i" horiz-adv-x="560" >
<g transform="translate(1,0)" >
<path fill="black" d="M187 0 L187 1082 L373 1082 L373 0 L187 0 Z " />
</g>
<g transform="translate(0,2)" >
<path fill="black" d="M171 1369 Q171 1414 200 1444.5 Q229 1475 283 1475 Q337 1475 366 1444.5 Q395 1414 395 1369 Q395 1324 366 1294 Q337 1264 283 1264 Q229 1264 200 1294 Q171 1324 171 1369 Z " />
</g>
</glyph>
<glyph glyph-name="j" unicode="j" horiz-adv-x="556" d="M-49 -272 Q-29 -277 -5 -279 Q19 -281 39 -281 Q108 -281 143.5 -247 Q179 -213 179 -129 L179 1082 L367 1082 L367 -129 Q367 -279 292 -358 Q217 -437 68 -437 Q41 -437 8.5 -432.5 Q-24 -428 -50 -420 L-49 -272 Z M160 1371 Q160 1416 189 1446.5 Q218 1477 272 1477 Q326 1477 355 1446.5 Q384 1416 384 1371 Q384 1326 355 1296 Q326 1266 272 1266 Q218 1266 189 1296 Q160 1326 160 1371 Z " />
<glyph glyph-name="k" unicode="k" horiz-adv-x="1111" d="M173 1536 L359 1536 L359 597 L466 711 L808 1082 L1036 1082 L604 633 L1082 0 L863 0 L478 500 L359 374 L359 0 L173 0 L173 1536 Z " />
<glyph glyph-name="l" unicode="l" horiz-adv-x="686" d="M185 1536 L372 1536 L372 268 Q372 226 382 200.5 Q392 175 409 161 Q426 147 448.5 142.5 Q471 138 496 138 Q521 138 546 142 Q571 146 586 150 L588 0 Q564 -7 527.5 -13.5 Q491 -20 443 -20 Q388 -20 341 -5.5 Q294 9 259.5 43 Q225 77 205 132.5 Q185 188 185 269 L185 1536 Z " />
<glyph glyph-name="m" unicode="m" horiz-adv-x="1881" d="M169 1082 L346 1082 L352 951 Q408 1022 490.5 1062 Q573 1102 682 1102 Q791 1102 873.5 1059.5 Q956 1017 998 921 Q1052 1001 1140.5 1051.5 Q1229 1102 1349 1102 Q1436 1102 1503.5 1079.5 Q1571 1057 1617.5 1009 Q1664 961 1688 887 Q1712 813 1712 711 L1712 0 L1526 0 L1526 713 Q1526 781 1509.5 826 Q1493 871 1462.5 898 Q1432 925 1389 936 Q1346 947 1293 947 Q1236 947 1191.5 930.5 Q1147 914 1114.5 885.5 Q1082 857 1062 818.5 Q1042 780 1034 736 L1034 721 L1034 0 L847 0 L847 712 Q847 775 830.5 820 Q814 865 783.5 893 Q753 921 710 934 Q667 947 614 947 Q511 947 449 900.5 Q387 854 356 780 L356 0 L169 0 L169 1082 Z " />
<glyph glyph-name="n" unicode="n" horiz-adv-x="1206" d="M171 1082 L348 1082 L354 937 Q413 1015 497 1058.5 Q581 1102 687 1102 Q768 1102 832.5 1080.5 Q897 1059 942.5 1012 Q988 965 1012.5 890.5 Q1037 816 1037 709 L1037 0 L851 0 L851 711 Q851 839 793 893 Q735 947 628 947 Q534 947 465 897 Q396 847 358 768 L358 0 L171 0 L171 1082 Z " />
<glyph glyph-name="o" unicode="o" horiz-adv-x="1238" d="M120 567 Q120 687 155.5 786 Q191 885 256 955 Q321 1025 412.5 1063.5 Q504 1102 617 1102 Q731 1102 824 1063.5 Q917 1025 982 955 Q1047 885 1082.5 786 Q1118 687 1118 567 L1118 514 Q1118 394 1082.5 295.5 Q1047 197 982 127 Q917 57 825 18.5 Q733 -20 620 -20 Q506 -20 413.5 18.5 Q321 57 256 127 Q191 197 155.5 295.5 Q120 394 120 514 L120 567 Z M306 514 Q306 431 326 360.5 Q346 290 386 239 Q426 188 484.5 159.5 Q543 131 620 131 Q697 131 755 159.5 Q813 188 852 239 Q891 290 911 360.5 Q931 431 931 514 L931 567 Q931 650 911 720 Q891 790 851 841.5 Q811 893 752.5 922 Q694 951 617 951 Q541 951 483 922 Q425 893 385.5 841.5 Q346 790 326 720 Q306 650 306 567 L306 514 Z " />
<glyph glyph-name="p" unicode="p" horiz-adv-x="1221" d="M171 1082 L342 1082 L351 953 Q406 1025 485.5 1063.5 Q565 1102 671 1102 Q774 1102 853 1066 Q932 1030 986 961 Q1040 892 1068 792.5 Q1096 693 1096 565 L1096 514 Q1096 392 1068 293 Q1040 194 986 124.5 Q932 55 853.5 17.5 Q775 -20 674 -20 Q569 -20 490.5 15 Q412 50 357 116 L357 -416 L171 -416 L171 1082 Z M357 279 Q375 247 399.5 220 Q424 193 456.5 173 Q489 153 529.5 142 Q570 131 620 131 Q695 131 750 159 Q805 187 840.5 238 Q876 289 893 359.5 Q910 430 910 514 L910 565 Q910 650 893 720 Q876 790 840 840.5 Q804 891 749 919 Q694 947 618 947 Q568 947 527.5 935.5 Q487 924 455 904 Q423 884 399 856.5 Q375 829 357 797 L357 279 Z " />
<glyph glyph-name="q" unicode="q" horiz-adv-x="1234" d="M863 112 Q809 48 733 14 Q657 -20 556 -20 Q454 -20 374 17.5 Q294 55 238.5 124.5 Q183 194 154 293 Q125 392 125 514 L125 565 Q125 693 154 792.5 Q183 892 238.5 961 Q294 1030 374.5 1066 Q455 1102 558 1102 Q661 1102 738 1066 Q815 1030 869 961 L878 1082 L1049 1082 L1049 -416 L863 -416 L863 112 Z M312 514 Q312 430 329 359.5 Q346 289 381.5 238 Q417 187 472 159 Q527 131 602 131 Q699 131 762.5 173.5 Q826 216 863 281 L863 806 Q826 868 763 909.5 Q700 951 603 951 Q527 951 472 922.5 Q417 894 381.5 843 Q346 792 329 721 Q312 650 312 565 L312 514 Z " />
<glyph glyph-name="r" unicode="r" horiz-adv-x="768" d="M172 1082 L352 1082 L357 949 Q399 1020 465.5 1061 Q532 1102 626 1102 Q646 1102 672 1097.5 Q698 1093 709 1088 L708 912 Q685 916 663.5 917.5 Q642 919 616 919 Q516 919 452 878 Q388 837 358 765 L358 0 L172 0 L172 1082 Z " />
<glyph glyph-name="s" unicode="s" horiz-adv-x="1125" d="M307 329 Q310 272 335 233.5 Q360 195 397.5 172.5 Q435 150 481 140.5 Q527 131 572 131 Q688 131 748.5 173.5 Q809 216 809 283 Q809 313 798.5 339 Q788 365 759 388 Q730 411 679 432 Q628 453 547 473 Q456 497 384 525 Q312 553 262.5 590 Q213 627 186.5 675.5 Q160 724 160 790 Q160 854 188.5 911 Q217 968 269.5 1010.5 Q322 1053 397 1077.5 Q472 1102 565 1102 Q664 1102 742 1076 Q820 1050 874.5 1005 Q929 960 957.5 899 Q986 838 986 768 L800 768 Q800 802 784.5 834.5 Q769 867 739 893 Q709 919 665.5 935 Q622 951 565 951 Q507 951 465 937.5 Q423 924 396.5 902.5 Q370 881 357.5 853 Q345 825 345 795 Q345 765 355.5 742.5 Q366 720 395 700.5 Q424 681 474.5 663 Q525 645 605 624 Q704 598 777.5 568 Q851 538 899 499.5 Q947 461 971 411.5 Q995 362 995 297 Q995 226 965 167.5 Q935 109 879.5 67.5 Q824 26 745.5 3 Q667 -20 571 -20 Q462 -20 378.5 9.5 Q295 39 238 88 Q181 137 152 199.5 Q123 262 123 329 L307 329 Z " />
<glyph glyph-name="t" unicode="t" horiz-adv-x="738" d="M237 941 L42 941 L42 1082 L237 1082 L237 1345 L424 1345 L424 1082 L632 1082 L632 941 L424 941 L424 268 Q424 226 434 200.5 Q444 175 461 161 Q478 147 500.5 142.5 Q523 138 548 138 Q573 138 598.5 142 Q624 146 638 150 L641 0 Q617 -7 580 -13.5 Q543 -20 495 -20 Q441 -20 393.5 -5.5 Q346 9 311.5 43 Q277 77 257 132.5 Q237 188 237 269 L237 941 Z " />
<glyph glyph-name="u" unicode="u" horiz-adv-x="1205" d="M167 1082 L353 1082 L353 382 Q353 309 370 261 Q387 213 416 185.5 Q445 158 482.5 147 Q520 136 561 136 Q678 136 747 181 Q816 226 847 299 L847 1082 L1035 1082 L1035 0 L857 0 L852 115 Q801 51 721 15.5 Q641 -20 528 -20 Q447 -20 380.5 2.5 Q314 25 266.5 74 Q219 123 193 199.5 Q167 276 167 384 L167 1082 Z " />
<glyph glyph-name="v" unicode="v" horiz-adv-x="1068" d="M61 1082 L253 1082 L535 247 L812 1082 L1004 1082 L609 0 L459 0 L61 1082 Z " />
<glyph glyph-name="w" unicode="w" horiz-adv-x="1616" d="M76 1082 L261 1082 L475 245 L732 1082 L880 1082 L1140 231 L1350 1082 L1536 1082 L1222 0 L1068 0 L803 847 L543 0 L389 0 L76 1082 Z " />
<glyph glyph-name="x" unicode="x" horiz-adv-x="1088" d="M439 548 L83 1082 L295 1082 L541 679 L789 1082 L1003 1082 L646 548 L1015 0 L802 0 L543 414 L284 0 L70 0 L439 548 Z " />
<glyph glyph-name="y" unicode="y" horiz-adv-x="1049" d="M120 -273 Q130 -275 147.5 -276 Q165 -277 173 -277 Q220 -277 255.5 -268 Q291 -259 318.5 -238 Q346 -217 367 -183.5 Q388 -150 407 -101 L449 7 L52 1082 L254 1082 L538 265 L798 1082 L997 1082 L551 -168 Q537 -208 513 -255 Q489 -302 451 -342.5 Q413 -383 358 -410 Q303 -437 227 -437 Q215 -437 200 -435 Q185 -433 170 -430.5 Q155 -428 142 -425.5 Q129 -423 120 -421 L120 -273 Z " />
<glyph glyph-name="z" unicode="z" horiz-adv-x="1087" d="M117 135 L730 930 L129 930 L129 1082 L959 1082 L959 952 L342 151 L990 151 L990 0 L117 0 L117 135 Z " />
<glyph glyph-name="braceleft" unicode="&#x7b;" horiz-adv-x="755" d="M308 305 Q308 359 296 403 Q284 447 257.5 478 Q231 509 190.5 526 Q150 543 93 543 L93 688 Q150 688 190.5 704.5 Q231 721 257.5 752 Q284 783 296 827 Q308 871 308 925 L308 1132 Q308 1211 325.5 1282.5 Q343 1354 384 1414.5 Q425 1475 494 1521.5 Q563 1568 665 1597 L704 1484 Q644 1465 603 1431 Q562 1397 537.5 1351 Q513 1305 502 1249.5 Q491 1194 491 1132 L491 925 Q491 825 451.5 743.5 Q412 662 324 615 Q412 568 451.5 486.5 Q491 405 491 305 L491 98 Q491 37 502 -19 Q513 -75 538 -120.5 Q563 -166 603.5 -200 Q644 -234 704 -253 L665 -367 Q563 -338 494 -291.5 Q425 -245 384 -184.5 Q343 -124 325.5 -52.5 Q308 19 308 98 L308 305 Z " />
<glyph glyph-name="bar" unicode="&#x7c;" horiz-adv-x="565" d="M210 -270 L210 1456 L357 1456 L357 -270 L210 -270 Z " />
<glyph glyph-name="braceright" unicode="&#x7d;" horiz-adv-x="756" d="M49 -253 Q109 -234 150 -200 Q191 -166 216 -120.5 Q241 -75 252 -19 Q263 37 263 98 L263 305 Q263 410 306.5 491 Q350 572 446 615 Q350 658 306.5 739 Q263 820 263 925 L263 1132 Q263 1194 252 1249.5 Q241 1305 216.5 1351 Q192 1397 151 1431 Q110 1465 50 1484 L88 1597 Q191 1568 259.5 1521.5 Q328 1475 369.5 1414.5 Q411 1354 428.5 1282.5 Q446 1211 446 1132 L446 925 Q446 871 458 827 Q470 783 496.5 752 Q523 721 563.5 704.5 Q604 688 661 688 L661 543 Q604 543 563.5 526 Q523 509 496.5 478 Q470 447 458 403 Q446 359 446 305 L446 98 Q446 19 428.5 -52.5 Q411 -124 369.5 -184.5 Q328 -245 259.5 -291.5 Q191 -338 88 -367 L49 -253 Z " />
<glyph glyph-name="asciitilde" unicode="&#x7e;" horiz-adv-x="1465" d="M162 437 Q162 515 185.5 582 Q209 649 251.5 697.5 Q294 746 353.5 774 Q413 802 485 802 Q529 802 567 792.5 Q605 783 641 765 Q677 747 712.5 721.5 Q748 696 785 663 Q841 613 884 588.5 Q927 564 978 564 Q1017 564 1049.5 579.5 Q1082 595 1104.5 623.5 Q1127 652 1139.5 691 Q1152 730 1152 777 L1303 778 Q1303 701 1279.5 633 Q1256 565 1213.5 514 Q1171 463 1111.5 433 Q1052 403 980 403 Q936 403 898 412 Q860 421 824.5 438 Q789 455 754 481.5 Q719 508 680 542 Q626 590 582 615.5 Q538 641 487 641 Q408 641 364.5 587 Q321 533 321 438 L162 437 Z " />
<glyph glyph-name="uni00A0" unicode="&#xa0;" horiz-adv-x="532" />
<glyph glyph-name="exclamdown" unicode="&#xa1;" horiz-adv-x="564" d="M204 685 L370 685 L384 -361 L189 -361 L204 685 Z M169 996 Q169 1041 198 1071.5 Q227 1102 281 1102 Q335 1102 364 1071.5 Q393 1041 393 996 Q393 951 364 921 Q335 891 281 891 Q227 891 198 921 Q169 951 169 996 Z " />
<glyph glyph-name="cent" unicode="&#xa2;" horiz-adv-x="1110" d="M530 -13 Q433 3 360 48 Q287 93 238.5 161 Q190 229 166 317 Q142 405 142 505 L142 577 Q142 678 166 765.5 Q190 853 238.5 921 Q287 989 360 1034 Q433 1079 530 1095 L530 1318 L705 1318 L705 1097 Q784 1086 849 1053.5 Q914 1021 960.5 971 Q1007 921 1034 855 Q1061 789 1064 711 L888 711 Q885 765 864.5 809.5 Q844 854 810 885.5 Q776 917 729.5 934 Q683 951 627 951 Q542 951 484.5 920.5 Q427 890 392.5 838.5 Q358 787 343.5 719 Q329 651 329 577 L329 505 Q329 430 343 362.5 Q357 295 391.5 243.5 Q426 192 483.5 161.5 Q541 131 628 131 Q679 131 724.5 145.5 Q770 160 805 187 Q840 214 862 253 Q884 292 888 342 L1064 342 Q1061 275 1032 215.5 Q1003 156 955 108.5 Q907 61 843 29.5 Q779 -2 705 -14 L705 -245 L530 -245 L530 -13 Z " />
<glyph glyph-name="sterling" unicode="&#xa3;" horiz-adv-x="1265" d="M127 156 L211 156 Q237 162 255 188.5 Q273 215 283.5 251 Q294 287 298.5 327 Q303 367 302 400 L296 624 L123 624 L123 779 L293 779 L286 1039 Q283 1143 315 1224 Q347 1305 406 1361 Q465 1417 546.5 1446.5 Q628 1476 725 1476 Q825 1476 903 1448 Q981 1420 1034.5 1368.5 Q1088 1317 1116 1245.5 Q1144 1174 1144 1087 L953 1087 Q953 1150 933 1194.5 Q913 1239 880 1266.5 Q847 1294 803 1307 Q759 1320 711 1320 Q661 1320 617.5 1301.5 Q574 1283 542.5 1247.5 Q511 1212 493 1159.5 Q475 1107 475 1039 L483 779 L812 779 L812 624 L488 624 L495 402 Q497 331 481.5 267 Q466 203 432 156 L1170 156 L1169 0 L127 0 L127 156 Z " />
<glyph glyph-name="currency" unicode="&#xa4;" horiz-adv-x="1599" d="M133 109 L280 250 Q228 326 199 416.5 Q170 507 170 608 Q170 714 201 807.5 Q232 901 289 978 L133 1129 L259 1264 L420 1110 Q500 1169 597 1201.5 Q694 1234 802 1234 Q911 1234 1009 1200.5 Q1107 1167 1188 1107 L1352 1265 L1478 1129 L1318 975 Q1374 898 1404.5 805.5 Q1435 713 1435 608 Q1435 508 1406.5 418.5 Q1378 329 1327 254 L1478 109 L1352 -27 L1201 118 Q1119 52 1017.5 16 Q916 -20 802 -20 Q689 -20 588.5 15.5 Q488 51 407 116 L259 -26 L133 109 Z M336 608 Q336 514 372.5 430.5 Q409 347 472.5 285 Q536 223 621 187 Q706 151 802 151 Q899 151 984 187 Q1069 223 1132.5 285 Q1196 347 1232.5 430.5 Q1269 514 1269 608 Q1269 703 1232.5 786 Q1196 869 1132.5 931 Q1069 993 984 1028.5 Q899 1064 802 1064 Q706 1064 621 1028.5 Q536 993 472.5 931 Q409 869 372.5 786 Q336 703 336 608 Z " />
<glyph glyph-name="yen" unicode="&#xa5;" horiz-adv-x="1149" d="M144 446 L474 446 L474 612 L144 612 L144 736 L418 736 L46 1456 L261 1456 L575 779 L889 1456 L1102 1456 L730 736 L999 736 L999 612 L667 612 L667 446 L999 446 L999 322 L667 322 L667 0 L474 0 L474 322 L144 322 L144 446 Z " />
<glyph glyph-name="brokenbar" unicode="&#xa6;" horiz-adv-x="556" d="M181 -270 L181 521 L366 521 L366 -270 L181 -270 Z M181 698 L181 1456 L366 1456 L366 698 L181 698 Z " />
<glyph glyph-name="section" unicode="&#xa7;" horiz-adv-x="1332" d="M311 -62 Q311 -142 342 -196 Q373 -250 421.5 -283 Q470 -316 531 -330 Q592 -344 652 -344 Q726 -344 783.5 -327.5 Q841 -311 880 -282.5 Q919 -254 939.5 -215 Q960 -176 960 -131 Q960 -85 943 -50 Q926 -15 885.5 14 Q845 43 777 70 Q709 97 607 127 Q496 156 407.5 191 Q319 226 257.5 275 Q196 324 163 391 Q130 458 130 551 Q130 644 177.5 713.5 Q225 783 313 824 Q245 874 209 942.5 Q173 1011 173 1111 Q173 1194 208 1261.5 Q243 1329 307.5 1377 Q372 1425 464 1451 Q556 1477 669 1477 Q785 1477 877 1449 Q969 1421 1033.5 1366 Q1098 1311 1132 1230.5 Q1166 1150 1166 1046 L980 1046 Q980 1104 960 1155 Q940 1206 900.5 1244 Q861 1282 803 1304 Q745 1326 669 1326 Q589 1326 530.5 1309 Q472 1292 434 1263 Q396 1234 378 1195.5 Q360 1157 360 1113 Q360 1063 375 1027 Q390 991 429.5 962.5 Q469 934 537.5 909 Q606 884 712 855 Q826 824 914.5 788.5 Q1003 753 1064 705 Q1125 657 1157 590.5 Q1189 524 1189 431 Q1189 337 1140 268 Q1091 199 1002 159 Q1073 110 1109.5 41.5 Q1146 -27 1146 -129 Q1146 -216 1111 -284 Q1076 -352 1011.5 -399 Q947 -446 855.5 -470.5 Q764 -495 652 -495 Q555 -495 460 -473 Q365 -451 290.5 -401 Q216 -351 170 -268.5 Q124 -186 124 -64 L311 -62 Z M316 553 Q316 502 331.5 465.5 Q347 429 387.5 400 Q428 371 498.5 345 Q569 319 678 289 Q723 277 763 264.5 Q803 252 839 239 Q919 259 961.5 309.5 Q1004 360 1004 428 Q1004 475 986.5 511 Q969 547 926.5 577 Q884 607 813.5 634 Q743 661 638 689 Q547 715 470 743 Q391 723 353.5 672.5 Q316 622 316 553 Z " />
<glyph glyph-name="dieresis" unicode="&#xa8;" horiz-adv-x="976" >
<g transform="translate(-37,4)" >
<path fill="black" d="M171 1369 Q171 1414 200 1444.5 Q229 1475 283 1475 Q337 1475 366 1444.5 Q395 1414 395 1369 Q395 1324 366 1294 Q337 1264 283 1264 Q229 1264 200 1294 Q171 1324 171 1369 Z " />
</g>
<g transform="translate(430,2)" >
<path fill="black" d="M171 1369 Q171 1414 200 1444.5 Q229 1475 283 1475 Q337 1475 366 1444.5 Q395 1414 395 1369 Q395 1324 366 1294 Q337 1264 283 1264 Q229 1264 200 1294 Q171 1324 171 1369 Z " />
</g>
</glyph>
<glyph glyph-name="copyright" unicode="&#xa9;" horiz-adv-x="1765" d="M125 729 Q125 888 184.5 1024.5 Q244 1161 346 1261.5 Q448 1362 585.5 1419 Q723 1476 879 1476 Q1035 1476 1172.5 1419 Q1310 1362 1412 1261.5 Q1514 1161 1573.5 1024.5 Q1633 888 1633 729 Q1633 570 1573.5 433 Q1514 296 1412 195 Q1310 94 1172.5 36.5 Q1035 -21 879 -21 Q723 -21 585.5 36.5 Q448 94 346 195 Q244 296 184.5 433 Q125 570 125 729 Z M239 729 Q239 596 289.5 480.5 Q340 365 427 280 Q514 195 630.5 146.5 Q747 98 879 98 Q1011 98 1127.5 146.5 Q1244 195 1331 280 Q1418 365 1468.5 480.5 Q1519 596 1519 729 Q1519 863 1468.5 977.5 Q1418 1092 1331 1176.5 Q1244 1261 1127.5 1309 Q1011 1357 879 1357 Q747 1357 630.5 1309 Q514 1261 427 1176.5 Q340 1092 289.5 977.5 Q239 863 239 729 Z M502 786 Q502 872 527.5 943 Q553 1014 600.5 1065 Q648 1116 715 1144.5 Q782 1173 866 1173 Q946 1173 1010.5 1153.5 Q1075 1134 1120 1095 Q1165 1056 1189.5 997 Q1214 938 1214 860 L1073 860 Q1073 960 1020.5 1002.5 Q968 1045 866 1045 Q812 1045 770 1026 Q728 1007 699.5 972.5 Q671 938 656.5 891 Q642 844 642 787 L642 671 Q642 614 656.5 566 Q671 518 699.5 484 Q728 450 770 431 Q812 412 866 412 Q967 412 1019.5 455 Q1072 498 1072 598 L1213 598 Q1213 519 1188.5 460 Q1164 401 1119 362 Q1074 323 1010 303.5 Q946 284 866 284 Q782 284 715 312 Q648 340 600.5 391 Q553 442 527.5 513.5 Q502 585 502 671 L502 786 Z " />
<glyph glyph-name="guillemotleft" unicode="&#xab;" horiz-adv-x="1034" >
<g transform="translate(-3,-3)" >
<path fill="black" d="M139 542 L139 561 L436 949 L578 949 L315 552 L578 154 L436 154 L139 542 Z " />
</g>
<g transform="translate(305,0)" >
<path fill="black" d="M139 542 L139 561 L436 949 L578 949 L315 552 L578 154 L436 154 L139 542 Z " />
</g>
</glyph>
<glyph glyph-name="logicalnot" unicode="&#xac;" horiz-adv-x="1205" d="M158 801 L997 801 L997 376 L821 376 L821 640 L158 640 L158 801 Z " />
<glyph glyph-name="uni00AD" unicode="&#xad;" horiz-adv-x="665" >
<g transform="translate(3,0)" >
<path fill="black" d="M79 544 L79 695 L582 695 L582 544 L79 544 Z " />
</g>
</glyph>
<glyph glyph-name="registered" unicode="&#xae;" horiz-adv-x="1767" d="M123 729 Q123 888 182.5 1024.5 Q242 1161 344 1261.5 Q446 1362 583.5 1419 Q721 1476 877 1476 Q1033 1476 1170.5 1419 Q1308 1362 1410 1261.5 Q1512 1161 1571.5 1024.5 Q1631 888 1631 729 Q1631 570 1571.5 433 Q1512 296 1410 195 Q1308 94 1170.5 36.5 Q1033 -21 877 -21 Q721 -21 583.5 36.5 Q446 94 344 195 Q242 296 182.5 433 Q123 570 123 729 Z M237 729 Q237 596 287.5 480.5 Q338 365 425 280 Q512 195 628.5 146.5 Q745 98 877 98 Q1009 98 1125.5 146.5 Q1242 195 1329 280 Q1416 365 1466.5 480.5 Q1517 596 1517 729 Q1517 863 1466.5 977.5 Q1416 1092 1329 1176.5 Q1242 1261 1125.5 1309 Q1009 1357 877 1357 Q745 1357 628.5 1309 Q512 1261 425 1176.5 Q338 1092 287.5 977.5 Q237 863 237 729 Z M579 1165 L868 1165 Q1025 1165 1114.5 1101.5 Q1204 1038 1204 909 Q1204 849 1173 797 Q1142 745 1082 716 Q1146 687 1171.5 634.5 Q1197 582 1197 514 L1197 460 Q1197 422 1201 389 Q1205 356 1215 333 L1215 317 L1073 317 Q1068 330 1065 350 Q1062 370 1060.5 391 Q1059 412 1059 431 Q1059 450 1059 461 L1059 513 Q1059 586 1022.5 620.5 Q986 655 897 655 L716 655 L716 317 L579 317 L579 1165 Z M888 782 Q924 783 956.5 791 Q989 799 1014 814 Q1039 829 1053.5 851.5 Q1068 874 1068 904 Q1068 942 1057.5 967.5 Q1047 993 1023.5 1009 Q1000 1025 962 1032 Q924 1039 868 1039 L716 1039 L716 782 L888 782 Z " />
<glyph glyph-name="overscore" unicode="&#xaf;" horiz-adv-x="1007" d="M176 1304 L176 1445 L848 1445 L848 1304 L176 1304 Z " />
<glyph glyph-name="degree" unicode="&#xb0;" horiz-adv-x="866" d="M165 1217 Q165 1270 186.5 1317.5 Q208 1365 245 1400.5 Q282 1436 331 1456.5 Q380 1477 435 1477 Q490 1477 538.5 1456.5 Q587 1436 623 1400.5 Q659 1365 680 1317.5 Q701 1270 701 1217 Q701 1163 680 1116.5 Q659 1070 623 1035.5 Q587 1001 538.5 981 Q490 961 435 961 Q380 961 331 981 Q282 1001 245 1035.5 Q208 1070 186.5 1116.5 Q165 1163 165 1217 Z M289 1217 Q289 1189 300.5 1165.5 Q312 1142 332 1125 Q352 1108 378.5 1098 Q405 1088 435 1088 Q465 1088 491.5 1098 Q518 1108 537 1125 Q556 1142 567 1165.5 Q578 1189 578 1217 Q578 1246 567 1270 Q556 1294 537 1312 Q518 1330 491.5 1340 Q465 1350 435 1350 Q405 1350 378.5 1340 Q352 1330 332 1312 Q312 1294 300.5 1270 Q289 1246 289 1217 Z " />
<glyph glyph-name="plusminus" unicode="&#xb1;" horiz-adv-x="1168" d="M515 704 L124 704 L124 854 L515 854 L515 1267 L683 1267 L683 854 L1053 854 L1053 704 L683 704 L683 289 L515 289 L515 704 Z M166 151 L1016 151 L1016 1 L166 1 L166 151 Z " />
<glyph glyph-name="twosuperior" unicode="&#xb2;" horiz-adv-x="831" d="M131 667 L131 775 L424 1045 Q493 1109 520.5 1152.5 Q548 1196 548 1229 Q548 1278 514.5 1309 Q481 1340 418 1340 Q341 1340 304 1301.5 Q267 1263 267 1206 L112 1206 Q112 1260 133 1307.5 Q154 1355 193 1390.5 Q232 1426 288 1446.5 Q344 1467 414 1467 Q482 1467 535.5 1450.5 Q589 1434 626 1403.5 Q663 1373 683 1329 Q703 1285 703 1231 Q703 1191 689 1155.5 Q675 1120 649 1085.5 Q623 1051 587 1016.5 Q551 982 506 944 L328 795 L735 795 L735 667 L131 667 Z " />
<glyph glyph-name="threesuperior" unicode="&#xb3;" horiz-adv-x="831" d="M263 890 Q263 844 305 814 Q347 784 416 784 Q490 784 528 814 Q566 844 566 895 Q566 958 521 984.5 Q476 1011 399 1011 L315 1011 L315 1126 L399 1126 Q476 1126 514 1157 Q552 1188 552 1236 Q552 1281 519 1310.5 Q486 1340 413 1340 Q353 1340 313.5 1315 Q274 1290 274 1246 L120 1246 Q120 1297 142.5 1338 Q165 1379 204.5 1407.5 Q244 1436 297 1451.5 Q350 1467 410 1467 Q476 1467 530.5 1452.5 Q585 1438 624 1409.5 Q663 1381 684.5 1339 Q706 1297 706 1242 Q706 1188 670 1142.5 Q634 1097 568 1072 Q645 1050 682.5 1003 Q720 956 720 887 Q720 832 696.5 789 Q673 746 631.5 716.5 Q590 687 533.5 671.5 Q477 656 411 656 Q354 656 300 669.5 Q246 683 203 711.5 Q160 740 134 784.5 Q108 829 108 890 L263 890 Z " />
<glyph glyph-name="acute" unicode="&#xb4;" horiz-adv-x="713" d="M357 1536 L581 1536 L307 1243 L152 1243 L357 1536 Z " />
<glyph glyph-name="mu" unicode="&#xb5;" horiz-adv-x="1243" d="M186 1082 L371 1082 L371 460 Q371 357 389 292.5 Q407 228 438 192 Q469 156 510.5 143 Q552 130 599 130 Q713 130 777 173.5 Q841 217 869 291 L869 1082 L1055 1082 L1055 0 L886 0 L878 116 Q833 51 766 15 Q699 -21 605 -21 Q532 -21 473.5 -4 Q415 13 371 51 L371 -416 L186 -416 L186 1082 Z " />
<glyph glyph-name="paragraph" unicode="&#xb6;" horiz-adv-x="1068" d="M693 0 L693 520 L601 520 Q480 520 387 555 Q294 590 230.5 652.5 Q167 715 134.5 801 Q102 887 102 988 Q102 1089 134.5 1174.5 Q167 1260 230.5 1322.5 Q294 1385 387 1420.5 Q480 1456 601 1456 L871 1456 L871 0 L693 0 Z " />
<glyph glyph-name="middot" unicode="&#xb7;" horiz-adv-x="604" >
<g transform="translate(6,632)" >
<path fill="black" d="M175 97 Q175 145 205.5 176.5 Q236 208 293 208 Q350 208 381 176.5 Q412 145 412 97 Q412 51 381 19.5 Q350 -12 293 -12 Q236 -12 205.5 19.5 Q175 51 175 97 Z " />
</g>
</glyph>
<glyph glyph-name="cedilla" unicode="&#xb8;" horiz-adv-x="577" d="M145 -329 Q179 -329 209.5 -323.5 Q240 -318 263.5 -306 Q287 -294 300.5 -275.5 Q314 -257 314 -230 Q314 -180 275 -161 Q236 -142 150 -135 L181 0 L318 0 L306 -53 Q335 -58 363.5 -69.5 Q392 -81 414 -101.5 Q436 -122 449.5 -152.5 Q463 -183 463 -226 Q463 -320 383.5 -377.5 Q304 -435 152 -435 L145 -329 Z " />
<glyph glyph-name="onesuperior" unicode="&#xb9;" horiz-adv-x="831" d="M390 667 L390 1270 L172 1212 L172 1340 L526 1456 L544 1456 L544 667 L390 667 Z " />
<glyph glyph-name="guillemotright" unicode="&#xbb;" horiz-adv-x="1033" >
<g transform="translate(16,0)" >
<path fill="black" d="M384 551 L121 949 L263 949 L559 560 L559 541 L263 153 L121 153 L384 551 Z " />
</g>
<g transform="translate(349,0)" >
<path fill="black" d="M384 551 L121 949 L263 949 L559 560 L559 541 L263 153 L121 153 L384 551 Z " />
</g>
</glyph>
<glyph glyph-name="onequarter" unicode="&#xbc;" horiz-adv-x="1471" d="M1077 1323 L1182 1257 L461 119 L357 185 L1077 1323 Z M827 271 L1212 789 L1369 789 L1369 300 L1480 300 L1480 170 L1369 170 L1369 0 L1215 0 L1215 170 L834 170 L827 271 Z M358 664 L358 1267 L140 1209 L140 1337 L494 1453 L512 1453 L512 664 L358 664 Z M1215 300 L1215 593 L1196 561 L982 300 L1215 300 Z " />
<glyph glyph-name="onehalf" unicode="&#xbd;" horiz-adv-x="1563" d="M401 664 L335 664 L335 1267 L117 1209 L117 1337 L471 1453 L489 1453 L489 803 L813 1315 L918 1249 L197 111 L93 177 L401 664 Z M932 108 L1225 378 Q1294 442 1321.5 485.5 Q1349 529 1349 562 Q1349 611 1315.5 642 Q1282 673 1219 673 Q1142 673 1105 634.5 Q1068 596 1068 539 L913 539 Q913 593 934 640.5 Q955 688 994 723.5 Q1033 759 1089 779.5 Q1145 800 1215 800 Q1283 800 1336.5 783.5 Q1390 767 1427 736.5 Q1464 706 1484 662 Q1504 618 1504 564 Q1504 524 1490 488.5 Q1476 453 1450 418.5 Q1424 384 1388 349.5 Q1352 315 1307 277 L1129 128 L1536 128 L1536 0 L932 0 L932 108 Z " />
<glyph glyph-name="threequarters" unicode="&#xbe;" horiz-adv-x="1554" d="M399 660 Q351 666 307 683 Q263 700 229.5 728.5 Q196 757 176.5 797 Q157 837 157 890 L312 890 Q312 844 354 814 Q396 784 465 784 L477 784 L592 965 Q571 990 534.5 1000.5 Q498 1011 448 1011 L364 1011 L364 1126 L448 1126 Q525 1126 563 1157 Q601 1188 601 1236 Q601 1281 568 1310.5 Q535 1340 462 1340 Q402 1340 362.5 1315 Q323 1290 323 1246 L169 1246 Q169 1297 191.5 1338 Q214 1379 253.5 1407.5 Q293 1436 346 1451.5 Q399 1467 459 1467 Q525 1467 579.5 1452.5 Q634 1438 673 1409.5 Q712 1381 733.5 1339 Q755 1297 755 1242 Q755 1237 755 1231.5 Q755 1226 754 1221 L813 1315 L918 1249 L747 980 Q769 940 769 887 Q769 842 752.5 804.5 Q736 767 707 738.5 Q678 710 637 691.5 Q596 673 547 664 L197 111 L93 177 L399 660 Z M859 271 L1244 789 L1401 789 L1401 300 L1512 300 L1512 170 L1401 170 L1401 0 L1247 0 L1247 170 L866 170 L859 271 Z M1247 300 L1247 593 L1228 561 L1014 300 L1247 300 Z M681 1106 Q667 1095 651 1087 Q635 1079 617 1072 Q634 1068 652 1060 L681 1106 Z " />
<glyph glyph-name="questiondown" unicode="&#xbf;" horiz-adv-x="1041" d="M933 -20 Q932 -106 900 -173.5 Q868 -241 812 -288.5 Q756 -336 680.5 -361 Q605 -386 518 -386 Q420 -386 343 -360 Q266 -334 213 -285.5 Q160 -237 132 -166.5 Q104 -96 104 -6 Q104 63 125 123 Q146 183 181 237 Q216 291 261 339.5 Q306 388 353 432 Q410 483 428 545 Q446 607 446 681 L628 681 Q627 609 619 559 Q611 509 592 468 Q573 427 541.5 388.5 Q510 350 462 301 Q429 266 398 234 Q367 202 343 167 Q319 132 304.5 91.5 Q290 51 290 -1 Q290 -111 348.5 -168.5 Q407 -226 517 -226 Q564 -226 605.5 -213.5 Q647 -201 678.5 -175.5 Q710 -150 728.5 -111 Q747 -72 747 -20 L933 -20 Z M418 997 Q418 1042 447 1072.5 Q476 1103 530 1103 Q584 1103 613 1072.5 Q642 1042 642 997 Q642 952 613 922 Q584 892 530 892 Q476 892 447 922 Q418 952 418 997 Z " />
<glyph glyph-name="Agrave" unicode="&#xc0;" horiz-adv-x="1406" >
<path fill="black" d="M617 1456 L790 1456 L1351 0 L1151 0 L1012 381 L395 381 L256 0 L56 0 L617 1456 Z M955 538 L703 1229 L452 538 L955 538 Z " />
<g transform="translate(286,311)" >
<path fill="black" d="M358 1243 L91 1536 L316 1536 L521 1243 L358 1243 Z " />
</g>
</glyph>
<glyph glyph-name="Aacute" unicode="&#xc1;" horiz-adv-x="1406" >
<path fill="black" d="M617 1456 L790 1456 L1351 0 L1151 0 L1012 381 L395 381 L256 0 L56 0 L617 1456 Z M955 538 L703 1229 L452 538 L955 538 Z " />
<g transform="translate(452,311)" >
<path fill="black" d="M357 1536 L581 1536 L307 1243 L152 1243 L357 1536 Z " />
</g>
</glyph>
<glyph glyph-name="Acircumflex" unicode="&#xc2;" horiz-adv-x="1406" >
<path fill="black" d="M617 1456 L790 1456 L1351 0 L1151 0 L1012 381 L395 381 L256 0 L56 0 L617 1456 Z M955 538 L703 1229 L452 538 L955 538 Z " />
<g transform="translate(204,311)" >
<path fill="black" d="M194 1265 L447 1536 L560 1536 L815 1263 L815 1253 L660 1253 L503 1423 L347 1253 L194 1253 L194 1265 Z " />
</g>
</glyph>
<glyph glyph-name="Atilde" unicode="&#xc3;" horiz-adv-x="1406" >
<path fill="black" d="M617 1456 L790 1456 L1351 0 L1151 0 L1012 381 L395 381 L256 0 L56 0 L617 1456 Z M955 538 L703 1229 L452 538 L955 538 Z " />
<g transform="translate(201,315)" >
<path fill="black" d="M150 1249 Q150 1303 166.5 1348.5 Q183 1394 212 1426.5 Q241 1459 280 1477 Q319 1495 365 1495 Q409 1495 442.5 1480 Q476 1465 506.5 1447 Q537 1429 568.5 1414 Q600 1399 640 1399 Q683 1399 712.5 1431.5 Q742 1464 742 1512 L866 1500 Q866 1445 849.5 1400.5 Q833 1356 803.5 1324.5 Q774 1293 734.5 1276 Q695 1259 650 1259 Q598 1259 564.5 1274 Q531 1289 503 1306.5 Q475 1324 446.5 1339 Q418 1354 376 1354 Q332 1354 303 1322.5 Q274 1291 274 1243 L150 1249 Z " />
</g>
</glyph>
<glyph glyph-name="Adieresis" unicode="&#xc4;" horiz-adv-x="1406" >
<path fill="black" d="M617 1456 L790 1456 L1351 0 L1151 0 L1012 381 L395 381 L256 0 L56 0 L617 1456 Z M955 538 L703 1229 L452 538 L955 538 Z " />
<g transform="translate(187,315)" >
<path fill="black" d="M171 1369 Q171 1414 200 1444.5 Q229 1475 283 1475 Q337 1475 366 1444.5 Q395 1414 395 1369 Q395 1324 366 1294 Q337 1264 283 1264 Q229 1264 200 1294 Q171 1324 171 1369 Z " />
</g>
<g transform="translate(654,313)" >
<path fill="black" d="M171 1369 Q171 1414 200 1444.5 Q229 1475 283 1475 Q337 1475 366 1444.5 Q395 1414 395 1369 Q395 1324 366 1294 Q337 1264 283 1264 Q229 1264 200 1294 Q171 1324 171 1369 Z " />
</g>
</glyph>
<glyph glyph-name="Aring" unicode="&#xc5;" horiz-adv-x="1406" >
<path fill="black" d="M617 1456 L790 1456 L1351 0 L1151 0 L1012 381 L395 381 L256 0 L56 0 L617 1456 Z M955 538 L703 1229 L452 538 L955 538 Z " />
<g transform="translate(335,321)" >
<path fill="black" d="M152 1409 Q152 1452 169 1490 Q186 1528 215.5 1556 Q245 1584 285.5 1600 Q326 1616 373 1616 Q420 1616 460.5 1600 Q501 1584 530.5 1556 Q560 1528 577 1490 Q594 1452 594 1409 Q594 1365 577 1327.5 Q560 1290 530.5 1263 Q501 1236 460.5 1220.5 Q420 1205 373 1205 Q326 1205 285.5 1220.5 Q245 1236 215.5 1263 Q186 1290 169 1327.5 Q152 1365 152 1409 Z M252 1409 Q252 1387 261 1366 Q270 1345 285.5 1328.5 Q301 1312 323.5 1302.5 Q346 1293 373 1293 Q400 1293 422.5 1302.5 Q445 1312 460.5 1328 Q476 1344 485 1365 Q494 1386 494 1409 Q494 1432 485 1453.5 Q476 1475 460.5 1491.5 Q445 1508 422.5 1517.5 Q400 1527 373 1527 Q346 1527 323.5 1517.5 Q301 1508 285.5 1491.5 Q270 1475 261 1453.5 Q252 1432 252 1409 Z " />
</g>
</glyph>
<glyph glyph-name="AE" unicode="&#xc6;" horiz-adv-x="1991" d="M905 1456 L1858 1456 L1858 1305 L1169 1305 L1190 833 L1776 833 L1776 683 L1196 683 L1219 151 L1922 151 L1922 0 L1038 0 L1023 354 L457 354 L250 0 L24 0 L905 1456 Z M1016 527 L985 1256 L558 527 L1016 527 Z " />
<glyph glyph-name="Ccedilla" unicode="&#xc7;" horiz-adv-x="1412" d="M621 -339 Q655 -339 685.5 -333.5 Q716 -328 739.5 -316 Q763 -304 776.5 -285.5 Q790 -267 790 -240 Q790 -190 751 -171 Q712 -152 626 -145 L656 -16 Q540 -4 447 46.5 Q354 97 288.5 181 Q223 265 187.5 379 Q152 493 152 632 L152 825 Q152 974 193 1094 Q234 1214 310 1299 Q386 1384 494.5 1430 Q603 1476 739 1476 Q865 1476 962 1442 Q1059 1408 1127.5 1344.5 Q1196 1281 1236 1191 Q1276 1101 1287 989 L1093 989 Q1083 1070 1058.5 1131.5 Q1034 1193 992 1235 Q950 1277 887.5 1298.5 Q825 1320 739 1320 Q643 1320 569.5 1284.5 Q496 1249 446.5 1184.5 Q397 1120 371.5 1029 Q346 938 346 827 L346 632 Q346 528 369 437.5 Q392 347 438.5 280 Q485 213 556.5 174.5 Q628 136 725 136 Q817 136 881.5 156.5 Q946 177 989.5 218 Q1033 259 1057.5 320 Q1082 381 1093 462 L1286 462 Q1276 362 1241 278 Q1206 194 1144.5 131.5 Q1083 69 995 30.5 Q907 -8 792 -17 L782 -63 Q811 -68 839.5 -79.5 Q868 -91 890 -111.5 Q912 -132 925.5 -162.5 Q939 -193 939 -236 Q939 -330 859.5 -387.5 Q780 -445 628 -445 L621 -339 Z " />
<glyph glyph-name="Egrave" unicode="&#xc8;" horiz-adv-x="1237" >
<path fill="black" d="M199 1456 L1131 1456 L1131 1300 L393 1300 L393 830 L1036 830 L1036 674 L393 674 L393 156 L1139 156 L1139 0 L199 0 L199 1456 Z " />
<g transform="translate(238,322)" >
<path fill="black" d="M358 1243 L91 1536 L316 1536 L521 1243 L358 1243 Z " />
</g>
</glyph>
<glyph glyph-name="Eacute" unicode="&#xc9;" horiz-adv-x="1237" >
<path fill="black" d="M199 1456 L1131 1456 L1131 1300 L393 1300 L393 830 L1036 830 L1036 674 L393 674 L393 156 L1139 156 L1139 0 L199 0 L199 1456 Z " />
<g transform="translate(404,322)" >
<path fill="black" d="M357 1536 L581 1536 L307 1243 L152 1243 L357 1536 Z " />
</g>
</glyph>
<glyph glyph-name="Ecircumflex" unicode="&#xca;" horiz-adv-x="1237" >
<path fill="black" d="M199 1456 L1131 1456 L1131 1300 L393 1300 L393 830 L1036 830 L1036 674 L393 674 L393 156 L1139 156 L1139 0 L199 0 L199 1456 Z " />
<g transform="translate(156,322)" >
<path fill="black" d="M194 1265 L447 1536 L560 1536 L815 1263 L815 1253 L660 1253 L503 1423 L347 1253 L194 1253 L194 1265 Z " />
</g>
</glyph>
<glyph glyph-name="Edieresis" unicode="&#xcb;" horiz-adv-x="1237" >
<path fill="black" d="M199 1456 L1131 1456 L1131 1300 L393 1300 L393 830 L1036 830 L1036 674 L393 674 L393 156 L1139 156 L1139 0 L199 0 L199 1456 Z " />
<g transform="translate(139,326)" >
<path fill="black" d="M171 1369 Q171 1414 200 1444.5 Q229 1475 283 1475 Q337 1475 366 1444.5 Q395 1414 395 1369 Q395 1324 366 1294 Q337 1264 283 1264 Q229 1264 200 1294 Q171 1324 171 1369 Z " />
</g>
<g transform="translate(606,324)" >
<path fill="black" d="M171 1369 Q171 1414 200 1444.5 Q229 1475 283 1475 Q337 1475 366 1444.5 Q395 1414 395 1369 Q395 1324 366 1294 Q337 1264 283 1264 Q229 1264 200 1294 Q171 1324 171 1369 Z " />
</g>
</glyph>
<glyph glyph-name="Igrave" unicode="&#xcc;" horiz-adv-x="626" >
<path fill="black" d="M217 0 L217 1456 L411 1456 L411 0 L217 0 Z " />
<g transform="translate(-108,322)" >
<path fill="black" d="M358 1243 L91 1536 L316 1536 L521 1243 L358 1243 Z " />
</g>
</glyph>
<glyph glyph-name="Iacute" unicode="&#xcd;" horiz-adv-x="626" >
<path fill="black" d="M217 0 L217 1456 L411 1456 L411 0 L217 0 Z " />
<g transform="translate(58,322)" >
<path fill="black" d="M357 1536 L581 1536 L307 1243 L152 1243 L357 1536 Z " />
</g>
</glyph>
<glyph glyph-name="Icircumflex" unicode="&#xce;" horiz-adv-x="626" >
<path fill="black" d="M217 0 L217 1456 L411 1456 L411 0 L217 0 Z " />
<g transform="translate(-190,322)" >
<path fill="black" d="M194 1265 L447 1536 L560 1536 L815 1263 L815 1253 L660 1253 L503 1423 L347 1253 L194 1253 L194 1265 Z " />
</g>
</glyph>
<glyph glyph-name="Idieresis" unicode="&#xcf;" horiz-adv-x="626" >
<path fill="black" d="M217 0 L217 1456 L411 1456 L411 0 L217 0 Z " />
<g transform="translate(-207,326)" >
<path fill="black" d="M171 1369 Q171 1414 200 1444.5 Q229 1475 283 1475 Q337 1475 366 1444.5 Q395 1414 395 1369 Q395 1324 366 1294 Q337 1264 283 1264 Q229 1264 200 1294 Q171 1324 171 1369 Z " />
</g>
<g transform="translate(260,324)" >
<path fill="black" d="M171 1369 Q171 1414 200 1444.5 Q229 1475 283 1475 Q337 1475 366 1444.5 Q395 1414 395 1369 Q395 1324 366 1294 Q337 1264 283 1264 Q229 1264 200 1294 Q171 1324 171 1369 Z " />
</g>
</glyph>
<glyph glyph-name="Eth" unicode="&#xd0;" horiz-adv-x="1419" d="M199 666 L38 666 L38 816 L199 816 L199 1456 L620 1456 Q764 1456 883.5 1411.5 Q1003 1367 1088 1283 Q1173 1199 1220 1077.5 Q1267 956 1267 802 L1267 654 Q1267 500 1220.5 378.5 Q1174 257 1087.5 173 Q1001 89 879 44.5 Q757 0 606 0 L199 0 L199 666 Z M606 156 Q722 156 809.5 190 Q897 224 956 288.5 Q1015 353 1045 445 Q1075 537 1075 654 L1075 804 Q1075 1047 956.5 1173.5 Q838 1300 620 1300 L393 1300 L393 816 L686 816 L686 666 L393 666 L393 156 L606 156 Z " />
<glyph glyph-name="Ntilde" unicode="&#xd1;" horiz-adv-x="1536" >
<path fill="black" d="M199 1456 L402 1456 L1143 313 L1143 1456 L1335 1456 L1335 0 L1131 0 L393 1139 L393 0 L199 0 L199 1456 Z " />
<g transform="translate(259,315)" >
<path fill="black" d="M150 1249 Q150 1303 166.5 1348.5 Q183 1394 212 1426.5 Q241 1459 280 1477 Q319 1495 365 1495 Q409 1495 442.5 1480 Q476 1465 506.5 1447 Q537 1429 568.5 1414 Q600 1399 640 1399 Q683 1399 712.5 1431.5 Q742 1464 742 1512 L866 1500 Q866 1445 849.5 1400.5 Q833 1356 803.5 1324.5 Q774 1293 734.5 1276 Q695 1259 650 1259 Q598 1259 564.5 1274 Q531 1289 503 1306.5 Q475 1324 446.5 1339 Q418 1354 376 1354 Q332 1354 303 1322.5 Q274 1291 274 1243 L150 1249 Z " />
</g>
</glyph>
<glyph glyph-name="Ograve" unicode="&#xd2;" horiz-adv-x="1483" >
<path fill="black" d="M149 804 Q149 964 192 1089 Q235 1214 313 1300 Q391 1386 499.5 1431 Q608 1476 740 1476 Q875 1476 984 1431 Q1093 1386 1170.5 1300 Q1248 1214 1290 1089 Q1332 964 1332 804 L1332 651 Q1332 491 1290.5 366 Q1249 241 1172 155.5 Q1095 70 986 25 Q877 -20 742 -20 Q610 -20 501 25 Q392 70 314 155.5 Q236 241 192.5 366 Q149 491 149 651 L149 804 Z M342 651 Q342 524 370 428.5 Q398 333 450 269.5 Q502 206 576 174 Q650 142 742 142 Q934 142 1037.5 269.5 Q1141 397 1141 651 L1141 806 Q1141 1059 1036 1186 Q931 1313 740 1313 Q648 1313 574.5 1281 Q501 1249 449 1185.5 Q397 1122 369.5 1027 Q342 932 342 806 L342 651 Z " />
<g transform="translate(321,313)" >
<path fill="black" d="M358 1243 L91 1536 L316 1536 L521 1243 L358 1243 Z " />
</g>
</glyph>
<glyph glyph-name="Oacute" unicode="&#xd3;" horiz-adv-x="1483" >
<path fill="black" d="M149 804 Q149 964 192 1089 Q235 1214 313 1300 Q391 1386 499.5 1431 Q608 1476 740 1476 Q875 1476 984 1431 Q1093 1386 1170.5 1300 Q1248 1214 1290 1089 Q1332 964 1332 804 L1332 651 Q1332 491 1290.5 366 Q1249 241 1172 155.5 Q1095 70 986 25 Q877 -20 742 -20 Q610 -20 501 25 Q392 70 314 155.5 Q236 241 192.5 366 Q149 491 149 651 L149 804 Z M342 651 Q342 524 370 428.5 Q398 333 450 269.5 Q502 206 576 174 Q650 142 742 142 Q934 142 1037.5 269.5 Q1141 397 1141 651 L1141 806 Q1141 1059 1036 1186 Q931 1313 740 1313 Q648 1313 574.5 1281 Q501 1249 449 1185.5 Q397 1122 369.5 1027 Q342 932 342 806 L342 651 Z " />
<g transform="translate(487,313)" >
<path fill="black" d="M357 1536 L581 1536 L307 1243 L152 1243 L357 1536 Z " />
</g>
</glyph>
<glyph glyph-name="Ocircumflex" unicode="&#xd4;" horiz-adv-x="1483" >
<path fill="black" d="M149 804 Q149 964 192 1089 Q235 1214 313 1300 Q391 1386 499.5 1431 Q608 1476 740 1476 Q875 1476 984 1431 Q1093 1386 1170.5 1300 Q1248 1214 1290 1089 Q1332 964 1332 804 L1332 651 Q1332 491 1290.5 366 Q1249 241 1172 155.5 Q1095 70 986 25 Q877 -20 742 -20 Q610 -20 501 25 Q392 70 314 155.5 Q236 241 192.5 366 Q149 491 149 651 L149 804 Z M342 651 Q342 524 370 428.5 Q398 333 450 269.5 Q502 206 576 174 Q650 142 742 142 Q934 142 1037.5 269.5 Q1141 397 1141 651 L1141 806 Q1141 1059 1036 1186 Q931 1313 740 1313 Q648 1313 574.5 1281 Q501 1249 449 1185.5 Q397 1122 369.5 1027 Q342 932 342 806 L342 651 Z " />
<g transform="translate(239,313)" >
<path fill="black" d="M194 1265 L447 1536 L560 1536 L815 1263 L815 1253 L660 1253 L503 1423 L347 1253 L194 1253 L194 1265 Z " />
</g>
</glyph>
<glyph glyph-name="Otilde" unicode="&#xd5;" horiz-adv-x="1483" >
<path fill="black" d="M149 804 Q149 964 192 1089 Q235 1214 313 1300 Q391 1386 499.5 1431 Q608 1476 740 1476 Q875 1476 984 1431 Q1093 1386 1170.5 1300 Q1248 1214 1290 1089 Q1332 964 1332 804 L1332 651 Q1332 491 1290.5 366 Q1249 241 1172 155.5 Q1095 70 986 25 Q877 -20 742 -20 Q610 -20 501 25 Q392 70 314 155.5 Q236 241 192.5 366 Q149 491 149 651 L149 804 Z M342 651 Q342 524 370 428.5 Q398 333 450 269.5 Q502 206 576 174 Q650 142 742 142 Q934 142 1037.5 269.5 Q1141 397 1141 651 L1141 806 Q1141 1059 1036 1186 Q931 1313 740 1313 Q648 1313 574.5 1281 Q501 1249 449 1185.5 Q397 1122 369.5 1027 Q342 932 342 806 L342 651 Z " />
<g transform="translate(236,317)" >
<path fill="black" d="M150 1249 Q150 1303 166.5 1348.5 Q183 1394 212 1426.5 Q241 1459 280 1477 Q319 1495 365 1495 Q409 1495 442.5 1480 Q476 1465 506.5 1447 Q537 1429 568.5 1414 Q600 1399 640 1399 Q683 1399 712.5 1431.5 Q742 1464 742 1512 L866 1500 Q866 1445 849.5 1400.5 Q833 1356 803.5 1324.5 Q774 1293 734.5 1276 Q695 1259 650 1259 Q598 1259 564.5 1274 Q531 1289 503 1306.5 Q475 1324 446.5 1339 Q418 1354 376 1354 Q332 1354 303 1322.5 Q274 1291 274 1243 L150 1249 Z " />
</g>
</glyph>
<glyph glyph-name="Odieresis" unicode="&#xd6;" horiz-adv-x="1483" >
<path fill="black" d="M149 804 Q149 964 192 1089 Q235 1214 313 1300 Q391 1386 499.5 1431 Q608 1476 740 1476 Q875 1476 984 1431 Q1093 1386 1170.5 1300 Q1248 1214 1290 1089 Q1332 964 1332 804 L1332 651 Q1332 491 1290.5 366 Q1249 241 1172 155.5 Q1095 70 986 25 Q877 -20 742 -20 Q610 -20 501 25 Q392 70 314 155.5 Q236 241 192.5 366 Q149 491 149 651 L149 804 Z M342 651 Q342 524 370 428.5 Q398 333 450 269.5 Q502 206 576 174 Q650 142 742 142 Q934 142 1037.5 269.5 Q1141 397 1141 651 L1141 806 Q1141 1059 1036 1186 Q931 1313 740 1313 Q648 1313 574.5 1281 Q501 1249 449 1185.5 Q397 1122 369.5 1027 Q342 932 342 806 L342 651 Z " />
<g transform="translate(222,317)" >
<path fill="black" d="M171 1369 Q171 1414 200 1444.5 Q229 1475 283 1475 Q337 1475 366 1444.5 Q395 1414 395 1369 Q395 1324 366 1294 Q337 1264 283 1264 Q229 1264 200 1294 Q171 1324 171 1369 Z " />
</g>
<g transform="translate(689,315)" >
<path fill="black" d="M171 1369 Q171 1414 200 1444.5 Q229 1475 283 1475 Q337 1475 366 1444.5 Q395 1414 395 1369 Q395 1324 366 1294 Q337 1264 283 1264 Q229 1264 200 1294 Q171 1324 171 1369 Z " />
</g>
</glyph>
<glyph glyph-name="multiply" unicode="&#xd7;" horiz-adv-x="1161" d="M117 326 L454 665 L122 998 L241 1121 L574 786 L908 1121 L1026 998 L694 665 L1031 326 L913 204 L574 544 L236 204 L117 326 Z " />
<glyph glyph-name="Oslash" unicode="&#xd8;" horiz-adv-x="1387" d="M338 135 Q250 221 201.5 350.5 Q153 480 153 651 L153 804 Q153 964 196 1089 Q239 1214 317 1300 Q395 1386 503.5 1431 Q612 1476 744 1476 Q853 1476 944.5 1447 Q1036 1418 1109 1361 L1206 1516 L1347 1516 L1196 1275 Q1264 1189 1300 1071 Q1336 953 1336 804 L1336 651 Q1336 491 1294.5 366 Q1253 241 1176 155.5 Q1099 70 990 25 Q881 -20 746 -20 Q657 -20 578.5 0.5 Q500 21 433 61 L337 -93 L195 -93 L338 135 Z M1015 1213 Q915 1313 744 1313 Q652 1313 578.5 1281 Q505 1249 453 1185.5 Q401 1122 373.5 1027 Q346 932 346 806 L346 651 Q346 534 369 444.5 Q392 355 437 292 L1015 1213 Z M1145 806 Q1145 988 1089 1106 L524 205 Q616 142 746 142 Q938 142 1041.5 269.5 Q1145 397 1145 651 L1145 806 Z " />
<glyph glyph-name="Ugrave" unicode="&#xd9;" horiz-adv-x="1412" >
<path fill="black" d="M173 1456 L365 1456 L365 456 Q365 371 390 310 Q415 249 460 210.5 Q505 172 568.5 154 Q632 136 708 136 Q785 136 848 154 Q911 172 956 210.5 Q1001 249 1025.5 310 Q1050 371 1050 456 L1050 1456 L1244 1456 L1244 456 Q1244 333 1201 243.5 Q1158 154 1084.5 95.5 Q1011 37 914 8.5 Q817 -20 708 -20 Q594 -20 496 8.5 Q398 37 326.5 95.5 Q255 154 214 243.5 Q173 333 173 456 L173 1456 Z " />
<g transform="translate(288,311)" >
<path fill="black" d="M358 1243 L91 1536 L316 1536 L521 1243 L358 1243 Z " />
</g>
</glyph>
<glyph glyph-name="Uacute" unicode="&#xda;" horiz-adv-x="1412" >
<path fill="black" d="M173 1456 L365 1456 L365 456 Q365 371 390 310 Q415 249 460 210.5 Q505 172 568.5 154 Q632 136 708 136 Q785 136 848 154 Q911 172 956 210.5 Q1001 249 1025.5 310 Q1050 371 1050 456 L1050 1456 L1244 1456 L1244 456 Q1244 333 1201 243.5 Q1158 154 1084.5 95.5 Q1011 37 914 8.5 Q817 -20 708 -20 Q594 -20 496 8.5 Q398 37 326.5 95.5 Q255 154 214 243.5 Q173 333 173 456 L173 1456 Z " />
<g transform="translate(454,311)" >
<path fill="black" d="M357 1536 L581 1536 L307 1243 L152 1243 L357 1536 Z " />
</g>
</glyph>
<glyph glyph-name="Ucircumflex" unicode="&#xdb;" horiz-adv-x="1412" >
<path fill="black" d="M173 1456 L365 1456 L365 456 Q365 371 390 310 Q415 249 460 210.5 Q505 172 568.5 154 Q632 136 708 136 Q785 136 848 154 Q911 172 956 210.5 Q1001 249 1025.5 310 Q1050 371 1050 456 L1050 1456 L1244 1456 L1244 456 Q1244 333 1201 243.5 Q1158 154 1084.5 95.5 Q1011 37 914 8.5 Q817 -20 708 -20 Q594 -20 496 8.5 Q398 37 326.5 95.5 Q255 154 214 243.5 Q173 333 173 456 L173 1456 Z " />
<g transform="translate(206,311)" >
<path fill="black" d="M194 1265 L447 1536 L560 1536 L815 1263 L815 1253 L660 1253 L503 1423 L347 1253 L194 1253 L194 1265 Z " />
</g>
</glyph>
<glyph glyph-name="Udieresis" unicode="&#xdc;" horiz-adv-x="1412" >
<path fill="black" d="M173 1456 L365 1456 L365 456 Q365 371 390 310 Q415 249 460 210.5 Q505 172 568.5 154 Q632 136 708 136 Q785 136 848 154 Q911 172 956 210.5 Q1001 249 1025.5 310 Q1050 371 1050 456 L1050 1456 L1244 1456 L1244 456 Q1244 333 1201 243.5 Q1158 154 1084.5 95.5 Q1011 37 914 8.5 Q817 -20 708 -20 Q594 -20 496 8.5 Q398 37 326.5 95.5 Q255 154 214 243.5 Q173 333 173 456 L173 1456 Z " />
<g transform="translate(189,315)" >
<path fill="black" d="M171 1369 Q171 1414 200 1444.5 Q229 1475 283 1475 Q337 1475 366 1444.5 Q395 1414 395 1369 Q395 1324 366 1294 Q337 1264 283 1264 Q229 1264 200 1294 Q171 1324 171 1369 Z " />
</g>
<g transform="translate(656,313)" >
<path fill="black" d="M171 1369 Q171 1414 200 1444.5 Q229 1475 283 1475 Q337 1475 366 1444.5 Q395 1414 395 1369 Q395 1324 366 1294 Q337 1264 283 1264 Q229 1264 200 1294 Q171 1324 171 1369 Z " />
</g>
</glyph>
<glyph glyph-name="Yacute" unicode="&#xdd;" horiz-adv-x="1309" >
<path fill="black" d="M556 544 L45 1456 L265 1456 L653 724 L1043 1456 L1262 1456 L750 544 L750 0 L556 0 L556 544 Z " />
<g transform="translate(402,310)" >
<path fill="black" d="M357 1536 L581 1536 L307 1243 L152 1243 L357 1536 Z " />
</g>
</glyph>
<glyph glyph-name="Thorn" unicode="&#xde;" horiz-adv-x="1291" d="M197 1456 L384 1456 L384 1163 L668 1163 Q789 1163 881.5 1131 Q974 1099 1037 1042.5 Q1100 986 1132.5 908 Q1165 830 1165 738 Q1165 647 1132.5 569 Q1100 491 1037 434.5 Q974 378 881.5 346 Q789 314 668 314 L384 314 L384 0 L197 0 L197 1456 Z M668 465 Q751 465 810 488 Q869 511 906.5 549.5 Q944 588 961.5 636.5 Q979 685 979 736 Q979 789 961.5 838.5 Q944 888 906.5 927 Q869 966 810 989.5 Q751 1013 668 1013 L384 1013 L384 465 L668 465 Z " />
<glyph glyph-name="germandbls" unicode="&#xdf;" horiz-adv-x="1300" d="M173 0 L173 1112 Q173 1222 202 1304.5 Q231 1387 283.5 1442.5 Q336 1498 410 1526 Q484 1554 575 1554 Q656 1554 725.5 1534 Q795 1514 846 1472.5 Q897 1431 926 1367.5 Q955 1304 955 1217 Q955 1137 935.5 1084.5 Q916 1032 892 990.5 Q868 949 848.5 910.5 Q829 872 829 820 Q829 774 855 737 Q881 700 920 666 Q959 632 1004.5 597 Q1050 562 1089 521.5 Q1128 481 1154 431.5 Q1180 382 1180 317 Q1180 231 1150 167.5 Q1120 104 1067.5 62.5 Q1015 21 942.5 0.5 Q870 -20 784 -20 Q742 -20 697 -14 Q652 -8 610.5 2 Q569 12 535 25.5 Q501 39 481 53 L524 206 Q541 195 568 182 Q595 169 627 157.5 Q659 146 695 138 Q731 130 767 130 Q826 130 868.5 144 Q911 158 939 182 Q967 206 980.5 238.5 Q994 271 994 308 Q994 356 968 393.5 Q942 431 903 465.5 Q864 500 818.5 534.5 Q773 569 734 610.5 Q695 652 669 703 Q643 754 643 822 Q643 882 664 927.5 Q685 973 709.5 1014.5 Q734 1056 755 1100 Q776 1144 776 1202 Q776 1252 761 1289.5 Q746 1327 720 1352.5 Q694 1378 658 1391 Q622 1404 581 1404 Q477 1404 418 1333.5 Q359 1263 359 1112 L359 0 L173 0 Z " />
<glyph glyph-name="agrave" unicode="&#xe0;" horiz-adv-x="1182" >
<path fill="black" d="M157 782 Q157 841 188 898 Q219 955 276 1000.5 Q333 1046 413.5 1074 Q494 1102 593 1102 Q683 1102 758.5 1081 Q834 1060 888 1017 Q942 974 972.5 908 Q1003 842 1003 751 L1003 236 Q1003 209 1005.5 179.5 Q1008 150 1012.5 121 Q1017 92 1024.5 65 Q1032 38 1041 16 L1041 0 L848 0 Q837 22 830.5 54.5 Q824 87 820 122 Q794 94 761 68 Q728 42 688 22.5 Q648 3 601 -8.5 Q554 -20 500 -20 Q417 -20 349.5 3 Q282 26 234 68 Q186 110 159.5 169 Q133 228 133 299 Q133 383 167 449.5 Q201 516 265 561.5 Q329 607 421.5 631.5 Q514 656 631 656 L817 656 L817 753 Q817 851 758 902 Q699 953 584 953 Q530 953 485.5 939 Q441 925 409.5 902 Q378 879 360.5 848 Q343 817 343 782 L157 782 Z M817 526 L657 526 Q494 526 406.5 475 Q319 424 319 323 Q319 237 373 188.5 Q427 140 529 140 Q582 140 627.5 154 Q673 168 710 190.5 Q747 213 774.5 241.5 Q802 270 817 300 L817 526 Z " />
<g transform="translate(194,0)" >
<path fill="black" d="M358 1243 L91 1536 L316 1536 L521 1243 L358 1243 Z " />
</g>
</glyph>
<glyph glyph-name="aacute" unicode="&#xe1;" horiz-adv-x="1182" >
<path fill="black" d="M157 782 Q157 841 188 898 Q219 955 276 1000.5 Q333 1046 413.5 1074 Q494 1102 593 1102 Q683 1102 758.5 1081 Q834 1060 888 1017 Q942 974 972.5 908 Q1003 842 1003 751 L1003 236 Q1003 209 1005.5 179.5 Q1008 150 1012.5 121 Q1017 92 1024.5 65 Q1032 38 1041 16 L1041 0 L848 0 Q837 22 830.5 54.5 Q824 87 820 122 Q794 94 761 68 Q728 42 688 22.5 Q648 3 601 -8.5 Q554 -20 500 -20 Q417 -20 349.5 3 Q282 26 234 68 Q186 110 159.5 169 Q133 228 133 299 Q133 383 167 449.5 Q201 516 265 561.5 Q329 607 421.5 631.5 Q514 656 631 656 L817 656 L817 753 Q817 851 758 902 Q699 953 584 953 Q530 953 485.5 939 Q441 925 409.5 902 Q378 879 360.5 848 Q343 817 343 782 L157 782 Z M817 526 L657 526 Q494 526 406.5 475 Q319 424 319 323 Q319 237 373 188.5 Q427 140 529 140 Q582 140 627.5 154 Q673 168 710 190.5 Q747 213 774.5 241.5 Q802 270 817 300 L817 526 Z " />
<g transform="translate(360,0)" >
<path fill="black" d="M357 1536 L581 1536 L307 1243 L152 1243 L357 1536 Z " />
</g>
</glyph>
<glyph glyph-name="acircumflex" unicode="&#xe2;" horiz-adv-x="1182" >
<path fill="black" d="M157 782 Q157 841 188 898 Q219 955 276 1000.5 Q333 1046 413.5 1074 Q494 1102 593 1102 Q683 1102 758.5 1081 Q834 1060 888 1017 Q942 974 972.5 908 Q1003 842 1003 751 L1003 236 Q1003 209 1005.5 179.5 Q1008 150 1012.5 121 Q1017 92 1024.5 65 Q1032 38 1041 16 L1041 0 L848 0 Q837 22 830.5 54.5 Q824 87 820 122 Q794 94 761 68 Q728 42 688 22.5 Q648 3 601 -8.5 Q554 -20 500 -20 Q417 -20 349.5 3 Q282 26 234 68 Q186 110 159.5 169 Q133 228 133 299 Q133 383 167 449.5 Q201 516 265 561.5 Q329 607 421.5 631.5 Q514 656 631 656 L817 656 L817 753 Q817 851 758 902 Q699 953 584 953 Q530 953 485.5 939 Q441 925 409.5 902 Q378 879 360.5 848 Q343 817 343 782 L157 782 Z M817 526 L657 526 Q494 526 406.5 475 Q319 424 319 323 Q319 237 373 188.5 Q427 140 529 140 Q582 140 627.5 154 Q673 168 710 190.5 Q747 213 774.5 241.5 Q802 270 817 300 L817 526 Z " />
<g transform="translate(112,0)" >
<path fill="black" d="M194 1265 L447 1536 L560 1536 L815 1263 L815 1253 L660 1253 L503 1423 L347 1253 L194 1253 L194 1265 Z " />
</g>
</glyph>
<glyph glyph-name="atilde" unicode="&#xe3;" horiz-adv-x="1182" >
<path fill="black" d="M157 782 Q157 841 188 898 Q219 955 276 1000.5 Q333 1046 413.5 1074 Q494 1102 593 1102 Q683 1102 758.5 1081 Q834 1060 888 1017 Q942 974 972.5 908 Q1003 842 1003 751 L1003 236 Q1003 209 1005.5 179.5 Q1008 150 1012.5 121 Q1017 92 1024.5 65 Q1032 38 1041 16 L1041 0 L848 0 Q837 22 830.5 54.5 Q824 87 820 122 Q794 94 761 68 Q728 42 688 22.5 Q648 3 601 -8.5 Q554 -20 500 -20 Q417 -20 349.5 3 Q282 26 234 68 Q186 110 159.5 169 Q133 228 133 299 Q133 383 167 449.5 Q201 516 265 561.5 Q329 607 421.5 631.5 Q514 656 631 656 L817 656 L817 753 Q817 851 758 902 Q699 953 584 953 Q530 953 485.5 939 Q441 925 409.5 902 Q378 879 360.5 848 Q343 817 343 782 L157 782 Z M817 526 L657 526 Q494 526 406.5 475 Q319 424 319 323 Q319 237 373 188.5 Q427 140 529 140 Q582 140 627.5 154 Q673 168 710 190.5 Q747 213 774.5 241.5 Q802 270 817 300 L817 526 Z " />
<g transform="translate(109,4)" >
<path fill="black" d="M150 1249 Q150 1303 166.5 1348.5 Q183 1394 212 1426.5 Q241 1459 280 1477 Q319 1495 365 1495 Q409 1495 442.5 1480 Q476 1465 506.5 1447 Q537 1429 568.5 1414 Q600 1399 640 1399 Q683 1399 712.5 1431.5 Q742 1464 742 1512 L866 1500 Q866 1445 849.5 1400.5 Q833 1356 803.5 1324.5 Q774 1293 734.5 1276 Q695 1259 650 1259 Q598 1259 564.5 1274 Q531 1289 503 1306.5 Q475 1324 446.5 1339 Q418 1354 376 1354 Q332 1354 303 1322.5 Q274 1291 274 1243 L150 1249 Z " />
</g>
</glyph>
<glyph glyph-name="adieresis" unicode="&#xe4;" horiz-adv-x="1182" >
<path fill="black" d="M157 782 Q157 841 188 898 Q219 955 276 1000.5 Q333 1046 413.5 1074 Q494 1102 593 1102 Q683 1102 758.5 1081 Q834 1060 888 1017 Q942 974 972.5 908 Q1003 842 1003 751 L1003 236 Q1003 209 1005.5 179.5 Q1008 150 1012.5 121 Q1017 92 1024.5 65 Q1032 38 1041 16 L1041 0 L848 0 Q837 22 830.5 54.5 Q824 87 820 122 Q794 94 761 68 Q728 42 688 22.5 Q648 3 601 -8.5 Q554 -20 500 -20 Q417 -20 349.5 3 Q282 26 234 68 Q186 110 159.5 169 Q133 228 133 299 Q133 383 167 449.5 Q201 516 265 561.5 Q329 607 421.5 631.5 Q514 656 631 656 L817 656 L817 753 Q817 851 758 902 Q699 953 584 953 Q530 953 485.5 939 Q441 925 409.5 902 Q378 879 360.5 848 Q343 817 343 782 L157 782 Z M817 526 L657 526 Q494 526 406.5 475 Q319 424 319 323 Q319 237 373 188.5 Q427 140 529 140 Q582 140 627.5 154 Q673 168 710 190.5 Q747 213 774.5 241.5 Q802 270 817 300 L817 526 Z " />
<g transform="translate(95,4)" >
<path fill="black" d="M171 1369 Q171 1414 200 1444.5 Q229 1475 283 1475 Q337 1475 366 1444.5 Q395 1414 395 1369 Q395 1324 366 1294 Q337 1264 283 1264 Q229 1264 200 1294 Q171 1324 171 1369 Z " />
</g>
<g transform="translate(562,2)" >
<path fill="black" d="M171 1369 Q171 1414 200 1444.5 Q229 1475 283 1475 Q337 1475 366 1444.5 Q395 1414 395 1369 Q395 1324 366 1294 Q337 1264 283 1264 Q229 1264 200 1294 Q171 1324 171 1369 Z " />
</g>
</glyph>
<glyph glyph-name="aring" unicode="&#xe5;" horiz-adv-x="1182" >
<path fill="black" d="M157 782 Q157 841 188 898 Q219 955 276 1000.5 Q333 1046 413.5 1074 Q494 1102 593 1102 Q683 1102 758.5 1081 Q834 1060 888 1017 Q942 974 972.5 908 Q1003 842 1003 751 L1003 236 Q1003 209 1005.5 179.5 Q1008 150 1012.5 121 Q1017 92 1024.5 65 Q1032 38 1041 16 L1041 0 L848 0 Q837 22 830.5 54.5 Q824 87 820 122 Q794 94 761 68 Q728 42 688 22.5 Q648 3 601 -8.5 Q554 -20 500 -20 Q417 -20 349.5 3 Q282 26 234 68 Q186 110 159.5 169 Q133 228 133 299 Q133 383 167 449.5 Q201 516 265 561.5 Q329 607 421.5 631.5 Q514 656 631 656 L817 656 L817 753 Q817 851 758 902 Q699 953 584 953 Q530 953 485.5 939 Q441 925 409.5 902 Q378 879 360.5 848 Q343 817 343 782 L157 782 Z M817 526 L657 526 Q494 526 406.5 475 Q319 424 319 323 Q319 237 373 188.5 Q427 140 529 140 Q582 140 627.5 154 Q673 168 710 190.5 Q747 213 774.5 241.5 Q802 270 817 300 L817 526 Z " />
<g transform="translate(243,10)" >
<path fill="black" d="M152 1409 Q152 1452 169 1490 Q186 1528 215.5 1556 Q245 1584 285.5 1600 Q326 1616 373 1616 Q420 1616 460.5 1600 Q501 1584 530.5 1556 Q560 1528 577 1490 Q594 1452 594 1409 Q594 1365 577 1327.5 Q560 1290 530.5 1263 Q501 1236 460.5 1220.5 Q420 1205 373 1205 Q326 1205 285.5 1220.5 Q245 1236 215.5 1263 Q186 1290 169 1327.5 Q152 1365 152 1409 Z M252 1409 Q252 1387 261 1366 Q270 1345 285.5 1328.5 Q301 1312 323.5 1302.5 Q346 1293 373 1293 Q400 1293 422.5 1302.5 Q445 1312 460.5 1328 Q476 1344 485 1365 Q494 1386 494 1409 Q494 1432 485 1453.5 Q476 1475 460.5 1491.5 Q445 1508 422.5 1517.5 Q400 1527 373 1527 Q346 1527 323.5 1517.5 Q301 1508 285.5 1491.5 Q270 1475 261 1453.5 Q252 1432 252 1409 Z " />
</g>
</glyph>
<glyph glyph-name="ae" unicode="&#xe6;" horiz-adv-x="1812" d="M793 636 L793 720 Q793 829 737.5 890 Q682 951 575 951 Q517 951 470.5 936 Q424 921 391.5 894.5 Q359 868 341.5 833.5 Q324 799 324 760 L139 778 Q139 848 170.5 907.5 Q202 967 259 1010 Q316 1053 396.5 1077.5 Q477 1102 575 1102 Q693 1102 781.5 1061 Q870 1020 920 936 Q983 1015 1072 1058.5 Q1161 1102 1269 1102 Q1377 1102 1460 1068 Q1543 1034 1600 971 Q1657 908 1686 818.5 Q1715 729 1715 617 L1715 499 L978 499 Q981 422 1001.5 355 Q1022 288 1063 238 Q1104 188 1165.5 159 Q1227 130 1312 130 Q1371 130 1418.5 140.5 Q1466 151 1504.5 166.5 Q1543 182 1574 201 Q1605 220 1632 237 L1694 102 Q1675 89 1642.5 68 Q1610 47 1562 27 Q1514 7 1451 -7 Q1388 -21 1308 -21 Q1172 -21 1072 27 Q972 75 908 160 Q883 127 843.5 94.5 Q804 62 750 36.5 Q696 11 627 -5 Q558 -21 474 -21 Q386 -21 318 2 Q250 25 203.5 67.5 Q157 110 133 170 Q109 230 109 304 Q109 462 225 549 Q341 636 567 636 L793 636 Z M793 496 L569 496 Q501 496 450 480 Q399 464 364.5 437 Q330 410 312.5 374.5 Q295 339 295 300 Q295 264 308 233 Q321 202 348 179 Q375 156 415 143 Q455 130 509 130 Q549 130 590 141 Q631 152 669 170.5 Q707 189 739 213 Q771 237 793 262 L793 496 Z M1529 640 L1529 671 Q1529 728 1514.5 779 Q1500 830 1469 868 Q1438 906 1388.5 928.5 Q1339 951 1269 951 Q1207 951 1157.5 927.5 Q1108 904 1072 862.5 Q1036 821 1013.5 764 Q991 707 983 640 L1529 640 Z " />
<glyph glyph-name="ccedilla" unicode="&#xe7;" horiz-adv-x="1141" d="M475 -339 Q509 -339 539.5 -333.5 Q570 -328 593.5 -316 Q617 -304 630.5 -285.5 Q644 -267 644 -240 Q644 -190 605 -171 Q566 -152 480 -145 L510 -13 Q412 2 339 47 Q266 92 217 160 Q168 228 144 316 Q120 404 120 505 L120 577 Q120 690 150 786 Q180 882 241 952 Q302 1022 393 1062 Q484 1102 606 1102 Q701 1102 779.5 1073.5 Q858 1045 915.5 993.5 Q973 942 1006 870 Q1039 798 1042 711 L866 711 Q863 765 842.5 809.5 Q822 854 788 885.5 Q754 917 707.5 934 Q661 951 605 951 Q520 951 462.5 920.5 Q405 890 370.5 838.5 Q336 787 321.5 719 Q307 651 307 577 L307 505 Q307 430 321 362.5 Q335 295 369.5 243.5 Q404 192 461.5 161.5 Q519 131 606 131 Q657 131 702.5 145.5 Q748 160 783 187 Q818 214 840 253 Q862 292 866 342 L1042 342 Q1039 271 1007 208 Q975 145 921.5 97 Q868 49 797.5 18.5 Q727 -12 646 -18 L636 -63 Q665 -68 693.5 -79.5 Q722 -91 744 -111.5 Q766 -132 779.5 -162.5 Q793 -193 793 -236 Q793 -330 713.5 -387.5 Q634 -445 482 -445 L475 -339 Z " />
<glyph glyph-name="egrave" unicode="&#xe8;" horiz-adv-x="1156" >
<path fill="black" d="M120 561 Q120 697 159.5 798.5 Q199 900 265 967.5 Q331 1035 418.5 1068.5 Q506 1102 602 1102 Q717 1102 802 1064.5 Q887 1027 943 958.5 Q999 890 1026.5 794 Q1054 698 1054 580 L1054 490 L307 490 L307 489 Q307 408 329.5 341.5 Q352 275 395 228 Q438 181 499 155.5 Q560 130 636 130 Q736 130 807 167.5 Q878 205 932 267 L1036 171 Q1009 135 972 100.5 Q935 66 884.5 39 Q834 12 770 -4 Q706 -20 626 -20 Q511 -20 417.5 15 Q324 50 258 116 Q192 182 156 276.5 Q120 371 120 489 L120 561 Z M868 640 L868 659 Q865 717 849.5 769.5 Q834 822 802.5 862.5 Q771 903 721.5 927 Q672 951 601 951 Q541 951 491.5 932.5 Q442 914 404.5 876 Q367 838 343 779.5 Q319 721 311 640 L868 640 Z " />
<g transform="translate(179,0)" >
<path fill="black" d="M358 1243 L91 1536 L316 1536 L521 1243 L358 1243 Z " />
</g>
</glyph>
<glyph glyph-name="eacute" unicode="&#xe9;" horiz-adv-x="1156" >
<path fill="black" d="M120 561 Q120 697 159.5 798.5 Q199 900 265 967.5 Q331 1035 418.5 1068.5 Q506 1102 602 1102 Q717 1102 802 1064.5 Q887 1027 943 958.5 Q999 890 1026.5 794 Q1054 698 1054 580 L1054 490 L307 490 L307 489 Q307 408 329.5 341.5 Q352 275 395 228 Q438 181 499 155.5 Q560 130 636 130 Q736 130 807 167.5 Q878 205 932 267 L1036 171 Q1009 135 972 100.5 Q935 66 884.5 39 Q834 12 770 -4 Q706 -20 626 -20 Q511 -20 417.5 15 Q324 50 258 116 Q192 182 156 276.5 Q120 371 120 489 L120 561 Z M868 640 L868 659 Q865 717 849.5 769.5 Q834 822 802.5 862.5 Q771 903 721.5 927 Q672 951 601 951 Q541 951 491.5 932.5 Q442 914 404.5 876 Q367 838 343 779.5 Q319 721 311 640 L868 640 Z " />
<g transform="translate(345,0)" >
<path fill="black" d="M357 1536 L581 1536 L307 1243 L152 1243 L357 1536 Z " />
</g>
</glyph>
<glyph glyph-name="ecircumflex" unicode="&#xea;" horiz-adv-x="1156" >
<path fill="black" d="M120 561 Q120 697 159.5 798.5 Q199 900 265 967.5 Q331 1035 418.5 1068.5 Q506 1102 602 1102 Q717 1102 802 1064.5 Q887 1027 943 958.5 Q999 890 1026.5 794 Q1054 698 1054 580 L1054 490 L307 490 L307 489 Q307 408 329.5 341.5 Q352 275 395 228 Q438 181 499 155.5 Q560 130 636 130 Q736 130 807 167.5 Q878 205 932 267 L1036 171 Q1009 135 972 100.5 Q935 66 884.5 39 Q834 12 770 -4 Q706 -20 626 -20 Q511 -20 417.5 15 Q324 50 258 116 Q192 182 156 276.5 Q120 371 120 489 L120 561 Z M868 640 L868 659 Q865 717 849.5 769.5 Q834 822 802.5 862.5 Q771 903 721.5 927 Q672 951 601 951 Q541 951 491.5 932.5 Q442 914 404.5 876 Q367 838 343 779.5 Q319 721 311 640 L868 640 Z " />
<g transform="translate(97,0)" >
<path fill="black" d="M194 1265 L447 1536 L560 1536 L815 1263 L815 1253 L660 1253 L503 1423 L347 1253 L194 1253 L194 1265 Z " />
</g>
</glyph>
<glyph glyph-name="edieresis" unicode="&#xeb;" horiz-adv-x="1156" >
<path fill="black" d="M120 561 Q120 697 159.5 798.5 Q199 900 265 967.5 Q331 1035 418.5 1068.5 Q506 1102 602 1102 Q717 1102 802 1064.5 Q887 1027 943 958.5 Q999 890 1026.5 794 Q1054 698 1054 580 L1054 490 L307 490 L307 489 Q307 408 329.5 341.5 Q352 275 395 228 Q438 181 499 155.5 Q560 130 636 130 Q736 130 807 167.5 Q878 205 932 267 L1036 171 Q1009 135 972 100.5 Q935 66 884.5 39 Q834 12 770 -4 Q706 -20 626 -20 Q511 -20 417.5 15 Q324 50 258 116 Q192 182 156 276.5 Q120 371 120 489 L120 561 Z M868 640 L868 659 Q865 717 849.5 769.5 Q834 822 802.5 862.5 Q771 903 721.5 927 Q672 951 601 951 Q541 951 491.5 932.5 Q442 914 404.5 876 Q367 838 343 779.5 Q319 721 311 640 L868 640 Z " />
<g transform="translate(80,4)" >
<path fill="black" d="M171 1369 Q171 1414 200 1444.5 Q229 1475 283 1475 Q337 1475 366 1444.5 Q395 1414 395 1369 Q395 1324 366 1294 Q337 1264 283 1264 Q229 1264 200 1294 Q171 1324 171 1369 Z " />
</g>
<g transform="translate(547,2)" >
<path fill="black" d="M171 1369 Q171 1414 200 1444.5 Q229 1475 283 1475 Q337 1475 366 1444.5 Q395 1414 395 1369 Q395 1324 366 1294 Q337 1264 283 1264 Q229 1264 200 1294 Q171 1324 171 1369 Z " />
</g>
</glyph>
<glyph glyph-name="igrave" unicode="&#xec;" horiz-adv-x="568" >
<path fill="black" d="M187 0 L187 1082 L373 1082 L373 0 L187 0 Z " />
<g transform="translate(-137,-2)" >
<path fill="black" d="M358 1243 L91 1536 L316 1536 L521 1243 L358 1243 Z " />
</g>
</glyph>
<glyph glyph-name="iacute" unicode="&#xed;" horiz-adv-x="568" >
<path fill="black" d="M187 0 L187 1082 L373 1082 L373 0 L187 0 Z " />
<g transform="translate(29,-2)" >
<path fill="black" d="M357 1536 L581 1536 L307 1243 L152 1243 L357 1536 Z " />
</g>
</glyph>
<glyph glyph-name="icircumflex" unicode="&#xee;" horiz-adv-x="568" >
<path fill="black" d="M187 0 L187 1082 L373 1082 L373 0 L187 0 Z " />
<g transform="translate(-219,-2)" >
<path fill="black" d="M194 1265 L447 1536 L560 1536 L815 1263 L815 1253 L660 1253 L503 1423 L347 1253 L194 1253 L194 1265 Z " />
</g>
</glyph>
<glyph glyph-name="idieresis" unicode="&#xef;" horiz-adv-x="568" >
<path fill="black" d="M187 0 L187 1082 L373 1082 L373 0 L187 0 Z " />
<g transform="translate(-236,2)" >
<path fill="black" d="M171 1369 Q171 1414 200 1444.5 Q229 1475 283 1475 Q337 1475 366 1444.5 Q395 1414 395 1369 Q395 1324 366 1294 Q337 1264 283 1264 Q229 1264 200 1294 Q171 1324 171 1369 Z " />
</g>
<g transform="translate(231,0)" >
<path fill="black" d="M171 1369 Q171 1414 200 1444.5 Q229 1475 283 1475 Q337 1475 366 1444.5 Q395 1414 395 1369 Q395 1324 366 1294 Q337 1264 283 1264 Q229 1264 200 1294 Q171 1324 171 1369 Z " />
</g>
</glyph>
<glyph glyph-name="eth" unicode="&#xf0;" horiz-adv-x="1271" d="M421 1152 L614 1282 Q542 1331 462 1365.5 Q382 1400 295 1423 L352 1581 Q596 1526 772 1388 L962 1516 L1031 1417 L864 1304 Q984 1179 1049.5 1010.5 Q1115 842 1115 633 L1115 535 Q1115 412 1079.5 309.5 Q1044 207 981 134 Q918 61 831 20.5 Q744 -20 641 -20 Q534 -20 445 18 Q356 56 292 122 Q228 188 192.5 277 Q157 366 157 468 Q157 584 190.5 678 Q224 772 284 838.5 Q344 905 427 941.5 Q510 978 609 978 Q697 978 772 946 Q847 914 903 860 Q877 967 828 1051 Q779 1135 711 1201 L490 1052 L421 1152 Z M645 131 Q711 131 763.5 161.5 Q816 192 853 246 Q890 300 909.5 374 Q929 448 929 535 L929 635 Q929 650 928.5 664.5 Q928 679 927 693 Q912 719 888 743 Q864 767 829.5 786 Q795 805 750.5 816 Q706 827 652 827 Q577 827 519.5 802 Q462 777 422.5 730 Q383 683 363 617 Q343 551 343 468 Q343 406 363 345.5 Q383 285 421.5 237.5 Q460 190 516 160.5 Q572 131 645 131 Z " />
<glyph glyph-name="ntilde" unicode="&#xf1;" horiz-adv-x="1206" >
<path fill="black" d="M171 1082 L348 1082 L354 937 Q413 1015 497 1058.5 Q581 1102 687 1102 Q768 1102 832.5 1080.5 Q897 1059 942.5 1012 Q988 965 1012.5 890.5 Q1037 816 1037 709 L1037 0 L851 0 L851 711 Q851 839 793 893 Q735 947 628 947 Q534 947 465 897 Q396 847 358 768 L358 0 L171 0 L171 1082 Z " />
<g transform="translate(105,4)" >
<path fill="black" d="M150 1249 Q150 1303 166.5 1348.5 Q183 1394 212 1426.5 Q241 1459 280 1477 Q319 1495 365 1495 Q409 1495 442.5 1480 Q476 1465 506.5 1447 Q537 1429 568.5 1414 Q600 1399 640 1399 Q683 1399 712.5 1431.5 Q742 1464 742 1512 L866 1500 Q866 1445 849.5 1400.5 Q833 1356 803.5 1324.5 Q774 1293 734.5 1276 Q695 1259 650 1259 Q598 1259 564.5 1274 Q531 1289 503 1306.5 Q475 1324 446.5 1339 Q418 1354 376 1354 Q332 1354 303 1322.5 Q274 1291 274 1243 L150 1249 Z " />
</g>
</glyph>
<glyph glyph-name="ograve" unicode="&#xf2;" horiz-adv-x="1238" >
<path fill="black" d="M120 567 Q120 687 155.5 786 Q191 885 256 955 Q321 1025 412.5 1063.5 Q504 1102 617 1102 Q731 1102 824 1063.5 Q917 1025 982 955 Q1047 885 1082.5 786 Q1118 687 1118 567 L1118 514 Q1118 394 1082.5 295.5 Q1047 197 982 127 Q917 57 825 18.5 Q733 -20 620 -20 Q506 -20 413.5 18.5 Q321 57 256 127 Q191 197 155.5 295.5 Q120 394 120 514 L120 567 Z M306 514 Q306 431 326 360.5 Q346 290 386 239 Q426 188 484.5 159.5 Q543 131 620 131 Q697 131 755 159.5 Q813 188 852 239 Q891 290 911 360.5 Q931 431 931 514 L931 567 Q931 650 911 720 Q891 790 851 841.5 Q811 893 752.5 922 Q694 951 617 951 Q541 951 483 922 Q425 893 385.5 841.5 Q346 790 326 720 Q306 650 306 567 L306 514 Z " />
<g transform="translate(191,0)" >
<path fill="black" d="M358 1243 L91 1536 L316 1536 L521 1243 L358 1243 Z " />
</g>
</glyph>
<glyph glyph-name="oacute" unicode="&#xf3;" horiz-adv-x="1238" >
<path fill="black" d="M120 567 Q120 687 155.5 786 Q191 885 256 955 Q321 1025 412.5 1063.5 Q504 1102 617 1102 Q731 1102 824 1063.5 Q917 1025 982 955 Q1047 885 1082.5 786 Q1118 687 1118 567 L1118 514 Q1118 394 1082.5 295.5 Q1047 197 982 127 Q917 57 825 18.5 Q733 -20 620 -20 Q506 -20 413.5 18.5 Q321 57 256 127 Q191 197 155.5 295.5 Q120 394 120 514 L120 567 Z M306 514 Q306 431 326 360.5 Q346 290 386 239 Q426 188 484.5 159.5 Q543 131 620 131 Q697 131 755 159.5 Q813 188 852 239 Q891 290 911 360.5 Q931 431 931 514 L931 567 Q931 650 911 720 Q891 790 851 841.5 Q811 893 752.5 922 Q694 951 617 951 Q541 951 483 922 Q425 893 385.5 841.5 Q346 790 326 720 Q306 650 306 567 L306 514 Z " />
<g transform="translate(357,0)" >
<path fill="black" d="M357 1536 L581 1536 L307 1243 L152 1243 L357 1536 Z " />
</g>
</glyph>
<glyph glyph-name="ocircumflex" unicode="&#xf4;" horiz-adv-x="1238" >
<path fill="black" d="M120 567 Q120 687 155.5 786 Q191 885 256 955 Q321 1025 412.5 1063.5 Q504 1102 617 1102 Q731 1102 824 1063.5 Q917 1025 982 955 Q1047 885 1082.5 786 Q1118 687 1118 567 L1118 514 Q1118 394 1082.5 295.5 Q1047 197 982 127 Q917 57 825 18.5 Q733 -20 620 -20 Q506 -20 413.5 18.5 Q321 57 256 127 Q191 197 155.5 295.5 Q120 394 120 514 L120 567 Z M306 514 Q306 431 326 360.5 Q346 290 386 239 Q426 188 484.5 159.5 Q543 131 620 131 Q697 131 755 159.5 Q813 188 852 239 Q891 290 911 360.5 Q931 431 931 514 L931 567 Q931 650 911 720 Q891 790 851 841.5 Q811 893 752.5 922 Q694 951 617 951 Q541 951 483 922 Q425 893 385.5 841.5 Q346 790 326 720 Q306 650 306 567 L306 514 Z " />
<g transform="translate(109,0)" >
<path fill="black" d="M194 1265 L447 1536 L560 1536 L815 1263 L815 1253 L660 1253 L503 1423 L347 1253 L194 1253 L194 1265 Z " />
</g>
</glyph>
<glyph glyph-name="otilde" unicode="&#xf5;" horiz-adv-x="1238" >
<path fill="black" d="M120 567 Q120 687 155.5 786 Q191 885 256 955 Q321 1025 412.5 1063.5 Q504 1102 617 1102 Q731 1102 824 1063.5 Q917 1025 982 955 Q1047 885 1082.5 786 Q1118 687 1118 567 L1118 514 Q1118 394 1082.5 295.5 Q1047 197 982 127 Q917 57 825 18.5 Q733 -20 620 -20 Q506 -20 413.5 18.5 Q321 57 256 127 Q191 197 155.5 295.5 Q120 394 120 514 L120 567 Z M306 514 Q306 431 326 360.5 Q346 290 386 239 Q426 188 484.5 159.5 Q543 131 620 131 Q697 131 755 159.5 Q813 188 852 239 Q891 290 911 360.5 Q931 431 931 514 L931 567 Q931 650 911 720 Q891 790 851 841.5 Q811 893 752.5 922 Q694 951 617 951 Q541 951 483 922 Q425 893 385.5 841.5 Q346 790 326 720 Q306 650 306 567 L306 514 Z " />
<g transform="translate(106,4)" >
<path fill="black" d="M150 1249 Q150 1303 166.5 1348.5 Q183 1394 212 1426.5 Q241 1459 280 1477 Q319 1495 365 1495 Q409 1495 442.5 1480 Q476 1465 506.5 1447 Q537 1429 568.5 1414 Q600 1399 640 1399 Q683 1399 712.5 1431.5 Q742 1464 742 1512 L866 1500 Q866 1445 849.5 1400.5 Q833 1356 803.5 1324.5 Q774 1293 734.5 1276 Q695 1259 650 1259 Q598 1259 564.5 1274 Q531 1289 503 1306.5 Q475 1324 446.5 1339 Q418 1354 376 1354 Q332 1354 303 1322.5 Q274 1291 274 1243 L150 1249 Z " />
</g>
</glyph>
<glyph glyph-name="odieresis" unicode="&#xf6;" horiz-adv-x="1238" >
<path fill="black" d="M120 567 Q120 687 155.5 786 Q191 885 256 955 Q321 1025 412.5 1063.5 Q504 1102 617 1102 Q731 1102 824 1063.5 Q917 1025 982 955 Q1047 885 1082.5 786 Q1118 687 1118 567 L1118 514 Q1118 394 1082.5 295.5 Q1047 197 982 127 Q917 57 825 18.5 Q733 -20 620 -20 Q506 -20 413.5 18.5 Q321 57 256 127 Q191 197 155.5 295.5 Q120 394 120 514 L120 567 Z M306 514 Q306 431 326 360.5 Q346 290 386 239 Q426 188 484.5 159.5 Q543 131 620 131 Q697 131 755 159.5 Q813 188 852 239 Q891 290 911 360.5 Q931 431 931 514 L931 567 Q931 650 911 720 Q891 790 851 841.5 Q811 893 752.5 922 Q694 951 617 951 Q541 951 483 922 Q425 893 385.5 841.5 Q346 790 326 720 Q306 650 306 567 L306 514 Z " />
<g transform="translate(92,4)" >
<path fill="black" d="M171 1369 Q171 1414 200 1444.5 Q229 1475 283 1475 Q337 1475 366 1444.5 Q395 1414 395 1369 Q395 1324 366 1294 Q337 1264 283 1264 Q229 1264 200 1294 Q171 1324 171 1369 Z " />
</g>
<g transform="translate(559,2)" >
<path fill="black" d="M171 1369 Q171 1414 200 1444.5 Q229 1475 283 1475 Q337 1475 366 1444.5 Q395 1414 395 1369 Q395 1324 366 1294 Q337 1264 283 1264 Q229 1264 200 1294 Q171 1324 171 1369 Z " />
</g>
</glyph>
<glyph glyph-name="divide" unicode="&#xf7;" horiz-adv-x="1244" d="M101 602 L101 783 L1117 783 L1117 602 L101 602 Z M499 282 Q499 330 529.5 361.5 Q560 393 617 393 Q674 393 705 361.5 Q736 330 736 282 Q736 236 705 204.5 Q674 173 617 173 Q560 173 529.5 204.5 Q499 236 499 282 Z M499 1099 Q499 1147 529.5 1178.5 Q560 1210 617 1210 Q674 1210 705 1178.5 Q736 1147 736 1099 Q736 1053 705 1021.5 Q674 990 617 990 Q560 990 529.5 1021.5 Q499 1053 499 1099 Z " />
<glyph glyph-name="oslash" unicode="&#xf8;" horiz-adv-x="1153" d="M328 67 Q230 136 176.5 250.5 Q123 365 123 514 L123 567 Q123 687 158.5 786 Q194 885 259 955 Q324 1025 415.5 1063.5 Q507 1102 620 1102 Q733 1102 826 1064 L899 1209 L1022 1209 L923 1010 Q1017 941 1069 827.5 Q1121 714 1121 567 L1121 514 Q1121 394 1085.5 295.5 Q1050 197 985 127 Q920 57 828 18.5 Q736 -20 623 -20 Q515 -20 425 15 L350 -135 L227 -135 L328 67 Z M755 922 Q695 951 620 951 Q544 951 486 922 Q428 893 388.5 841.5 Q349 790 329 720 Q309 650 309 567 L309 514 Q309 422 333 347 Q357 272 405 221 L755 922 Z M495 156 Q524 144 555.5 137.5 Q587 131 623 131 Q700 131 758 159.5 Q816 188 855 239 Q894 290 914 360.5 Q934 431 934 514 L934 567 Q934 655 911.5 728 Q889 801 844 853 L495 156 Z " />
<glyph glyph-name="ugrave" unicode="&#xf9;" horiz-adv-x="1205" >
<path fill="black" d="M167 1082 L353 1082 L353 382 Q353 309 370 261 Q387 213 416 185.5 Q445 158 482.5 147 Q520 136 561 136 Q678 136 747 181 Q816 226 847 299 L847 1082 L1035 1082 L1035 0 L857 0 L852 115 Q801 51 721 15.5 Q641 -20 528 -20 Q447 -20 380.5 2.5 Q314 25 266.5 74 Q219 123 193 199.5 Q167 276 167 384 L167 1082 Z " />
<g transform="translate(186,0)" >
<path fill="black" d="M358 1243 L91 1536 L316 1536 L521 1243 L358 1243 Z " />
</g>
</glyph>
<glyph glyph-name="uacute" unicode="&#xfa;" horiz-adv-x="1205" >
<path fill="black" d="M167 1082 L353 1082 L353 382 Q353 309 370 261 Q387 213 416 185.5 Q445 158 482.5 147 Q520 136 561 136 Q678 136 747 181 Q816 226 847 299 L847 1082 L1035 1082 L1035 0 L857 0 L852 115 Q801 51 721 15.5 Q641 -20 528 -20 Q447 -20 380.5 2.5 Q314 25 266.5 74 Q219 123 193 199.5 Q167 276 167 384 L167 1082 Z " />
<g transform="translate(352,0)" >
<path fill="black" d="M357 1536 L581 1536 L307 1243 L152 1243 L357 1536 Z " />
</g>
</glyph>
<glyph glyph-name="ucircumflex" unicode="&#xfb;" horiz-adv-x="1205" >
<path fill="black" d="M167 1082 L353 1082 L353 382 Q353 309 370 261 Q387 213 416 185.5 Q445 158 482.5 147 Q520 136 561 136 Q678 136 747 181 Q816 226 847 299 L847 1082 L1035 1082 L1035 0 L857 0 L852 115 Q801 51 721 15.5 Q641 -20 528 -20 Q447 -20 380.5 2.5 Q314 25 266.5 74 Q219 123 193 199.5 Q167 276 167 384 L167 1082 Z " />
<g transform="translate(104,0)" >
<path fill="black" d="M194 1265 L447 1536 L560 1536 L815 1263 L815 1253 L660 1253 L503 1423 L347 1253 L194 1253 L194 1265 Z " />
</g>
</glyph>
<glyph glyph-name="udieresis" unicode="&#xfc;" horiz-adv-x="1205" >
<path fill="black" d="M167 1082 L353 1082 L353 382 Q353 309 370 261 Q387 213 416 185.5 Q445 158 482.5 147 Q520 136 561 136 Q678 136 747 181 Q816 226 847 299 L847 1082 L1035 1082 L1035 0 L857 0 L852 115 Q801 51 721 15.5 Q641 -20 528 -20 Q447 -20 380.5 2.5 Q314 25 266.5 74 Q219 123 193 199.5 Q167 276 167 384 L167 1082 Z " />
<g transform="translate(87,4)" >
<path fill="black" d="M171 1369 Q171 1414 200 1444.5 Q229 1475 283 1475 Q337 1475 366 1444.5 Q395 1414 395 1369 Q395 1324 366 1294 Q337 1264 283 1264 Q229 1264 200 1294 Q171 1324 171 1369 Z " />
</g>
<g transform="translate(554,2)" >
<path fill="black" d="M171 1369 Q171 1414 200 1444.5 Q229 1475 283 1475 Q337 1475 366 1444.5 Q395 1414 395 1369 Q395 1324 366 1294 Q337 1264 283 1264 Q229 1264 200 1294 Q171 1324 171 1369 Z " />
</g>
</glyph>
<glyph glyph-name="yacute" unicode="&#xfd;" horiz-adv-x="1049" >
<path fill="black" d="M120 -273 Q130 -275 147.5 -276 Q165 -277 173 -277 Q220 -277 255.5 -268 Q291 -259 318.5 -238 Q346 -217 367 -183.5 Q388 -150 407 -101 L449 7 L52 1082 L254 1082 L538 265 L798 1082 L997 1082 L551 -168 Q537 -208 513 -255 Q489 -302 451 -342.5 Q413 -383 358 -410 Q303 -437 227 -437 Q215 -437 200 -435 Q185 -433 170 -430.5 Q155 -428 142 -425.5 Q129 -423 120 -421 L120 -273 Z " />
<g transform="translate(292,0)" >
<path fill="black" d="M357 1536 L581 1536 L307 1243 L152 1243 L357 1536 Z " />
</g>
</glyph>
<glyph glyph-name="thorn" unicode="&#xfe;" horiz-adv-x="1247" d="M179 1536 L365 1536 L365 963 Q420 1030 497 1066 Q574 1102 677 1102 Q780 1102 859.5 1062.5 Q939 1023 993.5 950.5 Q1048 878 1076 776 Q1104 674 1104 550 L1104 529 Q1104 410 1076 309.5 Q1048 209 994 135.5 Q940 62 861 21 Q782 -20 680 -20 Q576 -20 498 14 Q420 48 365 112 L365 -416 L179 -416 L179 1536 Z M365 284 Q383 251 407.5 223 Q432 195 464.5 174.5 Q497 154 537.5 142.5 Q578 131 628 131 Q703 131 758 163 Q813 195 848 249 Q883 303 900 375.5 Q917 448 917 529 L917 550 Q917 631 900 703 Q883 775 847 829.5 Q811 884 756 915.5 Q701 947 625 947 Q575 947 534.5 935.5 Q494 924 462 903 Q430 882 406 854 Q382 826 365 793 L365 284 Z " />
<glyph glyph-name="ydieresis" unicode="&#xff;" horiz-adv-x="1049" >
<path fill="black" d="M120 -273 Q130 -275 147.5 -276 Q165 -277 173 -277 Q220 -277 255.5 -268 Q291 -259 318.5 -238 Q346 -217 367 -183.5 Q388 -150 407 -101 L449 7 L52 1082 L254 1082 L538 265 L798 1082 L997 1082 L551 -168 Q537 -208 513 -255 Q489 -302 451 -342.5 Q413 -383 358 -410 Q303 -437 227 -437 Q215 -437 200 -435 Q185 -433 170 -430.5 Q155 -428 142 -425.5 Q129 -423 120 -421 L120 -273 Z " />
<g transform="translate(27,4)" >
<path fill="black" d="M171 1369 Q171 1414 200 1444.5 Q229 1475 283 1475 Q337 1475 366 1444.5 Q395 1414 395 1369 Q395 1324 366 1294 Q337 1264 283 1264 Q229 1264 200 1294 Q171 1324 171 1369 Z " />
</g>
<g transform="translate(494,2)" >
<path fill="black" d="M171 1369 Q171 1414 200 1444.5 Q229 1475 283 1475 Q337 1475 366 1444.5 Q395 1414 395 1369 Q395 1324 366 1294 Q337 1264 283 1264 Q229 1264 200 1294 Q171 1324 171 1369 Z " />
</g>
</glyph>
<glyph glyph-name="Amacron" unicode="&#x100;" horiz-adv-x="1406" d="M617 1456 L790 1456 L1351 0 L1151 0 L1012 381 L395 381 L256 0 L56 0 L617 1456 Z M955 538 L703 1229 L452 538 L955 538 Z M375 1764 L1047 1764 L1047 1623 L375 1623 L375 1764 Z " />
<glyph glyph-name="amacron" unicode="&#x101;" horiz-adv-x="1182" d="M157 782 Q157 841 188 898 Q219 955 276 1000.5 Q333 1046 413.5 1074 Q494 1102 593 1102 Q683 1102 758.5 1081 Q834 1060 888 1017 Q942 974 972.5 908 Q1003 842 1003 751 L1003 236 Q1003 209 1005.5 179.5 Q1008 150 1012.5 121 Q1017 92 1024.5 65 Q1032 38 1041 16 L1041 0 L848 0 Q837 22 830.5 54.5 Q824 87 820 122 Q794 94 761 68 Q728 42 688 22.5 Q648 3 601 -8.5 Q554 -20 500 -20 Q417 -20 349.5 3 Q282 26 234 68 Q186 110 159.5 169 Q133 228 133 299 Q133 383 167 449.5 Q201 516 265 561.5 Q329 607 421.5 631.5 Q514 656 631 656 L817 656 L817 753 Q817 851 758 902 Q699 953 584 953 Q530 953 485.5 939 Q441 925 409.5 902 Q378 879 360.5 848 Q343 817 343 782 L157 782 Z M817 526 L657 526 Q494 526 406.5 475 Q319 424 319 323 Q319 237 373 188.5 Q427 140 529 140 Q582 140 627.5 154 Q673 168 710 190.5 Q747 213 774.5 241.5 Q802 270 817 300 L817 526 Z M283 1453 L955 1453 L955 1312 L283 1312 L283 1453 Z " />
<glyph glyph-name="Abreve" unicode="&#x102;" horiz-adv-x="1406" >
<path fill="black" d="M617 1456 L790 1456 L1351 0 L1151 0 L1012 381 L395 381 L256 0 L56 0 L617 1456 Z M955 538 L703 1229 L452 538 L955 538 Z " />
<g transform="translate(225,311)" >
<path fill="black" d="M306 1495 Q306 1465 315 1438 Q324 1411 344.5 1390.5 Q365 1370 397 1358 Q429 1346 475 1346 Q521 1346 553 1358 Q585 1370 605.5 1390.5 Q626 1411 635 1438 Q644 1465 644 1495 L796 1495 Q796 1436 774 1387 Q752 1338 710.5 1302.5 Q669 1267 609.5 1247.5 Q550 1228 475 1228 Q401 1228 341.5 1247.5 Q282 1267 240.5 1302.5 Q199 1338 177 1387 Q155 1436 155 1495 L306 1495 Z " />
</g>
</glyph>
<glyph glyph-name="abreve" unicode="&#x103;" horiz-adv-x="1182" >
<path fill="black" d="M157 782 Q157 841 188 898 Q219 955 276 1000.5 Q333 1046 413.5 1074 Q494 1102 593 1102 Q683 1102 758.5 1081 Q834 1060 888 1017 Q942 974 972.5 908 Q1003 842 1003 751 L1003 236 Q1003 209 1005.5 179.5 Q1008 150 1012.5 121 Q1017 92 1024.5 65 Q1032 38 1041 16 L1041 0 L848 0 Q837 22 830.5 54.5 Q824 87 820 122 Q794 94 761 68 Q728 42 688 22.5 Q648 3 601 -8.5 Q554 -20 500 -20 Q417 -20 349.5 3 Q282 26 234 68 Q186 110 159.5 169 Q133 228 133 299 Q133 383 167 449.5 Q201 516 265 561.5 Q329 607 421.5 631.5 Q514 656 631 656 L817 656 L817 753 Q817 851 758 902 Q699 953 584 953 Q530 953 485.5 939 Q441 925 409.5 902 Q378 879 360.5 848 Q343 817 343 782 L157 782 Z M817 526 L657 526 Q494 526 406.5 475 Q319 424 319 323 Q319 237 373 188.5 Q427 140 529 140 Q582 140 627.5 154 Q673 168 710 190.5 Q747 213 774.5 241.5 Q802 270 817 300 L817 526 Z " />
<g transform="translate(133,0)" >
<path fill="black" d="M306 1495 Q306 1465 315 1438 Q324 1411 344.5 1390.5 Q365 1370 397 1358 Q429 1346 475 1346 Q521 1346 553 1358 Q585 1370 605.5 1390.5 Q626 1411 635 1438 Q644 1465 644 1495 L796 1495 Q796 1436 774 1387 Q752 1338 710.5 1302.5 Q669 1267 609.5 1247.5 Q550 1228 475 1228 Q401 1228 341.5 1247.5 Q282 1267 240.5 1302.5 Q199 1338 177 1387 Q155 1436 155 1495 L306 1495 Z " />
</g>
</glyph>
<glyph glyph-name="Aogonek" unicode="&#x104;" horiz-adv-x="1406" d="M617 1456 L790 1456 L1351 0 L1312 0 Q1278 -24 1247 -49.5 Q1216 -75 1192 -102.5 Q1168 -130 1153.5 -160 Q1139 -190 1139 -222 Q1139 -256 1156.5 -276 Q1174 -296 1219 -296 Q1252 -296 1277 -286.5 Q1302 -277 1318 -269 L1334 -389 Q1310 -404 1272 -418.5 Q1234 -433 1175 -433 Q1134 -433 1098.5 -421 Q1063 -409 1037 -385 Q1011 -361 996 -325.5 Q981 -290 981 -243 Q981 -177 1020.5 -112.5 Q1060 -48 1148 9 L1012 381 L395 381 L256 0 L56 0 L617 1456 Z M955 538 L703 1229 L452 538 L955 538 Z " />
<glyph glyph-name="aogonek" unicode="&#x105;" horiz-adv-x="1182" d="M1032 -389 Q1008 -404 970 -418.5 Q932 -433 873 -433 Q832 -433 796.5 -421 Q761 -409 735 -385 Q709 -361 694 -325.5 Q679 -290 679 -243 Q679 -177 718.5 -113 Q758 -49 844 8 Q835 30 829 60 Q823 90 820 122 Q794 94 761 68 Q728 42 688 22.5 Q648 3 601 -8.5 Q554 -20 500 -20 Q417 -20 349.5 3 Q282 26 234 68 Q186 110 159.5 169 Q133 228 133 299 Q133 383 167 449.5 Q201 516 265 561.5 Q329 607 421.5 631.5 Q514 656 631 656 L817 656 L817 753 Q817 851 758 902 Q699 953 584 953 Q530 953 485.5 939 Q441 925 409.5 902 Q378 879 360.5 848 Q343 817 343 782 L157 782 Q157 841 188 898 Q219 955 276 1000.5 Q333 1046 413.5 1074 Q494 1102 593 1102 Q683 1102 758.5 1081 Q834 1060 888 1017 Q942 974 972.5 908 Q1003 842 1003 751 L1003 236 Q1003 209 1005.5 179.5 Q1008 150 1012.5 121 Q1017 92 1024.5 65 Q1032 38 1041 16 L1041 0 L1010 0 Q976 -24 945 -49.5 Q914 -75 890 -102.5 Q866 -130 851.5 -160 Q837 -190 837 -222 Q837 -256 854.5 -276 Q872 -296 917 -296 Q950 -296 975 -286.5 Q1000 -277 1016 -269 L1032 -389 Z M817 526 L657 526 Q494 526 406.5 475 Q319 424 319 323 Q319 237 373 188.5 Q427 140 529 140 Q582 140 627.5 154 Q673 168 710 190.5 Q747 213 774.5 241.5 Q802 270 817 300 L817 526 Z " />
<glyph glyph-name="Cacute" unicode="&#x106;" horiz-adv-x="1412" >
<path fill="black" d="M152 825 Q152 974 193 1094 Q234 1214 310 1299 Q386 1384 494.5 1430 Q603 1476 739 1476 Q865 1476 962 1442 Q1059 1408 1127.5 1344.5 Q1196 1281 1236 1191 Q1276 1101 1287 989 L1093 989 Q1083 1070 1058.5 1131.5 Q1034 1193 992 1235 Q950 1277 887.5 1298.5 Q825 1320 739 1320 Q643 1320 569.5 1284.5 Q496 1249 446.5 1184.5 Q397 1120 371.5 1029 Q346 938 346 827 L346 632 Q346 528 369 437.5 Q392 347 438.5 280 Q485 213 556.5 174.5 Q628 136 725 136 Q817 136 881.5 156.5 Q946 177 989.5 218 Q1033 259 1057.5 320 Q1082 381 1093 462 L1286 462 Q1276 355 1236 266.5 Q1196 178 1126 114 Q1056 50 956 15 Q856 -20 725 -20 Q595 -20 489 26 Q383 72 308 157 Q233 242 192.5 362.5 Q152 483 152 632 L152 825 Z " />
<g transform="translate(465,343)" >
<path fill="black" d="M357 1536 L581 1536 L307 1243 L152 1243 L357 1536 Z " />
</g>
</glyph>
<glyph glyph-name="cacute" unicode="&#x107;" horiz-adv-x="1141" >
<path fill="black" d="M120 577 Q120 690 150 786 Q180 882 241 952 Q302 1022 393 1062 Q484 1102 606 1102 Q701 1102 779.5 1073.5 Q858 1045 915.5 993.5 Q973 942 1006 870 Q1039 798 1042 711 L866 711 Q863 765 842.5 809.5 Q822 854 788 885.5 Q754 917 707.5 934 Q661 951 605 951 Q520 951 462.5 920.5 Q405 890 370.5 838.5 Q336 787 321.5 719 Q307 651 307 577 L307 505 Q307 430 321 362.5 Q335 295 369.5 243.5 Q404 192 461.5 161.5 Q519 131 606 131 Q657 131 702.5 145.5 Q748 160 783 187 Q818 214 840 253 Q862 292 866 342 L1042 342 Q1039 266 1003 200 Q967 134 908 85 Q849 36 771 8 Q693 -20 606 -20 Q484 -20 392.5 20 Q301 60 240.5 130 Q180 200 150 296.5 Q120 393 120 505 L120 577 Z " />
<g transform="translate(316,0)" >
<path fill="black" d="M357 1536 L581 1536 L307 1243 L152 1243 L357 1536 Z " />
</g>
</glyph>
<glyph glyph-name="Cdotaccent" unicode="&#x10a;" horiz-adv-x="1412" >
<path fill="black" d="M152 825 Q152 974 193 1094 Q234 1214 310 1299 Q386 1384 494.5 1430 Q603 1476 739 1476 Q865 1476 962 1442 Q1059 1408 1127.5 1344.5 Q1196 1281 1236 1191 Q1276 1101 1287 989 L1093 989 Q1083 1070 1058.5 1131.5 Q1034 1193 992 1235 Q950 1277 887.5 1298.5 Q825 1320 739 1320 Q643 1320 569.5 1284.5 Q496 1249 446.5 1184.5 Q397 1120 371.5 1029 Q346 938 346 827 L346 632 Q346 528 369 437.5 Q392 347 438.5 280 Q485 213 556.5 174.5 Q628 136 725 136 Q817 136 881.5 156.5 Q946 177 989.5 218 Q1033 259 1057.5 320 Q1082 381 1093 462 L1286 462 Q1276 355 1236 266.5 Q1196 178 1126 114 Q1056 50 956 15 Q856 -20 725 -20 Q595 -20 489 26 Q383 72 308 157 Q233 242 192.5 362.5 Q152 483 152 632 L152 825 Z " />
<g transform="translate(435,343)" >
<path fill="black" d="M171 1369 Q171 1414 200 1444.5 Q229 1475 283 1475 Q337 1475 366 1444.5 Q395 1414 395 1369 Q395 1324 366 1294 Q337 1264 283 1264 Q229 1264 200 1294 Q171 1324 171 1369 Z " />
</g>
</glyph>
<glyph glyph-name="cdotaccent" unicode="&#x10b;" horiz-adv-x="1141" >
<path fill="black" d="M120 577 Q120 690 150 786 Q180 882 241 952 Q302 1022 393 1062 Q484 1102 606 1102 Q701 1102 779.5 1073.5 Q858 1045 915.5 993.5 Q973 942 1006 870 Q1039 798 1042 711 L866 711 Q863 765 842.5 809.5 Q822 854 788 885.5 Q754 917 707.5 934 Q661 951 605 951 Q520 951 462.5 920.5 Q405 890 370.5 838.5 Q336 787 321.5 719 Q307 651 307 577 L307 505 Q307 430 321 362.5 Q335 295 369.5 243.5 Q404 192 461.5 161.5 Q519 131 606 131 Q657 131 702.5 145.5 Q748 160 783 187 Q818 214 840 253 Q862 292 866 342 L1042 342 Q1039 266 1003 200 Q967 134 908 85 Q849 36 771 8 Q693 -20 606 -20 Q484 -20 392.5 20 Q301 60 240.5 130 Q180 200 150 296.5 Q120 393 120 505 L120 577 Z " />
<g transform="translate(286,0)" >
<path fill="black" d="M171 1369 Q171 1414 200 1444.5 Q229 1475 283 1475 Q337 1475 366 1444.5 Q395 1414 395 1369 Q395 1324 366 1294 Q337 1264 283 1264 Q229 1264 200 1294 Q171 1324 171 1369 Z " />
</g>
</glyph>
<glyph glyph-name="Ccaron" unicode="&#x10c;" horiz-adv-x="1412" >
<path fill="black" d="M152 825 Q152 974 193 1094 Q234 1214 310 1299 Q386 1384 494.5 1430 Q603 1476 739 1476 Q865 1476 962 1442 Q1059 1408 1127.5 1344.5 Q1196 1281 1236 1191 Q1276 1101 1287 989 L1093 989 Q1083 1070 1058.5 1131.5 Q1034 1193 992 1235 Q950 1277 887.5 1298.5 Q825 1320 739 1320 Q643 1320 569.5 1284.5 Q496 1249 446.5 1184.5 Q397 1120 371.5 1029 Q346 938 346 827 L346 632 Q346 528 369 437.5 Q392 347 438.5 280 Q485 213 556.5 174.5 Q628 136 725 136 Q817 136 881.5 156.5 Q946 177 989.5 218 Q1033 259 1057.5 320 Q1082 381 1093 462 L1286 462 Q1276 355 1236 266.5 Q1196 178 1126 114 Q1056 50 956 15 Q856 -20 725 -20 Q595 -20 489 26 Q383 72 308 157 Q233 242 192.5 362.5 Q152 483 152 632 L152 825 Z " />
<g transform="translate(236,343)" >
<path fill="black" d="M167 1525 L167 1535 L326 1535 L483 1365 L640 1535 L801 1535 L801 1525 L542 1251 L424 1251 L167 1525 Z " />
</g>
</glyph>
<glyph glyph-name="ccaron" unicode="&#x10d;" horiz-adv-x="1141" >
<path fill="black" d="M120 577 Q120 690 150 786 Q180 882 241 952 Q302 1022 393 1062 Q484 1102 606 1102 Q701 1102 779.5 1073.5 Q858 1045 915.5 993.5 Q973 942 1006 870 Q1039 798 1042 711 L866 711 Q863 765 842.5 809.5 Q822 854 788 885.5 Q754 917 707.5 934 Q661 951 605 951 Q520 951 462.5 920.5 Q405 890 370.5 838.5 Q336 787 321.5 719 Q307 651 307 577 L307 505 Q307 430 321 362.5 Q335 295 369.5 243.5 Q404 192 461.5 161.5 Q519 131 606 131 Q657 131 702.5 145.5 Q748 160 783 187 Q818 214 840 253 Q862 292 866 342 L1042 342 Q1039 266 1003 200 Q967 134 908 85 Q849 36 771 8 Q693 -20 606 -20 Q484 -20 392.5 20 Q301 60 240.5 130 Q180 200 150 296.5 Q120 393 120 505 L120 577 Z " />
<g transform="translate(87,0)" >
<path fill="black" d="M167 1525 L167 1535 L326 1535 L483 1365 L640 1535 L801 1535 L801 1525 L542 1251 L424 1251 L167 1525 Z " />
</g>
</glyph>
<glyph glyph-name="Dcaron" unicode="&#x10e;" horiz-adv-x="1419" d="M199 1456 L620 1456 Q764 1456 883.5 1411.5 Q1003 1367 1088 1283 Q1173 1199 1220 1077.5 Q1267 956 1267 802 L1267 654 Q1267 500 1220.5 378.5 Q1174 257 1087.5 173 Q1001 89 879 44.5 Q757 0 606 0 L199 0 L199 1456 Z M606 156 Q722 156 809.5 190 Q897 224 956 288.5 Q1015 353 1045 445 Q1075 537 1075 654 L1075 804 Q1075 1047 956.5 1173.5 Q838 1300 620 1300 L393 1300 L393 156 L606 156 Z M574 1573 L317 1847 L317 1857 L476 1857 L633 1687 L790 1857 L951 1857 L951 1847 L692 1573 L574 1573 Z " />
<glyph glyph-name="dcaron" unicode="&#x10f;" horiz-adv-x="1288" d="M125 565 Q125 734 177 853 Q229 972 323 1036 L323 1058 L323 1140 L494 1140 L494 1098 Q509 1100 524 1101 Q539 1102 555 1102 Q658 1102 733.5 1066 Q809 1030 863 961 L863 1536 L1050 1536 L1050 0 L878 0 L869 127 Q815 55 737 17.5 Q659 -20 553 -20 Q456 -20 376.5 17.5 Q297 55 241.5 124.5 Q186 194 155.5 293 Q125 392 125 514 L125 565 Z M312 514 Q312 430 328.5 360 Q345 290 380 240.5 Q415 191 469.5 163.5 Q524 136 599 136 Q649 136 690 147.5 Q731 159 763 180 Q795 201 820 230 Q845 259 863 293 L863 794 Q845 827 821 855 Q797 883 764.5 903.5 Q732 924 691.5 935.5 Q651 947 600 947 Q524 947 469 918 Q451 867 422 820.5 Q393 774 352 739 L337 750 Q312 671 312 565 L312 514 Z " />
<glyph glyph-name="Dcroat" unicode="&#x110;" horiz-adv-x="1419" >
<path fill="black" d="M199 666 L38 666 L38 816 L199 816 L199 1456 L620 1456 Q764 1456 883.5 1411.5 Q1003 1367 1088 1283 Q1173 1199 1220 1077.5 Q1267 956 1267 802 L1267 654 Q1267 500 1220.5 378.5 Q1174 257 1087.5 173 Q1001 89 879 44.5 Q757 0 606 0 L199 0 L199 666 Z M606 156 Q722 156 809.5 190 Q897 224 956 288.5 Q1015 353 1045 445 Q1075 537 1075 654 L1075 804 Q1075 1047 956.5 1173.5 Q838 1300 620 1300 L393 1300 L393 816 L686 816 L686 666 L393 666 L393 156 L606 156 Z " />
</glyph>
<glyph glyph-name="dslash" unicode="&#x111;" horiz-adv-x="1296" d="M125 550 Q125 674 155.5 776 Q186 878 242 950.5 Q298 1023 377.5 1062.5 Q457 1102 556 1102 Q658 1102 733.5 1066.5 Q809 1031 863 964 L863 1234 L586 1234 L586 1384 L863 1384 L863 1536 L1050 1536 L1050 1384 L1233 1384 L1233 1234 L1050 1234 L1050 0 L878 0 L869 124 Q815 54 737.5 17 Q660 -20 555 -20 Q457 -20 377.5 21 Q298 62 242 135.5 Q186 209 155.5 309.5 Q125 410 125 529 L125 550 Z M312 529 Q312 448 328.5 376.5 Q345 305 380 251.5 Q415 198 469.5 167 Q524 136 599 136 Q649 136 690 148 Q731 160 763 182 Q795 204 820 233.5 Q845 263 863 299 L863 788 Q845 822 821 851 Q797 880 764.5 901.5 Q732 923 691.5 935 Q651 947 600 947 Q524 947 469.5 915.5 Q415 884 380 829.5 Q345 775 328.5 703 Q312 631 312 550 L312 529 Z " />
<glyph glyph-name="Emacron" unicode="&#x112;" horiz-adv-x="1237" d="M199 1456 L1131 1456 L1131 1300 L393 1300 L393 830 L1036 830 L1036 674 L393 674 L393 156 L1139 156 L1139 0 L199 0 L199 1456 Z M327 1775 L999 1775 L999 1634 L327 1634 L327 1775 Z " />
<glyph glyph-name="emacron" unicode="&#x113;" horiz-adv-x="1156" d="M120 561 Q120 697 159.5 798.5 Q199 900 265 967.5 Q331 1035 418.5 1068.5 Q506 1102 602 1102 Q717 1102 802 1064.5 Q887 1027 943 958.5 Q999 890 1026.5 794 Q1054 698 1054 580 L1054 490 L307 490 L307 489 Q307 408 329.5 341.5 Q352 275 395 228 Q438 181 499 155.5 Q560 130 636 130 Q736 130 807 167.5 Q878 205 932 267 L1036 171 Q1009 135 972 100.5 Q935 66 884.5 39 Q834 12 770 -4 Q706 -20 626 -20 Q511 -20 417.5 15 Q324 50 258 116 Q192 182 156 276.5 Q120 371 120 489 L120 561 Z M868 640 L868 659 Q865 717 849.5 769.5 Q834 822 802.5 862.5 Q771 903 721.5 927 Q672 951 601 951 Q541 951 491.5 932.5 Q442 914 404.5 876 Q367 838 343 779.5 Q319 721 311 640 L868 640 Z M268 1453 L940 1453 L940 1312 L268 1312 L268 1453 Z " />
<glyph glyph-name="Edotaccent" unicode="&#x116;" horiz-adv-x="1237" >
<path fill="black" d="M199 1456 L1131 1456 L1131 1300 L393 1300 L393 830 L1036 830 L1036 674 L393 674 L393 156 L1139 156 L1139 0 L199 0 L199 1456 Z " />
<g transform="translate(374,322)" >
<path fill="black" d="M171 1369 Q171 1414 200 1444.5 Q229 1475 283 1475 Q337 1475 366 1444.5 Q395 1414 395 1369 Q395 1324 366 1294 Q337 1264 283 1264 Q229 1264 200 1294 Q171 1324 171 1369 Z " />
</g>
</glyph>
<glyph glyph-name="edotaccent" unicode="&#x117;" horiz-adv-x="1156" >
<path fill="black" d="M120 561 Q120 697 159.5 798.5 Q199 900 265 967.5 Q331 1035 418.5 1068.5 Q506 1102 602 1102 Q717 1102 802 1064.5 Q887 1027 943 958.5 Q999 890 1026.5 794 Q1054 698 1054 580 L1054 490 L307 490 L307 489 Q307 408 329.5 341.5 Q352 275 395 228 Q438 181 499 155.5 Q560 130 636 130 Q736 130 807 167.5 Q878 205 932 267 L1036 171 Q1009 135 972 100.5 Q935 66 884.5 39 Q834 12 770 -4 Q706 -20 626 -20 Q511 -20 417.5 15 Q324 50 258 116 Q192 182 156 276.5 Q120 371 120 489 L120 561 Z M868 640 L868 659 Q865 717 849.5 769.5 Q834 822 802.5 862.5 Q771 903 721.5 927 Q672 951 601 951 Q541 951 491.5 932.5 Q442 914 404.5 876 Q367 838 343 779.5 Q319 721 311 640 L868 640 Z " />
<g transform="translate(315,0)" >
<path fill="black" d="M171 1369 Q171 1414 200 1444.5 Q229 1475 283 1475 Q337 1475 366 1444.5 Q395 1414 395 1369 Q395 1324 366 1294 Q337 1264 283 1264 Q229 1264 200 1294 Q171 1324 171 1369 Z " />
</g>
</glyph>
<glyph glyph-name="Eogonek" unicode="&#x118;" horiz-adv-x="1237" d="M199 1456 L1131 1456 L1131 1300 L393 1300 L393 830 L1036 830 L1036 674 L393 674 L393 156 L1139 156 L1139 0 L1058 0 Q1024 -24 993 -49.5 Q962 -75 938 -102.5 Q914 -130 899.5 -160 Q885 -190 885 -222 Q885 -256 902.5 -276 Q920 -296 965 -296 Q998 -296 1023 -286.5 Q1048 -277 1064 -269 L1080 -389 Q1056 -404 1018 -418.5 Q980 -433 921 -433 Q880 -433 844.5 -421 Q809 -409 783 -385 Q757 -361 742 -325.5 Q727 -290 727 -243 Q727 -180 763.5 -118 Q800 -56 880 0 L199 0 L199 1456 Z " />
<glyph glyph-name="eogonek" unicode="&#x119;" horiz-adv-x="1156" d="M883 -363 Q859 -378 821 -392.5 Q783 -407 724 -407 Q683 -407 647.5 -395 Q612 -383 586 -359 Q560 -335 545 -299.5 Q530 -264 530 -217 Q530 -166 553 -116.5 Q576 -67 626 -20 Q511 -20 417.5 15 Q324 50 258 116 Q192 182 156 276.5 Q120 371 120 489 L120 561 Q120 697 159.5 798.5 Q199 900 265 967.5 Q331 1035 418.5 1068.5 Q506 1102 602 1102 Q717 1102 802 1064.5 Q887 1027 943 958.5 Q999 890 1026.5 794 Q1054 698 1054 580 L1054 490 L307 490 L307 489 Q307 408 329.5 341.5 Q352 275 395 228 Q438 181 499 155.5 Q560 130 636 130 Q736 130 807 167.5 Q878 205 932 267 L1036 171 Q1006 130 963 92 Q920 54 860 27 L861 26 Q827 2 796 -23.5 Q765 -49 741 -76.5 Q717 -104 702.5 -134 Q688 -164 688 -196 Q688 -230 705.5 -250 Q723 -270 768 -270 Q801 -270 826 -260.5 Q851 -251 867 -243 L883 -363 Z M868 640 L868 659 Q865 717 849.5 769.5 Q834 822 802.5 862.5 Q771 903 721.5 927 Q672 951 601 951 Q541 951 491.5 932.5 Q442 914 404.5 876 Q367 838 343 779.5 Q319 721 311 640 L868 640 Z " />
<glyph glyph-name="Ecaron" unicode="&#x11a;" horiz-adv-x="1237" d="M199 1456 L1131 1456 L1131 1300 L393 1300 L393 830 L1036 830 L1036 674 L393 674 L393 156 L1139 156 L1139 0 L199 0 L199 1456 Z M599 1573 L342 1847 L342 1857 L501 1857 L658 1687 L815 1857 L976 1857 L976 1847 L717 1573 L599 1573 Z " />
<glyph glyph-name="ecaron" unicode="&#x11b;" horiz-adv-x="1156" d="M120 561 Q120 697 159.5 798.5 Q199 900 265 967.5 Q331 1035 418.5 1068.5 Q506 1102 602 1102 Q717 1102 802 1064.5 Q887 1027 943 958.5 Q999 890 1026.5 794 Q1054 698 1054 580 L1054 490 L307 490 L307 489 Q307 408 329.5 341.5 Q352 275 395 228 Q438 181 499 155.5 Q560 130 636 130 Q736 130 807 167.5 Q878 205 932 267 L1036 171 Q1009 135 972 100.5 Q935 66 884.5 39 Q834 12 770 -4 Q706 -20 626 -20 Q511 -20 417.5 15 Q324 50 258 116 Q192 182 156 276.5 Q120 371 120 489 L120 561 Z M540 1251 L283 1525 L283 1535 L442 1535 L599 1365 L756 1535 L917 1535 L917 1525 L658 1251 L540 1251 Z M868 640 L868 659 Q865 717 849.5 769.5 Q834 822 802.5 862.5 Q771 903 721.5 927 Q672 951 601 951 Q541 951 491.5 932.5 Q442 914 404.5 876 Q367 838 343 779.5 Q319 721 311 640 L868 640 Z " />
<glyph glyph-name="Gbreve" unicode="&#x11e;" horiz-adv-x="1473" >
<path fill="black" d="M157 816 Q157 975 196.5 1098 Q236 1221 311.5 1305 Q387 1389 497 1432.5 Q607 1476 747 1476 Q875 1476 972 1444 Q1069 1412 1136.5 1353.5 Q1204 1295 1243 1212.5 Q1282 1130 1294 1030 L1102 1030 Q1092 1093 1068 1146 Q1044 1199 1001.5 1237.5 Q959 1276 897 1298 Q835 1320 749 1320 Q648 1320 573 1286.5 Q498 1253 448.5 1188.5 Q399 1124 375 1030.5 Q351 937 351 818 L351 641 Q351 519 381 424.5 Q411 330 465.5 266 Q520 202 598 169 Q676 136 772 136 Q849 136 904.5 147 Q960 158 999 173.5 Q1038 189 1062.5 207 Q1087 225 1101 239 L1101 570 L755 570 L755 725 L1294 725 L1294 188 Q1273 160 1234 124 Q1195 88 1132.5 56 Q1070 24 980.5 2 Q891 -20 769 -20 Q634 -20 521.5 23.5 Q409 67 328 151 Q247 235 202 358.5 Q157 482 157 641 L157 816 Z " />
<g transform="translate(235,343)" >
<path fill="black" d="M306 1495 Q306 1465 315 1438 Q324 1411 344.5 1390.5 Q365 1370 397 1358 Q429 1346 475 1346 Q521 1346 553 1358 Q585 1370 605.5 1390.5 Q626 1411 635 1438 Q644 1465 644 1495 L796 1495 Q796 1436 774 1387 Q752 1338 710.5 1302.5 Q669 1267 609.5 1247.5 Q550 1228 475 1228 Q401 1228 341.5 1247.5 Q282 1267 240.5 1302.5 Q199 1338 177 1387 Q155 1436 155 1495 L306 1495 Z " />
</g>
</glyph>
<glyph glyph-name="gbreve" unicode="&#x11f;" horiz-adv-x="1224" >
<path fill="black" d="M279 -143 Q345 -218 421 -247.5 Q497 -277 575 -277 Q711 -277 788.5 -210 Q866 -143 866 0 L866 119 Q812 52 735.5 16 Q659 -20 556 -20 Q457 -20 377.5 17.5 Q298 55 242.5 124.5 Q187 194 157 293 Q127 392 127 514 L127 565 Q127 693 156.5 792.5 Q186 892 242 961 Q298 1030 378 1066 Q458 1102 558 1102 Q665 1102 742.5 1063.5 Q820 1025 874 953 L883 1082 L1053 1082 L1053 9 Q1053 -99 1019.5 -180.5 Q986 -262 924.5 -316.5 Q863 -371 777 -399 Q691 -427 587 -427 Q542 -427 487.5 -418 Q433 -409 378.5 -388.5 Q324 -368 274 -336 Q224 -304 189 -257 L279 -143 Z M313 514 Q313 430 330 360 Q347 290 382 240.5 Q417 191 471.5 163.5 Q526 136 601 136 Q652 136 693 147.5 Q734 159 766.5 180 Q799 201 823.5 230 Q848 259 866 293 L866 794 Q849 827 825 855 Q801 883 768.5 903.5 Q736 924 695.5 935.5 Q655 947 604 947 Q528 947 473 919 Q418 891 382.5 840.5 Q347 790 330 720 Q313 650 313 565 L313 514 Z " />
<g transform="translate(112,0)" >
<path fill="black" d="M306 1495 Q306 1465 315 1438 Q324 1411 344.5 1390.5 Q365 1370 397 1358 Q429 1346 475 1346 Q521 1346 553 1358 Q585 1370 605.5 1390.5 Q626 1411 635 1438 Q644 1465 644 1495 L796 1495 Q796 1436 774 1387 Q752 1338 710.5 1302.5 Q669 1267 609.5 1247.5 Q550 1228 475 1228 Q401 1228 341.5 1247.5 Q282 1267 240.5 1302.5 Q199 1338 177 1387 Q155 1436 155 1495 L306 1495 Z " />
</g>
</glyph>
<glyph glyph-name="Gdotaccent" unicode="&#x120;" horiz-adv-x="1473" >
<path fill="black" d="M157 816 Q157 975 196.5 1098 Q236 1221 311.5 1305 Q387 1389 497 1432.5 Q607 1476 747 1476 Q875 1476 972 1444 Q1069 1412 1136.5 1353.5 Q1204 1295 1243 1212.5 Q1282 1130 1294 1030 L1102 1030 Q1092 1093 1068 1146 Q1044 1199 1001.5 1237.5 Q959 1276 897 1298 Q835 1320 749 1320 Q648 1320 573 1286.5 Q498 1253 448.5 1188.5 Q399 1124 375 1030.5 Q351 937 351 818 L351 641 Q351 519 381 424.5 Q411 330 465.5 266 Q520 202 598 169 Q676 136 772 136 Q849 136 904.5 147 Q960 158 999 173.5 Q1038 189 1062.5 207 Q1087 225 1101 239 L1101 570 L755 570 L755 725 L1294 725 L1294 188 Q1273 160 1234 124 Q1195 88 1132.5 56 Q1070 24 980.5 2 Q891 -20 769 -20 Q634 -20 521.5 23.5 Q409 67 328 151 Q247 235 202 358.5 Q157 482 157 641 L157 816 Z " />
<g transform="translate(432,343)" >
<path fill="black" d="M171 1369 Q171 1414 200 1444.5 Q229 1475 283 1475 Q337 1475 366 1444.5 Q395 1414 395 1369 Q395 1324 366 1294 Q337 1264 283 1264 Q229 1264 200 1294 Q171 1324 171 1369 Z " />
</g>
</glyph>
<glyph glyph-name="gdotaccent" unicode="&#x121;" horiz-adv-x="1224" >
<path fill="black" d="M279 -143 Q345 -218 421 -247.5 Q497 -277 575 -277 Q711 -277 788.5 -210 Q866 -143 866 0 L866 119 Q812 52 735.5 16 Q659 -20 556 -20 Q457 -20 377.5 17.5 Q298 55 242.5 124.5 Q187 194 157 293 Q127 392 127 514 L127 565 Q127 693 156.5 792.5 Q186 892 242 961 Q298 1030 378 1066 Q458 1102 558 1102 Q665 1102 742.5 1063.5 Q820 1025 874 953 L883 1082 L1053 1082 L1053 9 Q1053 -99 1019.5 -180.5 Q986 -262 924.5 -316.5 Q863 -371 777 -399 Q691 -427 587 -427 Q542 -427 487.5 -418 Q433 -409 378.5 -388.5 Q324 -368 274 -336 Q224 -304 189 -257 L279 -143 Z M313 514 Q313 430 330 360 Q347 290 382 240.5 Q417 191 471.5 163.5 Q526 136 601 136 Q652 136 693 147.5 Q734 159 766.5 180 Q799 201 823.5 230 Q848 259 866 293 L866 794 Q849 827 825 855 Q801 883 768.5 903.5 Q736 924 695.5 935.5 Q655 947 604 947 Q528 947 473 919 Q418 891 382.5 840.5 Q347 790 330 720 Q313 650 313 565 L313 514 Z " />
<g transform="translate(309,0)" >
<path fill="black" d="M171 1369 Q171 1414 200 1444.5 Q229 1475 283 1475 Q337 1475 366 1444.5 Q395 1414 395 1369 Q395 1324 366 1294 Q337 1264 283 1264 Q229 1264 200 1294 Q171 1324 171 1369 Z " />
</g>
</glyph>
<glyph glyph-name="uni0122" unicode="&#x122;" horiz-adv-x="1365" >
<path fill="black" d="M157 816 Q157 975 196.5 1098 Q236 1221 311.5 1305 Q387 1389 497 1432.5 Q607 1476 747 1476 Q875 1476 972 1444 Q1069 1412 1136.5 1353.5 Q1204 1295 1243 1212.5 Q1282 1130 1294 1030 L1102 1030 Q1092 1093 1068 1146 Q1044 1199 1001.5 1237.5 Q959 1276 897 1298 Q835 1320 749 1320 Q648 1320 573 1286.5 Q498 1253 448.5 1188.5 Q399 1124 375 1030.5 Q351 937 351 818 L351 641 Q351 519 381 424.5 Q411 330 465.5 266 Q520 202 598 169 Q676 136 772 136 Q849 136 904.5 147 Q960 158 999 173.5 Q1038 189 1062.5 207 Q1087 225 1101 239 L1101 570 L755 570 L755 725 L1294 725 L1294 188 Q1273 160 1234 124 Q1195 88 1132.5 56 Q1070 24 980.5 2 Q891 -20 769 -20 Q634 -20 521.5 23.5 Q409 67 328 151 Q247 235 202 358.5 Q157 482 157 641 L157 816 Z " />
<g transform="translate(444,-376)" >
<path fill="black" d="M-683 -476 Q-646 -419 -627.5 -359.5 Q-609 -300 -609 -230 L-609 -148 L-438 -148 L-438 -227 Q-438 -267 -447 -311 Q-456 -355 -474 -397.5 Q-492 -440 -518.5 -479.5 Q-545 -519 -580 -549 L-683 -476 Z " />
</g>
</glyph>
<glyph glyph-name="uni0123" unicode="&#x123;" horiz-adv-x="1224" >
<path fill="black" d="M279 -143 Q345 -218 421 -247.5 Q497 -277 575 -277 Q711 -277 788.5 -210 Q866 -143 866 0 L866 119 Q812 52 735.5 16 Q659 -20 556 -20 Q457 -20 377.5 17.5 Q298 55 242.5 124.5 Q187 194 157 293 Q127 392 127 514 L127 565 Q127 693 156.5 792.5 Q186 892 242 961 Q298 1030 378 1066 Q458 1102 558 1102 Q665 1102 742.5 1063.5 Q820 1025 874 953 L883 1082 L1053 1082 L1053 9 Q1053 -99 1019.5 -180.5 Q986 -262 924.5 -316.5 Q863 -371 777 -399 Q691 -427 587 -427 Q542 -427 487.5 -418 Q433 -409 378.5 -388.5 Q324 -368 274 -336 Q224 -304 189 -257 L279 -143 Z M313 514 Q313 430 330 360 Q347 290 382 240.5 Q417 191 471.5 163.5 Q526 136 601 136 Q652 136 693 147.5 Q734 159 766.5 180 Q799 201 823.5 230 Q848 259 866 293 L866 794 Q849 827 825 855 Q801 883 768.5 903.5 Q736 924 695.5 935.5 Q655 947 604 947 Q528 947 473 919 Q418 891 382.5 840.5 Q347 790 330 720 Q313 650 313 565 L313 514 Z " />
<g transform="translate(315,87)" >
<path fill="black" d="M185 1297 Q185 1341 197 1385.5 Q209 1430 228.5 1469.5 Q248 1509 271.5 1541.5 Q295 1574 319 1595 L426 1513 Q393 1453 378.5 1401.5 Q364 1350 364 1288 L364 1168 L185 1168 L185 1297 Z " />
</g>
</glyph>
<glyph glyph-name="Hbar" unicode="&#x126;" horiz-adv-x="1412" d="M195 1024 L59 1024 L59 1165 L195 1165 L195 1456 L389 1456 L389 1165 L1136 1165 L1136 1456 L1330 1456 L1330 1165 L1463 1165 L1463 1024 L1330 1024 L1330 0 L1136 0 L1136 674 L389 674 L389 0 L195 0 L195 1024 Z M1136 830 L1136 1024 L389 1024 L389 830 L1136 830 Z " />
<glyph glyph-name="hbar" unicode="&#x127;" horiz-adv-x="1204" d="M171 1234 L3 1234 L3 1384 L171 1384 L171 1536 L357 1536 L357 1384 L651 1384 L651 1234 L357 1234 L357 941 Q415 1016 498.5 1059 Q582 1102 685 1102 Q766 1102 831 1080.5 Q896 1059 942 1012 Q988 965 1012.5 890.5 Q1037 816 1037 709 L1037 0 L850 0 L850 711 Q850 839 792.5 893 Q735 947 628 947 Q532 947 463.5 897 Q395 847 357 768 L357 0 L171 0 L171 1234 Z " />
<glyph glyph-name="Itilde" unicode="&#x128;" horiz-adv-x="626" >
<path fill="black" d="M217 0 L217 1456 L411 1456 L411 0 L217 0 Z " />
<g transform="translate(-193,326)" >
<path fill="black" d="M150 1249 Q150 1303 166.5 1348.5 Q183 1394 212 1426.5 Q241 1459 280 1477 Q319 1495 365 1495 Q409 1495 442.5 1480 Q476 1465 506.5 1447 Q537 1429 568.5 1414 Q600 1399 640 1399 Q683 1399 712.5 1431.5 Q742 1464 742 1512 L866 1500 Q866 1445 849.5 1400.5 Q833 1356 803.5 1324.5 Q774 1293 734.5 1276 Q695 1259 650 1259 Q598 1259 564.5 1274 Q531 1289 503 1306.5 Q475 1324 446.5 1339 Q418 1354 376 1354 Q332 1354 303 1322.5 Q274 1291 274 1243 L150 1249 Z " />
</g>
</glyph>
<glyph glyph-name="itilde" unicode="&#x129;" horiz-adv-x="568" >
<path fill="black" d="M187 0 L187 1082 L373 1082 L373 0 L187 0 Z " />
<g transform="translate(-222,2)" >
<path fill="black" d="M150 1249 Q150 1303 166.5 1348.5 Q183 1394 212 1426.5 Q241 1459 280 1477 Q319 1495 365 1495 Q409 1495 442.5 1480 Q476 1465 506.5 1447 Q537 1429 568.5 1414 Q600 1399 640 1399 Q683 1399 712.5 1431.5 Q742 1464 742 1512 L866 1500 Q866 1445 849.5 1400.5 Q833 1356 803.5 1324.5 Q774 1293 734.5 1276 Q695 1259 650 1259 Q598 1259 564.5 1274 Q531 1289 503 1306.5 Q475 1324 446.5 1339 Q418 1354 376 1354 Q332 1354 303 1322.5 Q274 1291 274 1243 L150 1249 Z " />
</g>
</glyph>
<glyph glyph-name="Imacron" unicode="&#x12a;" horiz-adv-x="626" >
<path fill="black" d="M217 0 L217 1456 L411 1456 L411 0 L217 0 Z " />
<g transform="translate(-195,330)" >
<path fill="black" d="M176 1304 L176 1445 L848 1445 L848 1304 L176 1304 Z " />
</g>
</glyph>
<glyph glyph-name="imacron" unicode="&#x12b;" horiz-adv-x="568" >
<path fill="black" d="M187 0 L187 1082 L373 1082 L373 0 L187 0 Z " />
<g transform="translate(-224,6)" >
<path fill="black" d="M176 1304 L176 1445 L848 1445 L848 1304 L176 1304 Z " />
</g>
</glyph>
<glyph glyph-name="Iogonek" unicode="&#x12e;" horiz-adv-x="626" d="M397 -389 Q373 -404 335 -418.5 Q297 -433 238 -433 Q197 -433 161.5 -421 Q126 -409 100 -385 Q74 -361 59 -325.5 Q44 -290 44 -243 Q44 -176 85 -110 Q126 -44 217 13 L217 1456 L411 1456 L411 0 L375 0 Q341 -24 310 -49.5 Q279 -75 255 -102.5 Q231 -130 216.5 -160 Q202 -190 202 -222 Q202 -256 219.5 -276 Q237 -296 282 -296 Q315 -296 340 -286.5 Q365 -277 381 -269 L397 -389 Z " />
<glyph glyph-name="iogonek" unicode="&#x12f;" horiz-adv-x="560" d="M379 -389 Q355 -404 317 -418.5 Q279 -433 220 -433 Q179 -433 143.5 -421 Q108 -409 82 -385 Q56 -361 41 -325.5 Q26 -290 26 -243 Q26 -178 64.5 -114.5 Q103 -51 188 6 L188 1082 L374 1082 L374 0 L357 0 Q323 -24 292 -49.5 Q261 -75 237 -102.5 Q213 -130 198.5 -160 Q184 -190 184 -222 Q184 -256 201.5 -276 Q219 -296 264 -296 Q297 -296 322 -286.5 Q347 -277 363 -269 L379 -389 Z M171 1371 Q171 1416 200 1446.5 Q229 1477 283 1477 Q337 1477 366 1446.5 Q395 1416 395 1371 Q395 1326 366 1296 Q337 1266 283 1266 Q229 1266 200 1296 Q171 1326 171 1371 Z " />
<glyph glyph-name="Idot" unicode="&#x130;" horiz-adv-x="626" >
<path fill="black" d="M217 0 L217 1456 L411 1456 L411 0 L217 0 Z " />
<g transform="translate(28,322)" >
<path fill="black" d="M171 1369 Q171 1414 200 1444.5 Q229 1475 283 1475 Q337 1475 366 1444.5 Q395 1414 395 1369 Q395 1324 366 1294 Q337 1264 283 1264 Q229 1264 200 1294 Q171 1324 171 1369 Z " />
</g>
</glyph>
<glyph glyph-name="dotlessi" unicode="&#x131;" horiz-adv-x="568" d="M187 0 L187 1082 L373 1082 L373 0 L187 0 Z " />
<glyph glyph-name="uni0136" unicode="&#x136;" horiz-adv-x="1260" >
<path fill="black" d="M199 1456 L393 1456 L393 731 L558 917 L1052 1456 L1288 1456 L707 815 L1330 0 L1098 0 L575 676 L393 488 L393 0 L199 0 L199 1456 Z " />
<g transform="translate(385,-278)" >
<path fill="black" d="M-683 -476 Q-646 -419 -627.5 -359.5 Q-609 -300 -609 -230 L-609 -148 L-438 -148 L-438 -227 Q-438 -267 -447 -311 Q-456 -355 -474 -397.5 Q-492 -440 -518.5 -479.5 Q-545 -519 -580 -549 L-683 -476 Z " />
</g>
</glyph>
<glyph glyph-name="uni0137" unicode="&#x137;" horiz-adv-x="1043" >
<path fill="black" d="M173 1536 L359 1536 L359 597 L466 711 L808 1082 L1036 1082 L604 633 L1082 0 L863 0 L478 500 L359 374 L359 0 L173 0 L173 1536 Z " />
<g transform="translate(257,-299)" >
<path fill="black" d="M-683 -476 Q-646 -419 -627.5 -359.5 Q-609 -300 -609 -230 L-609 -148 L-438 -148 L-438 -227 Q-438 -267 -447 -311 Q-456 -355 -474 -397.5 Q-492 -440 -518.5 -479.5 Q-545 -519 -580 -549 L-683 -476 Z " />
</g>
</glyph>
<glyph glyph-name="Lacute" unicode="&#x139;" horiz-adv-x="1172" >
<path fill="black" d="M199 1456 L393 1456 L393 156 L1092 156 L1092 0 L199 0 L199 1456 Z " />
<g transform="translate(41,306)" >
<path fill="black" d="M357 1536 L581 1536 L307 1243 L152 1243 L357 1536 Z " />
</g>
</glyph>
<glyph glyph-name="lacute" unicode="&#x13a;" horiz-adv-x="686" >
<path fill="black" d="M185 1536 L372 1536 L372 268 Q372 226 382 200.5 Q392 175 409 161 Q426 147 448.5 142.5 Q471 138 496 138 Q521 138 546 142 Q571 146 586 150 L588 0 Q564 -7 527.5 -13.5 Q491 -20 443 -20 Q388 -20 341 -5.5 Q294 9 259.5 43 Q225 77 205 132.5 Q185 188 185 269 L185 1536 Z " />
<g transform="translate(26,407)" >
<path fill="black" d="M357 1536 L581 1536 L307 1243 L152 1243 L357 1536 Z " />
</g>
</glyph>
<glyph glyph-name="uni013B" unicode="&#x13b;" horiz-adv-x="1100" >
<path fill="black" d="M199 1456 L393 1456 L393 156 L1092 156 L1092 0 L199 0 L199 1456 Z " />
<g transform="translate(339,-356)" >
<path fill="black" d="M-683 -476 Q-646 -419 -627.5 -359.5 Q-609 -300 -609 -230 L-609 -148 L-438 -148 L-438 -227 Q-438 -267 -447 -311 Q-456 -355 -474 -397.5 Q-492 -440 -518.5 -479.5 Q-545 -519 -580 -549 L-683 -476 Z " />
</g>
</glyph>
<glyph glyph-name="uni013C" unicode="&#x13c;" horiz-adv-x="536" >
<path fill="black" d="M185 1536 L372 1536 L372 268 Q372 226 382 200.5 Q392 175 409 161 Q426 147 448.5 142.5 Q471 138 496 138 Q521 138 546 142 Q571 146 586 150 L588 0 Q564 -7 527.5 -13.5 Q491 -20 443 -20 Q388 -20 341 -5.5 Q294 9 259.5 43 Q225 77 205 132.5 Q185 188 185 269 L185 1536 Z " />
<g transform="translate(-2,-356)" >
<path fill="black" d="M-683 -476 Q-646 -419 -627.5 -359.5 Q-609 -300 -609 -230 L-609 -148 L-438 -148 L-438 -227 Q-438 -267 -447 -311 Q-456 -355 -474 -397.5 Q-492 -440 -518.5 -479.5 Q-545 -519 -580 -549 L-683 -476 Z " />
</g>
</glyph>
<glyph glyph-name="Lcaron" unicode="&#x13d;" horiz-adv-x="1100" >
<path fill="black" d="M199 1456 L393 1456 L393 156 L1092 156 L1092 0 L199 0 L199 1456 Z " />
<g transform="translate(456,1207)" >
<path fill="black" d="M-683 -476 Q-646 -419 -627.5 -359.5 Q-609 -300 -609 -230 L-609 -148 L-438 -148 L-438 -227 Q-438 -267 -447 -311 Q-456 -355 -474 -397.5 Q-492 -440 -518.5 -479.5 Q-545 -519 -580 -549 L-683 -476 Z " />
</g>
</glyph>
<glyph glyph-name="lcaron" unicode="&#x13e;" horiz-adv-x="677" >
<path fill="black" d="M185 1536 L372 1536 L372 268 Q372 226 382 200.5 Q392 175 409 161 Q426 147 448.5 142.5 Q471 138 496 138 Q521 138 546 142 Q571 146 586 150 L588 0 Q564 -7 527.5 -13.5 Q491 -20 443 -20 Q388 -20 341 -5.5 Q294 9 259.5 43 Q225 77 205 132.5 Q185 188 185 269 L185 1536 Z " />
<g transform="translate(340,1288)" >
<path fill="black" d="M-683 -476 Q-646 -419 -627.5 -359.5 Q-609 -300 -609 -230 L-609 -148 L-438 -148 L-438 -227 Q-438 -267 -447 -311 Q-456 -355 -474 -397.5 Q-492 -440 -518.5 -479.5 Q-545 -519 -580 -549 L-683 -476 Z " />
</g>
</glyph>
<glyph glyph-name="Lslash" unicode="&#x141;" horiz-adv-x="1099" d="M205 661 L61 616 L61 741 L205 786 L205 1456 L399 1456 L399 845 L666 928 L666 803 L399 720 L399 156 L1098 156 L1098 0 L205 0 L205 661 Z " />
<glyph glyph-name="lslash" unicode="&#x142;" horiz-adv-x="584" d="M215 678 L62 621 L62 743 L215 800 L215 1536 L402 1536 L402 869 L565 930 L565 808 L402 747 L402 268 Q402 226 412 200.5 Q422 175 439 161 Q456 147 478.5 142.5 Q501 138 526 138 Q551 138 576 142 Q601 146 616 150 L618 0 Q594 -7 557.5 -13.5 Q521 -20 473 -20 Q418 -20 371 -5.5 Q324 9 289.5 43 Q255 77 235 132.5 Q215 188 215 269 L215 678 Z " />
<glyph glyph-name="Nacute" unicode="&#x143;" horiz-adv-x="1536" >
<path fill="black" d="M199 1456 L402 1456 L1143 313 L1143 1456 L1335 1456 L1335 0 L1131 0 L393 1139 L393 0 L199 0 L199 1456 Z " />
<g transform="translate(510,311)" >
<path fill="black" d="M357 1536 L581 1536 L307 1243 L152 1243 L357 1536 Z " />
</g>
</glyph>
<glyph glyph-name="nacute" unicode="&#x144;" horiz-adv-x="1206" >
<path fill="black" d="M171 1082 L348 1082 L354 937 Q413 1015 497 1058.5 Q581 1102 687 1102 Q768 1102 832.5 1080.5 Q897 1059 942.5 1012 Q988 965 1012.5 890.5 Q1037 816 1037 709 L1037 0 L851 0 L851 711 Q851 839 793 893 Q735 947 628 947 Q534 947 465 897 Q396 847 358 768 L358 0 L171 0 L171 1082 Z " />
<g transform="translate(356,0)" >
<path fill="black" d="M357 1536 L581 1536 L307 1243 L152 1243 L357 1536 Z " />
</g>
</glyph>
<glyph glyph-name="uni0145" unicode="&#x145;" horiz-adv-x="1430" >
<path fill="black" d="M199 1456 L402 1456 L1143 313 L1143 1456 L1335 1456 L1335 0 L1131 0 L393 1139 L393 0 L199 0 L199 1456 Z " />
<g transform="translate(433,-356)" >
<path fill="black" d="M-683 -476 Q-646 -419 -627.5 -359.5 Q-609 -300 -609 -230 L-609 -148 L-438 -148 L-438 -227 Q-438 -267 -447 -311 Q-456 -355 -474 -397.5 Q-492 -440 -518.5 -479.5 Q-545 -519 -580 -549 L-683 -476 Z " />
</g>
</glyph>
<glyph glyph-name="uni0146" unicode="&#x146;" horiz-adv-x="1120" >
<path fill="black" d="M171 1082 L348 1082 L354 937 Q413 1015 497 1058.5 Q581 1102 687 1102 Q768 1102 832.5 1080.5 Q897 1059 942.5 1012 Q988 965 1012.5 890.5 Q1037 816 1037 709 L1037 0 L851 0 L851 711 Q851 839 793 893 Q735 947 628 947 Q534 947 465 897 Q396 847 358 768 L358 0 L171 0 L171 1082 Z " />
<g transform="translate(284,-356)" >
<path fill="black" d="M-683 -476 Q-646 -419 -627.5 -359.5 Q-609 -300 -609 -230 L-609 -148 L-438 -148 L-438 -227 Q-438 -267 -447 -311 Q-456 -355 -474 -397.5 Q-492 -440 -518.5 -479.5 Q-545 -519 -580 -549 L-683 -476 Z " />
</g>
</glyph>
<glyph glyph-name="Ncaron" unicode="&#x147;" horiz-adv-x="1536" >
<path fill="black" d="M199 1456 L402 1456 L1143 313 L1143 1456 L1335 1456 L1335 0 L1131 0 L393 1139 L393 0 L199 0 L199 1456 Z " />
<g transform="translate(281,311)" >
<path fill="black" d="M167 1525 L167 1535 L326 1535 L483 1365 L640 1535 L801 1535 L801 1525 L542 1251 L424 1251 L167 1525 Z " />
</g>
</glyph>
<glyph glyph-name="ncaron" unicode="&#x148;" horiz-adv-x="1206" d="M171 1082 L348 1082 L354 937 Q413 1015 497 1058.5 Q581 1102 687 1102 Q768 1102 832.5 1080.5 Q897 1059 942.5 1012 Q988 965 1012.5 890.5 Q1037 816 1037 709 L1037 0 L851 0 L851 711 Q851 839 793 893 Q735 947 628 947 Q534 947 465 897 Q396 847 358 768 L358 0 L171 0 L171 1082 Z M551 1251 L294 1525 L294 1535 L453 1535 L610 1365 L767 1535 L928 1535 L928 1525 L669 1251 L551 1251 Z " />
<glyph glyph-name="Eng" unicode="&#x14a;" horiz-adv-x="1504" d="M194 1456 L387 1456 L1123 322 L1123 1456 L1317 1456 L1317 -84 Q1317 -170 1294 -235.5 Q1271 -301 1228 -346 Q1185 -391 1122.5 -414 Q1060 -437 982 -437 Q949 -437 921.5 -433.5 Q894 -430 862 -420 L876 -267 Q885 -270 898 -272.5 Q911 -275 925 -277 Q939 -279 952.5 -280 Q966 -281 975 -281 Q1046 -281 1084.5 -229 Q1123 -177 1123 -84 L1123 0 L387 1135 L387 0 L194 0 L194 1456 Z " />
<glyph glyph-name="eng" unicode="&#x14b;" horiz-adv-x="1231" d="M613 -264 Q622 -267 636 -269.5 Q650 -272 665 -273.5 Q680 -275 694 -276 Q708 -277 717 -277 Q787 -277 826 -230 Q865 -183 865 -89 L865 678 Q865 754 849 805.5 Q833 857 802.5 888.5 Q772 920 727.5 933.5 Q683 947 627 947 Q527 947 462.5 908.5 Q398 870 361 804 L361 0 L175 0 L175 1082 L343 1082 L355 923 Q409 1008 492 1055 Q575 1102 684 1102 Q769 1102 837 1078 Q905 1054 952.5 1003 Q1000 952 1025.5 872.5 Q1051 793 1051 682 L1051 -89 Q1051 -173 1028.5 -238 Q1006 -303 963.5 -347.5 Q921 -392 859.5 -414.5 Q798 -437 721 -437 Q688 -437 659.5 -433.5 Q631 -430 599 -420 L613 -264 Z " />
<glyph glyph-name="Omacron" unicode="&#x14c;" horiz-adv-x="1483" >
<path fill="black" d="M149 804 Q149 964 192 1089 Q235 1214 313 1300 Q391 1386 499.5 1431 Q608 1476 740 1476 Q875 1476 984 1431 Q1093 1386 1170.5 1300 Q1248 1214 1290 1089 Q1332 964 1332 804 L1332 651 Q1332 491 1290.5 366 Q1249 241 1172 155.5 Q1095 70 986 25 Q877 -20 742 -20 Q610 -20 501 25 Q392 70 314 155.5 Q236 241 192.5 366 Q149 491 149 651 L149 804 Z M342 651 Q342 524 370 428.5 Q398 333 450 269.5 Q502 206 576 174 Q650 142 742 142 Q934 142 1037.5 269.5 Q1141 397 1141 651 L1141 806 Q1141 1059 1036 1186 Q931 1313 740 1313 Q648 1313 574.5 1281 Q501 1249 449 1185.5 Q397 1122 369.5 1027 Q342 932 342 806 L342 651 Z " />
<g transform="translate(234,321)" >
<path fill="black" d="M176 1304 L176 1445 L848 1445 L848 1304 L176 1304 Z " />
</g>
</glyph>
<glyph glyph-name="omacron" unicode="&#x14d;" horiz-adv-x="1238" >
<path fill="black" d="M120 567 Q120 687 155.5 786 Q191 885 256 955 Q321 1025 412.5 1063.5 Q504 1102 617 1102 Q731 1102 824 1063.5 Q917 1025 982 955 Q1047 885 1082.5 786 Q1118 687 1118 567 L1118 514 Q1118 394 1082.5 295.5 Q1047 197 982 127 Q917 57 825 18.5 Q733 -20 620 -20 Q506 -20 413.5 18.5 Q321 57 256 127 Q191 197 155.5 295.5 Q120 394 120 514 L120 567 Z M306 514 Q306 431 326 360.5 Q346 290 386 239 Q426 188 484.5 159.5 Q543 131 620 131 Q697 131 755 159.5 Q813 188 852 239 Q891 290 911 360.5 Q931 431 931 514 L931 567 Q931 650 911 720 Q891 790 851 841.5 Q811 893 752.5 922 Q694 951 617 951 Q541 951 483 922 Q425 893 385.5 841.5 Q346 790 326 720 Q306 650 306 567 L306 514 Z " />
<g transform="translate(104,8)" >
<path fill="black" d="M176 1304 L176 1445 L848 1445 L848 1304 L176 1304 Z " />
</g>
</glyph>
<glyph glyph-name="Ohungarumlaut" unicode="&#x150;" horiz-adv-x="1483" d="M149 804 Q149 964 192 1089 Q235 1214 313 1300 Q391 1386 499.5 1431 Q608 1476 740 1476 Q875 1476 984 1431 Q1093 1386 1170.5 1300 Q1248 1214 1290 1089 Q1332 964 1332 804 L1332 651 Q1332 491 1290.5 366 Q1249 241 1172 155.5 Q1095 70 986 25 Q877 -20 742 -20 Q610 -20 501 25 Q392 70 314 155.5 Q236 241 192.5 366 Q149 491 149 651 L149 804 Z M342 651 Q342 524 370 428.5 Q398 333 450 269.5 Q502 206 576 174 Q650 142 742 142 Q934 142 1037.5 269.5 Q1141 397 1141 651 L1141 806 Q1141 1059 1036 1186 Q931 1313 740 1313 Q648 1313 574.5 1281 Q501 1249 449 1185.5 Q397 1122 369.5 1027 Q342 932 342 806 L342 651 Z M1017 1848 L1219 1848 L945 1545 L779 1545 L1017 1848 Z M672 1848 L866 1848 L642 1545 L490 1545 L672 1848 Z " />
<glyph glyph-name="ohungarumlaut" unicode="&#x151;" horiz-adv-x="1238" d="M120 567 Q120 687 155.5 786 Q191 885 256 955 Q321 1025 412.5 1063.5 Q504 1102 617 1102 Q731 1102 824 1063.5 Q917 1025 982 955 Q1047 885 1082.5 786 Q1118 687 1118 567 L1118 514 Q1118 394 1082.5 295.5 Q1047 197 982 127 Q917 57 825 18.5 Q733 -20 620 -20 Q506 -20 413.5 18.5 Q321 57 256 127 Q191 197 155.5 295.5 Q120 394 120 514 L120 567 Z M306 514 Q306 431 326 360.5 Q346 290 386 239 Q426 188 484.5 159.5 Q543 131 620 131 Q697 131 755 159.5 Q813 188 852 239 Q891 290 911 360.5 Q931 431 931 514 L931 567 Q931 650 911 720 Q891 790 851 841.5 Q811 893 752.5 922 Q694 951 617 951 Q541 951 483 922 Q425 893 385.5 841.5 Q346 790 326 720 Q306 650 306 567 L306 514 Z M887 1535 L1089 1535 L815 1232 L649 1232 L887 1535 Z M542 1535 L736 1535 L512 1232 L360 1232 L542 1535 Z " />
<glyph glyph-name="OE" unicode="&#x152;" horiz-adv-x="1905" d="M135 880 Q135 1012 176 1122 Q217 1232 291.5 1311 Q366 1390 470 1433.5 Q574 1477 700 1477 Q779 1477 855.5 1470.5 Q932 1464 1002 1456 L1860 1456 L1860 1300 L1122 1300 L1122 830 L1765 830 L1765 674 L1122 674 L1122 156 L1868 156 L1868 0 L1002 0 Q932 -8 856.5 -14.5 Q781 -21 702 -21 Q576 -21 471.5 22.5 Q367 66 292 145 Q217 224 176 334 Q135 444 135 576 L135 880 Z M928 1311 Q822 1326 700 1326 Q613 1326 543 1297.5 Q473 1269 423.5 1213 Q374 1157 347.5 1074 Q321 991 321 882 L321 576 Q321 467 348 383.5 Q375 300 424.5 244 Q474 188 544.5 159 Q615 130 702 130 Q761 130 817.5 134 Q874 138 928 145 L928 1311 Z " />
<glyph glyph-name="oe" unicode="&#x153;" horiz-adv-x="1950" d="M125 552 Q125 670 159 770.5 Q193 871 256.5 944.5 Q320 1018 411 1060 Q502 1102 617 1102 Q756 1102 858 1044 Q960 986 1023 886 Q1089 988 1188 1045 Q1287 1102 1404 1102 Q1515 1102 1598.5 1066.5 Q1682 1031 1738.5 967 Q1795 903 1823 814.5 Q1851 726 1851 620 L1851 499 L1121 499 Q1124 422 1145.5 355 Q1167 288 1206.5 238 Q1246 188 1303 159 Q1360 130 1434 130 Q1490 130 1536.5 138.5 Q1583 147 1621.5 161.5 Q1660 176 1691.5 196 Q1723 216 1749 238 L1819 113 Q1793 89 1756.5 65 Q1720 41 1671.5 22 Q1623 3 1563 -9 Q1503 -21 1430 -21 Q1295 -21 1191 36 Q1087 93 1023 193 Q960 93 858 36 Q756 -21 619 -21 Q504 -21 412 21 Q320 63 256.5 136.5 Q193 210 159 310.5 Q125 411 125 529 L125 552 Z M312 529 Q312 448 330.5 376 Q349 304 387 249 Q425 194 482.5 162 Q540 130 619 130 Q697 130 754 162 Q811 194 849 249 Q887 304 905.5 376 Q924 448 924 529 L924 552 Q924 632 905.5 704.5 Q887 777 849 831.5 Q811 886 753 918.5 Q695 951 617 951 Q539 951 481.5 918.5 Q424 886 386.5 831.5 Q349 777 330.5 704.5 Q312 632 312 552 L312 529 Z M1666 649 L1666 675 Q1666 730 1650 780 Q1634 830 1601.5 868 Q1569 906 1519.5 928.5 Q1470 951 1404 951 Q1349 951 1302.5 928 Q1256 905 1220.5 864.5 Q1185 824 1161 769 Q1137 714 1127 649 L1666 649 Z " />
<glyph glyph-name="Racute" unicode="&#x154;" horiz-adv-x="1352" >
<path fill="black" d="M198 1456 L693 1456 Q816 1456 912 1427.5 Q1008 1399 1074.5 1344 Q1141 1289 1176 1207.5 Q1211 1126 1211 1019 Q1211 951 1191 890.5 Q1171 830 1134.5 780.5 Q1098 731 1045 692.5 Q992 654 926 629 L1274 12 L1274 0 L1067 0 L744 590 L393 590 L393 0 L198 0 L198 1456 Z M393 746 L703 746 Q781 746 840 767.5 Q899 789 938.5 826 Q978 863 997.5 912.5 Q1017 962 1017 1019 Q1017 1082 997.5 1134 Q978 1186 938 1223 Q898 1260 837 1280 Q776 1300 693 1300 L393 1300 L393 746 Z " />
<g transform="translate(390,311)" >
<path fill="black" d="M357 1536 L581 1536 L307 1243 L152 1243 L357 1536 Z " />
</g>
</glyph>
<glyph glyph-name="racute" unicode="&#x155;" horiz-adv-x="768" >
<path fill="black" d="M172 1082 L352 1082 L357 949 Q399 1020 465.5 1061 Q532 1102 626 1102 Q646 1102 672 1097.5 Q698 1093 709 1088 L708 912 Q685 916 663.5 917.5 Q642 919 616 919 Q516 919 452 878 Q388 837 358 765 L358 0 L172 0 L172 1082 Z " />
<g transform="translate(188,0)" >
<path fill="black" d="M357 1536 L581 1536 L307 1243 L152 1243 L357 1536 Z " />
</g>
</glyph>
<glyph glyph-name="uni0156" unicode="&#x156;" horiz-adv-x="1228" >
<path fill="black" d="M198 1456 L693 1456 Q816 1456 912 1427.5 Q1008 1399 1074.5 1344 Q1141 1289 1176 1207.5 Q1211 1126 1211 1019 Q1211 951 1191 890.5 Q1171 830 1134.5 780.5 Q1098 731 1045 692.5 Q992 654 926 629 L1274 12 L1274 0 L1067 0 L744 590 L393 590 L393 0 L198 0 L198 1456 Z M393 746 L703 746 Q781 746 840 767.5 Q899 789 938.5 826 Q978 863 997.5 912.5 Q1017 962 1017 1019 Q1017 1082 997.5 1134 Q978 1186 938 1223 Q898 1260 837 1280 Q776 1300 693 1300 L393 1300 L393 746 Z " />
<g transform="translate(332,-356)" >
<path fill="black" d="M-683 -476 Q-646 -419 -627.5 -359.5 Q-609 -300 -609 -230 L-609 -148 L-438 -148 L-438 -227 Q-438 -267 -447 -311 Q-456 -355 -474 -397.5 Q-492 -440 -518.5 -479.5 Q-545 -519 -580 -549 L-683 -476 Z " />
</g>
</glyph>
<glyph glyph-name="uni0157" unicode="&#x157;" horiz-adv-x="709" >
<path fill="black" d="M172 1082 L352 1082 L357 949 Q399 1020 465.5 1061 Q532 1102 626 1102 Q646 1102 672 1097.5 Q698 1093 709 1088 L708 912 Q685 916 663.5 917.5 Q642 919 616 919 Q516 919 452 878 Q388 837 358 765 L358 0 L172 0 L172 1082 Z " />
<g transform="translate(-3,-356)" >
<path fill="black" d="M-683 -476 Q-646 -419 -627.5 -359.5 Q-609 -300 -609 -230 L-609 -148 L-438 -148 L-438 -227 Q-438 -267 -447 -311 Q-456 -355 -474 -397.5 Q-492 -440 -518.5 -479.5 Q-545 -519 -580 -549 L-683 -476 Z " />
</g>
</glyph>
<glyph glyph-name="Rcaron" unicode="&#x158;" horiz-adv-x="1352" d="M198 1456 L693 1456 Q816 1456 912 1427.5 Q1008 1399 1074.5 1344 Q1141 1289 1176 1207.5 Q1211 1126 1211 1019 Q1211 951 1191 890.5 Q1171 830 1134.5 780.5 Q1098 731 1045 692.5 Q992 654 926 629 L1274 12 L1274 0 L1067 0 L744 590 L393 590 L393 0 L198 0 L198 1456 Z M393 746 L703 746 Q781 746 840 767.5 Q899 789 938.5 826 Q978 863 997.5 912.5 Q1017 962 1017 1019 Q1017 1082 997.5 1134 Q978 1186 938 1223 Q898 1260 837 1280 Q776 1300 693 1300 L393 1300 L393 746 Z M585 1562 L328 1836 L328 1846 L487 1846 L644 1676 L801 1846 L962 1846 L962 1836 L703 1562 L585 1562 Z " />
<glyph glyph-name="rcaron" unicode="&#x159;" horiz-adv-x="768" >
<path fill="black" d="M172 1082 L352 1082 L357 949 Q399 1020 465.5 1061 Q532 1102 626 1102 Q646 1102 672 1097.5 Q698 1093 709 1088 L708 912 Q685 916 663.5 917.5 Q642 919 616 919 Q516 919 452 878 Q388 837 358 765 L358 0 L172 0 L172 1082 Z " />
<g transform="translate(-41,0)" >
<path fill="black" d="M167 1525 L167 1535 L326 1535 L483 1365 L640 1535 L801 1535 L801 1525 L542 1251 L424 1251 L167 1525 Z " />
</g>
</glyph>
<glyph glyph-name="Sacute" unicode="&#x15a;" horiz-adv-x="1295" >
<path fill="black" d="M305 422 Q305 347 335.5 293 Q366 239 417 204 Q468 169 534.5 152.5 Q601 136 673 136 Q827 136 910 198.5 Q993 261 993 368 Q993 419 977 458.5 Q961 498 921 531 Q881 564 812.5 592.5 Q744 621 639 651 Q530 683 441 722 Q352 761 289 812.5 Q226 864 191.5 929.5 Q157 995 157 1080 Q157 1165 193.5 1237.5 Q230 1310 296.5 1363 Q363 1416 456.5 1446 Q550 1476 663 1476 Q786 1476 883 1439.5 Q980 1403 1046.5 1341.5 Q1113 1280 1148.5 1201 Q1184 1122 1184 1036 L991 1036 Q991 1098 970.5 1150 Q950 1202 908.5 1239.5 Q867 1277 805.5 1298.5 Q744 1320 662 1320 Q583 1320 525 1302 Q467 1284 428.5 1252 Q390 1220 371 1177 Q352 1134 352 1083 Q352 1037 371.5 999 Q391 961 433.5 929 Q476 897 542.5 870 Q609 843 702 818 Q825 783 916.5 740.5 Q1008 698 1068 644 Q1128 590 1158 522.5 Q1188 455 1188 370 Q1188 281 1151 209 Q1114 137 1046.5 86 Q979 35 884 7.5 Q789 -20 673 -20 Q570 -20 469.5 8.5 Q369 37 289.5 92.5 Q210 148 160.5 230.5 Q111 313 111 422 L305 422 Z " />
<g transform="translate(409,313)" >
<path fill="black" d="M357 1536 L581 1536 L307 1243 L152 1243 L357 1536 Z " />
</g>
</glyph>
<glyph glyph-name="sacute" unicode="&#x15b;" horiz-adv-x="1125" >
<path fill="black" d="M307 329 Q310 272 335 233.5 Q360 195 397.5 172.5 Q435 150 481 140.5 Q527 131 572 131 Q688 131 748.5 173.5 Q809 216 809 283 Q809 313 798.5 339 Q788 365 759 388 Q730 411 679 432 Q628 453 547 473 Q456 497 384 525 Q312 553 262.5 590 Q213 627 186.5 675.5 Q160 724 160 790 Q160 854 188.5 911 Q217 968 269.5 1010.5 Q322 1053 397 1077.5 Q472 1102 565 1102 Q664 1102 742 1076 Q820 1050 874.5 1005 Q929 960 957.5 899 Q986 838 986 768 L800 768 Q800 802 784.5 834.5 Q769 867 739 893 Q709 919 665.5 935 Q622 951 565 951 Q507 951 465 937.5 Q423 924 396.5 902.5 Q370 881 357.5 853 Q345 825 345 795 Q345 765 355.5 742.5 Q366 720 395 700.5 Q424 681 474.5 663 Q525 645 605 624 Q704 598 777.5 568 Q851 538 899 499.5 Q947 461 971 411.5 Q995 362 995 297 Q995 226 965 167.5 Q935 109 879.5 67.5 Q824 26 745.5 3 Q667 -20 571 -20 Q462 -20 378.5 9.5 Q295 39 238 88 Q181 137 152 199.5 Q123 262 123 329 L307 329 Z " />
<g transform="translate(335,0)" >
<path fill="black" d="M357 1536 L581 1536 L307 1243 L152 1243 L357 1536 Z " />
</g>
</glyph>
<glyph glyph-name="Scedilla" unicode="&#x15e;" horiz-adv-x="1295" d="M570 -330 Q604 -330 634.5 -324.5 Q665 -319 688.5 -307 Q712 -295 725.5 -276.5 Q739 -258 739 -231 Q739 -181 700 -162 Q661 -143 575 -136 L602 -17 Q508 -8 419.5 24.5 Q331 57 262.5 112 Q194 167 152.5 245 Q111 323 111 422 L305 422 Q305 347 335.5 293 Q366 239 417 204 Q468 169 534.5 152.5 Q601 136 673 136 Q827 136 910 198.5 Q993 261 993 368 Q993 419 977 458.5 Q961 498 921 531 Q881 564 812.5 592.5 Q744 621 639 651 Q530 683 441 722 Q352 761 289 812.5 Q226 864 191.5 929.5 Q157 995 157 1080 Q157 1165 193.5 1237.5 Q230 1310 296.5 1363 Q363 1416 456.5 1446 Q550 1476 663 1476 Q786 1476 883 1439.5 Q980 1403 1046.5 1341.5 Q1113 1280 1148.5 1201 Q1184 1122 1184 1036 L991 1036 Q991 1098 970.5 1150 Q950 1202 908.5 1239.5 Q867 1277 805.5 1298.5 Q744 1320 662 1320 Q583 1320 525 1302 Q467 1284 428.5 1252 Q390 1220 371 1177 Q352 1134 352 1083 Q352 1037 371.5 999 Q391 961 433.5 929 Q476 897 542.5 870 Q609 843 702 818 Q825 783 916.5 740.5 Q1008 698 1068 644 Q1128 590 1158 522.5 Q1188 455 1188 370 Q1188 288 1156 220 Q1124 152 1065.5 101.5 Q1007 51 924 20.5 Q841 -10 739 -18 L731 -54 Q760 -59 788.5 -70.5 Q817 -82 839 -102.5 Q861 -123 874.5 -153.5 Q888 -184 888 -227 Q888 -321 808.5 -378.5 Q729 -436 577 -436 L570 -330 Z " />
<glyph glyph-name="scedilla" unicode="&#x15f;" horiz-adv-x="1125" d="M491 -339 Q525 -339 555.5 -333.5 Q586 -328 609.5 -316 Q633 -304 646.5 -285.5 Q660 -267 660 -240 Q660 -190 621 -171 Q582 -152 496 -145 L525 -19 Q427 -13 352 18.5 Q277 50 226 98 Q175 146 149 206 Q123 266 123 329 L307 329 Q310 272 335 233.5 Q360 195 397.5 172.5 Q435 150 481 140.5 Q527 131 572 131 Q688 131 748.5 173.5 Q809 216 809 283 Q809 313 798.5 339 Q788 365 759 388 Q730 411 679 432 Q628 453 547 473 Q456 497 384 525 Q312 553 262.5 590 Q213 627 186.5 675.5 Q160 724 160 790 Q160 854 188.5 911 Q217 968 269.5 1010.5 Q322 1053 397 1077.5 Q472 1102 565 1102 Q664 1102 742 1076 Q820 1050 874.5 1005 Q929 960 957.5 899 Q986 838 986 768 L800 768 Q800 802 784.5 834.5 Q769 867 739 893 Q709 919 665.5 935 Q622 951 565 951 Q507 951 465 937.5 Q423 924 396.5 902.5 Q370 881 357.5 853 Q345 825 345 795 Q345 765 355.5 742.5 Q366 720 395 700.5 Q424 681 474.5 663 Q525 645 605 624 Q704 598 777.5 568 Q851 538 899 499.5 Q947 461 971 411.5 Q995 362 995 297 Q995 235 972 182.5 Q949 130 905.5 89.5 Q862 49 801 22.5 Q740 -4 663 -14 L652 -63 Q681 -68 709.5 -79.5 Q738 -91 760 -111.5 Q782 -132 795.5 -162.5 Q809 -193 809 -236 Q809 -330 729.5 -387.5 Q650 -445 498 -445 L491 -339 Z " />
<glyph glyph-name="Scaron" unicode="&#x160;" horiz-adv-x="1295" >
<path fill="black" d="M305 422 Q305 347 335.5 293 Q366 239 417 204 Q468 169 534.5 152.5 Q601 136 673 136 Q827 136 910 198.5 Q993 261 993 368 Q993 419 977 458.5 Q961 498 921 531 Q881 564 812.5 592.5 Q744 621 639 651 Q530 683 441 722 Q352 761 289 812.5 Q226 864 191.5 929.5 Q157 995 157 1080 Q157 1165 193.5 1237.5 Q230 1310 296.5 1363 Q363 1416 456.5 1446 Q550 1476 663 1476 Q786 1476 883 1439.5 Q980 1403 1046.5 1341.5 Q1113 1280 1148.5 1201 Q1184 1122 1184 1036 L991 1036 Q991 1098 970.5 1150 Q950 1202 908.5 1239.5 Q867 1277 805.5 1298.5 Q744 1320 662 1320 Q583 1320 525 1302 Q467 1284 428.5 1252 Q390 1220 371 1177 Q352 1134 352 1083 Q352 1037 371.5 999 Q391 961 433.5 929 Q476 897 542.5 870 Q609 843 702 818 Q825 783 916.5 740.5 Q1008 698 1068 644 Q1128 590 1158 522.5 Q1188 455 1188 370 Q1188 281 1151 209 Q1114 137 1046.5 86 Q979 35 884 7.5 Q789 -20 673 -20 Q570 -20 469.5 8.5 Q369 37 289.5 92.5 Q210 148 160.5 230.5 Q111 313 111 422 L305 422 Z " />
<g transform="translate(180,313)" >
<path fill="black" d="M167 1525 L167 1535 L326 1535 L483 1365 L640 1535 L801 1535 L801 1525 L542 1251 L424 1251 L167 1525 Z " />
</g>
</glyph>
<glyph glyph-name="scaron" unicode="&#x161;" horiz-adv-x="1125" >
<path fill="black" d="M307 329 Q310 272 335 233.5 Q360 195 397.5 172.5 Q435 150 481 140.5 Q527 131 572 131 Q688 131 748.5 173.5 Q809 216 809 283 Q809 313 798.5 339 Q788 365 759 388 Q730 411 679 432 Q628 453 547 473 Q456 497 384 525 Q312 553 262.5 590 Q213 627 186.5 675.5 Q160 724 160 790 Q160 854 188.5 911 Q217 968 269.5 1010.5 Q322 1053 397 1077.5 Q472 1102 565 1102 Q664 1102 742 1076 Q820 1050 874.5 1005 Q929 960 957.5 899 Q986 838 986 768 L800 768 Q800 802 784.5 834.5 Q769 867 739 893 Q709 919 665.5 935 Q622 951 565 951 Q507 951 465 937.5 Q423 924 396.5 902.5 Q370 881 357.5 853 Q345 825 345 795 Q345 765 355.5 742.5 Q366 720 395 700.5 Q424 681 474.5 663 Q525 645 605 624 Q704 598 777.5 568 Q851 538 899 499.5 Q947 461 971 411.5 Q995 362 995 297 Q995 226 965 167.5 Q935 109 879.5 67.5 Q824 26 745.5 3 Q667 -20 571 -20 Q462 -20 378.5 9.5 Q295 39 238 88 Q181 137 152 199.5 Q123 262 123 329 L307 329 Z " />
<g transform="translate(106,0)" >
<path fill="black" d="M167 1525 L167 1535 L326 1535 L483 1365 L640 1535 L801 1535 L801 1525 L542 1251 L424 1251 L167 1525 Z " />
</g>
</glyph>
<glyph glyph-name="uni0162" unicode="&#x162;" horiz-adv-x="1304" d="M554 -329 Q588 -329 618.5 -323.5 Q649 -318 672.5 -306 Q696 -294 709.5 -275.5 Q723 -257 723 -230 Q723 -180 684 -161 Q645 -142 559 -135 L590 0 L556 0 L556 1300 L79 1300 L79 1456 L1227 1456 L1227 1300 L748 1300 L748 0 L727 0 L715 -53 Q744 -58 772.5 -69.5 Q801 -81 823 -101.5 Q845 -122 858.5 -152.5 Q872 -183 872 -226 Q872 -320 792.5 -377.5 Q713 -435 561 -435 L554 -329 Z " />
<glyph glyph-name="uni0163" unicode="&#x163;" horiz-adv-x="738" d="M383 -329 Q417 -329 447.5 -323.5 Q478 -318 501.5 -306 Q525 -294 538.5 -275.5 Q552 -257 552 -230 Q552 -180 513 -161 Q474 -142 388 -135 L416 -12 Q377 -3 344 17.5 Q311 38 287 72 Q263 106 250 154.5 Q237 203 237 269 L237 941 L42 941 L42 1082 L237 1082 L237 1345 L424 1345 L424 1082 L632 1082 L632 941 L424 941 L424 268 Q424 226 434 200.5 Q444 175 461 161 Q478 147 500.5 142.5 Q523 138 548 138 Q573 138 598.5 142 Q624 146 638 150 L641 0 Q624 -5 602 -9.5 Q580 -14 552 -17 L544 -53 Q573 -58 601.5 -69.5 Q630 -81 652 -101.5 Q674 -122 687.5 -152.5 Q701 -183 701 -226 Q701 -320 621.5 -377.5 Q542 -435 390 -435 L383 -329 Z " />
<glyph glyph-name="Tcaron" unicode="&#x164;" horiz-adv-x="1304" d="M556 1300 L79 1300 L79 1456 L1227 1456 L1227 1300 L748 1300 L748 0 L556 0 L556 1300 Z M591 1561 L334 1835 L334 1845 L493 1845 L650 1675 L807 1845 L968 1845 L968 1835 L709 1561 L591 1561 Z " />
<glyph glyph-name="tcaron" unicode="&#x165;" horiz-adv-x="726" >
<path fill="black" d="M237 941 L42 941 L42 1082 L237 1082 L237 1345 L424 1345 L424 1082 L632 1082 L632 941 L424 941 L424 268 Q424 226 434 200.5 Q444 175 461 161 Q478 147 500.5 142.5 Q523 138 548 138 Q573 138 598.5 142 Q624 146 638 150 L641 0 Q617 -7 580 -13.5 Q543 -20 495 -20 Q441 -20 393.5 -5.5 Q346 9 311.5 43 Q277 77 257 132.5 Q237 188 237 269 L237 941 Z " />
<g transform="translate(399,1416)" >
<path fill="black" d="M-683 -476 Q-646 -419 -627.5 -359.5 Q-609 -300 -609 -230 L-609 -148 L-438 -148 L-438 -227 Q-438 -267 -447 -311 Q-456 -355 -474 -397.5 Q-492 -440 -518.5 -479.5 Q-545 -519 -580 -549 L-683 -476 Z " />
</g>
</glyph>
<glyph glyph-name="Tbar" unicode="&#x166;" horiz-adv-x="1304" d="M556 823 L329 823 L329 973 L556 973 L556 1300 L79 1300 L79 1456 L1227 1456 L1227 1300 L748 1300 L748 973 L977 973 L977 823 L748 823 L748 0 L556 0 L556 823 Z " />
<glyph glyph-name="tbar" unicode="&#x167;" horiz-adv-x="738" d="M237 603 L20 603 L20 753 L237 753 L237 941 L42 941 L42 1082 L237 1082 L237 1345 L424 1345 L424 1082 L632 1082 L632 941 L424 941 L424 753 L668 753 L668 603 L424 603 L424 268 Q424 226 434 200.5 Q444 175 461 161 Q478 147 500.5 142.5 Q523 138 548 138 Q573 138 598.5 142 Q624 146 638 150 L641 0 Q617 -7 580 -13.5 Q543 -20 495 -20 Q441 -20 393.5 -5.5 Q346 9 311.5 43 Q277 77 257 132.5 Q237 188 237 269 L237 603 Z " />
<glyph glyph-name="Utilde" unicode="&#x168;" horiz-adv-x="1412" >
<path fill="black" d="M173 1456 L365 1456 L365 456 Q365 371 390 310 Q415 249 460 210.5 Q505 172 568.5 154 Q632 136 708 136 Q785 136 848 154 Q911 172 956 210.5 Q1001 249 1025.5 310 Q1050 371 1050 456 L1050 1456 L1244 1456 L1244 456 Q1244 333 1201 243.5 Q1158 154 1084.5 95.5 Q1011 37 914 8.5 Q817 -20 708 -20 Q594 -20 496 8.5 Q398 37 326.5 95.5 Q255 154 214 243.5 Q173 333 173 456 L173 1456 Z " />
<g transform="translate(203,315)" >
<path fill="black" d="M150 1249 Q150 1303 166.5 1348.5 Q183 1394 212 1426.5 Q241 1459 280 1477 Q319 1495 365 1495 Q409 1495 442.5 1480 Q476 1465 506.5 1447 Q537 1429 568.5 1414 Q600 1399 640 1399 Q683 1399 712.5 1431.5 Q742 1464 742 1512 L866 1500 Q866 1445 849.5 1400.5 Q833 1356 803.5 1324.5 Q774 1293 734.5 1276 Q695 1259 650 1259 Q598 1259 564.5 1274 Q531 1289 503 1306.5 Q475 1324 446.5 1339 Q418 1354 376 1354 Q332 1354 303 1322.5 Q274 1291 274 1243 L150 1249 Z " />
</g>
</glyph>
<glyph glyph-name="utilde" unicode="&#x169;" horiz-adv-x="1205" >
<path fill="black" d="M167 1082 L353 1082 L353 382 Q353 309 370 261 Q387 213 416 185.5 Q445 158 482.5 147 Q520 136 561 136 Q678 136 747 181 Q816 226 847 299 L847 1082 L1035 1082 L1035 0 L857 0 L852 115 Q801 51 721 15.5 Q641 -20 528 -20 Q447 -20 380.5 2.5 Q314 25 266.5 74 Q219 123 193 199.5 Q167 276 167 384 L167 1082 Z " />
<g transform="translate(101,4)" >
<path fill="black" d="M150 1249 Q150 1303 166.5 1348.5 Q183 1394 212 1426.5 Q241 1459 280 1477 Q319 1495 365 1495 Q409 1495 442.5 1480 Q476 1465 506.5 1447 Q537 1429 568.5 1414 Q600 1399 640 1399 Q683 1399 712.5 1431.5 Q742 1464 742 1512 L866 1500 Q866 1445 849.5 1400.5 Q833 1356 803.5 1324.5 Q774 1293 734.5 1276 Q695 1259 650 1259 Q598 1259 564.5 1274 Q531 1289 503 1306.5 Q475 1324 446.5 1339 Q418 1354 376 1354 Q332 1354 303 1322.5 Q274 1291 274 1243 L150 1249 Z " />
</g>
</glyph>
<glyph glyph-name="Umacron" unicode="&#x16a;" horiz-adv-x="1412" >
<path fill="black" d="M173 1456 L365 1456 L365 456 Q365 371 390 310 Q415 249 460 210.5 Q505 172 568.5 154 Q632 136 708 136 Q785 136 848 154 Q911 172 956 210.5 Q1001 249 1025.5 310 Q1050 371 1050 456 L1050 1456 L1244 1456 L1244 456 Q1244 333 1201 243.5 Q1158 154 1084.5 95.5 Q1011 37 914 8.5 Q817 -20 708 -20 Q594 -20 496 8.5 Q398 37 326.5 95.5 Q255 154 214 243.5 Q173 333 173 456 L173 1456 Z " />
<g transform="translate(201,319)" >
<path fill="black" d="M176 1304 L176 1445 L848 1445 L848 1304 L176 1304 Z " />
</g>
</glyph>
<glyph glyph-name="umacron" unicode="&#x16b;" horiz-adv-x="1205" d="M167 1082 L353 1082 L353 382 Q353 309 370 261 Q387 213 416 185.5 Q445 158 482.5 147 Q520 136 561 136 Q678 136 747 181 Q816 226 847 299 L847 1082 L1035 1082 L1035 0 L857 0 L852 115 Q801 51 721 15.5 Q641 -20 528 -20 Q447 -20 380.5 2.5 Q314 25 266.5 74 Q219 123 193 199.5 Q167 276 167 384 L167 1082 Z M275 1453 L947 1453 L947 1312 L275 1312 L275 1453 Z " />
<glyph glyph-name="Uring" unicode="&#x16e;" horiz-adv-x="1412" >
<path fill="black" d="M173 1456 L365 1456 L365 456 Q365 371 390 310 Q415 249 460 210.5 Q505 172 568.5 154 Q632 136 708 136 Q785 136 848 154 Q911 172 956 210.5 Q1001 249 1025.5 310 Q1050 371 1050 456 L1050 1456 L1244 1456 L1244 456 Q1244 333 1201 243.5 Q1158 154 1084.5 95.5 Q1011 37 914 8.5 Q817 -20 708 -20 Q594 -20 496 8.5 Q398 37 326.5 95.5 Q255 154 214 243.5 Q173 333 173 456 L173 1456 Z " />
<g transform="translate(337,321)" >
<path fill="black" d="M152 1409 Q152 1452 169 1490 Q186 1528 215.5 1556 Q245 1584 285.5 1600 Q326 1616 373 1616 Q420 1616 460.5 1600 Q501 1584 530.5 1556 Q560 1528 577 1490 Q594 1452 594 1409 Q594 1365 577 1327.5 Q560 1290 530.5 1263 Q501 1236 460.5 1220.5 Q420 1205 373 1205 Q326 1205 285.5 1220.5 Q245 1236 215.5 1263 Q186 1290 169 1327.5 Q152 1365 152 1409 Z M252 1409 Q252 1387 261 1366 Q270 1345 285.5 1328.5 Q301 1312 323.5 1302.5 Q346 1293 373 1293 Q400 1293 422.5 1302.5 Q445 1312 460.5 1328 Q476 1344 485 1365 Q494 1386 494 1409 Q494 1432 485 1453.5 Q476 1475 460.5 1491.5 Q445 1508 422.5 1517.5 Q400 1527 373 1527 Q346 1527 323.5 1517.5 Q301 1508 285.5 1491.5 Q270 1475 261 1453.5 Q252 1432 252 1409 Z " />
</g>
</glyph>
<glyph glyph-name="uring" unicode="&#x16f;" horiz-adv-x="1205" >
<path fill="black" d="M167 1082 L353 1082 L353 382 Q353 309 370 261 Q387 213 416 185.5 Q445 158 482.5 147 Q520 136 561 136 Q678 136 747 181 Q816 226 847 299 L847 1082 L1035 1082 L1035 0 L857 0 L852 115 Q801 51 721 15.5 Q641 -20 528 -20 Q447 -20 380.5 2.5 Q314 25 266.5 74 Q219 123 193 199.5 Q167 276 167 384 L167 1082 Z " />
<g transform="translate(235,10)" >
<path fill="black" d="M152 1409 Q152 1452 169 1490 Q186 1528 215.5 1556 Q245 1584 285.5 1600 Q326 1616 373 1616 Q420 1616 460.5 1600 Q501 1584 530.5 1556 Q560 1528 577 1490 Q594 1452 594 1409 Q594 1365 577 1327.5 Q560 1290 530.5 1263 Q501 1236 460.5 1220.5 Q420 1205 373 1205 Q326 1205 285.5 1220.5 Q245 1236 215.5 1263 Q186 1290 169 1327.5 Q152 1365 152 1409 Z M252 1409 Q252 1387 261 1366 Q270 1345 285.5 1328.5 Q301 1312 323.5 1302.5 Q346 1293 373 1293 Q400 1293 422.5 1302.5 Q445 1312 460.5 1328 Q476 1344 485 1365 Q494 1386 494 1409 Q494 1432 485 1453.5 Q476 1475 460.5 1491.5 Q445 1508 422.5 1517.5 Q400 1527 373 1527 Q346 1527 323.5 1517.5 Q301 1508 285.5 1491.5 Q270 1475 261 1453.5 Q252 1432 252 1409 Z " />
</g>
</glyph>
<glyph glyph-name="Uhungarumlaut" unicode="&#x170;" horiz-adv-x="1412" d="M173 1456 L365 1456 L365 456 Q365 371 390 310 Q415 249 460 210.5 Q505 172 568.5 154 Q632 136 708 136 Q785 136 848 154 Q911 172 956 210.5 Q1001 249 1025.5 310 Q1050 371 1050 456 L1050 1456 L1244 1456 L1244 456 Q1244 333 1201 243.5 Q1158 154 1084.5 95.5 Q1011 37 914 8.5 Q817 -20 708 -20 Q594 -20 496 8.5 Q398 37 326.5 95.5 Q255 154 214 243.5 Q173 333 173 456 L173 1456 Z M984 1846 L1186 1846 L912 1543 L746 1543 L984 1846 Z M639 1846 L833 1846 L609 1543 L457 1543 L639 1846 Z " />
<glyph glyph-name="uhungarumlaut" unicode="&#x171;" horiz-adv-x="1205" d="M167 1082 L353 1082 L353 382 Q353 309 370 261 Q387 213 416 185.5 Q445 158 482.5 147 Q520 136 561 136 Q678 136 747 181 Q816 226 847 299 L847 1082 L1035 1082 L1035 0 L857 0 L852 115 Q801 51 721 15.5 Q641 -20 528 -20 Q447 -20 380.5 2.5 Q314 25 266.5 74 Q219 123 193 199.5 Q167 276 167 384 L167 1082 Z M644 1232 L882 1535 L1084 1535 L810 1232 L644 1232 Z M537 1535 L731 1535 L507 1232 L355 1232 L537 1535 Z " />
<glyph glyph-name="Uogonek" unicode="&#x172;" horiz-adv-x="1412" d="M1013 -345 Q989 -360 951 -374.5 Q913 -389 854 -389 Q813 -389 777.5 -377 Q742 -365 716 -341 Q690 -317 675 -281.5 Q660 -246 660 -199 Q660 -153 679 -108 Q698 -63 739 -19 Q731 -20 723.5 -20 Q716 -20 708 -20 Q594 -20 496 8.5 Q398 37 326.5 95.5 Q255 154 214 243.5 Q173 333 173 456 L173 1456 L365 1456 L365 456 Q365 371 390 310 Q415 249 460 210.5 Q505 172 568.5 154 Q632 136 708 136 Q785 136 848 154 Q911 172 956 210.5 Q1001 249 1025.5 310 Q1050 371 1050 456 L1050 1456 L1244 1456 L1244 456 Q1244 373 1224 305 Q1204 237 1167.5 183.5 Q1131 130 1080 91 Q1029 52 968 27 Q938 5 910.5 -19 Q883 -43 862.5 -68.5 Q842 -94 830 -121 Q818 -148 818 -178 Q818 -212 835.5 -232 Q853 -252 898 -252 Q931 -252 956 -242.5 Q981 -233 997 -225 L1013 -345 Z " />
<glyph glyph-name="uogonek" unicode="&#x173;" horiz-adv-x="1205" d="M167 1082 L353 1082 L353 382 Q353 309 370 261 Q387 213 416 185.5 Q445 158 482.5 147 Q520 136 561 136 Q678 136 747 181 Q816 226 847 299 L847 1082 L1035 1082 L1035 0 L1022 0 Q988 -24 957 -49.5 Q926 -75 902 -102.5 Q878 -130 863.5 -160 Q849 -190 849 -222 Q849 -256 866.5 -276 Q884 -296 929 -296 Q962 -296 987 -286.5 Q1012 -277 1028 -269 L1044 -389 Q1020 -404 982 -418.5 Q944 -433 885 -433 Q844 -433 808.5 -421 Q773 -409 747 -385 Q721 -361 706 -325.5 Q691 -290 691 -243 Q691 -177 730.5 -112.5 Q770 -48 857 9 L852 115 Q801 51 721 15.5 Q641 -20 528 -20 Q447 -20 380.5 2.5 Q314 25 266.5 74 Q219 123 193 199.5 Q167 276 167 384 L167 1082 Z " />
<glyph glyph-name="Wcircumflex" unicode="&#x174;" horiz-adv-x="1902" >
<path fill="black" d="M88 1456 L281 1456 L520 401 L545 241 L578 382 L873 1456 L1049 1456 L1339 382 L1372 237 L1399 402 L1634 1456 L1828 1456 L1473 0 L1286 0 L983 1084 L962 1189 L941 1084 L630 0 L443 0 L88 1456 Z " />
<g transform="translate(461,311)" >
<path fill="black" d="M194 1265 L447 1536 L560 1536 L815 1263 L815 1253 L660 1253 L503 1423 L347 1253 L194 1253 L194 1265 Z " />
</g>
</glyph>
<glyph glyph-name="wcircumflex" unicode="&#x175;" horiz-adv-x="1616" >
<path fill="black" d="M76 1082 L261 1082 L475 245 L732 1082 L880 1082 L1140 231 L1350 1082 L1536 1082 L1222 0 L1068 0 L803 847 L543 0 L389 0 L76 1082 Z " />
<g transform="translate(299,0)" >
<path fill="black" d="M194 1265 L447 1536 L560 1536 L815 1263 L815 1253 L660 1253 L503 1423 L347 1253 L194 1253 L194 1265 Z " />
</g>
</glyph>
<glyph glyph-name="Ycircumflex" unicode="&#x176;" horiz-adv-x="1309" >
<path fill="black" d="M556 544 L45 1456 L265 1456 L653 724 L1043 1456 L1262 1456 L750 544 L750 0 L556 0 L556 544 Z " />
<g transform="translate(154,310)" >
<path fill="black" d="M194 1265 L447 1536 L560 1536 L815 1263 L815 1253 L660 1253 L503 1423 L347 1253 L194 1253 L194 1265 Z " />
</g>
</glyph>
<glyph glyph-name="ycircumflex" unicode="&#x177;" horiz-adv-x="1049" >
<path fill="black" d="M120 -273 Q130 -275 147.5 -276 Q165 -277 173 -277 Q220 -277 255.5 -268 Q291 -259 318.5 -238 Q346 -217 367 -183.5 Q388 -150 407 -101 L449 7 L52 1082 L254 1082 L538 265 L798 1082 L997 1082 L551 -168 Q537 -208 513 -255 Q489 -302 451 -342.5 Q413 -383 358 -410 Q303 -437 227 -437 Q215 -437 200 -435 Q185 -433 170 -430.5 Q155 -428 142 -425.5 Q129 -423 120 -421 L120 -273 Z " />
<g transform="translate(44,0)" >
<path fill="black" d="M194 1265 L447 1536 L560 1536 L815 1263 L815 1253 L660 1253 L503 1423 L347 1253 L194 1253 L194 1265 Z " />
</g>
</glyph>
<glyph glyph-name="Ydieresis" unicode="&#x178;" horiz-adv-x="1309" >
<path fill="black" d="M556 544 L45 1456 L265 1456 L653 724 L1043 1456 L1262 1456 L750 544 L750 0 L556 0 L556 544 Z " />
<g transform="translate(137,314)" >
<path fill="black" d="M171 1369 Q171 1414 200 1444.5 Q229 1475 283 1475 Q337 1475 366 1444.5 Q395 1414 395 1369 Q395 1324 366 1294 Q337 1264 283 1264 Q229 1264 200 1294 Q171 1324 171 1369 Z " />
</g>
<g transform="translate(604,312)" >
<path fill="black" d="M171 1369 Q171 1414 200 1444.5 Q229 1475 283 1475 Q337 1475 366 1444.5 Q395 1414 395 1369 Q395 1324 366 1294 Q337 1264 283 1264 Q229 1264 200 1294 Q171 1324 171 1369 Z " />
</g>
</glyph>
<glyph glyph-name="Zacute" unicode="&#x179;" horiz-adv-x="1303" >
<path fill="black" d="M116 143 L930 1300 L131 1300 L131 1456 L1164 1456 L1164 1317 L349 156 L1194 156 L1194 0 L116 0 L116 143 Z " />
<g transform="translate(400,311)" >
<path fill="black" d="M357 1536 L581 1536 L307 1243 L152 1243 L357 1536 Z " />
</g>
</glyph>
<glyph glyph-name="zacute" unicode="&#x17a;" horiz-adv-x="1087" >
<path fill="black" d="M117 135 L730 930 L129 930 L129 1082 L959 1082 L959 952 L342 151 L990 151 L990 0 L117 0 L117 135 Z " />
<g transform="translate(296,0)" >
<path fill="black" d="M357 1536 L581 1536 L307 1243 L152 1243 L357 1536 Z " />
</g>
</glyph>
<glyph glyph-name="Zdotaccent" unicode="&#x17b;" horiz-adv-x="1303" >
<path fill="black" d="M116 143 L930 1300 L131 1300 L131 1456 L1164 1456 L1164 1317 L349 156 L1194 156 L1194 0 L116 0 L116 143 Z " />
<g transform="translate(370,311)" >
<path fill="black" d="M171 1369 Q171 1414 200 1444.5 Q229 1475 283 1475 Q337 1475 366 1444.5 Q395 1414 395 1369 Q395 1324 366 1294 Q337 1264 283 1264 Q229 1264 200 1294 Q171 1324 171 1369 Z " />
</g>
</glyph>
<glyph glyph-name="zdotaccent" unicode="&#x17c;" horiz-adv-x="1087" >
<path fill="black" d="M117 135 L730 930 L129 930 L129 1082 L959 1082 L959 952 L342 151 L990 151 L990 0 L117 0 L117 135 Z " />
<g transform="translate(266,0)" >
<path fill="black" d="M171 1369 Q171 1414 200 1444.5 Q229 1475 283 1475 Q337 1475 366 1444.5 Q395 1414 395 1369 Q395 1324 366 1294 Q337 1264 283 1264 Q229 1264 200 1294 Q171 1324 171 1369 Z " />
</g>
</glyph>
<glyph glyph-name="Zcaron" unicode="&#x17d;" horiz-adv-x="1303" d="M116 143 L930 1300 L131 1300 L131 1456 L1164 1456 L1164 1317 L349 156 L1194 156 L1194 0 L116 0 L116 143 Z M595 1562 L338 1836 L338 1846 L497 1846 L654 1676 L811 1846 L972 1846 L972 1836 L713 1562 L595 1562 Z " />
<glyph glyph-name="zcaron" unicode="&#x17e;" horiz-adv-x="1087" d="M117 135 L730 930 L129 930 L129 1082 L959 1082 L959 952 L342 151 L990 151 L990 0 L117 0 L117 135 Z M491 1251 L234 1525 L234 1535 L393 1535 L550 1365 L707 1535 L868 1535 L868 1525 L609 1251 L491 1251 Z " />
<glyph glyph-name="florin" unicode="&#x192;" horiz-adv-x="766" d="M7 -273 Q14 -276 27.5 -278.5 Q41 -281 55.5 -282.5 Q70 -284 83.5 -285 Q97 -286 105 -286 Q176 -286 213.5 -234.5 Q251 -183 251 -89 L251 941 L77 941 L77 1082 L251 1082 L251 1197 Q251 1284 274.5 1351.5 Q298 1419 342.5 1464.5 Q387 1510 450.5 1533.5 Q514 1557 595 1557 Q632 1557 668 1551 Q704 1545 741 1536 L720 1390 Q699 1395 674 1398 Q649 1401 618 1401 Q527 1401 482.5 1348.5 Q438 1296 438 1197 L438 1082 L653 1082 L653 941 L438 941 L438 -89 Q438 -258 351 -347.5 Q264 -437 109 -437 Q77 -437 49.5 -433.5 Q22 -430 -8 -420 L7 -273 Z " />
<glyph glyph-name="Ohorn" unicode="&#x1a0;" horiz-adv-x="1397" d="M158 804 Q158 964 201 1089 Q244 1214 322 1300 Q400 1386 508.5 1431 Q617 1476 749 1476 Q876 1476 979.5 1436.5 Q1083 1397 1159 1321 Q1213 1325 1249.5 1345.5 Q1286 1366 1308.5 1400.5 Q1331 1435 1340.5 1483 Q1350 1531 1350 1591 L1511 1591 Q1511 1430 1447.5 1329.5 Q1384 1229 1251 1198 Q1295 1120 1318 1021 Q1341 922 1341 804 L1341 651 Q1341 491 1299.5 366 Q1258 241 1181 155.5 Q1104 70 995 25 Q886 -20 751 -20 Q619 -20 510 25 Q401 70 323 155.5 Q245 241 201.5 366 Q158 491 158 651 L158 804 Z M351 651 Q351 524 379 428.5 Q407 333 459 269.5 Q511 206 585 174 Q659 142 751 142 Q943 142 1046.5 269.5 Q1150 397 1150 651 L1150 806 Q1150 1059 1045 1186 Q940 1313 749 1313 Q657 1313 583.5 1281 Q510 1249 458 1185.5 Q406 1122 378.5 1027 Q351 932 351 806 L351 651 Z " />
<glyph glyph-name="ohorn" unicode="&#x1a1;" horiz-adv-x="1164" d="M123 567 Q123 687 158.5 786 Q194 885 259 955 Q324 1025 415.5 1063.5 Q507 1102 620 1102 Q731 1102 820 1067 Q909 1032 974 966 Q1016 973 1042 992.5 Q1068 1012 1082.5 1042.5 Q1097 1073 1101.5 1113 Q1106 1153 1106 1201 L1251 1201 Q1251 1135 1240.5 1079.5 Q1230 1024 1206 981 Q1182 938 1144 907.5 Q1106 877 1052 862 Q1086 800 1103.5 726 Q1121 652 1121 567 L1121 514 Q1121 394 1085.5 295.5 Q1050 197 985 127 Q920 57 828 18.5 Q736 -20 623 -20 Q509 -20 416.5 18.5 Q324 57 259 127 Q194 197 158.5 295.5 Q123 394 123 514 L123 567 Z M309 514 Q309 431 329 360.5 Q349 290 389 239 Q429 188 487.5 159.5 Q546 131 623 131 Q700 131 758 159.5 Q816 188 855 239 Q894 290 914 360.5 Q934 431 934 514 L934 567 Q934 650 914 720 Q894 790 854 841.5 Q814 893 755.5 922 Q697 951 620 951 Q544 951 486 922 Q428 893 388.5 841.5 Q349 790 329 720 Q309 650 309 567 L309 514 Z " />
<glyph glyph-name="Uhorn" unicode="&#x1af;" horiz-adv-x="1404" d="M176 1456 L368 1456 L368 456 Q368 371 393 310 Q418 249 463 210.5 Q508 172 571.5 154 Q635 136 711 136 Q788 136 851 154 Q914 172 959 210.5 Q1004 249 1028.5 310 Q1053 371 1053 456 L1053 1456 L1247 1456 L1247 1243 Q1310 1249 1351 1271 Q1392 1293 1416 1330 Q1440 1367 1449.5 1419.5 Q1459 1472 1459 1538 L1613 1538 Q1613 1438 1593 1360.5 Q1573 1283 1529.5 1229 Q1486 1175 1416.5 1145 Q1347 1115 1247 1109 L1247 456 Q1247 333 1204 243.5 Q1161 154 1087.5 95.5 Q1014 37 917 8.5 Q820 -20 711 -20 Q597 -20 499 8.5 Q401 37 329.5 95.5 Q258 154 217 243.5 Q176 333 176 456 L176 1456 Z " />
<glyph glyph-name="uhorn" unicode="&#x1b0;" horiz-adv-x="1269" d="M170 1082 L356 1082 L356 382 Q356 309 373 261 Q390 213 419 185.5 Q448 158 485.5 147 Q523 136 564 136 Q681 136 750 181 Q819 226 850 299 L850 1082 L1038 1082 L1038 953 Q1094 956 1126 970.5 Q1158 985 1174 1011.5 Q1190 1038 1194 1077 Q1198 1116 1198 1169 L1337 1169 Q1337 1091 1323 1031 Q1309 971 1274.5 929.5 Q1240 888 1182.5 865.5 Q1125 843 1038 839 L1038 0 L860 0 L855 115 Q804 51 724 15.5 Q644 -20 531 -20 Q450 -20 383.5 2.5 Q317 25 269.5 74 Q222 123 196 199.5 Q170 276 170 384 L170 1082 Z " />
<glyph glyph-name="uni0218" unicode="&#x218;" horiz-adv-x="1198" >
<path fill="black" d="M305 422 Q305 347 335.5 293 Q366 239 417 204 Q468 169 534.5 152.5 Q601 136 673 136 Q827 136 910 198.5 Q993 261 993 368 Q993 419 977 458.5 Q961 498 921 531 Q881 564 812.5 592.5 Q744 621 639 651 Q530 683 441 722 Q352 761 289 812.5 Q226 864 191.5 929.5 Q157 995 157 1080 Q157 1165 193.5 1237.5 Q230 1310 296.5 1363 Q363 1416 456.5 1446 Q550 1476 663 1476 Q786 1476 883 1439.5 Q980 1403 1046.5 1341.5 Q1113 1280 1148.5 1201 Q1184 1122 1184 1036 L991 1036 Q991 1098 970.5 1150 Q950 1202 908.5 1239.5 Q867 1277 805.5 1298.5 Q744 1320 662 1320 Q583 1320 525 1302 Q467 1284 428.5 1252 Q390 1220 371 1177 Q352 1134 352 1083 Q352 1037 371.5 999 Q391 961 433.5 929 Q476 897 542.5 870 Q609 843 702 818 Q825 783 916.5 740.5 Q1008 698 1068 644 Q1128 590 1158 522.5 Q1188 455 1188 370 Q1188 281 1151 209 Q1114 137 1046.5 86 Q979 35 884 7.5 Q789 -20 673 -20 Q570 -20 469.5 8.5 Q369 37 289.5 92.5 Q210 148 160.5 230.5 Q111 313 111 422 L305 422 Z " />
<g transform="translate(348,-366)" >
<path fill="black" d="M-683 -476 Q-646 -419 -627.5 -359.5 Q-609 -300 -609 -230 L-609 -148 L-438 -148 L-438 -227 Q-438 -267 -447 -311 Q-456 -355 -474 -397.5 Q-492 -440 -518.5 -479.5 Q-545 -519 -580 -549 L-683 -476 Z " />
</g>
</glyph>
<glyph glyph-name="uni0219" unicode="&#x219;" horiz-adv-x="1055" >
<path fill="black" d="M307 329 Q310 272 335 233.5 Q360 195 397.5 172.5 Q435 150 481 140.5 Q527 131 572 131 Q688 131 748.5 173.5 Q809 216 809 283 Q809 313 798.5 339 Q788 365 759 388 Q730 411 679 432 Q628 453 547 473 Q456 497 384 525 Q312 553 262.5 590 Q213 627 186.5 675.5 Q160 724 160 790 Q160 854 188.5 911 Q217 968 269.5 1010.5 Q322 1053 397 1077.5 Q472 1102 565 1102 Q664 1102 742 1076 Q820 1050 874.5 1005 Q929 960 957.5 899 Q986 838 986 768 L800 768 Q800 802 784.5 834.5 Q769 867 739 893 Q709 919 665.5 935 Q622 951 565 951 Q507 951 465 937.5 Q423 924 396.5 902.5 Q370 881 357.5 853 Q345 825 345 795 Q345 765 355.5 742.5 Q366 720 395 700.5 Q424 681 474.5 663 Q525 645 605 624 Q704 598 777.5 568 Q851 538 899 499.5 Q947 461 971 411.5 Q995 362 995 297 Q995 226 965 167.5 Q935 109 879.5 67.5 Q824 26 745.5 3 Q667 -20 571 -20 Q462 -20 378.5 9.5 Q295 39 238 88 Q181 137 152 199.5 Q123 262 123 329 L307 329 Z " />
<g transform="translate(295,-376)" >
<path fill="black" d="M-683 -476 Q-646 -419 -627.5 -359.5 Q-609 -300 -609 -230 L-609 -148 L-438 -148 L-438 -227 Q-438 -267 -447 -311 Q-456 -355 -474 -397.5 Q-492 -440 -518.5 -479.5 Q-545 -519 -580 -549 L-683 -476 Z " />
</g>
</glyph>
<glyph glyph-name="uni021A" unicode="&#x21a;" horiz-adv-x="1204" >
<path fill="black" d="M556 1300 L79 1300 L79 1456 L1227 1456 L1227 1300 L748 1300 L748 0 L556 0 L556 1300 Z " />
<g transform="translate(335,-366)" >
<path fill="black" d="M-683 -476 Q-646 -419 -627.5 -359.5 Q-609 -300 -609 -230 L-609 -148 L-438 -148 L-438 -227 Q-438 -267 -447 -311 Q-456 -355 -474 -397.5 Q-492 -440 -518.5 -479.5 Q-545 -519 -580 -549 L-683 -476 Z " />
</g>
</glyph>
<glyph glyph-name="uni021B" unicode="&#x21b;" horiz-adv-x="688" >
<path fill="black" d="M237 941 L42 941 L42 1082 L237 1082 L237 1345 L424 1345 L424 1082 L632 1082 L632 941 L424 941 L424 268 Q424 226 434 200.5 Q444 175 461 161 Q478 147 500.5 142.5 Q523 138 548 138 Q573 138 598.5 142 Q624 146 638 150 L641 0 Q617 -7 580 -13.5 Q543 -20 495 -20 Q441 -20 393.5 -5.5 Q346 9 311.5 43 Q277 77 257 132.5 Q237 188 237 269 L237 941 Z " />
<g transform="translate(190,-366)" >
<path fill="black" d="M-683 -476 Q-646 -419 -627.5 -359.5 Q-609 -300 -609 -230 L-609 -148 L-438 -148 L-438 -227 Q-438 -267 -447 -311 Q-456 -355 -474 -397.5 Q-492 -440 -518.5 -479.5 Q-545 -519 -580 -549 L-683 -476 Z " />
</g>
</glyph>
<glyph glyph-name="uni0298" unicode="&#x298;" horiz-adv-x="1387" d="M152 804 Q152 964 195 1089 Q238 1214 316 1300 Q394 1386 502.5 1431 Q611 1476 743 1476 Q878 1476 987 1431 Q1096 1386 1173.5 1300 Q1251 1214 1293 1089 Q1335 964 1335 804 L1335 651 Q1335 491 1293.5 366 Q1252 241 1175 155.5 Q1098 70 989 25 Q880 -20 745 -20 Q613 -20 504 25 Q395 70 317 155.5 Q239 241 195.5 366 Q152 491 152 651 L152 804 Z M345 651 Q345 524 373 428.5 Q401 333 453 269.5 Q505 206 579 174 Q653 142 745 142 Q937 142 1040.5 269.5 Q1144 397 1144 651 L1144 806 Q1144 1059 1039 1186 Q934 1313 743 1313 Q651 1313 577.5 1281 Q504 1249 452 1185.5 Q400 1122 372.5 1027 Q345 932 345 806 L345 651 Z M626 732 Q626 779 656 811 Q686 843 742 843 Q798 843 828 811 Q858 779 858 732 Q858 686 828 654.5 Q798 623 742 623 Q686 623 656 654.5 Q626 686 626 732 Z " />
<glyph glyph-name="uni02AA" unicode="&#x2aa;" horiz-adv-x="1346" d="M188 1536 L375 1536 L375 297 Q444 245 512 212.5 Q580 180 643.5 162 Q707 144 763 137.5 Q819 131 862 131 Q980 131 1041 175.5 Q1102 220 1102 287 Q1102 322 1090 349.5 Q1078 377 1049 399.5 Q1020 422 970 440.5 Q920 459 844 475 Q752 495 679 521.5 Q606 548 555.5 584.5 Q505 621 478 670.5 Q451 720 451 786 Q451 850 479.5 907.5 Q508 965 561 1008 Q614 1051 689 1076.5 Q764 1102 857 1102 Q956 1102 1034 1075.5 Q1112 1049 1166.5 1003.5 Q1221 958 1249.5 896.5 Q1278 835 1278 765 L1091 765 Q1091 798 1076 831.5 Q1061 865 1031 891.5 Q1001 918 957.5 934.5 Q914 951 857 951 Q799 951 757 937.5 Q715 924 688 901.5 Q661 879 648.5 850.5 Q636 822 636 792 Q636 760 649 735 Q662 710 691.5 690.5 Q721 671 769 655 Q817 639 887 625 Q986 604 1060.5 576 Q1135 548 1185.5 509 Q1236 470 1261.5 418.5 Q1287 367 1287 300 Q1287 229 1256.5 170 Q1226 111 1170.5 69 Q1115 27 1036.5 3.5 Q958 -20 862 -20 Q796 -20 728 -12 Q660 -4 591 14 L591 0 Q567 -7 530.5 -13.5 Q494 -20 446 -20 Q391 -20 344 -5.5 Q297 9 262.5 43 Q228 77 208 132.5 Q188 188 188 269 L188 1536 Z " />
<glyph glyph-name="uni02AD" unicode="&#x2ad;" horiz-adv-x="1044" d="M120 581 L925 581 L925 0 L782 0 L782 464 L262 464 L262 0 L120 0 L120 581 Z M120 1455 L925 1455 L925 874 L782 874 L782 1338 L262 1338 L262 874 L120 874 L120 1455 Z " />
<glyph glyph-name="uni02AF" unicode="&#x2af;" horiz-adv-x="1406" d="M290 593 L289 593 L289 800 Q289 892 247 931 Q205 970 127 970 Q112 970 93.5 968 Q75 966 61 963 L59 1089 Q82 1095 110.5 1098.5 Q139 1102 168 1102 Q232 1102 288 1082 Q344 1062 386 1024 Q428 986 452.5 929.5 Q477 873 477 800 L477 439 Q477 348 494 289 Q511 230 539.5 196 Q568 162 605.5 149 Q643 136 684 136 Q746 136 793.5 152.5 Q841 169 876 198 Q911 227 934 267 Q957 307 970 354 L970 1082 L1157 1082 L1157 -135 Q1157 -227 1199 -266 Q1241 -305 1318 -305 Q1334 -305 1353 -303 Q1372 -301 1385 -298 L1387 -424 Q1364 -430 1335.5 -433.5 Q1307 -437 1278 -437 Q1214 -437 1158 -417 Q1102 -397 1060 -359 Q1018 -321 994 -264.5 Q970 -208 970 -135 L970 137 Q919 63 839.5 21.5 Q760 -20 649 -20 Q568 -20 501.5 6 Q435 32 388 88 Q341 144 315.5 231 Q290 318 290 441 L290 593 Z " />
<glyph glyph-name="uni02B5" unicode="&#x2b5;" horiz-adv-x="693" d="M70 820 Q91 810 115 803.5 Q139 797 167 797 Q224 797 263.5 826 Q303 855 323 905 L323 1451 L488 1451 L488 569 Q488 528 505.5 514.5 Q523 501 549 501 Q569 501 589 504 Q609 507 623 510 L623 352 Q585 342 550.5 337 Q516 332 481 332 Q436 332 405.5 348.5 Q375 365 356.5 395 Q338 425 330.5 466.5 Q323 508 323 558 L323 751 Q290 697 243.5 666.5 Q197 636 140 636 Q116 636 97 638.5 Q78 641 70 644 L70 820 Z " />
<glyph glyph-name="uni02B9" unicode="&#x2b9;" horiz-adv-x="414" d="M181 1562 L354 1562 L172 1202 L59 1202 L181 1562 Z " />
<glyph glyph-name="uni02BA" unicode="&#x2ba;" horiz-adv-x="701" >
<g transform="translate(3,0)" >
<path fill="black" d="M181 1562 L354 1562 L172 1202 L59 1202 L181 1562 Z " />
</g>
<g transform="translate(290,0)" >
<path fill="black" d="M181 1562 L354 1562 L172 1202 L59 1202 L181 1562 Z " />
</g>
</glyph>
<glyph glyph-name="uni02BB" unicode="&#x2bb;" horiz-adv-x="495" d="M110 1181 Q110 1229 122 1281 Q134 1333 156 1383.5 Q178 1434 209.5 1479.5 Q241 1525 281 1561 L384 1489 Q339 1418 314.5 1344.5 Q290 1271 290 1184 L290 999 L110 999 L110 1181 Z " />
<glyph glyph-name="uni02BC" unicode="&#x2bc;" horiz-adv-x="471" d="M86 1119 Q133 1185 157 1254.5 Q181 1324 181 1406 L181 1536 L359 1536 L359 1408 Q359 1363 347.5 1313.5 Q336 1264 314 1216.5 Q292 1169 260.5 1125.5 Q229 1082 189 1048 L86 1119 Z " />
<glyph glyph-name="uni02BD" unicode="&#x2bd;" horiz-adv-x="495" d="M281 999 Q241 1035 209.5 1080.5 Q178 1126 156 1176.5 Q134 1227 122 1278.5 Q110 1330 110 1378 L110 1561 L290 1561 L290 1375 Q290 1289 314.5 1215 Q339 1141 384 1071 L281 999 Z " />
<glyph glyph-name="uni02BE" unicode="&#x2be;" horiz-adv-x="358" d="M81 1207 Q123 1207 150.5 1236 Q178 1265 178 1310 Q178 1356 150.5 1385.5 Q123 1415 81 1415 L81 1505 Q122 1505 157.5 1490.5 Q193 1476 219.5 1450 Q246 1424 261.5 1388 Q277 1352 277 1310 Q277 1267 261.5 1232 Q246 1197 219.5 1172 Q193 1147 157.5 1133 Q122 1119 81 1119 L81 1207 Z " />
<glyph glyph-name="uni02BF" unicode="&#x2bf;" horiz-adv-x="358" d="M277 1119 Q237 1119 201 1133 Q165 1147 138.5 1172 Q112 1197 96.5 1232 Q81 1267 81 1310 Q81 1352 96.5 1388 Q112 1424 138.5 1450 Q165 1476 201 1490.5 Q237 1505 277 1505 L277 1415 Q235 1415 207 1385.5 Q179 1356 179 1310 Q179 1265 207 1236 Q235 1207 277 1207 L277 1119 Z " />
<glyph glyph-name="uni02C0" unicode="&#x2c0;" horiz-adv-x="832" d="M311 1024 L372 1024 Q435 1024 474.5 1049 Q514 1074 535.5 1115 Q557 1156 564.5 1208 Q572 1260 572 1313 L572 1406 Q572 1459 562.5 1505 Q553 1551 530 1586 Q507 1621 469.5 1641 Q432 1661 376 1661 Q295 1661 254 1621 Q213 1581 204 1516 L55 1516 Q57 1578 81.5 1630.5 Q106 1683 148 1722 Q190 1761 247.5 1783 Q305 1805 375 1805 Q465 1805 533 1773 Q601 1741 646.5 1686 Q692 1631 715 1559 Q738 1487 738 1406 L738 1313 Q738 1230 722 1160 Q706 1090 673.5 1036 Q641 982 592 946 Q543 910 477 894 L477 651 L311 651 L311 1024 Z " />
<glyph glyph-name="uni02C1" unicode="&#x2c1;" horiz-adv-x="832" d="M354 894 Q288 910 239 946 Q190 982 157.5 1036 Q125 1090 109 1160 Q93 1230 93 1313 L93 1406 Q93 1487 116 1559 Q139 1631 185 1686 Q231 1741 298.5 1773 Q366 1805 456 1805 Q526 1805 584 1783 Q642 1761 684 1722 Q726 1683 750 1630.5 Q774 1578 777 1516 L628 1516 Q619 1581 577.5 1621 Q536 1661 455 1661 Q399 1661 361.5 1641 Q324 1621 301 1586 Q278 1551 268.5 1505 Q259 1459 259 1406 L259 1313 Q259 1260 266.5 1208 Q274 1156 296 1115 Q318 1074 357 1049 Q396 1024 460 1024 L520 1024 L520 651 L354 651 L354 894 Z " />
<glyph glyph-name="uni02C2" unicode="&#x2c2;" horiz-adv-x="917" d="M88 1027 L829 1329 L829 1166 L350 982 L273 962 L350 941 L829 760 L829 596 L88 899 L88 1027 Z " />
<glyph glyph-name="uni02C3" unicode="&#x2c3;" horiz-adv-x="911" d="M78 760 L557 941 L634 962 L557 982 L78 1166 L78 1329 L819 1027 L819 899 L78 596 L78 760 Z " />
<glyph glyph-name="uni02C4" unicode="&#x2c4;" horiz-adv-x="883" d="M378 1310 L508 1310 L816 583 L656 583 L464 1046 L442 1131 L419 1046 L230 583 L70 583 L378 1310 Z " />
<glyph glyph-name="uni02C5" unicode="&#x2c5;" horiz-adv-x="889" d="M70 1310 L230 1310 L419 847 L442 762 L464 847 L656 1310 L816 1310 L508 583 L378 583 L70 1310 Z " />
<glyph glyph-name="circumflex" unicode="&#x2c6;" horiz-adv-x="1024" d="M194 1265 L447 1536 L560 1536 L815 1263 L815 1253 L660 1253 L503 1423 L347 1253 L194 1253 L194 1265 Z " />
<glyph glyph-name="caron" unicode="&#x2c7;" horiz-adv-x="972" d="M167 1525 L167 1535 L326 1535 L483 1365 L640 1535 L801 1535 L801 1525 L542 1251 L424 1251 L167 1525 Z " />
<glyph glyph-name="uni02C8" unicode="&#x2c8;" horiz-adv-x="314" d="M88 1151 L88 1559 L226 1559 L226 1151 L88 1151 Z " />
<glyph glyph-name="uni02C9" unicode="&#x2c9;" horiz-adv-x="1007" >
<g transform="translate(3,0)" >
<path fill="black" d="M176 1304 L176 1445 L848 1445 L848 1304 L176 1304 Z " />
</g>
</glyph>
<glyph glyph-name="uni02CA" unicode="&#x2ca;" horiz-adv-x="641" >
<g transform="translate(-42,0)" >
<path fill="black" d="M357 1536 L581 1536 L307 1243 L152 1243 L357 1536 Z " />
</g>
</glyph>
<glyph glyph-name="uni02CB" unicode="&#x2cb;" horiz-adv-x="636" >
<g transform="translate(3,0)" >
<path fill="black" d="M358 1243 L91 1536 L316 1536 L521 1243 L358 1243 Z " />
</g>
</glyph>
<glyph glyph-name="uni02CC" unicode="&#x2cc;" horiz-adv-x="314" >
<g transform="translate(0,-1645)" >
<path fill="black" d="M88 1151 L88 1559 L226 1559 L226 1151 L88 1151 Z " />
</g>
</glyph>
<glyph glyph-name="uni02CD" unicode="&#x2cd;" horiz-adv-x="892" >
<g transform="translate(-60,-1600)" >
<path fill="black" d="M176 1304 L176 1445 L848 1445 L848 1304 L176 1304 Z " />
</g>
</glyph>
<glyph glyph-name="uni02CE" unicode="&#x2ce;" horiz-adv-x="636" >
<g transform="translate(3,-1602)" >
<path fill="black" d="M358 1243 L91 1536 L316 1536 L521 1243 L358 1243 Z " />
</g>
</glyph>
<glyph glyph-name="uni02CF" unicode="&#x2cf;" horiz-adv-x="641" >
<g transform="translate(-42,-1602)" >
<path fill="black" d="M357 1536 L581 1536 L307 1243 L152 1243 L357 1536 Z " />
</g>
</glyph>
<glyph glyph-name="uni02D0" unicode="&#x2d0;" horiz-adv-x="510" d="M122 0 L245 210 L264 210 L388 0 L122 0 Z M122 1080 L388 1080 L264 870 L245 870 L122 1080 Z " />
<glyph glyph-name="uni02D1" unicode="&#x2d1;" horiz-adv-x="510" d="M122 1080 L388 1080 L264 870 L245 870 L122 1080 Z " />
<glyph glyph-name="uni02D2" unicode="&#x2d2;" horiz-adv-x="357" >
<g transform="translate(3,-985)" >
<path fill="black" d="M81 1207 Q123 1207 150.5 1236 Q178 1265 178 1310 Q178 1356 150.5 1385.5 Q123 1415 81 1415 L81 1505 Q122 1505 157.5 1490.5 Q193 1476 219.5 1450 Q246 1424 261.5 1388 Q277 1352 277 1310 Q277 1267 261.5 1232 Q246 1197 219.5 1172 Q193 1147 157.5 1133 Q122 1119 81 1119 L81 1207 Z " />
</g>
</glyph>
<glyph glyph-name="uni02D3" unicode="&#x2d3;" horiz-adv-x="358" d="M277 134 Q237 134 201 148 Q165 162 138.5 187 Q112 212 96.5 247 Q81 282 81 325 Q81 367 96.5 403 Q112 439 138.5 465.5 Q165 492 201 506.5 Q237 521 277 521 L277 431 Q235 431 207 401 Q179 371 179 325 Q179 281 207 252 Q235 223 277 223 L277 134 Z " />
<glyph glyph-name="uni02D5" unicode="&#x2d5;" horiz-adv-x="643" d="M252 404 L110 404 L110 536 L533 536 L533 404 L391 404 L391 171 L252 171 L252 404 Z " />
<glyph glyph-name="uni02D6" unicode="&#x2d6;" horiz-adv-x="643" d="M110 417 L252 417 L252 552 L391 552 L391 417 L533 417 L533 286 L391 286 L391 151 L252 151 L252 286 L110 286 L110 417 Z " />
<glyph glyph-name="uni02D7" unicode="&#x2d7;" horiz-adv-x="639" d="M88 417 L551 417 L551 286 L88 286 L88 417 Z " />
<glyph glyph-name="breve" unicode="&#x2d8;" horiz-adv-x="978" d="M306 1495 Q306 1465 315 1438 Q324 1411 344.5 1390.5 Q365 1370 397 1358 Q429 1346 475 1346 Q521 1346 553 1358 Q585 1370 605.5 1390.5 Q626 1411 635 1438 Q644 1465 644 1495 L796 1495 Q796 1436 774 1387 Q752 1338 710.5 1302.5 Q669 1267 609.5 1247.5 Q550 1228 475 1228 Q401 1228 341.5 1247.5 Q282 1267 240.5 1302.5 Q199 1338 177 1387 Q155 1436 155 1495 L306 1495 Z " />
<glyph glyph-name="dotaccent" unicode="&#x2d9;" horiz-adv-x="568" d="M171 1369 Q171 1414 200 1444.5 Q229 1475 283 1475 Q337 1475 366 1444.5 Q395 1414 395 1369 Q395 1324 366 1294 Q337 1264 283 1264 Q229 1264 200 1294 Q171 1324 171 1369 Z " />
<glyph glyph-name="ring" unicode="&#x2da;" horiz-adv-x="759" d="M152 1409 Q152 1452 169 1490 Q186 1528 215.5 1556 Q245 1584 285.5 1600 Q326 1616 373 1616 Q420 1616 460.5 1600 Q501 1584 530.5 1556 Q560 1528 577 1490 Q594 1452 594 1409 Q594 1365 577 1327.5 Q560 1290 530.5 1263 Q501 1236 460.5 1220.5 Q420 1205 373 1205 Q326 1205 285.5 1220.5 Q245 1236 215.5 1263 Q186 1290 169 1327.5 Q152 1365 152 1409 Z M252 1409 Q252 1387 261 1366 Q270 1345 285.5 1328.5 Q301 1312 323.5 1302.5 Q346 1293 373 1293 Q400 1293 422.5 1302.5 Q445 1312 460.5 1328 Q476 1344 485 1365 Q494 1386 494 1409 Q494 1432 485 1453.5 Q476 1475 460.5 1491.5 Q445 1508 422.5 1517.5 Q400 1527 373 1527 Q346 1527 323.5 1517.5 Q301 1508 285.5 1491.5 Q270 1475 261 1453.5 Q252 1432 252 1409 Z " />
<glyph glyph-name="ogonek" unicode="&#x2db;" horiz-adv-x="620" d="M434 -389 Q410 -404 372 -418.5 Q334 -433 275 -433 Q234 -433 198.5 -421 Q163 -409 137 -385 Q111 -361 96 -325.5 Q81 -290 81 -243 Q81 -164 141 -85.5 Q201 -7 331 56 L412 0 Q378 -24 347 -49.5 Q316 -75 292 -102.5 Q268 -130 253.5 -160 Q239 -190 239 -222 Q239 -256 256.5 -276 Q274 -296 319 -296 Q352 -296 377 -286.5 Q402 -277 418 -269 L434 -389 Z " />
<glyph glyph-name="tilde" unicode="&#x2dc;" horiz-adv-x="1025" d="M150 1249 Q150 1303 166.5 1348.5 Q183 1394 212 1426.5 Q241 1459 280 1477 Q319 1495 365 1495 Q409 1495 442.5 1480 Q476 1465 506.5 1447 Q537 1429 568.5 1414 Q600 1399 640 1399 Q683 1399 712.5 1431.5 Q742 1464 742 1512 L866 1500 Q866 1445 849.5 1400.5 Q833 1356 803.5 1324.5 Q774 1293 734.5 1276 Q695 1259 650 1259 Q598 1259 564.5 1274 Q531 1289 503 1306.5 Q475 1324 446.5 1339 Q418 1354 376 1354 Q332 1354 303 1322.5 Q274 1291 274 1243 L150 1249 Z " />
<glyph glyph-name="hungarumlaut" unicode="&#x2dd;" horiz-adv-x="845" d="M653 1535 L855 1535 L581 1232 L415 1232 L653 1535 Z M308 1535 L502 1535 L278 1232 L126 1232 L308 1535 Z " />
<glyph glyph-name="uni02DE" unicode="&#x2de;" horiz-adv-x="505" d="M-173 722 L199 794 Q206 729 213 681 Q220 633 232.5 601 Q245 569 267.5 553 Q290 537 328 537 Q342 537 356.5 538 Q371 539 385 541 L416 387 Q386 373 352 364 Q318 355 283 355 Q225 355 186 372 Q147 389 121 420 Q95 451 79 496 Q63 541 51 596 L-173 554 L-173 722 Z " />
<glyph glyph-name="uni02DF" unicode="&#x2df;" horiz-adv-x="715" d="M110 1254 L263 1404 L112 1555 L203 1650 L358 1497 L513 1649 L605 1553 L452 1403 L604 1252 L512 1157 L358 1311 L202 1158 L110 1254 Z " />
<glyph glyph-name="uni02E0" unicode="&#x2e0;" horiz-adv-x="918" d="M369 684 L85 1451 L268 1451 L447 913 L459 849 L472 913 L650 1451 L833 1451 L546 677 L616 511 Q632 473 639 445 Q646 417 646 393 Q646 310 594.5 264.5 Q543 219 454 219 Q365 219 313.5 264.5 Q262 310 262 393 Q262 418 271.5 445 Q281 472 295 507 L369 684 Z M454 354 Q480 354 490.5 368 Q501 382 501 401 Q501 427 489.5 460 Q478 493 455 551 Q432 494 420 460 Q408 426 408 401 Q408 381 418 367.5 Q428 354 454 354 Z " />
<glyph glyph-name="uni02E1" unicode="&#x2e1;" horiz-adv-x="433" d="M134 651 L134 1805 L299 1805 L299 651 L134 651 Z " />
<glyph glyph-name="uni02E2" unicode="&#x2e2;" horiz-adv-x="847" d="M254 898 Q259 862 276.5 839.5 Q294 817 320 803.5 Q346 790 378.5 785 Q411 780 446 780 Q513 780 551 802.5 Q589 825 589 863 Q589 909 545 937 Q501 965 400 988 Q332 1003 280 1024 Q228 1045 192.5 1074.5 Q157 1104 138.5 1143.5 Q120 1183 120 1236 Q120 1290 142.5 1332.5 Q165 1375 204.5 1404.5 Q244 1434 299 1450 Q354 1466 418 1466 Q495 1466 556 1446.5 Q617 1427 659.5 1393 Q702 1359 724.5 1313.5 Q747 1268 747 1217 L584 1217 Q583 1237 574.5 1256 Q566 1275 547 1289.5 Q528 1304 499 1313 Q470 1322 428 1322 Q389 1322 361.5 1315 Q334 1308 317 1296 Q300 1284 292.5 1268.5 Q285 1253 285 1237 Q285 1215 294.5 1199 Q304 1183 325 1171 Q346 1159 378.5 1149.5 Q411 1140 456 1129 Q528 1113 583 1091.5 Q638 1070 676 1040 Q714 1010 733.5 969.5 Q753 929 753 873 Q753 756 672 696 Q591 636 441 636 Q354 636 289 658 Q224 680 180.5 716.5 Q137 753 115 800 Q93 847 93 898 L254 898 Z " />
</font>
</svg>
