<?xml version="1.0" encoding="UTF-8"?>
<svg xmlns="http://www.w3.org/2000/svg" xmlns:xlink="http://www.w3.org/1999/xlink" version="1.2" >
<font id="GrotoUICond-Regular" horiz-adv-x="746">
<font-face  font-family="Groto UI Cond" units-per-em="2048" ascent="2146" descent="-555" font-style="normal" font-weight="400" font-stretch="condensed" cap-height="1456" x-height="1082" underline-position="-100" underline-thickness="100" />
<missing-glyph horiz-adv-x="789" d="M128 1456 L662 1456 L662 0 L128 0 L128 1456 Z M620 86 L620 1370 L415 728 L620 86 Z M371 728 L169 1357 L169 99 L371 728 Z M199 54 L586 54 L393 659 L199 54 Z M393 797 L586 1402 L199 1402 L393 797 Z " />
<glyph glyph-name="uni0000" horiz-adv-x="0" />
<glyph glyph-name="uni000D" unicode="&#xd;" horiz-adv-x="427" />
<glyph glyph-name="space" unicode="&#x20;" horiz-adv-x="427" />
<glyph glyph-name="uni0002" unicode="&#x2;" horiz-adv-x="0" />
<glyph glyph-name="uni0009" unicode="&#x9;" horiz-adv-x="427" />
<glyph glyph-name="exclam" unicode="&#x21;" horiz-adv-x="505" d="M182 410 L167 1456 L343 1456 L327 410 L182 410 Z M258 -11 Q212 -11 186.5 17 Q161 45 161 87 Q161 129 186.5 157.5 Q212 186 258 186 Q303 186 328.5 157.5 Q354 129 354 87 Q354 45 328.5 17 Q303 -11 258 -11 Z " />
<glyph glyph-name="quotedbl" unicode="&#x22;" horiz-adv-x="626" d="M138 1391 L138 1536 L266 1536 L266 1400 L240 1054 L137 1054 L138 1391 Z M379 1391 L379 1536 L507 1536 L507 1400 L481 1054 L378 1054 L379 1391 Z " />
<glyph glyph-name="numbersign" unicode="&#x23;" horiz-adv-x="1037" d="M301 410 L123 410 L123 534 L318 534 L372 914 L180 914 L180 1040 L389 1040 L448 1456 L565 1456 L506 1040 L688 1040 L747 1456 L863 1456 L804 1040 L964 1040 L964 914 L787 914 L733 534 L908 534 L908 410 L716 410 L658 0 L542 0 L600 410 L417 410 L359 0 L243 0 L301 410 Z M617 534 L671 914 L488 914 L435 534 L617 534 Z " />
<glyph glyph-name="dollar" unicode="&#x24;" horiz-adv-x="977" d="M441 -18 Q381 -10 325 18 Q269 46 225.5 99 Q182 152 156 232.5 Q130 313 130 427 L295 427 Q295 339 312.5 280.5 Q330 222 358.5 187 Q387 152 422 138 Q457 124 493 124 Q538 124 573 142 Q608 160 632 192.5 Q656 225 668.5 270 Q681 315 681 370 Q681 418 671 458.5 Q661 499 638 533.5 Q615 568 577.5 596.5 Q540 625 485 648 Q413 680 355.5 718.5 Q298 757 257 809 Q216 861 194 928.5 Q172 996 172 1085 Q172 1168 192 1235.5 Q212 1303 248.5 1353 Q285 1403 337.5 1434 Q390 1465 454 1474 L454 1689 L566 1689 L566 1472 Q695 1449 768 1333 Q841 1217 841 1014 L676 1014 Q676 1083 664.5 1141 Q653 1199 631 1241.5 Q609 1284 577 1308 Q545 1332 504 1332 Q461 1332 429.5 1313.5 Q398 1295 377.5 1262.5 Q357 1230 347 1185 Q337 1140 337 1087 Q337 1037 346.5 996.5 Q356 956 379 922 Q402 888 440.5 859.5 Q479 831 538 805 Q610 772 667 733.5 Q724 695 764 644.5 Q804 594 825.5 527.5 Q847 461 847 372 Q847 287 826.5 218.5 Q806 150 767.5 101 Q729 52 675 22 Q621 -8 553 -17 L553 -208 L441 -208 L441 -18 Z " />
<glyph glyph-name="percent" unicode="&#x25;" horiz-adv-x="1239" d="M307 174 L843 1312 L931 1251 L394 113 L307 174 Z M661 357 Q661 419 676.5 473.5 Q692 528 721 568.5 Q750 609 792.5 633 Q835 657 889 657 Q945 657 988 633 Q1031 609 1060 568.5 Q1089 528 1104.5 473.5 Q1120 419 1120 357 L1120 279 Q1120 218 1105 163 Q1090 108 1060.5 67.5 Q1031 27 988.5 3 Q946 -21 891 -21 Q836 -21 793.5 3 Q751 27 721.5 67.5 Q692 108 676.5 163 Q661 218 661 279 L661 357 Z M128 1178 Q128 1240 143.5 1294.5 Q159 1349 188 1389.5 Q217 1430 259.5 1454 Q302 1478 356 1478 Q412 1478 455 1454 Q498 1430 527 1389.5 Q556 1349 571.5 1294.5 Q587 1240 587 1178 L587 1100 Q587 1039 572 984 Q557 929 527.5 888.5 Q498 848 455.5 824 Q413 800 358 800 Q303 800 260.5 824 Q218 848 188.5 888.5 Q159 929 143.5 984 Q128 1039 128 1100 L128 1178 Z M778 279 Q778 243 785.5 209 Q793 175 807 148.5 Q821 122 842 106 Q863 90 891 90 Q921 90 942 106 Q963 122 976.5 148 Q990 174 996.5 208.5 Q1003 243 1003 279 L1003 357 Q1003 394 996 428.5 Q989 463 975 489 Q961 515 939.5 531 Q918 547 889 547 Q861 547 840.5 531 Q820 515 806 489 Q792 463 785 428.5 Q778 394 778 357 L778 279 Z M245 1100 Q245 1064 252.5 1030 Q260 996 274 969.5 Q288 943 309 927 Q330 911 358 911 Q388 911 409 927 Q430 943 443.5 969 Q457 995 463.5 1029.5 Q470 1064 470 1100 L470 1178 Q470 1215 463 1249.5 Q456 1284 442 1310 Q428 1336 406.5 1352 Q385 1368 356 1368 Q328 1368 307.5 1352 Q287 1336 273 1310 Q259 1284 252 1249.5 Q245 1215 245 1178 L245 1100 Z " />
<glyph glyph-name="ampersand" unicode="&#x26;" horiz-adv-x="1084" d="M828 0 L758 112 Q698 47 625.5 13.5 Q553 -20 475 -20 Q393 -20 327 10 Q261 40 215 94 Q169 148 144.5 222.5 Q120 297 120 386 Q120 452 136 507 Q152 562 180 610.5 Q208 659 247 703.5 Q286 748 332 793 Q277 885 244.5 964 Q212 1043 212 1130 Q212 1213 232 1277 Q252 1341 289 1385.5 Q326 1430 378 1453 Q430 1476 494 1476 Q556 1476 605 1452 Q654 1428 688.5 1386.5 Q723 1345 741.5 1290.5 Q760 1236 760 1176 Q760 1124 749 1080 Q738 1036 718 998 Q698 960 671 926.5 Q644 893 612 861 L530 778 L770 399 Q790 457 800.5 524 Q811 591 811 667 L957 667 Q957 546 931 446 Q905 346 857 260 L1022 0 L828 0 Z M414 661 L396 643 Q357 604 334.5 566 Q312 528 301.5 494.5 Q291 461 288.5 433 Q286 405 286 386 Q286 332 298.5 283 Q311 234 335.5 197.5 Q360 161 396 139.5 Q432 118 479 118 Q534 118 586 147.5 Q638 177 682 233 L414 661 Z M523 962 Q547 984 564 1006 Q581 1028 592.5 1053.5 Q604 1079 609.5 1109 Q615 1139 615 1176 Q615 1207 607 1236 Q599 1265 583.5 1287.5 Q568 1310 545.5 1324 Q523 1338 494 1338 Q463 1338 440 1321.5 Q417 1305 401 1277.5 Q385 1250 377 1213 Q369 1176 369 1134 Q369 1080 392 1023 Q415 966 453 901 L523 962 Z " />
<glyph glyph-name="quotesingle" unicode="&#x27;" horiz-adv-x="375" d="M122 1403 L122 1536 L257 1536 L257 1417 L237 1067 L120 1067 L122 1403 Z " />
<glyph glyph-name="parenleft" unicode="&#x28;" horiz-adv-x="634" d="M520 -470 Q462 -428 397 -339 Q332 -250 277 -117 Q222 16 186 191 Q150 366 150 579 L150 591 Q150 802 186 977 Q222 1152 277 1285.5 Q332 1419 397 1509 Q462 1599 520 1641 L553 1530 Q509 1485 464.5 1402.5 Q420 1320 384 1202.5 Q348 1085 325.5 932 Q303 779 303 593 L303 577 Q303 391 325.5 238.5 Q348 86 384 -33 Q420 -152 464.5 -236.5 Q509 -321 553 -369 L520 -470 Z " />
<glyph glyph-name="parenright" unicode="&#x29;" horiz-adv-x="641" d="M81 -369 Q125 -323 169.5 -239 Q214 -155 250 -35.5 Q286 84 308.5 237.5 Q331 391 331 577 L331 593 Q331 779 307.5 933 Q284 1087 247.5 1206.5 Q211 1326 166.5 1409.5 Q122 1493 81 1538 L114 1641 Q173 1599 239 1509 Q305 1419 360.5 1285.5 Q416 1152 452 977 Q488 802 488 591 L488 579 Q488 366 452 191 Q416 16 360.5 -117 Q305 -250 239 -339 Q173 -428 114 -470 L81 -369 Z " />
<glyph glyph-name="asterisk" unicode="&#x2a;" horiz-adv-x="853" d="M338 989 L62 1085 L101 1221 L376 1105 L367 1457 L497 1457 L487 1100 L756 1215 L796 1079 L517 980 L700 703 L593 618 L425 911 L260 624 L153 705 L338 989 Z " />
<glyph glyph-name="plus" unicode="&#x2b;" horiz-adv-x="966" d="M400 612 L104 612 L104 770 L400 770 L400 1206 L562 1206 L562 770 L857 770 L857 612 L562 612 L562 146 L400 146 L400 612 Z " />
<glyph glyph-name="comma" unicode="&#x2c;" horiz-adv-x="452" d="M74 -219 Q112 -154 136 -86.5 Q160 -19 160 63 L160 211 L318 211 L318 65 Q318 19 307.5 -29 Q297 -77 277.5 -123 Q258 -169 230.5 -210.5 Q203 -252 169 -285 L74 -219 Z " />
<glyph glyph-name="hyphen" unicode="&#x2d;" horiz-adv-x="601" d="M103 557 L103 695 L493 695 L493 557 L103 557 Z " />
<glyph glyph-name="period" unicode="&#x2e;" horiz-adv-x="546" d="M158 90 Q158 135 185.5 164.5 Q213 194 263 194 Q313 194 341 164.5 Q369 135 369 90 Q369 48 341 18.5 Q313 -11 263 -11 Q213 -11 185.5 18.5 Q158 48 158 90 Z " />
<glyph glyph-name="slash" unicode="&#x2f;" horiz-adv-x="715" d="M57 -125 L494 1456 L627 1456 L190 -125 L57 -125 Z " />
<glyph glyph-name="zero" unicode="0" horiz-adv-x="1006" d="M148 805 Q148 969 173 1083 Q198 1197 244.5 1268 Q291 1339 356.5 1370.5 Q422 1402 502 1402 Q583 1402 649 1370.5 Q715 1339 761.5 1268 Q808 1197 833 1083 Q858 969 858 805 L858 586 Q858 422 833 307 Q808 192 762 119.5 Q716 47 650.5 14 Q585 -19 504 -19 Q424 -19 358 14 Q292 47 245.5 119.5 Q199 192 173.5 307 Q148 422 148 586 L148 805 Z M693 831 Q693 947 680.5 1029 Q668 1111 644 1163.5 Q620 1216 584.5 1240.5 Q549 1265 502 1265 Q457 1265 421.5 1240.5 Q386 1216 362 1163.5 Q338 1111 325.5 1029 Q313 947 313 831 L313 561 Q313 332 363 225 Q413 118 504 118 Q596 118 644.5 225 Q693 332 693 561 L693 831 Z " />
<glyph glyph-name="one" unicode="1" horiz-adv-x="1007" d="M470 0 L470 1172 L195 1053 L195 1203 L614 1390 L636 1390 L636 0 L470 0 Z " />
<glyph glyph-name="two" unicode="2" horiz-adv-x="1006" d="M152 0 L154 120 L507 626 Q555 695 586.5 748.5 Q618 802 636 847 Q654 892 661.5 932 Q669 972 669 1012 Q669 1066 657.5 1112.5 Q646 1159 623.5 1192.5 Q601 1226 568.5 1245.5 Q536 1265 494 1265 Q445 1265 408.5 1244 Q372 1223 347 1184.5 Q322 1146 309.5 1093 Q297 1040 297 977 L130 977 Q130 1065 154.5 1142.5 Q179 1220 226 1277.5 Q273 1335 341 1368.5 Q409 1402 496 1402 Q577 1402 640 1375.5 Q703 1349 746.5 1300.5 Q790 1252 813 1183.5 Q836 1115 836 1031 Q836 969 818 907 Q800 845 771 783 Q742 721 704 659 Q666 597 625 535 L359 137 L881 137 L881 0 L152 0 Z " />
<glyph glyph-name="three" unicode="3" horiz-adv-x="1006" d="M295 369 Q295 313 309 266.5 Q323 220 348.5 187 Q374 154 410 136 Q446 118 489 118 Q581 118 632.5 183.5 Q684 249 684 381 Q684 514 625.5 576 Q567 638 469 638 L363 638 L363 773 L469 773 Q519 773 556 791.5 Q593 810 618 843 Q643 876 655 920.5 Q667 965 667 1017 Q667 1135 623.5 1200 Q580 1265 489 1265 Q450 1265 416.5 1248 Q383 1231 358.5 1199.5 Q334 1168 320.5 1123 Q307 1078 307 1021 L141 1021 Q141 1102 167 1171.5 Q193 1241 239 1292.5 Q285 1344 348.5 1373 Q412 1402 487 1402 Q565 1402 628.5 1377 Q692 1352 737.5 1303 Q783 1254 808 1181.5 Q833 1109 833 1014 Q833 972 821.5 928 Q810 884 787.5 843.5 Q765 803 730.5 768 Q696 733 651 710 Q705 689 742.5 654.5 Q780 620 804 576.5 Q828 533 839 484 Q850 435 850 384 Q850 288 822.5 213 Q795 138 746 86.5 Q697 35 631 8 Q565 -19 487 -19 Q417 -19 352 6 Q287 31 237.5 80.5 Q188 130 158.5 202.5 Q129 275 129 369 L295 369 Z " />
<glyph glyph-name="four" unicode="4" horiz-adv-x="1006" d="M108 426 L566 1383 L760 1383 L760 464 L903 464 L903 328 L760 328 L760 0 L594 0 L594 328 L113 328 L108 426 Z M594 464 L594 1126 L287 464 L594 464 Z " />
<glyph glyph-name="five" unicode="5" horiz-adv-x="1007" d="M330 366 Q341 243 391 180.5 Q441 118 523 118 Q570 118 605.5 140.5 Q641 163 664.5 204.5 Q688 246 700 306 Q712 366 712 441 Q712 507 699 564.5 Q686 622 660 664 Q634 706 595.5 730 Q557 754 507 754 Q473 754 448 747.5 Q423 741 403.5 729.5 Q384 718 368 701.5 Q352 685 336 664 L204 698 L262 1383 L845 1383 L845 1233 L400 1233 L371 836 Q397 859 442.5 879.5 Q488 900 548 900 Q625 900 686 868 Q747 836 790 776 Q833 716 855.5 631 Q878 546 878 441 Q878 342 856.5 258 Q835 174 790.5 112.5 Q746 51 679.5 16 Q613 -19 523 -19 Q454 -19 392.5 4.5 Q331 28 283 76 Q235 124 204.5 196.5 Q174 269 169 366 L330 366 Z " />
<glyph glyph-name="six" unicode="6" horiz-adv-x="1007" d="M158 710 Q158 881 192 1010.5 Q226 1140 285.5 1227 Q345 1314 424.5 1358 Q504 1402 595 1402 Q698 1402 772 1365 L745 1239 Q720 1248 690 1256.5 Q660 1265 619 1265 Q497 1265 419 1152.5 Q341 1040 327 817 Q366 865 422 893 Q478 921 552 921 Q627 921 687 886 Q747 851 788.5 789.5 Q830 728 852 645 Q874 562 874 465 Q874 360 849.5 271.5 Q825 183 779.5 118.5 Q734 54 668.5 17.5 Q603 -19 522 -19 Q447 -19 380.5 13 Q314 45 264.5 110 Q215 175 186.5 272.5 Q158 370 158 500 L158 710 Z M324 501 Q324 402 339.5 330 Q355 258 382 210.5 Q409 163 445 140 Q481 117 522 117 Q569 117 604 145 Q639 173 662.5 221 Q686 269 697.5 332 Q709 395 709 465 Q709 533 696 591.5 Q683 650 658 693.5 Q633 737 596.5 762 Q560 787 512 787 Q444 787 397 747.5 Q350 708 324 645 L324 501 Z " />
<glyph glyph-name="seven" unicode="7" horiz-adv-x="1007" d="M345 139 Q360 311 390.5 462 Q421 613 466.5 748.5 Q512 884 573 1007 Q634 1130 709 1246 L120 1246 L120 1383 L872 1383 L872 1246 Q772 1095 707.5 960 Q643 825 604 693 Q565 561 544.5 426 Q524 291 511 139 L501 0 L333 0 L345 139 Z " />
<glyph glyph-name="eight" unicode="8" horiz-adv-x="1006" d="M504 -19 Q428 -19 362 6.5 Q296 32 248 81.5 Q200 131 172.5 204 Q145 277 145 372 Q145 489 197 578 Q249 667 337 712 Q259 757 214.5 838.5 Q170 920 170 1024 Q170 1114 195 1184.5 Q220 1255 264 1303.5 Q308 1352 369.5 1377 Q431 1402 503 1402 Q575 1402 636.5 1377 Q698 1352 742 1303.5 Q786 1255 811 1184.5 Q836 1114 836 1024 Q836 920 790.5 838.5 Q745 757 668 712 Q757 667 809.5 578 Q862 489 862 372 Q862 277 834.5 204 Q807 131 759 81.5 Q711 32 645.5 6.5 Q580 -19 504 -19 Z M504 118 Q592 118 643 185.5 Q694 253 694 377 Q694 436 680 485 Q666 534 640.5 569.5 Q615 605 580 624.5 Q545 644 502 644 Q459 644 423.5 624.5 Q388 605 363 569.5 Q338 534 324.5 485 Q311 436 311 377 Q311 253 363 185.5 Q415 118 504 118 Z M504 779 Q542 779 572.5 796.5 Q603 814 624.5 845.5 Q646 877 658 921.5 Q670 966 670 1021 Q670 1075 658 1119.5 Q646 1164 624 1196.5 Q602 1229 571.5 1247 Q541 1265 503 1265 Q427 1265 382 1200 Q337 1135 337 1021 Q337 966 349 921.5 Q361 877 382.5 845.5 Q404 814 435 796.5 Q466 779 504 779 Z " />
<glyph glyph-name="nine" unicode="9" horiz-adv-x="1005" d="M264 165 Q299 146 338.5 131.5 Q378 117 423 117 Q480 117 526.5 143 Q573 169 606 221.5 Q639 274 658 353 Q677 432 678 537 Q636 487 582 462 Q528 437 465 437 Q387 437 325.5 472.5 Q264 508 221.5 571 Q179 634 156 721.5 Q133 809 133 912 Q133 1027 159.5 1118 Q186 1209 232 1272.5 Q278 1336 341.5 1369.5 Q405 1403 478 1403 Q558 1403 625 1370 Q692 1337 740.5 1270 Q789 1203 816 1102 Q843 1001 843 864 L843 552 Q843 411 812.5 304 Q782 197 728.5 125 Q675 53 601.5 16.5 Q528 -20 441 -20 Q390 -20 336.5 -7 Q283 6 234 37 L264 165 Z M678 881 Q678 1074 625 1170 Q572 1266 480 1266 Q441 1266 408 1242.5 Q375 1219 350.5 1173.5 Q326 1128 312.5 1062 Q299 996 299 912 Q299 845 311.5 783.5 Q324 722 348.5 674.5 Q373 627 408 599 Q443 571 488 571 Q526 571 556 584 Q586 597 610 619 Q634 641 651 670 Q668 699 678 731 L678 881 Z " />
<glyph glyph-name="colon" unicode="&#x3a;" horiz-adv-x="498" >
<path fill="black" d="M158 90 Q158 135 185.5 164.5 Q213 194 263 194 Q313 194 341 164.5 Q369 135 369 90 Q369 48 341 18.5 Q313 -11 263 -11 Q213 -11 185.5 18.5 Q158 48 158 90 Z " />
<g transform="translate(-5,876)" >
<path fill="black" d="M158 90 Q158 135 185.5 164.5 Q213 194 263 194 Q313 194 341 164.5 Q369 135 369 90 Q369 48 341 18.5 Q313 -11 263 -11 Q213 -11 185.5 18.5 Q158 48 158 90 Z " />
</g>
</glyph>
<glyph glyph-name="semicolon" unicode="&#x3b;" horiz-adv-x="460" >
<g transform="translate(17,0)" >
<path fill="black" d="M74 -219 Q112 -154 136 -86.5 Q160 -19 160 63 L160 211 L318 211 L318 65 Q318 19 307.5 -29 Q297 -77 277.5 -123 Q258 -169 230.5 -210.5 Q203 -252 169 -285 L74 -219 Z " />
</g>
<g transform="translate(-14,894)" >
<path fill="black" d="M158 90 Q158 135 185.5 164.5 Q213 194 263 194 Q313 194 341 164.5 Q369 135 369 90 Q369 48 341 18.5 Q313 -11 263 -11 Q213 -11 185.5 18.5 Q158 48 158 90 Z " />
</g>
</glyph>
<glyph glyph-name="less" unicode="&#x3c;" horiz-adv-x="890" d="M101 717 L731 1095 L731 919 L267 648 L731 381 L731 206 L101 585 L101 717 Z " />
<glyph glyph-name="equal" unicode="&#x3d;" horiz-adv-x="966" d="M162 405 L162 550 L808 550 L808 405 L162 405 Z M162 819 L162 964 L808 964 L808 819 L162 819 Z " />
<glyph glyph-name="greater" unicode="&#x3e;" horiz-adv-x="907" d="M148 379 L631 654 L148 925 L148 1096 L797 718 L797 587 L148 208 L148 379 Z " />
<glyph glyph-name="question" unicode="&#x3f;" horiz-adv-x="845" d="M320 409 Q320 478 326.5 528.5 Q333 579 347 621 Q361 663 384.5 702 Q408 741 443 788 Q469 824 492 856.5 Q515 889 532 924 Q549 959 559 999.5 Q569 1040 569 1094 Q569 1202 531.5 1266.5 Q494 1331 423 1331 Q392 1331 364 1317.5 Q336 1304 314.5 1277 Q293 1250 280 1209.5 Q267 1169 266 1115 L101 1115 Q102 1200 127 1267 Q152 1334 195 1380.5 Q238 1427 296.5 1451.5 Q355 1476 423 1476 Q497 1476 555 1449 Q613 1422 653 1373 Q693 1324 714 1254.5 Q735 1185 735 1099 Q735 1032 720 973 Q705 914 679.5 861.5 Q654 809 620 761.5 Q586 714 549 669 Q506 617 491.5 550.5 Q477 484 476 409 L320 409 Z M404 -11 Q358 -11 332.5 17 Q307 45 307 87 Q307 129 332.5 157.5 Q358 186 404 186 Q449 186 474.5 157.5 Q500 129 500 87 Q500 45 474.5 17 Q449 -11 404 -11 Z " />
<glyph glyph-name="at" unicode="&#x40;" horiz-adv-x="1490" d="M1005 -364 Q979 -386 945 -402.5 Q911 -419 873.5 -430.5 Q836 -442 797.5 -447.5 Q759 -453 724 -453 Q579 -453 465.5 -388.5 Q352 -324 275 -203 Q198 -82 160.5 90.5 Q123 263 130 478 Q136 685 185 859 Q234 1033 318.5 1160 Q403 1287 521 1358 Q639 1429 783 1429 Q929 1429 1040.5 1364 Q1152 1299 1226.5 1179 Q1301 1059 1336 888 Q1371 717 1364 505 Q1362 413 1343.5 319 Q1325 225 1287.5 149.5 Q1250 74 1191 26.5 Q1132 -21 1049 -21 Q980 -21 933.5 22.5 Q887 66 867 144 Q827 63 775 21 Q723 -21 665 -21 Q610 -21 568 11 Q526 43 499.5 100.5 Q473 158 462.5 239.5 Q452 321 459 420 Q468 551 498.5 656.5 Q529 762 574.5 836 Q620 910 676.5 950 Q733 990 795 990 Q837 990 868.5 981.5 Q900 973 925.5 958.5 Q951 944 972.5 924.5 Q994 905 1016 883 L977 324 Q973 249 980.5 203 Q988 157 1002 132 Q1016 107 1034 98.5 Q1052 90 1070 90 Q1112 90 1145 122 Q1178 154 1202 210 Q1226 266 1239.5 342 Q1253 418 1256 505 Q1262 693 1236.5 842 Q1211 991 1152.5 1094.5 Q1094 1198 1001 1253 Q908 1308 779 1308 Q661 1308 566.5 1248 Q472 1188 404 1079 Q336 970 297 817 Q258 664 252 478 Q245 291 274 140 Q303 -11 363.5 -117.5 Q424 -224 516 -281.5 Q608 -339 727 -339 Q795 -339 862.5 -318 Q930 -297 978 -261 L1005 -364 Z M854 324 L889 849 Q872 860 851 866 Q830 872 807 872 Q721 872 664.5 759.5 Q608 647 593 420 Q583 276 612.5 193 Q642 110 706 110 Q724 110 744 121 Q764 132 783.5 156.5 Q803 181 821 220.5 Q839 260 854 317 L854 324 Z " />
<glyph glyph-name="A" unicode="A" horiz-adv-x="1119" d="M482 1456 L637 1456 L1053 0 L872 0 L773 389 L346 389 L247 0 L67 0 L482 1456 Z M737 531 L560 1231 L382 531 L737 531 Z " />
<glyph glyph-name="B" unicode="B" horiz-adv-x="1073" d="M169 1456 L535 1456 Q624 1456 694 1433.5 Q764 1411 813 1364 Q862 1317 887.5 1244.5 Q913 1172 913 1071 Q913 965 869 885.5 Q825 806 741 764 Q791 748 828.5 714.5 Q866 681 891 635.5 Q916 590 928.5 534.5 Q941 479 941 418 Q941 316 915 238 Q889 160 840.5 107 Q792 54 722.5 27 Q653 0 566 0 L169 0 L169 1456 Z M566 142 Q665 142 717 215.5 Q769 289 769 416 Q769 476 757.5 526 Q746 576 722 612 Q698 648 661 667.5 Q624 687 573 687 L341 687 L341 142 L566 142 Z M538 827 Q634 827 686.5 890.5 Q739 954 739 1072 Q739 1199 689 1256.5 Q639 1314 535 1314 L341 1314 L341 827 L538 827 Z " />
<glyph glyph-name="C" unicode="C" horiz-adv-x="1112" d="M139 865 Q139 1005 169.5 1118 Q200 1231 257 1310.5 Q314 1390 395.5 1433 Q477 1476 579 1476 Q773 1476 877.5 1353.5 Q982 1231 996 992 L823 992 Q818 1082 802 1146.5 Q786 1211 756.5 1252.5 Q727 1294 683.5 1314 Q640 1334 579 1334 Q512 1334 462 1301 Q412 1268 378.5 1207.5 Q345 1147 328.5 1060.5 Q312 974 312 867 L312 595 Q312 493 326.5 406 Q341 319 372.5 256 Q404 193 453 157 Q502 121 571 121 Q634 121 679 140 Q724 159 754 200 Q784 241 800.5 305 Q817 369 823 460 L995 460 Q989 346 959 256.5 Q929 167 875.5 105.5 Q822 44 746 12 Q670 -20 571 -20 Q471 -20 390.5 23 Q310 66 254.5 146 Q199 226 169 339.5 Q139 453 139 595 L139 865 Z " />
<glyph glyph-name="D" unicode="D" horiz-adv-x="1114" d="M169 1456 L490 1456 Q598 1456 687 1416.5 Q776 1377 839.5 1300.5 Q903 1224 938 1110.5 Q973 997 973 850 L973 606 Q973 458 938.5 345 Q904 232 840 155.5 Q776 79 685 39.5 Q594 0 482 0 L169 0 L169 1456 Z M482 142 Q647 142 724.5 261 Q802 380 802 606 L802 853 Q802 1086 724 1200 Q646 1314 490 1314 L341 1314 L341 142 L482 142 Z " />
<glyph glyph-name="E" unicode="E" horiz-adv-x="977" d="M169 1456 L875 1456 L875 1314 L341 1314 L341 822 L804 822 L804 681 L341 681 L341 142 L880 142 L880 0 L169 0 L169 1456 Z " />
<glyph glyph-name="F" unicode="F" horiz-adv-x="956" d="M169 1456 L863 1456 L863 1314 L341 1314 L341 797 L796 797 L796 654 L341 654 L341 0 L169 0 L169 1456 Z " />
<glyph glyph-name="G" unicode="G" horiz-adv-x="1152" d="M144 868 Q144 1018 173.5 1132 Q203 1246 259.5 1322.5 Q316 1399 398 1437.5 Q480 1476 585 1476 Q684 1476 758.5 1446 Q833 1416 884 1359 Q935 1302 964 1220 Q993 1138 1001 1035 L832 1035 Q826 1104 809 1159.5 Q792 1215 763 1253.5 Q734 1292 690.5 1313 Q647 1334 588 1334 Q448 1334 382.5 1217 Q317 1100 317 870 L317 592 Q317 357 393.5 239 Q470 121 606 121 Q658 121 695.5 133 Q733 145 759 162 Q785 179 801.5 197 Q818 215 828 227 L828 575 L589 575 L589 716 L1001 716 L1001 179 Q984 155 953.5 121 Q923 87 875 55.5 Q827 24 759.5 2 Q692 -20 601 -20 Q498 -20 414 19 Q330 58 270 134.5 Q210 211 177 326 Q144 441 144 592 L144 868 Z " />
<glyph glyph-name="H" unicode="H" horiz-adv-x="1200" d="M169 1456 L341 1456 L341 822 L857 822 L857 1456 L1030 1456 L1030 0 L857 0 L857 681 L341 681 L341 0 L169 0 L169 1456 Z " />
<glyph glyph-name="I" unicode="I" horiz-adv-x="536" d="M183 0 L183 1456 L355 1456 L355 0 L183 0 Z " />
<glyph glyph-name="J" unicode="J" horiz-adv-x="960" d="M263 403 Q263 259 312.5 190.5 Q362 122 443 122 Q483 122 516.5 141.5 Q550 161 574.5 200 Q599 239 612.5 296 Q626 353 626 428 L626 1456 L798 1456 L798 428 Q798 319 771 235.5 Q744 152 697 95 Q650 38 585 9 Q520 -20 443 -20 Q366 -20 301 5.5 Q236 31 189.5 83.5 Q143 136 117 215.5 Q91 295 91 403 L263 403 Z " />
<glyph glyph-name="K" unicode="K" horiz-adv-x="1078" d="M169 1456 L341 1456 L341 736 L793 1456 L1004 1456 L581 819 L1029 0 L822 0 L471 668 L341 494 L341 0 L169 0 L169 1456 Z " />
<glyph glyph-name="L" unicode="L" horiz-adv-x="935" d="M169 1456 L341 1456 L341 142 L848 142 L848 0 L169 0 L169 1456 Z " />
<glyph glyph-name="M" unicode="M" horiz-adv-x="1453" d="M169 1456 L410 1456 L726 332 L1042 1456 L1283 1456 L1283 0 L1111 0 L1111 587 L1127 1183 L787 0 L663 0 L324 1182 L340 587 L340 0 L169 0 L169 1456 Z " />
<glyph glyph-name="N" unicode="N" horiz-adv-x="1200" d="M169 1456 L363 1456 L859 331 L859 1456 L1029 1456 L1029 0 L835 0 L341 1122 L341 0 L169 0 L169 1456 Z " />
<glyph glyph-name="O" unicode="O" horiz-adv-x="1166" d="M138 855 Q138 1007 170 1123 Q202 1239 260.5 1317.5 Q319 1396 400.5 1436 Q482 1476 582 1476 Q683 1476 765.5 1436 Q848 1396 906 1317.5 Q964 1239 995.5 1123 Q1027 1007 1027 855 L1027 601 Q1027 448 995.5 332 Q964 216 906.5 138 Q849 60 767 20 Q685 -20 584 -20 Q484 -20 402 20 Q320 60 261.5 138 Q203 216 170.5 332 Q138 448 138 601 L138 855 Z M854 857 Q854 1099 783.5 1213.5 Q713 1328 582 1328 Q453 1328 381 1213.5 Q309 1099 309 857 L309 601 Q309 479 328 389.5 Q347 300 382 241.5 Q417 183 468.5 155 Q520 127 584 127 Q715 127 784.5 242 Q854 357 854 601 L854 857 Z " />
<glyph glyph-name="P" unicode="P" horiz-adv-x="1084" d="M169 1456 L580 1456 Q675 1456 748.5 1423.5 Q822 1391 872 1332.5 Q922 1274 948.5 1192.5 Q975 1111 975 1014 Q975 910 948.5 828.5 Q922 747 872 691.5 Q822 636 748.5 607 Q675 578 580 578 L341 578 L341 0 L169 0 L169 1456 Z M580 719 Q639 719 681 741 Q723 763 750 802 Q777 841 789.5 894.5 Q802 948 802 1012 Q802 1071 789.5 1125.5 Q777 1180 750 1222 Q723 1264 681 1289 Q639 1314 580 1314 L341 1314 L341 719 L580 719 Z " />
<glyph glyph-name="Q" unicode="Q" horiz-adv-x="1166" d="M1027 -141 L915 -249 L683 -9 Q658 -14 632.5 -17 Q607 -20 580 -20 Q480 -20 397.5 20 Q315 60 256.5 138.5 Q198 217 166 333 Q134 449 134 601 L134 855 Q134 1008 166 1124 Q198 1240 256 1318 Q314 1396 396 1436 Q478 1476 578 1476 Q679 1476 761.5 1436 Q844 1396 902 1318 Q960 1240 991.5 1124 Q1023 1008 1023 855 L1023 601 Q1023 405 972.5 270 Q922 135 830 62 L1027 -141 Z M852 857 Q852 1099 781 1213.5 Q710 1328 578 1328 Q451 1328 378 1213.5 Q305 1099 305 857 L305 601 Q305 479 324 389.5 Q343 300 378.5 241.5 Q414 183 465 155 Q516 127 580 127 Q712 127 782 242 Q852 357 852 601 L852 857 Z " />
<glyph glyph-name="R" unicode="R" horiz-adv-x="1120" d="M173 1456 L582 1456 Q766 1456 861.5 1352 Q957 1248 957 1044 Q957 930 908 845.5 Q859 761 770 713 Q820 694 854 660.5 Q888 627 909 583 Q930 539 939 485 Q948 431 948 369 L948 236 Q948 174 958.5 118 Q969 62 1001 25 L1001 0 L824 0 Q807 20 797.5 51.5 Q788 83 783.5 117 Q779 151 778 183.5 Q777 216 777 238 L777 367 Q777 428 764.5 478 Q752 528 728 563 Q704 598 668.5 617.5 Q633 637 588 637 L346 637 L346 0 L173 0 L173 1456 Z M565 778 Q624 778 665.5 796.5 Q707 815 734 849.5 Q761 884 773.5 933.5 Q786 983 786 1044 Q786 1169 736.5 1241 Q687 1313 577 1313 L346 1313 L346 778 L565 778 Z " />
<glyph glyph-name="S" unicode="S" horiz-adv-x="1032" d="M283 421 Q283 341 303 284.5 Q323 228 357.5 192 Q392 156 438 139 Q484 122 536 122 Q641 122 696 188 Q751 254 751 366 Q751 420 740.5 461 Q730 502 702 536.5 Q674 571 626 600.5 Q578 630 504 661 Q425 692 359 730.5 Q293 769 245 819.5 Q197 870 170.5 935 Q144 1000 144 1085 Q144 1170 172 1242 Q200 1314 251 1366 Q302 1418 373 1447 Q444 1476 530 1476 Q622 1476 694.5 1440 Q767 1404 817 1343.5 Q867 1283 894 1204 Q921 1125 921 1038 L749 1038 Q749 1102 735.5 1156 Q722 1210 694.5 1249.5 Q667 1289 625.5 1311.5 Q584 1334 528 1334 Q474 1334 434.5 1315 Q395 1296 368.5 1263 Q342 1230 329 1185 Q316 1140 316 1088 Q316 993 375.5 928.5 Q435 864 562 811 Q653 777 721 736 Q789 695 834 641.5 Q879 588 901.5 521 Q924 454 924 368 Q924 279 896.5 207.5 Q869 136 818 85.5 Q767 35 695.5 7.5 Q624 -20 536 -20 Q458 -20 381.5 7.5 Q305 35 245 89.5 Q185 144 147.5 227 Q110 310 110 421 L283 421 Z " />
<glyph glyph-name="T" unicode="T" horiz-adv-x="1039" d="M433 1314 L86 1314 L86 1456 L953 1456 L953 1314 L605 1314 L605 0 L433 0 L433 1314 Z " />
<glyph glyph-name="U" unicode="U" horiz-adv-x="1114" d="M152 1456 L323 1456 L323 435 Q323 347 340 286.5 Q357 226 387.5 189.5 Q418 153 461.5 137 Q505 121 558 121 Q611 121 654 137 Q697 153 727 189.5 Q757 226 773.5 286.5 Q790 347 790 435 L790 1456 L963 1456 L963 435 Q963 312 931 225.5 Q899 139 844.5 84.5 Q790 30 716 5 Q642 -20 558 -20 Q471 -20 396.5 5 Q322 30 267.5 84.5 Q213 139 182.5 225.5 Q152 312 152 435 L152 1456 Z " />
<glyph glyph-name="V" unicode="V" horiz-adv-x="1095" d="M67 1456 L257 1456 L547 247 L839 1456 L1029 1456 L631 0 L464 0 L67 1456 Z " />
<glyph glyph-name="W" unicode="W" horiz-adv-x="1468" d="M90 1456 L262 1456 L433 304 L437 261 L441 287 L652 1456 L828 1456 L1036 287 L1041 258 L1045 305 L1214 1456 L1386 1456 L1135 0 L955 0 L745 1134 L740 1173 L735 1134 L522 0 L341 0 L90 1456 Z " />
<glyph glyph-name="X" unicode="X" horiz-adv-x="1075" d="M432 736 L93 1456 L293 1456 L539 876 L783 1456 L983 1456 L646 736 L992 0 L791 0 L539 594 L287 0 L85 0 L432 736 Z " />
<glyph glyph-name="Y" unicode="Y" horiz-adv-x="1041" d="M433 545 L60 1456 L253 1456 L520 706 L788 1456 L980 1456 L606 545 L606 0 L433 0 L433 545 Z " />
<glyph glyph-name="Z" unicode="Z" horiz-adv-x="1033" d="M113 130 L722 1314 L121 1314 L121 1456 L907 1456 L907 1331 L300 142 L926 142 L926 0 L113 0 L113 130 Z " />
<glyph glyph-name="bracketleft" unicode="&#x5b;" horiz-adv-x="517" d="M156 1664 L453 1664 L453 1526 L322 1526 L322 -174 L453 -174 L453 -312 L156 -312 L156 1664 Z " />
<glyph glyph-name="backslash" unicode="&#x5c;" horiz-adv-x="742" d="M71 1456 L235 1456 L693 -125 L530 -125 L71 1456 Z " />
<glyph glyph-name="bracketright" unicode="&#x5d;" horiz-adv-x="517" d="M59 -174 L191 -174 L191 1526 L59 1526 L59 1664 L357 1664 L357 -312 L59 -312 L59 -174 Z " />
<glyph glyph-name="asciicircum" unicode="&#x5e;" horiz-adv-x="761" d="M322 1456 L439 1456 L663 729 L522 729 L380 1238 L238 729 L95 729 L322 1456 Z " />
<glyph glyph-name="underscore" unicode="&#x5f;" horiz-adv-x="795" d="M53 -138 L53 0 L740 0 L740 -138 L53 -138 Z " />
<glyph glyph-name="grave" unicode="&#x60;" horiz-adv-x="624" d="M304 1246 L84 1536 L281 1536 L450 1246 L304 1246 Z " />
<glyph glyph-name="a" unicode="a" horiz-adv-x="938" d="M644 0 Q636 22 630 53.5 Q624 85 620 118 Q603 90 580.5 65 Q558 40 530 21 Q502 2 469 -9 Q436 -20 397 -20 Q336 -20 285 0.5 Q234 21 197.5 60.5 Q161 100 141 158 Q121 216 121 292 Q121 371 145 436.5 Q169 502 216.5 549.5 Q264 597 334.5 623 Q405 649 498 649 L617 649 L617 772 Q617 875 579 920 Q541 965 466 965 Q429 965 399 951 Q369 937 348 912 Q327 887 316 853.5 Q305 820 305 782 L139 783 Q139 843 162.5 900 Q186 957 229.5 1002 Q273 1047 334.5 1074.5 Q396 1102 472 1102 Q540 1102 597 1083.5 Q654 1065 695.5 1025.5 Q737 986 760.5 923 Q784 860 784 770 L784 234 Q784 207 786 177 Q788 147 791.5 118 Q795 89 800.5 63 Q806 37 813 16 L813 0 L644 0 Z M617 529 L514 529 Q403 529 345.5 472 Q288 415 288 312 Q288 212 323.5 168.5 Q359 125 427 125 Q462 125 492 137.5 Q522 150 546.5 170 Q571 190 589 216.5 Q607 243 617 271 L617 529 Z " />
<glyph glyph-name="b" unicode="b" horiz-adv-x="971" d="M150 1536 L316 1536 L316 966 Q354 1032 409 1067 Q464 1102 539 1102 Q696 1102 775.5 977.5 Q855 853 855 586 L855 493 Q855 235 775.5 107.5 Q696 -20 541 -20 Q462 -20 405.5 16.5 Q349 53 311 122 L303 0 L150 0 L150 1536 Z M316 272 Q328 240 344.5 212.5 Q361 185 383.5 164.5 Q406 144 434.5 132.5 Q463 121 499 121 Q603 121 646 213.5 Q689 306 689 493 L689 586 Q689 679 679.5 749 Q670 819 647.5 866.5 Q625 914 588 937.5 Q551 961 497 961 Q461 961 432.5 949 Q404 937 382 916.5 Q360 896 343.5 868 Q327 840 316 807 L316 272 Z " />
<glyph glyph-name="c" unicode="c" horiz-adv-x="910" d="M113 598 Q113 717 136 810.5 Q159 904 204.5 969 Q250 1034 319 1068 Q388 1102 480 1102 Q552 1102 612 1076 Q672 1050 715.5 1000.5 Q759 951 783.5 878.5 Q808 806 810 713 L653 713 Q649 841 603 902.5 Q557 964 478 964 Q420 964 381.5 938 Q343 912 320.5 864 Q298 816 289 748.5 Q280 681 280 598 L280 484 Q280 400 289 332.5 Q298 265 320.5 217.5 Q343 170 381.5 144 Q420 118 479 118 Q514 118 545 130 Q576 142 599.5 168.5 Q623 195 637 237 Q651 279 653 339 L810 339 Q808 257 781.5 191 Q755 125 710.5 78 Q666 31 607 5.5 Q548 -20 481 -20 Q388 -20 319 14.5 Q250 49 204.5 113.5 Q159 178 136 272 Q113 366 113 484 L113 598 Z " />
<glyph glyph-name="d" unicode="d" horiz-adv-x="973" d="M116 586 Q116 720 138 817 Q160 914 201 977.5 Q242 1041 301 1071.5 Q360 1102 435 1102 Q507 1102 561.5 1068.5 Q616 1035 654 972 L654 1536 L820 1536 L820 0 L668 0 L660 118 Q622 52 566 16 Q510 -20 434 -20 Q286 -20 201 108.5 Q116 237 116 493 L116 586 Z M654 818 Q630 879 587.5 920 Q545 961 477 961 Q373 961 327.5 868 Q282 775 282 586 L282 493 Q282 305 327 213 Q372 121 476 121 Q544 121 586.5 160.5 Q629 200 654 263 L654 818 Z " />
<glyph glyph-name="e" unicode="e" horiz-adv-x="928" d="M116 584 Q116 724 144.5 822 Q173 920 222 982.5 Q271 1045 338 1073.5 Q405 1102 481 1102 Q654 1102 740 973.5 Q826 845 826 601 L826 502 L282 502 L282 470 Q282 291 343 204 Q404 117 511 117 Q584 117 637.5 150.5 Q691 184 732 241 L810 142 Q791 111 762.5 81.5 Q734 52 696 29.5 Q658 7 609.5 -6.5 Q561 -20 501 -20 Q413 -20 341.5 10 Q270 40 220 101 Q170 162 143 254 Q116 346 116 470 L116 584 Z M660 639 L660 664 Q658 731 647.5 786 Q637 841 616 880.5 Q595 920 561.5 942 Q528 964 480 964 Q436 964 401 947.5 Q366 931 341 893 Q316 855 301 793 Q286 731 283 639 L660 639 Z " />
<glyph glyph-name="f" unicode="f" horiz-adv-x="645" d="M215 953 L88 953 L88 1082 L215 1082 L215 1202 Q215 1375 289.5 1466 Q364 1557 493 1557 Q520 1557 545.5 1553 Q571 1549 596 1541 L590 1404 Q557 1415 517 1415 Q453 1415 417 1360 Q381 1305 381 1202 L381 1082 L552 1082 L552 953 L381 953 L381 0 L215 0 L215 953 Z " />
<glyph glyph-name="g" unicode="g" horiz-adv-x="919" d="M532 194 Q674 194 753.5 122.5 Q833 51 833 -99 Q833 -156 805.5 -216.5 Q778 -277 726 -326 Q674 -375 598 -406.5 Q522 -438 424 -438 Q337 -438 270.5 -415.5 Q204 -393 158.5 -355 Q113 -317 90 -266.5 Q67 -216 67 -160 Q67 -111 79 -69 Q91 -27 111 6.5 Q131 40 157 66.5 Q183 93 212 111 Q191 133 179 163 Q167 193 167 233 Q167 269 174.5 298.5 Q182 328 194.5 352 Q207 376 223 395.5 Q239 415 256 430 Q187 478 149 555 Q111 632 111 724 L111 746 Q111 824 135 889 Q159 954 203 1001.5 Q247 1049 308.5 1075.5 Q370 1102 444 1102 Q509 1102 564 1082 L838 1082 L838 950 L715 966 Q746 921 762.5 865.5 Q779 810 779 746 L779 724 Q779 652 755 588 Q731 524 687 476 Q643 428 582 400 Q521 372 446 372 Q396 372 349 386 Q330 368 316 342 Q302 316 302 280 Q302 231 329.5 212.5 Q357 194 397 194 L532 194 Z M227 -128 Q227 -164 239 -195.5 Q251 -227 275.5 -250.5 Q300 -274 337 -287.5 Q374 -301 424 -301 Q484 -301 529.5 -282 Q575 -263 605.5 -233.5 Q636 -204 651.5 -168.5 Q667 -133 667 -99 Q667 -63 660 -34 Q653 -5 635.5 15 Q618 35 589.5 45.5 Q561 56 519 56 L366 56 Q352 56 337.5 57.5 Q323 59 309 61 Q275 39 251 -12 Q227 -63 227 -128 Z M275 724 Q275 683 287 644 Q299 605 321 574.5 Q343 544 374.5 525.5 Q406 507 446 507 Q485 507 516.5 525.5 Q548 544 569.5 574.5 Q591 605 603 644 Q615 683 615 724 L615 747 Q615 791 603 831 Q591 871 568.5 901 Q546 931 514.5 949 Q483 967 444 967 Q405 967 374 949 Q343 931 321 901 Q299 871 287 831 Q275 791 275 747 L275 724 Z " />
<glyph glyph-name="h" unicode="h" horiz-adv-x="959" d="M148 1536 L314 1536 L314 955 Q356 1024 415.5 1063 Q475 1102 548 1102 Q608 1102 657 1080.5 Q706 1059 740.5 1011.5 Q775 964 793.5 889.5 Q812 815 812 708 L812 0 L647 0 L647 710 Q647 779 636.5 827 Q626 875 606.5 904.5 Q587 934 558.5 947.5 Q530 961 493 961 Q462 961 434.5 948 Q407 935 384.5 912 Q362 889 344.5 857.5 Q327 826 314 788 L314 0 L148 0 L148 1536 Z " />
<glyph glyph-name="i" unicode="i" horiz-adv-x="489" >
<g transform="translate(-1,0)" >
<path fill="black" d="M163 0 L163 1082 L330 1082 L330 0 L163 0 Z " />
</g>
<g transform="translate(633,0)" >
<path fill="black" d="M-386 1280 Q-432 1280 -457.5 1308 Q-483 1336 -483 1378 Q-483 1420 -457.5 1448.5 Q-432 1477 -386 1477 Q-341 1477 -315.5 1448.5 Q-290 1420 -290 1378 Q-290 1336 -315.5 1308 Q-341 1280 -386 1280 Z " />
</g>
</glyph>
<glyph glyph-name="j" unicode="j" horiz-adv-x="485" d="M-10 -285 Q7 -290 24.5 -292.5 Q42 -295 57 -295 Q106 -295 131.5 -256.5 Q157 -218 157 -129 L157 1082 L325 1082 L325 -129 Q325 -279 264 -358 Q203 -437 85 -437 Q62 -437 37 -432 Q12 -427 -10 -419 L-10 -285 Z M239 1280 Q193 1280 167.5 1308 Q142 1336 142 1378 Q142 1420 167.5 1448.5 Q193 1477 239 1477 Q284 1477 309.5 1448.5 Q335 1420 335 1378 Q335 1336 309.5 1308 Q284 1280 239 1280 Z " />
<glyph glyph-name="k" unicode="k" horiz-adv-x="901" d="M151 1536 L317 1536 L317 612 L384 706 L622 1082 L823 1082 L507 637 L854 0 L661 0 L403 495 L317 382 L317 0 L151 0 L151 1536 Z " />
<glyph glyph-name="l" unicode="l" horiz-adv-x="575" d="M158 1536 L324 1536 L324 267 Q324 221 330.5 192.5 Q337 164 349 148.5 Q361 133 377.5 128 Q394 123 413 123 Q431 123 449 127 Q467 131 478 135 L479 -1 Q459 -8 430 -14 Q401 -20 364 -20 Q319 -20 281.5 -5.5 Q244 9 216.5 42.5 Q189 76 173.5 131.5 Q158 187 158 268 L158 1536 Z " />
<glyph glyph-name="m" unicode="m" horiz-adv-x="1452" d="M149 1082 L306 1082 L311 961 Q353 1027 412.5 1064.5 Q472 1102 552 1102 Q629 1102 687.5 1062 Q746 1022 778 934 Q819 1009 883.5 1055.5 Q948 1102 1036 1102 Q1099 1102 1148.5 1079.5 Q1198 1057 1232.5 1009 Q1267 961 1285 887 Q1303 813 1303 710 L1303 0 L1138 0 L1138 710 Q1138 784 1127 832 Q1116 880 1095.5 909 Q1075 938 1046 949.5 Q1017 961 981 961 Q945 960 916.5 944.5 Q888 929 866 903 Q844 877 829.5 842 Q815 807 808 768 Q809 757 809 745 Q809 733 809 721 L809 0 L643 0 L643 713 Q643 781 632 828 Q621 875 600.5 904.5 Q580 934 551.5 947.5 Q523 961 487 961 Q420 961 378.5 914.5 Q337 868 315 797 L315 0 L149 0 L149 1082 Z " />
<glyph glyph-name="n" unicode="n" horiz-adv-x="961" d="M149 1082 L306 1082 L311 947 Q355 1019 416 1060.5 Q477 1102 553 1102 Q613 1102 661 1080.5 Q709 1059 742.5 1011.5 Q776 964 794.5 889.5 Q813 815 813 708 L813 0 L647 0 L647 710 Q647 779 637 827 Q627 875 607.5 904.5 Q588 934 559.5 947.5 Q531 961 494 961 Q463 961 436 948 Q409 935 386.5 911.5 Q364 888 346 856 Q328 824 315 786 L315 0 L149 0 L149 1082 Z " />
<glyph glyph-name="o" unicode="o" horiz-adv-x="980" d="M116 590 Q116 714 143 809.5 Q170 905 219 970 Q268 1035 336.5 1068.5 Q405 1102 488 1102 Q572 1102 641.5 1068.5 Q711 1035 760.5 970 Q810 905 837 809.5 Q864 714 864 590 L864 492 Q864 368 837 272.5 Q810 177 761 112 Q712 47 643 13.5 Q574 -20 491 -20 Q407 -20 337.5 13.5 Q268 47 219 112 Q170 177 143 272.5 Q116 368 116 492 L116 590 Z M282 492 Q282 312 337 215 Q392 118 491 118 Q594 118 645.5 215 Q697 312 697 492 L697 590 Q697 678 683 747.5 Q669 817 642 865 Q615 913 576.5 938.5 Q538 964 488 964 Q440 964 402 938.5 Q364 913 337 865 Q310 817 296 747.5 Q282 678 282 590 L282 492 Z " />
<glyph glyph-name="p" unicode="p" horiz-adv-x="971" d="M150 1082 L303 1082 L310 963 Q349 1030 405.5 1066 Q462 1102 539 1102 Q694 1102 774.5 977.5 Q855 853 855 586 L855 493 Q855 237 774.5 108.5 Q694 -20 542 -20 Q467 -20 411 12.5 Q355 45 316 105 L316 -416 L150 -416 L150 1082 Z M316 251 Q340 192 382 155 Q424 118 493 118 Q597 118 642.5 211.5 Q688 305 688 493 L688 586 Q688 775 641.5 868 Q595 961 491 961 Q424 961 381.5 921 Q339 881 316 820 L316 251 Z " />
<glyph glyph-name="q" unicode="q" horiz-adv-x="978" d="M654 102 Q616 43 561.5 11.5 Q507 -20 435 -20 Q284 -20 200 108.5 Q116 237 116 493 L116 586 Q116 853 199.5 977.5 Q283 1102 437 1102 Q512 1102 567.5 1067 Q623 1032 661 967 L670 1082 L820 1082 L820 -416 L654 -416 L654 102 Z M654 828 Q629 886 586.5 925 Q544 964 479 964 Q375 964 328.5 869.5 Q282 775 282 586 L282 493 Q282 305 328 211.5 Q374 118 479 118 Q545 118 587 154.5 Q629 191 654 250 L654 828 Z " />
<glyph glyph-name="r" unicode="r" horiz-adv-x="642" d="M150 1082 L309 1082 L314 952 Q346 1021 393 1061.5 Q440 1102 506 1102 Q522 1102 541.5 1098 Q561 1094 570 1089 L568 921 Q551 925 533 926.5 Q515 928 497 928 Q426 928 381.5 886 Q337 844 316 769 L316 0 L150 0 L150 1082 Z " />
<glyph glyph-name="s" unicode="s" horiz-adv-x="898" d="M275 316 Q277 257 293.5 219 Q310 181 335 158.5 Q360 136 391.5 127 Q423 118 455 118 Q533 118 573.5 162 Q614 206 614 275 Q614 307 604.5 333 Q595 359 572.5 383 Q550 407 513 429.5 Q476 452 420 477 Q353 509 301 539.5 Q249 570 213 606.5 Q177 643 158.5 690 Q140 737 140 800 Q140 863 161.5 918.5 Q183 974 223.5 1014.5 Q264 1055 321 1078.5 Q378 1102 450 1102 Q525 1102 585 1077 Q645 1052 686.5 1008.5 Q728 965 750 905.5 Q772 846 772 776 L606 776 Q606 812 596 846 Q586 880 566.5 906 Q547 932 517.5 948 Q488 964 450 964 Q412 964 384 950.5 Q356 937 338 915 Q320 893 311.5 864.5 Q303 836 303 806 Q303 775 311 752 Q319 729 340 708 Q361 687 397 667 Q433 647 489 622 Q561 589 615 557 Q669 525 705 486.5 Q741 448 759 400 Q777 352 777 287 Q777 217 754 160 Q731 103 689 63 Q647 23 587 1.5 Q527 -20 453 -20 Q370 -20 306.5 8 Q243 36 199.5 82.5 Q156 129 134 189.5 Q112 250 112 316 L275 316 Z " />
<glyph glyph-name="t" unicode="t" horiz-adv-x="614" d="M197 953 L60 953 L60 1082 L197 1082 L197 1349 L363 1349 L363 1082 L512 1082 L512 953 L363 953 L363 267 Q363 221 369.5 192.5 Q376 164 388 148.5 Q400 133 416.5 128 Q433 123 452 123 Q470 123 488 127 Q506 131 517 135 L518 -1 Q498 -8 469 -14 Q440 -20 403 -20 Q358 -20 320.5 -5.5 Q283 9 255.5 42.5 Q228 76 212.5 131.5 Q197 187 197 268 L197 953 Z " />
<glyph glyph-name="u" unicode="u" horiz-adv-x="960" d="M146 1082 L312 1082 L312 384 Q312 307 323.5 256.5 Q335 206 354.5 176 Q374 146 399 134 Q424 122 452 122 Q530 122 576 164.5 Q622 207 645 278 L645 1082 L812 1082 L812 0 L654 0 L650 110 Q612 48 554 14 Q496 -20 415 -20 Q355 -20 305.5 2.5 Q256 25 220.5 74 Q185 123 165.5 200 Q146 277 146 386 L146 1082 Z " />
<glyph glyph-name="v" unicode="v" horiz-adv-x="865" d="M71 1082 L243 1082 L433 254 L619 1082 L791 1082 L503 0 L360 0 L71 1082 Z " />
<glyph glyph-name="w" unicode="w" horiz-adv-x="1255" d="M82 1082 L245 1082 L385 289 L562 1082 L689 1082 L868 280 L1006 1082 L1170 1082 L945 0 L807 0 L624 820 L444 0 L306 0 L82 1082 Z " />
<glyph glyph-name="x" unicode="x" horiz-adv-x="877" d="M341 549 L88 1082 L272 1082 L438 671 L605 1082 L790 1082 L535 549 L799 0 L614 0 L438 424 L263 0 L78 0 L341 549 Z " />
<glyph glyph-name="y" unicode="y" horiz-adv-x="852" d="M126 -287 Q133 -289 145 -290.5 Q157 -292 163 -292 Q197 -292 221.5 -282 Q246 -272 265 -250 Q284 -228 298.5 -193.5 Q313 -159 328 -110 L359 -9 L64 1082 L244 1082 L431 276 L611 1082 L789 1082 L459 -170 Q449 -209 431 -255.5 Q413 -302 384 -342.5 Q355 -383 312.5 -410 Q270 -437 211 -437 Q188 -437 165.5 -431.5 Q143 -426 126 -422 L126 -287 Z " />
<glyph glyph-name="z" unicode="z" horiz-adv-x="877" d="M114 122 L571 943 L124 943 L124 1082 L754 1082 L754 963 L295 138 L773 138 L773 0 L114 0 L114 122 Z " />
<glyph glyph-name="braceleft" unicode="&#x7b;" horiz-adv-x="620" d="M515 -377 Q438 -348 386.5 -301.5 Q335 -255 304 -194.5 Q273 -134 260 -62.5 Q247 9 247 88 L247 300 Q247 355 238.5 400 Q230 445 211.5 476.5 Q193 508 164.5 525.5 Q136 543 96 543 L96 677 Q136 677 164.5 694 Q193 711 211.5 743 Q230 775 238.5 820 Q247 865 247 920 L247 1132 Q247 1211 260 1282.5 Q273 1354 304 1414.5 Q335 1475 386.5 1521.5 Q438 1568 515 1597 L549 1494 Q508 1474 480 1439 Q452 1404 435 1357 Q418 1310 411 1253 Q404 1196 404 1132 L404 920 Q404 818 371.5 736.5 Q339 655 267 610 Q339 565 371.5 483.5 Q404 402 404 300 L404 88 Q404 24 411 -33 Q418 -90 435 -136.5 Q452 -183 480 -218 Q508 -253 549 -273 L515 -377 Z " />
<glyph glyph-name="bar" unicode="&#x7c;" horiz-adv-x="500" d="M190 -270 L190 1456 L313 1456 L313 -270 L190 -270 Z " />
<glyph glyph-name="braceright" unicode="&#x7d;" horiz-adv-x="621" d="M70 -273 Q112 -253 140 -218 Q168 -183 185 -136.5 Q202 -90 209 -33 Q216 24 216 88 L216 300 Q216 406 251.5 487 Q287 568 365 609 Q287 651 251.5 732.5 Q216 814 216 920 L216 1132 Q216 1196 209 1253 Q202 1310 185 1357 Q168 1404 140 1439 Q112 1474 71 1494 L104 1597 Q181 1568 232.5 1521.5 Q284 1475 315 1414.5 Q346 1354 359 1282.5 Q372 1211 372 1132 L372 920 Q372 865 380.5 820 Q389 775 407.5 743 Q426 711 455 694 Q484 677 524 677 L524 543 Q484 543 455 525.5 Q426 508 407.5 476.5 Q389 445 380.5 400 Q372 355 372 300 L372 88 Q372 9 359 -62.5 Q346 -134 315 -194.5 Q284 -255 232.5 -301.5 Q181 -348 104 -377 L70 -273 Z " />
<glyph glyph-name="asciitilde" unicode="&#x7e;" horiz-adv-x="1135" d="M144 440 Q144 516 162 581.5 Q180 647 212 695.5 Q244 744 289.5 771.5 Q335 799 389 799 Q452 799 503 762.5 Q554 726 606 657 Q646 603 676.5 578.5 Q707 554 743 554 Q769 554 791 570 Q813 586 828.5 615 Q844 644 852.5 684.5 Q861 725 861 774 L991 774 Q991 699 973 632.5 Q955 566 922.5 516 Q890 466 845.5 437 Q801 408 747 408 Q683 408 633 443.5 Q583 479 528 550 Q490 600 459 625.5 Q428 651 393 651 Q339 651 309 596 Q279 541 279 441 L144 440 Z " />
<glyph glyph-name="uni00A0" unicode="&#xa0;" horiz-adv-x="427" />
<glyph glyph-name="exclamdown" unicode="&#xa1;" horiz-adv-x="501" d="M181 687 L325 687 L340 -361 L165 -361 L181 687 Z M250 905 Q204 905 178.5 933.5 Q153 962 153 1004 Q153 1045 178.5 1073 Q204 1101 250 1101 Q295 1101 321 1073 Q347 1045 347 1004 Q347 962 321 933.5 Q295 905 250 905 Z " />
<glyph glyph-name="cent" unicode="&#xa2;" horiz-adv-x="1058" d="M424 -12 Q280 16 208.5 145.5 Q137 275 137 484 L137 598 Q137 808 208.5 937.5 Q280 1067 424 1095 L424 1318 L564 1318 L564 1097 Q624 1087 673 1057 Q722 1027 757.5 978.5 Q793 930 813 863 Q833 796 834 713 L677 713 Q673 841 627 902.5 Q581 964 502 964 Q444 964 405.5 938 Q367 912 344.5 864 Q322 816 313 748.5 Q304 681 304 598 L304 484 Q304 400 313 332.5 Q322 265 344.5 217.5 Q367 170 405.5 144 Q444 118 503 118 Q538 118 569 130 Q600 142 623.5 168.5 Q647 195 661 237 Q675 279 677 339 L834 339 Q833 267 811.5 206.5 Q790 146 754 100 Q718 54 669 24.5 Q620 -5 564 -15 L564 -245 L424 -245 L424 -12 Z " />
<glyph glyph-name="sterling" unicode="&#xa3;" horiz-adv-x="1008" d="M126 142 L190 142 Q209 149 221.5 175.5 Q234 202 241 238.5 Q248 275 251 316 Q254 357 253 391 L249 630 L123 630 L123 771 L246 771 L241 1039 Q239 1143 263 1224 Q287 1305 331.5 1361 Q376 1417 438 1446.5 Q500 1476 573 1476 Q650 1476 710 1448 Q770 1420 811 1368.5 Q852 1317 873.5 1245.5 Q895 1174 895 1087 L727 1087 Q727 1154 714 1201 Q701 1248 678.5 1277.5 Q656 1307 626.5 1320.5 Q597 1334 565 1334 Q532 1334 503.5 1315 Q475 1296 454.5 1258.5 Q434 1221 422 1166 Q410 1111 410 1039 L416 771 L657 771 L657 630 L419 630 L425 393 Q427 318 413.5 253.5 Q400 189 369 142 L910 142 L910 0 L126 0 L126 142 Z " />
<glyph glyph-name="currency" unicode="&#xa4;" horiz-adv-x="1339" d="M123 96 L249 243 Q204 320 179 412 Q154 504 154 608 Q154 717 181 812.5 Q208 908 256 986 L123 1142 L226 1264 L358 1109 Q424 1169 503.5 1201.5 Q583 1234 671 1234 Q761 1234 841 1200.5 Q921 1167 987 1107 L1122 1265 L1225 1142 L1089 982 Q1137 904 1163.5 809.5 Q1190 715 1190 608 Q1190 505 1166 413.5 Q1142 322 1097 246 L1225 96 L1122 -27 L998 118 Q931 52 848 16 Q765 -20 671 -20 Q579 -20 496.5 15.5 Q414 51 347 116 L226 -26 L123 96 Z M671 135 Q750 135 820 172 Q890 209 942 273.5 Q994 338 1024 424 Q1054 510 1054 608 Q1054 706 1024 792 Q994 878 942 942 Q890 1006 820 1043 Q750 1080 671 1080 Q592 1080 522.5 1043 Q453 1006 401 942 Q349 878 319 792 Q289 706 289 608 Q289 510 319 424 Q349 338 401 273.5 Q453 209 522.5 172 Q592 135 671 135 Z " />
<glyph glyph-name="yen" unicode="&#xa5;" horiz-adv-x="922" d="M372 323 L133 323 L133 437 L372 437 L372 613 L133 613 L133 728 L338 728 L63 1456 L250 1456 L461 815 L673 1456 L858 1456 L584 728 L780 728 L780 613 L544 613 L544 437 L780 437 L780 323 L544 323 L544 0 L372 0 L372 323 Z " />
<glyph glyph-name="brokenbar" unicode="&#xa6;" horiz-adv-x="495" d="M163 -270 L163 516 L326 516 L326 -270 L163 -270 Z M163 698 L163 1456 L326 1456 L326 698 L163 698 Z " />
<glyph glyph-name="section" unicode="&#xa7;" horiz-adv-x="1058" d="M288 -62 Q288 -146 309 -202.5 Q330 -259 363 -293.5 Q396 -328 437.5 -342.5 Q479 -357 521 -357 Q571 -357 610 -340 Q649 -323 675.5 -293 Q702 -263 716 -222 Q730 -181 730 -133 Q730 -85 718 -49 Q706 -13 677.5 17 Q649 47 601 74.5 Q553 102 481 132 Q398 161 332 195.5 Q266 230 220 278.5 Q174 327 149.5 393 Q125 459 125 551 Q125 644 163.5 713 Q202 782 271 821 Q214 871 184 940.5 Q154 1010 154 1113 Q154 1196 180.5 1263 Q207 1330 256 1377.5 Q305 1425 374.5 1451 Q444 1477 530 1477 Q618 1477 688 1449 Q758 1421 806.5 1366 Q855 1311 881 1230.5 Q907 1150 907 1046 L741 1046 Q741 1107 727.5 1160.5 Q714 1214 687.5 1253.5 Q661 1293 621.5 1316 Q582 1339 530 1339 Q475 1339 435.5 1321.5 Q396 1304 370.5 1273.5 Q345 1243 332.5 1202 Q320 1161 320 1115 Q320 1064 330.5 1026.5 Q341 989 368.5 959 Q396 929 444 903.5 Q492 878 567 851 Q652 819 718.5 784 Q785 749 830.5 701 Q876 653 900 588 Q924 523 924 431 Q924 337 885 269 Q846 201 775 162 Q835 113 865.5 44 Q896 -25 896 -131 Q896 -217 869 -285 Q842 -353 793 -399.5 Q744 -446 675 -470.5 Q606 -495 521 -495 Q447 -495 375.5 -473 Q304 -451 247.5 -401 Q191 -351 156.5 -268.5 Q122 -186 122 -64 L288 -62 Z M543 282 Q572 271 599.5 260 Q627 249 652 237 Q704 260 731.5 311 Q759 362 759 428 Q759 477 747 514.5 Q735 552 705.5 583.5 Q676 615 626.5 642.5 Q577 670 503 697 Q472 709 443.5 720.5 Q415 732 389 746 Q338 723 314.5 672 Q291 621 291 553 Q291 501 301.5 462.5 Q312 424 340 393 Q368 362 417 336 Q466 310 543 282 Z " />
<glyph glyph-name="dieresis" unicode="&#xa8;" horiz-adv-x="858" >
<g transform="translate(600,2)" >
<path fill="black" d="M-386 1280 Q-432 1280 -457.5 1308 Q-483 1336 -483 1378 Q-483 1420 -457.5 1448.5 Q-432 1477 -386 1477 Q-341 1477 -315.5 1448.5 Q-290 1420 -290 1378 Q-290 1336 -315.5 1308 Q-341 1280 -386 1280 Z " />
</g>
<g transform="translate(994,0)" >
<path fill="black" d="M-386 1280 Q-432 1280 -457.5 1308 Q-483 1336 -483 1378 Q-483 1420 -457.5 1448.5 Q-432 1477 -386 1477 Q-341 1477 -315.5 1448.5 Q-290 1420 -290 1378 Q-290 1336 -315.5 1308 Q-341 1280 -386 1280 Z " />
</g>
</glyph>
<glyph glyph-name="copyright" unicode="&#xa9;" horiz-adv-x="1484" d="M739 -21 Q611 -21 498.5 36.5 Q386 94 302 195 Q218 296 169.5 433 Q121 570 121 729 Q121 888 169.5 1024.5 Q218 1161 302 1261.5 Q386 1362 498.5 1419 Q611 1476 739 1476 Q867 1476 979.5 1419 Q1092 1362 1176 1261.5 Q1260 1161 1308.5 1024.5 Q1357 888 1357 729 Q1357 570 1308.5 433 Q1260 296 1176 195 Q1092 94 979.5 36.5 Q867 -21 739 -21 Z M739 89 Q847 89 942.5 138 Q1038 187 1109 273.5 Q1180 360 1221.5 477 Q1263 594 1263 729 Q1263 864 1221.5 980.5 Q1180 1097 1109 1182.5 Q1038 1268 942.5 1317 Q847 1366 739 1366 Q631 1366 535 1317 Q439 1268 368 1182.5 Q297 1097 255.5 980.5 Q214 864 214 729 Q214 594 255.5 477 Q297 360 368 273.5 Q439 187 535 138 Q631 89 739 89 Z M430 784 Q430 870 451 941 Q472 1012 510.5 1063 Q549 1114 604 1142.5 Q659 1171 728 1171 Q793 1171 846 1151.5 Q899 1132 936 1093 Q973 1054 993 995 Q1013 936 1013 858 L898 858 Q898 961 854.5 1007 Q811 1053 728 1053 Q683 1053 649 1033 Q615 1013 591.5 977 Q568 941 556.5 892 Q545 843 545 785 L545 673 Q545 614 556.5 564.5 Q568 515 591.5 479.5 Q615 444 649 424 Q683 404 728 404 Q811 404 854 449 Q897 494 897 600 L1012 600 Q1012 521 992 462 Q972 403 935 364 Q898 325 845.5 305.5 Q793 286 728 286 Q659 286 604 314 Q549 342 510.5 393 Q472 444 451 515.5 Q430 587 430 673 L430 784 Z " />
<glyph glyph-name="guillemotleft" unicode="&#xab;" horiz-adv-x="845" >
<g transform="translate(-5,-8)" >
<path fill="black" d="M134 543 L134 562 L352 948 L469 948 L279 553 L469 157 L352 157 L134 543 Z " />
</g>
<g transform="translate(277,0)" >
<path fill="black" d="M134 543 L134 562 L352 948 L469 948 L279 553 L469 157 L352 157 L134 543 Z " />
</g>
</glyph>
<glyph glyph-name="logicalnot" unicode="&#xac;" horiz-adv-x="957" d="M147 794 L774 794 L774 378 L634 378 L634 648 L147 648 L147 794 Z " />
<glyph glyph-name="uni00AD" unicode="&#xad;" horiz-adv-x="600" >
<g transform="translate(7,0)" >
<path fill="black" d="M103 557 L103 695 L493 695 L493 557 L103 557 Z " />
</g>
</glyph>
<glyph glyph-name="registered" unicode="&#xae;" horiz-adv-x="1485" d="M737 -21 Q609 -21 496.5 36.5 Q384 94 300 195 Q216 296 167.5 433 Q119 570 119 729 Q119 888 167.5 1024.5 Q216 1161 300 1261.5 Q384 1362 496.5 1419 Q609 1476 737 1476 Q865 1476 977.5 1419 Q1090 1362 1174 1261.5 Q1258 1161 1306.5 1024.5 Q1355 888 1355 729 Q1355 570 1306.5 433 Q1258 296 1174 195 Q1090 94 977.5 36.5 Q865 -21 737 -21 Z M737 89 Q845 89 940.5 138 Q1036 187 1107 273.5 Q1178 360 1219.5 477 Q1261 594 1261 729 Q1261 864 1219.5 980.5 Q1178 1097 1107 1182.5 Q1036 1268 940.5 1317 Q845 1366 737 1366 Q629 1366 533 1317 Q437 1268 366 1182.5 Q295 1097 253.5 980.5 Q212 864 212 729 Q212 594 253.5 477 Q295 360 366 273.5 Q437 187 533 138 Q629 89 737 89 Z M492 1164 L728 1164 Q857 1164 931 1101 Q1005 1038 1005 910 Q1005 847 976.5 797.5 Q948 748 894 718 Q953 691 975.5 637 Q998 583 998 513 L998 461 Q998 423 1001.5 390 Q1005 357 1013 334 L1013 318 L897 318 Q893 331 890.5 351 Q888 371 886.5 392 Q885 413 885 432 Q885 451 885 462 L885 512 Q885 587 855.5 622.5 Q826 658 753 658 L605 658 L605 318 L492 318 L492 1164 Z M742 775 Q772 776 799.5 784.5 Q827 793 847.5 809.5 Q868 826 880 850.5 Q892 875 892 907 Q892 945 883.5 972 Q875 999 856 1016 Q837 1033 805.5 1040.5 Q774 1048 728 1048 L605 1048 L605 775 L742 775 Z " />
<glyph glyph-name="overscore" unicode="&#xaf;" horiz-adv-x="833" d="M165 1314 L165 1444 L674 1444 L674 1314 L165 1314 Z " />
<glyph glyph-name="degree" unicode="&#xb0;" horiz-adv-x="753" d="M377 966 Q331 966 290.5 985.5 Q250 1005 219.5 1039.5 Q189 1074 171.5 1120 Q154 1166 154 1219 Q154 1272 171.5 1319 Q189 1366 219.5 1401 Q250 1436 290.5 1456.5 Q331 1477 377 1477 Q423 1477 463 1456.5 Q503 1436 533 1401 Q563 1366 580.5 1319 Q598 1272 598 1219 Q598 1166 580.5 1120 Q563 1074 533 1039.5 Q503 1005 463 985.5 Q423 966 377 966 Z M377 1083 Q402 1083 423.5 1093 Q445 1103 460.5 1121 Q476 1139 485 1164 Q494 1189 494 1219 Q494 1249 485 1275 Q476 1301 460.5 1320 Q445 1339 423.5 1349.5 Q402 1360 377 1360 Q353 1360 331 1349.5 Q309 1339 293 1320 Q277 1301 267.5 1275 Q258 1249 258 1219 Q258 1189 267.5 1164 Q277 1139 293 1121 Q309 1103 331 1093 Q353 1083 377 1083 Z " />
<glyph glyph-name="plusminus" unicode="&#xb1;" horiz-adv-x="931" d="M400 711 L121 711 L121 847 L400 847 L400 1267 L547 1267 L547 847 L813 847 L813 711 L547 711 L547 289 L400 289 L400 711 Z M155 138 L792 138 L792 1 L155 1 L155 138 Z " />
<glyph glyph-name="twosuperior" unicode="&#xb2;" horiz-adv-x="702" d="M149 666 L151 765 L365 1041 Q416 1104 435.5 1150 Q455 1196 455 1231 Q455 1284 432 1316.5 Q409 1349 367 1349 Q315 1349 290 1309 Q265 1269 265 1208 L136 1208 Q136 1261 151.5 1308 Q167 1355 196.5 1390 Q226 1425 268 1445.5 Q310 1466 363 1466 Q468 1466 526 1403.5 Q584 1341 584 1232 Q584 1193 573 1158 Q562 1123 542.5 1088.5 Q523 1054 496.5 1018 Q470 982 438 941 L316 783 L606 783 L606 666 L149 666 Z " />
<glyph glyph-name="threesuperior" unicode="&#xb3;" horiz-adv-x="702" d="M262 888 Q262 837 290.5 804.5 Q319 772 367 772 Q418 772 443.5 804.5 Q469 837 469 892 Q469 958 439 986.5 Q409 1015 356 1015 L291 1015 L291 1120 L356 1120 Q407 1120 433 1153 Q459 1186 459 1237 Q459 1285 437 1317 Q415 1349 364 1349 Q324 1349 297.5 1321.5 Q271 1294 271 1246 L141 1246 Q141 1297 158.5 1337.5 Q176 1378 206 1406.5 Q236 1435 276 1450.5 Q316 1466 361 1466 Q411 1466 452.5 1451.5 Q494 1437 524 1408.5 Q554 1380 570.5 1338.5 Q587 1297 587 1242 Q587 1187 558.5 1141.5 Q530 1096 479 1071 Q538 1049 568 1001.5 Q598 954 598 885 Q598 830 580 787 Q562 744 530 715 Q498 686 454.5 670.5 Q411 655 361 655 Q319 655 278 668.5 Q237 682 204.5 710.5 Q172 739 152 783 Q132 827 132 888 L262 888 Z " />
<glyph glyph-name="acute" unicode="&#xb4;" horiz-adv-x="625" d="M307 1536 L506 1536 L281 1246 L139 1246 L307 1536 Z " />
<glyph glyph-name="mu" unicode="&#xb5;" horiz-adv-x="1008" d="M165 1082 L329 1082 L329 458 Q329 352 341 285 Q353 218 374.5 181 Q396 144 425 130.5 Q454 117 487 117 Q562 117 605.5 158.5 Q649 200 671 272 L671 1082 L838 1082 L838 0 L685 0 L680 97 Q646 41 599 10 Q552 -21 489 -21 Q440 -21 400 -5 Q360 11 329 47 L329 -416 L165 -416 L165 1082 Z " />
<glyph glyph-name="paragraph" unicode="&#xb6;" horiz-adv-x="858" d="M543 0 L543 520 L477 520 Q387 520 318 555 Q249 590 201.5 652.5 Q154 715 130 801 Q106 887 106 988 Q106 1089 130 1174.5 Q154 1260 201.5 1322.5 Q249 1385 318 1420.5 Q387 1456 477 1456 L689 1456 L689 0 L543 0 Z " />
<glyph glyph-name="middot" unicode="&#xb7;" horiz-adv-x="530" d="M262 625 Q214 625 188 654 Q162 683 162 726 Q162 770 188 800 Q214 830 262 830 Q309 830 335 800 Q361 770 361 726 Q361 683 335 654 Q309 625 262 625 Z " />
<glyph glyph-name="cedilla" unicode="&#xb8;" horiz-adv-x="499" d="M142 -337 Q189 -337 221 -313 Q253 -289 253 -232 Q253 -206 246.5 -188.5 Q240 -171 225.5 -160 Q211 -149 189 -142.5 Q167 -136 136 -132 L160 0 L282 0 L273 -56 Q295 -61 315.5 -72 Q336 -83 352 -103.5 Q368 -124 378 -154.5 Q388 -185 388 -228 Q388 -321 327 -378 Q266 -435 147 -435 L142 -337 Z " />
<glyph glyph-name="onesuperior" unicode="&#xb9;" horiz-adv-x="702" d="M341 666 L341 1286 L186 1224 L186 1342 L456 1455 L470 1455 L470 666 L341 666 Z " />
<glyph glyph-name="guillemotright" unicode="&#xbb;" horiz-adv-x="843" >
<g transform="translate(15,0)" >
<path fill="black" d="M309 551 L118 948 L236 948 L453 560 L453 541 L236 155 L118 155 L309 551 Z " />
</g>
<g transform="translate(323,0)" >
<path fill="black" d="M309 551 L118 948 L236 948 L453 560 L453 541 L236 155 L118 155 L309 551 Z " />
</g>
</glyph>
<glyph glyph-name="onequarter" unicode="&#xbc;" horiz-adv-x="1388" d="M879 1320 L967 1259 L431 121 L343 182 L879 1320 Z M663 266 L943 789 L1074 789 L1074 293 L1150 293 L1150 175 L1074 175 L1074 0 L945 0 L945 175 L669 175 L663 266 Z M315 664 L315 1284 L160 1222 L160 1340 L430 1453 L444 1453 L444 664 L315 664 Z M945 293 L945 599 L932 574 L789 293 L945 293 Z " />
<glyph glyph-name="onehalf" unicode="&#xbd;" horiz-adv-x="1477" d="M334 664 L273 664 L273 1284 L118 1222 L118 1340 L388 1453 L402 1453 L402 809 L639 1312 L727 1251 L191 113 L103 174 L334 664 Z M746 99 L960 375 Q1011 438 1030.5 484 Q1050 530 1050 565 Q1050 618 1027 650.5 Q1004 683 962 683 Q910 683 885 643 Q860 603 860 542 L731 542 Q731 595 746.5 642 Q762 689 791.5 724 Q821 759 863 779.5 Q905 800 958 800 Q1063 800 1121 737.5 Q1179 675 1179 566 Q1179 527 1168 492 Q1157 457 1137.5 422.5 Q1118 388 1091.5 352 Q1065 316 1033 275 L911 117 L1201 117 L1201 0 L744 0 L746 99 Z " />
<glyph glyph-name="threequarters" unicode="&#xbe;" horiz-adv-x="1462" d="M333 663 Q300 671 270 689 Q240 707 217.5 734.5 Q195 762 181.5 800.5 Q168 839 168 888 L298 888 Q298 842 321.5 811 Q345 780 385 773 L482 978 Q454 1015 392 1015 L327 1015 L327 1120 L392 1120 Q443 1120 469 1153 Q495 1186 495 1237 Q495 1285 473 1317 Q451 1349 400 1349 Q360 1349 333.5 1321.5 Q307 1294 307 1246 L177 1246 Q177 1297 194.5 1337.5 Q212 1378 242 1406.5 Q272 1435 312 1450.5 Q352 1466 397 1466 Q491 1466 551.5 1417.5 Q612 1369 621 1275 L639 1312 L727 1251 L607 996 Q634 951 634 885 Q634 837 620 798.5 Q606 760 581.5 731.5 Q557 703 523 684.5 Q489 666 448 659 L191 113 L103 174 L333 663 Z M805 266 L1085 789 L1216 789 L1216 293 L1292 293 L1292 175 L1216 175 L1216 0 L1087 0 L1087 175 L811 175 L805 266 Z M1087 293 L1087 599 L1074 574 L931 293 L1087 293 Z M529 1078 Q522 1074 515 1071 Q518 1069 524 1067 L529 1078 Z " />
<glyph glyph-name="questiondown" unicode="&#xbf;" horiz-adv-x="848" d="M744 -20 Q744 -106 719 -174 Q694 -242 651 -289 Q608 -336 550 -360.5 Q492 -385 425 -385 Q350 -385 290.5 -359 Q231 -333 190 -284.5 Q149 -236 127.5 -166 Q106 -96 106 -7 Q106 63 121.5 123.5 Q137 184 163 238 Q189 292 222.5 340.5 Q256 389 292 434 Q334 486 347 546.5 Q360 607 360 683 L516 683 Q516 613 510 565 Q504 517 490 477 Q476 437 453.5 399.5 Q431 362 396 314 Q371 278 348.5 245 Q326 212 309 175.5 Q292 139 282 96 Q272 53 272 -3 Q272 -118 311 -179 Q350 -240 422 -240 Q454 -240 482 -226 Q510 -212 531.5 -184 Q553 -156 566 -115 Q579 -74 579 -20 L744 -20 Z M436 906 Q390 906 364.5 934.5 Q339 963 339 1005 Q339 1046 364.5 1074 Q390 1102 436 1102 Q481 1102 507 1074 Q533 1046 533 1005 Q533 963 507 934.5 Q481 906 436 906 Z " />
<glyph glyph-name="Agrave" unicode="&#xc0;" horiz-adv-x="1119" >
<path fill="black" d="M482 1456 L637 1456 L1053 0 L872 0 L773 389 L346 389 L247 0 L67 0 L482 1456 Z M737 531 L560 1231 L382 531 L737 531 Z " />
<g transform="translate(189,312)" >
<path fill="black" d="M304 1246 L84 1536 L281 1536 L450 1246 L304 1246 Z " />
</g>
</glyph>
<glyph glyph-name="Aacute" unicode="&#xc1;" horiz-adv-x="1119" >
<path fill="black" d="M482 1456 L637 1456 L1053 0 L872 0 L773 389 L346 389 L247 0 L67 0 L482 1456 Z M737 531 L560 1231 L382 531 L737 531 Z " />
<g transform="translate(333,312)" >
<path fill="black" d="M307 1536 L506 1536 L281 1246 L139 1246 L307 1536 Z " />
</g>
</glyph>
<glyph glyph-name="Acircumflex" unicode="&#xc2;" horiz-adv-x="1119" >
<path fill="black" d="M482 1456 L637 1456 L1053 0 L872 0 L773 389 L346 389 L247 0 L67 0 L482 1456 Z M737 531 L560 1231 L382 531 L737 531 Z " />
<g transform="translate(148,312)" >
<path fill="black" d="M165 1267 L365 1534 L463 1534 L665 1265 L665 1255 L530 1255 L414 1428 L299 1255 L165 1255 L165 1267 Z " />
</g>
</glyph>
<glyph glyph-name="Atilde" unicode="&#xc3;" horiz-adv-x="1119" >
<path fill="black" d="M482 1456 L637 1456 L1053 0 L872 0 L773 389 L346 389 L247 0 L67 0 L482 1456 Z M737 531 L560 1231 L382 531 L737 531 Z " />
<g transform="translate(148,317)" >
<path fill="black" d="M143 1254 Q143 1307 155.5 1350 Q168 1393 189.5 1424.5 Q211 1456 241 1473 Q271 1490 306 1490 Q338 1490 363 1474.5 Q388 1459 411 1440.5 Q434 1422 458 1406.5 Q482 1391 511 1391 Q541 1391 562 1423.5 Q583 1456 583 1507 L686 1497 Q686 1444 673.5 1400.5 Q661 1357 639.5 1326.5 Q618 1296 588 1279 Q558 1262 523 1262 Q485 1262 460 1277.5 Q435 1293 413.5 1312 Q392 1331 370.5 1346.5 Q349 1362 318 1362 Q288 1362 267.5 1330.5 Q247 1299 247 1249 L143 1254 Z " />
</g>
</glyph>
<glyph glyph-name="Adieresis" unicode="&#xc4;" horiz-adv-x="1119" d="M482 1456 L637 1456 L1053 0 L872 0 L773 389 L346 389 L247 0 L67 0 L482 1456 Z M737 531 L560 1231 L382 531 L737 531 Z M745 1592 Q699 1592 673.5 1620.5 Q648 1649 648 1691 Q648 1732 673.5 1760 Q699 1788 745 1788 Q790 1788 816 1760 Q842 1732 842 1691 Q842 1649 816 1620.5 Q790 1592 745 1592 Z M351 1594 Q305 1594 279.5 1622.5 Q254 1651 254 1693 Q254 1734 279.5 1762 Q305 1790 351 1790 Q396 1790 422 1762 Q448 1734 448 1693 Q448 1651 422 1622.5 Q396 1594 351 1594 Z " />
<glyph glyph-name="Aring" unicode="&#xc5;" horiz-adv-x="1119" d="M482 1456 L637 1456 L1053 0 L872 0 L773 389 L346 389 L247 0 L67 0 L482 1456 Z M737 531 L560 1231 L382 531 L737 531 Z M564 1527 Q525 1527 491.5 1542 Q458 1557 434 1584 Q410 1611 396.5 1647.5 Q383 1684 383 1726 Q383 1768 396.5 1805 Q410 1842 434 1869.5 Q458 1897 491.5 1913 Q525 1929 564 1929 Q603 1929 635.5 1913 Q668 1897 692 1869.5 Q716 1842 729.5 1805 Q743 1768 743 1726 Q743 1684 729.5 1647.5 Q716 1611 692 1584 Q668 1557 635.5 1542 Q603 1527 564 1527 Z M564 1611 Q608 1611 633 1644.5 Q658 1678 658 1726 Q658 1750 651.5 1771.5 Q645 1793 633 1809.5 Q621 1826 603.5 1835.5 Q586 1845 564 1845 Q542 1845 524 1835.5 Q506 1826 493.5 1809.5 Q481 1793 474.5 1771.5 Q468 1750 468 1726 Q468 1703 474.5 1682 Q481 1661 493.5 1645.5 Q506 1630 524 1620.5 Q542 1611 564 1611 Z " />
<glyph glyph-name="AE" unicode="&#xc6;" horiz-adv-x="1547" d="M684 1456 L1414 1456 L1414 1318 L920 1318 L935 827 L1353 827 L1353 690 L940 690 L957 138 L1461 138 L1461 0 L795 0 L784 364 L397 364 L247 0 L48 0 L684 1456 Z M779 520 L756 1237 L461 520 L779 520 Z " />
<glyph glyph-name="Ccedilla" unicode="&#xc7;" horiz-adv-x="1112" d="M492 -347 Q539 -347 571 -323 Q603 -299 603 -242 Q603 -216 596.5 -198.5 Q590 -181 575.5 -170 Q561 -159 539 -152.5 Q517 -146 486 -142 L509 -16 Q422 -3 353.5 45 Q285 93 237.5 172 Q190 251 164.5 358 Q139 465 139 595 L139 865 Q139 1005 169.5 1118 Q200 1231 257 1310.5 Q314 1390 395.5 1433 Q477 1476 579 1476 Q773 1476 877.5 1353.5 Q982 1231 996 992 L823 992 Q818 1082 802 1146.5 Q786 1211 756.5 1252.5 Q727 1294 683.5 1314 Q640 1334 579 1334 Q512 1334 462 1301 Q412 1268 378.5 1207.5 Q345 1147 328.5 1060.5 Q312 974 312 867 L312 595 Q312 493 326.5 406 Q341 319 372.5 256 Q404 193 453 157 Q502 121 571 121 Q634 121 679 140 Q724 159 754 200 Q784 241 800.5 305 Q817 369 823 460 L995 460 Q984 249 892 125.5 Q800 2 631 -17 L623 -66 Q645 -71 665.5 -82 Q686 -93 702 -113.5 Q718 -134 728 -164.5 Q738 -195 738 -238 Q738 -331 677 -388 Q616 -445 497 -445 L492 -347 Z " />
<glyph glyph-name="Egrave" unicode="&#xc8;" horiz-adv-x="977" >
<path fill="black" d="M169 1456 L875 1456 L875 1314 L341 1314 L341 822 L804 822 L804 681 L341 681 L341 142 L880 142 L880 0 L169 0 L169 1456 Z " />
<g transform="translate(150,321)" >
<path fill="black" d="M304 1246 L84 1536 L281 1536 L450 1246 L304 1246 Z " />
</g>
</glyph>
<glyph glyph-name="Eacute" unicode="&#xc9;" horiz-adv-x="977" >
<path fill="black" d="M169 1456 L875 1456 L875 1314 L341 1314 L341 822 L804 822 L804 681 L341 681 L341 142 L880 142 L880 0 L169 0 L169 1456 Z " />
<g transform="translate(294,321)" >
<path fill="black" d="M307 1536 L506 1536 L281 1246 L139 1246 L307 1536 Z " />
</g>
</glyph>
<glyph glyph-name="Ecircumflex" unicode="&#xca;" horiz-adv-x="977" >
<path fill="black" d="M169 1456 L875 1456 L875 1314 L341 1314 L341 822 L804 822 L804 681 L341 681 L341 142 L880 142 L880 0 L169 0 L169 1456 Z " />
<g transform="translate(109,321)" >
<path fill="black" d="M165 1267 L365 1534 L463 1534 L665 1265 L665 1255 L530 1255 L414 1428 L299 1255 L165 1255 L165 1267 Z " />
</g>
</glyph>
<glyph glyph-name="Edieresis" unicode="&#xcb;" horiz-adv-x="977" d="M169 1456 L875 1456 L875 1314 L341 1314 L341 822 L804 822 L804 681 L341 681 L341 142 L880 142 L880 0 L169 0 L169 1456 Z M706 1601 Q660 1601 634.5 1629.5 Q609 1658 609 1700 Q609 1741 634.5 1769 Q660 1797 706 1797 Q751 1797 777 1769 Q803 1741 803 1700 Q803 1658 777 1629.5 Q751 1601 706 1601 Z M312 1603 Q266 1603 240.5 1631.5 Q215 1660 215 1702 Q215 1743 240.5 1771 Q266 1799 312 1799 Q357 1799 383 1771 Q409 1743 409 1702 Q409 1660 383 1631.5 Q357 1603 312 1603 Z " />
<glyph glyph-name="Igrave" unicode="&#xcc;" horiz-adv-x="536" >
<path fill="black" d="M183 0 L183 1456 L355 1456 L355 0 L183 0 Z " />
<g transform="translate(-105,321)" >
<path fill="black" d="M304 1246 L84 1536 L281 1536 L450 1246 L304 1246 Z " />
</g>
</glyph>
<glyph glyph-name="Iacute" unicode="&#xcd;" horiz-adv-x="536" >
<path fill="black" d="M183 0 L183 1456 L355 1456 L355 0 L183 0 Z " />
<g transform="translate(39,321)" >
<path fill="black" d="M307 1536 L506 1536 L281 1246 L139 1246 L307 1536 Z " />
</g>
</glyph>
<glyph glyph-name="Icircumflex" unicode="&#xce;" horiz-adv-x="536" >
<path fill="black" d="M183 0 L183 1456 L355 1456 L355 0 L183 0 Z " />
<g transform="translate(-146,321)" >
<path fill="black" d="M165 1267 L365 1534 L463 1534 L665 1265 L665 1255 L530 1255 L414 1428 L299 1255 L165 1255 L165 1267 Z " />
</g>
</glyph>
<glyph glyph-name="Idieresis" unicode="&#xcf;" horiz-adv-x="536" >
<path fill="black" d="M183 0 L183 1456 L355 1456 L355 0 L183 0 Z " />
<g transform="translate(443,323)" >
<path fill="black" d="M-386 1280 Q-432 1280 -457.5 1308 Q-483 1336 -483 1378 Q-483 1420 -457.5 1448.5 Q-432 1477 -386 1477 Q-341 1477 -315.5 1448.5 Q-290 1420 -290 1378 Q-290 1336 -315.5 1308 Q-341 1280 -386 1280 Z " />
</g>
<g transform="translate(837,321)" >
<path fill="black" d="M-386 1280 Q-432 1280 -457.5 1308 Q-483 1336 -483 1378 Q-483 1420 -457.5 1448.5 Q-432 1477 -386 1477 Q-341 1477 -315.5 1448.5 Q-290 1420 -290 1378 Q-290 1336 -315.5 1308 Q-341 1280 -386 1280 Z " />
</g>
</glyph>
<glyph glyph-name="Eth" unicode="&#xd0;" horiz-adv-x="1114" d="M169 673 L51 673 L51 810 L169 810 L169 1456 L490 1456 Q598 1456 687 1416.5 Q776 1377 839.5 1300.5 Q903 1224 938 1110.5 Q973 997 973 850 L973 606 Q973 458 938.5 345 Q904 232 840 155.5 Q776 79 685 39.5 Q594 0 482 0 L169 0 L169 673 Z M482 142 Q647 142 724.5 261 Q802 380 802 606 L802 853 Q802 1086 724 1200 Q646 1314 490 1314 L341 1314 L341 810 L548 810 L548 673 L341 673 L341 142 L482 142 Z " />
<glyph glyph-name="Ntilde" unicode="&#xd1;" horiz-adv-x="1200" >
<path fill="black" d="M169 1456 L363 1456 L859 331 L859 1456 L1029 1456 L1029 0 L835 0 L341 1122 L341 0 L169 0 L169 1456 Z " />
<g transform="translate(185,317)" >
<path fill="black" d="M143 1254 Q143 1307 155.5 1350 Q168 1393 189.5 1424.5 Q211 1456 241 1473 Q271 1490 306 1490 Q338 1490 363 1474.5 Q388 1459 411 1440.5 Q434 1422 458 1406.5 Q482 1391 511 1391 Q541 1391 562 1423.5 Q583 1456 583 1507 L686 1497 Q686 1444 673.5 1400.5 Q661 1357 639.5 1326.5 Q618 1296 588 1279 Q558 1262 523 1262 Q485 1262 460 1277.5 Q435 1293 413.5 1312 Q392 1331 370.5 1346.5 Q349 1362 318 1362 Q288 1362 267.5 1330.5 Q247 1299 247 1249 L143 1254 Z " />
</g>
</glyph>
<glyph glyph-name="Ograve" unicode="&#xd2;" horiz-adv-x="1166" >
<path fill="black" d="M138 855 Q138 1007 170 1123 Q202 1239 260.5 1317.5 Q319 1396 400.5 1436 Q482 1476 582 1476 Q683 1476 765.5 1436 Q848 1396 906 1317.5 Q964 1239 995.5 1123 Q1027 1007 1027 855 L1027 601 Q1027 448 995.5 332 Q964 216 906.5 138 Q849 60 767 20 Q685 -20 584 -20 Q484 -20 402 20 Q320 60 261.5 138 Q203 216 170.5 332 Q138 448 138 601 L138 855 Z M854 857 Q854 1099 783.5 1213.5 Q713 1328 582 1328 Q453 1328 381 1213.5 Q309 1099 309 857 L309 601 Q309 479 328 389.5 Q347 300 382 241.5 Q417 183 468.5 155 Q520 127 584 127 Q715 127 784.5 242 Q854 357 854 601 L854 857 Z " />
<g transform="translate(210,317)" >
<path fill="black" d="M304 1246 L84 1536 L281 1536 L450 1246 L304 1246 Z " />
</g>
</glyph>
<glyph glyph-name="Oacute" unicode="&#xd3;" horiz-adv-x="1166" >
<path fill="black" d="M138 855 Q138 1007 170 1123 Q202 1239 260.5 1317.5 Q319 1396 400.5 1436 Q482 1476 582 1476 Q683 1476 765.5 1436 Q848 1396 906 1317.5 Q964 1239 995.5 1123 Q1027 1007 1027 855 L1027 601 Q1027 448 995.5 332 Q964 216 906.5 138 Q849 60 767 20 Q685 -20 584 -20 Q484 -20 402 20 Q320 60 261.5 138 Q203 216 170.5 332 Q138 448 138 601 L138 855 Z M854 857 Q854 1099 783.5 1213.5 Q713 1328 582 1328 Q453 1328 381 1213.5 Q309 1099 309 857 L309 601 Q309 479 328 389.5 Q347 300 382 241.5 Q417 183 468.5 155 Q520 127 584 127 Q715 127 784.5 242 Q854 357 854 601 L854 857 Z " />
<g transform="translate(354,317)" >
<path fill="black" d="M307 1536 L506 1536 L281 1246 L139 1246 L307 1536 Z " />
</g>
</glyph>
<glyph glyph-name="Ocircumflex" unicode="&#xd4;" horiz-adv-x="1166" >
<path fill="black" d="M138 855 Q138 1007 170 1123 Q202 1239 260.5 1317.5 Q319 1396 400.5 1436 Q482 1476 582 1476 Q683 1476 765.5 1436 Q848 1396 906 1317.5 Q964 1239 995.5 1123 Q1027 1007 1027 855 L1027 601 Q1027 448 995.5 332 Q964 216 906.5 138 Q849 60 767 20 Q685 -20 584 -20 Q484 -20 402 20 Q320 60 261.5 138 Q203 216 170.5 332 Q138 448 138 601 L138 855 Z M854 857 Q854 1099 783.5 1213.5 Q713 1328 582 1328 Q453 1328 381 1213.5 Q309 1099 309 857 L309 601 Q309 479 328 389.5 Q347 300 382 241.5 Q417 183 468.5 155 Q520 127 584 127 Q715 127 784.5 242 Q854 357 854 601 L854 857 Z " />
<g transform="translate(169,317)" >
<path fill="black" d="M165 1267 L365 1534 L463 1534 L665 1265 L665 1255 L530 1255 L414 1428 L299 1255 L165 1255 L165 1267 Z " />
</g>
</glyph>
<glyph glyph-name="Otilde" unicode="&#xd5;" horiz-adv-x="1166" >
<path fill="black" d="M138 855 Q138 1007 170 1123 Q202 1239 260.5 1317.5 Q319 1396 400.5 1436 Q482 1476 582 1476 Q683 1476 765.5 1436 Q848 1396 906 1317.5 Q964 1239 995.5 1123 Q1027 1007 1027 855 L1027 601 Q1027 448 995.5 332 Q964 216 906.5 138 Q849 60 767 20 Q685 -20 584 -20 Q484 -20 402 20 Q320 60 261.5 138 Q203 216 170.5 332 Q138 448 138 601 L138 855 Z M854 857 Q854 1099 783.5 1213.5 Q713 1328 582 1328 Q453 1328 381 1213.5 Q309 1099 309 857 L309 601 Q309 479 328 389.5 Q347 300 382 241.5 Q417 183 468.5 155 Q520 127 584 127 Q715 127 784.5 242 Q854 357 854 601 L854 857 Z " />
<g transform="translate(169,322)" >
<path fill="black" d="M143 1254 Q143 1307 155.5 1350 Q168 1393 189.5 1424.5 Q211 1456 241 1473 Q271 1490 306 1490 Q338 1490 363 1474.5 Q388 1459 411 1440.5 Q434 1422 458 1406.5 Q482 1391 511 1391 Q541 1391 562 1423.5 Q583 1456 583 1507 L686 1497 Q686 1444 673.5 1400.5 Q661 1357 639.5 1326.5 Q618 1296 588 1279 Q558 1262 523 1262 Q485 1262 460 1277.5 Q435 1293 413.5 1312 Q392 1331 370.5 1346.5 Q349 1362 318 1362 Q288 1362 267.5 1330.5 Q247 1299 247 1249 L143 1254 Z " />
</g>
</glyph>
<glyph glyph-name="Odieresis" unicode="&#xd6;" horiz-adv-x="1166" >
<path fill="black" d="M138 855 Q138 1007 170 1123 Q202 1239 260.5 1317.5 Q319 1396 400.5 1436 Q482 1476 582 1476 Q683 1476 765.5 1436 Q848 1396 906 1317.5 Q964 1239 995.5 1123 Q1027 1007 1027 855 L1027 601 Q1027 448 995.5 332 Q964 216 906.5 138 Q849 60 767 20 Q685 -20 584 -20 Q484 -20 402 20 Q320 60 261.5 138 Q203 216 170.5 332 Q138 448 138 601 L138 855 Z M854 857 Q854 1099 783.5 1213.5 Q713 1328 582 1328 Q453 1328 381 1213.5 Q309 1099 309 857 L309 601 Q309 479 328 389.5 Q347 300 382 241.5 Q417 183 468.5 155 Q520 127 584 127 Q715 127 784.5 242 Q854 357 854 601 L854 857 Z " />
<g transform="translate(758,319)" >
<path fill="black" d="M-386 1280 Q-432 1280 -457.5 1308 Q-483 1336 -483 1378 Q-483 1420 -457.5 1448.5 Q-432 1477 -386 1477 Q-341 1477 -315.5 1448.5 Q-290 1420 -290 1378 Q-290 1336 -315.5 1308 Q-341 1280 -386 1280 Z " />
</g>
<g transform="translate(1152,317)" >
<path fill="black" d="M-386 1280 Q-432 1280 -457.5 1308 Q-483 1336 -483 1378 Q-483 1420 -457.5 1448.5 Q-432 1477 -386 1477 Q-341 1477 -315.5 1448.5 Q-290 1420 -290 1378 Q-290 1336 -315.5 1308 Q-341 1280 -386 1280 Z " />
</g>
</glyph>
<glyph glyph-name="multiply" unicode="&#xd7;" horiz-adv-x="925" d="M112 286 L366 630 L115 970 L217 1081 L458 754 L700 1081 L802 970 L550 630 L804 286 L702 176 L459 505 L215 176 L112 286 Z " />
<glyph glyph-name="Oslash" unicode="&#xd8;" horiz-adv-x="1314" d="M274 132 Q214 211 180.5 328 Q147 445 147 601 L147 855 Q147 1007 179 1123 Q211 1239 269.5 1317.5 Q328 1396 409.5 1436 Q491 1476 591 1476 Q746 1476 853 1384 L913 1513 L1031 1513 L930 1295 Q981 1217 1008.5 1107.5 Q1036 998 1036 855 L1036 601 Q1036 448 1004.5 332 Q973 216 915.5 138 Q858 60 776 20 Q694 -20 593 -20 Q456 -20 356 53 L289 -91 L171 -91 L274 132 Z M782 1230 Q714 1328 591 1328 Q462 1328 390 1213.5 Q318 1099 318 857 L318 601 Q318 511 328 439.5 Q338 368 358 313 L782 1230 Z M423 199 Q456 162 499 144.5 Q542 127 593 127 Q724 127 793.5 242 Q863 357 863 601 L863 857 Q863 1000 838 1097 L423 199 Z " />
<glyph glyph-name="Ugrave" unicode="&#xd9;" horiz-adv-x="1114" >
<path fill="black" d="M152 1456 L323 1456 L323 435 Q323 347 340 286.5 Q357 226 387.5 189.5 Q418 153 461.5 137 Q505 121 558 121 Q611 121 654 137 Q697 153 727 189.5 Q757 226 773.5 286.5 Q790 347 790 435 L790 1456 L963 1456 L963 435 Q963 312 931 225.5 Q899 139 844.5 84.5 Q790 30 716 5 Q642 -20 558 -20 Q471 -20 396.5 5 Q322 30 267.5 84.5 Q213 139 182.5 225.5 Q152 312 152 435 L152 1456 Z " />
<g transform="translate(184,312)" >
<path fill="black" d="M304 1246 L84 1536 L281 1536 L450 1246 L304 1246 Z " />
</g>
</glyph>
<glyph glyph-name="Uacute" unicode="&#xda;" horiz-adv-x="1114" >
<path fill="black" d="M152 1456 L323 1456 L323 435 Q323 347 340 286.5 Q357 226 387.5 189.5 Q418 153 461.5 137 Q505 121 558 121 Q611 121 654 137 Q697 153 727 189.5 Q757 226 773.5 286.5 Q790 347 790 435 L790 1456 L963 1456 L963 435 Q963 312 931 225.5 Q899 139 844.5 84.5 Q790 30 716 5 Q642 -20 558 -20 Q471 -20 396.5 5 Q322 30 267.5 84.5 Q213 139 182.5 225.5 Q152 312 152 435 L152 1456 Z " />
<g transform="translate(328,312)" >
<path fill="black" d="M307 1536 L506 1536 L281 1246 L139 1246 L307 1536 Z " />
</g>
</glyph>
<glyph glyph-name="Ucircumflex" unicode="&#xdb;" horiz-adv-x="1114" >
<path fill="black" d="M152 1456 L323 1456 L323 435 Q323 347 340 286.5 Q357 226 387.5 189.5 Q418 153 461.5 137 Q505 121 558 121 Q611 121 654 137 Q697 153 727 189.5 Q757 226 773.5 286.5 Q790 347 790 435 L790 1456 L963 1456 L963 435 Q963 312 931 225.5 Q899 139 844.5 84.5 Q790 30 716 5 Q642 -20 558 -20 Q471 -20 396.5 5 Q322 30 267.5 84.5 Q213 139 182.5 225.5 Q152 312 152 435 L152 1456 Z " />
<g transform="translate(143,312)" >
<path fill="black" d="M165 1267 L365 1534 L463 1534 L665 1265 L665 1255 L530 1255 L414 1428 L299 1255 L165 1255 L165 1267 Z " />
</g>
</glyph>
<glyph glyph-name="Udieresis" unicode="&#xdc;" horiz-adv-x="1114" >
<path fill="black" d="M152 1456 L323 1456 L323 435 Q323 347 340 286.5 Q357 226 387.5 189.5 Q418 153 461.5 137 Q505 121 558 121 Q611 121 654 137 Q697 153 727 189.5 Q757 226 773.5 286.5 Q790 347 790 435 L790 1456 L963 1456 L963 435 Q963 312 931 225.5 Q899 139 844.5 84.5 Q790 30 716 5 Q642 -20 558 -20 Q471 -20 396.5 5 Q322 30 267.5 84.5 Q213 139 182.5 225.5 Q152 312 152 435 L152 1456 Z " />
<g transform="translate(732,314)" >
<path fill="black" d="M-386 1280 Q-432 1280 -457.5 1308 Q-483 1336 -483 1378 Q-483 1420 -457.5 1448.5 Q-432 1477 -386 1477 Q-341 1477 -315.5 1448.5 Q-290 1420 -290 1378 Q-290 1336 -315.5 1308 Q-341 1280 -386 1280 Z " />
</g>
<g transform="translate(1126,312)" >
<path fill="black" d="M-386 1280 Q-432 1280 -457.5 1308 Q-483 1336 -483 1378 Q-483 1420 -457.5 1448.5 Q-432 1477 -386 1477 Q-341 1477 -315.5 1448.5 Q-290 1420 -290 1378 Q-290 1336 -315.5 1308 Q-341 1280 -386 1280 Z " />
</g>
</glyph>
<glyph glyph-name="Yacute" unicode="&#xdd;" horiz-adv-x="1041" >
<path fill="black" d="M433 545 L60 1456 L253 1456 L520 706 L788 1456 L980 1456 L606 545 L606 0 L433 0 L433 545 Z " />
<g transform="translate(294,309)" >
<path fill="black" d="M307 1536 L506 1536 L281 1246 L139 1246 L307 1536 Z " />
</g>
</glyph>
<glyph glyph-name="Thorn" unicode="&#xde;" horiz-adv-x="1028" d="M169 1456 L334 1456 L334 1161 L531 1161 Q623 1161 694 1129 Q765 1097 813.5 1040.5 Q862 984 887 906.5 Q912 829 912 738 Q912 647 887 570 Q862 493 813.5 436.5 Q765 380 694 348 Q623 316 531 316 L334 316 L334 0 L169 0 L169 1456 Z M531 454 Q588 454 629 478.5 Q670 503 696 543 Q722 583 734 633.5 Q746 684 746 736 Q746 790 734 842 Q722 894 696 934 Q670 974 629 998.5 Q588 1023 531 1023 L334 1023 L334 454 L531 454 Z " />
<glyph glyph-name="germandbls" unicode="&#xdf;" horiz-adv-x="1043" d="M157 0 L157 1117 Q157 1225 179.5 1306 Q202 1387 243.5 1442 Q285 1497 344 1524.5 Q403 1552 475 1552 Q538 1552 591.5 1532 Q645 1512 685 1471 Q725 1430 747.5 1368 Q770 1306 770 1222 Q770 1144 756 1092 Q742 1040 725 998 Q708 956 694 916 Q680 876 680 821 Q680 774 698.5 736.5 Q717 699 745 664.5 Q773 630 805 595.5 Q837 561 865 520.5 Q893 480 911.5 430 Q930 380 930 315 Q930 230 908 167 Q886 104 846 62.5 Q806 21 749 0.5 Q692 -20 623 -20 Q592 -20 559.5 -14 Q527 -8 497 2.5 Q467 13 442 26.5 Q417 40 402 55 L437 193 Q449 182 468 168.5 Q487 155 510 143.5 Q533 132 559 124.5 Q585 117 612 117 Q651 117 680 132 Q709 147 727.5 173 Q746 199 755.5 233.5 Q765 268 765 308 Q765 357 746.5 395.5 Q728 434 700 469 Q672 504 640 538.5 Q608 573 580 614 Q552 655 533.5 705.5 Q515 756 515 823 Q515 886 529.5 932.5 Q544 979 562 1021 Q580 1063 594.5 1107 Q609 1151 609 1210 Q609 1310 570.5 1362 Q532 1414 474 1414 Q403 1414 363 1343 Q323 1272 323 1117 L323 0 L157 0 Z " />
<glyph glyph-name="agrave" unicode="&#xe0;" horiz-adv-x="938" >
<path fill="black" d="M644 0 Q636 22 630 53.5 Q624 85 620 118 Q603 90 580.5 65 Q558 40 530 21 Q502 2 469 -9 Q436 -20 397 -20 Q336 -20 285 0.5 Q234 21 197.5 60.5 Q161 100 141 158 Q121 216 121 292 Q121 371 145 436.5 Q169 502 216.5 549.5 Q264 597 334.5 623 Q405 649 498 649 L617 649 L617 772 Q617 875 579 920 Q541 965 466 965 Q429 965 399 951 Q369 937 348 912 Q327 887 316 853.5 Q305 820 305 782 L139 783 Q139 843 162.5 900 Q186 957 229.5 1002 Q273 1047 334.5 1074.5 Q396 1102 472 1102 Q540 1102 597 1083.5 Q654 1065 695.5 1025.5 Q737 986 760.5 923 Q784 860 784 770 L784 234 Q784 207 786 177 Q788 147 791.5 118 Q795 89 800.5 63 Q806 37 813 16 L813 0 L644 0 Z M617 529 L514 529 Q403 529 345.5 472 Q288 415 288 312 Q288 212 323.5 168.5 Q359 125 427 125 Q462 125 492 137.5 Q522 150 546.5 170 Q571 190 589 216.5 Q607 243 617 271 L617 529 Z " />
<g transform="translate(108,-1)" >
<path fill="black" d="M304 1246 L84 1536 L281 1536 L450 1246 L304 1246 Z " />
</g>
</glyph>
<glyph glyph-name="aacute" unicode="&#xe1;" horiz-adv-x="938" >
<path fill="black" d="M644 0 Q636 22 630 53.5 Q624 85 620 118 Q603 90 580.5 65 Q558 40 530 21 Q502 2 469 -9 Q436 -20 397 -20 Q336 -20 285 0.5 Q234 21 197.5 60.5 Q161 100 141 158 Q121 216 121 292 Q121 371 145 436.5 Q169 502 216.5 549.5 Q264 597 334.5 623 Q405 649 498 649 L617 649 L617 772 Q617 875 579 920 Q541 965 466 965 Q429 965 399 951 Q369 937 348 912 Q327 887 316 853.5 Q305 820 305 782 L139 783 Q139 843 162.5 900 Q186 957 229.5 1002 Q273 1047 334.5 1074.5 Q396 1102 472 1102 Q540 1102 597 1083.5 Q654 1065 695.5 1025.5 Q737 986 760.5 923 Q784 860 784 770 L784 234 Q784 207 786 177 Q788 147 791.5 118 Q795 89 800.5 63 Q806 37 813 16 L813 0 L644 0 Z M617 529 L514 529 Q403 529 345.5 472 Q288 415 288 312 Q288 212 323.5 168.5 Q359 125 427 125 Q462 125 492 137.5 Q522 150 546.5 170 Q571 190 589 216.5 Q607 243 617 271 L617 529 Z " />
<g transform="translate(252,-1)" >
<path fill="black" d="M307 1536 L506 1536 L281 1246 L139 1246 L307 1536 Z " />
</g>
</glyph>
<glyph glyph-name="acircumflex" unicode="&#xe2;" horiz-adv-x="938" >
<path fill="black" d="M644 0 Q636 22 630 53.5 Q624 85 620 118 Q603 90 580.5 65 Q558 40 530 21 Q502 2 469 -9 Q436 -20 397 -20 Q336 -20 285 0.5 Q234 21 197.5 60.5 Q161 100 141 158 Q121 216 121 292 Q121 371 145 436.5 Q169 502 216.5 549.5 Q264 597 334.5 623 Q405 649 498 649 L617 649 L617 772 Q617 875 579 920 Q541 965 466 965 Q429 965 399 951 Q369 937 348 912 Q327 887 316 853.5 Q305 820 305 782 L139 783 Q139 843 162.5 900 Q186 957 229.5 1002 Q273 1047 334.5 1074.5 Q396 1102 472 1102 Q540 1102 597 1083.5 Q654 1065 695.5 1025.5 Q737 986 760.5 923 Q784 860 784 770 L784 234 Q784 207 786 177 Q788 147 791.5 118 Q795 89 800.5 63 Q806 37 813 16 L813 0 L644 0 Z M617 529 L514 529 Q403 529 345.5 472 Q288 415 288 312 Q288 212 323.5 168.5 Q359 125 427 125 Q462 125 492 137.5 Q522 150 546.5 170 Q571 190 589 216.5 Q607 243 617 271 L617 529 Z " />
<g transform="translate(67,-1)" >
<path fill="black" d="M165 1267 L365 1534 L463 1534 L665 1265 L665 1255 L530 1255 L414 1428 L299 1255 L165 1255 L165 1267 Z " />
</g>
</glyph>
<glyph glyph-name="atilde" unicode="&#xe3;" horiz-adv-x="938" >
<path fill="black" d="M644 0 Q636 22 630 53.5 Q624 85 620 118 Q603 90 580.5 65 Q558 40 530 21 Q502 2 469 -9 Q436 -20 397 -20 Q336 -20 285 0.5 Q234 21 197.5 60.5 Q161 100 141 158 Q121 216 121 292 Q121 371 145 436.5 Q169 502 216.5 549.5 Q264 597 334.5 623 Q405 649 498 649 L617 649 L617 772 Q617 875 579 920 Q541 965 466 965 Q429 965 399 951 Q369 937 348 912 Q327 887 316 853.5 Q305 820 305 782 L139 783 Q139 843 162.5 900 Q186 957 229.5 1002 Q273 1047 334.5 1074.5 Q396 1102 472 1102 Q540 1102 597 1083.5 Q654 1065 695.5 1025.5 Q737 986 760.5 923 Q784 860 784 770 L784 234 Q784 207 786 177 Q788 147 791.5 118 Q795 89 800.5 63 Q806 37 813 16 L813 0 L644 0 Z M617 529 L514 529 Q403 529 345.5 472 Q288 415 288 312 Q288 212 323.5 168.5 Q359 125 427 125 Q462 125 492 137.5 Q522 150 546.5 170 Q571 190 589 216.5 Q607 243 617 271 L617 529 Z " />
<g transform="translate(67,4)" >
<path fill="black" d="M143 1254 Q143 1307 155.5 1350 Q168 1393 189.5 1424.5 Q211 1456 241 1473 Q271 1490 306 1490 Q338 1490 363 1474.5 Q388 1459 411 1440.5 Q434 1422 458 1406.5 Q482 1391 511 1391 Q541 1391 562 1423.5 Q583 1456 583 1507 L686 1497 Q686 1444 673.5 1400.5 Q661 1357 639.5 1326.5 Q618 1296 588 1279 Q558 1262 523 1262 Q485 1262 460 1277.5 Q435 1293 413.5 1312 Q392 1331 370.5 1346.5 Q349 1362 318 1362 Q288 1362 267.5 1330.5 Q247 1299 247 1249 L143 1254 Z " />
</g>
</glyph>
<glyph glyph-name="adieresis" unicode="&#xe4;" horiz-adv-x="938" d="M644 0 Q636 22 630 53.5 Q624 85 620 118 Q603 90 580.5 65 Q558 40 530 21 Q502 2 469 -9 Q436 -20 397 -20 Q336 -20 285 0.5 Q234 21 197.5 60.5 Q161 100 141 158 Q121 216 121 292 Q121 371 145 436.5 Q169 502 216.5 549.5 Q264 597 334.5 623 Q405 649 498 649 L617 649 L617 772 Q617 875 579 920 Q541 965 466 965 Q429 965 399 951 Q369 937 348 912 Q327 887 316 853.5 Q305 820 305 782 L139 783 Q139 843 162.5 900 Q186 957 229.5 1002 Q273 1047 334.5 1074.5 Q396 1102 472 1102 Q540 1102 597 1083.5 Q654 1065 695.5 1025.5 Q737 986 760.5 923 Q784 860 784 770 L784 234 Q784 207 786 177 Q788 147 791.5 118 Q795 89 800.5 63 Q806 37 813 16 L813 0 L644 0 Z M617 529 L514 529 Q403 529 345.5 472 Q288 415 288 312 Q288 212 323.5 168.5 Q359 125 427 125 Q462 125 492 137.5 Q522 150 546.5 170 Q571 190 589 216.5 Q607 243 617 271 L617 529 Z M664 1279 Q618 1279 592.5 1307.5 Q567 1336 567 1378 Q567 1419 592.5 1447 Q618 1475 664 1475 Q709 1475 735 1447 Q761 1419 761 1378 Q761 1336 735 1307.5 Q709 1279 664 1279 Z M270 1281 Q224 1281 198.5 1309.5 Q173 1338 173 1380 Q173 1421 198.5 1449 Q224 1477 270 1477 Q315 1477 341 1449 Q367 1421 367 1380 Q367 1338 341 1309.5 Q315 1281 270 1281 Z " />
<glyph glyph-name="aring" unicode="&#xe5;" horiz-adv-x="938" d="M644 0 Q636 22 630 53.5 Q624 85 620 118 Q603 90 580.5 65 Q558 40 530 21 Q502 2 469 -9 Q436 -20 397 -20 Q336 -20 285 0.5 Q234 21 197.5 60.5 Q161 100 141 158 Q121 216 121 292 Q121 371 145 436.5 Q169 502 216.5 549.5 Q264 597 334.5 623 Q405 649 498 649 L617 649 L617 772 Q617 875 579 920 Q541 965 466 965 Q429 965 399 951 Q369 937 348 912 Q327 887 316 853.5 Q305 820 305 782 L139 783 Q139 843 162.5 900 Q186 957 229.5 1002 Q273 1047 334.5 1074.5 Q396 1102 472 1102 Q540 1102 597 1083.5 Q654 1065 695.5 1025.5 Q737 986 760.5 923 Q784 860 784 770 L784 234 Q784 207 786 177 Q788 147 791.5 118 Q795 89 800.5 63 Q806 37 813 16 L813 0 L644 0 Z M483 1214 Q444 1214 410.5 1229 Q377 1244 353 1271 Q329 1298 315.5 1334.5 Q302 1371 302 1413 Q302 1455 315.5 1492 Q329 1529 353 1556.5 Q377 1584 410.5 1600 Q444 1616 483 1616 Q522 1616 554.5 1600 Q587 1584 611 1556.5 Q635 1529 648.5 1492 Q662 1455 662 1413 Q662 1371 648.5 1334.5 Q635 1298 611 1271 Q587 1244 554.5 1229 Q522 1214 483 1214 Z M617 529 L514 529 Q403 529 345.5 472 Q288 415 288 312 Q288 212 323.5 168.5 Q359 125 427 125 Q462 125 492 137.5 Q522 150 546.5 170 Q571 190 589 216.5 Q607 243 617 271 L617 529 Z M483 1298 Q527 1298 552 1331.5 Q577 1365 577 1413 Q577 1437 570.5 1458.5 Q564 1480 552 1496.5 Q540 1513 522.5 1522.5 Q505 1532 483 1532 Q461 1532 443 1522.5 Q425 1513 412.5 1496.5 Q400 1480 393.5 1458.5 Q387 1437 387 1413 Q387 1390 393.5 1369 Q400 1348 412.5 1332.5 Q425 1317 443 1307.5 Q461 1298 483 1298 Z " />
<glyph glyph-name="ae" unicode="&#xe6;" horiz-adv-x="1407" d="M612 635 L612 720 Q612 835 574.5 899.5 Q537 964 465 964 Q426 964 394.5 948 Q363 932 341.5 904.5 Q320 877 308.5 840.5 Q297 804 297 762 L131 778 Q131 848 155 907.5 Q179 967 223 1010 Q267 1053 328.5 1077.5 Q390 1102 466 1102 Q551 1102 615.5 1066.5 Q680 1031 720 959 Q767 1027 831 1064.5 Q895 1102 973 1102 Q1054 1102 1116 1068.5 Q1178 1035 1221 973 Q1264 911 1286 822 Q1308 733 1308 623 L1308 509 L775 509 Q776 427 789.5 355.5 Q803 284 831.5 231 Q860 178 903.5 147.5 Q947 117 1007 117 Q1050 117 1084 127 Q1118 137 1146 153 Q1174 169 1197 188.5 Q1220 208 1240 227 L1291 104 Q1276 89 1249.5 67.5 Q1223 46 1186.5 26.5 Q1150 7 1103 -7 Q1056 -21 999 -21 Q899 -21 825 24.5 Q751 70 703 151 Q684 119 654.5 88 Q625 57 586 33 Q547 9 497.5 -6 Q448 -21 388 -21 Q321 -21 268.5 2 Q216 25 180.5 67.5 Q145 110 126.5 169.5 Q108 229 108 302 Q108 459 197 547 Q286 635 458 635 L612 635 Z M612 507 L460 507 Q414 507 379 490 Q344 473 320.5 444 Q297 415 285 377.5 Q273 340 273 298 Q273 259 282 226 Q291 193 309.5 168.5 Q328 144 355.5 130.5 Q383 117 420 117 Q447 117 474 127.5 Q501 138 526.5 155 Q552 172 574 194 Q596 216 612 240 L612 507 Z M1144 640 L1144 671 Q1144 731 1134.5 784.5 Q1125 838 1104.5 877.5 Q1084 917 1051.5 940.5 Q1019 964 973 964 Q929 964 895 939.5 Q861 915 836.5 871.5 Q812 828 797.5 768.5 Q783 709 778 640 L1144 640 Z " />
<glyph glyph-name="ccedilla" unicode="&#xe7;" horiz-adv-x="910" d="M385 -347 Q432 -347 464 -323 Q496 -299 496 -242 Q496 -216 489.5 -198.5 Q483 -181 468.5 -170 Q454 -159 432 -152.5 Q410 -146 379 -142 L402 -13 Q257 15 185 144.5 Q113 274 113 484 L113 598 Q113 717 136 810.5 Q159 904 204.5 969 Q250 1034 319 1068 Q388 1102 480 1102 Q552 1102 612 1076 Q672 1050 715.5 1000.5 Q759 951 783.5 878.5 Q808 806 810 713 L653 713 Q649 841 603 902.5 Q557 964 478 964 Q420 964 381.5 938 Q343 912 320.5 864 Q298 816 289 748.5 Q280 681 280 598 L280 484 Q280 400 289 332.5 Q298 265 320.5 217.5 Q343 170 381.5 144 Q420 118 479 118 Q514 118 545 130 Q576 142 599.5 168.5 Q623 195 637 237 Q651 279 653 339 L810 339 Q808 264 785.5 202 Q763 140 724.5 94 Q686 48 634.5 19.5 Q583 -9 524 -17 L516 -66 Q538 -71 558.5 -82 Q579 -93 595 -113.5 Q611 -134 621 -164.5 Q631 -195 631 -238 Q631 -331 570 -388 Q509 -445 390 -445 L385 -347 Z " />
<glyph glyph-name="egrave" unicode="&#xe8;" horiz-adv-x="928" >
<path fill="black" d="M116 584 Q116 724 144.5 822 Q173 920 222 982.5 Q271 1045 338 1073.5 Q405 1102 481 1102 Q654 1102 740 973.5 Q826 845 826 601 L826 502 L282 502 L282 470 Q282 291 343 204 Q404 117 511 117 Q584 117 637.5 150.5 Q691 184 732 241 L810 142 Q791 111 762.5 81.5 Q734 52 696 29.5 Q658 7 609.5 -6.5 Q561 -20 501 -20 Q413 -20 341.5 10 Q270 40 220 101 Q170 162 143 254 Q116 346 116 470 L116 584 Z M660 639 L660 664 Q658 731 647.5 786 Q637 841 616 880.5 Q595 920 561.5 942 Q528 964 480 964 Q436 964 401 947.5 Q366 931 341 893 Q316 855 301 793 Q286 731 283 639 L660 639 Z " />
<g transform="translate(98,-1)" >
<path fill="black" d="M304 1246 L84 1536 L281 1536 L450 1246 L304 1246 Z " />
</g>
</glyph>
<glyph glyph-name="eacute" unicode="&#xe9;" horiz-adv-x="928" >
<path fill="black" d="M116 584 Q116 724 144.5 822 Q173 920 222 982.5 Q271 1045 338 1073.5 Q405 1102 481 1102 Q654 1102 740 973.5 Q826 845 826 601 L826 502 L282 502 L282 470 Q282 291 343 204 Q404 117 511 117 Q584 117 637.5 150.5 Q691 184 732 241 L810 142 Q791 111 762.5 81.5 Q734 52 696 29.5 Q658 7 609.5 -6.5 Q561 -20 501 -20 Q413 -20 341.5 10 Q270 40 220 101 Q170 162 143 254 Q116 346 116 470 L116 584 Z M660 639 L660 664 Q658 731 647.5 786 Q637 841 616 880.5 Q595 920 561.5 942 Q528 964 480 964 Q436 964 401 947.5 Q366 931 341 893 Q316 855 301 793 Q286 731 283 639 L660 639 Z " />
<g transform="translate(242,-1)" >
<path fill="black" d="M307 1536 L506 1536 L281 1246 L139 1246 L307 1536 Z " />
</g>
</glyph>
<glyph glyph-name="ecircumflex" unicode="&#xea;" horiz-adv-x="928" >
<path fill="black" d="M116 584 Q116 724 144.5 822 Q173 920 222 982.5 Q271 1045 338 1073.5 Q405 1102 481 1102 Q654 1102 740 973.5 Q826 845 826 601 L826 502 L282 502 L282 470 Q282 291 343 204 Q404 117 511 117 Q584 117 637.5 150.5 Q691 184 732 241 L810 142 Q791 111 762.5 81.5 Q734 52 696 29.5 Q658 7 609.5 -6.5 Q561 -20 501 -20 Q413 -20 341.5 10 Q270 40 220 101 Q170 162 143 254 Q116 346 116 470 L116 584 Z M660 639 L660 664 Q658 731 647.5 786 Q637 841 616 880.5 Q595 920 561.5 942 Q528 964 480 964 Q436 964 401 947.5 Q366 931 341 893 Q316 855 301 793 Q286 731 283 639 L660 639 Z " />
<g transform="translate(57,-1)" >
<path fill="black" d="M165 1267 L365 1534 L463 1534 L665 1265 L665 1255 L530 1255 L414 1428 L299 1255 L165 1255 L165 1267 Z " />
</g>
</glyph>
<glyph glyph-name="edieresis" unicode="&#xeb;" horiz-adv-x="928" d="M116 584 Q116 724 144.5 822 Q173 920 222 982.5 Q271 1045 338 1073.5 Q405 1102 481 1102 Q654 1102 740 973.5 Q826 845 826 601 L826 502 L282 502 L282 470 Q282 291 343 204 Q404 117 511 117 Q584 117 637.5 150.5 Q691 184 732 241 L810 142 Q791 111 762.5 81.5 Q734 52 696 29.5 Q658 7 609.5 -6.5 Q561 -20 501 -20 Q413 -20 341.5 10 Q270 40 220 101 Q170 162 143 254 Q116 346 116 470 L116 584 Z M660 639 L660 664 Q658 731 647.5 786 Q637 841 616 880.5 Q595 920 561.5 942 Q528 964 480 964 Q436 964 401 947.5 Q366 931 341 893 Q316 855 301 793 Q286 731 283 639 L660 639 Z M654 1279 Q608 1279 582.5 1307.5 Q557 1336 557 1378 Q557 1419 582.5 1447 Q608 1475 654 1475 Q699 1475 725 1447 Q751 1419 751 1378 Q751 1336 725 1307.5 Q699 1279 654 1279 Z M260 1281 Q214 1281 188.5 1309.5 Q163 1338 163 1380 Q163 1421 188.5 1449 Q214 1477 260 1477 Q305 1477 331 1449 Q357 1421 357 1380 Q357 1338 331 1309.5 Q305 1281 260 1281 Z " />
<glyph glyph-name="igrave" unicode="&#xec;" horiz-adv-x="498" >
<path fill="black" d="M163 0 L163 1082 L330 1082 L330 0 L163 0 Z " />
<g transform="translate(-124,-5)" >
<path fill="black" d="M304 1246 L84 1536 L281 1536 L450 1246 L304 1246 Z " />
</g>
</glyph>
<glyph glyph-name="iacute" unicode="&#xed;" horiz-adv-x="498" >
<path fill="black" d="M163 0 L163 1082 L330 1082 L330 0 L163 0 Z " />
<g transform="translate(20,-5)" >
<path fill="black" d="M307 1536 L506 1536 L281 1246 L139 1246 L307 1536 Z " />
</g>
</glyph>
<glyph glyph-name="icircumflex" unicode="&#xee;" horiz-adv-x="498" >
<path fill="black" d="M163 0 L163 1082 L330 1082 L330 0 L163 0 Z " />
<g transform="translate(-165,-5)" >
<path fill="black" d="M165 1267 L365 1534 L463 1534 L665 1265 L665 1255 L530 1255 L414 1428 L299 1255 L165 1255 L165 1267 Z " />
</g>
</glyph>
<glyph glyph-name="idieresis" unicode="&#xef;" horiz-adv-x="498" >
<path fill="black" d="M163 0 L163 1082 L330 1082 L330 0 L163 0 Z " />
<g transform="translate(424,-3)" >
<path fill="black" d="M-386 1280 Q-432 1280 -457.5 1308 Q-483 1336 -483 1378 Q-483 1420 -457.5 1448.5 Q-432 1477 -386 1477 Q-341 1477 -315.5 1448.5 Q-290 1420 -290 1378 Q-290 1336 -315.5 1308 Q-341 1280 -386 1280 Z " />
</g>
<g transform="translate(818,-5)" >
<path fill="black" d="M-386 1280 Q-432 1280 -457.5 1308 Q-483 1336 -483 1378 Q-483 1420 -457.5 1448.5 Q-432 1477 -386 1477 Q-341 1477 -315.5 1448.5 Q-290 1420 -290 1378 Q-290 1336 -315.5 1308 Q-341 1280 -386 1280 Z " />
</g>
</glyph>
<glyph glyph-name="eth" unicode="&#xf0;" horiz-adv-x="1002" d="M868 535 Q868 412 840.5 309.5 Q813 207 764 134 Q715 61 648 20.5 Q581 -20 502 -20 Q421 -20 353.5 18 Q286 56 237.5 122 Q189 188 162.5 276.5 Q136 365 136 467 Q136 583 160.5 677 Q185 771 229.5 837 Q274 903 336 939 Q398 975 474 975 Q535 975 587.5 947.5 Q640 920 681 872 Q662 975 628 1056.5 Q594 1138 547 1203 L385 1065 L331 1158 L479 1284 Q425 1337 365.5 1374.5 Q306 1412 241 1437 L292 1580 Q471 1523 602 1388 L742 1508 L797 1416 L670 1308 Q764 1183 816 1013.5 Q868 844 868 631 L868 535 Z M506 118 Q552 118 588.5 149.5 Q625 181 650 237 Q675 293 688.5 369 Q702 445 702 535 L702 633 Q702 651 701.5 668 Q701 685 700 702 Q689 729 672 753 Q655 777 631.5 796 Q608 815 578.5 826 Q549 837 513 837 Q462 837 422.5 810.5 Q383 784 356 735.5 Q329 687 315.5 619 Q302 551 302 467 Q302 403 315.5 340.5 Q329 278 355 228.5 Q381 179 419 148.5 Q457 118 506 118 Z " />
<glyph glyph-name="ntilde" unicode="&#xf1;" horiz-adv-x="961" >
<path fill="black" d="M149 1082 L306 1082 L311 947 Q355 1019 416 1060.5 Q477 1102 553 1102 Q613 1102 661 1080.5 Q709 1059 742.5 1011.5 Q776 964 794.5 889.5 Q813 815 813 708 L813 0 L647 0 L647 710 Q647 779 637 827 Q627 875 607.5 904.5 Q588 934 559.5 947.5 Q531 961 494 961 Q463 961 436 948 Q409 935 386.5 911.5 Q364 888 346 856 Q328 824 315 786 L315 0 L149 0 L149 1082 Z " />
<g transform="translate(71,4)" >
<path fill="black" d="M143 1254 Q143 1307 155.5 1350 Q168 1393 189.5 1424.5 Q211 1456 241 1473 Q271 1490 306 1490 Q338 1490 363 1474.5 Q388 1459 411 1440.5 Q434 1422 458 1406.5 Q482 1391 511 1391 Q541 1391 562 1423.5 Q583 1456 583 1507 L686 1497 Q686 1444 673.5 1400.5 Q661 1357 639.5 1326.5 Q618 1296 588 1279 Q558 1262 523 1262 Q485 1262 460 1277.5 Q435 1293 413.5 1312 Q392 1331 370.5 1346.5 Q349 1362 318 1362 Q288 1362 267.5 1330.5 Q247 1299 247 1249 L143 1254 Z " />
</g>
</glyph>
<glyph glyph-name="ograve" unicode="&#xf2;" horiz-adv-x="980" >
<path fill="black" d="M116 590 Q116 714 143 809.5 Q170 905 219 970 Q268 1035 336.5 1068.5 Q405 1102 488 1102 Q572 1102 641.5 1068.5 Q711 1035 760.5 970 Q810 905 837 809.5 Q864 714 864 590 L864 492 Q864 368 837 272.5 Q810 177 761 112 Q712 47 643 13.5 Q574 -20 491 -20 Q407 -20 337.5 13.5 Q268 47 219 112 Q170 177 143 272.5 Q116 368 116 492 L116 590 Z M282 492 Q282 312 337 215 Q392 118 491 118 Q594 118 645.5 215 Q697 312 697 492 L697 590 Q697 678 683 747.5 Q669 817 642 865 Q615 913 576.5 938.5 Q538 964 488 964 Q440 964 402 938.5 Q364 913 337 865 Q310 817 296 747.5 Q282 678 282 590 L282 492 Z " />
<g transform="translate(112,-1)" >
<path fill="black" d="M304 1246 L84 1536 L281 1536 L450 1246 L304 1246 Z " />
</g>
</glyph>
<glyph glyph-name="oacute" unicode="&#xf3;" horiz-adv-x="980" >
<path fill="black" d="M116 590 Q116 714 143 809.5 Q170 905 219 970 Q268 1035 336.5 1068.5 Q405 1102 488 1102 Q572 1102 641.5 1068.5 Q711 1035 760.5 970 Q810 905 837 809.5 Q864 714 864 590 L864 492 Q864 368 837 272.5 Q810 177 761 112 Q712 47 643 13.5 Q574 -20 491 -20 Q407 -20 337.5 13.5 Q268 47 219 112 Q170 177 143 272.5 Q116 368 116 492 L116 590 Z M282 492 Q282 312 337 215 Q392 118 491 118 Q594 118 645.5 215 Q697 312 697 492 L697 590 Q697 678 683 747.5 Q669 817 642 865 Q615 913 576.5 938.5 Q538 964 488 964 Q440 964 402 938.5 Q364 913 337 865 Q310 817 296 747.5 Q282 678 282 590 L282 492 Z " />
<g transform="translate(256,-1)" >
<path fill="black" d="M307 1536 L506 1536 L281 1246 L139 1246 L307 1536 Z " />
</g>
</glyph>
<glyph glyph-name="ocircumflex" unicode="&#xf4;" horiz-adv-x="980" >
<path fill="black" d="M116 590 Q116 714 143 809.5 Q170 905 219 970 Q268 1035 336.5 1068.5 Q405 1102 488 1102 Q572 1102 641.5 1068.5 Q711 1035 760.5 970 Q810 905 837 809.5 Q864 714 864 590 L864 492 Q864 368 837 272.5 Q810 177 761 112 Q712 47 643 13.5 Q574 -20 491 -20 Q407 -20 337.5 13.5 Q268 47 219 112 Q170 177 143 272.5 Q116 368 116 492 L116 590 Z M282 492 Q282 312 337 215 Q392 118 491 118 Q594 118 645.5 215 Q697 312 697 492 L697 590 Q697 678 683 747.5 Q669 817 642 865 Q615 913 576.5 938.5 Q538 964 488 964 Q440 964 402 938.5 Q364 913 337 865 Q310 817 296 747.5 Q282 678 282 590 L282 492 Z " />
<g transform="translate(71,-1)" >
<path fill="black" d="M165 1267 L365 1534 L463 1534 L665 1265 L665 1255 L530 1255 L414 1428 L299 1255 L165 1255 L165 1267 Z " />
</g>
</glyph>
<glyph glyph-name="otilde" unicode="&#xf5;" horiz-adv-x="980" >
<path fill="black" d="M116 590 Q116 714 143 809.5 Q170 905 219 970 Q268 1035 336.5 1068.5 Q405 1102 488 1102 Q572 1102 641.5 1068.5 Q711 1035 760.5 970 Q810 905 837 809.5 Q864 714 864 590 L864 492 Q864 368 837 272.5 Q810 177 761 112 Q712 47 643 13.5 Q574 -20 491 -20 Q407 -20 337.5 13.5 Q268 47 219 112 Q170 177 143 272.5 Q116 368 116 492 L116 590 Z M282 492 Q282 312 337 215 Q392 118 491 118 Q594 118 645.5 215 Q697 312 697 492 L697 590 Q697 678 683 747.5 Q669 817 642 865 Q615 913 576.5 938.5 Q538 964 488 964 Q440 964 402 938.5 Q364 913 337 865 Q310 817 296 747.5 Q282 678 282 590 L282 492 Z " />
<g transform="translate(71,4)" >
<path fill="black" d="M143 1254 Q143 1307 155.5 1350 Q168 1393 189.5 1424.5 Q211 1456 241 1473 Q271 1490 306 1490 Q338 1490 363 1474.5 Q388 1459 411 1440.5 Q434 1422 458 1406.5 Q482 1391 511 1391 Q541 1391 562 1423.5 Q583 1456 583 1507 L686 1497 Q686 1444 673.5 1400.5 Q661 1357 639.5 1326.5 Q618 1296 588 1279 Q558 1262 523 1262 Q485 1262 460 1277.5 Q435 1293 413.5 1312 Q392 1331 370.5 1346.5 Q349 1362 318 1362 Q288 1362 267.5 1330.5 Q247 1299 247 1249 L143 1254 Z " />
</g>
</glyph>
<glyph glyph-name="odieresis" unicode="&#xf6;" horiz-adv-x="980" >
<path fill="black" d="M116 590 Q116 714 143 809.5 Q170 905 219 970 Q268 1035 336.5 1068.5 Q405 1102 488 1102 Q572 1102 641.5 1068.5 Q711 1035 760.5 970 Q810 905 837 809.5 Q864 714 864 590 L864 492 Q864 368 837 272.5 Q810 177 761 112 Q712 47 643 13.5 Q574 -20 491 -20 Q407 -20 337.5 13.5 Q268 47 219 112 Q170 177 143 272.5 Q116 368 116 492 L116 590 Z M282 492 Q282 312 337 215 Q392 118 491 118 Q594 118 645.5 215 Q697 312 697 492 L697 590 Q697 678 683 747.5 Q669 817 642 865 Q615 913 576.5 938.5 Q538 964 488 964 Q440 964 402 938.5 Q364 913 337 865 Q310 817 296 747.5 Q282 678 282 590 L282 492 Z " />
<g transform="translate(660,1)" >
<path fill="black" d="M-386 1280 Q-432 1280 -457.5 1308 Q-483 1336 -483 1378 Q-483 1420 -457.5 1448.5 Q-432 1477 -386 1477 Q-341 1477 -315.5 1448.5 Q-290 1420 -290 1378 Q-290 1336 -315.5 1308 Q-341 1280 -386 1280 Z " />
</g>
<g transform="translate(1054,-1)" >
<path fill="black" d="M-386 1280 Q-432 1280 -457.5 1308 Q-483 1336 -483 1378 Q-483 1420 -457.5 1448.5 Q-432 1477 -386 1477 Q-341 1477 -315.5 1448.5 Q-290 1420 -290 1378 Q-290 1336 -315.5 1308 Q-341 1280 -386 1280 Z " />
</g>
</glyph>
<glyph glyph-name="divide" unicode="&#xf7;" horiz-adv-x="985" d="M103 614 L103 777 L865 777 L865 614 L103 614 Z M488 183 Q440 183 414 212 Q388 241 388 284 Q388 328 414 358 Q440 388 488 388 Q535 388 561 358 Q587 328 587 284 Q587 241 561 212 Q535 183 488 183 Z M488 995 Q440 995 414 1024 Q388 1053 388 1096 Q388 1140 414 1170 Q440 1200 488 1200 Q535 1200 561 1170 Q587 1140 587 1096 Q587 1053 561 1024 Q535 995 488 995 Z " />
<glyph glyph-name="oslash" unicode="&#xf8;" horiz-adv-x="1100" d="M268 66 Q199 129 161 236 Q123 343 123 492 L123 590 Q123 714 150 809.5 Q177 905 226 970 Q275 1035 343.5 1068.5 Q412 1102 495 1102 Q575 1102 641 1072 L692 1211 L794 1211 L723 1019 Q793 956 832 848.5 Q871 741 871 590 L871 492 Q871 368 844 272.5 Q817 177 768 112 Q719 47 650 13.5 Q581 -20 498 -20 Q415 -20 350 11 L295 -137 L193 -137 L268 66 Z M401 149 Q444 118 498 118 Q601 118 652.5 215 Q704 312 704 492 L704 590 Q704 670 692.5 734 Q681 798 659 846 L401 149 Z M590 934 Q548 964 495 964 Q447 964 409 938.5 Q371 913 344 865 Q317 817 303 747.5 Q289 678 289 590 L289 492 Q289 336 332 239 L590 934 Z " />
<glyph glyph-name="ugrave" unicode="&#xf9;" horiz-adv-x="960" >
<path fill="black" d="M146 1082 L312 1082 L312 384 Q312 307 323.5 256.5 Q335 206 354.5 176 Q374 146 399 134 Q424 122 452 122 Q530 122 576 164.5 Q622 207 645 278 L645 1082 L812 1082 L812 0 L654 0 L650 110 Q612 48 554 14 Q496 -20 415 -20 Q355 -20 305.5 2.5 Q256 25 220.5 74 Q185 123 165.5 200 Q146 277 146 386 L146 1082 Z " />
<g transform="translate(109,0)" >
<path fill="black" d="M304 1246 L84 1536 L281 1536 L450 1246 L304 1246 Z " />
</g>
</glyph>
<glyph glyph-name="uacute" unicode="&#xfa;" horiz-adv-x="960" >
<path fill="black" d="M146 1082 L312 1082 L312 384 Q312 307 323.5 256.5 Q335 206 354.5 176 Q374 146 399 134 Q424 122 452 122 Q530 122 576 164.5 Q622 207 645 278 L645 1082 L812 1082 L812 0 L654 0 L650 110 Q612 48 554 14 Q496 -20 415 -20 Q355 -20 305.5 2.5 Q256 25 220.5 74 Q185 123 165.5 200 Q146 277 146 386 L146 1082 Z " />
<g transform="translate(253,0)" >
<path fill="black" d="M307 1536 L506 1536 L281 1246 L139 1246 L307 1536 Z " />
</g>
</glyph>
<glyph glyph-name="ucircumflex" unicode="&#xfb;" horiz-adv-x="960" >
<path fill="black" d="M146 1082 L312 1082 L312 384 Q312 307 323.5 256.5 Q335 206 354.5 176 Q374 146 399 134 Q424 122 452 122 Q530 122 576 164.5 Q622 207 645 278 L645 1082 L812 1082 L812 0 L654 0 L650 110 Q612 48 554 14 Q496 -20 415 -20 Q355 -20 305.5 2.5 Q256 25 220.5 74 Q185 123 165.5 200 Q146 277 146 386 L146 1082 Z " />
<g transform="translate(68,0)" >
<path fill="black" d="M165 1267 L365 1534 L463 1534 L665 1265 L665 1255 L530 1255 L414 1428 L299 1255 L165 1255 L165 1267 Z " />
</g>
</glyph>
<glyph glyph-name="udieresis" unicode="&#xfc;" horiz-adv-x="960" d="M146 1082 L312 1082 L312 384 Q312 307 323.5 256.5 Q335 206 354.5 176 Q374 146 399 134 Q424 122 452 122 Q530 122 576 164.5 Q622 207 645 278 L645 1082 L812 1082 L812 0 L654 0 L650 110 Q612 48 554 14 Q496 -20 415 -20 Q355 -20 305.5 2.5 Q256 25 220.5 74 Q185 123 165.5 200 Q146 277 146 386 L146 1082 Z M665 1280 Q619 1280 593.5 1308.5 Q568 1337 568 1379 Q568 1420 593.5 1448 Q619 1476 665 1476 Q710 1476 736 1448 Q762 1420 762 1379 Q762 1337 736 1308.5 Q710 1280 665 1280 Z M271 1282 Q225 1282 199.5 1310.5 Q174 1339 174 1381 Q174 1422 199.5 1450 Q225 1478 271 1478 Q316 1478 342 1450 Q368 1422 368 1381 Q368 1339 342 1310.5 Q316 1282 271 1282 Z " />
<glyph glyph-name="yacute" unicode="&#xfd;" horiz-adv-x="852" >
<path fill="black" d="M126 -287 Q133 -289 145 -290.5 Q157 -292 163 -292 Q197 -292 221.5 -282 Q246 -272 265 -250 Q284 -228 298.5 -193.5 Q313 -159 328 -110 L359 -9 L64 1082 L244 1082 L431 276 L611 1082 L789 1082 L459 -170 Q449 -209 431 -255.5 Q413 -302 384 -342.5 Q355 -383 312.5 -410 Q270 -437 211 -437 Q188 -437 165.5 -431.5 Q143 -426 126 -422 L126 -287 Z " />
<g transform="translate(210,0)" >
<path fill="black" d="M307 1536 L506 1536 L281 1246 L139 1246 L307 1536 Z " />
</g>
</glyph>
<glyph glyph-name="thorn" unicode="&#xfe;" horiz-adv-x="986" d="M155 1536 L320 1536 L320 982 Q360 1040 414.5 1071 Q469 1102 541 1102 Q618 1102 677 1062.5 Q736 1023 776.5 951 Q817 879 838 777 Q859 675 859 550 L859 529 Q859 409 838 308.5 Q817 208 777 135 Q737 62 678 21 Q619 -20 543 -20 Q470 -20 415 9.5 Q360 39 320 95 L320 -416 L155 -416 L155 1536 Z M320 263 Q344 200 386.5 159 Q429 118 497 118 Q549 118 586 150.5 Q623 183 647 239 Q671 295 682 369.5 Q693 444 693 529 L693 550 Q693 635 681.5 709.5 Q670 784 646 840 Q622 896 584.5 928.5 Q547 961 495 961 Q462 961 434.5 949.5 Q407 938 385.5 917.5 Q364 897 348 869 Q332 841 320 808 L320 263 Z " />
<glyph glyph-name="ydieresis" unicode="&#xff;" horiz-adv-x="852" d="M126 -287 Q133 -289 145 -290.5 Q157 -292 163 -292 Q197 -292 221.5 -282 Q246 -272 265 -250 Q284 -228 298.5 -193.5 Q313 -159 328 -110 L359 -9 L64 1082 L244 1082 L431 276 L611 1082 L789 1082 L459 -170 Q449 -209 431 -255.5 Q413 -302 384 -342.5 Q355 -383 312.5 -410 Q270 -437 211 -437 Q188 -437 165.5 -431.5 Q143 -426 126 -422 L126 -287 Z M622 1280 Q576 1280 550.5 1308.5 Q525 1337 525 1379 Q525 1420 550.5 1448 Q576 1476 622 1476 Q667 1476 693 1448 Q719 1420 719 1379 Q719 1337 693 1308.5 Q667 1280 622 1280 Z M228 1282 Q182 1282 156.5 1310.5 Q131 1339 131 1381 Q131 1422 156.5 1450 Q182 1478 228 1478 Q273 1478 299 1450 Q325 1422 325 1381 Q325 1339 299 1310.5 Q273 1282 228 1282 Z " />
<glyph glyph-name="Amacron" unicode="&#x100;" horiz-adv-x="1119" d="M482 1456 L637 1456 L1053 0 L872 0 L773 389 L346 389 L247 0 L67 0 L482 1456 Z M737 531 L560 1231 L382 531 L737 531 Z M309 1765 L818 1765 L818 1635 L309 1635 L309 1765 Z " />
<glyph glyph-name="amacron" unicode="&#x101;" horiz-adv-x="938" d="M644 0 Q636 22 630 53.5 Q624 85 620 118 Q603 90 580.5 65 Q558 40 530 21 Q502 2 469 -9 Q436 -20 397 -20 Q336 -20 285 0.5 Q234 21 197.5 60.5 Q161 100 141 158 Q121 216 121 292 Q121 371 145 436.5 Q169 502 216.5 549.5 Q264 597 334.5 623 Q405 649 498 649 L617 649 L617 772 Q617 875 579 920 Q541 965 466 965 Q429 965 399 951 Q369 937 348 912 Q327 887 316 853.5 Q305 820 305 782 L139 783 Q139 843 162.5 900 Q186 957 229.5 1002 Q273 1047 334.5 1074.5 Q396 1102 472 1102 Q540 1102 597 1083.5 Q654 1065 695.5 1025.5 Q737 986 760.5 923 Q784 860 784 770 L784 234 Q784 207 786 177 Q788 147 791.5 118 Q795 89 800.5 63 Q806 37 813 16 L813 0 L644 0 Z M617 529 L514 529 Q403 529 345.5 472 Q288 415 288 312 Q288 212 323.5 168.5 Q359 125 427 125 Q462 125 492 137.5 Q522 150 546.5 170 Q571 190 589 216.5 Q607 243 617 271 L617 529 Z M228 1452 L737 1452 L737 1322 L228 1322 L228 1452 Z " />
<glyph glyph-name="Abreve" unicode="&#x102;" horiz-adv-x="1119" >
<path fill="black" d="M482 1456 L637 1456 L1053 0 L872 0 L773 389 L346 389 L247 0 L67 0 L482 1456 Z M737 531 L560 1231 L382 531 L737 531 Z " />
<g transform="translate(145,313)" >
<path fill="black" d="M263 1494 Q263 1463 270.5 1434.5 Q278 1406 294.5 1385 Q311 1364 337.5 1351.5 Q364 1339 402 1339 Q440 1339 466 1351.5 Q492 1364 508.5 1385.5 Q525 1407 532.5 1435 Q540 1463 540 1494 L673 1494 Q673 1436 654.5 1387 Q636 1338 600.5 1303.5 Q565 1269 515 1249.5 Q465 1230 402 1230 Q339 1230 289 1249.5 Q239 1269 203.5 1303.5 Q168 1338 149.5 1387 Q131 1436 131 1494 L263 1494 Z " />
</g>
</glyph>
<glyph glyph-name="abreve" unicode="&#x103;" horiz-adv-x="938" >
<path fill="black" d="M644 0 Q636 22 630 53.5 Q624 85 620 118 Q603 90 580.5 65 Q558 40 530 21 Q502 2 469 -9 Q436 -20 397 -20 Q336 -20 285 0.5 Q234 21 197.5 60.5 Q161 100 141 158 Q121 216 121 292 Q121 371 145 436.5 Q169 502 216.5 549.5 Q264 597 334.5 623 Q405 649 498 649 L617 649 L617 772 Q617 875 579 920 Q541 965 466 965 Q429 965 399 951 Q369 937 348 912 Q327 887 316 853.5 Q305 820 305 782 L139 783 Q139 843 162.5 900 Q186 957 229.5 1002 Q273 1047 334.5 1074.5 Q396 1102 472 1102 Q540 1102 597 1083.5 Q654 1065 695.5 1025.5 Q737 986 760.5 923 Q784 860 784 770 L784 234 Q784 207 786 177 Q788 147 791.5 118 Q795 89 800.5 63 Q806 37 813 16 L813 0 L644 0 Z M617 529 L514 529 Q403 529 345.5 472 Q288 415 288 312 Q288 212 323.5 168.5 Q359 125 427 125 Q462 125 492 137.5 Q522 150 546.5 170 Q571 190 589 216.5 Q607 243 617 271 L617 529 Z " />
<g transform="translate(64,0)" >
<path fill="black" d="M263 1494 Q263 1463 270.5 1434.5 Q278 1406 294.5 1385 Q311 1364 337.5 1351.5 Q364 1339 402 1339 Q440 1339 466 1351.5 Q492 1364 508.5 1385.5 Q525 1407 532.5 1435 Q540 1463 540 1494 L673 1494 Q673 1436 654.5 1387 Q636 1338 600.5 1303.5 Q565 1269 515 1249.5 Q465 1230 402 1230 Q339 1230 289 1249.5 Q239 1269 203.5 1303.5 Q168 1338 149.5 1387 Q131 1436 131 1494 L263 1494 Z " />
</g>
</glyph>
<glyph glyph-name="Aogonek" unicode="&#x104;" horiz-adv-x="1119" d="M482 1456 L637 1456 L1053 0 L1012 0 Q960 -50 923.5 -105 Q887 -160 887 -225 Q887 -260 899.5 -281 Q912 -302 943 -302 Q966 -302 983.5 -292 Q1001 -282 1012 -274 L1028 -384 Q1009 -399 980 -413.5 Q951 -428 906 -428 Q874 -428 846 -416.5 Q818 -405 797.5 -381.5 Q777 -358 765 -323.5 Q753 -289 753 -244 Q753 -179 780.5 -115.5 Q808 -52 871 4 L773 389 L346 389 L247 0 L67 0 L482 1456 Z M737 531 L560 1231 L382 531 L737 531 Z " />
<glyph glyph-name="aogonek" unicode="&#x105;" horiz-adv-x="938" d="M802 -384 Q783 -399 754 -413.5 Q725 -428 680 -428 Q648 -428 620 -416.5 Q592 -405 571.5 -381.5 Q551 -358 539 -323.5 Q527 -289 527 -244 Q527 -180 554 -117 Q581 -54 643 2 Q635 24 629.5 55 Q624 86 620 118 Q603 90 580.5 65 Q558 40 530 21 Q502 2 469 -9 Q436 -20 397 -20 Q336 -20 285 0.5 Q234 21 197.5 60.5 Q161 100 141 158 Q121 216 121 292 Q121 371 145 436.5 Q169 502 216.5 549.5 Q264 597 334.5 623 Q405 649 498 649 L617 649 L617 772 Q617 875 579 920 Q541 965 466 965 Q429 965 399 951 Q369 937 348 912 Q327 887 316 853.5 Q305 820 305 782 L139 783 Q139 843 162.5 900 Q186 957 229.5 1002 Q273 1047 334.5 1074.5 Q396 1102 472 1102 Q540 1102 597 1083.5 Q654 1065 695.5 1025.5 Q737 986 760.5 923 Q784 860 784 770 L784 234 Q784 207 786 177 Q788 147 791.5 118 Q795 89 800.5 63 Q806 37 813 16 L813 0 L786 0 Q734 -50 697.5 -105 Q661 -160 661 -225 Q661 -260 673.5 -281 Q686 -302 717 -302 Q740 -302 757.5 -292 Q775 -282 786 -274 L802 -384 Z M617 529 L514 529 Q403 529 345.5 472 Q288 415 288 312 Q288 212 323.5 168.5 Q359 125 427 125 Q462 125 492 137.5 Q522 150 546.5 170 Q571 190 589 216.5 Q607 243 617 271 L617 529 Z " />
<glyph glyph-name="Cacute" unicode="&#x106;" horiz-adv-x="1112" >
<path fill="black" d="M139 865 Q139 1005 169.5 1118 Q200 1231 257 1310.5 Q314 1390 395.5 1433 Q477 1476 579 1476 Q773 1476 877.5 1353.5 Q982 1231 996 992 L823 992 Q818 1082 802 1146.5 Q786 1211 756.5 1252.5 Q727 1294 683.5 1314 Q640 1334 579 1334 Q512 1334 462 1301 Q412 1268 378.5 1207.5 Q345 1147 328.5 1060.5 Q312 974 312 867 L312 595 Q312 493 326.5 406 Q341 319 372.5 256 Q404 193 453 157 Q502 121 571 121 Q634 121 679 140 Q724 159 754 200 Q784 241 800.5 305 Q817 369 823 460 L995 460 Q989 346 959 256.5 Q929 167 875.5 105.5 Q822 44 746 12 Q670 -20 571 -20 Q471 -20 390.5 23 Q310 66 254.5 146 Q199 226 169 339.5 Q139 453 139 595 L139 865 Z " />
<g transform="translate(338,342)" >
<path fill="black" d="M307 1536 L506 1536 L281 1246 L139 1246 L307 1536 Z " />
</g>
</glyph>
<glyph glyph-name="cacute" unicode="&#x107;" horiz-adv-x="910" >
<path fill="black" d="M113 598 Q113 717 136 810.5 Q159 904 204.5 969 Q250 1034 319 1068 Q388 1102 480 1102 Q552 1102 612 1076 Q672 1050 715.5 1000.5 Q759 951 783.5 878.5 Q808 806 810 713 L653 713 Q649 841 603 902.5 Q557 964 478 964 Q420 964 381.5 938 Q343 912 320.5 864 Q298 816 289 748.5 Q280 681 280 598 L280 484 Q280 400 289 332.5 Q298 265 320.5 217.5 Q343 170 381.5 144 Q420 118 479 118 Q514 118 545 130 Q576 142 599.5 168.5 Q623 195 637 237 Q651 279 653 339 L810 339 Q808 257 781.5 191 Q755 125 710.5 78 Q666 31 607 5.5 Q548 -20 481 -20 Q388 -20 319 14.5 Q250 49 204.5 113.5 Q159 178 136 272 Q113 366 113 484 L113 598 Z " />
<g transform="translate(225,-1)" >
<path fill="black" d="M307 1536 L506 1536 L281 1246 L139 1246 L307 1536 Z " />
</g>
</glyph>
<glyph glyph-name="Cdotaccent" unicode="&#x10a;" horiz-adv-x="1112" >
<path fill="black" d="M139 865 Q139 1005 169.5 1118 Q200 1231 257 1310.5 Q314 1390 395.5 1433 Q477 1476 579 1476 Q773 1476 877.5 1353.5 Q982 1231 996 992 L823 992 Q818 1082 802 1146.5 Q786 1211 756.5 1252.5 Q727 1294 683.5 1314 Q640 1334 579 1334 Q512 1334 462 1301 Q412 1268 378.5 1207.5 Q345 1147 328.5 1060.5 Q312 974 312 867 L312 595 Q312 493 326.5 406 Q341 319 372.5 256 Q404 193 453 157 Q502 121 571 121 Q634 121 679 140 Q724 159 754 200 Q784 241 800.5 305 Q817 369 823 460 L995 460 Q989 346 959 256.5 Q929 167 875.5 105.5 Q822 44 746 12 Q670 -20 571 -20 Q471 -20 390.5 23 Q310 66 254.5 146 Q199 226 169 339.5 Q139 453 139 595 L139 865 Z " />
<g transform="translate(313,342)" >
<path fill="black" d="M151 1372 Q151 1414 176.5 1442.5 Q202 1471 250 1471 Q296 1471 322 1442.5 Q348 1414 348 1372 Q348 1330 322 1302 Q296 1274 250 1274 Q202 1274 176.5 1302 Q151 1330 151 1372 Z " />
</g>
</glyph>
<glyph glyph-name="cdotaccent" unicode="&#x10b;" horiz-adv-x="910" >
<path fill="black" d="M113 598 Q113 717 136 810.5 Q159 904 204.5 969 Q250 1034 319 1068 Q388 1102 480 1102 Q552 1102 612 1076 Q672 1050 715.5 1000.5 Q759 951 783.5 878.5 Q808 806 810 713 L653 713 Q649 841 603 902.5 Q557 964 478 964 Q420 964 381.5 938 Q343 912 320.5 864 Q298 816 289 748.5 Q280 681 280 598 L280 484 Q280 400 289 332.5 Q298 265 320.5 217.5 Q343 170 381.5 144 Q420 118 479 118 Q514 118 545 130 Q576 142 599.5 168.5 Q623 195 637 237 Q651 279 653 339 L810 339 Q808 257 781.5 191 Q755 125 710.5 78 Q666 31 607 5.5 Q548 -20 481 -20 Q388 -20 319 14.5 Q250 49 204.5 113.5 Q159 178 136 272 Q113 366 113 484 L113 598 Z " />
<g transform="translate(200,-1)" >
<path fill="black" d="M151 1372 Q151 1414 176.5 1442.5 Q202 1471 250 1471 Q296 1471 322 1442.5 Q348 1414 348 1372 Q348 1330 322 1302 Q296 1274 250 1274 Q202 1274 176.5 1302 Q151 1330 151 1372 Z " />
</g>
</glyph>
<glyph glyph-name="Ccaron" unicode="&#x10c;" horiz-adv-x="1112" >
<path fill="black" d="M139 865 Q139 1005 169.5 1118 Q200 1231 257 1310.5 Q314 1390 395.5 1433 Q477 1476 579 1476 Q773 1476 877.5 1353.5 Q982 1231 996 992 L823 992 Q818 1082 802 1146.5 Q786 1211 756.5 1252.5 Q727 1294 683.5 1314 Q640 1334 579 1334 Q512 1334 462 1301 Q412 1268 378.5 1207.5 Q345 1147 328.5 1060.5 Q312 974 312 867 L312 595 Q312 493 326.5 406 Q341 319 372.5 256 Q404 193 453 157 Q502 121 571 121 Q634 121 679 140 Q724 159 754 200 Q784 241 800.5 305 Q817 369 823 460 L995 460 Q989 346 959 256.5 Q929 167 875.5 105.5 Q822 44 746 12 Q670 -20 571 -20 Q471 -20 390.5 23 Q310 66 254.5 146 Q199 226 169 339.5 Q139 453 139 595 L139 865 Z " />
<g transform="translate(169,343)" >
<path fill="black" d="M143 1520 L143 1532 L284 1532 L398 1354 L512 1532 L654 1532 L654 1520 L450 1251 L346 1251 L143 1520 Z " />
</g>
</glyph>
<glyph glyph-name="ccaron" unicode="&#x10d;" horiz-adv-x="910" >
<path fill="black" d="M113 598 Q113 717 136 810.5 Q159 904 204.5 969 Q250 1034 319 1068 Q388 1102 480 1102 Q552 1102 612 1076 Q672 1050 715.5 1000.5 Q759 951 783.5 878.5 Q808 806 810 713 L653 713 Q649 841 603 902.5 Q557 964 478 964 Q420 964 381.5 938 Q343 912 320.5 864 Q298 816 289 748.5 Q280 681 280 598 L280 484 Q280 400 289 332.5 Q298 265 320.5 217.5 Q343 170 381.5 144 Q420 118 479 118 Q514 118 545 130 Q576 142 599.5 168.5 Q623 195 637 237 Q651 279 653 339 L810 339 Q808 257 781.5 191 Q755 125 710.5 78 Q666 31 607 5.5 Q548 -20 481 -20 Q388 -20 319 14.5 Q250 49 204.5 113.5 Q159 178 136 272 Q113 366 113 484 L113 598 Z " />
<g transform="translate(56,0)" >
<path fill="black" d="M143 1520 L143 1532 L284 1532 L398 1354 L512 1532 L654 1532 L654 1520 L450 1251 L346 1251 L143 1520 Z " />
</g>
</glyph>
<glyph glyph-name="Dcaron" unicode="&#x10e;" horiz-adv-x="1114" d="M169 1456 L490 1456 Q598 1456 687 1416.5 Q776 1377 839.5 1300.5 Q903 1224 938 1110.5 Q973 997 973 850 L973 606 Q973 458 938.5 345 Q904 232 840 155.5 Q776 79 685 39.5 Q594 0 482 0 L169 0 L169 1456 Z M482 142 Q647 142 724.5 261 Q802 380 802 606 L802 853 Q802 1086 724 1200 Q646 1314 490 1314 L341 1314 L341 142 L482 142 Z M434 1573 L231 1842 L231 1854 L372 1854 L486 1676 L600 1854 L742 1854 L742 1842 L538 1573 L434 1573 Z " />
<glyph glyph-name="dcaron" unicode="&#x10f;" horiz-adv-x="1222" d="M116 586 Q116 718 137.5 814.5 Q159 911 199 974.5 Q239 1038 296.5 1069.5 Q354 1101 427 1102 L427 1137 L566 1137 L566 1065 Q619 1031 654 972 L654 1536 L820 1536 L820 0 L668 0 L660 118 Q622 52 566 16 Q510 -20 434 -20 Q286 -20 201 108.5 Q116 237 116 493 L116 586 Z M654 818 Q637 860 612 893 Q587 926 552 944 Q539 888 515.5 836.5 Q492 785 458 747 L370 814 Q404 881 418 952 Q346 926 314 835.5 Q282 745 282 586 L282 493 Q282 305 327 213 Q372 121 476 121 Q544 121 586.5 160.5 Q629 200 654 263 L654 818 Z " />
<glyph glyph-name="Dcroat" unicode="&#x110;" horiz-adv-x="1114" >
<path fill="black" d="M169 673 L51 673 L51 810 L169 810 L169 1456 L490 1456 Q598 1456 687 1416.5 Q776 1377 839.5 1300.5 Q903 1224 938 1110.5 Q973 997 973 850 L973 606 Q973 458 938.5 345 Q904 232 840 155.5 Q776 79 685 39.5 Q594 0 482 0 L169 0 L169 673 Z M482 142 Q647 142 724.5 261 Q802 380 802 606 L802 853 Q802 1086 724 1200 Q646 1314 490 1314 L341 1314 L341 810 L548 810 L548 673 L341 673 L341 142 L482 142 Z " />
</glyph>
<glyph glyph-name="dslash" unicode="&#x111;" horiz-adv-x="1043" d="M116 550 Q116 675 138 777 Q160 879 201.5 951 Q243 1023 302.5 1062.5 Q362 1102 437 1102 Q508 1102 561.5 1071 Q615 1040 654 983 L654 1241 L455 1241 L455 1377 L654 1377 L654 1536 L820 1536 L820 1377 L952 1377 L952 1241 L820 1241 L820 0 L668 0 L661 109 Q621 46 566 13 Q511 -20 436 -20 Q362 -20 303 21 Q244 62 202.5 135 Q161 208 138.5 308.5 Q116 409 116 529 L116 550 Z M654 805 Q642 838 625.5 866.5 Q609 895 587.5 916 Q566 937 538.5 949 Q511 961 477 961 Q425 961 388 928.5 Q351 896 327.5 840 Q304 784 293 709.5 Q282 635 282 550 L282 529 Q282 444 293 370 Q304 296 327.5 241 Q351 186 387.5 154 Q424 122 476 122 Q544 122 586.5 164.5 Q629 207 654 275 L654 805 Z " />
<glyph glyph-name="Emacron" unicode="&#x112;" horiz-adv-x="977" d="M169 1456 L875 1456 L875 1314 L341 1314 L341 822 L804 822 L804 681 L341 681 L341 142 L880 142 L880 0 L169 0 L169 1456 Z M270 1774 L779 1774 L779 1644 L270 1644 L270 1774 Z " />
<glyph glyph-name="emacron" unicode="&#x113;" horiz-adv-x="928" d="M116 584 Q116 724 144.5 822 Q173 920 222 982.5 Q271 1045 338 1073.5 Q405 1102 481 1102 Q654 1102 740 973.5 Q826 845 826 601 L826 502 L282 502 L282 470 Q282 291 343 204 Q404 117 511 117 Q584 117 637.5 150.5 Q691 184 732 241 L810 142 Q791 111 762.5 81.5 Q734 52 696 29.5 Q658 7 609.5 -6.5 Q561 -20 501 -20 Q413 -20 341.5 10 Q270 40 220 101 Q170 162 143 254 Q116 346 116 470 L116 584 Z M660 639 L660 664 Q658 731 647.5 786 Q637 841 616 880.5 Q595 920 561.5 942 Q528 964 480 964 Q436 964 401 947.5 Q366 931 341 893 Q316 855 301 793 Q286 731 283 639 L660 639 Z M218 1452 L727 1452 L727 1322 L218 1322 L218 1452 Z " />
<glyph glyph-name="Edotaccent" unicode="&#x116;" horiz-adv-x="977" >
<path fill="black" d="M169 1456 L875 1456 L875 1314 L341 1314 L341 822 L804 822 L804 681 L341 681 L341 142 L880 142 L880 0 L169 0 L169 1456 Z " />
<g transform="translate(269,321)" >
<path fill="black" d="M151 1372 Q151 1414 176.5 1442.5 Q202 1471 250 1471 Q296 1471 322 1442.5 Q348 1414 348 1372 Q348 1330 322 1302 Q296 1274 250 1274 Q202 1274 176.5 1302 Q151 1330 151 1372 Z " />
</g>
</glyph>
<glyph glyph-name="edotaccent" unicode="&#x117;" horiz-adv-x="928" >
<path fill="black" d="M116 584 Q116 724 144.5 822 Q173 920 222 982.5 Q271 1045 338 1073.5 Q405 1102 481 1102 Q654 1102 740 973.5 Q826 845 826 601 L826 502 L282 502 L282 470 Q282 291 343 204 Q404 117 511 117 Q584 117 637.5 150.5 Q691 184 732 241 L810 142 Q791 111 762.5 81.5 Q734 52 696 29.5 Q658 7 609.5 -6.5 Q561 -20 501 -20 Q413 -20 341.5 10 Q270 40 220 101 Q170 162 143 254 Q116 346 116 470 L116 584 Z M660 639 L660 664 Q658 731 647.5 786 Q637 841 616 880.5 Q595 920 561.5 942 Q528 964 480 964 Q436 964 401 947.5 Q366 931 341 893 Q316 855 301 793 Q286 731 283 639 L660 639 Z " />
<g transform="translate(217,-1)" >
<path fill="black" d="M151 1372 Q151 1414 176.5 1442.5 Q202 1471 250 1471 Q296 1471 322 1442.5 Q348 1414 348 1372 Q348 1330 322 1302 Q296 1274 250 1274 Q202 1274 176.5 1302 Q151 1330 151 1372 Z " />
</g>
</glyph>
<glyph glyph-name="Eogonek" unicode="&#x118;" horiz-adv-x="977" d="M169 1456 L875 1456 L875 1314 L341 1314 L341 822 L804 822 L804 681 L341 681 L341 142 L880 142 L880 0 L803 0 Q751 -50 714.5 -105 Q678 -160 678 -225 Q678 -260 690.5 -281 Q703 -302 734 -302 Q757 -302 774.5 -292 Q792 -282 803 -274 L819 -384 Q800 -399 771 -413.5 Q742 -428 697 -428 Q665 -428 637 -416.5 Q609 -405 588.5 -381.5 Q568 -358 556 -323.5 Q544 -289 544 -244 Q544 -181 570.5 -118 Q597 -55 658 0 L169 0 L169 1456 Z " />
<glyph glyph-name="eogonek" unicode="&#x119;" horiz-adv-x="928" d="M695 -353 Q676 -368 647 -382.5 Q618 -397 573 -397 Q541 -397 513 -385.5 Q485 -374 464.5 -350.5 Q444 -327 432 -292.5 Q420 -258 420 -213 Q420 -163 436 -114.5 Q452 -66 487 -20 Q402 -17 333 14.5 Q264 46 216 106.5 Q168 167 142 258 Q116 349 116 470 L116 584 Q116 724 144.5 822 Q173 920 222 982.5 Q271 1045 338 1073.5 Q405 1102 481 1102 Q654 1102 740 973.5 Q826 845 826 601 L826 502 L282 502 L282 470 Q282 291 343 204 Q404 117 511 117 Q584 117 637.5 150.5 Q691 184 732 241 L810 142 Q786 103 748.5 68 Q711 33 658 10 Q613 -35 583.5 -85 Q554 -135 554 -194 Q554 -229 566.5 -250 Q579 -271 610 -271 Q633 -271 650.5 -261 Q668 -251 679 -243 L695 -353 Z M660 639 L660 664 Q658 731 647.5 786 Q637 841 616 880.5 Q595 920 561.5 942 Q528 964 480 964 Q436 964 401 947.5 Q366 931 341 893 Q316 855 301 793 Q286 731 283 639 L660 639 Z " />
<glyph glyph-name="Ecaron" unicode="&#x11a;" horiz-adv-x="977" d="M169 1456 L875 1456 L875 1314 L341 1314 L341 822 L804 822 L804 681 L341 681 L341 142 L880 142 L880 0 L169 0 L169 1456 Z M471 1573 L268 1842 L268 1854 L409 1854 L523 1676 L637 1854 L779 1854 L779 1842 L575 1573 L471 1573 Z " />
<glyph glyph-name="ecaron" unicode="&#x11b;" horiz-adv-x="928" d="M116 584 Q116 724 144.5 822 Q173 920 222 982.5 Q271 1045 338 1073.5 Q405 1102 481 1102 Q654 1102 740 973.5 Q826 845 826 601 L826 502 L282 502 L282 470 Q282 291 343 204 Q404 117 511 117 Q584 117 637.5 150.5 Q691 184 732 241 L810 142 Q791 111 762.5 81.5 Q734 52 696 29.5 Q658 7 609.5 -6.5 Q561 -20 501 -20 Q413 -20 341.5 10 Q270 40 220 101 Q170 162 143 254 Q116 346 116 470 L116 584 Z M419 1251 L216 1520 L216 1532 L357 1532 L471 1354 L585 1532 L727 1532 L727 1520 L523 1251 L419 1251 Z M660 639 L660 664 Q658 731 647.5 786 Q637 841 616 880.5 Q595 920 561.5 942 Q528 964 480 964 Q436 964 401 947.5 Q366 931 341 893 Q316 855 301 793 Q286 731 283 639 L660 639 Z " />
<glyph glyph-name="Gbreve" unicode="&#x11e;" horiz-adv-x="1152" >
<path fill="black" d="M144 868 Q144 1018 173.5 1132 Q203 1246 259.5 1322.5 Q316 1399 398 1437.5 Q480 1476 585 1476 Q684 1476 758.5 1446 Q833 1416 884 1359 Q935 1302 964 1220 Q993 1138 1001 1035 L832 1035 Q826 1104 809 1159.5 Q792 1215 763 1253.5 Q734 1292 690.5 1313 Q647 1334 588 1334 Q448 1334 382.5 1217 Q317 1100 317 870 L317 592 Q317 357 393.5 239 Q470 121 606 121 Q658 121 695.5 133 Q733 145 759 162 Q785 179 801.5 197 Q818 215 828 227 L828 575 L589 575 L589 716 L1001 716 L1001 179 Q984 155 953.5 121 Q923 87 875 55.5 Q827 24 759.5 2 Q692 -20 601 -20 Q498 -20 414 19 Q330 58 270 134.5 Q210 211 177 326 Q144 441 144 592 L144 868 Z " />
<g transform="translate(150,343)" >
<path fill="black" d="M263 1494 Q263 1463 270.5 1434.5 Q278 1406 294.5 1385 Q311 1364 337.5 1351.5 Q364 1339 402 1339 Q440 1339 466 1351.5 Q492 1364 508.5 1385.5 Q525 1407 532.5 1435 Q540 1463 540 1494 L673 1494 Q673 1436 654.5 1387 Q636 1338 600.5 1303.5 Q565 1269 515 1249.5 Q465 1230 402 1230 Q339 1230 289 1249.5 Q239 1269 203.5 1303.5 Q168 1338 149.5 1387 Q131 1436 131 1494 L263 1494 Z " />
</g>
</glyph>
<glyph glyph-name="gbreve" unicode="&#x11f;" horiz-adv-x="975" >
<path fill="black" d="M240 -174 Q286 -236 343 -263.5 Q400 -291 458 -291 Q506 -291 543.5 -276.5 Q581 -262 607 -229.5 Q633 -197 646.5 -145.5 Q660 -94 660 -20 L660 107 Q622 46 567.5 13 Q513 -20 438 -20 Q364 -20 304.5 12 Q245 44 203.5 108 Q162 172 140 268.5 Q118 365 118 493 L118 586 Q118 720 140 817 Q162 914 203.5 977.5 Q245 1041 304.5 1071.5 Q364 1102 439 1102 Q519 1102 574.5 1066 Q630 1030 668 964 L675 1082 L825 1082 L825 -12 Q825 -119 799.5 -197.5 Q774 -276 727 -327 Q680 -378 614 -403 Q548 -428 468 -428 Q435 -428 394.5 -419 Q354 -410 313.5 -392 Q273 -374 236 -347 Q199 -320 173 -283 L240 -174 Z M660 820 Q636 880 593.5 920.5 Q551 961 484 961 Q379 961 331 868 Q283 775 283 586 L283 493 Q283 305 330.5 213 Q378 121 482 121 Q551 121 593.5 160 Q636 199 660 261 L660 820 Z " />
<g transform="translate(54,0)" >
<path fill="black" d="M263 1494 Q263 1463 270.5 1434.5 Q278 1406 294.5 1385 Q311 1364 337.5 1351.5 Q364 1339 402 1339 Q440 1339 466 1351.5 Q492 1364 508.5 1385.5 Q525 1407 532.5 1435 Q540 1463 540 1494 L673 1494 Q673 1436 654.5 1387 Q636 1338 600.5 1303.5 Q565 1269 515 1249.5 Q465 1230 402 1230 Q339 1230 289 1249.5 Q239 1269 203.5 1303.5 Q168 1338 149.5 1387 Q131 1436 131 1494 L263 1494 Z " />
</g>
</glyph>
<glyph glyph-name="Gdotaccent" unicode="&#x120;" horiz-adv-x="1152" >
<path fill="black" d="M144 868 Q144 1018 173.5 1132 Q203 1246 259.5 1322.5 Q316 1399 398 1437.5 Q480 1476 585 1476 Q684 1476 758.5 1446 Q833 1416 884 1359 Q935 1302 964 1220 Q993 1138 1001 1035 L832 1035 Q826 1104 809 1159.5 Q792 1215 763 1253.5 Q734 1292 690.5 1313 Q647 1334 588 1334 Q448 1334 382.5 1217 Q317 1100 317 870 L317 592 Q317 357 393.5 239 Q470 121 606 121 Q658 121 695.5 133 Q733 145 759 162 Q785 179 801.5 197 Q818 215 828 227 L828 575 L589 575 L589 716 L1001 716 L1001 179 Q984 155 953.5 121 Q923 87 875 55.5 Q827 24 759.5 2 Q692 -20 601 -20 Q498 -20 414 19 Q330 58 270 134.5 Q210 211 177 326 Q144 441 144 592 L144 868 Z " />
<g transform="translate(313,342)" >
<path fill="black" d="M151 1372 Q151 1414 176.5 1442.5 Q202 1471 250 1471 Q296 1471 322 1442.5 Q348 1414 348 1372 Q348 1330 322 1302 Q296 1274 250 1274 Q202 1274 176.5 1302 Q151 1330 151 1372 Z " />
</g>
</glyph>
<glyph glyph-name="gdotaccent" unicode="&#x121;" horiz-adv-x="975" >
<path fill="black" d="M240 -174 Q286 -236 343 -263.5 Q400 -291 458 -291 Q506 -291 543.5 -276.5 Q581 -262 607 -229.5 Q633 -197 646.5 -145.5 Q660 -94 660 -20 L660 107 Q622 46 567.5 13 Q513 -20 438 -20 Q364 -20 304.5 12 Q245 44 203.5 108 Q162 172 140 268.5 Q118 365 118 493 L118 586 Q118 720 140 817 Q162 914 203.5 977.5 Q245 1041 304.5 1071.5 Q364 1102 439 1102 Q519 1102 574.5 1066 Q630 1030 668 964 L675 1082 L825 1082 L825 -12 Q825 -119 799.5 -197.5 Q774 -276 727 -327 Q680 -378 614 -403 Q548 -428 468 -428 Q435 -428 394.5 -419 Q354 -410 313.5 -392 Q273 -374 236 -347 Q199 -320 173 -283 L240 -174 Z M660 820 Q636 880 593.5 920.5 Q551 961 484 961 Q379 961 331 868 Q283 775 283 586 L283 493 Q283 305 330.5 213 Q378 121 482 121 Q551 121 593.5 160 Q636 199 660 261 L660 820 Z " />
<g transform="translate(217,-1)" >
<path fill="black" d="M151 1372 Q151 1414 176.5 1442.5 Q202 1471 250 1471 Q296 1471 322 1442.5 Q348 1414 348 1372 Q348 1330 322 1302 Q296 1274 250 1274 Q202 1274 176.5 1302 Q151 1330 151 1372 Z " />
</g>
</glyph>
<glyph glyph-name="uni0122" unicode="&#x122;" horiz-adv-x="1288" >
<path fill="black" d="M144 868 Q144 1018 173.5 1132 Q203 1246 259.5 1322.5 Q316 1399 398 1437.5 Q480 1476 585 1476 Q684 1476 758.5 1446 Q833 1416 884 1359 Q935 1302 964 1220 Q993 1138 1001 1035 L832 1035 Q826 1104 809 1159.5 Q792 1215 763 1253.5 Q734 1292 690.5 1313 Q647 1334 588 1334 Q448 1334 382.5 1217 Q317 1100 317 870 L317 592 Q317 357 393.5 239 Q470 121 606 121 Q658 121 695.5 133 Q733 145 759 162 Q785 179 801.5 197 Q818 215 828 227 L828 575 L589 575 L589 716 L1001 716 L1001 179 Q984 155 953.5 121 Q923 87 875 55.5 Q827 24 759.5 2 Q692 -20 601 -20 Q498 -20 414 19 Q330 58 270 134.5 Q210 211 177 326 Q144 441 144 592 L144 868 Z " />
<g transform="translate(404,-376)" >
<path fill="black" d="M-484 -474 Q-456 -418 -441.5 -360 Q-427 -302 -427 -233 L-427 -151 L-288 -151 L-288 -230 Q-288 -270 -295.5 -312.5 Q-303 -355 -316.5 -396 Q-330 -437 -350.5 -474.5 Q-371 -512 -396 -541 L-484 -474 Z " />
</g>
</glyph>
<glyph glyph-name="uni0123" unicode="&#x123;" horiz-adv-x="975" >
<path fill="black" d="M240 -174 Q286 -236 343 -263.5 Q400 -291 458 -291 Q506 -291 543.5 -276.5 Q581 -262 607 -229.5 Q633 -197 646.5 -145.5 Q660 -94 660 -20 L660 107 Q622 46 567.5 13 Q513 -20 438 -20 Q364 -20 304.5 12 Q245 44 203.5 108 Q162 172 140 268.5 Q118 365 118 493 L118 586 Q118 720 140 817 Q162 914 203.5 977.5 Q245 1041 304.5 1071.5 Q364 1102 439 1102 Q519 1102 574.5 1066 Q630 1030 668 964 L675 1082 L825 1082 L825 -12 Q825 -119 799.5 -197.5 Q774 -276 727 -327 Q680 -378 614 -403 Q548 -428 468 -428 Q435 -428 394.5 -419 Q354 -410 313.5 -392 Q273 -374 236 -347 Q199 -320 173 -283 L240 -174 Z M660 820 Q636 880 593.5 920.5 Q551 961 484 961 Q379 961 331 868 Q283 775 283 586 L283 493 Q283 305 330.5 213 Q378 121 482 121 Q551 121 593.5 160 Q636 199 660 261 L660 820 Z " />
<g transform="translate(231,79)" >
<path fill="black" d="M163 1307 Q163 1349 172 1391 Q181 1433 195.5 1470.5 Q210 1508 229 1538.5 Q248 1569 268 1590 L359 1518 Q335 1460 322.5 1410 Q310 1360 310 1300 L310 1178 L163 1178 L163 1307 Z " />
</g>
</glyph>
<glyph glyph-name="Hbar" unicode="&#x126;" horiz-adv-x="1337" d="M177 1025 L75 1025 L75 1153 L177 1153 L177 1456 L349 1456 L349 1153 L865 1153 L865 1456 L1038 1456 L1038 1153 L1129 1153 L1129 1025 L1038 1025 L1038 0 L865 0 L865 681 L349 681 L349 0 L177 0 L177 1025 Z M865 822 L865 1025 L349 1025 L349 822 L865 822 Z " />
<glyph glyph-name="hbar" unicode="&#x127;" horiz-adv-x="959" d="M148 1241 L25 1241 L25 1378 L148 1378 L148 1536 L314 1536 L314 1378 L522 1378 L522 1241 L314 1241 L314 955 Q356 1024 415.5 1063 Q475 1102 548 1102 Q608 1102 657 1080.5 Q706 1059 740.5 1011.5 Q775 964 793.5 889.5 Q812 815 812 708 L812 0 L647 0 L647 710 Q647 779 636.5 827 Q626 875 606.5 904.5 Q587 934 558.5 947.5 Q530 961 493 961 Q462 961 434.5 948 Q407 935 384.5 912 Q362 889 344.5 857.5 Q327 826 314 788 L314 0 L148 0 L148 1241 Z " />
<glyph glyph-name="Itilde" unicode="&#x128;" horiz-adv-x="536" >
<path fill="black" d="M183 0 L183 1456 L355 1456 L355 0 L183 0 Z " />
<g transform="translate(-146,326)" >
<path fill="black" d="M143 1254 Q143 1307 155.5 1350 Q168 1393 189.5 1424.5 Q211 1456 241 1473 Q271 1490 306 1490 Q338 1490 363 1474.5 Q388 1459 411 1440.5 Q434 1422 458 1406.5 Q482 1391 511 1391 Q541 1391 562 1423.5 Q583 1456 583 1507 L686 1497 Q686 1444 673.5 1400.5 Q661 1357 639.5 1326.5 Q618 1296 588 1279 Q558 1262 523 1262 Q485 1262 460 1277.5 Q435 1293 413.5 1312 Q392 1331 370.5 1346.5 Q349 1362 318 1362 Q288 1362 267.5 1330.5 Q247 1299 247 1249 L143 1254 Z " />
</g>
</glyph>
<glyph glyph-name="itilde" unicode="&#x129;" horiz-adv-x="498" >
<path fill="black" d="M163 0 L163 1082 L330 1082 L330 0 L163 0 Z " />
<g transform="translate(-165,0)" >
<path fill="black" d="M143 1254 Q143 1307 155.5 1350 Q168 1393 189.5 1424.5 Q211 1456 241 1473 Q271 1490 306 1490 Q338 1490 363 1474.5 Q388 1459 411 1440.5 Q434 1422 458 1406.5 Q482 1391 511 1391 Q541 1391 562 1423.5 Q583 1456 583 1507 L686 1497 Q686 1444 673.5 1400.5 Q661 1357 639.5 1326.5 Q618 1296 588 1279 Q558 1262 523 1262 Q485 1262 460 1277.5 Q435 1293 413.5 1312 Q392 1331 370.5 1346.5 Q349 1362 318 1362 Q288 1362 267.5 1330.5 Q247 1299 247 1249 L143 1254 Z " />
</g>
</glyph>
<glyph glyph-name="Imacron" unicode="&#x12a;" horiz-adv-x="536" >
<path fill="black" d="M183 0 L183 1456 L355 1456 L355 0 L183 0 Z " />
<g transform="translate(-150,330)" >
<path fill="black" d="M165 1314 L165 1444 L674 1444 L674 1314 L165 1314 Z " />
</g>
</glyph>
<glyph glyph-name="imacron" unicode="&#x12b;" horiz-adv-x="498" >
<path fill="black" d="M163 0 L163 1082 L330 1082 L330 0 L163 0 Z " />
<g transform="translate(-169,4)" >
<path fill="black" d="M165 1314 L165 1444 L674 1444 L674 1314 L165 1314 Z " />
</g>
</glyph>
<glyph glyph-name="Iogonek" unicode="&#x12e;" horiz-adv-x="536" d="M338 -384 Q319 -399 290 -413.5 Q261 -428 216 -428 Q184 -428 156 -416.5 Q128 -405 107.5 -381.5 Q87 -358 75 -323.5 Q63 -289 63 -244 Q63 -179 91 -115 Q119 -51 183 5 L183 1456 L355 1456 L355 0 L322 0 Q270 -50 233.5 -105 Q197 -160 197 -225 Q197 -260 209.5 -281 Q222 -302 253 -302 Q276 -302 293.5 -292 Q311 -282 322 -274 L338 -384 Z " />
<glyph glyph-name="iogonek" unicode="&#x12f;" horiz-adv-x="489" d="M325 -384 Q306 -399 277 -413.5 Q248 -428 203 -428 Q171 -428 143 -416.5 Q115 -405 94.5 -381.5 Q74 -358 62 -323.5 Q50 -289 50 -244 Q50 -181 76.5 -118 Q103 -55 164 0 L162 0 L162 1082 L329 1082 L329 0 L309 0 Q257 -50 220.5 -105 Q184 -160 184 -225 Q184 -260 196.5 -281 Q209 -302 240 -302 Q263 -302 280.5 -292 Q298 -282 309 -274 L325 -384 Z M247 1280 Q201 1280 175.5 1308.5 Q150 1337 150 1379 Q150 1420 175.5 1448 Q201 1476 247 1476 Q292 1476 318 1448 Q344 1420 344 1379 Q344 1337 318 1308.5 Q292 1280 247 1280 Z " />
<glyph glyph-name="Idot" unicode="&#x130;" horiz-adv-x="536" >
<path fill="black" d="M183 0 L183 1456 L355 1456 L355 0 L183 0 Z " />
<g transform="translate(14,321)" >
<path fill="black" d="M151 1372 Q151 1414 176.5 1442.5 Q202 1471 250 1471 Q296 1471 322 1442.5 Q348 1414 348 1372 Q348 1330 322 1302 Q296 1274 250 1274 Q202 1274 176.5 1302 Q151 1330 151 1372 Z " />
</g>
</glyph>
<glyph glyph-name="dotlessi" unicode="&#x131;" horiz-adv-x="498" d="M163 0 L163 1082 L330 1082 L330 0 L163 0 Z " />
<glyph glyph-name="uni0136" unicode="&#x136;" horiz-adv-x="1192" >
<path fill="black" d="M169 1456 L341 1456 L341 736 L793 1456 L1004 1456 L581 819 L1029 0 L822 0 L471 668 L341 494 L341 0 L169 0 L169 1456 Z " />
<g transform="translate(353,-278)" >
<path fill="black" d="M-484 -474 Q-456 -418 -441.5 -360 Q-427 -302 -427 -233 L-427 -151 L-288 -151 L-288 -230 Q-288 -270 -295.5 -312.5 Q-303 -355 -316.5 -396 Q-330 -437 -350.5 -474.5 Q-371 -512 -396 -541 L-484 -474 Z " />
</g>
</glyph>
<glyph glyph-name="uni0137" unicode="&#x137;" horiz-adv-x="1002" >
<path fill="black" d="M151 1536 L317 1536 L317 612 L384 706 L622 1082 L823 1082 L507 637 L854 0 L661 0 L403 495 L317 382 L317 0 L151 0 L151 1536 Z " />
<g transform="translate(233,-299)" >
<path fill="black" d="M-484 -474 Q-456 -418 -441.5 -360 Q-427 -302 -427 -233 L-427 -151 L-288 -151 L-288 -230 Q-288 -270 -295.5 -312.5 Q-303 -355 -316.5 -396 Q-330 -437 -350.5 -474.5 Q-371 -512 -396 -541 L-484 -474 Z " />
</g>
</glyph>
<glyph glyph-name="Lacute" unicode="&#x139;" horiz-adv-x="935" >
<path fill="black" d="M169 1456 L341 1456 L341 142 L848 142 L848 0 L169 0 L169 1456 Z " />
<g transform="translate(27,298)" >
<path fill="black" d="M307 1536 L506 1536 L281 1246 L139 1246 L307 1536 Z " />
</g>
</glyph>
<glyph glyph-name="lacute" unicode="&#x13a;" horiz-adv-x="575" >
<path fill="black" d="M158 1536 L324 1536 L324 267 Q324 221 330.5 192.5 Q337 164 349 148.5 Q361 133 377.5 128 Q394 123 413 123 Q431 123 449 127 Q467 131 478 135 L479 -1 Q459 -8 430 -14 Q401 -20 364 -20 Q319 -20 281.5 -5.5 Q244 9 216.5 42.5 Q189 76 173.5 131.5 Q158 187 158 268 L158 1536 Z " />
<g transform="translate(16,403)" >
<path fill="black" d="M307 1536 L506 1536 L281 1246 L139 1246 L307 1536 Z " />
</g>
</glyph>
<glyph glyph-name="uni013B" unicode="&#x13b;" horiz-adv-x="1052" >
<path fill="black" d="M169 1456 L341 1456 L341 142 L848 142 L848 0 L169 0 L169 1456 Z " />
<g transform="translate(307,-356)" >
<path fill="black" d="M-484 -474 Q-456 -418 -441.5 -360 Q-427 -302 -427 -233 L-427 -151 L-288 -151 L-288 -230 Q-288 -270 -295.5 -312.5 Q-303 -355 -316.5 -396 Q-330 -437 -350.5 -474.5 Q-371 -512 -396 -541 L-484 -474 Z " />
</g>
</glyph>
<glyph glyph-name="uni013C" unicode="&#x13c;" horiz-adv-x="541" >
<path fill="black" d="M158 1536 L324 1536 L324 267 Q324 221 330.5 192.5 Q337 164 349 148.5 Q361 133 377.5 128 Q394 123 413 123 Q431 123 449 127 Q467 131 478 135 L479 -1 Q459 -8 430 -14 Q401 -20 364 -20 Q319 -20 281.5 -5.5 Q244 9 216.5 42.5 Q189 76 173.5 131.5 Q158 187 158 268 L158 1536 Z " />
<g transform="translate(0,-356)" >
<path fill="black" d="M-484 -474 Q-456 -418 -441.5 -360 Q-427 -302 -427 -233 L-427 -151 L-288 -151 L-288 -230 Q-288 -270 -295.5 -312.5 Q-303 -355 -316.5 -396 Q-330 -437 -350.5 -474.5 Q-371 -512 -396 -541 L-484 -474 Z " />
</g>
</glyph>
<glyph glyph-name="Lcaron" unicode="&#x13d;" horiz-adv-x="1052" >
<path fill="black" d="M169 1456 L341 1456 L341 142 L848 142 L848 0 L169 0 L169 1456 Z " />
<g transform="translate(424,1207)" >
<path fill="black" d="M-484 -474 Q-456 -418 -441.5 -360 Q-427 -302 -427 -233 L-427 -151 L-288 -151 L-288 -230 Q-288 -270 -295.5 -312.5 Q-303 -355 -316.5 -396 Q-330 -437 -350.5 -474.5 Q-371 -512 -396 -541 L-484 -474 Z " />
</g>
</glyph>
<glyph glyph-name="lcaron" unicode="&#x13e;" horiz-adv-x="669" >
<path fill="black" d="M158 1536 L324 1536 L324 267 Q324 221 330.5 192.5 Q337 164 349 148.5 Q361 133 377.5 128 Q394 123 413 123 Q431 123 449 127 Q467 131 478 135 L479 -1 Q459 -8 430 -14 Q401 -20 364 -20 Q319 -20 281.5 -5.5 Q244 9 216.5 42.5 Q189 76 173.5 131.5 Q158 187 158 268 L158 1536 Z " />
<g transform="translate(320,1288)" >
<path fill="black" d="M-484 -474 Q-456 -418 -441.5 -360 Q-427 -302 -427 -233 L-427 -151 L-288 -151 L-288 -230 Q-288 -270 -295.5 -312.5 Q-303 -355 -316.5 -396 Q-330 -437 -350.5 -474.5 Q-371 -512 -396 -541 L-484 -474 Z " />
</g>
</glyph>
<glyph glyph-name="Lslash" unicode="&#x141;" horiz-adv-x="1051" d="M186 666 L76 621 L76 737 L186 782 L186 1456 L358 1456 L358 851 L537 924 L537 808 L358 735 L358 142 L865 142 L865 0 L186 0 L186 666 Z " />
<glyph glyph-name="lslash" unicode="&#x142;" horiz-adv-x="582" d="M187 683 L76 630 L76 743 L187 796 L187 1536 L353 1536 L353 876 L466 930 L466 817 L353 763 L353 267 Q353 221 359.5 192.5 Q366 164 378 148.5 Q390 133 406.5 128 Q423 123 442 123 Q460 123 478 127 Q496 131 507 135 L508 -1 Q488 -8 459 -14 Q430 -20 393 -20 Q348 -20 310.5 -5.5 Q273 9 245.5 42.5 Q218 76 202.5 131.5 Q187 187 187 268 L187 683 Z " />
<glyph glyph-name="Nacute" unicode="&#x143;" horiz-adv-x="1200" >
<path fill="black" d="M169 1456 L363 1456 L859 331 L859 1456 L1029 1456 L1029 0 L835 0 L341 1122 L341 0 L169 0 L169 1456 Z " />
<g transform="translate(370,312)" >
<path fill="black" d="M307 1536 L506 1536 L281 1246 L139 1246 L307 1536 Z " />
</g>
</glyph>
<glyph glyph-name="nacute" unicode="&#x144;" horiz-adv-x="961" >
<path fill="black" d="M149 1082 L306 1082 L311 947 Q355 1019 416 1060.5 Q477 1102 553 1102 Q613 1102 661 1080.5 Q709 1059 742.5 1011.5 Q776 964 794.5 889.5 Q813 815 813 708 L813 0 L647 0 L647 710 Q647 779 637 827 Q627 875 607.5 904.5 Q588 934 559.5 947.5 Q531 961 494 961 Q463 961 436 948 Q409 935 386.5 911.5 Q364 888 346 856 Q328 824 315 786 L315 0 L149 0 L149 1082 Z " />
<g transform="translate(256,-1)" >
<path fill="black" d="M307 1536 L506 1536 L281 1246 L139 1246 L307 1536 Z " />
</g>
</glyph>
<glyph glyph-name="uni0145" unicode="&#x145;" horiz-adv-x="1349" >
<path fill="black" d="M169 1456 L363 1456 L859 331 L859 1456 L1029 1456 L1029 0 L835 0 L341 1122 L341 0 L169 0 L169 1456 Z " />
<g transform="translate(393,-356)" >
<path fill="black" d="M-484 -474 Q-456 -418 -441.5 -360 Q-427 -302 -427 -233 L-427 -151 L-288 -151 L-288 -230 Q-288 -270 -295.5 -312.5 Q-303 -355 -316.5 -396 Q-330 -437 -350.5 -474.5 Q-371 -512 -396 -541 L-484 -474 Z " />
</g>
</glyph>
<glyph glyph-name="uni0146" unicode="&#x146;" horiz-adv-x="1067" >
<path fill="black" d="M149 1082 L306 1082 L311 947 Q355 1019 416 1060.5 Q477 1102 553 1102 Q613 1102 661 1080.5 Q709 1059 742.5 1011.5 Q776 964 794.5 889.5 Q813 815 813 708 L813 0 L647 0 L647 710 Q647 779 637 827 Q627 875 607.5 904.5 Q588 934 559.5 947.5 Q531 961 494 961 Q463 961 436 948 Q409 935 386.5 911.5 Q364 888 346 856 Q328 824 315 786 L315 0 L149 0 L149 1082 Z " />
<g transform="translate(256,-356)" >
<path fill="black" d="M-484 -474 Q-456 -418 -441.5 -360 Q-427 -302 -427 -233 L-427 -151 L-288 -151 L-288 -230 Q-288 -270 -295.5 -312.5 Q-303 -355 -316.5 -396 Q-330 -437 -350.5 -474.5 Q-371 -512 -396 -541 L-484 -474 Z " />
</g>
</glyph>
<glyph glyph-name="Ncaron" unicode="&#x147;" horiz-adv-x="1200" >
<path fill="black" d="M169 1456 L363 1456 L859 331 L859 1456 L1029 1456 L1029 0 L835 0 L341 1122 L341 0 L169 0 L169 1456 Z " />
<g transform="translate(201,313)" >
<path fill="black" d="M143 1520 L143 1532 L284 1532 L398 1354 L512 1532 L654 1532 L654 1520 L450 1251 L346 1251 L143 1520 Z " />
</g>
</glyph>
<glyph glyph-name="ncaron" unicode="&#x148;" horiz-adv-x="961" d="M149 1082 L306 1082 L311 947 Q355 1019 416 1060.5 Q477 1102 553 1102 Q613 1102 661 1080.5 Q709 1059 742.5 1011.5 Q776 964 794.5 889.5 Q813 815 813 708 L813 0 L647 0 L647 710 Q647 779 637 827 Q627 875 607.5 904.5 Q588 934 559.5 947.5 Q531 961 494 961 Q463 961 436 948 Q409 935 386.5 911.5 Q364 888 346 856 Q328 824 315 786 L315 0 L149 0 L149 1082 Z M433 1251 L230 1520 L230 1532 L371 1532 L485 1354 L599 1532 L741 1532 L741 1520 L537 1251 L433 1251 Z " />
<glyph glyph-name="Eng" unicode="&#x14a;" horiz-adv-x="1181" d="M165 1456 L338 1456 L847 363 L847 1456 L1020 1456 L1020 -85 Q1020 -256 950 -346.5 Q880 -437 757 -437 Q731 -437 708.5 -433 Q686 -429 660 -419 L671 -281 Q685 -287 707.5 -291 Q730 -295 745 -295 Q793 -295 820 -240 Q847 -185 847 -85 L847 0 L338 1093 L338 0 L165 0 L165 1456 Z " />
<glyph glyph-name="eng" unicode="&#x14b;" horiz-adv-x="975" d="M478 -278 Q492 -284 514.5 -288 Q537 -292 554 -292 Q602 -292 629 -240.5 Q656 -189 656 -89 L656 673 Q656 755 645 810 Q634 865 614 898.5 Q594 932 564.5 946.5 Q535 961 497 961 Q432 961 387.5 923 Q343 885 317 821 L317 0 L151 0 L151 1082 L303 1082 L312 926 Q352 1009 412.5 1055.5 Q473 1102 552 1102 Q614 1102 663.5 1077.5 Q713 1053 748 1001.5 Q783 950 802 869.5 Q821 789 821 676 L821 -89 Q821 -259 752.5 -348 Q684 -437 563 -437 Q537 -437 514.5 -433 Q492 -429 467 -419 L478 -278 Z " />
<glyph glyph-name="Omacron" unicode="&#x14c;" horiz-adv-x="1166" >
<path fill="black" d="M138 855 Q138 1007 170 1123 Q202 1239 260.5 1317.5 Q319 1396 400.5 1436 Q482 1476 582 1476 Q683 1476 765.5 1436 Q848 1396 906 1317.5 Q964 1239 995.5 1123 Q1027 1007 1027 855 L1027 601 Q1027 448 995.5 332 Q964 216 906.5 138 Q849 60 767 20 Q685 -20 584 -20 Q484 -20 402 20 Q320 60 261.5 138 Q203 216 170.5 332 Q138 448 138 601 L138 855 Z M854 857 Q854 1099 783.5 1213.5 Q713 1328 582 1328 Q453 1328 381 1213.5 Q309 1099 309 857 L309 601 Q309 479 328 389.5 Q347 300 382 241.5 Q417 183 468.5 155 Q520 127 584 127 Q715 127 784.5 242 Q854 357 854 601 L854 857 Z " />
<g transform="translate(165,326)" >
<path fill="black" d="M165 1314 L165 1444 L674 1444 L674 1314 L165 1314 Z " />
</g>
</glyph>
<glyph glyph-name="omacron" unicode="&#x14d;" horiz-adv-x="980" >
<path fill="black" d="M116 590 Q116 714 143 809.5 Q170 905 219 970 Q268 1035 336.5 1068.5 Q405 1102 488 1102 Q572 1102 641.5 1068.5 Q711 1035 760.5 970 Q810 905 837 809.5 Q864 714 864 590 L864 492 Q864 368 837 272.5 Q810 177 761 112 Q712 47 643 13.5 Q574 -20 491 -20 Q407 -20 337.5 13.5 Q268 47 219 112 Q170 177 143 272.5 Q116 368 116 492 L116 590 Z M282 492 Q282 312 337 215 Q392 118 491 118 Q594 118 645.5 215 Q697 312 697 492 L697 590 Q697 678 683 747.5 Q669 817 642 865 Q615 913 576.5 938.5 Q538 964 488 964 Q440 964 402 938.5 Q364 913 337 865 Q310 817 296 747.5 Q282 678 282 590 L282 492 Z " />
<g transform="translate(67,8)" >
<path fill="black" d="M165 1314 L165 1444 L674 1444 L674 1314 L165 1314 Z " />
</g>
</glyph>
<glyph glyph-name="Ohungarumlaut" unicode="&#x150;" horiz-adv-x="1166" d="M138 855 Q138 1007 170 1123 Q202 1239 260.5 1317.5 Q319 1396 400.5 1436 Q482 1476 582 1476 Q683 1476 765.5 1436 Q848 1396 906 1317.5 Q964 1239 995.5 1123 Q1027 1007 1027 855 L1027 601 Q1027 448 995.5 332 Q964 216 906.5 138 Q849 60 767 20 Q685 -20 584 -20 Q484 -20 402 20 Q320 60 261.5 138 Q203 216 170.5 332 Q138 448 138 601 L138 855 Z M854 857 Q854 1099 783.5 1213.5 Q713 1328 582 1328 Q453 1328 381 1213.5 Q309 1099 309 857 L309 601 Q309 479 328 389.5 Q347 300 382 241.5 Q417 183 468.5 155 Q520 127 584 127 Q715 127 784.5 242 Q854 357 854 601 L854 857 Z M787 1852 L954 1852 L752 1549 L614 1549 L787 1852 Z M518 1852 L680 1852 L511 1549 L383 1549 L518 1852 Z " />
<glyph glyph-name="ohungarumlaut" unicode="&#x151;" horiz-adv-x="980" d="M116 590 Q116 714 143 809.5 Q170 905 219 970 Q268 1035 336.5 1068.5 Q405 1102 488 1102 Q572 1102 641.5 1068.5 Q711 1035 760.5 970 Q810 905 837 809.5 Q864 714 864 590 L864 492 Q864 368 837 272.5 Q810 177 761 112 Q712 47 643 13.5 Q574 -20 491 -20 Q407 -20 337.5 13.5 Q268 47 219 112 Q170 177 143 272.5 Q116 368 116 492 L116 590 Z M282 492 Q282 312 337 215 Q392 118 491 118 Q594 118 645.5 215 Q697 312 697 492 L697 590 Q697 678 683 747.5 Q669 817 642 865 Q615 913 576.5 938.5 Q538 964 488 964 Q440 964 402 938.5 Q364 913 337 865 Q310 817 296 747.5 Q282 678 282 590 L282 492 Z M689 1534 L856 1534 L654 1231 L516 1231 L689 1534 Z M420 1534 L582 1534 L413 1231 L285 1231 L420 1534 Z " />
<glyph glyph-name="OE" unicode="&#x152;" horiz-adv-x="1788" d="M128 880 Q128 1012 159.5 1122 Q191 1232 247.5 1311 Q304 1390 383.5 1433.5 Q463 1477 559 1477 Q618 1477 674 1470.5 Q730 1464 782 1456 L1435 1456 L1435 1314 L901 1314 L901 822 L1364 822 L1364 681 L901 681 L901 142 L1440 142 L1440 0 L782 0 Q730 -8 675 -14.5 Q620 -21 561 -21 Q465 -21 385 22.5 Q305 66 248 145 Q191 224 159.5 334 Q128 444 128 576 L128 880 Z M729 1325 Q689 1332 646.5 1335.5 Q604 1339 559 1339 Q498 1339 449 1309 Q400 1279 365.5 1221 Q331 1163 312.5 1078 Q294 993 294 882 L294 576 Q294 466 313 380.5 Q332 295 366.5 236.5 Q401 178 450.5 147.5 Q500 117 561 117 Q605 117 647.5 120.5 Q690 124 729 131 L729 1325 Z " />
<glyph glyph-name="oe" unicode="&#x153;" horiz-adv-x="1505" d="M121 554 Q121 672 146 772 Q171 872 219 945.5 Q267 1019 336 1060.5 Q405 1102 493 1102 Q591 1102 664.5 1052 Q738 1002 786 914 Q834 1003 905 1052.5 Q976 1102 1061 1102 Q1145 1102 1208.5 1067 Q1272 1032 1314 969 Q1356 906 1377.5 818.5 Q1399 731 1399 625 L1399 509 L873 509 Q874 427 888 355.5 Q902 284 929.5 231 Q957 178 997.5 147.5 Q1038 117 1091 117 Q1132 117 1165.5 125.5 Q1199 134 1227 149 Q1255 164 1278 184 Q1301 204 1322 228 L1378 115 Q1358 89 1329.5 64.5 Q1301 40 1264 21 Q1227 2 1181.5 -9.5 Q1136 -21 1082 -21 Q985 -21 910 29 Q835 79 786 167 Q738 79 664.5 29 Q591 -21 494 -21 Q406 -21 336.5 20.5 Q267 62 219 135.5 Q171 209 146 309.5 Q121 410 121 528 L121 554 Z M287 528 Q287 445 299 370.5 Q311 296 336 239.5 Q361 183 400.5 150 Q440 117 494 117 Q547 117 586 150 Q625 183 650 239.5 Q675 296 687 370.5 Q699 445 699 528 L699 554 Q699 636 687 710 Q675 784 649.5 840.5 Q624 897 585.5 930.5 Q547 964 493 964 Q439 964 400 930.5 Q361 897 336 840.5 Q311 784 299 710 Q287 636 287 554 L287 528 Z M1235 647 L1235 674 Q1235 732 1224.5 784.5 Q1214 837 1193 877 Q1172 917 1139 940.5 Q1106 964 1061 964 Q1023 964 991.5 940 Q960 916 936.5 873.5 Q913 831 897.5 773 Q882 715 876 647 L1235 647 Z " />
<glyph glyph-name="Racute" unicode="&#x154;" horiz-adv-x="1071" >
<path fill="black" d="M169 1456 L550 1456 Q643 1456 715.5 1428 Q788 1400 838 1345 Q888 1290 914.5 1208.5 Q941 1127 941 1021 Q941 952 926.5 891.5 Q912 831 885 781 Q858 731 819.5 693 Q781 655 733 631 L987 12 L987 0 L802 0 L565 595 L342 595 L342 0 L169 0 L169 1456 Z M342 736 L554 736 Q608 736 648 758.5 Q688 781 715 820 Q742 859 755.5 911 Q769 963 769 1021 Q769 1087 756 1141.5 Q743 1196 716 1234 Q689 1272 647.5 1293 Q606 1314 550 1314 L342 1314 L342 736 Z " />
<g transform="translate(279,312)" >
<path fill="black" d="M307 1536 L506 1536 L281 1246 L139 1246 L307 1536 Z " />
</g>
</glyph>
<glyph glyph-name="racute" unicode="&#x155;" horiz-adv-x="642" >
<path fill="black" d="M150 1082 L309 1082 L314 952 Q346 1021 393 1061.5 Q440 1102 506 1102 Q522 1102 541.5 1098 Q561 1094 570 1089 L568 921 Q551 925 533 926.5 Q515 928 497 928 Q426 928 381.5 886 Q337 844 316 769 L316 0 L150 0 L150 1082 Z " />
<g transform="translate(131,-1)" >
<path fill="black" d="M307 1536 L506 1536 L281 1246 L139 1246 L307 1536 Z " />
</g>
</glyph>
<glyph glyph-name="uni0156" unicode="&#x156;" horiz-adv-x="1157" >
<path fill="black" d="M169 1456 L550 1456 Q643 1456 715.5 1428 Q788 1400 838 1345 Q888 1290 914.5 1208.5 Q941 1127 941 1021 Q941 952 926.5 891.5 Q912 831 885 781 Q858 731 819.5 693 Q781 655 733 631 L987 12 L987 0 L802 0 L565 595 L342 595 L342 0 L169 0 L169 1456 Z M342 736 L554 736 Q608 736 648 758.5 Q688 781 715 820 Q742 859 755.5 911 Q769 963 769 1021 Q769 1087 756 1141.5 Q743 1196 716 1234 Q689 1272 647.5 1293 Q606 1314 550 1314 L342 1314 L342 736 Z " />
<g transform="translate(302,-356)" >
<path fill="black" d="M-484 -474 Q-456 -418 -441.5 -360 Q-427 -302 -427 -233 L-427 -151 L-288 -151 L-288 -230 Q-288 -270 -295.5 -312.5 Q-303 -355 -316.5 -396 Q-330 -437 -350.5 -474.5 Q-371 -512 -396 -541 L-484 -474 Z " />
</g>
</glyph>
<glyph glyph-name="uni0157" unicode="&#x157;" horiz-adv-x="692" >
<path fill="black" d="M150 1082 L309 1082 L314 952 Q346 1021 393 1061.5 Q440 1102 506 1102 Q522 1102 541.5 1098 Q561 1094 570 1089 L568 921 Q551 925 533 926.5 Q515 928 497 928 Q426 928 381.5 886 Q337 844 316 769 L316 0 L150 0 L150 1082 Z " />
<g transform="translate(1,-356)" >
<path fill="black" d="M-484 -474 Q-456 -418 -441.5 -360 Q-427 -302 -427 -233 L-427 -151 L-288 -151 L-288 -230 Q-288 -270 -295.5 -312.5 Q-303 -355 -316.5 -396 Q-330 -437 -350.5 -474.5 Q-371 -512 -396 -541 L-484 -474 Z " />
</g>
</glyph>
<glyph glyph-name="Rcaron" unicode="&#x158;" horiz-adv-x="1071" d="M169 1456 L550 1456 Q643 1456 715.5 1428 Q788 1400 838 1345 Q888 1290 914.5 1208.5 Q941 1127 941 1021 Q941 952 926.5 891.5 Q912 831 885 781 Q858 731 819.5 693 Q781 655 733 631 L987 12 L987 0 L802 0 L565 595 L342 595 L342 0 L169 0 L169 1456 Z M342 736 L554 736 Q608 736 648 758.5 Q688 781 715 820 Q742 859 755.5 911 Q769 963 769 1021 Q769 1087 756 1141.5 Q743 1196 716 1234 Q689 1272 647.5 1293 Q606 1314 550 1314 L342 1314 L342 736 Z M456 1564 L253 1833 L253 1845 L394 1845 L508 1667 L622 1845 L764 1845 L764 1833 L560 1564 L456 1564 Z " />
<glyph glyph-name="rcaron" unicode="&#x159;" horiz-adv-x="642" >
<path fill="black" d="M150 1082 L309 1082 L314 952 Q346 1021 393 1061.5 Q440 1102 506 1102 Q522 1102 541.5 1098 Q561 1094 570 1089 L568 921 Q551 925 533 926.5 Q515 928 497 928 Q426 928 381.5 886 Q337 844 316 769 L316 0 L150 0 L150 1082 Z " />
<g transform="translate(-38,0)" >
<path fill="black" d="M143 1520 L143 1532 L284 1532 L398 1354 L512 1532 L654 1532 L654 1520 L450 1251 L346 1251 L143 1520 Z " />
</g>
</glyph>
<glyph glyph-name="Sacute" unicode="&#x15a;" horiz-adv-x="1032" >
<path fill="black" d="M283 421 Q283 341 303 284.5 Q323 228 357.5 192 Q392 156 438 139 Q484 122 536 122 Q641 122 696 188 Q751 254 751 366 Q751 420 740.5 461 Q730 502 702 536.5 Q674 571 626 600.5 Q578 630 504 661 Q425 692 359 730.5 Q293 769 245 819.5 Q197 870 170.5 935 Q144 1000 144 1085 Q144 1170 172 1242 Q200 1314 251 1366 Q302 1418 373 1447 Q444 1476 530 1476 Q622 1476 694.5 1440 Q767 1404 817 1343.5 Q867 1283 894 1204 Q921 1125 921 1038 L749 1038 Q749 1102 735.5 1156 Q722 1210 694.5 1249.5 Q667 1289 625.5 1311.5 Q584 1334 528 1334 Q474 1334 434.5 1315 Q395 1296 368.5 1263 Q342 1230 329 1185 Q316 1140 316 1088 Q316 993 375.5 928.5 Q435 864 562 811 Q653 777 721 736 Q789 695 834 641.5 Q879 588 901.5 521 Q924 454 924 368 Q924 279 896.5 207.5 Q869 136 818 85.5 Q767 35 695.5 7.5 Q624 -20 536 -20 Q458 -20 381.5 7.5 Q305 35 245 89.5 Q185 144 147.5 227 Q110 310 110 421 L283 421 Z " />
<g transform="translate(299,317)" >
<path fill="black" d="M307 1536 L506 1536 L281 1246 L139 1246 L307 1536 Z " />
</g>
</glyph>
<glyph glyph-name="sacute" unicode="&#x15b;" horiz-adv-x="898" >
<path fill="black" d="M275 316 Q277 257 293.5 219 Q310 181 335 158.5 Q360 136 391.5 127 Q423 118 455 118 Q533 118 573.5 162 Q614 206 614 275 Q614 307 604.5 333 Q595 359 572.5 383 Q550 407 513 429.5 Q476 452 420 477 Q353 509 301 539.5 Q249 570 213 606.5 Q177 643 158.5 690 Q140 737 140 800 Q140 863 161.5 918.5 Q183 974 223.5 1014.5 Q264 1055 321 1078.5 Q378 1102 450 1102 Q525 1102 585 1077 Q645 1052 686.5 1008.5 Q728 965 750 905.5 Q772 846 772 776 L606 776 Q606 812 596 846 Q586 880 566.5 906 Q547 932 517.5 948 Q488 964 450 964 Q412 964 384 950.5 Q356 937 338 915 Q320 893 311.5 864.5 Q303 836 303 806 Q303 775 311 752 Q319 729 340 708 Q361 687 397 667 Q433 647 489 622 Q561 589 615 557 Q669 525 705 486.5 Q741 448 759 400 Q777 352 777 287 Q777 217 754 160 Q731 103 689 63 Q647 23 587 1.5 Q527 -20 453 -20 Q370 -20 306.5 8 Q243 36 199.5 82.5 Q156 129 134 189.5 Q112 250 112 316 L275 316 Z " />
<g transform="translate(235,-1)" >
<path fill="black" d="M307 1536 L506 1536 L281 1246 L139 1246 L307 1536 Z " />
</g>
</glyph>
<glyph glyph-name="Scedilla" unicode="&#x15e;" horiz-adv-x="1032" d="M457 -339 Q504 -339 536 -315 Q568 -291 568 -234 Q568 -208 561.5 -190.5 Q555 -173 540.5 -162 Q526 -151 504 -144.5 Q482 -138 451 -134 L473 -16 Q403 -6 337.5 26 Q272 58 221.5 112.5 Q171 167 140.5 244 Q110 321 110 421 L283 421 Q283 341 303 284.5 Q323 228 357.5 192 Q392 156 438 139 Q484 122 536 122 Q641 122 696 188 Q751 254 751 366 Q751 420 740.5 461 Q730 502 702 536.5 Q674 571 626 600.5 Q578 630 504 661 Q425 692 359 730.5 Q293 769 245 819.5 Q197 870 170.5 935 Q144 1000 144 1085 Q144 1170 172 1242 Q200 1314 251 1366 Q302 1418 373 1447 Q444 1476 530 1476 Q622 1476 694.5 1440 Q767 1404 817 1343.5 Q867 1283 894 1204 Q921 1125 921 1038 L749 1038 Q749 1102 735.5 1156 Q722 1210 694.5 1249.5 Q667 1289 625.5 1311.5 Q584 1334 528 1334 Q474 1334 434.5 1315 Q395 1296 368.5 1263 Q342 1230 329 1185 Q316 1140 316 1088 Q316 993 375.5 928.5 Q435 864 562 811 Q653 777 721 736 Q789 695 834 641.5 Q879 588 901.5 521 Q924 454 924 368 Q924 287 900.5 220 Q877 153 834.5 103.5 Q792 54 731 23 Q670 -8 595 -17 L588 -58 Q610 -63 630.5 -74 Q651 -85 667 -105.5 Q683 -126 693 -156.5 Q703 -187 703 -230 Q703 -323 642 -380 Q581 -437 462 -437 L457 -339 Z " />
<glyph glyph-name="scedilla" unicode="&#x15f;" horiz-adv-x="898" d="M389 -346 Q436 -346 468 -322 Q500 -298 500 -241 Q500 -215 493.5 -197.5 Q487 -180 472.5 -169 Q458 -158 436 -151.5 Q414 -145 383 -141 L405 -17 Q334 -9 279 21 Q224 51 187 96.5 Q150 142 131 198.5 Q112 255 112 316 L275 316 Q277 257 293.5 219 Q310 181 335 158.5 Q360 136 391.5 127 Q423 118 455 118 Q533 118 573.5 162 Q614 206 614 275 Q614 307 604.5 333 Q595 359 572.5 383 Q550 407 513 429.5 Q476 452 420 477 Q353 509 301 539.5 Q249 570 213 606.5 Q177 643 158.5 690 Q140 737 140 800 Q140 863 161.5 918.5 Q183 974 223.5 1014.5 Q264 1055 321 1078.5 Q378 1102 450 1102 Q525 1102 585 1077 Q645 1052 686.5 1008.5 Q728 965 750 905.5 Q772 846 772 776 L606 776 Q606 812 596 846 Q586 880 566.5 906 Q547 932 517.5 948 Q488 964 450 964 Q412 964 384 950.5 Q356 937 338 915 Q320 893 311.5 864.5 Q303 836 303 806 Q303 775 311 752 Q319 729 340 708 Q361 687 397 667 Q433 647 489 622 Q561 589 615 557 Q669 525 705 486.5 Q741 448 759 400 Q777 352 777 287 Q777 226 760 175.5 Q743 125 710.5 86 Q678 47 632 21.5 Q586 -4 528 -14 L520 -65 Q542 -70 562.5 -81 Q583 -92 599 -112.5 Q615 -133 625 -163.5 Q635 -194 635 -237 Q635 -330 574 -387 Q513 -444 394 -444 L389 -346 Z " />
<glyph glyph-name="Scaron" unicode="&#x160;" horiz-adv-x="1032" >
<path fill="black" d="M283 421 Q283 341 303 284.5 Q323 228 357.5 192 Q392 156 438 139 Q484 122 536 122 Q641 122 696 188 Q751 254 751 366 Q751 420 740.5 461 Q730 502 702 536.5 Q674 571 626 600.5 Q578 630 504 661 Q425 692 359 730.5 Q293 769 245 819.5 Q197 870 170.5 935 Q144 1000 144 1085 Q144 1170 172 1242 Q200 1314 251 1366 Q302 1418 373 1447 Q444 1476 530 1476 Q622 1476 694.5 1440 Q767 1404 817 1343.5 Q867 1283 894 1204 Q921 1125 921 1038 L749 1038 Q749 1102 735.5 1156 Q722 1210 694.5 1249.5 Q667 1289 625.5 1311.5 Q584 1334 528 1334 Q474 1334 434.5 1315 Q395 1296 368.5 1263 Q342 1230 329 1185 Q316 1140 316 1088 Q316 993 375.5 928.5 Q435 864 562 811 Q653 777 721 736 Q789 695 834 641.5 Q879 588 901.5 521 Q924 454 924 368 Q924 279 896.5 207.5 Q869 136 818 85.5 Q767 35 695.5 7.5 Q624 -20 536 -20 Q458 -20 381.5 7.5 Q305 35 245 89.5 Q185 144 147.5 227 Q110 310 110 421 L283 421 Z " />
<g transform="translate(130,318)" >
<path fill="black" d="M143 1520 L143 1532 L284 1532 L398 1354 L512 1532 L654 1532 L654 1520 L450 1251 L346 1251 L143 1520 Z " />
</g>
</glyph>
<glyph glyph-name="scaron" unicode="&#x161;" horiz-adv-x="898" >
<path fill="black" d="M275 316 Q277 257 293.5 219 Q310 181 335 158.5 Q360 136 391.5 127 Q423 118 455 118 Q533 118 573.5 162 Q614 206 614 275 Q614 307 604.5 333 Q595 359 572.5 383 Q550 407 513 429.5 Q476 452 420 477 Q353 509 301 539.5 Q249 570 213 606.5 Q177 643 158.5 690 Q140 737 140 800 Q140 863 161.5 918.5 Q183 974 223.5 1014.5 Q264 1055 321 1078.5 Q378 1102 450 1102 Q525 1102 585 1077 Q645 1052 686.5 1008.5 Q728 965 750 905.5 Q772 846 772 776 L606 776 Q606 812 596 846 Q586 880 566.5 906 Q547 932 517.5 948 Q488 964 450 964 Q412 964 384 950.5 Q356 937 338 915 Q320 893 311.5 864.5 Q303 836 303 806 Q303 775 311 752 Q319 729 340 708 Q361 687 397 667 Q433 647 489 622 Q561 589 615 557 Q669 525 705 486.5 Q741 448 759 400 Q777 352 777 287 Q777 217 754 160 Q731 103 689 63 Q647 23 587 1.5 Q527 -20 453 -20 Q370 -20 306.5 8 Q243 36 199.5 82.5 Q156 129 134 189.5 Q112 250 112 316 L275 316 Z " />
<g transform="translate(66,0)" >
<path fill="black" d="M143 1520 L143 1532 L284 1532 L398 1354 L512 1532 L654 1532 L654 1520 L450 1251 L346 1251 L143 1520 Z " />
</g>
</glyph>
<glyph glyph-name="uni0162" unicode="&#x162;" horiz-adv-x="1039" d="M444 -337 Q491 -337 523 -313 Q555 -289 555 -232 Q555 -206 548.5 -188.5 Q542 -171 527.5 -160 Q513 -149 491 -142.5 Q469 -136 438 -132 L462 0 L433 0 L433 1314 L86 1314 L86 1456 L953 1456 L953 1314 L605 1314 L605 0 L584 0 L575 -56 Q597 -61 617.5 -72 Q638 -83 654 -103.5 Q670 -124 680 -154.5 Q690 -185 690 -228 Q690 -321 629 -378 Q568 -435 449 -435 L444 -337 Z " />
<glyph glyph-name="uni0163" unicode="&#x163;" horiz-adv-x="614" d="M311 -337 Q358 -337 390 -313 Q422 -289 422 -232 Q422 -206 415.5 -188.5 Q409 -171 394.5 -160 Q380 -149 358 -142.5 Q336 -136 305 -132 L328 -8 Q269 13 233 77.5 Q197 142 197 268 L197 953 L60 953 L60 1082 L197 1082 L197 1349 L363 1349 L363 1082 L512 1082 L512 953 L363 953 L363 267 Q363 221 369.5 192.5 Q376 164 388 148.5 Q400 133 416.5 128 Q433 123 452 123 Q470 123 488 127 Q506 131 517 135 L518 -1 Q504 -6 486.5 -10 Q469 -14 448 -17 L442 -56 Q464 -61 484.5 -72 Q505 -83 521 -103.5 Q537 -124 547 -154.5 Q557 -185 557 -228 Q557 -321 496 -378 Q435 -435 316 -435 L311 -337 Z " />
<glyph glyph-name="Tcaron" unicode="&#x164;" horiz-adv-x="1039" d="M433 1314 L86 1314 L86 1456 L953 1456 L953 1314 L605 1314 L605 0 L433 0 L433 1314 Z M466 1562 L263 1831 L263 1843 L404 1843 L518 1665 L632 1843 L774 1843 L774 1831 L570 1562 L466 1562 Z " />
<glyph glyph-name="tcaron" unicode="&#x165;" horiz-adv-x="709" d="M197 953 L60 953 L60 1028 Q46 984 25.5 945 Q5 906 -22 875 L-110 942 Q-82 998 -67.5 1056 Q-53 1114 -53 1183 L-53 1265 L86 1265 L86 1186 Q86 1137 75 1082 L197 1082 L197 1349 L363 1349 L363 1082 L512 1082 L512 953 L363 953 L363 267 Q363 221 369.5 192.5 Q376 164 388 148.5 Q400 133 416.5 128 Q433 123 452 123 Q470 123 488 127 Q506 131 517 135 L518 -1 Q498 -8 469 -14 Q440 -20 403 -20 Q358 -20 320.5 -5.5 Q283 9 255.5 42.5 Q228 76 212.5 131.5 Q197 187 197 268 L197 953 Z " />
<glyph glyph-name="Tbar" unicode="&#x166;" horiz-adv-x="1039" d="M433 827 L268 827 L268 964 L433 964 L433 1314 L86 1314 L86 1456 L953 1456 L953 1314 L605 1314 L605 964 L765 964 L765 827 L605 827 L605 0 L433 0 L433 827 Z " />
<glyph glyph-name="tbar" unicode="&#x167;" horiz-adv-x="614" d="M197 607 L39 607 L39 744 L197 744 L197 953 L60 953 L60 1082 L197 1082 L197 1349 L363 1349 L363 1082 L512 1082 L512 953 L363 953 L363 744 L536 744 L536 607 L363 607 L363 267 Q363 221 369.5 192.5 Q376 164 388 148.5 Q400 133 416.5 128 Q433 123 452 123 Q470 123 488 127 Q506 131 517 135 L518 -1 Q498 -8 469 -14 Q440 -20 403 -20 Q358 -20 320.5 -5.5 Q283 9 255.5 42.5 Q228 76 212.5 131.5 Q197 187 197 268 L197 607 Z " />
<glyph glyph-name="Utilde" unicode="&#x168;" horiz-adv-x="1114" >
<path fill="black" d="M152 1456 L323 1456 L323 435 Q323 347 340 286.5 Q357 226 387.5 189.5 Q418 153 461.5 137 Q505 121 558 121 Q611 121 654 137 Q697 153 727 189.5 Q757 226 773.5 286.5 Q790 347 790 435 L790 1456 L963 1456 L963 435 Q963 312 931 225.5 Q899 139 844.5 84.5 Q790 30 716 5 Q642 -20 558 -20 Q471 -20 396.5 5 Q322 30 267.5 84.5 Q213 139 182.5 225.5 Q152 312 152 435 L152 1456 Z " />
<g transform="translate(143,317)" >
<path fill="black" d="M143 1254 Q143 1307 155.5 1350 Q168 1393 189.5 1424.5 Q211 1456 241 1473 Q271 1490 306 1490 Q338 1490 363 1474.5 Q388 1459 411 1440.5 Q434 1422 458 1406.5 Q482 1391 511 1391 Q541 1391 562 1423.5 Q583 1456 583 1507 L686 1497 Q686 1444 673.5 1400.5 Q661 1357 639.5 1326.5 Q618 1296 588 1279 Q558 1262 523 1262 Q485 1262 460 1277.5 Q435 1293 413.5 1312 Q392 1331 370.5 1346.5 Q349 1362 318 1362 Q288 1362 267.5 1330.5 Q247 1299 247 1249 L143 1254 Z " />
</g>
</glyph>
<glyph glyph-name="utilde" unicode="&#x169;" horiz-adv-x="960" >
<path fill="black" d="M146 1082 L312 1082 L312 384 Q312 307 323.5 256.5 Q335 206 354.5 176 Q374 146 399 134 Q424 122 452 122 Q530 122 576 164.5 Q622 207 645 278 L645 1082 L812 1082 L812 0 L654 0 L650 110 Q612 48 554 14 Q496 -20 415 -20 Q355 -20 305.5 2.5 Q256 25 220.5 74 Q185 123 165.5 200 Q146 277 146 386 L146 1082 Z " />
<g transform="translate(68,5)" >
<path fill="black" d="M143 1254 Q143 1307 155.5 1350 Q168 1393 189.5 1424.5 Q211 1456 241 1473 Q271 1490 306 1490 Q338 1490 363 1474.5 Q388 1459 411 1440.5 Q434 1422 458 1406.5 Q482 1391 511 1391 Q541 1391 562 1423.5 Q583 1456 583 1507 L686 1497 Q686 1444 673.5 1400.5 Q661 1357 639.5 1326.5 Q618 1296 588 1279 Q558 1262 523 1262 Q485 1262 460 1277.5 Q435 1293 413.5 1312 Q392 1331 370.5 1346.5 Q349 1362 318 1362 Q288 1362 267.5 1330.5 Q247 1299 247 1249 L143 1254 Z " />
</g>
</glyph>
<glyph glyph-name="Umacron" unicode="&#x16a;" horiz-adv-x="1114" >
<path fill="black" d="M152 1456 L323 1456 L323 435 Q323 347 340 286.5 Q357 226 387.5 189.5 Q418 153 461.5 137 Q505 121 558 121 Q611 121 654 137 Q697 153 727 189.5 Q757 226 773.5 286.5 Q790 347 790 435 L790 1456 L963 1456 L963 435 Q963 312 931 225.5 Q899 139 844.5 84.5 Q790 30 716 5 Q642 -20 558 -20 Q471 -20 396.5 5 Q322 30 267.5 84.5 Q213 139 182.5 225.5 Q152 312 152 435 L152 1456 Z " />
<g transform="translate(139,321)" >
<path fill="black" d="M165 1314 L165 1444 L674 1444 L674 1314 L165 1314 Z " />
</g>
</glyph>
<glyph glyph-name="umacron" unicode="&#x16b;" horiz-adv-x="960" d="M146 1082 L312 1082 L312 384 Q312 307 323.5 256.5 Q335 206 354.5 176 Q374 146 399 134 Q424 122 452 122 Q530 122 576 164.5 Q622 207 645 278 L645 1082 L812 1082 L812 0 L654 0 L650 110 Q612 48 554 14 Q496 -20 415 -20 Q355 -20 305.5 2.5 Q256 25 220.5 74 Q185 123 165.5 200 Q146 277 146 386 L146 1082 Z M229 1453 L738 1453 L738 1323 L229 1323 L229 1453 Z " />
<glyph glyph-name="Uring" unicode="&#x16e;" horiz-adv-x="1114" >
<path fill="black" d="M152 1456 L323 1456 L323 435 Q323 347 340 286.5 Q357 226 387.5 189.5 Q418 153 461.5 137 Q505 121 558 121 Q611 121 654 137 Q697 153 727 189.5 Q757 226 773.5 286.5 Q790 347 790 435 L790 1456 L963 1456 L963 435 Q963 312 931 225.5 Q899 139 844.5 84.5 Q790 30 716 5 Q642 -20 558 -20 Q471 -20 396.5 5 Q322 30 267.5 84.5 Q213 139 182.5 225.5 Q152 312 152 435 L152 1456 Z " />
<g transform="translate(234,321)" >
<path fill="black" d="M325 1206 Q286 1206 252.5 1221 Q219 1236 195 1263 Q171 1290 157.5 1326.5 Q144 1363 144 1405 Q144 1447 157.5 1484 Q171 1521 195 1548.5 Q219 1576 252.5 1592 Q286 1608 325 1608 Q364 1608 396.5 1592 Q429 1576 453 1548.5 Q477 1521 490.5 1484 Q504 1447 504 1405 Q504 1363 490.5 1326.5 Q477 1290 453 1263 Q429 1236 396.5 1221 Q364 1206 325 1206 Z M325 1290 Q369 1290 394 1323.5 Q419 1357 419 1405 Q419 1429 412.5 1450.5 Q406 1472 394 1488.5 Q382 1505 364.5 1514.5 Q347 1524 325 1524 Q303 1524 285 1514.5 Q267 1505 254.5 1488.5 Q242 1472 235.5 1450.5 Q229 1429 229 1405 Q229 1382 235.5 1361 Q242 1340 254.5 1324.5 Q267 1309 285 1299.5 Q303 1290 325 1290 Z " />
</g>
</glyph>
<glyph glyph-name="uring" unicode="&#x16f;" horiz-adv-x="960" d="M146 1082 L312 1082 L312 384 Q312 307 323.5 256.5 Q335 206 354.5 176 Q374 146 399 134 Q424 122 452 122 Q530 122 576 164.5 Q622 207 645 278 L645 1082 L812 1082 L812 0 L654 0 L650 110 Q612 48 554 14 Q496 -20 415 -20 Q355 -20 305.5 2.5 Q256 25 220.5 74 Q185 123 165.5 200 Q146 277 146 386 L146 1082 Z M484 1215 Q445 1215 411.5 1230 Q378 1245 354 1272 Q330 1299 316.5 1335.5 Q303 1372 303 1414 Q303 1456 316.5 1493 Q330 1530 354 1557.5 Q378 1585 411.5 1601 Q445 1617 484 1617 Q523 1617 555.5 1601 Q588 1585 612 1557.5 Q636 1530 649.5 1493 Q663 1456 663 1414 Q663 1372 649.5 1335.5 Q636 1299 612 1272 Q588 1245 555.5 1230 Q523 1215 484 1215 Z M484 1299 Q528 1299 553 1332.5 Q578 1366 578 1414 Q578 1438 571.5 1459.5 Q565 1481 553 1497.5 Q541 1514 523.5 1523.5 Q506 1533 484 1533 Q462 1533 444 1523.5 Q426 1514 413.5 1497.5 Q401 1481 394.5 1459.5 Q388 1438 388 1414 Q388 1391 394.5 1370 Q401 1349 413.5 1333.5 Q426 1318 444 1308.5 Q462 1299 484 1299 Z " />
<glyph glyph-name="Uhungarumlaut" unicode="&#x170;" horiz-adv-x="1114" d="M152 1456 L323 1456 L323 435 Q323 347 340 286.5 Q357 226 387.5 189.5 Q418 153 461.5 137 Q505 121 558 121 Q611 121 654 137 Q697 153 727 189.5 Q757 226 773.5 286.5 Q790 347 790 435 L790 1456 L963 1456 L963 435 Q963 312 931 225.5 Q899 139 844.5 84.5 Q790 30 716 5 Q642 -20 558 -20 Q471 -20 396.5 5 Q322 30 267.5 84.5 Q213 139 182.5 225.5 Q152 312 152 435 L152 1456 Z M761 1847 L928 1847 L726 1544 L588 1544 L761 1847 Z M492 1847 L654 1847 L485 1544 L357 1544 L492 1847 Z " />
<glyph glyph-name="uhungarumlaut" unicode="&#x171;" horiz-adv-x="960" d="M146 1082 L312 1082 L312 384 Q312 307 323.5 256.5 Q335 206 354.5 176 Q374 146 399 134 Q424 122 452 122 Q530 122 576 164.5 Q622 207 645 278 L645 1082 L812 1082 L812 0 L654 0 L650 110 Q612 48 554 14 Q496 -20 415 -20 Q355 -20 305.5 2.5 Q256 25 220.5 74 Q185 123 165.5 200 Q146 277 146 386 L146 1082 Z M513 1232 L686 1535 L853 1535 L651 1232 L513 1232 Z M417 1535 L579 1535 L410 1232 L282 1232 L417 1535 Z " />
<glyph glyph-name="Uogonek" unicode="&#x172;" horiz-adv-x="1114" d="M558 -20 Q471 -20 396.5 5 Q322 30 267.5 84.5 Q213 139 182.5 225.5 Q152 312 152 435 L152 1456 L323 1456 L323 435 Q323 347 340 286.5 Q357 226 387.5 189.5 Q418 153 461.5 137 Q505 121 558 121 Q611 121 654 137 Q697 153 727 189.5 Q757 226 773.5 286.5 Q790 347 790 435 L790 1456 L963 1456 L963 435 Q963 354 948.5 288.5 Q934 223 908 172.5 Q882 122 845.5 85.5 Q809 49 765 26 Q718 -20 687.5 -71 Q657 -122 657 -182 Q657 -217 669.5 -238 Q682 -259 713 -259 Q736 -259 753.5 -249 Q771 -239 782 -231 L798 -341 Q779 -356 750 -370.5 Q721 -385 676 -385 Q644 -385 616 -373.5 Q588 -362 567.5 -338.5 Q547 -315 535 -280.5 Q523 -246 523 -201 Q523 -155 536.5 -109 Q550 -63 581 -20 L558 -20 Z " />
<glyph glyph-name="uogonek" unicode="&#x173;" horiz-adv-x="960" d="M650 110 Q612 48 554 14 Q496 -20 415 -20 Q355 -20 305.5 2.5 Q256 25 220.5 74 Q185 123 165.5 200 Q146 277 146 386 L146 1082 L312 1082 L312 384 Q312 307 323.5 256.5 Q335 206 354.5 176 Q374 146 399 134 Q424 122 452 122 Q530 122 576 164.5 Q622 207 645 278 L645 1082 L812 1082 L812 0 L798 0 Q746 -50 709.5 -105 Q673 -160 673 -225 Q673 -260 685.5 -281 Q698 -302 729 -302 Q752 -302 769.5 -292 Q787 -282 798 -274 L814 -384 Q795 -399 766 -413.5 Q737 -428 692 -428 Q660 -428 632 -416.5 Q604 -405 583.5 -381.5 Q563 -358 551 -323.5 Q539 -289 539 -244 Q539 -180 565.5 -117.5 Q592 -55 654 1 L650 110 Z " />
<glyph glyph-name="Wcircumflex" unicode="&#x174;" horiz-adv-x="1468" >
<path fill="black" d="M90 1456 L262 1456 L433 304 L437 261 L441 287 L652 1456 L828 1456 L1036 287 L1041 258 L1045 305 L1214 1456 L1386 1456 L1135 0 L955 0 L745 1134 L740 1173 L735 1134 L522 0 L341 0 L90 1456 Z " />
<g transform="translate(328,312)" >
<path fill="black" d="M165 1267 L365 1534 L463 1534 L665 1265 L665 1255 L530 1255 L414 1428 L299 1255 L165 1255 L165 1267 Z " />
</g>
</glyph>
<glyph glyph-name="wcircumflex" unicode="&#x175;" horiz-adv-x="1255" >
<path fill="black" d="M82 1082 L245 1082 L385 289 L562 1082 L689 1082 L868 280 L1006 1082 L1170 1082 L945 0 L807 0 L624 820 L444 0 L306 0 L82 1082 Z " />
<g transform="translate(210,0)" >
<path fill="black" d="M165 1267 L365 1534 L463 1534 L665 1265 L665 1255 L530 1255 L414 1428 L299 1255 L165 1255 L165 1267 Z " />
</g>
</glyph>
<glyph glyph-name="Ycircumflex" unicode="&#x176;" horiz-adv-x="1041" >
<path fill="black" d="M433 545 L60 1456 L253 1456 L520 706 L788 1456 L980 1456 L606 545 L606 0 L433 0 L433 545 Z " />
<g transform="translate(109,309)" >
<path fill="black" d="M165 1267 L365 1534 L463 1534 L665 1265 L665 1255 L530 1255 L414 1428 L299 1255 L165 1255 L165 1267 Z " />
</g>
</glyph>
<glyph glyph-name="ycircumflex" unicode="&#x177;" horiz-adv-x="852" >
<path fill="black" d="M126 -287 Q133 -289 145 -290.5 Q157 -292 163 -292 Q197 -292 221.5 -282 Q246 -272 265 -250 Q284 -228 298.5 -193.5 Q313 -159 328 -110 L359 -9 L64 1082 L244 1082 L431 276 L611 1082 L789 1082 L459 -170 Q449 -209 431 -255.5 Q413 -302 384 -342.5 Q355 -383 312.5 -410 Q270 -437 211 -437 Q188 -437 165.5 -431.5 Q143 -426 126 -422 L126 -287 Z " />
<g transform="translate(25,0)" >
<path fill="black" d="M165 1267 L365 1534 L463 1534 L665 1265 L665 1255 L530 1255 L414 1428 L299 1255 L165 1255 L165 1267 Z " />
</g>
</glyph>
<glyph glyph-name="Ydieresis" unicode="&#x178;" horiz-adv-x="1041" >
<path fill="black" d="M433 545 L60 1456 L253 1456 L520 706 L788 1456 L980 1456 L606 545 L606 0 L433 0 L433 545 Z " />
<g transform="translate(698,311)" >
<path fill="black" d="M-386 1280 Q-432 1280 -457.5 1308 Q-483 1336 -483 1378 Q-483 1420 -457.5 1448.5 Q-432 1477 -386 1477 Q-341 1477 -315.5 1448.5 Q-290 1420 -290 1378 Q-290 1336 -315.5 1308 Q-341 1280 -386 1280 Z " />
</g>
<g transform="translate(1092,309)" >
<path fill="black" d="M-386 1280 Q-432 1280 -457.5 1308 Q-483 1336 -483 1378 Q-483 1420 -457.5 1448.5 Q-432 1477 -386 1477 Q-341 1477 -315.5 1448.5 Q-290 1420 -290 1378 Q-290 1336 -315.5 1308 Q-341 1280 -386 1280 Z " />
</g>
</glyph>
<glyph glyph-name="Zacute" unicode="&#x179;" horiz-adv-x="1033" >
<path fill="black" d="M113 130 L722 1314 L121 1314 L121 1456 L907 1456 L907 1331 L300 142 L926 142 L926 0 L113 0 L113 130 Z " />
<g transform="translate(291,312)" >
<path fill="black" d="M307 1536 L506 1536 L281 1246 L139 1246 L307 1536 Z " />
</g>
</glyph>
<glyph glyph-name="zacute" unicode="&#x17a;" horiz-adv-x="877" >
<path fill="black" d="M114 122 L571 943 L124 943 L124 1082 L754 1082 L754 963 L295 138 L773 138 L773 0 L114 0 L114 122 Z " />
<g transform="translate(213,0)" >
<path fill="black" d="M307 1536 L506 1536 L281 1246 L139 1246 L307 1536 Z " />
</g>
</glyph>
<glyph glyph-name="Zdotaccent" unicode="&#x17b;" horiz-adv-x="1033" >
<path fill="black" d="M113 130 L722 1314 L121 1314 L121 1456 L907 1456 L907 1331 L300 142 L926 142 L926 0 L113 0 L113 130 Z " />
<g transform="translate(266,312)" >
<path fill="black" d="M151 1372 Q151 1414 176.5 1442.5 Q202 1471 250 1471 Q296 1471 322 1442.5 Q348 1414 348 1372 Q348 1330 322 1302 Q296 1274 250 1274 Q202 1274 176.5 1302 Q151 1330 151 1372 Z " />
</g>
</glyph>
<glyph glyph-name="zdotaccent" unicode="&#x17c;" horiz-adv-x="877" >
<path fill="black" d="M114 122 L571 943 L124 943 L124 1082 L754 1082 L754 963 L295 138 L773 138 L773 0 L114 0 L114 122 Z " />
<g transform="translate(188,0)" >
<path fill="black" d="M151 1372 Q151 1414 176.5 1442.5 Q202 1471 250 1471 Q296 1471 322 1442.5 Q348 1414 348 1372 Q348 1330 322 1302 Q296 1274 250 1274 Q202 1274 176.5 1302 Q151 1330 151 1372 Z " />
</g>
</glyph>
<glyph glyph-name="Zcaron" unicode="&#x17d;" horiz-adv-x="1033" d="M113 130 L722 1314 L121 1314 L121 1456 L907 1456 L907 1331 L300 142 L926 142 L926 0 L113 0 L113 130 Z M468 1564 L265 1833 L265 1845 L406 1845 L520 1667 L634 1845 L776 1845 L776 1833 L572 1564 L468 1564 Z " />
<glyph glyph-name="zcaron" unicode="&#x17e;" horiz-adv-x="877" d="M114 122 L571 943 L124 943 L124 1082 L754 1082 L754 963 L295 138 L773 138 L773 0 L114 0 L114 122 Z M390 1252 L187 1521 L187 1533 L328 1533 L442 1355 L556 1533 L698 1533 L698 1521 L494 1252 L390 1252 Z " />
<glyph glyph-name="florin" unicode="&#x192;" horiz-adv-x="641" d="M37 -286 Q43 -289 52.5 -291.5 Q62 -294 72.5 -295.5 Q83 -297 92.5 -298 Q102 -299 108 -299 Q159 -299 184 -244 Q209 -189 209 -89 L209 953 L82 953 L82 1082 L209 1082 L209 1202 Q209 1376 280.5 1466.5 Q352 1557 480 1557 Q508 1557 535.5 1551.5 Q563 1546 592 1537 L575 1403 Q545 1415 500 1415 Q437 1415 406 1360 Q375 1305 375 1202 L375 1082 L532 1082 L532 953 L374 953 L374 -89 Q374 -259 307.5 -348 Q241 -437 120 -437 Q95 -437 72.5 -433 Q50 -429 26 -419 L37 -286 Z " />
<glyph glyph-name="Ohorn" unicode="&#x1a0;" horiz-adv-x="1322" d="M149 855 Q149 1007 181 1123 Q213 1239 271.5 1317.5 Q330 1396 411.5 1436 Q493 1476 593 1476 Q696 1476 778 1435.5 Q860 1395 919 1314 Q981 1331 1005 1401 Q1029 1471 1029 1584 L1159 1584 Q1159 1431 1115 1334 Q1071 1237 980 1203 Q1038 1061 1038 855 L1038 601 Q1038 448 1006.5 332 Q975 216 917.5 138 Q860 60 778 20 Q696 -20 595 -20 Q495 -20 413 20 Q331 60 272.5 138 Q214 216 181.5 332 Q149 448 149 601 L149 855 Z M320 601 Q320 479 339 389.5 Q358 300 393 241.5 Q428 183 479.5 155 Q531 127 595 127 Q726 127 795.5 242 Q865 357 865 601 L865 857 Q865 1099 794.5 1213.5 Q724 1328 593 1328 Q464 1328 392 1213.5 Q320 1099 320 857 L320 601 Z " />
<glyph glyph-name="ohorn" unicode="&#x1a1;" horiz-adv-x="1110" d="M124 590 Q124 714 151 809.5 Q178 905 227 970 Q276 1035 344.5 1068.5 Q413 1102 496 1102 Q581 1102 649 1069 Q717 1036 767 972 Q816 993 830.5 1052.5 Q845 1112 845 1200 L962 1200 Q962 1075 929.5 992.5 Q897 910 822 875 Q846 818 859 746.5 Q872 675 872 590 L872 492 Q872 368 845 272.5 Q818 177 769 112 Q720 47 651 13.5 Q582 -20 499 -20 Q415 -20 345.5 13.5 Q276 47 227 112 Q178 177 151 272.5 Q124 368 124 492 L124 590 Z M290 492 Q290 312 345 215 Q400 118 499 118 Q602 118 653.5 215 Q705 312 705 492 L705 590 Q705 678 691 747.5 Q677 817 650 865 Q623 913 584.5 938.5 Q546 964 496 964 Q448 964 410 938.5 Q372 913 345 865 Q318 817 304 747.5 Q290 678 290 590 L290 492 Z " />
<glyph glyph-name="Uhorn" unicode="&#x1af;" horiz-adv-x="1331" d="M159 1456 L330 1456 L330 435 Q330 347 347 286.5 Q364 226 394.5 189.5 Q425 153 468.5 137 Q512 121 565 121 Q618 121 661 137 Q704 153 734 189.5 Q764 226 780.5 286.5 Q797 347 797 435 L797 1456 L970 1456 L970 1244 Q1016 1250 1045.5 1272.5 Q1075 1295 1091.5 1332.5 Q1108 1370 1114 1422.5 Q1120 1475 1120 1541 L1245 1541 Q1245 1444 1230.5 1368 Q1216 1292 1183.5 1239.5 Q1151 1187 1098.5 1157 Q1046 1127 970 1121 L970 435 Q970 312 938 225.5 Q906 139 851.5 84.5 Q797 30 723 5 Q649 -20 565 -20 Q478 -20 403.5 5 Q329 30 274.5 84.5 Q220 139 189.5 225.5 Q159 312 159 435 L159 1456 Z " />
<glyph glyph-name="uhorn" unicode="&#x1b0;" horiz-adv-x="1215" d="M153 1082 L319 1082 L319 384 Q319 307 330.5 256.5 Q342 206 361.5 176 Q381 146 406 134 Q431 122 459 122 Q537 122 583 164.5 Q629 207 652 278 L652 1082 L819 1082 L819 954 Q855 960 876 975.5 Q897 991 907.5 1018 Q918 1045 921 1083.5 Q924 1122 924 1172 L1037 1172 Q1037 1098 1026.5 1040.5 Q1016 983 991 942 Q966 901 924 877.5 Q882 854 819 848 L819 0 L661 0 L657 110 Q619 48 561 14 Q503 -20 422 -20 Q362 -20 312.5 2.5 Q263 25 227.5 74 Q192 123 172.5 200 Q153 277 153 386 L153 1082 Z " />
<glyph glyph-name="uni0218" unicode="&#x218;" horiz-adv-x="1138" >
<path fill="black" d="M283 421 Q283 341 303 284.5 Q323 228 357.5 192 Q392 156 438 139 Q484 122 536 122 Q641 122 696 188 Q751 254 751 366 Q751 420 740.5 461 Q730 502 702 536.5 Q674 571 626 600.5 Q578 630 504 661 Q425 692 359 730.5 Q293 769 245 819.5 Q197 870 170.5 935 Q144 1000 144 1085 Q144 1170 172 1242 Q200 1314 251 1366 Q302 1418 373 1447 Q444 1476 530 1476 Q622 1476 694.5 1440 Q767 1404 817 1343.5 Q867 1283 894 1204 Q921 1125 921 1038 L749 1038 Q749 1102 735.5 1156 Q722 1210 694.5 1249.5 Q667 1289 625.5 1311.5 Q584 1334 528 1334 Q474 1334 434.5 1315 Q395 1296 368.5 1263 Q342 1230 329 1185 Q316 1140 316 1088 Q316 993 375.5 928.5 Q435 864 562 811 Q653 777 721 736 Q789 695 834 641.5 Q879 588 901.5 521 Q924 454 924 368 Q924 279 896.5 207.5 Q869 136 818 85.5 Q767 35 695.5 7.5 Q624 -20 536 -20 Q458 -20 381.5 7.5 Q305 35 245 89.5 Q185 144 147.5 227 Q110 310 110 421 L283 421 Z " />
<g transform="translate(316,-366)" >
<path fill="black" d="M-484 -474 Q-456 -418 -441.5 -360 Q-427 -302 -427 -233 L-427 -151 L-288 -151 L-288 -230 Q-288 -270 -295.5 -312.5 Q-303 -355 -316.5 -396 Q-330 -437 -350.5 -474.5 Q-371 -512 -396 -541 L-484 -474 Z " />
</g>
</glyph>
<glyph glyph-name="uni0219" unicode="&#x219;" horiz-adv-x="1010" >
<path fill="black" d="M275 316 Q277 257 293.5 219 Q310 181 335 158.5 Q360 136 391.5 127 Q423 118 455 118 Q533 118 573.5 162 Q614 206 614 275 Q614 307 604.5 333 Q595 359 572.5 383 Q550 407 513 429.5 Q476 452 420 477 Q353 509 301 539.5 Q249 570 213 606.5 Q177 643 158.5 690 Q140 737 140 800 Q140 863 161.5 918.5 Q183 974 223.5 1014.5 Q264 1055 321 1078.5 Q378 1102 450 1102 Q525 1102 585 1077 Q645 1052 686.5 1008.5 Q728 965 750 905.5 Q772 846 772 776 L606 776 Q606 812 596 846 Q586 880 566.5 906 Q547 932 517.5 948 Q488 964 450 964 Q412 964 384 950.5 Q356 937 338 915 Q320 893 311.5 864.5 Q303 836 303 806 Q303 775 311 752 Q319 729 340 708 Q361 687 397 667 Q433 647 489 622 Q561 589 615 557 Q669 525 705 486.5 Q741 448 759 400 Q777 352 777 287 Q777 217 754 160 Q731 103 689 63 Q647 23 587 1.5 Q527 -20 453 -20 Q370 -20 306.5 8 Q243 36 199.5 82.5 Q156 129 134 189.5 Q112 250 112 316 L275 316 Z " />
<g transform="translate(272,-376)" >
<path fill="black" d="M-484 -474 Q-456 -418 -441.5 -360 Q-427 -302 -427 -233 L-427 -151 L-288 -151 L-288 -230 Q-288 -270 -295.5 -312.5 Q-303 -355 -316.5 -396 Q-330 -437 -350.5 -474.5 Q-371 -512 -396 -541 L-484 -474 Z " />
</g>
</glyph>
<glyph glyph-name="uni021A" unicode="&#x21a;" horiz-adv-x="1142" >
<path fill="black" d="M433 1314 L86 1314 L86 1456 L953 1456 L953 1314 L605 1314 L605 0 L433 0 L433 1314 Z " />
<g transform="translate(304,-366)" >
<path fill="black" d="M-484 -474 Q-456 -418 -441.5 -360 Q-427 -302 -427 -233 L-427 -151 L-288 -151 L-288 -230 Q-288 -270 -295.5 -312.5 Q-303 -355 -316.5 -396 Q-330 -437 -350.5 -474.5 Q-371 -512 -396 -541 L-484 -474 Z " />
</g>
</glyph>
<glyph glyph-name="uni021B" unicode="&#x21b;" horiz-adv-x="674" >
<path fill="black" d="M197 953 L60 953 L60 1082 L197 1082 L197 1349 L363 1349 L363 1082 L512 1082 L512 953 L363 953 L363 267 Q363 221 369.5 192.5 Q376 164 388 148.5 Q400 133 416.5 128 Q433 123 452 123 Q470 123 488 127 Q506 131 517 135 L518 -1 Q498 -8 469 -14 Q440 -20 403 -20 Q358 -20 320.5 -5.5 Q283 9 255.5 42.5 Q228 76 212.5 131.5 Q197 187 197 268 L197 953 Z " />
<g transform="translate(176,-366)" >
<path fill="black" d="M-484 -474 Q-456 -418 -441.5 -360 Q-427 -302 -427 -233 L-427 -151 L-288 -151 L-288 -230 Q-288 -270 -295.5 -312.5 Q-303 -355 -316.5 -396 Q-330 -437 -350.5 -474.5 Q-371 -512 -396 -541 L-484 -474 Z " />
</g>
</glyph>
<glyph glyph-name="uni0298" unicode="&#x298;" horiz-adv-x="1314" d="M145 855 Q145 1007 177 1123 Q209 1239 267.5 1317.5 Q326 1396 407.5 1436 Q489 1476 589 1476 Q690 1476 772.5 1436 Q855 1396 913 1317.5 Q971 1239 1002.5 1123 Q1034 1007 1034 855 L1034 601 Q1034 448 1002.5 332 Q971 216 913.5 138 Q856 60 774 20 Q692 -20 591 -20 Q491 -20 409 20 Q327 60 268.5 138 Q210 216 177.5 332 Q145 448 145 601 L145 855 Z M861 857 Q861 1099 790.5 1213.5 Q720 1328 589 1328 Q460 1328 388 1213.5 Q316 1099 316 857 L316 601 Q316 479 335 389.5 Q354 300 389 241.5 Q424 183 475.5 155 Q527 127 591 127 Q722 127 791.5 242 Q861 357 861 601 L861 857 Z M582 630 Q535 630 509.5 659 Q484 688 484 731 Q484 775 509.5 805 Q535 835 582 835 Q630 835 655.5 805 Q681 775 681 731 Q681 688 655.5 659 Q630 630 582 630 Z " />
<glyph glyph-name="uni02AA" unicode="&#x2aa;" horiz-adv-x="1287" d="M165 1536 L331 1536 L331 269 Q382 223 432 194 Q482 165 528 148 Q574 131 615 124.5 Q656 118 687 118 Q729 118 760.5 131 Q792 144 813 166.5 Q834 189 844.5 219 Q855 249 855 284 Q855 319 846.5 348 Q838 377 817 401 Q796 425 761 445.5 Q726 466 672 482 Q606 502 552 528 Q498 554 460 590.5 Q422 627 401.5 676 Q381 725 381 791 Q381 854 402.5 910.5 Q424 967 464 1009.5 Q504 1052 561.5 1077 Q619 1102 690 1102 Q766 1102 825.5 1076 Q885 1050 926.5 1005 Q968 960 990 899 Q1012 838 1012 769 L847 769 Q847 805 837 839.5 Q827 874 807 902 Q787 930 758 947 Q729 964 690 964 Q652 964 624.5 949.5 Q597 935 579 911.5 Q561 888 552 858 Q543 828 543 797 Q543 730 583.5 689.5 Q624 649 721 622 Q795 600 850.5 571 Q906 542 943 503 Q980 464 999 413 Q1018 362 1018 295 Q1018 225 995 167 Q972 109 929 67.5 Q886 26 824.5 3 Q763 -20 687 -20 Q638 -20 587.5 -11.5 Q537 -3 486 15 L486 -1 Q466 -8 437 -14 Q408 -20 371 -20 Q326 -20 288.5 -5.5 Q251 9 223.5 42.5 Q196 76 180.5 131.5 Q165 187 165 268 L165 1536 Z " />
<glyph glyph-name="uni02AD" unicode="&#x2ad;" horiz-adv-x="845" d="M120 581 L725 581 L725 0 L603 0 L603 473 L244 473 L244 0 L120 0 L120 581 Z M120 1455 L725 1455 L725 874 L603 874 L603 1347 L244 1347 L244 874 L120 874 L120 1455 Z " />
<glyph glyph-name="uni02AF" unicode="&#x2af;" horiz-adv-x="1132" d="M744 123 Q706 56 649 18 Q592 -20 514 -20 Q453 -20 403.5 6 Q354 32 319 87.5 Q284 143 264.5 230 Q245 317 245 439 L245 607 L244 607 L244 793 Q244 892 211 936 Q178 980 124 980 Q112 980 98 978 Q84 976 73 973 L72 1089 Q92 1095 115 1098.5 Q138 1102 164 1102 Q212 1102 256.5 1081.5 Q301 1061 335.5 1022 Q370 983 391 925.5 Q412 868 412 793 L412 437 Q412 343 423.5 281.5 Q435 220 454.5 184.5 Q474 149 500 135 Q526 121 555 121 Q595 121 625.5 136 Q656 151 679.5 178 Q703 205 718.5 241.5 Q734 278 744 320 L744 1082 L910 1082 L910 -128 Q910 -226 944 -270.5 Q978 -315 1031 -315 Q1043 -315 1057 -313 Q1071 -311 1081 -308 L1082 -424 Q1063 -430 1039.5 -433.5 Q1016 -437 990 -437 Q943 -437 898.5 -416.5 Q854 -396 819.5 -357 Q785 -318 764.5 -260.5 Q744 -203 744 -128 L744 123 Z " />
<glyph glyph-name="uni02B5" unicode="&#x2b5;" horiz-adv-x="589" d="M265 747 Q240 695 206.5 666 Q173 637 131 637 Q114 637 101 639.5 Q88 642 82 644 L82 803 Q98 794 116 788 Q134 782 156 782 Q195 782 222.5 811 Q250 840 265 891 L265 1452 L402 1452 L402 564 Q402 522 416.5 507 Q431 492 455 492 Q485 492 508 502 L508 358 Q479 349 452.5 344 Q426 339 399 339 Q363 339 338 354.5 Q313 370 296.5 398.5 Q280 427 272.5 466 Q265 505 265 553 L265 747 Z " />
<glyph glyph-name="uni02B9" unicode="&#x2b9;" horiz-adv-x="400" d="M164 1562 L319 1562 L174 1191 L80 1191 L164 1562 Z " />
<glyph glyph-name="uni02BA" unicode="&#x2ba;" horiz-adv-x="637" >
<g transform="translate(7,0)" >
<path fill="black" d="M164 1562 L319 1562 L174 1191 L80 1191 L164 1562 Z " />
</g>
<g transform="translate(276,0)" >
<path fill="black" d="M164 1562 L319 1562 L174 1191 L80 1191 L164 1562 Z " />
</g>
</glyph>
<glyph glyph-name="uni02BB" unicode="&#x2bb;" horiz-adv-x="444" d="M112 1197 Q112 1245 121.5 1295 Q131 1345 148.5 1393.5 Q166 1442 190 1485.5 Q214 1529 244 1563 L332 1497 Q300 1428 282.5 1356.5 Q265 1285 265 1200 L265 1016 L112 1016 L112 1197 Z " />
<glyph glyph-name="uni02BC" unicode="&#x2bc;" horiz-adv-x="428" d="M100 1128 Q132 1194 150.5 1261 Q169 1328 169 1409 L169 1536 L317 1536 L317 1411 Q317 1366 307.5 1318 Q298 1270 281 1224 Q264 1178 239.5 1136.5 Q215 1095 185 1062 L100 1128 Z " />
<glyph glyph-name="uni02BD" unicode="&#x2bd;" horiz-adv-x="444" d="M244 1016 Q214 1051 190 1094.5 Q166 1138 148.5 1186.5 Q131 1235 121.5 1285 Q112 1335 112 1383 L112 1563 L265 1563 L265 1380 Q265 1295 282.5 1223.5 Q300 1152 332 1084 L244 1016 Z " />
<glyph glyph-name="uni02BE" unicode="&#x2be;" horiz-adv-x="338" d="M94 1214 Q125 1214 146 1242 Q167 1270 167 1314 Q167 1359 146 1387.5 Q125 1416 94 1416 L94 1502 Q126 1502 153.5 1488 Q181 1474 201 1448.5 Q221 1423 233 1389 Q245 1355 245 1314 Q245 1274 233 1240 Q221 1206 201 1182 Q181 1158 153.5 1144.5 Q126 1131 94 1131 L94 1214 Z " />
<glyph glyph-name="uni02BF" unicode="&#x2bf;" horiz-adv-x="338" d="M245 1131 Q214 1131 186.5 1144.5 Q159 1158 138.5 1182 Q118 1206 106 1240 Q94 1274 94 1314 Q94 1355 106 1389 Q118 1423 138.5 1448.5 Q159 1474 186.5 1488 Q214 1502 245 1502 L245 1416 Q213 1416 192.5 1387.5 Q172 1359 172 1314 Q172 1270 192.5 1242 Q213 1214 245 1214 L245 1131 Z " />
<glyph glyph-name="uni02C0" unicode="&#x2c0;" horiz-adv-x="679" d="M255 1014 L304 1014 Q347 1014 374 1039.5 Q401 1065 416 1107 Q431 1149 436.5 1203 Q442 1257 442 1313 L442 1406 Q442 1462 436 1510.5 Q430 1559 415 1595.5 Q400 1632 375 1653 Q350 1674 313 1674 Q258 1674 231.5 1632 Q205 1590 200 1518 L73 1518 Q74 1581 91.5 1633.5 Q109 1686 140.5 1724 Q172 1762 215.5 1783.5 Q259 1805 312 1805 Q379 1805 429.5 1773 Q480 1741 513.5 1686.5 Q547 1632 564 1559.5 Q581 1487 581 1406 L581 1313 Q581 1152 534.5 1043 Q488 934 395 899 L395 651 L255 651 L255 1014 Z " />
<glyph glyph-name="uni02C1" unicode="&#x2c1;" horiz-adv-x="679" d="M284 899 Q191 934 144.5 1043 Q98 1152 98 1313 L98 1406 Q98 1487 115 1559.5 Q132 1632 166 1686.5 Q200 1741 250 1773 Q300 1805 367 1805 Q420 1805 463.5 1783.5 Q507 1762 538 1724 Q569 1686 587 1633.5 Q605 1581 606 1518 L480 1518 Q474 1590 448 1632 Q422 1674 366 1674 Q329 1674 304 1653 Q279 1632 264.5 1595.5 Q250 1559 244 1510.5 Q238 1462 238 1406 L238 1313 Q238 1257 243.5 1203 Q249 1149 264 1107 Q279 1065 306 1039.5 Q333 1014 375 1014 L424 1014 L424 651 L284 651 L284 899 Z " />
<glyph glyph-name="uni02C2" unicode="&#x2c2;" horiz-adv-x="754" d="M98 1022 L656 1329 L656 1180 L308 985 L236 962 L308 938 L656 746 L656 596 L98 904 L98 1022 Z " />
<glyph glyph-name="uni02C3" unicode="&#x2c3;" horiz-adv-x="752" d="M94 746 L441 938 L513 962 L441 985 L94 1180 L94 1329 L651 1022 L651 904 L94 596 L94 746 Z " />
<glyph glyph-name="uni02C4" unicode="&#x2c4;" horiz-adv-x="733" d="M310 1310 L424 1310 L646 583 L514 583 L379 1060 L366 1124 L353 1060 L221 583 L88 583 L310 1310 Z " />
<glyph glyph-name="uni02C5" unicode="&#x2c5;" horiz-adv-x="735" d="M88 1310 L221 1310 L353 833 L366 769 L379 833 L514 1310 L646 1310 L424 583 L310 583 L88 1310 Z " />
<glyph glyph-name="circumflex" unicode="&#x2c6;" horiz-adv-x="841" d="M165 1267 L365 1534 L463 1534 L665 1265 L665 1255 L530 1255 L414 1428 L299 1255 L165 1255 L165 1267 Z " />
<glyph glyph-name="caron" unicode="&#x2c7;" horiz-adv-x="802" d="M143 1520 L143 1532 L284 1532 L398 1354 L512 1532 L654 1532 L654 1520 L450 1251 L346 1251 L143 1520 Z " />
<glyph glyph-name="uni02C8" unicode="&#x2c8;" horiz-adv-x="313" d="M98 1151 L98 1559 L215 1559 L215 1151 L98 1151 Z " />
<glyph glyph-name="uni02C9" unicode="&#x2c9;" horiz-adv-x="833" >
<g transform="translate(7,0)" >
<path fill="black" d="M165 1314 L165 1444 L674 1444 L674 1314 L165 1314 Z " />
</g>
</glyph>
<glyph glyph-name="uni02CA" unicode="&#x2ca;" horiz-adv-x="562" >
<g transform="translate(-23,0)" >
<path fill="black" d="M307 1536 L506 1536 L281 1246 L139 1246 L307 1536 Z " />
</g>
</glyph>
<glyph glyph-name="uni02CB" unicode="&#x2cb;" horiz-adv-x="559" >
<g transform="translate(10,0)" >
<path fill="black" d="M304 1246 L84 1536 L281 1536 L450 1246 L304 1246 Z " />
</g>
</glyph>
<glyph glyph-name="uni02CC" unicode="&#x2cc;" horiz-adv-x="313" >
<g transform="translate(0,-1652)" >
<path fill="black" d="M98 1151 L98 1559 L215 1559 L215 1151 L98 1151 Z " />
</g>
</glyph>
<glyph glyph-name="uni02CD" unicode="&#x2cd;" horiz-adv-x="736" >
<g transform="translate(-44,-1600)" >
<path fill="black" d="M165 1314 L165 1444 L674 1444 L674 1314 L165 1314 Z " />
</g>
</glyph>
<glyph glyph-name="uni02CE" unicode="&#x2ce;" horiz-adv-x="559" >
<g transform="translate(10,-1604)" >
<path fill="black" d="M304 1246 L84 1536 L281 1536 L450 1246 L304 1246 Z " />
</g>
</glyph>
<glyph glyph-name="uni02CF" unicode="&#x2cf;" horiz-adv-x="562" >
<g transform="translate(-23,-1604)" >
<path fill="black" d="M307 1536 L506 1536 L281 1246 L139 1246 L307 1536 Z " />
</g>
</glyph>
<glyph glyph-name="uni02D0" unicode="&#x2d0;" horiz-adv-x="469" d="M125 0 L226 195 L242 195 L344 0 L125 0 Z M125 1078 L344 1078 L242 883 L226 883 L125 1078 Z " />
<glyph glyph-name="uni02D1" unicode="&#x2d1;" horiz-adv-x="469" d="M125 1078 L344 1078 L242 883 L226 883 L125 1078 Z " />
<glyph glyph-name="uni02D2" unicode="&#x2d2;" horiz-adv-x="339" >
<g transform="translate(7,-988)" >
<path fill="black" d="M94 1214 Q125 1214 146 1242 Q167 1270 167 1314 Q167 1359 146 1387.5 Q125 1416 94 1416 L94 1502 Q126 1502 153.5 1488 Q181 1474 201 1448.5 Q221 1423 233 1389 Q245 1355 245 1314 Q245 1274 233 1240 Q221 1206 201 1182 Q181 1158 153.5 1144.5 Q126 1131 94 1131 L94 1214 Z " />
</g>
</glyph>
<glyph glyph-name="uni02D3" unicode="&#x2d3;" horiz-adv-x="338" d="M245 142 Q214 142 186.5 155.5 Q159 169 138.5 193 Q118 217 106 251 Q94 285 94 326 Q94 366 106 400.5 Q118 435 138.5 460 Q159 485 186.5 499 Q214 513 245 513 L245 428 Q213 428 192.5 399.5 Q172 371 172 326 Q172 283 192.5 254.5 Q213 226 245 226 L245 142 Z " />
<glyph glyph-name="uni02D5" unicode="&#x2d5;" horiz-adv-x="551" d="M218 411 L112 411 L112 533 L440 533 L440 411 L334 411 L334 171 L218 171 L218 411 Z " />
<glyph glyph-name="uni02D6" unicode="&#x2d6;" horiz-adv-x="551" d="M218 292 L112 292 L112 412 L218 412 L218 553 L334 553 L334 412 L440 412 L440 292 L334 292 L334 151 L218 151 L218 292 Z " />
<glyph glyph-name="uni02D7" unicode="&#x2d7;" horiz-adv-x="555" d="M98 412 L457 412 L457 292 L98 292 L98 412 Z " />
<glyph glyph-name="breve" unicode="&#x2d8;" horiz-adv-x="844" d="M263 1494 Q263 1463 270.5 1434.5 Q278 1406 294.5 1385 Q311 1364 337.5 1351.5 Q364 1339 402 1339 Q440 1339 466 1351.5 Q492 1364 508.5 1385.5 Q525 1407 532.5 1435 Q540 1463 540 1494 L673 1494 Q673 1436 654.5 1387 Q636 1338 600.5 1303.5 Q565 1269 515 1249.5 Q465 1230 402 1230 Q339 1230 289 1249.5 Q239 1269 203.5 1303.5 Q168 1338 149.5 1387 Q131 1436 131 1494 L263 1494 Z " />
<glyph glyph-name="dotaccent" unicode="&#x2d9;" horiz-adv-x="509" d="M151 1372 Q151 1414 176.5 1442.5 Q202 1471 250 1471 Q296 1471 322 1442.5 Q348 1414 348 1372 Q348 1330 322 1302 Q296 1274 250 1274 Q202 1274 176.5 1302 Q151 1330 151 1372 Z " />
<glyph glyph-name="ring" unicode="&#x2da;" horiz-adv-x="655" d="M325 1206 Q286 1206 252.5 1221 Q219 1236 195 1263 Q171 1290 157.5 1326.5 Q144 1363 144 1405 Q144 1447 157.5 1484 Q171 1521 195 1548.5 Q219 1576 252.5 1592 Q286 1608 325 1608 Q364 1608 396.5 1592 Q429 1576 453 1548.5 Q477 1521 490.5 1484 Q504 1447 504 1405 Q504 1363 490.5 1326.5 Q477 1290 453 1263 Q429 1236 396.5 1221 Q364 1206 325 1206 Z M325 1290 Q369 1290 394 1323.5 Q419 1357 419 1405 Q419 1429 412.5 1450.5 Q406 1472 394 1488.5 Q382 1505 364.5 1514.5 Q347 1524 325 1524 Q303 1524 285 1514.5 Q267 1505 254.5 1488.5 Q242 1472 235.5 1450.5 Q229 1429 229 1405 Q229 1382 235.5 1361 Q242 1340 254.5 1324.5 Q267 1309 285 1299.5 Q303 1290 325 1290 Z " />
<glyph glyph-name="ogonek" unicode="&#x2db;" horiz-adv-x="538" d="M361 -384 Q342 -399 313 -413.5 Q284 -428 239 -428 Q207 -428 179 -416.5 Q151 -405 130.5 -381.5 Q110 -358 98 -323.5 Q86 -289 86 -244 Q86 -165 128 -88 Q170 -11 268 51 L345 0 Q293 -50 256.5 -105 Q220 -160 220 -225 Q220 -260 232.5 -281 Q245 -302 276 -302 Q299 -302 316.5 -292 Q334 -282 345 -274 L361 -384 Z " />
<glyph glyph-name="tilde" unicode="&#x2dc;" horiz-adv-x="833" d="M143 1254 Q143 1307 155.5 1350 Q168 1393 189.5 1424.5 Q211 1456 241 1473 Q271 1490 306 1490 Q338 1490 363 1474.5 Q388 1459 411 1440.5 Q434 1422 458 1406.5 Q482 1391 511 1391 Q541 1391 562 1423.5 Q583 1456 583 1507 L686 1497 Q686 1444 673.5 1400.5 Q661 1357 639.5 1326.5 Q618 1296 588 1279 Q558 1262 523 1262 Q485 1262 460 1277.5 Q435 1293 413.5 1312 Q392 1331 370.5 1346.5 Q349 1362 318 1362 Q288 1362 267.5 1330.5 Q247 1299 247 1249 L143 1254 Z " />
<glyph glyph-name="hungarumlaut" unicode="&#x2dd;" horiz-adv-x="704" d="M519 1535 L686 1535 L484 1232 L346 1232 L519 1535 Z M250 1535 L412 1535 L243 1232 L115 1232 L250 1535 Z " />
<glyph glyph-name="uni02DE" unicode="&#x2de;" horiz-adv-x="455" d="M-97 715 L188 786 Q195 716 200.5 666 Q206 616 216 584.5 Q226 553 242.5 538.5 Q259 524 289 524 Q310 524 329 530 L355 390 Q332 376 305.5 367.5 Q279 359 251 359 Q204 359 173.5 375 Q143 391 123 422.5 Q103 454 90.5 500 Q78 546 67 607 L-97 563 L-97 715 Z " />
<glyph glyph-name="uni02DF" unicode="&#x2df;" horiz-adv-x="607" d="M112 1245 L232 1401 L113 1557 L190 1644 L304 1494 L418 1643 L495 1556 L375 1400 L494 1244 L417 1156 L303 1306 L189 1158 L112 1245 Z " />
<glyph glyph-name="uni02E0" unicode="&#x2e0;" horiz-adv-x="754" d="M303 685 L92 1452 L247 1452 L368 903 L377 850 L386 903 L506 1452 L662 1452 L447 671 L500 511 Q513 474 520 446 Q527 418 527 395 Q527 315 485 271.5 Q443 228 374 228 Q305 228 262 271.5 Q219 315 219 395 Q219 419 226.5 446 Q234 473 245 507 L303 685 Z M374 352 Q392 352 398.5 366 Q405 380 405 402 Q405 425 397.5 455 Q390 485 375 534 Q359 485 350.5 455 Q342 425 342 402 Q342 379 349 365.5 Q356 352 374 352 Z " />
<glyph glyph-name="uni02E1" unicode="&#x2e1;" horiz-adv-x="394" d="M129 651 L129 1805 L265 1805 L265 651 L129 651 Z " />
<glyph glyph-name="uni02E2" unicode="&#x2e2;" horiz-adv-x="697" d="M231 892 Q234 854 245.5 830 Q257 806 275 792 Q293 778 315.5 772.5 Q338 767 364 767 Q410 767 436.5 793 Q463 819 463 861 Q463 908 431 940 Q399 972 326 995 Q277 1010 238.5 1030.5 Q200 1051 173 1080 Q146 1109 132 1148.5 Q118 1188 118 1240 Q118 1292 135 1333.5 Q152 1375 182 1404.5 Q212 1434 254 1450 Q296 1466 346 1466 Q405 1466 451 1446.5 Q497 1427 529 1393.5 Q561 1360 578 1315 Q595 1270 595 1219 L459 1219 Q459 1242 452.5 1263 Q446 1284 432.5 1300 Q419 1316 399 1325.5 Q379 1335 350 1335 Q324 1335 305.5 1327 Q287 1319 275.5 1305.5 Q264 1292 258.5 1275.5 Q253 1259 253 1241 Q253 1195 282.5 1170.5 Q312 1146 379 1126 Q433 1109 474 1087.5 Q515 1066 542.5 1036 Q570 1006 584.5 965.5 Q599 925 599 870 Q599 756 537.5 696 Q476 636 360 636 Q295 636 246 657 Q197 678 164 713 Q131 748 114.5 794.5 Q98 841 98 892 L231 892 Z " />
<glyph glyph-name="uni02E4" unicode="&#x2e4;" horiz-adv-x="737" d="M299 770 Q214 792 163.5 876.5 Q113 961 113 1107 Q113 1194 132 1260.5 Q151 1327 185.5 1373 Q220 1419 267.5 1442.5 Q315 1466 371 1466 Q425 1466 472 1445.5 Q519 1425 553.5 1386 Q588 1347 608 1292 Q628 1237 628 1168 L492 1168 Q490 1243 458 1289 Q426 1335 374 1335 Q309 1335 279 1273.5 Q249 1212 249 1109 Q249 1009 276.5 950.5 Q304 892 373 892 L436 892 L436 651 L299 651 L299 770 Z " />
<glyph glyph-name="uni02EA" unicode="&#x2ea;" horiz-adv-x="705" d="M156 908 L322 908 L322 138 L617 138 L617 0 L156 0 L156 908 Z " />
<glyph glyph-name="uni02EE" unicode="&#x2ee;" horiz-adv-x="685" >
<g transform="translate(644,-3)" >
<path fill="black" d="M-532 1083 Q-499 1152 -481.5 1223.5 Q-464 1295 -464 1380 L-464 1563 L-312 1563 L-312 1383 Q-312 1335 -321.5 1285 Q-331 1235 -348.5 1187 Q-366 1139 -390 1095.5 Q-414 1052 -444 1017 L-532 1083 Z " />
</g>
<g transform="translate(885,-3)" >
<path fill="black" d="M-532 1083 Q-499 1152 -481.5 1223.5 Q-464 1295 -464 1380 L-464 1563 L-312 1563 L-312 1383 Q-312 1335 -321.5 1285 Q-331 1235 -348.5 1187 Q-366 1139 -390 1095.5 Q-414 1052 -444 1017 L-532 1083 Z " />
</g>
</glyph>
<glyph glyph-name="uni02EF" unicode="&#x2ef;" horiz-adv-x="587" d="M98 -72 L192 -72 L284 -382 L293 -423 L302 -382 L394 -72 L489 -72 L333 -545 L254 -545 L98 -72 Z " />
<glyph glyph-name="uni02F0" unicode="&#x2f0;" horiz-adv-x="587" d="M253 -72 L333 -72 L489 -545 L394 -545 L301 -235 L293 -195 L284 -235 L192 -545 L98 -545 L253 -72 Z " />
<glyph glyph-name="uni02F1" unicode="&#x2f1;" horiz-adv-x="587" d="M98 -270 L489 -71 L489 -170 L246 -297 L201 -310 L246 -323 L489 -448 L489 -547 L98 -348 L98 -270 Z " />
<glyph glyph-name="uni02F2" unicode="&#x2f2;" horiz-adv-x="587" d="M98 -448 L341 -323 L386 -310 L341 -297 L98 -170 L98 -71 L489 -270 L489 -348 L98 -547 L98 -448 Z " />
<glyph glyph-name="uni02F3" unicode="&#x2f3;" horiz-adv-x="571" d="M287 -395 Q260 -395 236 -383.5 Q212 -372 194 -352 Q176 -332 165.5 -303.5 Q155 -275 155 -240 Q155 -205 165.5 -175.5 Q176 -146 194 -124.5 Q212 -103 236 -91 Q260 -79 287 -79 Q315 -79 339 -91 Q363 -103 381 -124.5 Q399 -146 409 -175.5 Q419 -205 419 -240 Q419 -275 409 -303.5 Q399 -332 381 -352 Q363 -372 339 -383.5 Q315 -395 287 -395 Z M287 -319 Q313 -319 330.5 -296 Q348 -273 348 -240 Q348 -205 330.5 -180.5 Q313 -156 287 -156 Q262 -156 244 -180.5 Q226 -205 226 -240 Q226 -272 244 -295.5 Q262 -319 287 -319 Z " />
<glyph glyph-name="uni02F4" unicode="&#x2f4;" horiz-adv-x="559" >
<g transform="translate(10,-1021)" >
<path fill="black" d="M304 1246 L84 1536 L281 1536 L450 1246 L304 1246 Z " />
</g>
</glyph>
<glyph glyph-name="uni02F5" unicode="&#x2f5;" horiz-adv-x="857" >
<g transform="translate(10,-1021)" >
<path fill="black" d="M304 1246 L84 1536 L281 1536 L450 1246 L304 1246 Z " />
</g>
<g transform="translate(357,-1017)" >
<path fill="black" d="M304 1246 L84 1536 L281 1536 L450 1246 L304 1246 Z " />
</g>
</glyph>
<glyph glyph-name="uni02F6" unicode="&#x2f6;" horiz-adv-x="861" >
<g transform="translate(-23,-1022)" >
<path fill="black" d="M307 1536 L506 1536 L281 1246 L139 1246 L307 1536 Z " />
</g>
<g transform="translate(303,-1017)" >
<path fill="black" d="M307 1536 L506 1536 L281 1246 L139 1246 L307 1536 Z " />
</g>
</glyph>
<glyph glyph-name="uni02F7" unicode="&#x2f7;" horiz-adv-x="761" >
<g transform="translate(-34,-1674)" >
<path fill="black" d="M143 1254 Q143 1307 155.5 1350 Q168 1393 189.5 1424.5 Q211 1456 241 1473 Q271 1490 306 1490 Q338 1490 363 1474.5 Q388 1459 411 1440.5 Q434 1422 458 1406.5 Q482 1391 511 1391 Q541 1391 562 1423.5 Q583 1456 583 1507 L686 1497 Q686 1444 673.5 1400.5 Q661 1357 639.5 1326.5 Q618 1296 588 1279 Q558 1262 523 1262 Q485 1262 460 1277.5 Q435 1293 413.5 1312 Q392 1331 370.5 1346.5 Q349 1362 318 1362 Q288 1362 267.5 1330.5 Q247 1299 247 1249 L143 1254 Z " />
</g>
</glyph>
<glyph glyph-name="uni02F8" unicode="&#x2f8;" horiz-adv-x="428" >
<g transform="translate(-34,400)" >
<path fill="black" d="M158 90 Q158 135 185.5 164.5 Q213 194 263 194 Q313 194 341 164.5 Q369 135 369 90 Q369 48 341 18.5 Q313 -11 263 -11 Q213 -11 185.5 18.5 Q158 48 158 90 Z " />
</g>
<g transform="translate(-80,1276)" >
<path fill="black" d="M158 90 Q158 135 185.5 164.5 Q213 194 263 194 Q313 194 341 164.5 Q369 135 369 90 Q369 48 341 18.5 Q313 -11 263 -11 Q213 -11 185.5 18.5 Q158 48 158 90 Z " />
</g>
</glyph>
<glyph glyph-name="uni02F9" unicode="&#x2f9;" horiz-adv-x="529" d="M112 1536 L418 1536 L418 1414 L230 1414 L230 1150 L112 1150 L112 1536 Z " />
<glyph glyph-name="uni02FA" unicode="&#x2fa;" horiz-adv-x="529" d="M301 1414 L112 1414 L112 1536 L418 1536 L418 1150 L301 1150 L301 1414 Z " />
<glyph glyph-name="uni02FB" unicode="&#x2fb;" horiz-adv-x="529" d="M112 -82 L230 -82 L230 -346 L418 -346 L418 -468 L112 -468 L112 -82 Z " />
<glyph glyph-name="uni02FC" unicode="&#x2fc;" horiz-adv-x="529" d="M112 -346 L301 -346 L301 -82 L418 -82 L418 -468 L112 -468 L112 -346 Z " />
<glyph glyph-name="uni02FD" unicode="&#x2fd;" horiz-adv-x="742" d="M112 -90 L229 -90 L229 -336 L512 -336 L512 -90 L630 -90 L630 -444 L112 -444 L112 -90 Z " />
<glyph glyph-name="uni02FE" unicode="&#x2fe;" horiz-adv-x="714" d="M112 -82 L229 -82 L229 -360 L602 -360 L602 -468 L112 -468 L112 -82 Z " />
<glyph glyph-name="uni02FF" unicode="&#x2ff;" horiz-adv-x="792" d="M103 -133 L330 169 L467 169 L277 -79 L681 -79 L681 -186 L277 -186 L467 -435 L330 -435 L103 -133 Z " />
<glyph glyph-name="gravecomb" unicode="&#x300;" horiz-adv-x="60" d="M-404 1246 L-602 1536 L-412 1536 L-265 1246 L-404 1246 Z " />
<glyph glyph-name="acutecomb" unicode="&#x301;" horiz-adv-x="60" d="M-301 1536 L-111 1536 L-314 1246 L-448 1246 L-301 1536 Z " />
<glyph glyph-name="uni0302" unicode="&#x302;" horiz-adv-x="60" >
<g transform="translate(-796,0)" >
<path fill="black" d="M165 1267 L365 1534 L463 1534 L665 1265 L665 1255 L530 1255 L414 1428 L299 1255 L165 1255 L165 1267 Z " />
</g>
</glyph>
<glyph glyph-name="tildecomb" unicode="&#x303;" horiz-adv-x="60" >
<g transform="translate(-761,0)" >
<path fill="black" d="M143 1254 Q143 1307 155.5 1350 Q168 1393 189.5 1424.5 Q211 1456 241 1473 Q271 1490 306 1490 Q338 1490 363 1474.5 Q388 1459 411 1440.5 Q434 1422 458 1406.5 Q482 1391 511 1391 Q541 1391 562 1423.5 Q583 1456 583 1507 L686 1497 Q686 1444 673.5 1400.5 Q661 1357 639.5 1326.5 Q618 1296 588 1279 Q558 1262 523 1262 Q485 1262 460 1277.5 Q435 1293 413.5 1312 Q392 1331 370.5 1346.5 Q349 1362 318 1362 Q288 1362 267.5 1330.5 Q247 1299 247 1249 L143 1254 Z " />
</g>
</glyph>
<glyph glyph-name="uni0304" unicode="&#x304;" horiz-adv-x="60" >
<g transform="translate(-806,0)" >
<path fill="black" d="M165 1314 L165 1444 L674 1444 L674 1314 L165 1314 Z " />
</g>
</glyph>
<glyph glyph-name="uni0305" unicode="&#x305;" horiz-adv-x="60" >
<g transform="translate(-777,1732)" >
<path fill="black" d="M53 -138 L53 0 L740 0 L740 -138 L53 -138 Z " />
</g>
</glyph>
<glyph glyph-name="uni0306" unicode="&#x306;" horiz-adv-x="60" d="M-499 1494 Q-499 1463 -493 1434.5 Q-487 1406 -474 1385 Q-461 1364 -439.5 1351.5 Q-418 1339 -387 1339 Q-357 1339 -336 1351.5 Q-315 1364 -301.5 1385.5 Q-288 1407 -281.5 1435 Q-275 1463 -275 1494 L-149 1494 Q-149 1436 -165.5 1387 Q-182 1338 -213 1303.5 Q-244 1269 -288 1249.5 Q-332 1230 -387 1230 Q-442 1230 -486.5 1249.5 Q-531 1269 -562 1303.5 Q-593 1338 -609.5 1387 Q-626 1436 -626 1494 L-499 1494 Z " />
<glyph glyph-name="uni0307" unicode="&#x307;" horiz-adv-x="60" d="M-386 1280 Q-432 1280 -457.5 1308 Q-483 1336 -483 1378 Q-483 1420 -457.5 1448.5 Q-432 1477 -386 1477 Q-341 1477 -315.5 1448.5 Q-290 1420 -290 1378 Q-290 1336 -315.5 1308 Q-341 1280 -386 1280 Z " />
<glyph glyph-name="uni0308" unicode="&#x308;" horiz-adv-x="60" d="M-272 1280 Q-314 1280 -337.5 1307.5 Q-361 1335 -361 1377 Q-361 1419 -337.5 1447.5 Q-314 1476 -272 1476 Q-230 1476 -206 1447.5 Q-182 1419 -182 1377 Q-182 1335 -206 1307.5 Q-230 1280 -272 1280 Z M-614 1282 Q-656 1282 -679.5 1309.5 Q-703 1337 -703 1379 Q-703 1421 -679.5 1449.5 Q-656 1478 -614 1478 Q-572 1478 -548 1449.5 Q-524 1421 -524 1379 Q-524 1337 -548 1309.5 Q-572 1282 -614 1282 Z " />
<glyph glyph-name="hookabovecomb" unicode="&#x309;" horiz-adv-x="60" d="M-458 1239 L-462 1383 Q-405 1390 -380 1406.5 Q-355 1423 -355 1465 Q-355 1510 -389.5 1528.5 Q-424 1547 -475 1547 L-470 1644 Q-346 1644 -282.5 1594.5 Q-219 1545 -219 1462 Q-219 1423 -229 1395.5 Q-239 1368 -255 1349.5 Q-271 1331 -292.5 1321 Q-314 1311 -336 1307 L-335 1239 L-458 1239 Z " />
<glyph glyph-name="uni030A" unicode="&#x30a;" horiz-adv-x="60" >
<g transform="translate(-688,0)" >
<path fill="black" d="M325 1206 Q286 1206 252.5 1221 Q219 1236 195 1263 Q171 1290 157.5 1326.5 Q144 1363 144 1405 Q144 1447 157.5 1484 Q171 1521 195 1548.5 Q219 1576 252.5 1592 Q286 1608 325 1608 Q364 1608 396.5 1592 Q429 1576 453 1548.5 Q477 1521 490.5 1484 Q504 1447 504 1405 Q504 1363 490.5 1326.5 Q477 1290 453 1263 Q429 1236 396.5 1221 Q364 1206 325 1206 Z M325 1290 Q369 1290 394 1323.5 Q419 1357 419 1405 Q419 1429 412.5 1450.5 Q406 1472 394 1488.5 Q382 1505 364.5 1514.5 Q347 1524 325 1524 Q303 1524 285 1514.5 Q267 1505 254.5 1488.5 Q242 1472 235.5 1450.5 Q229 1429 229 1405 Q229 1382 235.5 1361 Q242 1340 254.5 1324.5 Q267 1309 285 1299.5 Q303 1290 325 1290 Z " />
</g>
</glyph>
<glyph glyph-name="uni030B" unicode="&#x30b;" horiz-adv-x="60" >
<g transform="translate(-844,0)" >
<path fill="black" d="M307 1536 L506 1536 L281 1246 L139 1246 L307 1536 Z " />
</g>
<g transform="translate(-626,0)" >
<path fill="black" d="M307 1536 L506 1536 L281 1246 L139 1246 L307 1536 Z " />
</g>
</glyph>
<glyph glyph-name="uni030C" unicode="&#x30c;" horiz-adv-x="60" d="M-439 1255 L-638 1522 L-638 1534 L-504 1534 L-390 1360 L-274 1534 L-138 1534 L-138 1524 L-340 1255 L-439 1255 Z " />
<glyph glyph-name="uni030D" unicode="&#x30d;" horiz-adv-x="60" >
<g transform="translate(-537,0)" >
<path fill="black" d="M98 1151 L98 1559 L215 1559 L215 1151 L98 1151 Z " />
</g>
</glyph>
</font>
</svg>
